%TF.GenerationSoftware,KiCad,Pcbnew,(6.0.1)*%
%TF.CreationDate,2022-11-16T23:08:11+09:00*%
%TF.ProjectId,iidx-refine-xsw,69696478-2d72-4656-9669-6e652d787377,rev?*%
%TF.SameCoordinates,Original*%
%TF.FileFunction,Profile,NP*%
%FSLAX46Y46*%
G04 Gerber Fmt 4.6, Leading zero omitted, Abs format (unit mm)*
G04 Created by KiCad (PCBNEW (6.0.1)) date 2022-11-16 23:08:11*
%MOMM*%
%LPD*%
G01*
G04 APERTURE LIST*
%TA.AperFunction,Profile*%
%ADD10C,0.050000*%
%TD*%
G04 APERTURE END LIST*
D10*
X34000000Y-15000000D02*
X235500000Y-15000000D01*
X235500000Y-15000000D02*
X236000000Y-15000000D01*
X235000000Y-47500000D02*
X236000000Y-48500000D01*
X218000000Y-45000000D02*
X218000000Y-47500000D01*
X236000000Y-15000000D02*
X236000000Y-45000000D01*
X218000000Y-66500000D02*
X218000000Y-68500000D01*
X236000000Y-86500000D02*
X236000000Y-69500000D01*
X218000000Y-87500000D02*
X218000000Y-90000000D01*
X34000000Y-144000000D02*
X236000000Y-144000000D01*
X218000000Y-66500000D02*
X235000000Y-66500000D01*
X236000000Y-45000000D02*
X218000000Y-45000000D01*
X218000000Y-90000000D02*
X236000000Y-90000000D01*
X236000000Y-90000000D02*
X236000000Y-144000000D01*
X236000000Y-48500000D02*
X236000000Y-65500000D01*
X235000000Y-66500000D02*
X236000000Y-65500000D01*
X218000000Y-47500000D02*
X235000000Y-47500000D01*
X218000000Y-87500000D02*
X235000000Y-87500000D01*
X235000000Y-68500000D02*
X218000000Y-68500000D01*
X235000000Y-68500000D02*
X236000000Y-69500000D01*
X236000000Y-86500000D02*
X235000000Y-87500000D01*
X34000000Y-15000000D02*
X34000000Y-144000000D01*
M02*
