%TF.GenerationSoftware,KiCad,Pcbnew,(6.0.1)*%
%TF.CreationDate,2022-11-16T23:08:11+09:00*%
%TF.ProjectId,iidx-refine-xsw,69696478-2d72-4656-9669-6e652d787377,rev?*%
%TF.SameCoordinates,Original*%
%TF.FileFunction,Copper,L1,Top*%
%TF.FilePolarity,Positive*%
%FSLAX46Y46*%
G04 Gerber Fmt 4.6, Leading zero omitted, Abs format (unit mm)*
G04 Created by KiCad (PCBNEW (6.0.1)) date 2022-11-16 23:08:11*
%MOMM*%
%LPD*%
G01*
G04 APERTURE LIST*
%TA.AperFunction,ComponentPad*%
%ADD10C,1.500000*%
%TD*%
%TA.AperFunction,SMDPad,CuDef*%
%ADD11R,7.000000X1.500000*%
%TD*%
%TA.AperFunction,ComponentPad*%
%ADD12C,1.600000*%
%TD*%
%TA.AperFunction,ComponentPad*%
%ADD13C,1.400000*%
%TD*%
%TA.AperFunction,SMDPad,CuDef*%
%ADD14R,4.500000X10.000000*%
%TD*%
%TA.AperFunction,ComponentPad*%
%ADD15R,1.350000X1.350000*%
%TD*%
%TA.AperFunction,ComponentPad*%
%ADD16O,1.350000X1.350000*%
%TD*%
%TA.AperFunction,ViaPad*%
%ADD17C,0.800000*%
%TD*%
%TA.AperFunction,Conductor*%
%ADD18C,0.250000*%
%TD*%
G04 APERTURE END LIST*
D10*
%TO.P,J2,1*%
%TO.N,N/C*%
X220500000Y-50000000D03*
D11*
X232000000Y-50000000D03*
D10*
%TO.P,J2,2*%
X222500000Y-50000000D03*
%TO.P,J2,3*%
X220500000Y-52000000D03*
D11*
X232000000Y-52000000D03*
D10*
%TO.P,J2,4*%
X222500000Y-52000000D03*
%TO.P,J2,5*%
X220500000Y-54000000D03*
D11*
X232000000Y-54000000D03*
D10*
%TO.P,J2,6*%
X222500000Y-54000000D03*
D11*
%TO.P,J2,7*%
X232000000Y-56000000D03*
D10*
X220500000Y-56000000D03*
%TO.P,J2,8*%
X222500000Y-56000000D03*
D11*
%TO.P,J2,9*%
X232000000Y-58000000D03*
D10*
X220500000Y-58000000D03*
%TO.P,J2,10*%
X222500000Y-58000000D03*
D11*
%TO.P,J2,11*%
X232000000Y-60000000D03*
D10*
X220500000Y-60000000D03*
%TO.P,J2,12*%
X222500000Y-60000000D03*
%TO.P,J2,13*%
X220500000Y-62000000D03*
D11*
X232000000Y-62000000D03*
D10*
%TO.P,J2,14*%
X222500000Y-62000000D03*
D11*
%TO.P,J2,15*%
X232000000Y-64000000D03*
D10*
X220500000Y-64000000D03*
%TO.P,J2,16*%
X222500000Y-64000000D03*
%TD*%
D12*
%TO.P,SW1,1,A*%
%TO.N,GND*%
X76900000Y-105200000D03*
X70099992Y-105199836D03*
D13*
%TO.P,SW1,2,B*%
%TO.N,Net-(J1-Pad16)*%
X70099992Y-110099836D03*
X76900000Y-110100000D03*
%TD*%
D12*
%TO.P,SW4,1,A*%
%TO.N,GND*%
X131599992Y-49099836D03*
X138400000Y-49100000D03*
D13*
%TO.P,SW4,2,B*%
%TO.N,Net-(J1-Pad7)*%
X131599992Y-53999836D03*
X138400000Y-54000000D03*
%TD*%
D14*
%TO.P,SW9,1,A*%
%TO.N,GND*%
X52500000Y-57000000D03*
%TO.P,SW9,2,B*%
%TO.N,Net-(J1-Pad1)*%
X57500000Y-57000000D03*
%TD*%
D12*
%TO.P,SW2,1,A*%
%TO.N,GND*%
X97400000Y-49200000D03*
X90599992Y-49199836D03*
D13*
%TO.P,SW2,2,B*%
%TO.N,Net-(J1-Pad5)*%
X90599992Y-54099836D03*
X97400000Y-54100000D03*
%TD*%
D11*
%TO.P,J1,1*%
%TO.N,N/C*%
X232000000Y-71000000D03*
D10*
X220500000Y-71000000D03*
%TO.P,J1,2*%
X222500000Y-71000000D03*
D11*
%TO.P,J1,3*%
X232000000Y-73000000D03*
D10*
X220500000Y-73000000D03*
%TO.P,J1,4*%
X222500000Y-73000000D03*
%TO.P,J1,5*%
X220500000Y-75000000D03*
D11*
X232000000Y-75000000D03*
D10*
%TO.P,J1,6*%
X222500000Y-75000000D03*
D11*
%TO.P,J1,7*%
X232000000Y-77000000D03*
D10*
X220500000Y-77000000D03*
%TO.P,J1,8*%
X222500000Y-77000000D03*
%TO.P,J1,9*%
X220500000Y-79000000D03*
D11*
X232000000Y-79000000D03*
D10*
%TO.P,J1,10*%
X222500000Y-79000000D03*
D11*
%TO.P,J1,11*%
X232000000Y-81000000D03*
D10*
X220500000Y-81000000D03*
%TO.P,J1,12*%
X222500000Y-81000000D03*
%TO.P,J1,13*%
X220500000Y-83000000D03*
D11*
X232000000Y-83000000D03*
D10*
%TO.P,J1,14*%
X222500000Y-83000000D03*
D11*
%TO.P,J1,15*%
X232000000Y-85000000D03*
D10*
X220500000Y-85000000D03*
%TO.P,J1,16*%
X222500000Y-85000000D03*
%TD*%
D14*
%TO.P,SW8,1,A*%
%TO.N,GND*%
X52500000Y-35000000D03*
%TO.P,SW8,2,B*%
%TO.N,Net-(J1-Pad3)*%
X57500000Y-35000000D03*
%TD*%
D12*
%TO.P,SW6,1,A*%
%TO.N,GND*%
X172599992Y-49199836D03*
X179400000Y-49200000D03*
D13*
%TO.P,SW6,2,B*%
%TO.N,Net-(J1-Pad9)*%
X179400000Y-54100000D03*
X172599992Y-54099836D03*
%TD*%
D12*
%TO.P,SW7,1,A*%
%TO.N,GND*%
X193099992Y-105199836D03*
X199900000Y-105200000D03*
D13*
%TO.P,SW7,2,B*%
%TO.N,Net-(J1-Pad11)*%
X199900000Y-110100000D03*
X193099992Y-110099836D03*
%TD*%
D12*
%TO.P,SW3,1,A*%
%TO.N,GND*%
X117900000Y-105200000D03*
X111099992Y-105199836D03*
D13*
%TO.P,SW3,2,B*%
%TO.N,Net-(J1-Pad15)*%
X111099992Y-110099836D03*
X117900000Y-110100000D03*
%TD*%
D12*
%TO.P,SW5,1,A*%
%TO.N,GND*%
X158900000Y-105200000D03*
X152099992Y-105199836D03*
D13*
%TO.P,SW5,2,B*%
%TO.N,Net-(J1-Pad13)*%
X158900000Y-110100000D03*
X152099992Y-110099836D03*
%TD*%
D15*
%TO.P,J2,1,Pin_1*%
%TO.N,Net-(J1-Pad1)*%
X222500000Y-38000000D03*
D16*
%TO.P,J2,2,Pin_2*%
%TO.N,unconnected-(J2-Pad2)*%
X224500000Y-38000000D03*
%TO.P,J2,3,Pin_3*%
%TO.N,Net-(J1-Pad3)*%
X222500000Y-36000000D03*
%TO.P,J2,4,Pin_4*%
%TO.N,unconnected-(J2-Pad4)*%
X224500000Y-36000000D03*
%TO.P,J2,5,Pin_5*%
%TO.N,Net-(J1-Pad5)*%
X222500000Y-34000000D03*
%TO.P,J2,6,Pin_6*%
%TO.N,unconnected-(J2-Pad6)*%
X224500000Y-34000000D03*
%TO.P,J2,7,Pin_7*%
%TO.N,Net-(J1-Pad7)*%
X222500000Y-32000000D03*
%TO.P,J2,8,Pin_8*%
%TO.N,unconnected-(J2-Pad8)*%
X224500000Y-32000000D03*
%TO.P,J2,9,Pin_9*%
%TO.N,Net-(J1-Pad9)*%
X222500000Y-30000000D03*
%TO.P,J2,10,Pin_10*%
%TO.N,unconnected-(J2-Pad10)*%
X224500000Y-30000000D03*
%TO.P,J2,11,Pin_11*%
%TO.N,Net-(J1-Pad11)*%
X222500000Y-28000000D03*
%TO.P,J2,12,Pin_12*%
%TO.N,GND*%
X224500000Y-28000000D03*
%TO.P,J2,13,Pin_13*%
%TO.N,Net-(J1-Pad13)*%
X222500000Y-26000000D03*
%TO.P,J2,14,Pin_14*%
%TO.N,unconnected-(J2-Pad14)*%
X224500000Y-26000000D03*
%TO.P,J2,15,Pin_15*%
%TO.N,Net-(J1-Pad15)*%
X222500000Y-24000000D03*
%TO.P,J2,16,Pin_16*%
%TO.N,Net-(J1-Pad16)*%
X224500000Y-24000000D03*
%TD*%
D15*
%TO.P,J1,1,Pin_1*%
%TO.N,Net-(J1-Pad1)*%
X45500000Y-121000000D03*
D16*
%TO.P,J1,2,Pin_2*%
%TO.N,unconnected-(J1-Pad2)*%
X43500000Y-121000000D03*
%TO.P,J1,3,Pin_3*%
%TO.N,Net-(J1-Pad3)*%
X45500000Y-123000000D03*
%TO.P,J1,4,Pin_4*%
%TO.N,unconnected-(J1-Pad4)*%
X43500000Y-123000000D03*
%TO.P,J1,5,Pin_5*%
%TO.N,Net-(J1-Pad5)*%
X45500000Y-125000000D03*
%TO.P,J1,6,Pin_6*%
%TO.N,unconnected-(J1-Pad6)*%
X43500000Y-125000000D03*
%TO.P,J1,7,Pin_7*%
%TO.N,Net-(J1-Pad7)*%
X45500000Y-127000000D03*
%TO.P,J1,8,Pin_8*%
%TO.N,unconnected-(J1-Pad8)*%
X43500000Y-127000000D03*
%TO.P,J1,9,Pin_9*%
%TO.N,Net-(J1-Pad9)*%
X45500000Y-129000000D03*
%TO.P,J1,10,Pin_10*%
%TO.N,unconnected-(J1-Pad10)*%
X43500000Y-129000000D03*
%TO.P,J1,11,Pin_11*%
%TO.N,Net-(J1-Pad11)*%
X45500000Y-131000000D03*
%TO.P,J1,12,Pin_12*%
%TO.N,GND*%
X43500000Y-131000000D03*
%TO.P,J1,13,Pin_13*%
%TO.N,Net-(J1-Pad13)*%
X45500000Y-133000000D03*
%TO.P,J1,14,Pin_14*%
%TO.N,unconnected-(J1-Pad14)*%
X43500000Y-133000000D03*
%TO.P,J1,15,Pin_15*%
%TO.N,Net-(J1-Pad15)*%
X45500000Y-135000000D03*
%TO.P,J1,16,Pin_16*%
%TO.N,Net-(J1-Pad16)*%
X43500000Y-135000000D03*
%TD*%
D17*
%TO.N,Net-(J1-Pad9)*%
X51500000Y-107000000D03*
X67000000Y-48000000D03*
X50500000Y-67000000D03*
%TO.N,Net-(J1-Pad7)*%
X68500000Y-48000000D03*
X49500000Y-69000000D03*
X50000000Y-107000000D03*
%TO.N,Net-(J1-Pad5)*%
X48500000Y-107000000D03*
X70000000Y-48000000D03*
X48500000Y-71000000D03*
%TO.N,Net-(J1-Pad3)*%
X57500000Y-28500000D03*
%TO.N,Net-(J1-Pad1)*%
X61000000Y-28500000D03*
%TD*%
D18*
%TO.N,*%
X223500000Y-51000000D02*
X224500000Y-50000000D01*
X224500000Y-54000000D02*
X232000000Y-54000000D01*
X221500000Y-59000000D02*
X223500000Y-59000000D01*
X221500000Y-76000000D02*
X223500000Y-76000000D01*
X220500000Y-83000000D02*
X221500000Y-84000000D01*
X220500000Y-52000000D02*
X221500000Y-53000000D01*
X220500000Y-64000000D02*
X221500000Y-65000000D01*
X223500000Y-76000000D02*
X224500000Y-75000000D01*
X223500000Y-53000000D02*
X224500000Y-52000000D01*
X224500000Y-79000000D02*
X232000000Y-79000000D01*
X224500000Y-58000000D02*
X232000000Y-58000000D01*
X223500000Y-72000000D02*
X224500000Y-71000000D01*
X220500000Y-54000000D02*
X221500000Y-55000000D01*
X223500000Y-65000000D02*
X224500000Y-64000000D01*
X220500000Y-71000000D02*
X221500000Y-72000000D01*
X221500000Y-72000000D02*
X223500000Y-72000000D01*
X220500000Y-77000000D02*
X221500000Y-78000000D01*
X220500000Y-58000000D02*
X221500000Y-59000000D01*
X224500000Y-52000000D02*
X232000000Y-52000000D01*
X223500000Y-82000000D02*
X224500000Y-81000000D01*
X220500000Y-60000000D02*
X221500000Y-61000000D01*
X221500000Y-82000000D02*
X223500000Y-82000000D01*
X224500000Y-56000000D02*
X232000000Y-56000000D01*
X221500000Y-86000000D02*
X223500000Y-86000000D01*
X224500000Y-75000000D02*
X232000000Y-75000000D01*
X224500000Y-62000000D02*
X232000000Y-62000000D01*
X221500000Y-51000000D02*
X223500000Y-51000000D01*
X224500000Y-64000000D02*
X232000000Y-64000000D01*
X223500000Y-78000000D02*
X224500000Y-77000000D01*
X223500000Y-61000000D02*
X224500000Y-60000000D01*
X223500000Y-80000000D02*
X224500000Y-79000000D01*
X224500000Y-71000000D02*
X232000000Y-71000000D01*
X221500000Y-78000000D02*
X223500000Y-78000000D01*
X223500000Y-57000000D02*
X224500000Y-56000000D01*
X224500000Y-77000000D02*
X232000000Y-77000000D01*
X224500000Y-50000000D02*
X232000000Y-50000000D01*
X220500000Y-75000000D02*
X221500000Y-76000000D01*
X223500000Y-59000000D02*
X224500000Y-58000000D01*
X221500000Y-57000000D02*
X223500000Y-57000000D01*
X223500000Y-55000000D02*
X224500000Y-54000000D01*
X224500000Y-81000000D02*
X232000000Y-81000000D01*
X221500000Y-65000000D02*
X223500000Y-65000000D01*
X220500000Y-56000000D02*
X221500000Y-57000000D01*
X223500000Y-74000000D02*
X224500000Y-73000000D01*
X223500000Y-63000000D02*
X224500000Y-62000000D01*
X220500000Y-62000000D02*
X221500000Y-63000000D01*
X221500000Y-84000000D02*
X223500000Y-84000000D01*
X221500000Y-80000000D02*
X223500000Y-80000000D01*
X221500000Y-74000000D02*
X223500000Y-74000000D01*
X224500000Y-60000000D02*
X232000000Y-60000000D01*
X224500000Y-83000000D02*
X232000000Y-83000000D01*
X223500000Y-86000000D02*
X224500000Y-85000000D01*
X221500000Y-53000000D02*
X223500000Y-53000000D01*
X221500000Y-63000000D02*
X223500000Y-63000000D01*
X220500000Y-50000000D02*
X221500000Y-51000000D01*
X221500000Y-55000000D02*
X223500000Y-55000000D01*
X220500000Y-79000000D02*
X221500000Y-80000000D01*
X220500000Y-85000000D02*
X221500000Y-86000000D01*
X220500000Y-81000000D02*
X221500000Y-82000000D01*
X223500000Y-84000000D02*
X224500000Y-83000000D01*
X221500000Y-61000000D02*
X223500000Y-61000000D01*
X224500000Y-85000000D02*
X232000000Y-85000000D01*
X220500000Y-73000000D02*
X221500000Y-74000000D01*
X224500000Y-73000000D02*
X232000000Y-73000000D01*
%TO.N,Net-(J1-Pad16)*%
X216500000Y-26000000D02*
X199000000Y-26000000D01*
X194000000Y-76500000D02*
X193500000Y-77000000D01*
X224500000Y-24000000D02*
X224500000Y-22500000D01*
X68500000Y-81500000D02*
X65500000Y-81500000D01*
X70434727Y-111424520D02*
X76565429Y-111424520D01*
X193500000Y-77000000D02*
X96432141Y-77000000D01*
X72500000Y-77500000D02*
X68500000Y-81500000D01*
X96432141Y-77000000D02*
X95932141Y-77500000D01*
X95932141Y-77500000D02*
X72500000Y-77500000D01*
X220500000Y-22000000D02*
X216500000Y-26000000D01*
X56099836Y-110099836D02*
X70099992Y-110099836D01*
X224000000Y-22000000D02*
X220500000Y-22000000D01*
X70099992Y-110099836D02*
X70099992Y-111089785D01*
X199000000Y-26000000D02*
X198500000Y-26500000D01*
X224500000Y-22500000D02*
X224000000Y-22000000D01*
X56000000Y-77500000D02*
X55500000Y-78000000D01*
X198500000Y-55413523D02*
X194000000Y-59913523D01*
X76900000Y-111089949D02*
X76900000Y-110100000D01*
X76565429Y-111424520D02*
X76900000Y-111089949D01*
X55500000Y-78000000D02*
X55500000Y-109500000D01*
X70099992Y-111089785D02*
X70434727Y-111424520D01*
X61500000Y-77500000D02*
X56000000Y-77500000D01*
X198500000Y-26500000D02*
X198500000Y-55413523D01*
X194000000Y-59913523D02*
X194000000Y-76500000D01*
X55500000Y-109500000D02*
X56099836Y-110099836D01*
X65500000Y-81500000D02*
X61500000Y-77500000D01*
%TO.N,Net-(J1-Pad15)*%
X97000000Y-78000000D02*
X96500000Y-78500000D01*
X195000000Y-77500000D02*
X194500000Y-78000000D01*
X199500000Y-55500000D02*
X195000000Y-60000000D01*
X216500000Y-27000000D02*
X200000000Y-27000000D01*
X200000000Y-27000000D02*
X199500000Y-27500000D01*
X97099836Y-110099836D02*
X111099992Y-110099836D01*
X111099992Y-111099992D02*
X111099992Y-110099836D01*
X111424520Y-111424520D02*
X111099992Y-111099992D01*
X199500000Y-27500000D02*
X199500000Y-55500000D01*
X96500000Y-109500000D02*
X97099836Y-110099836D01*
X96500000Y-78500000D02*
X96500000Y-109500000D01*
X117565429Y-111424520D02*
X111424520Y-111424520D01*
X194500000Y-78000000D02*
X97000000Y-78000000D01*
X222500000Y-24000000D02*
X219500000Y-24000000D01*
X195000000Y-60000000D02*
X195000000Y-77500000D01*
X117900000Y-110100000D02*
X117900000Y-111089949D01*
X117900000Y-111089949D02*
X117565429Y-111424520D01*
X219500000Y-24000000D02*
X216500000Y-27000000D01*
%TO.N,Net-(J1-Pad13)*%
X196000000Y-60000000D02*
X196000000Y-78500000D01*
X137500000Y-79500000D02*
X137500000Y-109500000D01*
X138000000Y-79000000D02*
X137500000Y-79500000D01*
X222500000Y-26000000D02*
X218500000Y-26000000D01*
X158900000Y-111100000D02*
X158900000Y-110100000D01*
X138099836Y-110099836D02*
X152099992Y-110099836D01*
X195500000Y-79000000D02*
X138000000Y-79000000D01*
X137500000Y-109500000D02*
X138099836Y-110099836D01*
X200500000Y-28500000D02*
X200500000Y-55500000D01*
X158575480Y-111424520D02*
X158900000Y-111100000D01*
X152434727Y-111424520D02*
X158575480Y-111424520D01*
X200500000Y-55500000D02*
X196000000Y-60000000D01*
X216500000Y-28000000D02*
X201000000Y-28000000D01*
X152099992Y-111089785D02*
X152434727Y-111424520D01*
X218500000Y-26000000D02*
X216500000Y-28000000D01*
X152099992Y-110099836D02*
X152099992Y-111089785D01*
X196000000Y-78500000D02*
X195500000Y-79000000D01*
X201000000Y-28000000D02*
X200500000Y-28500000D01*
%TO.N,Net-(J1-Pad11)*%
X201500000Y-29500000D02*
X201500000Y-55500000D01*
X179000000Y-80000000D02*
X178500000Y-80500000D01*
X201500000Y-55500000D02*
X197000000Y-60000000D01*
X222500000Y-28000000D02*
X217567859Y-28000000D01*
X193099992Y-110099836D02*
X193099992Y-111089785D01*
X197000000Y-79500000D02*
X196500000Y-80000000D01*
X216567859Y-29000000D02*
X202000000Y-29000000D01*
X193099992Y-111089785D02*
X193434727Y-111424520D01*
X217567859Y-28000000D02*
X216567859Y-29000000D01*
X199900000Y-111089949D02*
X199900000Y-110100000D01*
X178500000Y-80500000D02*
X178500000Y-109500000D01*
X193434727Y-111424520D02*
X199565429Y-111424520D01*
X197000000Y-60000000D02*
X197000000Y-79500000D01*
X199565429Y-111424520D02*
X199900000Y-111089949D01*
X196500000Y-80000000D02*
X179000000Y-80000000D01*
X179099836Y-110099836D02*
X193099992Y-110099836D01*
X178500000Y-109500000D02*
X179099836Y-110099836D01*
X202000000Y-29000000D02*
X201500000Y-29500000D01*
%TO.N,Net-(J1-Pad9)*%
X50500000Y-104500000D02*
X50500000Y-67000000D01*
X156000000Y-53500000D02*
X156599836Y-54099836D01*
X179065429Y-55424520D02*
X179400000Y-55089949D01*
X67000000Y-26500000D02*
X67500000Y-26000000D01*
X67000000Y-48000000D02*
X67000000Y-26500000D01*
X156000000Y-26500000D02*
X156000000Y-53500000D01*
X155500000Y-26000000D02*
X156000000Y-26500000D01*
X172599992Y-54099836D02*
X172599992Y-55089785D01*
X51500000Y-105500000D02*
X50500000Y-104500000D01*
X172934727Y-55424520D02*
X179065429Y-55424520D01*
X179400000Y-55089949D02*
X179400000Y-54100000D01*
X51500000Y-107000000D02*
X51500000Y-105500000D01*
X172599992Y-55089785D02*
X172934727Y-55424520D01*
X67500000Y-26000000D02*
X155500000Y-26000000D01*
X156599836Y-54099836D02*
X172599992Y-54099836D01*
%TO.N,Net-(J1-Pad7)*%
X69000000Y-27000000D02*
X114500000Y-27000000D01*
X131599992Y-54989785D02*
X131934727Y-55324520D01*
X114500000Y-27000000D02*
X115000000Y-27500000D01*
X138065429Y-55324520D02*
X138400000Y-54989949D01*
X131599992Y-53999836D02*
X131599992Y-54989785D01*
X138400000Y-54989949D02*
X138400000Y-54000000D01*
X49500000Y-105000000D02*
X49500000Y-69000000D01*
X115000000Y-53500000D02*
X115499836Y-53999836D01*
X115000000Y-27500000D02*
X115000000Y-53500000D01*
X131934727Y-55324520D02*
X138065429Y-55324520D01*
X115499836Y-53999836D02*
X131599992Y-53999836D01*
X50000000Y-107000000D02*
X50000000Y-105500000D01*
X50000000Y-105500000D02*
X49500000Y-105000000D01*
X68500000Y-27500000D02*
X69000000Y-27000000D01*
X68500000Y-48000000D02*
X68500000Y-27500000D01*
%TO.N,GND*%
X91000000Y-132000000D02*
X49000000Y-132000000D01*
X214000000Y-132000000D02*
X214500000Y-131500000D01*
X173500000Y-131500000D02*
X173000000Y-132000000D01*
X48000000Y-122500000D02*
X48000000Y-118500000D01*
X173000000Y-132000000D02*
X135000000Y-132000000D01*
X179399836Y-49199836D02*
X179400000Y-49200000D01*
X76899836Y-105199836D02*
X76900000Y-105200000D01*
X41500000Y-138500000D02*
X47500000Y-138500000D01*
X199899836Y-105199836D02*
X199900000Y-105200000D01*
X227000000Y-21500000D02*
X227000000Y-27500000D01*
X193000000Y-75500000D02*
X193000000Y-57500000D01*
X52500000Y-57000000D02*
X52500000Y-76000000D01*
X173500000Y-131500000D02*
X175500000Y-131500000D01*
X72500000Y-76500000D02*
X95398211Y-76500000D01*
X131700000Y-105200000D02*
X117900000Y-105200000D01*
X48000000Y-118500000D02*
X47500000Y-118000000D01*
X111500000Y-76000000D02*
X112000000Y-75500000D01*
X90599992Y-49199836D02*
X97399836Y-49199836D01*
X173500000Y-131500000D02*
X173500000Y-106000000D01*
X132500000Y-106000000D02*
X131700000Y-105200000D01*
X91500000Y-131500000D02*
X91000000Y-132000000D01*
X226500000Y-28000000D02*
X224500000Y-28000000D01*
X47500000Y-138500000D02*
X48000000Y-138000000D01*
X193099992Y-105199836D02*
X199899836Y-105199836D01*
X114500000Y-76000000D02*
X114000000Y-75500000D01*
X52500000Y-35000000D02*
X52500000Y-57000000D01*
X192500000Y-76000000D02*
X193000000Y-75500000D01*
X91500000Y-131500000D02*
X93500000Y-131500000D01*
X111200000Y-49200000D02*
X97400000Y-49200000D01*
X91500000Y-106000000D02*
X90700000Y-105200000D01*
X214500000Y-131500000D02*
X214500000Y-106000000D01*
X65500000Y-72500000D02*
X68500000Y-72500000D01*
X213700000Y-105200000D02*
X199900000Y-105200000D01*
X155000000Y-75500000D02*
X155500000Y-76000000D01*
X111099992Y-105199836D02*
X117899836Y-105199836D01*
X117899836Y-105199836D02*
X117900000Y-105200000D01*
X193000000Y-57500000D02*
X193000000Y-55000000D01*
X48000000Y-138000000D02*
X48000000Y-134500000D01*
X193500000Y-52500000D02*
X197000000Y-52500000D01*
X226500000Y-21000000D02*
X227000000Y-21500000D01*
X197500000Y-25500000D02*
X198000000Y-25000000D01*
X131599992Y-49099836D02*
X138399836Y-49099836D01*
X153000000Y-75500000D02*
X153000000Y-50000000D01*
X68500000Y-72500000D02*
X72500000Y-76500000D01*
X41000000Y-138000000D02*
X41500000Y-138500000D01*
X61500000Y-76500000D02*
X65500000Y-72500000D01*
X198000000Y-25000000D02*
X216500000Y-25000000D01*
X135000000Y-132000000D02*
X134500000Y-131500000D01*
X216500000Y-25000000D02*
X220500000Y-21000000D01*
X95898211Y-76000000D02*
X111500000Y-76000000D01*
X175500000Y-131500000D02*
X176000000Y-132000000D01*
X192200000Y-49200000D02*
X179400000Y-49200000D01*
X95398211Y-76500000D02*
X95898211Y-76000000D01*
X91500000Y-131500000D02*
X91500000Y-106000000D01*
X48500000Y-132000000D02*
X48000000Y-131500000D01*
X153000000Y-75500000D02*
X152500000Y-76000000D01*
X193000000Y-52000000D02*
X193000000Y-50000000D01*
X53000000Y-76500000D02*
X61500000Y-76500000D01*
X197000000Y-52500000D02*
X197500000Y-52000000D01*
X172700000Y-105200000D02*
X158900000Y-105200000D01*
X114000000Y-75500000D02*
X112000000Y-75500000D01*
X197500000Y-52000000D02*
X197500000Y-25500000D01*
X43500000Y-131000000D02*
X41500000Y-131000000D01*
X153000000Y-75500000D02*
X155000000Y-75500000D01*
X52500000Y-76000000D02*
X53000000Y-76500000D01*
X227000000Y-27500000D02*
X226500000Y-28000000D01*
X47500000Y-40000000D02*
X52500000Y-35000000D01*
X152099992Y-105199836D02*
X158899836Y-105199836D01*
X70099992Y-105199836D02*
X76899836Y-105199836D01*
X112000000Y-50000000D02*
X111200000Y-49200000D01*
X132000000Y-132000000D02*
X94000000Y-132000000D01*
X94000000Y-132000000D02*
X93500000Y-131500000D01*
X48500000Y-132000000D02*
X49000000Y-132000000D01*
X134500000Y-131500000D02*
X132500000Y-131500000D01*
X97399836Y-49199836D02*
X97400000Y-49200000D01*
X153000000Y-50000000D02*
X152100000Y-49100000D01*
X48500000Y-134000000D02*
X48500000Y-132000000D01*
X158899836Y-105199836D02*
X158900000Y-105200000D01*
X112000000Y-75500000D02*
X112000000Y-50000000D01*
X220500000Y-21000000D02*
X226500000Y-21000000D01*
X152100000Y-49100000D02*
X138400000Y-49100000D01*
X176000000Y-132000000D02*
X214000000Y-132000000D01*
X47500000Y-118000000D02*
X47500000Y-40000000D01*
X48000000Y-131500000D02*
X48000000Y-122500000D01*
X193000000Y-55000000D02*
X193500000Y-54500000D01*
X132500000Y-131500000D02*
X132000000Y-132000000D01*
X138399836Y-49099836D02*
X138400000Y-49100000D01*
X155500000Y-76000000D02*
X192500000Y-76000000D01*
X90700000Y-105200000D02*
X76900000Y-105200000D01*
X193500000Y-52500000D02*
X193000000Y-52000000D01*
X152500000Y-76000000D02*
X114500000Y-76000000D01*
X41500000Y-131000000D02*
X41000000Y-131500000D01*
X193500000Y-54500000D02*
X193500000Y-52500000D01*
X172599992Y-49199836D02*
X179399836Y-49199836D01*
X214500000Y-106000000D02*
X213700000Y-105200000D01*
X41000000Y-131500000D02*
X41000000Y-138000000D01*
X173500000Y-106000000D02*
X172700000Y-105200000D01*
X48000000Y-134500000D02*
X48500000Y-134000000D01*
X132500000Y-131500000D02*
X132500000Y-106000000D01*
X193000000Y-50000000D02*
X192200000Y-49200000D01*
%TO.N,Net-(J1-Pad5)*%
X90599992Y-54099836D02*
X90599992Y-55089785D01*
X70000000Y-48000000D02*
X70000000Y-47000000D01*
X74000000Y-46500000D02*
X74500000Y-47000000D01*
X70500000Y-46500000D02*
X74000000Y-46500000D01*
X74500000Y-47000000D02*
X74500000Y-53500000D01*
X48500000Y-107000000D02*
X48500000Y-71000000D01*
X75099836Y-54099836D02*
X90599992Y-54099836D01*
X97400000Y-55100000D02*
X97400000Y-54100000D01*
X90599992Y-55089785D02*
X90934727Y-55424520D01*
X74500000Y-53500000D02*
X75099836Y-54099836D01*
X97075480Y-55424520D02*
X97400000Y-55100000D01*
X90934727Y-55424520D02*
X97075480Y-55424520D01*
X70000000Y-47000000D02*
X70500000Y-46500000D01*
%TO.N,Net-(J1-Pad3)*%
X46500000Y-118000000D02*
X47000000Y-118500000D01*
X48000000Y-27500000D02*
X48000000Y-30000000D01*
X48500000Y-27000000D02*
X48000000Y-27500000D01*
X57500000Y-28500000D02*
X57500000Y-27500000D01*
X57500000Y-35000000D02*
X57500000Y-28500000D01*
X46500000Y-31500000D02*
X46500000Y-118000000D01*
X47000000Y-122500000D02*
X46500000Y-123000000D01*
X48000000Y-30000000D02*
X46500000Y-31500000D01*
X47000000Y-118500000D02*
X47000000Y-122500000D01*
X57000000Y-27000000D02*
X48500000Y-27000000D01*
X57500000Y-27500000D02*
X57000000Y-27000000D01*
X46500000Y-123000000D02*
X45500000Y-123000000D01*
%TO.N,Net-(J1-Pad1)*%
X45500000Y-26500000D02*
X45500000Y-30000000D01*
X61000000Y-28500000D02*
X61000000Y-26500000D01*
X60500000Y-57000000D02*
X61000000Y-56500000D01*
X57500000Y-57000000D02*
X60500000Y-57000000D01*
X61000000Y-26500000D02*
X60500000Y-26000000D01*
X60500000Y-26000000D02*
X46000000Y-26000000D01*
X45500000Y-30000000D02*
X45500000Y-121000000D01*
X46000000Y-26000000D02*
X45500000Y-26500000D01*
X61000000Y-56500000D02*
X61000000Y-28500000D01*
%TD*%
M02*
