%TF.GenerationSoftware,KiCad,Pcbnew,(6.0.1)*%
%TF.CreationDate,2022-11-16T23:08:11+09:00*%
%TF.ProjectId,iidx-refine-xsw,69696478-2d72-4656-9669-6e652d787377,rev?*%
%TF.SameCoordinates,Original*%
%TF.FileFunction,Copper,L2,Bot*%
%TF.FilePolarity,Positive*%
%FSLAX46Y46*%
G04 Gerber Fmt 4.6, Leading zero omitted, Abs format (unit mm)*
G04 Created by KiCad (PCBNEW (6.0.1)) date 2022-11-16 23:08:11*
%MOMM*%
%LPD*%
G01*
G04 APERTURE LIST*
%TA.AperFunction,ComponentPad*%
%ADD10C,1.500000*%
%TD*%
%TA.AperFunction,SMDPad,CuDef*%
%ADD11R,7.000000X1.500000*%
%TD*%
%TA.AperFunction,ComponentPad*%
%ADD12C,1.600000*%
%TD*%
%TA.AperFunction,ComponentPad*%
%ADD13C,1.400000*%
%TD*%
%TA.AperFunction,ComponentPad*%
%ADD14R,1.350000X1.350000*%
%TD*%
%TA.AperFunction,ComponentPad*%
%ADD15O,1.350000X1.350000*%
%TD*%
%TA.AperFunction,ViaPad*%
%ADD16C,0.800000*%
%TD*%
%TA.AperFunction,Conductor*%
%ADD17C,0.250000*%
%TD*%
G04 APERTURE END LIST*
D10*
%TO.P,J2,1*%
%TO.N,N/C*%
X220500000Y-50000000D03*
%TO.P,J2,2*%
X222500000Y-50000000D03*
D11*
X232000000Y-50000000D03*
D10*
%TO.P,J2,3*%
X220500000Y-52000000D03*
%TO.P,J2,4*%
X222500000Y-52000000D03*
D11*
X232000000Y-52000000D03*
D10*
%TO.P,J2,5*%
X220500000Y-54000000D03*
D11*
%TO.P,J2,6*%
X232000000Y-54000000D03*
D10*
X222500000Y-54000000D03*
%TO.P,J2,7*%
X220500000Y-56000000D03*
%TO.P,J2,8*%
X222500000Y-56000000D03*
D11*
X232000000Y-56000000D03*
D10*
%TO.P,J2,9*%
X220500000Y-58000000D03*
%TO.P,J2,10*%
X222500000Y-58000000D03*
D11*
X232000000Y-58000000D03*
D10*
%TO.P,J2,11*%
X220500000Y-60000000D03*
D11*
%TO.P,J2,12*%
X232000000Y-60000000D03*
D10*
X222500000Y-60000000D03*
%TO.P,J2,13*%
X220500000Y-62000000D03*
D11*
%TO.P,J2,14*%
X232000000Y-62000000D03*
D10*
X222500000Y-62000000D03*
%TO.P,J2,15*%
X220500000Y-64000000D03*
%TO.P,J2,16*%
X222500000Y-64000000D03*
D11*
X232000000Y-64000000D03*
%TD*%
D12*
%TO.P,SW1,1,A*%
%TO.N,GND*%
X76900000Y-105200000D03*
X70099992Y-105199836D03*
D13*
%TO.P,SW1,2,B*%
%TO.N,Net-(J1-Pad16)*%
X70099992Y-110099836D03*
X76900000Y-110100000D03*
%TD*%
D12*
%TO.P,SW4,1,A*%
%TO.N,GND*%
X131599992Y-49099836D03*
X138400000Y-49100000D03*
D13*
%TO.P,SW4,2,B*%
%TO.N,Net-(J1-Pad7)*%
X131599992Y-53999836D03*
X138400000Y-54000000D03*
%TD*%
D12*
%TO.P,SW2,1,A*%
%TO.N,GND*%
X97400000Y-49200000D03*
X90599992Y-49199836D03*
D13*
%TO.P,SW2,2,B*%
%TO.N,Net-(J1-Pad5)*%
X90599992Y-54099836D03*
X97400000Y-54100000D03*
%TD*%
D10*
%TO.P,J1,1*%
%TO.N,N/C*%
X220500000Y-71000000D03*
%TO.P,J1,2*%
X222500000Y-71000000D03*
D11*
X232000000Y-71000000D03*
D10*
%TO.P,J1,3*%
X220500000Y-73000000D03*
%TO.P,J1,4*%
X222500000Y-73000000D03*
D11*
X232000000Y-73000000D03*
D10*
%TO.P,J1,5*%
X220500000Y-75000000D03*
%TO.P,J1,6*%
X222500000Y-75000000D03*
D11*
X232000000Y-75000000D03*
D10*
%TO.P,J1,7*%
X220500000Y-77000000D03*
%TO.P,J1,8*%
X222500000Y-77000000D03*
D11*
X232000000Y-77000000D03*
D10*
%TO.P,J1,9*%
X220500000Y-79000000D03*
%TO.P,J1,10*%
X222500000Y-79000000D03*
D11*
X232000000Y-79000000D03*
D10*
%TO.P,J1,11*%
X220500000Y-81000000D03*
%TO.P,J1,12*%
X222500000Y-81000000D03*
D11*
X232000000Y-81000000D03*
D10*
%TO.P,J1,13*%
X220500000Y-83000000D03*
D11*
%TO.P,J1,14*%
X232000000Y-83000000D03*
D10*
X222500000Y-83000000D03*
%TO.P,J1,15*%
X220500000Y-85000000D03*
%TO.P,J1,16*%
X222500000Y-85000000D03*
D11*
X232000000Y-85000000D03*
%TD*%
D12*
%TO.P,SW6,1,A*%
%TO.N,GND*%
X172599992Y-49199836D03*
X179400000Y-49200000D03*
D13*
%TO.P,SW6,2,B*%
%TO.N,Net-(J1-Pad9)*%
X179400000Y-54100000D03*
X172599992Y-54099836D03*
%TD*%
D12*
%TO.P,SW7,1,A*%
%TO.N,GND*%
X193099992Y-105199836D03*
X199900000Y-105200000D03*
D13*
%TO.P,SW7,2,B*%
%TO.N,Net-(J1-Pad11)*%
X199900000Y-110100000D03*
X193099992Y-110099836D03*
%TD*%
D12*
%TO.P,SW3,1,A*%
%TO.N,GND*%
X117900000Y-105200000D03*
X111099992Y-105199836D03*
D13*
%TO.P,SW3,2,B*%
%TO.N,Net-(J1-Pad15)*%
X111099992Y-110099836D03*
X117900000Y-110100000D03*
%TD*%
D12*
%TO.P,SW5,1,A*%
%TO.N,GND*%
X158900000Y-105200000D03*
X152099992Y-105199836D03*
D13*
%TO.P,SW5,2,B*%
%TO.N,Net-(J1-Pad13)*%
X158900000Y-110100000D03*
X152099992Y-110099836D03*
%TD*%
D14*
%TO.P,J2,1,Pin_1*%
%TO.N,Net-(J1-Pad1)*%
X222500000Y-38000000D03*
D15*
%TO.P,J2,2,Pin_2*%
%TO.N,unconnected-(J2-Pad2)*%
X224500000Y-38000000D03*
%TO.P,J2,3,Pin_3*%
%TO.N,Net-(J1-Pad3)*%
X222500000Y-36000000D03*
%TO.P,J2,4,Pin_4*%
%TO.N,unconnected-(J2-Pad4)*%
X224500000Y-36000000D03*
%TO.P,J2,5,Pin_5*%
%TO.N,Net-(J1-Pad5)*%
X222500000Y-34000000D03*
%TO.P,J2,6,Pin_6*%
%TO.N,unconnected-(J2-Pad6)*%
X224500000Y-34000000D03*
%TO.P,J2,7,Pin_7*%
%TO.N,Net-(J1-Pad7)*%
X222500000Y-32000000D03*
%TO.P,J2,8,Pin_8*%
%TO.N,unconnected-(J2-Pad8)*%
X224500000Y-32000000D03*
%TO.P,J2,9,Pin_9*%
%TO.N,Net-(J1-Pad9)*%
X222500000Y-30000000D03*
%TO.P,J2,10,Pin_10*%
%TO.N,unconnected-(J2-Pad10)*%
X224500000Y-30000000D03*
%TO.P,J2,11,Pin_11*%
%TO.N,Net-(J1-Pad11)*%
X222500000Y-28000000D03*
%TO.P,J2,12,Pin_12*%
%TO.N,GND*%
X224500000Y-28000000D03*
%TO.P,J2,13,Pin_13*%
%TO.N,Net-(J1-Pad13)*%
X222500000Y-26000000D03*
%TO.P,J2,14,Pin_14*%
%TO.N,unconnected-(J2-Pad14)*%
X224500000Y-26000000D03*
%TO.P,J2,15,Pin_15*%
%TO.N,Net-(J1-Pad15)*%
X222500000Y-24000000D03*
%TO.P,J2,16,Pin_16*%
%TO.N,Net-(J1-Pad16)*%
X224500000Y-24000000D03*
%TD*%
D14*
%TO.P,J1,1,Pin_1*%
%TO.N,Net-(J1-Pad1)*%
X45500000Y-121000000D03*
D15*
%TO.P,J1,2,Pin_2*%
%TO.N,unconnected-(J1-Pad2)*%
X43500000Y-121000000D03*
%TO.P,J1,3,Pin_3*%
%TO.N,Net-(J1-Pad3)*%
X45500000Y-123000000D03*
%TO.P,J1,4,Pin_4*%
%TO.N,unconnected-(J1-Pad4)*%
X43500000Y-123000000D03*
%TO.P,J1,5,Pin_5*%
%TO.N,Net-(J1-Pad5)*%
X45500000Y-125000000D03*
%TO.P,J1,6,Pin_6*%
%TO.N,unconnected-(J1-Pad6)*%
X43500000Y-125000000D03*
%TO.P,J1,7,Pin_7*%
%TO.N,Net-(J1-Pad7)*%
X45500000Y-127000000D03*
%TO.P,J1,8,Pin_8*%
%TO.N,unconnected-(J1-Pad8)*%
X43500000Y-127000000D03*
%TO.P,J1,9,Pin_9*%
%TO.N,Net-(J1-Pad9)*%
X45500000Y-129000000D03*
%TO.P,J1,10,Pin_10*%
%TO.N,unconnected-(J1-Pad10)*%
X43500000Y-129000000D03*
%TO.P,J1,11,Pin_11*%
%TO.N,Net-(J1-Pad11)*%
X45500000Y-131000000D03*
%TO.P,J1,12,Pin_12*%
%TO.N,GND*%
X43500000Y-131000000D03*
%TO.P,J1,13,Pin_13*%
%TO.N,Net-(J1-Pad13)*%
X45500000Y-133000000D03*
%TO.P,J1,14,Pin_14*%
%TO.N,unconnected-(J1-Pad14)*%
X43500000Y-133000000D03*
%TO.P,J1,15,Pin_15*%
%TO.N,Net-(J1-Pad15)*%
X45500000Y-135000000D03*
%TO.P,J1,16,Pin_16*%
%TO.N,Net-(J1-Pad16)*%
X43500000Y-135000000D03*
%TD*%
D16*
%TO.N,Net-(J1-Pad9)*%
X51500000Y-107000000D03*
X67000000Y-48000000D03*
X50500000Y-67000000D03*
%TO.N,Net-(J1-Pad7)*%
X68500000Y-48000000D03*
X49500000Y-69000000D03*
X50000000Y-107000000D03*
%TO.N,Net-(J1-Pad5)*%
X48500000Y-107000000D03*
X70000000Y-48000000D03*
X48500000Y-71000000D03*
%TO.N,Net-(J1-Pad3)*%
X57500000Y-28500000D03*
%TO.N,Net-(J1-Pad1)*%
X61000000Y-28500000D03*
%TD*%
D17*
%TO.N,*%
X222500000Y-58000000D02*
X232000000Y-58000000D01*
X222500000Y-52000000D02*
X232000000Y-52000000D01*
X222500000Y-56000000D02*
X232000000Y-56000000D01*
X222500000Y-75000000D02*
X232000000Y-75000000D01*
X222500000Y-62000000D02*
X232000000Y-62000000D01*
X222500000Y-60000000D02*
X232000000Y-60000000D01*
X222500000Y-81000000D02*
X232000000Y-81000000D01*
X222500000Y-54000000D02*
X232000000Y-54000000D01*
X222500000Y-71000000D02*
X232000000Y-71000000D01*
X222500000Y-79000000D02*
X232000000Y-79000000D01*
X222500000Y-73000000D02*
X232000000Y-73000000D01*
X222500000Y-83000000D02*
X232000000Y-83000000D01*
X222500000Y-85000000D02*
X232000000Y-85000000D01*
X222500000Y-50000000D02*
X232000000Y-50000000D01*
X222500000Y-77000000D02*
X232000000Y-77000000D01*
X222500000Y-64000000D02*
X232000000Y-64000000D01*
%TO.N,Net-(J1-Pad16)*%
X42000000Y-135000000D02*
X41500000Y-134500000D01*
X54000000Y-105000000D02*
X54000000Y-109500000D01*
X53500000Y-104500000D02*
X54000000Y-105000000D01*
X42000000Y-104500000D02*
X53500000Y-104500000D01*
X41500000Y-105000000D02*
X42000000Y-104500000D01*
X41500000Y-134500000D02*
X41500000Y-105000000D01*
X43500000Y-135000000D02*
X42000000Y-135000000D01*
X54599836Y-110099836D02*
X70099992Y-110099836D01*
X54000000Y-109500000D02*
X54599836Y-110099836D01*
%TO.N,Net-(J1-Pad15)*%
X40500000Y-83500000D02*
X41000000Y-83000000D01*
X45500000Y-136000000D02*
X45000000Y-136500000D01*
X40500000Y-136000000D02*
X40500000Y-83500000D01*
X45500000Y-135000000D02*
X45500000Y-136000000D01*
X94500000Y-109500000D02*
X95099836Y-110099836D01*
X94500000Y-83500000D02*
X94500000Y-109500000D01*
X95099836Y-110099836D02*
X111099992Y-110099836D01*
X41000000Y-83000000D02*
X94000000Y-83000000D01*
X45000000Y-136500000D02*
X41000000Y-136500000D01*
X41000000Y-136500000D02*
X40500000Y-136000000D01*
X94000000Y-83000000D02*
X94500000Y-83500000D01*
%TO.N,Net-(J1-Pad13)*%
X135000000Y-82000000D02*
X135500000Y-82500000D01*
X45500000Y-133000000D02*
X46500000Y-133000000D01*
X40000000Y-138000000D02*
X39500000Y-137500000D01*
X46500000Y-133000000D02*
X47000000Y-133500000D01*
X135500000Y-109500000D02*
X136099836Y-110099836D01*
X47000000Y-137500000D02*
X46500000Y-138000000D01*
X39500000Y-82500000D02*
X40000000Y-82000000D01*
X40000000Y-82000000D02*
X135000000Y-82000000D01*
X46500000Y-138000000D02*
X40000000Y-138000000D01*
X47000000Y-133500000D02*
X47000000Y-137500000D01*
X136099836Y-110099836D02*
X152099992Y-110099836D01*
X135500000Y-82500000D02*
X135500000Y-109500000D01*
X39500000Y-137500000D02*
X39500000Y-82500000D01*
%TO.N,Net-(J1-Pad11)*%
X38500000Y-81500000D02*
X39000000Y-81000000D01*
X45500000Y-131000000D02*
X47500000Y-131000000D01*
X176000000Y-81000000D02*
X176500000Y-81500000D01*
X39000000Y-139000000D02*
X38500000Y-138500000D01*
X47500000Y-131000000D02*
X48000000Y-131500000D01*
X48000000Y-138500000D02*
X47500000Y-139000000D01*
X39000000Y-81000000D02*
X176000000Y-81000000D01*
X48000000Y-131500000D02*
X48000000Y-138500000D01*
X176500000Y-81500000D02*
X176500000Y-109500000D01*
X47500000Y-139000000D02*
X39000000Y-139000000D01*
X177099836Y-110099836D02*
X193099992Y-110099836D01*
X38500000Y-138500000D02*
X38500000Y-81500000D01*
X176500000Y-109500000D02*
X177099836Y-110099836D01*
%TO.N,Net-(J1-Pad9)*%
X45500000Y-129000000D02*
X51000000Y-129000000D01*
X158000000Y-54500000D02*
X158400164Y-54099836D01*
X198000000Y-57500000D02*
X194500000Y-61000000D01*
X158500000Y-77000000D02*
X158000000Y-76500000D01*
X158000000Y-76500000D02*
X158000000Y-54500000D01*
X66500000Y-67000000D02*
X67000000Y-66500000D01*
X158400164Y-54099836D02*
X172599992Y-54099836D01*
X51500000Y-128500000D02*
X51500000Y-107000000D01*
X194500000Y-76500000D02*
X194000000Y-77000000D01*
X67000000Y-66500000D02*
X67000000Y-48000000D01*
X198500000Y-30000000D02*
X198000000Y-30500000D01*
X194500000Y-61000000D02*
X194500000Y-76500000D01*
X51000000Y-129000000D02*
X51500000Y-128500000D01*
X198000000Y-30500000D02*
X198000000Y-57500000D01*
X194000000Y-77000000D02*
X158500000Y-77000000D01*
X222500000Y-30000000D02*
X198500000Y-30000000D01*
X50500000Y-67000000D02*
X66500000Y-67000000D01*
%TO.N,Net-(J1-Pad7)*%
X49500000Y-127000000D02*
X50000000Y-126500000D01*
X195000000Y-78000000D02*
X117500000Y-78000000D01*
X117000000Y-54500000D02*
X117500164Y-53999836D01*
X50000000Y-126500000D02*
X50000000Y-107000000D01*
X195500000Y-77500000D02*
X195000000Y-78000000D01*
X117500164Y-53999836D02*
X131599992Y-53999836D01*
X222500000Y-32000000D02*
X199635718Y-32000000D01*
X49500000Y-69000000D02*
X68000000Y-69000000D01*
X68500000Y-68500000D02*
X68500000Y-48000000D01*
X199635718Y-32000000D02*
X199000000Y-32635718D01*
X68000000Y-69000000D02*
X68500000Y-68500000D01*
X195500000Y-61000000D02*
X195500000Y-77500000D01*
X199000000Y-57500000D02*
X195500000Y-61000000D01*
X117500000Y-78000000D02*
X117000000Y-77500000D01*
X199000000Y-32635718D02*
X199000000Y-57500000D01*
X117000000Y-77500000D02*
X117000000Y-54500000D01*
X45500000Y-127000000D02*
X49500000Y-127000000D01*
%TO.N,Net-(J1-Pad5)*%
X196000000Y-79000000D02*
X76500000Y-79000000D01*
X69500000Y-71000000D02*
X70000000Y-70500000D01*
X76500000Y-79000000D02*
X76000000Y-78500000D01*
X48500000Y-71000000D02*
X69500000Y-71000000D01*
X200000000Y-57500000D02*
X196500000Y-61000000D01*
X45500000Y-125000000D02*
X48000000Y-125000000D01*
X70000000Y-70500000D02*
X70000000Y-48000000D01*
X196500000Y-61000000D02*
X196500000Y-78500000D01*
X200000000Y-34500000D02*
X200000000Y-57500000D01*
X200500000Y-34000000D02*
X200000000Y-34500000D01*
X76000000Y-78500000D02*
X76000000Y-54500000D01*
X48500000Y-124500000D02*
X48500000Y-107000000D01*
X76400164Y-54099836D02*
X90599992Y-54099836D01*
X222500000Y-34000000D02*
X200500000Y-34000000D01*
X76000000Y-54500000D02*
X76400164Y-54099836D01*
X196500000Y-78500000D02*
X196000000Y-79000000D01*
X48000000Y-125000000D02*
X48500000Y-124500000D01*
%TO.N,Net-(J1-Pad3)*%
X227500000Y-21000000D02*
X228000000Y-21500000D01*
X220000000Y-40500000D02*
X220000000Y-36500000D01*
X57500000Y-25500000D02*
X58000000Y-25000000D01*
X58000000Y-25000000D02*
X216500000Y-25000000D01*
X220500000Y-36000000D02*
X222500000Y-36000000D01*
X228000000Y-21500000D02*
X228000000Y-40500000D01*
X220500000Y-41000000D02*
X220000000Y-40500000D01*
X216500000Y-25000000D02*
X220500000Y-21000000D01*
X57500000Y-28500000D02*
X57500000Y-25500000D01*
X220500000Y-21000000D02*
X227500000Y-21000000D01*
X220000000Y-36500000D02*
X220500000Y-36000000D01*
X227500000Y-41000000D02*
X220500000Y-41000000D01*
X228000000Y-40500000D02*
X227500000Y-41000000D01*
%TO.N,Net-(J1-Pad1)*%
X226500000Y-40000000D02*
X223000000Y-40000000D01*
X61000000Y-26500000D02*
X61500000Y-26000000D01*
X61500000Y-26000000D02*
X216500000Y-26000000D01*
X223000000Y-40000000D02*
X222500000Y-39500000D01*
X226500000Y-22000000D02*
X227000000Y-22500000D01*
X227000000Y-22500000D02*
X227000000Y-39500000D01*
X222500000Y-39500000D02*
X222500000Y-38000000D01*
X216500000Y-26000000D02*
X220500000Y-22000000D01*
X220500000Y-22000000D02*
X226500000Y-22000000D01*
X61000000Y-28500000D02*
X61000000Y-26500000D01*
X227000000Y-39500000D02*
X226500000Y-40000000D01*
%TD*%
M02*
