G04 #@! TF.GenerationSoftware,KiCad,Pcbnew,8.0.2*
G04 #@! TF.CreationDate,2024-08-18T16:51:17+09:00*
G04 #@! TF.ProjectId,rainbow2-rp2040,7261696e-626f-4773-922d-727032303430,rev?*
G04 #@! TF.SameCoordinates,Original*
G04 #@! TF.FileFunction,Copper,L2,Bot*
G04 #@! TF.FilePolarity,Positive*
%FSLAX46Y46*%
G04 Gerber Fmt 4.6, Leading zero omitted, Abs format (unit mm)*
G04 Created by KiCad (PCBNEW 8.0.2) date 2024-08-18 16:51:17*
%MOMM*%
%LPD*%
G01*
G04 APERTURE LIST*
G04 Aperture macros list*
%AMRoundRect*
0 Rectangle with rounded corners*
0 $1 Rounding radius*
0 $2 $3 $4 $5 $6 $7 $8 $9 X,Y pos of 4 corners*
0 Add a 4 corners polygon primitive as box body*
4,1,4,$2,$3,$4,$5,$6,$7,$8,$9,$2,$3,0*
0 Add four circle primitives for the rounded corners*
1,1,$1+$1,$2,$3*
1,1,$1+$1,$4,$5*
1,1,$1+$1,$6,$7*
1,1,$1+$1,$8,$9*
0 Add four rect primitives between the rounded corners*
20,1,$1+$1,$2,$3,$4,$5,0*
20,1,$1+$1,$4,$5,$6,$7,0*
20,1,$1+$1,$6,$7,$8,$9,0*
20,1,$1+$1,$8,$9,$2,$3,0*%
G04 Aperture macros list end*
G04 #@! TA.AperFunction,ComponentPad*
%ADD10RoundRect,0.250000X-0.600000X-0.750000X0.600000X-0.750000X0.600000X0.750000X-0.600000X0.750000X0*%
G04 #@! TD*
G04 #@! TA.AperFunction,ComponentPad*
%ADD11O,1.700000X2.000000*%
G04 #@! TD*
G04 #@! TA.AperFunction,ComponentPad*
%ADD12R,1.600000X1.600000*%
G04 #@! TD*
G04 #@! TA.AperFunction,ComponentPad*
%ADD13O,1.600000X1.600000*%
G04 #@! TD*
G04 #@! TA.AperFunction,ComponentPad*
%ADD14RoundRect,0.250000X-0.600000X-0.725000X0.600000X-0.725000X0.600000X0.725000X-0.600000X0.725000X0*%
G04 #@! TD*
G04 #@! TA.AperFunction,ComponentPad*
%ADD15O,1.700000X1.950000*%
G04 #@! TD*
G04 #@! TA.AperFunction,ComponentPad*
%ADD16C,7.500000*%
G04 #@! TD*
G04 #@! TA.AperFunction,ComponentPad*
%ADD17C,1.600000*%
G04 #@! TD*
G04 #@! TA.AperFunction,ViaPad*
%ADD18C,0.600000*%
G04 #@! TD*
G04 #@! TA.AperFunction,Conductor*
%ADD19C,1.000000*%
G04 #@! TD*
G04 #@! TA.AperFunction,Conductor*
%ADD20C,0.200000*%
G04 #@! TD*
G04 APERTURE END LIST*
D10*
X113000000Y-57500000D03*
D11*
X115500000Y-57500000D03*
D12*
X118500000Y-99960000D03*
D13*
X118500000Y-102500000D03*
X118500000Y-105040000D03*
X118500000Y-107580000D03*
X118500000Y-110120000D03*
X118500000Y-112660000D03*
X118500000Y-115200000D03*
X118500000Y-117740000D03*
X118500000Y-120280000D03*
D14*
X108500000Y-140000000D03*
D15*
X111000000Y-140000000D03*
X113500000Y-140000000D03*
D14*
X108500000Y-95000000D03*
D15*
X111000000Y-95000000D03*
X113500000Y-95000000D03*
D16*
X100000000Y-100000000D03*
D14*
X108500000Y-117500000D03*
D15*
X111000000Y-117500000D03*
X113500000Y-117500000D03*
D14*
X108500000Y-87500000D03*
D15*
X111000000Y-87500000D03*
X113500000Y-87500000D03*
D16*
X100000000Y-147500000D03*
X135000000Y-147500000D03*
D17*
X101500000Y-80000000D03*
D13*
X111660000Y-80000000D03*
D16*
X135000000Y-100000000D03*
D17*
X101500000Y-66500000D03*
D13*
X111660000Y-66500000D03*
D17*
X101500000Y-71000000D03*
D13*
X111660000Y-71000000D03*
D14*
X108500000Y-125000000D03*
D15*
X111000000Y-125000000D03*
X113500000Y-125000000D03*
D14*
X108500000Y-110000000D03*
D15*
X111000000Y-110000000D03*
X113500000Y-110000000D03*
D14*
X108500000Y-102500000D03*
D15*
X111000000Y-102500000D03*
X113500000Y-102500000D03*
D14*
X99000000Y-57500000D03*
D15*
X101500000Y-57500000D03*
X104000000Y-57500000D03*
X106500000Y-57500000D03*
D17*
X101500000Y-75500000D03*
D13*
X111660000Y-75500000D03*
D14*
X108500000Y-147500000D03*
D15*
X111000000Y-147500000D03*
X113500000Y-147500000D03*
D14*
X108500000Y-132500000D03*
D15*
X111000000Y-132500000D03*
X113500000Y-132500000D03*
D18*
X111000000Y-105500000D03*
X111000000Y-98000000D03*
X111000000Y-128000000D03*
X118500000Y-60000000D03*
X111000000Y-90500000D03*
X125500000Y-111500000D03*
X111000000Y-150500000D03*
X111000000Y-135500000D03*
X111000000Y-120500000D03*
X125500000Y-98500000D03*
X118500000Y-57500000D03*
X108500000Y-57500000D03*
X111000000Y-113000000D03*
X110500000Y-57500000D03*
X121880000Y-57380000D03*
X111000000Y-143000000D03*
X121880000Y-75160000D03*
X128000000Y-103770000D03*
X128000000Y-107580000D03*
X121880000Y-67540000D03*
X124420000Y-75160000D03*
X128000000Y-102500000D03*
X128000000Y-106310000D03*
X121880000Y-70080000D03*
X121880000Y-62460000D03*
X128000000Y-110120000D03*
X121880000Y-65000000D03*
X128000000Y-108850000D03*
X121880000Y-72620000D03*
X128000000Y-105040000D03*
X129500000Y-75160000D03*
X128000000Y-94460000D03*
X126960000Y-75160000D03*
X128000000Y-93190000D03*
X132040000Y-75160000D03*
X128000000Y-95730000D03*
X134580000Y-75160000D03*
X128000000Y-97000000D03*
D19*
X113500000Y-81840000D02*
X111660000Y-80000000D01*
X113500000Y-87500000D02*
X113500000Y-81840000D01*
X108500000Y-147500000D02*
X108500000Y-87500000D01*
X108500000Y-65500000D02*
X115500000Y-58500000D01*
X115500000Y-58500000D02*
X115500000Y-57500000D01*
X108500000Y-87500000D02*
X108500000Y-65500000D01*
D20*
X125270000Y-103770000D02*
X122500000Y-101000000D01*
X118000000Y-91500000D02*
X118000000Y-77000000D01*
X122500000Y-96000000D02*
X118000000Y-91500000D01*
X119840000Y-75160000D02*
X121880000Y-75160000D01*
X122500000Y-101000000D02*
X122500000Y-96000000D01*
X128000000Y-103770000D02*
X125270000Y-103770000D01*
X118000000Y-77000000D02*
X119840000Y-75160000D01*
X121000000Y-102500000D02*
X121000000Y-97500000D01*
X116500000Y-69000000D02*
X117960000Y-67540000D01*
X117960000Y-67540000D02*
X121880000Y-67540000D01*
X121000000Y-97500000D02*
X116500000Y-93000000D01*
X128000000Y-107580000D02*
X126080000Y-107580000D01*
X116500000Y-93000000D02*
X116500000Y-69000000D01*
X126080000Y-107580000D02*
X121000000Y-102500000D01*
X123000000Y-95500000D02*
X118500000Y-91000000D01*
X120500000Y-78000000D02*
X123500000Y-78000000D01*
X124420000Y-77080000D02*
X124420000Y-75160000D01*
X125000000Y-102500000D02*
X123000000Y-100500000D01*
X128000000Y-102500000D02*
X125000000Y-102500000D01*
X118500000Y-80000000D02*
X120500000Y-78000000D01*
X123000000Y-100500000D02*
X123000000Y-95500000D01*
X123500000Y-78000000D02*
X124420000Y-77080000D01*
X118500000Y-91000000D02*
X118500000Y-80000000D01*
X128000000Y-106310000D02*
X125810000Y-106310000D01*
X121500000Y-97000000D02*
X117000000Y-92500000D01*
X121500000Y-102000000D02*
X121500000Y-97000000D01*
X125810000Y-106310000D02*
X121500000Y-102000000D01*
X117000000Y-92500000D02*
X117000000Y-72000000D01*
X117000000Y-72000000D02*
X118920000Y-70080000D01*
X118920000Y-70080000D02*
X121880000Y-70080000D01*
X116500000Y-62500000D02*
X121840000Y-62500000D01*
X120000000Y-98500000D02*
X115500000Y-94000000D01*
X120000000Y-103500000D02*
X120000000Y-98500000D01*
X115500000Y-63500000D02*
X116500000Y-62500000D01*
X121840000Y-62500000D02*
X121880000Y-62460000D01*
X115500000Y-94000000D02*
X115500000Y-63500000D01*
X126620000Y-110120000D02*
X120000000Y-103500000D01*
X128000000Y-110120000D02*
X126620000Y-110120000D01*
X126350000Y-108850000D02*
X120500000Y-103000000D01*
X120500000Y-103000000D02*
X120500000Y-98000000D01*
X117000000Y-65000000D02*
X121880000Y-65000000D01*
X120500000Y-98000000D02*
X116000000Y-93500000D01*
X128000000Y-108850000D02*
X126350000Y-108850000D01*
X116000000Y-66000000D02*
X117000000Y-65000000D01*
X116000000Y-93500000D02*
X116000000Y-66000000D01*
X128000000Y-105040000D02*
X125540000Y-105040000D01*
X119380000Y-72620000D02*
X121880000Y-72620000D01*
X117500000Y-92065686D02*
X117500000Y-74500000D01*
X125540000Y-105040000D02*
X122000000Y-101500000D01*
X122000000Y-101500000D02*
X122000000Y-96565686D01*
X122000000Y-96565686D02*
X117500000Y-92065686D01*
X117500000Y-74500000D02*
X119380000Y-72620000D01*
X128000000Y-94460000D02*
X129500000Y-92960000D01*
X129500000Y-92960000D02*
X129500000Y-75160000D01*
X126960000Y-92150000D02*
X126960000Y-75160000D01*
X128000000Y-93190000D02*
X126960000Y-92150000D01*
X132040000Y-91690000D02*
X132040000Y-75160000D01*
X128000000Y-95730000D02*
X132040000Y-91690000D01*
X134580000Y-90420000D02*
X134580000Y-75160000D01*
X128000000Y-97000000D02*
X134580000Y-90420000D01*
G04 #@! TA.AperFunction,Conductor*
G36*
X122908030Y-53513591D02*
G01*
X122930954Y-53525053D01*
X122982113Y-53572640D01*
X122999500Y-53635962D01*
X122999500Y-74184108D01*
X122999500Y-74315892D01*
X123013846Y-74369431D01*
X123033608Y-74443187D01*
X123066383Y-74499953D01*
X123099500Y-74557314D01*
X123192686Y-74650500D01*
X123306814Y-74716392D01*
X123434108Y-74750500D01*
X123540436Y-74750500D01*
X123607475Y-74770185D01*
X123653230Y-74822989D01*
X123663174Y-74892147D01*
X123657478Y-74915455D01*
X123634631Y-74980745D01*
X123634630Y-74980750D01*
X123614435Y-75159996D01*
X123614435Y-75160003D01*
X123634630Y-75339249D01*
X123634631Y-75339254D01*
X123694211Y-75509523D01*
X123721317Y-75552661D01*
X123785240Y-75654394D01*
X123790185Y-75662263D01*
X123792445Y-75665097D01*
X123793334Y-75667275D01*
X123793889Y-75668158D01*
X123793734Y-75668255D01*
X123818855Y-75729783D01*
X123819500Y-75742412D01*
X123819500Y-76779903D01*
X123799815Y-76846942D01*
X123783181Y-76867584D01*
X123287584Y-77363181D01*
X123226261Y-77396666D01*
X123199903Y-77399500D01*
X120579057Y-77399500D01*
X120420943Y-77399500D01*
X120268215Y-77440423D01*
X120268214Y-77440423D01*
X120268212Y-77440424D01*
X120268209Y-77440425D01*
X120218096Y-77469359D01*
X120218095Y-77469360D01*
X120174689Y-77494420D01*
X120131285Y-77519479D01*
X120131282Y-77519481D01*
X118812181Y-78838583D01*
X118750858Y-78872068D01*
X118681166Y-78867084D01*
X118625233Y-78825212D01*
X118600816Y-78759748D01*
X118600500Y-78750902D01*
X118600500Y-77300097D01*
X118620185Y-77233058D01*
X118636819Y-77212416D01*
X120052416Y-75796819D01*
X120113739Y-75763334D01*
X120140097Y-75760500D01*
X121297588Y-75760500D01*
X121364627Y-75780185D01*
X121374903Y-75787555D01*
X121377736Y-75789814D01*
X121377738Y-75789816D01*
X121530478Y-75885789D01*
X121571091Y-75900000D01*
X121700745Y-75945368D01*
X121700750Y-75945369D01*
X121879996Y-75965565D01*
X121880000Y-75965565D01*
X121880004Y-75965565D01*
X122059249Y-75945369D01*
X122059252Y-75945368D01*
X122059255Y-75945368D01*
X122229522Y-75885789D01*
X122382262Y-75789816D01*
X122509816Y-75662262D01*
X122605789Y-75509522D01*
X122665368Y-75339255D01*
X122672798Y-75273313D01*
X122685565Y-75160003D01*
X122685565Y-75159996D01*
X122665369Y-74980750D01*
X122665368Y-74980745D01*
X122634366Y-74892147D01*
X122605789Y-74810478D01*
X122509816Y-74657738D01*
X122382262Y-74530184D01*
X122334769Y-74500342D01*
X122229523Y-74434211D01*
X122059254Y-74374631D01*
X122059249Y-74374630D01*
X121880004Y-74354435D01*
X121879996Y-74354435D01*
X121700750Y-74374630D01*
X121700745Y-74374631D01*
X121530476Y-74434211D01*
X121377736Y-74530185D01*
X121374903Y-74532445D01*
X121372724Y-74533334D01*
X121371842Y-74533889D01*
X121371744Y-74533734D01*
X121310217Y-74558855D01*
X121297588Y-74559500D01*
X119926669Y-74559500D01*
X119926653Y-74559499D01*
X119919057Y-74559499D01*
X119760943Y-74559499D01*
X119653587Y-74588265D01*
X119608210Y-74600424D01*
X119608209Y-74600425D01*
X119573066Y-74620716D01*
X119573064Y-74620717D01*
X119471290Y-74679475D01*
X119471282Y-74679481D01*
X118312181Y-75838583D01*
X118250858Y-75872068D01*
X118181166Y-75867084D01*
X118125233Y-75825212D01*
X118100816Y-75759748D01*
X118100500Y-75750902D01*
X118100500Y-74800097D01*
X118120185Y-74733058D01*
X118136819Y-74712416D01*
X119592416Y-73256819D01*
X119653739Y-73223334D01*
X119680097Y-73220500D01*
X121297588Y-73220500D01*
X121364627Y-73240185D01*
X121374903Y-73247555D01*
X121377736Y-73249814D01*
X121377738Y-73249816D01*
X121491270Y-73321152D01*
X121519009Y-73338583D01*
X121530478Y-73345789D01*
X121700745Y-73405368D01*
X121700750Y-73405369D01*
X121879996Y-73425565D01*
X121880000Y-73425565D01*
X121880004Y-73425565D01*
X122059249Y-73405369D01*
X122059252Y-73405368D01*
X122059255Y-73405368D01*
X122229522Y-73345789D01*
X122382262Y-73249816D01*
X122509816Y-73122262D01*
X122605789Y-72969522D01*
X122665368Y-72799255D01*
X122685565Y-72620000D01*
X122665368Y-72440745D01*
X122605789Y-72270478D01*
X122582276Y-72233058D01*
X122523474Y-72139475D01*
X122509816Y-72117738D01*
X122382262Y-71990184D01*
X122229523Y-71894211D01*
X122059254Y-71834631D01*
X122059249Y-71834630D01*
X121880004Y-71814435D01*
X121879996Y-71814435D01*
X121700750Y-71834630D01*
X121700745Y-71834631D01*
X121530476Y-71894211D01*
X121377736Y-71990185D01*
X121374903Y-71992445D01*
X121372724Y-71993334D01*
X121371842Y-71993889D01*
X121371744Y-71993734D01*
X121310217Y-72018855D01*
X121297588Y-72019500D01*
X119300940Y-72019500D01*
X119260019Y-72030464D01*
X119260019Y-72030465D01*
X119222751Y-72040451D01*
X119148214Y-72060423D01*
X119148209Y-72060426D01*
X119011290Y-72139475D01*
X119011282Y-72139481D01*
X117812181Y-73338583D01*
X117750858Y-73372068D01*
X117681166Y-73367084D01*
X117625233Y-73325212D01*
X117600816Y-73259748D01*
X117600500Y-73250902D01*
X117600500Y-72300097D01*
X117620185Y-72233058D01*
X117636819Y-72212416D01*
X119132416Y-70716819D01*
X119193739Y-70683334D01*
X119220097Y-70680500D01*
X121297588Y-70680500D01*
X121364627Y-70700185D01*
X121374903Y-70707555D01*
X121377736Y-70709814D01*
X121377738Y-70709816D01*
X121530478Y-70805789D01*
X121585986Y-70825212D01*
X121700745Y-70865368D01*
X121700750Y-70865369D01*
X121879996Y-70885565D01*
X121880000Y-70885565D01*
X121880004Y-70885565D01*
X122059249Y-70865369D01*
X122059252Y-70865368D01*
X122059255Y-70865368D01*
X122229522Y-70805789D01*
X122382262Y-70709816D01*
X122509816Y-70582262D01*
X122605789Y-70429522D01*
X122665368Y-70259255D01*
X122665369Y-70259249D01*
X122685565Y-70080003D01*
X122685565Y-70079996D01*
X122665369Y-69900750D01*
X122665368Y-69900745D01*
X122605788Y-69730476D01*
X122509815Y-69577737D01*
X122382262Y-69450184D01*
X122229523Y-69354211D01*
X122059254Y-69294631D01*
X122059249Y-69294630D01*
X121880004Y-69274435D01*
X121879996Y-69274435D01*
X121700750Y-69294630D01*
X121700745Y-69294631D01*
X121530476Y-69354211D01*
X121377736Y-69450185D01*
X121374903Y-69452445D01*
X121372724Y-69453334D01*
X121371842Y-69453889D01*
X121371744Y-69453734D01*
X121310217Y-69478855D01*
X121297588Y-69479500D01*
X119006669Y-69479500D01*
X119006653Y-69479499D01*
X118999057Y-69479499D01*
X118840943Y-69479499D01*
X118733587Y-69508265D01*
X118688210Y-69520424D01*
X118688209Y-69520425D01*
X118653066Y-69540716D01*
X118653064Y-69540717D01*
X118551290Y-69599475D01*
X118551282Y-69599481D01*
X117312181Y-70838583D01*
X117250858Y-70872068D01*
X117181166Y-70867084D01*
X117125233Y-70825212D01*
X117100816Y-70759748D01*
X117100500Y-70750902D01*
X117100500Y-69300097D01*
X117120185Y-69233058D01*
X117136819Y-69212416D01*
X118172417Y-68176819D01*
X118233740Y-68143334D01*
X118260098Y-68140500D01*
X121297588Y-68140500D01*
X121364627Y-68160185D01*
X121374903Y-68167555D01*
X121377736Y-68169814D01*
X121377738Y-68169816D01*
X121530478Y-68265789D01*
X121700745Y-68325368D01*
X121700750Y-68325369D01*
X121879996Y-68345565D01*
X121880000Y-68345565D01*
X121880004Y-68345565D01*
X122059249Y-68325369D01*
X122059252Y-68325368D01*
X122059255Y-68325368D01*
X122229522Y-68265789D01*
X122382262Y-68169816D01*
X122509816Y-68042262D01*
X122605789Y-67889522D01*
X122665368Y-67719255D01*
X122685565Y-67540000D01*
X122681063Y-67500047D01*
X122665369Y-67360750D01*
X122665368Y-67360745D01*
X122605788Y-67190476D01*
X122566582Y-67128080D01*
X122509816Y-67037738D01*
X122382262Y-66910184D01*
X122229523Y-66814211D01*
X122059254Y-66754631D01*
X122059249Y-66754630D01*
X121880004Y-66734435D01*
X121879996Y-66734435D01*
X121700750Y-66754630D01*
X121700745Y-66754631D01*
X121530476Y-66814211D01*
X121377736Y-66910185D01*
X121374903Y-66912445D01*
X121372724Y-66913334D01*
X121371842Y-66913889D01*
X121371744Y-66913734D01*
X121310217Y-66938855D01*
X121297588Y-66939500D01*
X118046670Y-66939500D01*
X118046654Y-66939499D01*
X118039058Y-66939499D01*
X117880943Y-66939499D01*
X117728215Y-66980423D01*
X117628943Y-67037738D01*
X117591281Y-67059482D01*
X116812181Y-67838583D01*
X116750858Y-67872068D01*
X116681166Y-67867084D01*
X116625233Y-67825212D01*
X116600816Y-67759748D01*
X116600500Y-67750902D01*
X116600500Y-66300097D01*
X116620185Y-66233058D01*
X116636819Y-66212416D01*
X117212417Y-65636819D01*
X117273740Y-65603334D01*
X117300098Y-65600500D01*
X121297588Y-65600500D01*
X121364627Y-65620185D01*
X121374903Y-65627555D01*
X121377736Y-65629814D01*
X121377738Y-65629816D01*
X121530478Y-65725789D01*
X121700745Y-65785368D01*
X121700750Y-65785369D01*
X121879996Y-65805565D01*
X121880000Y-65805565D01*
X121880004Y-65805565D01*
X122059249Y-65785369D01*
X122059252Y-65785368D01*
X122059255Y-65785368D01*
X122229522Y-65725789D01*
X122382262Y-65629816D01*
X122509816Y-65502262D01*
X122605789Y-65349522D01*
X122665368Y-65179255D01*
X122679902Y-65050264D01*
X122685565Y-65000003D01*
X122685565Y-64999996D01*
X122665369Y-64820750D01*
X122665368Y-64820745D01*
X122605788Y-64650476D01*
X122509815Y-64497737D01*
X122382262Y-64370184D01*
X122229523Y-64274211D01*
X122059254Y-64214631D01*
X122059249Y-64214630D01*
X121880004Y-64194435D01*
X121879996Y-64194435D01*
X121700750Y-64214630D01*
X121700745Y-64214631D01*
X121530476Y-64274211D01*
X121377736Y-64370185D01*
X121374903Y-64372445D01*
X121372724Y-64373334D01*
X121371842Y-64373889D01*
X121371744Y-64373734D01*
X121310217Y-64398855D01*
X121297588Y-64399500D01*
X117086670Y-64399500D01*
X117086654Y-64399499D01*
X117079058Y-64399499D01*
X116920943Y-64399499D01*
X116844579Y-64419961D01*
X116768214Y-64440423D01*
X116768209Y-64440426D01*
X116631290Y-64519475D01*
X116631282Y-64519481D01*
X116312181Y-64838583D01*
X116250858Y-64872068D01*
X116181166Y-64867084D01*
X116125233Y-64825212D01*
X116100816Y-64759748D01*
X116100500Y-64750902D01*
X116100500Y-63800097D01*
X116120185Y-63733058D01*
X116136819Y-63712416D01*
X116712417Y-63136819D01*
X116773740Y-63103334D01*
X116800098Y-63100500D01*
X121359017Y-63100500D01*
X121424989Y-63119506D01*
X121530477Y-63185789D01*
X121530481Y-63185790D01*
X121700737Y-63245366D01*
X121700743Y-63245367D01*
X121700745Y-63245368D01*
X121700746Y-63245368D01*
X121700750Y-63245369D01*
X121879996Y-63265565D01*
X121880000Y-63265565D01*
X121880004Y-63265565D01*
X122059249Y-63245369D01*
X122059252Y-63245368D01*
X122059255Y-63245368D01*
X122229522Y-63185789D01*
X122382262Y-63089816D01*
X122509816Y-62962262D01*
X122605789Y-62809522D01*
X122665368Y-62639255D01*
X122685565Y-62460000D01*
X122665368Y-62280745D01*
X122605789Y-62110478D01*
X122509816Y-61957738D01*
X122382262Y-61830184D01*
X122229523Y-61734211D01*
X122059254Y-61674631D01*
X122059249Y-61674630D01*
X121880004Y-61654435D01*
X121879996Y-61654435D01*
X121700750Y-61674630D01*
X121700745Y-61674631D01*
X121530476Y-61734211D01*
X121377737Y-61830184D01*
X121344741Y-61863181D01*
X121283418Y-61896666D01*
X121257060Y-61899500D01*
X116586670Y-61899500D01*
X116586654Y-61899499D01*
X116579058Y-61899499D01*
X116420943Y-61899499D01*
X116344579Y-61919961D01*
X116268214Y-61940423D01*
X116268209Y-61940426D01*
X116131290Y-62019475D01*
X116131282Y-62019481D01*
X115019479Y-63131284D01*
X115016284Y-63136819D01*
X114988012Y-63185789D01*
X114940423Y-63268215D01*
X114899499Y-63420943D01*
X114899499Y-63420945D01*
X114899499Y-63589046D01*
X114899500Y-63589059D01*
X114899500Y-86631546D01*
X114879815Y-86698585D01*
X114827011Y-86744340D01*
X114757853Y-86754284D01*
X114694297Y-86725259D01*
X114665016Y-86687842D01*
X114654622Y-86667444D01*
X114529727Y-86495540D01*
X114529723Y-86495535D01*
X114379464Y-86345276D01*
X114379459Y-86345272D01*
X114207557Y-86220379D01*
X114018215Y-86123903D01*
X113816124Y-86058241D01*
X113750000Y-86047768D01*
X113750000Y-87095854D01*
X113683343Y-87057370D01*
X113562535Y-87025000D01*
X113437465Y-87025000D01*
X113316657Y-87057370D01*
X113250000Y-87095854D01*
X113250000Y-86047768D01*
X113249999Y-86047768D01*
X113183875Y-86058241D01*
X112981784Y-86123903D01*
X112792442Y-86220379D01*
X112620540Y-86345272D01*
X112620535Y-86345276D01*
X112470276Y-86495535D01*
X112470272Y-86495540D01*
X112350627Y-86660218D01*
X112295297Y-86702884D01*
X112225684Y-86708863D01*
X112163889Y-86676257D01*
X112149991Y-86660218D01*
X112030109Y-86495214D01*
X112030105Y-86495209D01*
X111879786Y-86344890D01*
X111707820Y-86219951D01*
X111518414Y-86123444D01*
X111518413Y-86123443D01*
X111518412Y-86123443D01*
X111316243Y-86057754D01*
X111316241Y-86057753D01*
X111316240Y-86057753D01*
X111154957Y-86032208D01*
X111106287Y-86024500D01*
X110893713Y-86024500D01*
X110845042Y-86032208D01*
X110683760Y-86057753D01*
X110481585Y-86123444D01*
X110292179Y-86219951D01*
X110120215Y-86344889D01*
X109981398Y-86483706D01*
X109920075Y-86517190D01*
X109850383Y-86512206D01*
X109794450Y-86470334D01*
X109788178Y-86461120D01*
X109692712Y-86306344D01*
X109568655Y-86182287D01*
X109559402Y-86176580D01*
X109512678Y-86124632D01*
X109500500Y-86071042D01*
X109500500Y-79749999D01*
X110381127Y-79749999D01*
X110381128Y-79750000D01*
X111344314Y-79750000D01*
X111339920Y-79754394D01*
X111287259Y-79845606D01*
X111260000Y-79947339D01*
X111260000Y-80052661D01*
X111287259Y-80154394D01*
X111339920Y-80245606D01*
X111344314Y-80250000D01*
X110381128Y-80250000D01*
X110433730Y-80446317D01*
X110433734Y-80446326D01*
X110529865Y-80652482D01*
X110660342Y-80838820D01*
X110821179Y-80999657D01*
X111007517Y-81130134D01*
X111213673Y-81226265D01*
X111213682Y-81226269D01*
X111409999Y-81278872D01*
X111410000Y-81278871D01*
X111410000Y-80315686D01*
X111414394Y-80320080D01*
X111505606Y-80372741D01*
X111607339Y-80400000D01*
X111712661Y-80400000D01*
X111814394Y-80372741D01*
X111905606Y-80320080D01*
X111910000Y-80315686D01*
X111910000Y-81278872D01*
X112106317Y-81226269D01*
X112106326Y-81226265D01*
X112312482Y-81130134D01*
X112498820Y-80999657D01*
X112659657Y-80838820D01*
X112790134Y-80652482D01*
X112886265Y-80446326D01*
X112886269Y-80446317D01*
X112938872Y-80250000D01*
X111975686Y-80250000D01*
X111980080Y-80245606D01*
X112032741Y-80154394D01*
X112060000Y-80052661D01*
X112060000Y-79947339D01*
X112032741Y-79845606D01*
X111980080Y-79754394D01*
X111975686Y-79750000D01*
X112938872Y-79750000D01*
X112938872Y-79749999D01*
X112886269Y-79553682D01*
X112886265Y-79553673D01*
X112790134Y-79347517D01*
X112659657Y-79161179D01*
X112498820Y-79000342D01*
X112312482Y-78869865D01*
X112106328Y-78773734D01*
X111910000Y-78721127D01*
X111910000Y-79684314D01*
X111905606Y-79679920D01*
X111814394Y-79627259D01*
X111712661Y-79600000D01*
X111607339Y-79600000D01*
X111505606Y-79627259D01*
X111414394Y-79679920D01*
X111410000Y-79684314D01*
X111410000Y-78721127D01*
X111213671Y-78773734D01*
X111007517Y-78869865D01*
X110821179Y-79000342D01*
X110660342Y-79161179D01*
X110529865Y-79347517D01*
X110433734Y-79553673D01*
X110433730Y-79553682D01*
X110381127Y-79749999D01*
X109500500Y-79749999D01*
X109500500Y-75249999D01*
X110381127Y-75249999D01*
X110381128Y-75250000D01*
X111344314Y-75250000D01*
X111339920Y-75254394D01*
X111287259Y-75345606D01*
X111260000Y-75447339D01*
X111260000Y-75552661D01*
X111287259Y-75654394D01*
X111339920Y-75745606D01*
X111344314Y-75750000D01*
X110381128Y-75750000D01*
X110433730Y-75946317D01*
X110433734Y-75946326D01*
X110529865Y-76152482D01*
X110660342Y-76338820D01*
X110821179Y-76499657D01*
X111007517Y-76630134D01*
X111213673Y-76726265D01*
X111213682Y-76726269D01*
X111409999Y-76778872D01*
X111410000Y-76778871D01*
X111410000Y-75815686D01*
X111414394Y-75820080D01*
X111505606Y-75872741D01*
X111607339Y-75900000D01*
X111712661Y-75900000D01*
X111814394Y-75872741D01*
X111905606Y-75820080D01*
X111910000Y-75815686D01*
X111910000Y-76778872D01*
X112106317Y-76726269D01*
X112106326Y-76726265D01*
X112312482Y-76630134D01*
X112498820Y-76499657D01*
X112659657Y-76338820D01*
X112790134Y-76152482D01*
X112886265Y-75946326D01*
X112886269Y-75946317D01*
X112938872Y-75750000D01*
X111975686Y-75750000D01*
X111980080Y-75745606D01*
X112032741Y-75654394D01*
X112060000Y-75552661D01*
X112060000Y-75447339D01*
X112032741Y-75345606D01*
X111980080Y-75254394D01*
X111975686Y-75250000D01*
X112938872Y-75250000D01*
X112938872Y-75249999D01*
X112886269Y-75053682D01*
X112886265Y-75053673D01*
X112790134Y-74847517D01*
X112659657Y-74661179D01*
X112498820Y-74500342D01*
X112312482Y-74369865D01*
X112106328Y-74273734D01*
X111910000Y-74221127D01*
X111910000Y-75184314D01*
X111905606Y-75179920D01*
X111814394Y-75127259D01*
X111712661Y-75100000D01*
X111607339Y-75100000D01*
X111505606Y-75127259D01*
X111414394Y-75179920D01*
X111410000Y-75184314D01*
X111410000Y-74221127D01*
X111213671Y-74273734D01*
X111007517Y-74369865D01*
X110821179Y-74500342D01*
X110660342Y-74661179D01*
X110529865Y-74847517D01*
X110433734Y-75053673D01*
X110433730Y-75053682D01*
X110381127Y-75249999D01*
X109500500Y-75249999D01*
X109500500Y-70999998D01*
X110354532Y-70999998D01*
X110354532Y-71000001D01*
X110374364Y-71226686D01*
X110374366Y-71226697D01*
X110433258Y-71446488D01*
X110433261Y-71446497D01*
X110529431Y-71652732D01*
X110529432Y-71652734D01*
X110659954Y-71839141D01*
X110820858Y-72000045D01*
X110820861Y-72000047D01*
X111007266Y-72130568D01*
X111213504Y-72226739D01*
X111433308Y-72285635D01*
X111595230Y-72299801D01*
X111659998Y-72305468D01*
X111660000Y-72305468D01*
X111660002Y-72305468D01*
X111721391Y-72300097D01*
X111886692Y-72285635D01*
X112106496Y-72226739D01*
X112312734Y-72130568D01*
X112499139Y-72000047D01*
X112660047Y-71839139D01*
X112790568Y-71652734D01*
X112886739Y-71446496D01*
X112945635Y-71226692D01*
X112965468Y-71000000D01*
X112945635Y-70773308D01*
X112886739Y-70553504D01*
X112790568Y-70347266D01*
X112660047Y-70160861D01*
X112660045Y-70160858D01*
X112499141Y-69999954D01*
X112312734Y-69869432D01*
X112312732Y-69869431D01*
X112106497Y-69773261D01*
X112106488Y-69773258D01*
X111886697Y-69714366D01*
X111886693Y-69714365D01*
X111886692Y-69714365D01*
X111886691Y-69714364D01*
X111886686Y-69714364D01*
X111660002Y-69694532D01*
X111659998Y-69694532D01*
X111433313Y-69714364D01*
X111433302Y-69714366D01*
X111213511Y-69773258D01*
X111213502Y-69773261D01*
X111007267Y-69869431D01*
X111007265Y-69869432D01*
X110820858Y-69999954D01*
X110659954Y-70160858D01*
X110529432Y-70347265D01*
X110529431Y-70347267D01*
X110433261Y-70553502D01*
X110433258Y-70553511D01*
X110374366Y-70773302D01*
X110374364Y-70773313D01*
X110354532Y-70999998D01*
X109500500Y-70999998D01*
X109500500Y-66499998D01*
X110354532Y-66499998D01*
X110354532Y-66500001D01*
X110374364Y-66726686D01*
X110374366Y-66726697D01*
X110433258Y-66946488D01*
X110433261Y-66946497D01*
X110529431Y-67152732D01*
X110529432Y-67152734D01*
X110659954Y-67339141D01*
X110820858Y-67500045D01*
X110820861Y-67500047D01*
X111007266Y-67630568D01*
X111213504Y-67726739D01*
X111433308Y-67785635D01*
X111595230Y-67799801D01*
X111659998Y-67805468D01*
X111660000Y-67805468D01*
X111660002Y-67805468D01*
X111716673Y-67800509D01*
X111886692Y-67785635D01*
X112106496Y-67726739D01*
X112312734Y-67630568D01*
X112499139Y-67500047D01*
X112660047Y-67339139D01*
X112790568Y-67152734D01*
X112886739Y-66946496D01*
X112945635Y-66726692D01*
X112965468Y-66500000D01*
X112945635Y-66273308D01*
X112886739Y-66053504D01*
X112790568Y-65847266D01*
X112660047Y-65660861D01*
X112660045Y-65660858D01*
X112499141Y-65499954D01*
X112312734Y-65369432D01*
X112312732Y-65369431D01*
X112106497Y-65273261D01*
X112106488Y-65273258D01*
X111886697Y-65214366D01*
X111886693Y-65214365D01*
X111886692Y-65214365D01*
X111886691Y-65214364D01*
X111886686Y-65214364D01*
X111660002Y-65194532D01*
X111659998Y-65194532D01*
X111433313Y-65214364D01*
X111433302Y-65214366D01*
X111213511Y-65273258D01*
X111213502Y-65273261D01*
X111007267Y-65369431D01*
X111007265Y-65369432D01*
X110820858Y-65499954D01*
X110659954Y-65660858D01*
X110529432Y-65847265D01*
X110529431Y-65847267D01*
X110433261Y-66053502D01*
X110433258Y-66053511D01*
X110374366Y-66273302D01*
X110374364Y-66273313D01*
X110354532Y-66499998D01*
X109500500Y-66499998D01*
X109500500Y-65965781D01*
X109520185Y-65898742D01*
X109536814Y-65878105D01*
X116137778Y-59277141D01*
X116137782Y-59277139D01*
X116277139Y-59137782D01*
X116386632Y-58973914D01*
X116439961Y-58845165D01*
X116462051Y-58791836D01*
X116489324Y-58654727D01*
X116501689Y-58592566D01*
X116502888Y-58592804D01*
X116526633Y-58533990D01*
X116529604Y-58530377D01*
X116530093Y-58529802D01*
X116530104Y-58529792D01*
X116655051Y-58357816D01*
X116751557Y-58168412D01*
X116817246Y-57966243D01*
X116850500Y-57756287D01*
X116850500Y-57243713D01*
X116817246Y-57033757D01*
X116751557Y-56831588D01*
X116655051Y-56642184D01*
X116655049Y-56642181D01*
X116655048Y-56642179D01*
X116530109Y-56470213D01*
X116379786Y-56319890D01*
X116207820Y-56194951D01*
X116018414Y-56098444D01*
X116018413Y-56098443D01*
X116018412Y-56098443D01*
X115816243Y-56032754D01*
X115816241Y-56032753D01*
X115816240Y-56032753D01*
X115654957Y-56007208D01*
X115606287Y-55999500D01*
X115393713Y-55999500D01*
X115345042Y-56007208D01*
X115183760Y-56032753D01*
X114981585Y-56098444D01*
X114792179Y-56194951D01*
X114620215Y-56319889D01*
X114481035Y-56459069D01*
X114419712Y-56492553D01*
X114350020Y-56487569D01*
X114294087Y-56445697D01*
X114287815Y-56436484D01*
X114192315Y-56281654D01*
X114068345Y-56157684D01*
X113919124Y-56065643D01*
X113919119Y-56065641D01*
X113752697Y-56010494D01*
X113752690Y-56010493D01*
X113649986Y-56000000D01*
X113250000Y-56000000D01*
X113250000Y-57066988D01*
X113192993Y-57034075D01*
X113065826Y-57000000D01*
X112934174Y-57000000D01*
X112807007Y-57034075D01*
X112750000Y-57066988D01*
X112750000Y-56000000D01*
X112350028Y-56000000D01*
X112350012Y-56000001D01*
X112247302Y-56010494D01*
X112080880Y-56065641D01*
X112080875Y-56065643D01*
X111931654Y-56157684D01*
X111807684Y-56281654D01*
X111715643Y-56430875D01*
X111715641Y-56430880D01*
X111660494Y-56597302D01*
X111660493Y-56597309D01*
X111650000Y-56700013D01*
X111650000Y-57250000D01*
X112566988Y-57250000D01*
X112534075Y-57307007D01*
X112500000Y-57434174D01*
X112500000Y-57565826D01*
X112534075Y-57692993D01*
X112566988Y-57750000D01*
X111650001Y-57750000D01*
X111650001Y-58299986D01*
X111660494Y-58402697D01*
X111715641Y-58569119D01*
X111715643Y-58569124D01*
X111807684Y-58718345D01*
X111931654Y-58842315D01*
X112080875Y-58934356D01*
X112080880Y-58934358D01*
X112247302Y-58989505D01*
X112247309Y-58989506D01*
X112350019Y-58999999D01*
X112749999Y-58999999D01*
X112750000Y-58999998D01*
X112750000Y-57933012D01*
X112807007Y-57965925D01*
X112934174Y-58000000D01*
X113065826Y-58000000D01*
X113192993Y-57965925D01*
X113250000Y-57933012D01*
X113250000Y-58999999D01*
X113285717Y-58999999D01*
X113352756Y-59019684D01*
X113398511Y-59072488D01*
X113408455Y-59141646D01*
X113379430Y-59205202D01*
X113373398Y-59211680D01*
X110565604Y-62019475D01*
X107862221Y-64722858D01*
X107862218Y-64722861D01*
X107825331Y-64759748D01*
X107722859Y-64862219D01*
X107613371Y-65026079D01*
X107613364Y-65026092D01*
X107537950Y-65208160D01*
X107537947Y-65208170D01*
X107499500Y-65401456D01*
X107499500Y-86071042D01*
X107479815Y-86138081D01*
X107440598Y-86176580D01*
X107431344Y-86182287D01*
X107307289Y-86306342D01*
X107215187Y-86455663D01*
X107215185Y-86455668D01*
X107210325Y-86470334D01*
X107160001Y-86622203D01*
X107160001Y-86622204D01*
X107160000Y-86622204D01*
X107149500Y-86724983D01*
X107149500Y-88275001D01*
X107149501Y-88275018D01*
X107160000Y-88377796D01*
X107160001Y-88377799D01*
X107205894Y-88516294D01*
X107215186Y-88544334D01*
X107307288Y-88693656D01*
X107431344Y-88817712D01*
X107440591Y-88823416D01*
X107487318Y-88875360D01*
X107499500Y-88928957D01*
X107499500Y-93571042D01*
X107479815Y-93638081D01*
X107440598Y-93676580D01*
X107431344Y-93682287D01*
X107307289Y-93806342D01*
X107215187Y-93955663D01*
X107215185Y-93955668D01*
X107210325Y-93970334D01*
X107160001Y-94122203D01*
X107160001Y-94122204D01*
X107160000Y-94122204D01*
X107149500Y-94224983D01*
X107149500Y-95775001D01*
X107149501Y-95775018D01*
X107160000Y-95877796D01*
X107160001Y-95877799D01*
X107205894Y-96016294D01*
X107215186Y-96044334D01*
X107307288Y-96193656D01*
X107431344Y-96317712D01*
X107440591Y-96323416D01*
X107487318Y-96375360D01*
X107499500Y-96428957D01*
X107499500Y-101071042D01*
X107479815Y-101138081D01*
X107440598Y-101176580D01*
X107431344Y-101182287D01*
X107307289Y-101306342D01*
X107215187Y-101455663D01*
X107215185Y-101455668D01*
X107205894Y-101483706D01*
X107160001Y-101622203D01*
X107160001Y-101622204D01*
X107160000Y-101622204D01*
X107149500Y-101724983D01*
X107149500Y-103275001D01*
X107149501Y-103275018D01*
X107160000Y-103377796D01*
X107160001Y-103377799D01*
X107205894Y-103516294D01*
X107215186Y-103544334D01*
X107307288Y-103693656D01*
X107431344Y-103817712D01*
X107440591Y-103823416D01*
X107487318Y-103875360D01*
X107499500Y-103928957D01*
X107499500Y-108571042D01*
X107479815Y-108638081D01*
X107440598Y-108676580D01*
X107431344Y-108682287D01*
X107307289Y-108806342D01*
X107215187Y-108955663D01*
X107215185Y-108955668D01*
X107210325Y-108970334D01*
X107160001Y-109122203D01*
X107160001Y-109122204D01*
X107160000Y-109122204D01*
X107149500Y-109224983D01*
X107149500Y-110775001D01*
X107149501Y-110775018D01*
X107160000Y-110877796D01*
X107160001Y-110877799D01*
X107205894Y-111016294D01*
X107215186Y-111044334D01*
X107307288Y-111193656D01*
X107431344Y-111317712D01*
X107440591Y-111323416D01*
X107487318Y-111375360D01*
X107499500Y-111428957D01*
X107499500Y-116071042D01*
X107479815Y-116138081D01*
X107440598Y-116176580D01*
X107431344Y-116182287D01*
X107307289Y-116306342D01*
X107215187Y-116455663D01*
X107215185Y-116455668D01*
X107210762Y-116469017D01*
X107160001Y-116622203D01*
X107160001Y-116622204D01*
X107160000Y-116622204D01*
X107149500Y-116724983D01*
X107149500Y-118275001D01*
X107149501Y-118275018D01*
X107160000Y-118377796D01*
X107160001Y-118377799D01*
X107205894Y-118516294D01*
X107215186Y-118544334D01*
X107307288Y-118693656D01*
X107431344Y-118817712D01*
X107440591Y-118823416D01*
X107487318Y-118875360D01*
X107499500Y-118928957D01*
X107499500Y-123571042D01*
X107479815Y-123638081D01*
X107440598Y-123676580D01*
X107431344Y-123682287D01*
X107307289Y-123806342D01*
X107215187Y-123955663D01*
X107215185Y-123955668D01*
X107210325Y-123970334D01*
X107160001Y-124122203D01*
X107160001Y-124122204D01*
X107160000Y-124122204D01*
X107149500Y-124224983D01*
X107149500Y-125775001D01*
X107149501Y-125775018D01*
X107160000Y-125877796D01*
X107160001Y-125877799D01*
X107205894Y-126016294D01*
X107215186Y-126044334D01*
X107307288Y-126193656D01*
X107431344Y-126317712D01*
X107440591Y-126323416D01*
X107487318Y-126375360D01*
X107499500Y-126428957D01*
X107499500Y-131071042D01*
X107479815Y-131138081D01*
X107440598Y-131176580D01*
X107431344Y-131182287D01*
X107307289Y-131306342D01*
X107215187Y-131455663D01*
X107215185Y-131455668D01*
X107210325Y-131470334D01*
X107160001Y-131622203D01*
X107160001Y-131622204D01*
X107160000Y-131622204D01*
X107149500Y-131724983D01*
X107149500Y-133275001D01*
X107149501Y-133275018D01*
X107160000Y-133377796D01*
X107160001Y-133377799D01*
X107205894Y-133516294D01*
X107215186Y-133544334D01*
X107307288Y-133693656D01*
X107431344Y-133817712D01*
X107440591Y-133823416D01*
X107487318Y-133875360D01*
X107499500Y-133928957D01*
X107499500Y-138571042D01*
X107479815Y-138638081D01*
X107440598Y-138676580D01*
X107431344Y-138682287D01*
X107307289Y-138806342D01*
X107215187Y-138955663D01*
X107215185Y-138955668D01*
X107210325Y-138970334D01*
X107160001Y-139122203D01*
X107160001Y-139122204D01*
X107160000Y-139122204D01*
X107149500Y-139224983D01*
X107149500Y-140775001D01*
X107149501Y-140775018D01*
X107160000Y-140877796D01*
X107160001Y-140877799D01*
X107205894Y-141016294D01*
X107215186Y-141044334D01*
X107307288Y-141193656D01*
X107431344Y-141317712D01*
X107440591Y-141323416D01*
X107487318Y-141375360D01*
X107499500Y-141428957D01*
X107499500Y-146071042D01*
X107479815Y-146138081D01*
X107440598Y-146176580D01*
X107431344Y-146182287D01*
X107307289Y-146306342D01*
X107215187Y-146455663D01*
X107215185Y-146455668D01*
X107210325Y-146470334D01*
X107160001Y-146622203D01*
X107160001Y-146622204D01*
X107160000Y-146622204D01*
X107149500Y-146724983D01*
X107149500Y-148275001D01*
X107149501Y-148275018D01*
X107160000Y-148377796D01*
X107160001Y-148377799D01*
X107205894Y-148516294D01*
X107215186Y-148544334D01*
X107307288Y-148693656D01*
X107431344Y-148817712D01*
X107580666Y-148909814D01*
X107747203Y-148964999D01*
X107849991Y-148975500D01*
X109150008Y-148975499D01*
X109252797Y-148964999D01*
X109419334Y-148909814D01*
X109568656Y-148817712D01*
X109692712Y-148693656D01*
X109784814Y-148544334D01*
X109784814Y-148544331D01*
X109788178Y-148538879D01*
X109840126Y-148492154D01*
X109909088Y-148480931D01*
X109973170Y-148508774D01*
X109981398Y-148516294D01*
X110120213Y-148655109D01*
X110292179Y-148780048D01*
X110292181Y-148780049D01*
X110292184Y-148780051D01*
X110481588Y-148876557D01*
X110683757Y-148942246D01*
X110893713Y-148975500D01*
X110893714Y-148975500D01*
X111106286Y-148975500D01*
X111106287Y-148975500D01*
X111316243Y-148942246D01*
X111518412Y-148876557D01*
X111707816Y-148780051D01*
X111729789Y-148764086D01*
X111879786Y-148655109D01*
X111879788Y-148655106D01*
X111879792Y-148655104D01*
X112030104Y-148504792D01*
X112149991Y-148339779D01*
X112205320Y-148297115D01*
X112274933Y-148291136D01*
X112336729Y-148323741D01*
X112350627Y-148339781D01*
X112470272Y-148504459D01*
X112470276Y-148504464D01*
X112620535Y-148654723D01*
X112620540Y-148654727D01*
X112792442Y-148779620D01*
X112981782Y-148876095D01*
X113183871Y-148941757D01*
X113250000Y-148952231D01*
X113250000Y-147904145D01*
X113316657Y-147942630D01*
X113437465Y-147975000D01*
X113562535Y-147975000D01*
X113683343Y-147942630D01*
X113750000Y-147904145D01*
X113750000Y-148952230D01*
X113816126Y-148941757D01*
X113816129Y-148941757D01*
X114018217Y-148876095D01*
X114207557Y-148779620D01*
X114379459Y-148654727D01*
X114379464Y-148654723D01*
X114529723Y-148504464D01*
X114529727Y-148504459D01*
X114654620Y-148332557D01*
X114751095Y-148143217D01*
X114816757Y-147941130D01*
X114816757Y-147941127D01*
X114847030Y-147750000D01*
X113904146Y-147750000D01*
X113942630Y-147683343D01*
X113975000Y-147562535D01*
X113975000Y-147500000D01*
X130745181Y-147500000D01*
X130764447Y-147904450D01*
X130822071Y-148305231D01*
X130917531Y-148698722D01*
X130917534Y-148698733D01*
X131049956Y-149081340D01*
X131049966Y-149081365D01*
X131218168Y-149449675D01*
X131420621Y-149800335D01*
X131420627Y-149800343D01*
X131655485Y-150130154D01*
X131822985Y-150323460D01*
X133313098Y-148833347D01*
X133380076Y-148920635D01*
X133579365Y-149119924D01*
X133666650Y-149186900D01*
X132174928Y-150678622D01*
X132213676Y-150715568D01*
X132213695Y-150715585D01*
X132531968Y-150965877D01*
X132872594Y-151184782D01*
X133232485Y-151370319D01*
X133608383Y-151520806D01*
X133608395Y-151520810D01*
X133996882Y-151634880D01*
X133996899Y-151634884D01*
X134394460Y-151711508D01*
X134394472Y-151711510D01*
X134797554Y-151750000D01*
X135202446Y-151750000D01*
X135605527Y-151711510D01*
X135605539Y-151711508D01*
X136003100Y-151634884D01*
X136003117Y-151634880D01*
X136391604Y-151520810D01*
X136391616Y-151520806D01*
X136767507Y-151370322D01*
X136767511Y-151370320D01*
X137127406Y-151184782D01*
X137468031Y-150965877D01*
X137786314Y-150715578D01*
X137825069Y-150678622D01*
X136333348Y-149186901D01*
X136420635Y-149119924D01*
X136619924Y-148920635D01*
X136686901Y-148833348D01*
X138177012Y-150323459D01*
X138344512Y-150130156D01*
X138344523Y-150130143D01*
X138579372Y-149800343D01*
X138579378Y-149800335D01*
X138781831Y-149449675D01*
X138950033Y-149081365D01*
X138950043Y-149081340D01*
X139082465Y-148698733D01*
X139082468Y-148698722D01*
X139177928Y-148305231D01*
X139235552Y-147904450D01*
X139251640Y-147566726D01*
X139274493Y-147500699D01*
X139278945Y-147497197D01*
X139256523Y-147462308D01*
X139251640Y-147433273D01*
X139235552Y-147095549D01*
X139177928Y-146694768D01*
X139082468Y-146301277D01*
X139082465Y-146301266D01*
X138950043Y-145918659D01*
X138950033Y-145918634D01*
X138781831Y-145550324D01*
X138579378Y-145199664D01*
X138579372Y-145199656D01*
X138344523Y-144869856D01*
X138344512Y-144869843D01*
X138177013Y-144676538D01*
X136686900Y-146166650D01*
X136619924Y-146079365D01*
X136420635Y-145880076D01*
X136333348Y-145813098D01*
X137825070Y-144321376D01*
X137786323Y-144284431D01*
X137786304Y-144284414D01*
X137468031Y-144034122D01*
X137127406Y-143815217D01*
X136767511Y-143629679D01*
X136767507Y-143629677D01*
X136391616Y-143479193D01*
X136391604Y-143479189D01*
X136003117Y-143365119D01*
X136003100Y-143365115D01*
X135605539Y-143288491D01*
X135605527Y-143288489D01*
X135202446Y-143250000D01*
X134797554Y-143250000D01*
X134394472Y-143288489D01*
X134394460Y-143288491D01*
X133996899Y-143365115D01*
X133996882Y-143365119D01*
X133608395Y-143479189D01*
X133608383Y-143479193D01*
X133232485Y-143629680D01*
X132872594Y-143815217D01*
X132531968Y-144034122D01*
X132213685Y-144284421D01*
X132213673Y-144284432D01*
X132174929Y-144321375D01*
X132174929Y-144321376D01*
X133666651Y-145813098D01*
X133579365Y-145880076D01*
X133380076Y-146079365D01*
X133313098Y-146166651D01*
X131822986Y-144676539D01*
X131655485Y-144869845D01*
X131420627Y-145199656D01*
X131420621Y-145199664D01*
X131218168Y-145550324D01*
X131049966Y-145918634D01*
X131049956Y-145918659D01*
X130917534Y-146301266D01*
X130917531Y-146301277D01*
X130822071Y-146694768D01*
X130764447Y-147095549D01*
X130745181Y-147500000D01*
X113975000Y-147500000D01*
X113975000Y-147437465D01*
X113942630Y-147316657D01*
X113904146Y-147250000D01*
X114847030Y-147250000D01*
X114816757Y-147058872D01*
X114816757Y-147058869D01*
X114751095Y-146856782D01*
X114654620Y-146667442D01*
X114529727Y-146495540D01*
X114529723Y-146495535D01*
X114379464Y-146345276D01*
X114379459Y-146345272D01*
X114207557Y-146220379D01*
X114018215Y-146123903D01*
X113816124Y-146058241D01*
X113750000Y-146047768D01*
X113750000Y-147095854D01*
X113683343Y-147057370D01*
X113562535Y-147025000D01*
X113437465Y-147025000D01*
X113316657Y-147057370D01*
X113250000Y-147095854D01*
X113250000Y-146047768D01*
X113249999Y-146047768D01*
X113183875Y-146058241D01*
X112981784Y-146123903D01*
X112792442Y-146220379D01*
X112620540Y-146345272D01*
X112620535Y-146345276D01*
X112470276Y-146495535D01*
X112470272Y-146495540D01*
X112350627Y-146660218D01*
X112295297Y-146702884D01*
X112225684Y-146708863D01*
X112163889Y-146676257D01*
X112149991Y-146660218D01*
X112030109Y-146495214D01*
X112030105Y-146495209D01*
X111879786Y-146344890D01*
X111707820Y-146219951D01*
X111518414Y-146123444D01*
X111518413Y-146123443D01*
X111518412Y-146123443D01*
X111316243Y-146057754D01*
X111316241Y-146057753D01*
X111316240Y-146057753D01*
X111154957Y-146032208D01*
X111106287Y-146024500D01*
X110893713Y-146024500D01*
X110845042Y-146032208D01*
X110683760Y-146057753D01*
X110481585Y-146123444D01*
X110292179Y-146219951D01*
X110120215Y-146344889D01*
X109981398Y-146483706D01*
X109920075Y-146517190D01*
X109850383Y-146512206D01*
X109794450Y-146470334D01*
X109788178Y-146461120D01*
X109692712Y-146306344D01*
X109568655Y-146182287D01*
X109559402Y-146176580D01*
X109512678Y-146124632D01*
X109500500Y-146071042D01*
X109500500Y-141428957D01*
X109520185Y-141361918D01*
X109559407Y-141323416D01*
X109568656Y-141317712D01*
X109692712Y-141193656D01*
X109784814Y-141044334D01*
X109784814Y-141044331D01*
X109788178Y-141038879D01*
X109840126Y-140992154D01*
X109909088Y-140980931D01*
X109973170Y-141008774D01*
X109981398Y-141016294D01*
X110120213Y-141155109D01*
X110292179Y-141280048D01*
X110292181Y-141280049D01*
X110292184Y-141280051D01*
X110481588Y-141376557D01*
X110683757Y-141442246D01*
X110893713Y-141475500D01*
X110893714Y-141475500D01*
X111106286Y-141475500D01*
X111106287Y-141475500D01*
X111316243Y-141442246D01*
X111518412Y-141376557D01*
X111707816Y-141280051D01*
X111729789Y-141264086D01*
X111879786Y-141155109D01*
X111879788Y-141155106D01*
X111879792Y-141155104D01*
X112030104Y-141004792D01*
X112149991Y-140839779D01*
X112205320Y-140797115D01*
X112274933Y-140791136D01*
X112336729Y-140823741D01*
X112350627Y-140839781D01*
X112470272Y-141004459D01*
X112470276Y-141004464D01*
X112620535Y-141154723D01*
X112620540Y-141154727D01*
X112792442Y-141279620D01*
X112981782Y-141376095D01*
X113183871Y-141441757D01*
X113250000Y-141452231D01*
X113250000Y-140404145D01*
X113316657Y-140442630D01*
X113437465Y-140475000D01*
X113562535Y-140475000D01*
X113683343Y-140442630D01*
X113750000Y-140404145D01*
X113750000Y-141452230D01*
X113816126Y-141441757D01*
X113816129Y-141441757D01*
X114018217Y-141376095D01*
X114207557Y-141279620D01*
X114379459Y-141154727D01*
X114379464Y-141154723D01*
X114529723Y-141004464D01*
X114529727Y-141004459D01*
X114654620Y-140832557D01*
X114751095Y-140643217D01*
X114816757Y-140441130D01*
X114816757Y-140441127D01*
X114847030Y-140250000D01*
X113904146Y-140250000D01*
X113942630Y-140183343D01*
X113975000Y-140062535D01*
X113975000Y-139937465D01*
X113942630Y-139816657D01*
X113904146Y-139750000D01*
X114847030Y-139750000D01*
X114816757Y-139558872D01*
X114816757Y-139558869D01*
X114751095Y-139356782D01*
X114654620Y-139167442D01*
X114529727Y-138995540D01*
X114529723Y-138995535D01*
X114379464Y-138845276D01*
X114379459Y-138845272D01*
X114207557Y-138720379D01*
X114018215Y-138623903D01*
X113816124Y-138558241D01*
X113750000Y-138547768D01*
X113750000Y-139595854D01*
X113683343Y-139557370D01*
X113562535Y-139525000D01*
X113437465Y-139525000D01*
X113316657Y-139557370D01*
X113250000Y-139595854D01*
X113250000Y-138547768D01*
X113249999Y-138547768D01*
X113183875Y-138558241D01*
X112981784Y-138623903D01*
X112792442Y-138720379D01*
X112620540Y-138845272D01*
X112620535Y-138845276D01*
X112470276Y-138995535D01*
X112470272Y-138995540D01*
X112350627Y-139160218D01*
X112295297Y-139202884D01*
X112225684Y-139208863D01*
X112163889Y-139176257D01*
X112149991Y-139160218D01*
X112030109Y-138995214D01*
X112030105Y-138995209D01*
X111879786Y-138844890D01*
X111707820Y-138719951D01*
X111518414Y-138623444D01*
X111518413Y-138623443D01*
X111518412Y-138623443D01*
X111316243Y-138557754D01*
X111316241Y-138557753D01*
X111316240Y-138557753D01*
X111154957Y-138532208D01*
X111106287Y-138524500D01*
X110893713Y-138524500D01*
X110845042Y-138532208D01*
X110683760Y-138557753D01*
X110481585Y-138623444D01*
X110292179Y-138719951D01*
X110120215Y-138844889D01*
X109981398Y-138983706D01*
X109920075Y-139017190D01*
X109850383Y-139012206D01*
X109794450Y-138970334D01*
X109788178Y-138961120D01*
X109692712Y-138806344D01*
X109568655Y-138682287D01*
X109559402Y-138676580D01*
X109512678Y-138624632D01*
X109500500Y-138571042D01*
X109500500Y-133928957D01*
X109520185Y-133861918D01*
X109559407Y-133823416D01*
X109568656Y-133817712D01*
X109692712Y-133693656D01*
X109784814Y-133544334D01*
X109784814Y-133544331D01*
X109788178Y-133538879D01*
X109840126Y-133492154D01*
X109909088Y-133480931D01*
X109973170Y-133508774D01*
X109981398Y-133516294D01*
X110120213Y-133655109D01*
X110292179Y-133780048D01*
X110292181Y-133780049D01*
X110292184Y-133780051D01*
X110481588Y-133876557D01*
X110683757Y-133942246D01*
X110893713Y-133975500D01*
X110893714Y-133975500D01*
X111106286Y-133975500D01*
X111106287Y-133975500D01*
X111316243Y-133942246D01*
X111518412Y-133876557D01*
X111707816Y-133780051D01*
X111729789Y-133764086D01*
X111879786Y-133655109D01*
X111879788Y-133655106D01*
X111879792Y-133655104D01*
X112030104Y-133504792D01*
X112149991Y-133339779D01*
X112205320Y-133297115D01*
X112274933Y-133291136D01*
X112336729Y-133323741D01*
X112350627Y-133339781D01*
X112470272Y-133504459D01*
X112470276Y-133504464D01*
X112620535Y-133654723D01*
X112620540Y-133654727D01*
X112792442Y-133779620D01*
X112981782Y-133876095D01*
X113183871Y-133941757D01*
X113250000Y-133952231D01*
X113250000Y-132904145D01*
X113316657Y-132942630D01*
X113437465Y-132975000D01*
X113562535Y-132975000D01*
X113683343Y-132942630D01*
X113750000Y-132904145D01*
X113750000Y-133952230D01*
X113816126Y-133941757D01*
X113816129Y-133941757D01*
X114018217Y-133876095D01*
X114207557Y-133779620D01*
X114379459Y-133654727D01*
X114379464Y-133654723D01*
X114529723Y-133504464D01*
X114529727Y-133504459D01*
X114654620Y-133332557D01*
X114751095Y-133143217D01*
X114816757Y-132941130D01*
X114816757Y-132941127D01*
X114847030Y-132750000D01*
X113904146Y-132750000D01*
X113942630Y-132683343D01*
X113975000Y-132562535D01*
X113975000Y-132437465D01*
X113942630Y-132316657D01*
X113904146Y-132250000D01*
X114847030Y-132250000D01*
X114816757Y-132058872D01*
X114816757Y-132058869D01*
X114751095Y-131856782D01*
X114654620Y-131667442D01*
X114529727Y-131495540D01*
X114529723Y-131495535D01*
X114379464Y-131345276D01*
X114379459Y-131345272D01*
X114207557Y-131220379D01*
X114018215Y-131123903D01*
X113816124Y-131058241D01*
X113750000Y-131047768D01*
X113750000Y-132095854D01*
X113683343Y-132057370D01*
X113562535Y-132025000D01*
X113437465Y-132025000D01*
X113316657Y-132057370D01*
X113250000Y-132095854D01*
X113250000Y-131047768D01*
X113249999Y-131047768D01*
X113183875Y-131058241D01*
X112981784Y-131123903D01*
X112792442Y-131220379D01*
X112620540Y-131345272D01*
X112620535Y-131345276D01*
X112470276Y-131495535D01*
X112470272Y-131495540D01*
X112350627Y-131660218D01*
X112295297Y-131702884D01*
X112225684Y-131708863D01*
X112163889Y-131676257D01*
X112149991Y-131660218D01*
X112030109Y-131495214D01*
X112030105Y-131495209D01*
X111879786Y-131344890D01*
X111707820Y-131219951D01*
X111518414Y-131123444D01*
X111518413Y-131123443D01*
X111518412Y-131123443D01*
X111316243Y-131057754D01*
X111316241Y-131057753D01*
X111316240Y-131057753D01*
X111154957Y-131032208D01*
X111106287Y-131024500D01*
X110893713Y-131024500D01*
X110845042Y-131032208D01*
X110683760Y-131057753D01*
X110481585Y-131123444D01*
X110292179Y-131219951D01*
X110120215Y-131344889D01*
X109981398Y-131483706D01*
X109920075Y-131517190D01*
X109850383Y-131512206D01*
X109794450Y-131470334D01*
X109788178Y-131461120D01*
X109692712Y-131306344D01*
X109568655Y-131182287D01*
X109559402Y-131176580D01*
X109512678Y-131124632D01*
X109500500Y-131071042D01*
X109500500Y-126428957D01*
X109520185Y-126361918D01*
X109559407Y-126323416D01*
X109568656Y-126317712D01*
X109692712Y-126193656D01*
X109784814Y-126044334D01*
X109784814Y-126044331D01*
X109788178Y-126038879D01*
X109840126Y-125992154D01*
X109909088Y-125980931D01*
X109973170Y-126008774D01*
X109981398Y-126016294D01*
X110120213Y-126155109D01*
X110292179Y-126280048D01*
X110292181Y-126280049D01*
X110292184Y-126280051D01*
X110481588Y-126376557D01*
X110683757Y-126442246D01*
X110893713Y-126475500D01*
X110893714Y-126475500D01*
X111106286Y-126475500D01*
X111106287Y-126475500D01*
X111316243Y-126442246D01*
X111518412Y-126376557D01*
X111707816Y-126280051D01*
X111729789Y-126264086D01*
X111879786Y-126155109D01*
X111879788Y-126155106D01*
X111879792Y-126155104D01*
X112030104Y-126004792D01*
X112149991Y-125839779D01*
X112205320Y-125797115D01*
X112274933Y-125791136D01*
X112336729Y-125823741D01*
X112350627Y-125839781D01*
X112470272Y-126004459D01*
X112470276Y-126004464D01*
X112620535Y-126154723D01*
X112620540Y-126154727D01*
X112792442Y-126279620D01*
X112981782Y-126376095D01*
X113183871Y-126441757D01*
X113250000Y-126452231D01*
X113250000Y-125404145D01*
X113316657Y-125442630D01*
X113437465Y-125475000D01*
X113562535Y-125475000D01*
X113683343Y-125442630D01*
X113750000Y-125404145D01*
X113750000Y-126452230D01*
X113816126Y-126441757D01*
X113816129Y-126441757D01*
X114018217Y-126376095D01*
X114207557Y-126279620D01*
X114379459Y-126154727D01*
X114379464Y-126154723D01*
X114529723Y-126004464D01*
X114529727Y-126004459D01*
X114654620Y-125832557D01*
X114751095Y-125643217D01*
X114816757Y-125441130D01*
X114816757Y-125441127D01*
X114847030Y-125250000D01*
X113904146Y-125250000D01*
X113942630Y-125183343D01*
X113975000Y-125062535D01*
X113975000Y-124937465D01*
X113942630Y-124816657D01*
X113904146Y-124750000D01*
X114847030Y-124750000D01*
X114816757Y-124558872D01*
X114816757Y-124558869D01*
X114751095Y-124356782D01*
X114654620Y-124167442D01*
X114529727Y-123995540D01*
X114529723Y-123995535D01*
X114379464Y-123845276D01*
X114379459Y-123845272D01*
X114207557Y-123720379D01*
X114018215Y-123623903D01*
X113816124Y-123558241D01*
X113750000Y-123547768D01*
X113750000Y-124595854D01*
X113683343Y-124557370D01*
X113562535Y-124525000D01*
X113437465Y-124525000D01*
X113316657Y-124557370D01*
X113250000Y-124595854D01*
X113250000Y-123547768D01*
X113249999Y-123547768D01*
X113183875Y-123558241D01*
X112981784Y-123623903D01*
X112792442Y-123720379D01*
X112620540Y-123845272D01*
X112620535Y-123845276D01*
X112470276Y-123995535D01*
X112470272Y-123995540D01*
X112350627Y-124160218D01*
X112295297Y-124202884D01*
X112225684Y-124208863D01*
X112163889Y-124176257D01*
X112149991Y-124160218D01*
X112030109Y-123995214D01*
X112030105Y-123995209D01*
X111879786Y-123844890D01*
X111707820Y-123719951D01*
X111518414Y-123623444D01*
X111518413Y-123623443D01*
X111518412Y-123623443D01*
X111316243Y-123557754D01*
X111316241Y-123557753D01*
X111316240Y-123557753D01*
X111154957Y-123532208D01*
X111106287Y-123524500D01*
X110893713Y-123524500D01*
X110845042Y-123532208D01*
X110683760Y-123557753D01*
X110481585Y-123623444D01*
X110292179Y-123719951D01*
X110120215Y-123844889D01*
X109981398Y-123983706D01*
X109920075Y-124017190D01*
X109850383Y-124012206D01*
X109794450Y-123970334D01*
X109788178Y-123961120D01*
X109692712Y-123806344D01*
X109568655Y-123682287D01*
X109559402Y-123676580D01*
X109512678Y-123624632D01*
X109500500Y-123571042D01*
X109500500Y-118928957D01*
X109520185Y-118861918D01*
X109559407Y-118823416D01*
X109568656Y-118817712D01*
X109692712Y-118693656D01*
X109784814Y-118544334D01*
X109784814Y-118544331D01*
X109788178Y-118538879D01*
X109840126Y-118492154D01*
X109909088Y-118480931D01*
X109973170Y-118508774D01*
X109981398Y-118516294D01*
X110120213Y-118655109D01*
X110292179Y-118780048D01*
X110292181Y-118780049D01*
X110292184Y-118780051D01*
X110481588Y-118876557D01*
X110683757Y-118942246D01*
X110893713Y-118975500D01*
X110893714Y-118975500D01*
X111106286Y-118975500D01*
X111106287Y-118975500D01*
X111316243Y-118942246D01*
X111518412Y-118876557D01*
X111707816Y-118780051D01*
X111762880Y-118740045D01*
X111879786Y-118655109D01*
X111879788Y-118655106D01*
X111879792Y-118655104D01*
X112030104Y-118504792D01*
X112149991Y-118339779D01*
X112205320Y-118297115D01*
X112274933Y-118291136D01*
X112336729Y-118323741D01*
X112350627Y-118339781D01*
X112470272Y-118504459D01*
X112470276Y-118504464D01*
X112620535Y-118654723D01*
X112620540Y-118654727D01*
X112792442Y-118779620D01*
X112981782Y-118876095D01*
X113183871Y-118941757D01*
X113250000Y-118952231D01*
X113250000Y-117904145D01*
X113316657Y-117942630D01*
X113437465Y-117975000D01*
X113562535Y-117975000D01*
X113683343Y-117942630D01*
X113750000Y-117904145D01*
X113750000Y-118952230D01*
X113816126Y-118941757D01*
X113816129Y-118941757D01*
X114018217Y-118876095D01*
X114207557Y-118779620D01*
X114379459Y-118654727D01*
X114379464Y-118654723D01*
X114529723Y-118504464D01*
X114529727Y-118504459D01*
X114654620Y-118332557D01*
X114751095Y-118143217D01*
X114816757Y-117941130D01*
X114816757Y-117941127D01*
X114847030Y-117750000D01*
X113904146Y-117750000D01*
X113942630Y-117683343D01*
X113975000Y-117562535D01*
X113975000Y-117437465D01*
X113942630Y-117316657D01*
X113904146Y-117250000D01*
X114847030Y-117250000D01*
X114816757Y-117058872D01*
X114816757Y-117058869D01*
X114751095Y-116856782D01*
X114654620Y-116667442D01*
X114529727Y-116495540D01*
X114529723Y-116495535D01*
X114379464Y-116345276D01*
X114379459Y-116345272D01*
X114207557Y-116220379D01*
X114018215Y-116123903D01*
X113816124Y-116058241D01*
X113750000Y-116047768D01*
X113750000Y-117095854D01*
X113683343Y-117057370D01*
X113562535Y-117025000D01*
X113437465Y-117025000D01*
X113316657Y-117057370D01*
X113250000Y-117095854D01*
X113250000Y-116047768D01*
X113249999Y-116047768D01*
X113183875Y-116058241D01*
X112981784Y-116123903D01*
X112792442Y-116220379D01*
X112620540Y-116345272D01*
X112620535Y-116345276D01*
X112470276Y-116495535D01*
X112470272Y-116495540D01*
X112350627Y-116660218D01*
X112295297Y-116702884D01*
X112225684Y-116708863D01*
X112163889Y-116676257D01*
X112149991Y-116660218D01*
X112030109Y-116495214D01*
X112030105Y-116495209D01*
X111879786Y-116344890D01*
X111707820Y-116219951D01*
X111518414Y-116123444D01*
X111518413Y-116123443D01*
X111518412Y-116123443D01*
X111316243Y-116057754D01*
X111316241Y-116057753D01*
X111316240Y-116057753D01*
X111154957Y-116032208D01*
X111106287Y-116024500D01*
X110893713Y-116024500D01*
X110845042Y-116032208D01*
X110683760Y-116057753D01*
X110481585Y-116123444D01*
X110292179Y-116219951D01*
X110120215Y-116344889D01*
X109981398Y-116483706D01*
X109920075Y-116517190D01*
X109850383Y-116512206D01*
X109794450Y-116470334D01*
X109788178Y-116461120D01*
X109692712Y-116306344D01*
X109568655Y-116182287D01*
X109559402Y-116176580D01*
X109512678Y-116124632D01*
X109500500Y-116071042D01*
X109500500Y-111428957D01*
X109520185Y-111361918D01*
X109559407Y-111323416D01*
X109568656Y-111317712D01*
X109692712Y-111193656D01*
X109784814Y-111044334D01*
X109784814Y-111044331D01*
X109788178Y-111038879D01*
X109840126Y-110992154D01*
X109909088Y-110980931D01*
X109973170Y-111008774D01*
X109981398Y-111016294D01*
X110120213Y-111155109D01*
X110292179Y-111280048D01*
X110292181Y-111280049D01*
X110292184Y-111280051D01*
X110481588Y-111376557D01*
X110683757Y-111442246D01*
X110893713Y-111475500D01*
X110893714Y-111475500D01*
X111106286Y-111475500D01*
X111106287Y-111475500D01*
X111316243Y-111442246D01*
X111518412Y-111376557D01*
X111707816Y-111280051D01*
X111729789Y-111264086D01*
X111879786Y-111155109D01*
X111879788Y-111155106D01*
X111879792Y-111155104D01*
X112030104Y-111004792D01*
X112149991Y-110839779D01*
X112205320Y-110797115D01*
X112274933Y-110791136D01*
X112336729Y-110823741D01*
X112350627Y-110839781D01*
X112470272Y-111004459D01*
X112470276Y-111004464D01*
X112620535Y-111154723D01*
X112620540Y-111154727D01*
X112792442Y-111279620D01*
X112981782Y-111376095D01*
X113183871Y-111441757D01*
X113250000Y-111452231D01*
X113250000Y-110404145D01*
X113316657Y-110442630D01*
X113437465Y-110475000D01*
X113562535Y-110475000D01*
X113683343Y-110442630D01*
X113750000Y-110404145D01*
X113750000Y-111452230D01*
X113816126Y-111441757D01*
X113816129Y-111441757D01*
X114018217Y-111376095D01*
X114207557Y-111279620D01*
X114379459Y-111154727D01*
X114379464Y-111154723D01*
X114529723Y-111004464D01*
X114529727Y-111004459D01*
X114654620Y-110832557D01*
X114751095Y-110643217D01*
X114816757Y-110441130D01*
X114816757Y-110441127D01*
X114847030Y-110250000D01*
X113904146Y-110250000D01*
X113942630Y-110183343D01*
X113975000Y-110062535D01*
X113975000Y-109937465D01*
X113942630Y-109816657D01*
X113904146Y-109750000D01*
X114847030Y-109750000D01*
X114816757Y-109558872D01*
X114816757Y-109558869D01*
X114751095Y-109356782D01*
X114654620Y-109167442D01*
X114529727Y-108995540D01*
X114529723Y-108995535D01*
X114379464Y-108845276D01*
X114379459Y-108845272D01*
X114207557Y-108720379D01*
X114018215Y-108623903D01*
X113816124Y-108558241D01*
X113750000Y-108547768D01*
X113750000Y-109595854D01*
X113683343Y-109557370D01*
X113562535Y-109525000D01*
X113437465Y-109525000D01*
X113316657Y-109557370D01*
X113250000Y-109595854D01*
X113250000Y-108547768D01*
X113249999Y-108547768D01*
X113183875Y-108558241D01*
X112981784Y-108623903D01*
X112792442Y-108720379D01*
X112620540Y-108845272D01*
X112620535Y-108845276D01*
X112470276Y-108995535D01*
X112470272Y-108995540D01*
X112350627Y-109160218D01*
X112295297Y-109202884D01*
X112225684Y-109208863D01*
X112163889Y-109176257D01*
X112149991Y-109160218D01*
X112030109Y-108995214D01*
X112030105Y-108995209D01*
X111879786Y-108844890D01*
X111707820Y-108719951D01*
X111518414Y-108623444D01*
X111518413Y-108623443D01*
X111518412Y-108623443D01*
X111316243Y-108557754D01*
X111316241Y-108557753D01*
X111316240Y-108557753D01*
X111154957Y-108532208D01*
X111106287Y-108524500D01*
X110893713Y-108524500D01*
X110845042Y-108532208D01*
X110683760Y-108557753D01*
X110481585Y-108623444D01*
X110292179Y-108719951D01*
X110120215Y-108844889D01*
X109981398Y-108983706D01*
X109920075Y-109017190D01*
X109850383Y-109012206D01*
X109794450Y-108970334D01*
X109788178Y-108961120D01*
X109746322Y-108893261D01*
X109692712Y-108806344D01*
X109568656Y-108682288D01*
X109568655Y-108682287D01*
X109559402Y-108676580D01*
X109512678Y-108624632D01*
X109500500Y-108571042D01*
X109500500Y-103928957D01*
X109520185Y-103861918D01*
X109559407Y-103823416D01*
X109568656Y-103817712D01*
X109692712Y-103693656D01*
X109784814Y-103544334D01*
X109784814Y-103544331D01*
X109788178Y-103538879D01*
X109840126Y-103492154D01*
X109909088Y-103480931D01*
X109973170Y-103508774D01*
X109981398Y-103516294D01*
X110120213Y-103655109D01*
X110292179Y-103780048D01*
X110292181Y-103780049D01*
X110292184Y-103780051D01*
X110481588Y-103876557D01*
X110683757Y-103942246D01*
X110893713Y-103975500D01*
X110893714Y-103975500D01*
X111106286Y-103975500D01*
X111106287Y-103975500D01*
X111316243Y-103942246D01*
X111518412Y-103876557D01*
X111707816Y-103780051D01*
X111815059Y-103702135D01*
X111879786Y-103655109D01*
X111879788Y-103655106D01*
X111879792Y-103655104D01*
X112030104Y-103504792D01*
X112149991Y-103339779D01*
X112205320Y-103297115D01*
X112274933Y-103291136D01*
X112336729Y-103323741D01*
X112350627Y-103339781D01*
X112470272Y-103504459D01*
X112470276Y-103504464D01*
X112620535Y-103654723D01*
X112620540Y-103654727D01*
X112792442Y-103779620D01*
X112981782Y-103876095D01*
X113183871Y-103941757D01*
X113250000Y-103952231D01*
X113250000Y-102904145D01*
X113316657Y-102942630D01*
X113437465Y-102975000D01*
X113562535Y-102975000D01*
X113683343Y-102942630D01*
X113750000Y-102904145D01*
X113750000Y-103952230D01*
X113816126Y-103941757D01*
X113816129Y-103941757D01*
X114018217Y-103876095D01*
X114207557Y-103779620D01*
X114379459Y-103654727D01*
X114379464Y-103654723D01*
X114529723Y-103504464D01*
X114529727Y-103504459D01*
X114654620Y-103332557D01*
X114751095Y-103143217D01*
X114816757Y-102941130D01*
X114816757Y-102941127D01*
X114847030Y-102750000D01*
X113904146Y-102750000D01*
X113942630Y-102683343D01*
X113975000Y-102562535D01*
X113975000Y-102437465D01*
X113942630Y-102316657D01*
X113904146Y-102250000D01*
X114847030Y-102250000D01*
X114816757Y-102058872D01*
X114816757Y-102058869D01*
X114751095Y-101856782D01*
X114654620Y-101667442D01*
X114529727Y-101495540D01*
X114529723Y-101495535D01*
X114379464Y-101345276D01*
X114379459Y-101345272D01*
X114207557Y-101220379D01*
X114018215Y-101123903D01*
X113816124Y-101058241D01*
X113750000Y-101047768D01*
X113750000Y-102095854D01*
X113683343Y-102057370D01*
X113562535Y-102025000D01*
X113437465Y-102025000D01*
X113316657Y-102057370D01*
X113250000Y-102095854D01*
X113250000Y-101047768D01*
X113249999Y-101047768D01*
X113183875Y-101058241D01*
X112981784Y-101123903D01*
X112792442Y-101220379D01*
X112620540Y-101345272D01*
X112620535Y-101345276D01*
X112470276Y-101495535D01*
X112470272Y-101495540D01*
X112350627Y-101660218D01*
X112295297Y-101702884D01*
X112225684Y-101708863D01*
X112163889Y-101676257D01*
X112149991Y-101660218D01*
X112030109Y-101495214D01*
X112030105Y-101495209D01*
X111879786Y-101344890D01*
X111707820Y-101219951D01*
X111518414Y-101123444D01*
X111518413Y-101123443D01*
X111518412Y-101123443D01*
X111316243Y-101057754D01*
X111316241Y-101057753D01*
X111316240Y-101057753D01*
X111154957Y-101032208D01*
X111106287Y-101024500D01*
X110893713Y-101024500D01*
X110845042Y-101032208D01*
X110683760Y-101057753D01*
X110481585Y-101123444D01*
X110292179Y-101219951D01*
X110120215Y-101344889D01*
X109981398Y-101483706D01*
X109920075Y-101517190D01*
X109850383Y-101512206D01*
X109794450Y-101470334D01*
X109788178Y-101461120D01*
X109692712Y-101306344D01*
X109568655Y-101182287D01*
X109559402Y-101176580D01*
X109512678Y-101124632D01*
X109500500Y-101071042D01*
X109500500Y-96428957D01*
X109520185Y-96361918D01*
X109559407Y-96323416D01*
X109568656Y-96317712D01*
X109692712Y-96193656D01*
X109784814Y-96044334D01*
X109784814Y-96044331D01*
X109788178Y-96038879D01*
X109840126Y-95992154D01*
X109909088Y-95980931D01*
X109973170Y-96008774D01*
X109981398Y-96016294D01*
X110120213Y-96155109D01*
X110292179Y-96280048D01*
X110292181Y-96280049D01*
X110292184Y-96280051D01*
X110481588Y-96376557D01*
X110683757Y-96442246D01*
X110893713Y-96475500D01*
X110893714Y-96475500D01*
X111106286Y-96475500D01*
X111106287Y-96475500D01*
X111316243Y-96442246D01*
X111518412Y-96376557D01*
X111707816Y-96280051D01*
X111773591Y-96232263D01*
X111879786Y-96155109D01*
X111879788Y-96155106D01*
X111879792Y-96155104D01*
X112030104Y-96004792D01*
X112149991Y-95839779D01*
X112205320Y-95797115D01*
X112274933Y-95791136D01*
X112336729Y-95823741D01*
X112350627Y-95839781D01*
X112470272Y-96004459D01*
X112470276Y-96004464D01*
X112620535Y-96154723D01*
X112620540Y-96154727D01*
X112792442Y-96279620D01*
X112981782Y-96376095D01*
X113183871Y-96441757D01*
X113250000Y-96452231D01*
X113250000Y-95404145D01*
X113316657Y-95442630D01*
X113437465Y-95475000D01*
X113562535Y-95475000D01*
X113683343Y-95442630D01*
X113750000Y-95404145D01*
X113750000Y-96452230D01*
X113816126Y-96441757D01*
X113816129Y-96441757D01*
X114018217Y-96376095D01*
X114207557Y-96279620D01*
X114379459Y-96154727D01*
X114379464Y-96154723D01*
X114529723Y-96004464D01*
X114529727Y-96004459D01*
X114654620Y-95832557D01*
X114751095Y-95643217D01*
X114816757Y-95441130D01*
X114816757Y-95441127D01*
X114847030Y-95250000D01*
X113904146Y-95250000D01*
X113942630Y-95183343D01*
X113975000Y-95062535D01*
X113975000Y-94937465D01*
X113942630Y-94816657D01*
X113904146Y-94750000D01*
X114847030Y-94750000D01*
X114816757Y-94558872D01*
X114816757Y-94558869D01*
X114779080Y-94442910D01*
X114777085Y-94373069D01*
X114813166Y-94313236D01*
X114875867Y-94282408D01*
X114945281Y-94290373D01*
X114999370Y-94334601D01*
X115004389Y-94342578D01*
X115012478Y-94356588D01*
X115019481Y-94368717D01*
X115138349Y-94487585D01*
X115138355Y-94487590D01*
X119099084Y-98448319D01*
X119132569Y-98509642D01*
X119127585Y-98579334D01*
X119085713Y-98635267D01*
X119020249Y-98659684D01*
X119011403Y-98660000D01*
X118750000Y-98660000D01*
X118750000Y-99644314D01*
X118745606Y-99639920D01*
X118654394Y-99587259D01*
X118552661Y-99560000D01*
X118447339Y-99560000D01*
X118345606Y-99587259D01*
X118254394Y-99639920D01*
X118250000Y-99644314D01*
X118250000Y-98660000D01*
X117652155Y-98660000D01*
X117592627Y-98666401D01*
X117592620Y-98666403D01*
X117457913Y-98716645D01*
X117457906Y-98716649D01*
X117342812Y-98802809D01*
X117342809Y-98802812D01*
X117256649Y-98917906D01*
X117256645Y-98917913D01*
X117206403Y-99052620D01*
X117206401Y-99052627D01*
X117200000Y-99112155D01*
X117200000Y-99710000D01*
X118184314Y-99710000D01*
X118179920Y-99714394D01*
X118127259Y-99805606D01*
X118100000Y-99907339D01*
X118100000Y-100012661D01*
X118127259Y-100114394D01*
X118179920Y-100205606D01*
X118184314Y-100210000D01*
X117200000Y-100210000D01*
X117200000Y-100807844D01*
X117206401Y-100867372D01*
X117206403Y-100867379D01*
X117256645Y-101002086D01*
X117256649Y-101002093D01*
X117342809Y-101117187D01*
X117342812Y-101117190D01*
X117457906Y-101203350D01*
X117457913Y-101203354D01*
X117592620Y-101253596D01*
X117592627Y-101253598D01*
X117628218Y-101257425D01*
X117692769Y-101284163D01*
X117732618Y-101341555D01*
X117735111Y-101411380D01*
X117699459Y-101471469D01*
X117686088Y-101482287D01*
X117660861Y-101499951D01*
X117499954Y-101660858D01*
X117369432Y-101847265D01*
X117369431Y-101847267D01*
X117273261Y-102053502D01*
X117273258Y-102053511D01*
X117214366Y-102273302D01*
X117214364Y-102273313D01*
X117194532Y-102499998D01*
X117194532Y-102500001D01*
X117214364Y-102726686D01*
X117214366Y-102726697D01*
X117273258Y-102946488D01*
X117273261Y-102946497D01*
X117369431Y-103152732D01*
X117369432Y-103152734D01*
X117499954Y-103339141D01*
X117660858Y-103500045D01*
X117684064Y-103516294D01*
X117847266Y-103630568D01*
X117905275Y-103657618D01*
X117957714Y-103703791D01*
X117976866Y-103770984D01*
X117956650Y-103837865D01*
X117905275Y-103882382D01*
X117847267Y-103909431D01*
X117847265Y-103909432D01*
X117660858Y-104039954D01*
X117499954Y-104200858D01*
X117369432Y-104387265D01*
X117369431Y-104387267D01*
X117273261Y-104593502D01*
X117273258Y-104593511D01*
X117214366Y-104813302D01*
X117214364Y-104813313D01*
X117194532Y-105039998D01*
X117194532Y-105040001D01*
X117214364Y-105266686D01*
X117214366Y-105266697D01*
X117273258Y-105486488D01*
X117273261Y-105486497D01*
X117369431Y-105692732D01*
X117369432Y-105692734D01*
X117499954Y-105879141D01*
X117660858Y-106040045D01*
X117660861Y-106040047D01*
X117847266Y-106170568D01*
X117905275Y-106197618D01*
X117957714Y-106243791D01*
X117976866Y-106310984D01*
X117956650Y-106377865D01*
X117905275Y-106422382D01*
X117847267Y-106449431D01*
X117847265Y-106449432D01*
X117660858Y-106579954D01*
X117499954Y-106740858D01*
X117369432Y-106927265D01*
X117369431Y-106927267D01*
X117273261Y-107133502D01*
X117273258Y-107133511D01*
X117214366Y-107353302D01*
X117214364Y-107353313D01*
X117194532Y-107579998D01*
X117194532Y-107580001D01*
X117214364Y-107806686D01*
X117214366Y-107806697D01*
X117273258Y-108026488D01*
X117273261Y-108026497D01*
X117369431Y-108232732D01*
X117369432Y-108232734D01*
X117499954Y-108419141D01*
X117660858Y-108580045D01*
X117660861Y-108580047D01*
X117847266Y-108710568D01*
X117868306Y-108720379D01*
X117905275Y-108737618D01*
X117957714Y-108783791D01*
X117976866Y-108850984D01*
X117956650Y-108917865D01*
X117905275Y-108962382D01*
X117847267Y-108989431D01*
X117847265Y-108989432D01*
X117660858Y-109119954D01*
X117499954Y-109280858D01*
X117369432Y-109467265D01*
X117369431Y-109467267D01*
X117273261Y-109673502D01*
X117273258Y-109673511D01*
X117214366Y-109893302D01*
X117214364Y-109893313D01*
X117194532Y-110119998D01*
X117194532Y-110120001D01*
X117214364Y-110346686D01*
X117214366Y-110346697D01*
X117273258Y-110566488D01*
X117273261Y-110566497D01*
X117369431Y-110772732D01*
X117369432Y-110772734D01*
X117499954Y-110959141D01*
X117660858Y-111120045D01*
X117660861Y-111120047D01*
X117847266Y-111250568D01*
X117905275Y-111277618D01*
X117957714Y-111323791D01*
X117976866Y-111390984D01*
X117956650Y-111457865D01*
X117905275Y-111502382D01*
X117847267Y-111529431D01*
X117847265Y-111529432D01*
X117660858Y-111659954D01*
X117499954Y-111820858D01*
X117369432Y-112007265D01*
X117369431Y-112007267D01*
X117273261Y-112213502D01*
X117273258Y-112213511D01*
X117214366Y-112433302D01*
X117214364Y-112433313D01*
X117194532Y-112659998D01*
X117194532Y-112660001D01*
X117214364Y-112886686D01*
X117214366Y-112886697D01*
X117273258Y-113106488D01*
X117273261Y-113106497D01*
X117369431Y-113312732D01*
X117369432Y-113312734D01*
X117499954Y-113499141D01*
X117660858Y-113660045D01*
X117660861Y-113660047D01*
X117847266Y-113790568D01*
X117905275Y-113817618D01*
X117957714Y-113863791D01*
X117976866Y-113930984D01*
X117956650Y-113997865D01*
X117905275Y-114042382D01*
X117847267Y-114069431D01*
X117847265Y-114069432D01*
X117660858Y-114199954D01*
X117499954Y-114360858D01*
X117369432Y-114547265D01*
X117369431Y-114547267D01*
X117273261Y-114753502D01*
X117273258Y-114753511D01*
X117214366Y-114973302D01*
X117214364Y-114973313D01*
X117194532Y-115199998D01*
X117194532Y-115200001D01*
X117214364Y-115426686D01*
X117214366Y-115426697D01*
X117273258Y-115646488D01*
X117273261Y-115646497D01*
X117369431Y-115852732D01*
X117369432Y-115852734D01*
X117499954Y-116039141D01*
X117660858Y-116200045D01*
X117660861Y-116200047D01*
X117847266Y-116330568D01*
X117905275Y-116357618D01*
X117957714Y-116403791D01*
X117976866Y-116470984D01*
X117956650Y-116537865D01*
X117905275Y-116582382D01*
X117847267Y-116609431D01*
X117847265Y-116609432D01*
X117660858Y-116739954D01*
X117499954Y-116900858D01*
X117369432Y-117087265D01*
X117369431Y-117087267D01*
X117273261Y-117293502D01*
X117273258Y-117293511D01*
X117214366Y-117513302D01*
X117214364Y-117513313D01*
X117194532Y-117739998D01*
X117194532Y-117740001D01*
X117214364Y-117966686D01*
X117214366Y-117966697D01*
X117273258Y-118186488D01*
X117273261Y-118186497D01*
X117369431Y-118392732D01*
X117369432Y-118392734D01*
X117499954Y-118579141D01*
X117660858Y-118740045D01*
X117660861Y-118740047D01*
X117847266Y-118870568D01*
X117905275Y-118897618D01*
X117957714Y-118943791D01*
X117976866Y-119010984D01*
X117956650Y-119077865D01*
X117905275Y-119122382D01*
X117847267Y-119149431D01*
X117847265Y-119149432D01*
X117660858Y-119279954D01*
X117499954Y-119440858D01*
X117369432Y-119627265D01*
X117369431Y-119627267D01*
X117273261Y-119833502D01*
X117273258Y-119833511D01*
X117214366Y-120053302D01*
X117214364Y-120053313D01*
X117194532Y-120279998D01*
X117194532Y-120280001D01*
X117214364Y-120506686D01*
X117214366Y-120506697D01*
X117273258Y-120726488D01*
X117273261Y-120726497D01*
X117369431Y-120932732D01*
X117369432Y-120932734D01*
X117499954Y-121119141D01*
X117660858Y-121280045D01*
X117660861Y-121280047D01*
X117847266Y-121410568D01*
X118053504Y-121506739D01*
X118273308Y-121565635D01*
X118435230Y-121579801D01*
X118499998Y-121585468D01*
X118500000Y-121585468D01*
X118500002Y-121585468D01*
X118556673Y-121580509D01*
X118726692Y-121565635D01*
X118946496Y-121506739D01*
X119152734Y-121410568D01*
X119339139Y-121280047D01*
X119500047Y-121119139D01*
X119630568Y-120932734D01*
X119726739Y-120726496D01*
X119785635Y-120506692D01*
X119805468Y-120280000D01*
X119785635Y-120053308D01*
X119726739Y-119833504D01*
X119630568Y-119627266D01*
X119500047Y-119440861D01*
X119500045Y-119440858D01*
X119339141Y-119279954D01*
X119152734Y-119149432D01*
X119152728Y-119149429D01*
X119094725Y-119122382D01*
X119042285Y-119076210D01*
X119023133Y-119009017D01*
X119043348Y-118942135D01*
X119094725Y-118897618D01*
X119152734Y-118870568D01*
X119339139Y-118740047D01*
X119500047Y-118579139D01*
X119630568Y-118392734D01*
X119726739Y-118186496D01*
X119785635Y-117966692D01*
X119805468Y-117740000D01*
X119785635Y-117513308D01*
X119726739Y-117293504D01*
X119630568Y-117087266D01*
X119500047Y-116900861D01*
X119500045Y-116900858D01*
X119339141Y-116739954D01*
X119152734Y-116609432D01*
X119152728Y-116609429D01*
X119094725Y-116582382D01*
X119042285Y-116536210D01*
X119023133Y-116469017D01*
X119043348Y-116402135D01*
X119094725Y-116357618D01*
X119152734Y-116330568D01*
X119339139Y-116200047D01*
X119500047Y-116039139D01*
X119630568Y-115852734D01*
X119726739Y-115646496D01*
X119785635Y-115426692D01*
X119805468Y-115200000D01*
X119785635Y-114973308D01*
X119726739Y-114753504D01*
X119630568Y-114547266D01*
X119500047Y-114360861D01*
X119500045Y-114360858D01*
X119339141Y-114199954D01*
X119152734Y-114069432D01*
X119152728Y-114069429D01*
X119094725Y-114042382D01*
X119042285Y-113996210D01*
X119023133Y-113929017D01*
X119043348Y-113862135D01*
X119094725Y-113817618D01*
X119152734Y-113790568D01*
X119339139Y-113660047D01*
X119500047Y-113499139D01*
X119630568Y-113312734D01*
X119726739Y-113106496D01*
X119785635Y-112886692D01*
X119805468Y-112660000D01*
X119785635Y-112433308D01*
X119726739Y-112213504D01*
X119630568Y-112007266D01*
X119500047Y-111820861D01*
X119500045Y-111820858D01*
X119339141Y-111659954D01*
X119152734Y-111529432D01*
X119152728Y-111529429D01*
X119094725Y-111502382D01*
X119042285Y-111456210D01*
X119023133Y-111389017D01*
X119043348Y-111322135D01*
X119094725Y-111277618D01*
X119152734Y-111250568D01*
X119339139Y-111120047D01*
X119500047Y-110959139D01*
X119630568Y-110772734D01*
X119726739Y-110566496D01*
X119785635Y-110346692D01*
X119805468Y-110120000D01*
X119785635Y-109893308D01*
X119726739Y-109673504D01*
X119630568Y-109467266D01*
X119500047Y-109280861D01*
X119500045Y-109280858D01*
X119339141Y-109119954D01*
X119152734Y-108989432D01*
X119152728Y-108989429D01*
X119094725Y-108962382D01*
X119042285Y-108916210D01*
X119023133Y-108849017D01*
X119043348Y-108782135D01*
X119094725Y-108737618D01*
X119152734Y-108710568D01*
X119339139Y-108580047D01*
X119500047Y-108419139D01*
X119630568Y-108232734D01*
X119726739Y-108026496D01*
X119785635Y-107806692D01*
X119805468Y-107580000D01*
X119785635Y-107353308D01*
X119726739Y-107133504D01*
X119630568Y-106927266D01*
X119500047Y-106740861D01*
X119500045Y-106740858D01*
X119339141Y-106579954D01*
X119152734Y-106449432D01*
X119152728Y-106449429D01*
X119094725Y-106422382D01*
X119042285Y-106376210D01*
X119023133Y-106309017D01*
X119043348Y-106242135D01*
X119094725Y-106197618D01*
X119152734Y-106170568D01*
X119339139Y-106040047D01*
X119500047Y-105879139D01*
X119630568Y-105692734D01*
X119726739Y-105486496D01*
X119785635Y-105266692D01*
X119805468Y-105040000D01*
X119785635Y-104813308D01*
X119726739Y-104593504D01*
X119630568Y-104387266D01*
X119532839Y-104247693D01*
X119500045Y-104200858D01*
X119339141Y-104039954D01*
X119152734Y-103909432D01*
X119152728Y-103909429D01*
X119094725Y-103882382D01*
X119042285Y-103836210D01*
X119023133Y-103769017D01*
X119043348Y-103702135D01*
X119094725Y-103657618D01*
X119152734Y-103630568D01*
X119227075Y-103578513D01*
X119293278Y-103556187D01*
X119361045Y-103573197D01*
X119408858Y-103624144D01*
X119417970Y-103647993D01*
X119430206Y-103693657D01*
X119440424Y-103731788D01*
X119453460Y-103754366D01*
X119453461Y-103754368D01*
X119519475Y-103868709D01*
X119519481Y-103868717D01*
X119638349Y-103987585D01*
X119638354Y-103987589D01*
X126251284Y-110600520D01*
X126251286Y-110600521D01*
X126251290Y-110600524D01*
X126388209Y-110679573D01*
X126388216Y-110679577D01*
X126540943Y-110720501D01*
X126540945Y-110720501D01*
X126706654Y-110720501D01*
X126706670Y-110720500D01*
X127417588Y-110720500D01*
X127484627Y-110740185D01*
X127494903Y-110747555D01*
X127497736Y-110749814D01*
X127497738Y-110749816D01*
X127573014Y-110797115D01*
X127629831Y-110832816D01*
X127650478Y-110845789D01*
X127820745Y-110905368D01*
X127820750Y-110905369D01*
X127999996Y-110925565D01*
X128000000Y-110925565D01*
X128000004Y-110925565D01*
X128179249Y-110905369D01*
X128179252Y-110905368D01*
X128179255Y-110905368D01*
X128349522Y-110845789D01*
X128502262Y-110749816D01*
X128629816Y-110622262D01*
X128725789Y-110469522D01*
X128785368Y-110299255D01*
X128805565Y-110120000D01*
X128799090Y-110062535D01*
X128785369Y-109940750D01*
X128785368Y-109940745D01*
X128725788Y-109770476D01*
X128686582Y-109708080D01*
X128629816Y-109617738D01*
X128584759Y-109572681D01*
X128551274Y-109511358D01*
X128556258Y-109441666D01*
X128584759Y-109397319D01*
X128629816Y-109352262D01*
X128725789Y-109199522D01*
X128785368Y-109029255D01*
X128785369Y-109029249D01*
X128805565Y-108850003D01*
X128805565Y-108849996D01*
X128785369Y-108670750D01*
X128785368Y-108670745D01*
X128742336Y-108547768D01*
X128725789Y-108500478D01*
X128629816Y-108347738D01*
X128584759Y-108302681D01*
X128551274Y-108241358D01*
X128556258Y-108171666D01*
X128584759Y-108127319D01*
X128629816Y-108082262D01*
X128725789Y-107929522D01*
X128785368Y-107759255D01*
X128805565Y-107580000D01*
X128785368Y-107400745D01*
X128725789Y-107230478D01*
X128629816Y-107077738D01*
X128584759Y-107032681D01*
X128551274Y-106971358D01*
X128556258Y-106901666D01*
X128584759Y-106857319D01*
X128629816Y-106812262D01*
X128725789Y-106659522D01*
X128785368Y-106489255D01*
X128789855Y-106449431D01*
X128805565Y-106310003D01*
X128805565Y-106309996D01*
X128785369Y-106130750D01*
X128785368Y-106130745D01*
X128725788Y-105960476D01*
X128686582Y-105898080D01*
X128629816Y-105807738D01*
X128584759Y-105762681D01*
X128551274Y-105701358D01*
X128556258Y-105631666D01*
X128584759Y-105587319D01*
X128629816Y-105542262D01*
X128725789Y-105389522D01*
X128785368Y-105219255D01*
X128805565Y-105040000D01*
X128785368Y-104860745D01*
X128725789Y-104690478D01*
X128629816Y-104537738D01*
X128584759Y-104492681D01*
X128551274Y-104431358D01*
X128556258Y-104361666D01*
X128584759Y-104317319D01*
X128629816Y-104272262D01*
X128725789Y-104119522D01*
X128785368Y-103949255D01*
X128789855Y-103909431D01*
X128805565Y-103770003D01*
X128805565Y-103769996D01*
X128785369Y-103590750D01*
X128785368Y-103590745D01*
X128753631Y-103500045D01*
X128725789Y-103420478D01*
X128629816Y-103267738D01*
X128584759Y-103222681D01*
X128551274Y-103161358D01*
X128556258Y-103091666D01*
X128584759Y-103047319D01*
X128629816Y-103002262D01*
X128725789Y-102849522D01*
X128785368Y-102679255D01*
X128790900Y-102630156D01*
X128805565Y-102500003D01*
X128805565Y-102499996D01*
X128785369Y-102320750D01*
X128785368Y-102320745D01*
X128725788Y-102150476D01*
X128667285Y-102057370D01*
X128629816Y-101997738D01*
X128502262Y-101870184D01*
X128465787Y-101847265D01*
X128349523Y-101774211D01*
X128179254Y-101714631D01*
X128179249Y-101714630D01*
X128000004Y-101694435D01*
X127999996Y-101694435D01*
X127820750Y-101714630D01*
X127820745Y-101714631D01*
X127650476Y-101774211D01*
X127497736Y-101870185D01*
X127494903Y-101872445D01*
X127492724Y-101873334D01*
X127491842Y-101873889D01*
X127491744Y-101873734D01*
X127430217Y-101898855D01*
X127417588Y-101899500D01*
X125300097Y-101899500D01*
X125233058Y-101879815D01*
X125212416Y-101863181D01*
X123636819Y-100287584D01*
X123603334Y-100226261D01*
X123600500Y-100199903D01*
X123600500Y-100000000D01*
X130745181Y-100000000D01*
X130764447Y-100404450D01*
X130822071Y-100805231D01*
X130917531Y-101198722D01*
X130917534Y-101198733D01*
X131049956Y-101581340D01*
X131049966Y-101581365D01*
X131218168Y-101949675D01*
X131420621Y-102300335D01*
X131420627Y-102300343D01*
X131655485Y-102630154D01*
X131822985Y-102823460D01*
X133313098Y-101333347D01*
X133380076Y-101420635D01*
X133579365Y-101619924D01*
X133666650Y-101686900D01*
X132174928Y-103178622D01*
X132213676Y-103215568D01*
X132213695Y-103215585D01*
X132531968Y-103465877D01*
X132872594Y-103684782D01*
X133232485Y-103870319D01*
X133608383Y-104020806D01*
X133608395Y-104020810D01*
X133996882Y-104134880D01*
X133996899Y-104134884D01*
X134394460Y-104211508D01*
X134394472Y-104211510D01*
X134797554Y-104250000D01*
X135202446Y-104250000D01*
X135605527Y-104211510D01*
X135605539Y-104211508D01*
X136003100Y-104134884D01*
X136003117Y-104134880D01*
X136391604Y-104020810D01*
X136391616Y-104020806D01*
X136767507Y-103870322D01*
X136767511Y-103870320D01*
X137127406Y-103684782D01*
X137468031Y-103465877D01*
X137786314Y-103215578D01*
X137825069Y-103178622D01*
X136333348Y-101686901D01*
X136420635Y-101619924D01*
X136619924Y-101420635D01*
X136686901Y-101333348D01*
X138177012Y-102823459D01*
X138344512Y-102630156D01*
X138344523Y-102630143D01*
X138579372Y-102300343D01*
X138579378Y-102300335D01*
X138781831Y-101949675D01*
X138950033Y-101581365D01*
X138950043Y-101581340D01*
X139082465Y-101198733D01*
X139082468Y-101198722D01*
X139177928Y-100805231D01*
X139235552Y-100404450D01*
X139251640Y-100066726D01*
X139274493Y-100000699D01*
X139278945Y-99997197D01*
X139256523Y-99962308D01*
X139251640Y-99933273D01*
X139235552Y-99595549D01*
X139177928Y-99194768D01*
X139082468Y-98801277D01*
X139082465Y-98801266D01*
X138950043Y-98418659D01*
X138950033Y-98418634D01*
X138781831Y-98050324D01*
X138579378Y-97699664D01*
X138579372Y-97699656D01*
X138344523Y-97369856D01*
X138344512Y-97369843D01*
X138177013Y-97176538D01*
X136686900Y-98666650D01*
X136619924Y-98579365D01*
X136420635Y-98380076D01*
X136333348Y-98313098D01*
X137825070Y-96821376D01*
X137786323Y-96784431D01*
X137786304Y-96784414D01*
X137468031Y-96534122D01*
X137127406Y-96315217D01*
X136767511Y-96129679D01*
X136767507Y-96129677D01*
X136391616Y-95979193D01*
X136391604Y-95979189D01*
X136003117Y-95865119D01*
X136003100Y-95865115D01*
X135605539Y-95788491D01*
X135605527Y-95788489D01*
X135202446Y-95750000D01*
X134797554Y-95750000D01*
X134394472Y-95788489D01*
X134394460Y-95788491D01*
X133996899Y-95865115D01*
X133996882Y-95865119D01*
X133608395Y-95979189D01*
X133608383Y-95979193D01*
X133232485Y-96129680D01*
X132872594Y-96315217D01*
X132531968Y-96534122D01*
X132213685Y-96784421D01*
X132213673Y-96784432D01*
X132174929Y-96821375D01*
X132174929Y-96821376D01*
X133666651Y-98313098D01*
X133579365Y-98380076D01*
X133380076Y-98579365D01*
X133313098Y-98666651D01*
X131822986Y-97176539D01*
X131655485Y-97369845D01*
X131420627Y-97699656D01*
X131420621Y-97699664D01*
X131218168Y-98050324D01*
X131049966Y-98418634D01*
X131049956Y-98418659D01*
X130917534Y-98801266D01*
X130917531Y-98801277D01*
X130822071Y-99194768D01*
X130764447Y-99595549D01*
X130745181Y-100000000D01*
X123600500Y-100000000D01*
X123600500Y-95589059D01*
X123600501Y-95589046D01*
X123600501Y-95420945D01*
X123600501Y-95420943D01*
X123559577Y-95268215D01*
X123511988Y-95185789D01*
X123480520Y-95131284D01*
X123368716Y-95019480D01*
X123368715Y-95019479D01*
X123364385Y-95015149D01*
X123364374Y-95015139D01*
X119136819Y-90787584D01*
X119103334Y-90726261D01*
X119100500Y-90699903D01*
X119100500Y-80300097D01*
X119120185Y-80233058D01*
X119136819Y-80212416D01*
X120712416Y-78636819D01*
X120773739Y-78603334D01*
X120800097Y-78600500D01*
X123413331Y-78600500D01*
X123413347Y-78600501D01*
X123420943Y-78600501D01*
X123579054Y-78600501D01*
X123579057Y-78600501D01*
X123731785Y-78559577D01*
X123781904Y-78530639D01*
X123868716Y-78480520D01*
X123980520Y-78368716D01*
X123980520Y-78368714D01*
X123990728Y-78358507D01*
X123990730Y-78358504D01*
X124778506Y-77570728D01*
X124778511Y-77570724D01*
X124788714Y-77560520D01*
X124788716Y-77560520D01*
X124900520Y-77448716D01*
X124979577Y-77311784D01*
X125020500Y-77159057D01*
X125020500Y-75742412D01*
X125040185Y-75675373D01*
X125047555Y-75665097D01*
X125049810Y-75662267D01*
X125049816Y-75662262D01*
X125145789Y-75509522D01*
X125205368Y-75339255D01*
X125212798Y-75273313D01*
X125225565Y-75160003D01*
X125225565Y-75159996D01*
X125205369Y-74980750D01*
X125205368Y-74980745D01*
X125182522Y-74915455D01*
X125178961Y-74845676D01*
X125213690Y-74785048D01*
X125275683Y-74752821D01*
X125299564Y-74750500D01*
X126080436Y-74750500D01*
X126147475Y-74770185D01*
X126193230Y-74822989D01*
X126203174Y-74892147D01*
X126197478Y-74915455D01*
X126174631Y-74980745D01*
X126174630Y-74980750D01*
X126154435Y-75159996D01*
X126154435Y-75160003D01*
X126174630Y-75339249D01*
X126174631Y-75339254D01*
X126234211Y-75509523D01*
X126261317Y-75552661D01*
X126325240Y-75654394D01*
X126330185Y-75662263D01*
X126332445Y-75665097D01*
X126333334Y-75667275D01*
X126333889Y-75668158D01*
X126333734Y-75668255D01*
X126358855Y-75729783D01*
X126359500Y-75742412D01*
X126359500Y-92063330D01*
X126359499Y-92063348D01*
X126359499Y-92229054D01*
X126359498Y-92229054D01*
X126359499Y-92229057D01*
X126400423Y-92381785D01*
X126400424Y-92381786D01*
X126413613Y-92404632D01*
X126413614Y-92404633D01*
X126479475Y-92518709D01*
X126479481Y-92518717D01*
X126598349Y-92637585D01*
X126598355Y-92637590D01*
X127169298Y-93208533D01*
X127202783Y-93269856D01*
X127204837Y-93282330D01*
X127214630Y-93369249D01*
X127274210Y-93539521D01*
X127370184Y-93692262D01*
X127370185Y-93692263D01*
X127415241Y-93737320D01*
X127448725Y-93798643D01*
X127443740Y-93868335D01*
X127415241Y-93912680D01*
X127370184Y-93957737D01*
X127274211Y-94110476D01*
X127214631Y-94280745D01*
X127214630Y-94280750D01*
X127194435Y-94459996D01*
X127194435Y-94460003D01*
X127214630Y-94639249D01*
X127214631Y-94639254D01*
X127274211Y-94809523D01*
X127370184Y-94962262D01*
X127370185Y-94962263D01*
X127415241Y-95007320D01*
X127448725Y-95068643D01*
X127443740Y-95138335D01*
X127415241Y-95182680D01*
X127370184Y-95227737D01*
X127274211Y-95380476D01*
X127214631Y-95550745D01*
X127214630Y-95550750D01*
X127194435Y-95729996D01*
X127194435Y-95730003D01*
X127214630Y-95909249D01*
X127214631Y-95909254D01*
X127274211Y-96079523D01*
X127370184Y-96232262D01*
X127370185Y-96232263D01*
X127415241Y-96277320D01*
X127448725Y-96338643D01*
X127443740Y-96408335D01*
X127415241Y-96452680D01*
X127370184Y-96497737D01*
X127274211Y-96650476D01*
X127214631Y-96820745D01*
X127214630Y-96820750D01*
X127194435Y-96999996D01*
X127194435Y-97000003D01*
X127214630Y-97179249D01*
X127214631Y-97179254D01*
X127274211Y-97349523D01*
X127370184Y-97502262D01*
X127497738Y-97629816D01*
X127588080Y-97686582D01*
X127608887Y-97699656D01*
X127650478Y-97725789D01*
X127820745Y-97785368D01*
X127820750Y-97785369D01*
X127999996Y-97805565D01*
X128000000Y-97805565D01*
X128000004Y-97805565D01*
X128179249Y-97785369D01*
X128179252Y-97785368D01*
X128179255Y-97785368D01*
X128349522Y-97725789D01*
X128502262Y-97629816D01*
X128629816Y-97502262D01*
X128725789Y-97349522D01*
X128785368Y-97179255D01*
X128795161Y-97092329D01*
X128822226Y-97027918D01*
X128830690Y-97018543D01*
X134948713Y-90900521D01*
X134948716Y-90900520D01*
X135060520Y-90788716D01*
X135110639Y-90701904D01*
X135139577Y-90651785D01*
X135180500Y-90499058D01*
X135180500Y-90340943D01*
X135180500Y-75742412D01*
X135200185Y-75675373D01*
X135207555Y-75665097D01*
X135209810Y-75662267D01*
X135209816Y-75662262D01*
X135305789Y-75509522D01*
X135365368Y-75339255D01*
X135372798Y-75273313D01*
X135385565Y-75160003D01*
X135385565Y-75159996D01*
X135365369Y-74980750D01*
X135365368Y-74980745D01*
X135342522Y-74915455D01*
X135338961Y-74845676D01*
X135373690Y-74785048D01*
X135435683Y-74752821D01*
X135459564Y-74750500D01*
X135565890Y-74750500D01*
X135565892Y-74750500D01*
X135693186Y-74716392D01*
X135807314Y-74650500D01*
X135900500Y-74557314D01*
X135966392Y-74443186D01*
X136000500Y-74315892D01*
X136000500Y-53635962D01*
X136020185Y-53568923D01*
X136069046Y-53525053D01*
X136091970Y-53513591D01*
X136147424Y-53500500D01*
X139375500Y-53500500D01*
X139442539Y-53520185D01*
X139488294Y-53572989D01*
X139499500Y-53624500D01*
X139499500Y-99927373D01*
X139479815Y-99994412D01*
X139471757Y-100001393D01*
X139496005Y-100043392D01*
X139499500Y-100072626D01*
X139499500Y-147427373D01*
X139479815Y-147494412D01*
X139471757Y-147501393D01*
X139496005Y-147543392D01*
X139499500Y-147572626D01*
X139499500Y-151875500D01*
X139479815Y-151942539D01*
X139427011Y-151988294D01*
X139375500Y-151999500D01*
X95624500Y-151999500D01*
X95557461Y-151979815D01*
X95511706Y-151927011D01*
X95500500Y-151875500D01*
X95500500Y-147572626D01*
X95520185Y-147505587D01*
X95523400Y-147502801D01*
X95721054Y-147502801D01*
X95743477Y-147537691D01*
X95748360Y-147566726D01*
X95764447Y-147904450D01*
X95822071Y-148305231D01*
X95917531Y-148698722D01*
X95917534Y-148698733D01*
X96049956Y-149081340D01*
X96049966Y-149081365D01*
X96218168Y-149449675D01*
X96420621Y-149800335D01*
X96420627Y-149800343D01*
X96655485Y-150130154D01*
X96822985Y-150323460D01*
X98313098Y-148833347D01*
X98380076Y-148920635D01*
X98579365Y-149119924D01*
X98666650Y-149186900D01*
X97174928Y-150678622D01*
X97213676Y-150715568D01*
X97213695Y-150715585D01*
X97531968Y-150965877D01*
X97872594Y-151184782D01*
X98232485Y-151370319D01*
X98608383Y-151520806D01*
X98608395Y-151520810D01*
X98996882Y-151634880D01*
X98996899Y-151634884D01*
X99394460Y-151711508D01*
X99394472Y-151711510D01*
X99797554Y-151750000D01*
X100202446Y-151750000D01*
X100605527Y-151711510D01*
X100605539Y-151711508D01*
X101003100Y-151634884D01*
X101003117Y-151634880D01*
X101391604Y-151520810D01*
X101391616Y-151520806D01*
X101767507Y-151370322D01*
X101767511Y-151370320D01*
X102127406Y-151184782D01*
X102468031Y-150965877D01*
X102786314Y-150715578D01*
X102825069Y-150678622D01*
X101333348Y-149186901D01*
X101420635Y-149119924D01*
X101619924Y-148920635D01*
X101686901Y-148833348D01*
X103177012Y-150323459D01*
X103344512Y-150130156D01*
X103344523Y-150130143D01*
X103579372Y-149800343D01*
X103579378Y-149800335D01*
X103781831Y-149449675D01*
X103950033Y-149081365D01*
X103950043Y-149081340D01*
X104082465Y-148698733D01*
X104082468Y-148698722D01*
X104177928Y-148305231D01*
X104235552Y-147904450D01*
X104254818Y-147500000D01*
X104235552Y-147095549D01*
X104177928Y-146694768D01*
X104082468Y-146301277D01*
X104082465Y-146301266D01*
X103950043Y-145918659D01*
X103950033Y-145918634D01*
X103781831Y-145550324D01*
X103579378Y-145199664D01*
X103579372Y-145199656D01*
X103344523Y-144869856D01*
X103344512Y-144869843D01*
X103177013Y-144676538D01*
X101686900Y-146166650D01*
X101619924Y-146079365D01*
X101420635Y-145880076D01*
X101333348Y-145813098D01*
X102825070Y-144321376D01*
X102786323Y-144284431D01*
X102786304Y-144284414D01*
X102468031Y-144034122D01*
X102127406Y-143815217D01*
X101767511Y-143629679D01*
X101767507Y-143629677D01*
X101391616Y-143479193D01*
X101391604Y-143479189D01*
X101003117Y-143365119D01*
X101003100Y-143365115D01*
X100605539Y-143288491D01*
X100605527Y-143288489D01*
X100202446Y-143250000D01*
X99797554Y-143250000D01*
X99394472Y-143288489D01*
X99394460Y-143288491D01*
X98996899Y-143365115D01*
X98996882Y-143365119D01*
X98608395Y-143479189D01*
X98608383Y-143479193D01*
X98232485Y-143629680D01*
X97872594Y-143815217D01*
X97531968Y-144034122D01*
X97213685Y-144284421D01*
X97213673Y-144284432D01*
X97174929Y-144321375D01*
X97174929Y-144321376D01*
X98666651Y-145813098D01*
X98579365Y-145880076D01*
X98380076Y-146079365D01*
X98313098Y-146166651D01*
X96822986Y-144676539D01*
X96655485Y-144869845D01*
X96420627Y-145199656D01*
X96420621Y-145199664D01*
X96218168Y-145550324D01*
X96049966Y-145918634D01*
X96049956Y-145918659D01*
X95917534Y-146301266D01*
X95917531Y-146301277D01*
X95822071Y-146694768D01*
X95764447Y-147095549D01*
X95748360Y-147433273D01*
X95725507Y-147499300D01*
X95721054Y-147502801D01*
X95523400Y-147502801D01*
X95528242Y-147498605D01*
X95503995Y-147456607D01*
X95500500Y-147427373D01*
X95500500Y-100072626D01*
X95520185Y-100005587D01*
X95523400Y-100002801D01*
X95721054Y-100002801D01*
X95743477Y-100037691D01*
X95748360Y-100066726D01*
X95764447Y-100404450D01*
X95822071Y-100805231D01*
X95917531Y-101198722D01*
X95917534Y-101198733D01*
X96049956Y-101581340D01*
X96049966Y-101581365D01*
X96218168Y-101949675D01*
X96420621Y-102300335D01*
X96420627Y-102300343D01*
X96655485Y-102630154D01*
X96822985Y-102823460D01*
X98313098Y-101333347D01*
X98380076Y-101420635D01*
X98579365Y-101619924D01*
X98666650Y-101686900D01*
X97174928Y-103178622D01*
X97213676Y-103215568D01*
X97213695Y-103215585D01*
X97531968Y-103465877D01*
X97872594Y-103684782D01*
X98232485Y-103870319D01*
X98608383Y-104020806D01*
X98608395Y-104020810D01*
X98996882Y-104134880D01*
X98996899Y-104134884D01*
X99394460Y-104211508D01*
X99394472Y-104211510D01*
X99797554Y-104250000D01*
X100202446Y-104250000D01*
X100605527Y-104211510D01*
X100605539Y-104211508D01*
X101003100Y-104134884D01*
X101003117Y-104134880D01*
X101391604Y-104020810D01*
X101391616Y-104020806D01*
X101767507Y-103870322D01*
X101767511Y-103870320D01*
X102127406Y-103684782D01*
X102468031Y-103465877D01*
X102786314Y-103215578D01*
X102825069Y-103178622D01*
X101333348Y-101686901D01*
X101420635Y-101619924D01*
X101619924Y-101420635D01*
X101686901Y-101333348D01*
X103177012Y-102823459D01*
X103344512Y-102630156D01*
X103344523Y-102630143D01*
X103579372Y-102300343D01*
X103579378Y-102300335D01*
X103781831Y-101949675D01*
X103950033Y-101581365D01*
X103950043Y-101581340D01*
X104082465Y-101198733D01*
X104082468Y-101198722D01*
X104177928Y-100805231D01*
X104235552Y-100404450D01*
X104254818Y-100000000D01*
X104235552Y-99595549D01*
X104177928Y-99194768D01*
X104082468Y-98801277D01*
X104082465Y-98801266D01*
X103950043Y-98418659D01*
X103950033Y-98418634D01*
X103781831Y-98050324D01*
X103579378Y-97699664D01*
X103579372Y-97699656D01*
X103344523Y-97369856D01*
X103344512Y-97369843D01*
X103177013Y-97176538D01*
X101686900Y-98666650D01*
X101619924Y-98579365D01*
X101420635Y-98380076D01*
X101333348Y-98313098D01*
X102825070Y-96821376D01*
X102786323Y-96784431D01*
X102786304Y-96784414D01*
X102468031Y-96534122D01*
X102127406Y-96315217D01*
X101767511Y-96129679D01*
X101767507Y-96129677D01*
X101391616Y-95979193D01*
X101391604Y-95979189D01*
X101003117Y-95865119D01*
X101003100Y-95865115D01*
X100605539Y-95788491D01*
X100605527Y-95788489D01*
X100202446Y-95750000D01*
X99797554Y-95750000D01*
X99394472Y-95788489D01*
X99394460Y-95788491D01*
X98996899Y-95865115D01*
X98996882Y-95865119D01*
X98608395Y-95979189D01*
X98608383Y-95979193D01*
X98232485Y-96129680D01*
X97872594Y-96315217D01*
X97531968Y-96534122D01*
X97213685Y-96784421D01*
X97213673Y-96784432D01*
X97174929Y-96821375D01*
X97174929Y-96821376D01*
X98666651Y-98313098D01*
X98579365Y-98380076D01*
X98380076Y-98579365D01*
X98313098Y-98666651D01*
X96822986Y-97176539D01*
X96655485Y-97369845D01*
X96420627Y-97699656D01*
X96420621Y-97699664D01*
X96218168Y-98050324D01*
X96049966Y-98418634D01*
X96049956Y-98418659D01*
X95917534Y-98801266D01*
X95917531Y-98801277D01*
X95822071Y-99194768D01*
X95764447Y-99595549D01*
X95748360Y-99933273D01*
X95725507Y-99999300D01*
X95721054Y-100002801D01*
X95523400Y-100002801D01*
X95528242Y-99998605D01*
X95503995Y-99956607D01*
X95500500Y-99927373D01*
X95500500Y-79999998D01*
X100194532Y-79999998D01*
X100194532Y-80000001D01*
X100214364Y-80226686D01*
X100214366Y-80226697D01*
X100273258Y-80446488D01*
X100273261Y-80446497D01*
X100369431Y-80652732D01*
X100369432Y-80652734D01*
X100499954Y-80839141D01*
X100660858Y-81000045D01*
X100660861Y-81000047D01*
X100847266Y-81130568D01*
X101053504Y-81226739D01*
X101273308Y-81285635D01*
X101435230Y-81299801D01*
X101499998Y-81305468D01*
X101500000Y-81305468D01*
X101500002Y-81305468D01*
X101556673Y-81300509D01*
X101726692Y-81285635D01*
X101946496Y-81226739D01*
X102152734Y-81130568D01*
X102339139Y-81000047D01*
X102500047Y-80839139D01*
X102630568Y-80652734D01*
X102726739Y-80446496D01*
X102785635Y-80226692D01*
X102805468Y-80000000D01*
X102785635Y-79773308D01*
X102726739Y-79553504D01*
X102630568Y-79347266D01*
X102500047Y-79160861D01*
X102500045Y-79160858D01*
X102339141Y-78999954D01*
X102152734Y-78869432D01*
X102152732Y-78869431D01*
X101946497Y-78773261D01*
X101946488Y-78773258D01*
X101726697Y-78714366D01*
X101726693Y-78714365D01*
X101726692Y-78714365D01*
X101726691Y-78714364D01*
X101726686Y-78714364D01*
X101500002Y-78694532D01*
X101499998Y-78694532D01*
X101273313Y-78714364D01*
X101273302Y-78714366D01*
X101053511Y-78773258D01*
X101053502Y-78773261D01*
X100847267Y-78869431D01*
X100847265Y-78869432D01*
X100660858Y-78999954D01*
X100499954Y-79160858D01*
X100369432Y-79347265D01*
X100369431Y-79347267D01*
X100273261Y-79553502D01*
X100273258Y-79553511D01*
X100214366Y-79773302D01*
X100214364Y-79773313D01*
X100194532Y-79999998D01*
X95500500Y-79999998D01*
X95500500Y-75499998D01*
X100194532Y-75499998D01*
X100194532Y-75500001D01*
X100214364Y-75726686D01*
X100214366Y-75726697D01*
X100273258Y-75946488D01*
X100273261Y-75946497D01*
X100369431Y-76152732D01*
X100369432Y-76152734D01*
X100499954Y-76339141D01*
X100660858Y-76500045D01*
X100660861Y-76500047D01*
X100847266Y-76630568D01*
X101053504Y-76726739D01*
X101273308Y-76785635D01*
X101435230Y-76799801D01*
X101499998Y-76805468D01*
X101500000Y-76805468D01*
X101500002Y-76805468D01*
X101556673Y-76800509D01*
X101726692Y-76785635D01*
X101946496Y-76726739D01*
X102152734Y-76630568D01*
X102339139Y-76500047D01*
X102500047Y-76339139D01*
X102630568Y-76152734D01*
X102726739Y-75946496D01*
X102785635Y-75726692D01*
X102805468Y-75500000D01*
X102785635Y-75273308D01*
X102726739Y-75053504D01*
X102630568Y-74847266D01*
X102500047Y-74660861D01*
X102500045Y-74660858D01*
X102339141Y-74499954D01*
X102152734Y-74369432D01*
X102152732Y-74369431D01*
X101946497Y-74273261D01*
X101946488Y-74273258D01*
X101726697Y-74214366D01*
X101726693Y-74214365D01*
X101726692Y-74214365D01*
X101726691Y-74214364D01*
X101726686Y-74214364D01*
X101500002Y-74194532D01*
X101499998Y-74194532D01*
X101273313Y-74214364D01*
X101273302Y-74214366D01*
X101053511Y-74273258D01*
X101053502Y-74273261D01*
X100847267Y-74369431D01*
X100847265Y-74369432D01*
X100660858Y-74499954D01*
X100499954Y-74660858D01*
X100369432Y-74847265D01*
X100369431Y-74847267D01*
X100273261Y-75053502D01*
X100273258Y-75053511D01*
X100214366Y-75273302D01*
X100214364Y-75273313D01*
X100194532Y-75499998D01*
X95500500Y-75499998D01*
X95500500Y-70999998D01*
X100194532Y-70999998D01*
X100194532Y-71000001D01*
X100214364Y-71226686D01*
X100214366Y-71226697D01*
X100273258Y-71446488D01*
X100273261Y-71446497D01*
X100369431Y-71652732D01*
X100369432Y-71652734D01*
X100499954Y-71839141D01*
X100660858Y-72000045D01*
X100660861Y-72000047D01*
X100847266Y-72130568D01*
X101053504Y-72226739D01*
X101273308Y-72285635D01*
X101435230Y-72299801D01*
X101499998Y-72305468D01*
X101500000Y-72305468D01*
X101500002Y-72305468D01*
X101561391Y-72300097D01*
X101726692Y-72285635D01*
X101946496Y-72226739D01*
X102152734Y-72130568D01*
X102339139Y-72000047D01*
X102500047Y-71839139D01*
X102630568Y-71652734D01*
X102726739Y-71446496D01*
X102785635Y-71226692D01*
X102805468Y-71000000D01*
X102785635Y-70773308D01*
X102726739Y-70553504D01*
X102630568Y-70347266D01*
X102500047Y-70160861D01*
X102500045Y-70160858D01*
X102339141Y-69999954D01*
X102152734Y-69869432D01*
X102152732Y-69869431D01*
X101946497Y-69773261D01*
X101946488Y-69773258D01*
X101726697Y-69714366D01*
X101726693Y-69714365D01*
X101726692Y-69714365D01*
X101726691Y-69714364D01*
X101726686Y-69714364D01*
X101500002Y-69694532D01*
X101499998Y-69694532D01*
X101273313Y-69714364D01*
X101273302Y-69714366D01*
X101053511Y-69773258D01*
X101053502Y-69773261D01*
X100847267Y-69869431D01*
X100847265Y-69869432D01*
X100660858Y-69999954D01*
X100499954Y-70160858D01*
X100369432Y-70347265D01*
X100369431Y-70347267D01*
X100273261Y-70553502D01*
X100273258Y-70553511D01*
X100214366Y-70773302D01*
X100214364Y-70773313D01*
X100194532Y-70999998D01*
X95500500Y-70999998D01*
X95500500Y-66499998D01*
X100194532Y-66499998D01*
X100194532Y-66500001D01*
X100214364Y-66726686D01*
X100214366Y-66726697D01*
X100273258Y-66946488D01*
X100273261Y-66946497D01*
X100369431Y-67152732D01*
X100369432Y-67152734D01*
X100499954Y-67339141D01*
X100660858Y-67500045D01*
X100660861Y-67500047D01*
X100847266Y-67630568D01*
X101053504Y-67726739D01*
X101273308Y-67785635D01*
X101435230Y-67799801D01*
X101499998Y-67805468D01*
X101500000Y-67805468D01*
X101500002Y-67805468D01*
X101556673Y-67800509D01*
X101726692Y-67785635D01*
X101946496Y-67726739D01*
X102152734Y-67630568D01*
X102339139Y-67500047D01*
X102500047Y-67339139D01*
X102630568Y-67152734D01*
X102726739Y-66946496D01*
X102785635Y-66726692D01*
X102805468Y-66500000D01*
X102785635Y-66273308D01*
X102726739Y-66053504D01*
X102630568Y-65847266D01*
X102500047Y-65660861D01*
X102500045Y-65660858D01*
X102339141Y-65499954D01*
X102152734Y-65369432D01*
X102152732Y-65369431D01*
X101946497Y-65273261D01*
X101946488Y-65273258D01*
X101726697Y-65214366D01*
X101726693Y-65214365D01*
X101726692Y-65214365D01*
X101726691Y-65214364D01*
X101726686Y-65214364D01*
X101500002Y-65194532D01*
X101499998Y-65194532D01*
X101273313Y-65214364D01*
X101273302Y-65214366D01*
X101053511Y-65273258D01*
X101053502Y-65273261D01*
X100847267Y-65369431D01*
X100847265Y-65369432D01*
X100660858Y-65499954D01*
X100499954Y-65660858D01*
X100369432Y-65847265D01*
X100369431Y-65847267D01*
X100273261Y-66053502D01*
X100273258Y-66053511D01*
X100214366Y-66273302D01*
X100214364Y-66273313D01*
X100194532Y-66499998D01*
X95500500Y-66499998D01*
X95500500Y-56724983D01*
X97649500Y-56724983D01*
X97649500Y-58275001D01*
X97649501Y-58275018D01*
X97660000Y-58377796D01*
X97660001Y-58377799D01*
X97715185Y-58544331D01*
X97715187Y-58544336D01*
X97744936Y-58592566D01*
X97807288Y-58693656D01*
X97931344Y-58817712D01*
X98080666Y-58909814D01*
X98247203Y-58964999D01*
X98349991Y-58975500D01*
X99650008Y-58975499D01*
X99752797Y-58964999D01*
X99919334Y-58909814D01*
X100068656Y-58817712D01*
X100192712Y-58693656D01*
X100284814Y-58544334D01*
X100284814Y-58544331D01*
X100288178Y-58538879D01*
X100340126Y-58492154D01*
X100409088Y-58480931D01*
X100473170Y-58508774D01*
X100481398Y-58516294D01*
X100620213Y-58655109D01*
X100792179Y-58780048D01*
X100792181Y-58780049D01*
X100792184Y-58780051D01*
X100981588Y-58876557D01*
X101183757Y-58942246D01*
X101393713Y-58975500D01*
X101393714Y-58975500D01*
X101606286Y-58975500D01*
X101606287Y-58975500D01*
X101816243Y-58942246D01*
X102018412Y-58876557D01*
X102207816Y-58780051D01*
X102292748Y-58718345D01*
X102379786Y-58655109D01*
X102379788Y-58655106D01*
X102379792Y-58655104D01*
X102530104Y-58504792D01*
X102649683Y-58340204D01*
X102705011Y-58297540D01*
X102774624Y-58291561D01*
X102836420Y-58324166D01*
X102850313Y-58340199D01*
X102952560Y-58480931D01*
X102969896Y-58504792D01*
X103120213Y-58655109D01*
X103292179Y-58780048D01*
X103292181Y-58780049D01*
X103292184Y-58780051D01*
X103481588Y-58876557D01*
X103683757Y-58942246D01*
X103893713Y-58975500D01*
X103893714Y-58975500D01*
X104106286Y-58975500D01*
X104106287Y-58975500D01*
X104316243Y-58942246D01*
X104518412Y-58876557D01*
X104707816Y-58780051D01*
X104792748Y-58718345D01*
X104879786Y-58655109D01*
X104879788Y-58655106D01*
X104879792Y-58655104D01*
X105030104Y-58504792D01*
X105149991Y-58339779D01*
X105205320Y-58297115D01*
X105274933Y-58291136D01*
X105336729Y-58323741D01*
X105350627Y-58339781D01*
X105470272Y-58504459D01*
X105470276Y-58504464D01*
X105620535Y-58654723D01*
X105620540Y-58654727D01*
X105792442Y-58779620D01*
X105981782Y-58876095D01*
X106183871Y-58941757D01*
X106250000Y-58952231D01*
X106250000Y-57904145D01*
X106316657Y-57942630D01*
X106437465Y-57975000D01*
X106562535Y-57975000D01*
X106683343Y-57942630D01*
X106750000Y-57904145D01*
X106750000Y-58952230D01*
X106816126Y-58941757D01*
X106816129Y-58941757D01*
X107018217Y-58876095D01*
X107207557Y-58779620D01*
X107379459Y-58654727D01*
X107379464Y-58654723D01*
X107529723Y-58504464D01*
X107529727Y-58504459D01*
X107654620Y-58332557D01*
X107751095Y-58143217D01*
X107816757Y-57941130D01*
X107816757Y-57941127D01*
X107847030Y-57750000D01*
X106904146Y-57750000D01*
X106942630Y-57683343D01*
X106975000Y-57562535D01*
X106975000Y-57437465D01*
X106942630Y-57316657D01*
X106904146Y-57250000D01*
X107847030Y-57250000D01*
X107816757Y-57058872D01*
X107816757Y-57058869D01*
X107751095Y-56856782D01*
X107654620Y-56667442D01*
X107529727Y-56495540D01*
X107529723Y-56495535D01*
X107379464Y-56345276D01*
X107379459Y-56345272D01*
X107207557Y-56220379D01*
X107018215Y-56123903D01*
X106816124Y-56058241D01*
X106750000Y-56047768D01*
X106750000Y-57095854D01*
X106683343Y-57057370D01*
X106562535Y-57025000D01*
X106437465Y-57025000D01*
X106316657Y-57057370D01*
X106250000Y-57095854D01*
X106250000Y-56047768D01*
X106249999Y-56047768D01*
X106183875Y-56058241D01*
X105981784Y-56123903D01*
X105792442Y-56220379D01*
X105620540Y-56345272D01*
X105620535Y-56345276D01*
X105470276Y-56495535D01*
X105470272Y-56495540D01*
X105350627Y-56660218D01*
X105295297Y-56702884D01*
X105225684Y-56708863D01*
X105163889Y-56676257D01*
X105149991Y-56660218D01*
X105030109Y-56495214D01*
X105030105Y-56495209D01*
X104879786Y-56344890D01*
X104707820Y-56219951D01*
X104518414Y-56123444D01*
X104518413Y-56123443D01*
X104518412Y-56123443D01*
X104316243Y-56057754D01*
X104316241Y-56057753D01*
X104316240Y-56057753D01*
X104154957Y-56032208D01*
X104106287Y-56024500D01*
X103893713Y-56024500D01*
X103845042Y-56032208D01*
X103683760Y-56057753D01*
X103481585Y-56123444D01*
X103292179Y-56219951D01*
X103120213Y-56344890D01*
X102969894Y-56495209D01*
X102969890Y-56495214D01*
X102850318Y-56659793D01*
X102794989Y-56702459D01*
X102725375Y-56708438D01*
X102663580Y-56675833D01*
X102649682Y-56659793D01*
X102530109Y-56495214D01*
X102530105Y-56495209D01*
X102379786Y-56344890D01*
X102207820Y-56219951D01*
X102018414Y-56123444D01*
X102018413Y-56123443D01*
X102018412Y-56123443D01*
X101816243Y-56057754D01*
X101816241Y-56057753D01*
X101816240Y-56057753D01*
X101654957Y-56032208D01*
X101606287Y-56024500D01*
X101393713Y-56024500D01*
X101345042Y-56032208D01*
X101183760Y-56057753D01*
X100981585Y-56123444D01*
X100792179Y-56219951D01*
X100620215Y-56344889D01*
X100481398Y-56483706D01*
X100420075Y-56517190D01*
X100350383Y-56512206D01*
X100294450Y-56470334D01*
X100288178Y-56461120D01*
X100272982Y-56436484D01*
X100192712Y-56306344D01*
X100068656Y-56182288D01*
X99973253Y-56123443D01*
X99919336Y-56090187D01*
X99919331Y-56090185D01*
X99917862Y-56089698D01*
X99752797Y-56035001D01*
X99752795Y-56035000D01*
X99650010Y-56024500D01*
X98349998Y-56024500D01*
X98349981Y-56024501D01*
X98247203Y-56035000D01*
X98247200Y-56035001D01*
X98080668Y-56090185D01*
X98080663Y-56090187D01*
X97931342Y-56182289D01*
X97807289Y-56306342D01*
X97715187Y-56455663D01*
X97715185Y-56455668D01*
X97710325Y-56470334D01*
X97660001Y-56622203D01*
X97660001Y-56622204D01*
X97660000Y-56622204D01*
X97649500Y-56724983D01*
X95500500Y-56724983D01*
X95500500Y-53624500D01*
X95520185Y-53557461D01*
X95572989Y-53511706D01*
X95624500Y-53500500D01*
X122852576Y-53500500D01*
X122908030Y-53513591D01*
G37*
G04 #@! TD.AperFunction*
G04 #@! TA.AperFunction,Conductor*
G36*
X113750000Y-88952230D02*
G01*
X113816126Y-88941757D01*
X113816129Y-88941757D01*
X114018217Y-88876095D01*
X114207557Y-88779620D01*
X114379459Y-88654727D01*
X114379464Y-88654723D01*
X114529723Y-88504464D01*
X114529727Y-88504459D01*
X114654622Y-88332555D01*
X114665015Y-88312159D01*
X114712989Y-88261362D01*
X114780810Y-88244567D01*
X114846945Y-88267104D01*
X114890397Y-88321819D01*
X114899500Y-88368453D01*
X114899500Y-93913330D01*
X114899499Y-93913348D01*
X114899499Y-94079054D01*
X114899498Y-94079054D01*
X114899499Y-94079057D01*
X114911060Y-94122204D01*
X114915712Y-94139562D01*
X114914049Y-94209412D01*
X114874887Y-94267275D01*
X114810658Y-94294779D01*
X114741756Y-94283193D01*
X114690056Y-94236194D01*
X114685452Y-94227951D01*
X114654620Y-94167442D01*
X114529727Y-93995540D01*
X114529723Y-93995535D01*
X114379464Y-93845276D01*
X114379459Y-93845272D01*
X114207557Y-93720379D01*
X114018215Y-93623903D01*
X113816124Y-93558241D01*
X113750000Y-93547768D01*
X113750000Y-94595854D01*
X113683343Y-94557370D01*
X113562535Y-94525000D01*
X113437465Y-94525000D01*
X113316657Y-94557370D01*
X113250000Y-94595854D01*
X113250000Y-93547768D01*
X113249999Y-93547768D01*
X113183875Y-93558241D01*
X112981784Y-93623903D01*
X112792442Y-93720379D01*
X112620540Y-93845272D01*
X112620535Y-93845276D01*
X112470276Y-93995535D01*
X112470272Y-93995540D01*
X112350627Y-94160218D01*
X112295297Y-94202884D01*
X112225684Y-94208863D01*
X112163889Y-94176257D01*
X112149991Y-94160218D01*
X112030109Y-93995214D01*
X112030105Y-93995209D01*
X111879786Y-93844890D01*
X111707820Y-93719951D01*
X111518414Y-93623444D01*
X111518413Y-93623443D01*
X111518412Y-93623443D01*
X111316243Y-93557754D01*
X111316241Y-93557753D01*
X111316240Y-93557753D01*
X111154957Y-93532208D01*
X111106287Y-93524500D01*
X110893713Y-93524500D01*
X110845042Y-93532208D01*
X110683760Y-93557753D01*
X110481585Y-93623444D01*
X110292179Y-93719951D01*
X110120215Y-93844889D01*
X109981398Y-93983706D01*
X109920075Y-94017190D01*
X109850383Y-94012206D01*
X109794450Y-93970334D01*
X109788178Y-93961120D01*
X109692712Y-93806344D01*
X109568655Y-93682287D01*
X109559402Y-93676580D01*
X109512678Y-93624632D01*
X109500500Y-93571042D01*
X109500500Y-88928957D01*
X109520185Y-88861918D01*
X109559407Y-88823416D01*
X109568656Y-88817712D01*
X109692712Y-88693656D01*
X109784814Y-88544334D01*
X109784814Y-88544331D01*
X109788178Y-88538879D01*
X109840126Y-88492154D01*
X109909088Y-88480931D01*
X109973170Y-88508774D01*
X109981398Y-88516294D01*
X110120213Y-88655109D01*
X110292179Y-88780048D01*
X110292181Y-88780049D01*
X110292184Y-88780051D01*
X110481588Y-88876557D01*
X110683757Y-88942246D01*
X110893713Y-88975500D01*
X110893714Y-88975500D01*
X111106286Y-88975500D01*
X111106287Y-88975500D01*
X111316243Y-88942246D01*
X111518412Y-88876557D01*
X111707816Y-88780051D01*
X111729789Y-88764086D01*
X111879786Y-88655109D01*
X111879788Y-88655106D01*
X111879792Y-88655104D01*
X112030104Y-88504792D01*
X112149991Y-88339779D01*
X112205320Y-88297115D01*
X112274933Y-88291136D01*
X112336729Y-88323741D01*
X112350627Y-88339781D01*
X112470272Y-88504459D01*
X112470276Y-88504464D01*
X112620535Y-88654723D01*
X112620540Y-88654727D01*
X112792442Y-88779620D01*
X112981782Y-88876095D01*
X113183871Y-88941757D01*
X113250000Y-88952231D01*
X113250000Y-87904145D01*
X113316657Y-87942630D01*
X113437465Y-87975000D01*
X113562535Y-87975000D01*
X113683343Y-87942630D01*
X113750000Y-87904145D01*
X113750000Y-88952230D01*
G37*
G04 #@! TD.AperFunction*
M02*
