G04 #@! TF.GenerationSoftware,KiCad,Pcbnew,8.0.2*
G04 #@! TF.CreationDate,2024-08-18T16:51:17+09:00*
G04 #@! TF.ProjectId,rainbow2-rp2040,7261696e-626f-4773-922d-727032303430,rev?*
G04 #@! TF.SameCoordinates,Original*
G04 #@! TF.FileFunction,Copper,L1,Top*
G04 #@! TF.FilePolarity,Positive*
%FSLAX46Y46*%
G04 Gerber Fmt 4.6, Leading zero omitted, Abs format (unit mm)*
G04 Created by KiCad (PCBNEW 8.0.2) date 2024-08-18 16:51:17*
%MOMM*%
%LPD*%
G01*
G04 APERTURE LIST*
G04 Aperture macros list*
%AMRoundRect*
0 Rectangle with rounded corners*
0 $1 Rounding radius*
0 $2 $3 $4 $5 $6 $7 $8 $9 X,Y pos of 4 corners*
0 Add a 4 corners polygon primitive as box body*
4,1,4,$2,$3,$4,$5,$6,$7,$8,$9,$2,$3,0*
0 Add four circle primitives for the rounded corners*
1,1,$1+$1,$2,$3*
1,1,$1+$1,$4,$5*
1,1,$1+$1,$6,$7*
1,1,$1+$1,$8,$9*
0 Add four rect primitives between the rounded corners*
20,1,$1+$1,$2,$3,$4,$5,0*
20,1,$1+$1,$4,$5,$6,$7,0*
20,1,$1+$1,$6,$7,$8,$9,0*
20,1,$1+$1,$8,$9,$2,$3,0*%
G04 Aperture macros list end*
G04 #@! TA.AperFunction,ComponentPad*
%ADD10RoundRect,0.250000X-0.600000X-0.750000X0.600000X-0.750000X0.600000X0.750000X-0.600000X0.750000X0*%
G04 #@! TD*
G04 #@! TA.AperFunction,ComponentPad*
%ADD11O,1.700000X2.000000*%
G04 #@! TD*
G04 #@! TA.AperFunction,ComponentPad*
%ADD12R,1.600000X1.600000*%
G04 #@! TD*
G04 #@! TA.AperFunction,ComponentPad*
%ADD13O,1.600000X1.600000*%
G04 #@! TD*
G04 #@! TA.AperFunction,ComponentPad*
%ADD14RoundRect,0.250000X-0.600000X-0.725000X0.600000X-0.725000X0.600000X0.725000X-0.600000X0.725000X0*%
G04 #@! TD*
G04 #@! TA.AperFunction,ComponentPad*
%ADD15O,1.700000X1.950000*%
G04 #@! TD*
G04 #@! TA.AperFunction,ComponentPad*
%ADD16C,7.500000*%
G04 #@! TD*
G04 #@! TA.AperFunction,SMDPad,CuDef*
%ADD17O,2.500000X1.500000*%
G04 #@! TD*
G04 #@! TA.AperFunction,SMDPad,CuDef*
%ADD18O,1.500000X2.500000*%
G04 #@! TD*
G04 #@! TA.AperFunction,ComponentPad*
%ADD19C,1.600000*%
G04 #@! TD*
G04 #@! TA.AperFunction,SMDPad,CuDef*
%ADD20RoundRect,0.150000X-0.850000X-0.150000X0.850000X-0.150000X0.850000X0.150000X-0.850000X0.150000X0*%
G04 #@! TD*
G04 #@! TA.AperFunction,ViaPad*
%ADD21C,0.600000*%
G04 #@! TD*
G04 #@! TA.AperFunction,Conductor*
%ADD22C,0.200000*%
G04 #@! TD*
G04 #@! TA.AperFunction,Conductor*
%ADD23C,1.000000*%
G04 #@! TD*
G04 APERTURE END LIST*
D10*
X113000000Y-57500000D03*
D11*
X115500000Y-57500000D03*
D12*
X118500000Y-99960000D03*
D13*
X118500000Y-102500000D03*
X118500000Y-105040000D03*
X118500000Y-107580000D03*
X118500000Y-110120000D03*
X118500000Y-112660000D03*
X118500000Y-115200000D03*
X118500000Y-117740000D03*
X118500000Y-120280000D03*
D14*
X108500000Y-140000000D03*
D15*
X111000000Y-140000000D03*
X113500000Y-140000000D03*
D14*
X108500000Y-95000000D03*
D15*
X111000000Y-95000000D03*
X113500000Y-95000000D03*
D16*
X100000000Y-100000000D03*
D14*
X108500000Y-117500000D03*
D15*
X111000000Y-117500000D03*
X113500000Y-117500000D03*
D17*
X137620000Y-54840000D03*
X137620000Y-57380000D03*
X137620000Y-59920000D03*
X137620000Y-62460000D03*
X137620000Y-65000000D03*
X137620000Y-67540000D03*
X137620000Y-70080000D03*
X137620000Y-72620000D03*
X137620000Y-75160000D03*
D18*
X134580000Y-75660000D03*
X132040000Y-75660000D03*
X129500000Y-75660000D03*
X126960000Y-75660000D03*
X124420000Y-75660000D03*
D17*
X121380000Y-75160000D03*
X121380000Y-72620000D03*
X121380000Y-70080000D03*
X121380000Y-67540000D03*
X121380000Y-65000000D03*
X121380000Y-62460000D03*
X121380000Y-59920000D03*
X121380000Y-57380000D03*
X121380000Y-54840000D03*
D14*
X108500000Y-87500000D03*
D15*
X111000000Y-87500000D03*
X113500000Y-87500000D03*
D16*
X100000000Y-147500000D03*
X135000000Y-147500000D03*
D19*
X101500000Y-80000000D03*
D13*
X111660000Y-80000000D03*
D16*
X135000000Y-100000000D03*
D20*
X123000000Y-102500000D03*
X123000000Y-103770000D03*
X123000000Y-105040000D03*
X123000000Y-106310000D03*
X123000000Y-107580000D03*
X123000000Y-108850000D03*
X123000000Y-110120000D03*
X123000000Y-111390000D03*
X128000000Y-111390000D03*
X128000000Y-110120000D03*
X128000000Y-108850000D03*
X128000000Y-107580000D03*
X128000000Y-106310000D03*
X128000000Y-105040000D03*
X128000000Y-103770000D03*
X128000000Y-102500000D03*
D19*
X101500000Y-66500000D03*
D13*
X111660000Y-66500000D03*
D19*
X101500000Y-71000000D03*
D13*
X111660000Y-71000000D03*
D14*
X108500000Y-125000000D03*
D15*
X111000000Y-125000000D03*
X113500000Y-125000000D03*
D14*
X108500000Y-110000000D03*
D15*
X111000000Y-110000000D03*
X113500000Y-110000000D03*
D14*
X108500000Y-102500000D03*
D15*
X111000000Y-102500000D03*
X113500000Y-102500000D03*
D14*
X99000000Y-57500000D03*
D15*
X101500000Y-57500000D03*
X104000000Y-57500000D03*
X106500000Y-57500000D03*
D20*
X123000000Y-89380000D03*
X123000000Y-90650000D03*
X123000000Y-91920000D03*
X123000000Y-93190000D03*
X123000000Y-94460000D03*
X123000000Y-95730000D03*
X123000000Y-97000000D03*
X123000000Y-98270000D03*
X128000000Y-98270000D03*
X128000000Y-97000000D03*
X128000000Y-95730000D03*
X128000000Y-94460000D03*
X128000000Y-93190000D03*
X128000000Y-91920000D03*
X128000000Y-90650000D03*
X128000000Y-89380000D03*
D19*
X101500000Y-75500000D03*
D13*
X111660000Y-75500000D03*
D14*
X108500000Y-147500000D03*
D15*
X111000000Y-147500000D03*
X113500000Y-147500000D03*
D14*
X108500000Y-132500000D03*
D15*
X111000000Y-132500000D03*
X113500000Y-132500000D03*
D21*
X111000000Y-105500000D03*
X111000000Y-98000000D03*
X111000000Y-128000000D03*
X118500000Y-60000000D03*
X111000000Y-90500000D03*
X125500000Y-111500000D03*
X111000000Y-150500000D03*
X111000000Y-135500000D03*
X111000000Y-120500000D03*
X125500000Y-98500000D03*
X118500000Y-57500000D03*
X108500000Y-57500000D03*
X111000000Y-113000000D03*
X110500000Y-57500000D03*
X121880000Y-57380000D03*
X111000000Y-143000000D03*
X121880000Y-75160000D03*
X128000000Y-103770000D03*
X128000000Y-107580000D03*
X121880000Y-67540000D03*
X124420000Y-75160000D03*
X128000000Y-102500000D03*
X128000000Y-106310000D03*
X121880000Y-70080000D03*
X121880000Y-62460000D03*
X128000000Y-110120000D03*
X121880000Y-65000000D03*
X128000000Y-108850000D03*
X121880000Y-72620000D03*
X128000000Y-105040000D03*
X129500000Y-75160000D03*
X128000000Y-94460000D03*
X126960000Y-75160000D03*
X128000000Y-93190000D03*
X132040000Y-75160000D03*
X128000000Y-95730000D03*
X134580000Y-75160000D03*
X128000000Y-97000000D03*
D22*
X105000000Y-82000000D02*
X107000000Y-84000000D01*
X115500000Y-84000000D02*
X119000000Y-87500000D01*
X104000000Y-57500000D02*
X104000000Y-61000000D01*
X119000000Y-91500000D02*
X120690000Y-93190000D01*
X105000000Y-70000000D02*
X105000000Y-82000000D01*
X107000000Y-84000000D02*
X115500000Y-84000000D01*
X101500000Y-66500000D02*
X105000000Y-70000000D01*
X104000000Y-61000000D02*
X101500000Y-63500000D01*
X120690000Y-93190000D02*
X123000000Y-93190000D01*
X119000000Y-87500000D02*
X119000000Y-91500000D01*
X101500000Y-63500000D02*
X101500000Y-66500000D01*
X103500000Y-83000000D02*
X105460000Y-84960000D01*
X119960000Y-94460000D02*
X123000000Y-94460000D01*
X105460000Y-84960000D02*
X114960000Y-84960000D01*
X99500000Y-69000000D02*
X101500000Y-71000000D01*
X101500000Y-57500000D02*
X101500000Y-61000000D01*
X101500000Y-71000000D02*
X103500000Y-73000000D01*
X101500000Y-61000000D02*
X99500000Y-63000000D01*
X99500000Y-63000000D02*
X99500000Y-69000000D01*
X118000000Y-92500000D02*
X119960000Y-94460000D01*
X118000000Y-88000000D02*
X118000000Y-92500000D01*
X103500000Y-73000000D02*
X103500000Y-83000000D01*
X114960000Y-84960000D02*
X118000000Y-88000000D01*
X111660000Y-71000000D02*
X111660000Y-66500000D01*
D23*
X115500000Y-57500000D02*
X118160000Y-54840000D01*
D22*
X111660000Y-62340000D02*
X115500000Y-58500000D01*
D23*
X118160000Y-54840000D02*
X121880000Y-54840000D01*
X115500000Y-56000000D02*
X114500000Y-55000000D01*
X115500000Y-57500000D02*
X115500000Y-56000000D01*
X99000000Y-56000000D02*
X99000000Y-57500000D01*
X114500000Y-55000000D02*
X100000000Y-55000000D01*
D22*
X111660000Y-66500000D02*
X111660000Y-62340000D01*
X115500000Y-58500000D02*
X115500000Y-57500000D01*
D23*
X100000000Y-55000000D02*
X99000000Y-56000000D01*
D22*
X118500000Y-102500000D02*
X123000000Y-102500000D01*
X118500000Y-105040000D02*
X119770000Y-103770000D01*
X119770000Y-103770000D02*
X123000000Y-103770000D01*
X116420000Y-107580000D02*
X118500000Y-107580000D01*
X115000000Y-113500000D02*
X115000000Y-109000000D01*
X121040000Y-105040000D02*
X118500000Y-107580000D01*
X111000000Y-117500000D02*
X115000000Y-113500000D01*
X123000000Y-105040000D02*
X121040000Y-105040000D01*
X115000000Y-109000000D02*
X116420000Y-107580000D01*
X120000000Y-107500000D02*
X120000000Y-108500000D01*
X118500000Y-110000000D02*
X118500000Y-110120000D01*
X123000000Y-106310000D02*
X121190000Y-106310000D01*
X115500000Y-120500000D02*
X115500000Y-111000000D01*
X121190000Y-106310000D02*
X120000000Y-107500000D01*
X111000000Y-125000000D02*
X115500000Y-120500000D01*
X116380000Y-110120000D02*
X118500000Y-110120000D01*
X115500000Y-111000000D02*
X116380000Y-110120000D01*
X120000000Y-108500000D02*
X118500000Y-110000000D01*
X121420000Y-107580000D02*
X123000000Y-107580000D01*
X118500000Y-112660000D02*
X120500000Y-110660000D01*
X116000000Y-113500000D02*
X116000000Y-127500000D01*
X116840000Y-112660000D02*
X116000000Y-113500000D01*
X116000000Y-127500000D02*
X111000000Y-132500000D01*
X120500000Y-108500000D02*
X121420000Y-107580000D01*
X120500000Y-110660000D02*
X120500000Y-108500000D01*
X118500000Y-112660000D02*
X116840000Y-112660000D01*
X116500000Y-134500000D02*
X116500000Y-116000000D01*
X117300000Y-115200000D02*
X118500000Y-115200000D01*
X121000000Y-112700000D02*
X121000000Y-109500000D01*
X121650000Y-108850000D02*
X123000000Y-108850000D01*
X111000000Y-140000000D02*
X116500000Y-134500000D01*
X118500000Y-115200000D02*
X121000000Y-112700000D01*
X116500000Y-116000000D02*
X117300000Y-115200000D01*
X121000000Y-109500000D02*
X121650000Y-108850000D01*
X121500000Y-114740000D02*
X121500000Y-110620001D01*
X118500000Y-117740000D02*
X121500000Y-114740000D01*
X121500000Y-110620001D02*
X122000001Y-110120000D01*
X117760000Y-117740000D02*
X117000000Y-118500000D01*
X117000000Y-141500000D02*
X111000000Y-147500000D01*
X122000001Y-110120000D02*
X123000000Y-110120000D01*
X117000000Y-118500000D02*
X117000000Y-141500000D01*
X118500000Y-117740000D02*
X117760000Y-117740000D01*
X105000000Y-89500000D02*
X110500000Y-89500000D01*
X101500000Y-80000000D02*
X101500000Y-86000000D01*
X111000000Y-89000000D02*
X111000000Y-87500000D01*
X111000000Y-87500000D02*
X119230000Y-95730000D01*
X101500000Y-86000000D02*
X105000000Y-89500000D01*
X110500000Y-89500000D02*
X111000000Y-89000000D01*
X119230000Y-95730000D02*
X123000000Y-95730000D01*
X110500000Y-92000000D02*
X111000000Y-92500000D01*
X104960000Y-92000000D02*
X110500000Y-92000000D01*
X111000000Y-92500000D02*
X111000000Y-95000000D01*
X111000000Y-95000000D02*
X113000000Y-97000000D01*
X99500000Y-86540000D02*
X104960000Y-92000000D01*
X101500000Y-75500000D02*
X99500000Y-77500000D01*
X99500000Y-77500000D02*
X99500000Y-86540000D01*
X113000000Y-97000000D02*
X123000000Y-97000000D01*
X114460000Y-105040000D02*
X118500000Y-105040000D01*
X111000000Y-108500000D02*
X114460000Y-105040000D01*
X111000000Y-110000000D02*
X111000000Y-108500000D01*
X116000000Y-102500000D02*
X118500000Y-102500000D01*
X114000000Y-104500000D02*
X116000000Y-102500000D01*
X111500000Y-104500000D02*
X114000000Y-104500000D01*
X111000000Y-104000000D02*
X111500000Y-104500000D01*
X111000000Y-102500000D02*
X111000000Y-104000000D01*
G04 #@! TA.AperFunction,Conductor*
G36*
X117335347Y-105660185D02*
G01*
X117369880Y-105693374D01*
X117455480Y-105815624D01*
X117499954Y-105879141D01*
X117660858Y-106040045D01*
X117660861Y-106040047D01*
X117847266Y-106170568D01*
X117905275Y-106197618D01*
X117957714Y-106243791D01*
X117976866Y-106310984D01*
X117956650Y-106377865D01*
X117905275Y-106422382D01*
X117847267Y-106449431D01*
X117847265Y-106449432D01*
X117660858Y-106579954D01*
X117499954Y-106740858D01*
X117423450Y-106850118D01*
X117369881Y-106926624D01*
X117315307Y-106970248D01*
X117268308Y-106979500D01*
X116340942Y-106979500D01*
X116188215Y-107020423D01*
X116174860Y-107028134D01*
X116174857Y-107028135D01*
X116051290Y-107099475D01*
X116051282Y-107099481D01*
X114519481Y-108631282D01*
X114519479Y-108631285D01*
X114483745Y-108693180D01*
X114483743Y-108693182D01*
X114459922Y-108734440D01*
X114409355Y-108782655D01*
X114340748Y-108795877D01*
X114279651Y-108772758D01*
X114207553Y-108720376D01*
X114018215Y-108623903D01*
X113816124Y-108558241D01*
X113750000Y-108547768D01*
X113750000Y-109595854D01*
X113683343Y-109557370D01*
X113562535Y-109525000D01*
X113437465Y-109525000D01*
X113316657Y-109557370D01*
X113250000Y-109595854D01*
X113250000Y-108547768D01*
X113249999Y-108547768D01*
X113183875Y-108558241D01*
X112981784Y-108623903D01*
X112792442Y-108720379D01*
X112620540Y-108845272D01*
X112620535Y-108845276D01*
X112470276Y-108995535D01*
X112470272Y-108995540D01*
X112350627Y-109160218D01*
X112295297Y-109202884D01*
X112225684Y-109208863D01*
X112163889Y-109176257D01*
X112149991Y-109160218D01*
X112030109Y-108995214D01*
X112030105Y-108995209D01*
X111879790Y-108844894D01*
X111879785Y-108844890D01*
X111779789Y-108772239D01*
X111737123Y-108716909D01*
X111731144Y-108647296D01*
X111763749Y-108585501D01*
X111764917Y-108584316D01*
X114672416Y-105676819D01*
X114733739Y-105643334D01*
X114760097Y-105640500D01*
X117268308Y-105640500D01*
X117335347Y-105660185D01*
G37*
G04 #@! TD.AperFunction*
G04 #@! TA.AperFunction,Conductor*
G36*
X120304995Y-53520185D02*
G01*
X120350750Y-53572989D01*
X120360694Y-53642147D01*
X120331669Y-53705703D01*
X120294250Y-53734985D01*
X120224593Y-53770476D01*
X120162186Y-53815818D01*
X120096380Y-53839298D01*
X120089301Y-53839500D01*
X118061455Y-53839500D01*
X117964812Y-53858724D01*
X117868167Y-53877947D01*
X117868161Y-53877949D01*
X117814834Y-53900037D01*
X117814834Y-53900038D01*
X117813695Y-53900510D01*
X117686089Y-53953366D01*
X117686079Y-53953371D01*
X117522219Y-54062859D01*
X117471713Y-54113366D01*
X117382861Y-54202218D01*
X117382858Y-54202221D01*
X116337680Y-55247398D01*
X116276357Y-55280883D01*
X116206665Y-55275899D01*
X116162320Y-55247399D01*
X115284208Y-54369288D01*
X115284206Y-54369285D01*
X115284206Y-54369286D01*
X115277139Y-54362219D01*
X115277139Y-54362218D01*
X115137782Y-54222861D01*
X115137781Y-54222860D01*
X115137780Y-54222859D01*
X114973920Y-54113371D01*
X114973911Y-54113366D01*
X114901315Y-54083296D01*
X114845165Y-54060038D01*
X114791836Y-54037949D01*
X114791832Y-54037948D01*
X114791828Y-54037946D01*
X114695188Y-54018724D01*
X114598544Y-53999500D01*
X114598541Y-53999500D01*
X100104675Y-53999500D01*
X100104655Y-53999499D01*
X100098541Y-53999499D01*
X99901460Y-53999499D01*
X99901457Y-53999499D01*
X99708172Y-54037946D01*
X99708164Y-54037948D01*
X99526088Y-54113366D01*
X99526079Y-54113371D01*
X99362219Y-54222859D01*
X99362215Y-54222862D01*
X98452253Y-55132826D01*
X98362220Y-55222859D01*
X98362218Y-55222861D01*
X98309180Y-55275899D01*
X98222859Y-55362219D01*
X98113371Y-55526080D01*
X98113366Y-55526089D01*
X98075653Y-55617139D01*
X98051462Y-55675542D01*
X98037949Y-55708164D01*
X98024229Y-55777139D01*
X98022002Y-55788336D01*
X97999500Y-55901456D01*
X97999500Y-56071042D01*
X97979815Y-56138081D01*
X97940598Y-56176580D01*
X97931344Y-56182287D01*
X97807289Y-56306342D01*
X97715187Y-56455663D01*
X97715185Y-56455668D01*
X97696450Y-56512206D01*
X97660001Y-56622203D01*
X97660001Y-56622204D01*
X97660000Y-56622204D01*
X97649500Y-56724983D01*
X97649500Y-58275001D01*
X97649501Y-58275018D01*
X97660000Y-58377796D01*
X97660001Y-58377799D01*
X97715185Y-58544331D01*
X97715187Y-58544336D01*
X97741631Y-58587208D01*
X97807288Y-58693656D01*
X97931344Y-58817712D01*
X98080666Y-58909814D01*
X98247203Y-58964999D01*
X98349991Y-58975500D01*
X99650008Y-58975499D01*
X99752797Y-58964999D01*
X99919334Y-58909814D01*
X100068656Y-58817712D01*
X100192712Y-58693656D01*
X100284814Y-58544334D01*
X100284814Y-58544331D01*
X100288178Y-58538879D01*
X100340126Y-58492154D01*
X100409088Y-58480931D01*
X100473170Y-58508774D01*
X100481398Y-58516294D01*
X100620213Y-58655109D01*
X100792184Y-58780051D01*
X100792184Y-58780052D01*
X100831793Y-58800233D01*
X100882590Y-58848206D01*
X100899500Y-58910718D01*
X100899500Y-60699902D01*
X100879815Y-60766941D01*
X100863181Y-60787583D01*
X99019481Y-62631282D01*
X99019480Y-62631284D01*
X98974775Y-62708716D01*
X98940423Y-62768215D01*
X98899499Y-62920943D01*
X98899499Y-62920945D01*
X98899499Y-63089046D01*
X98899500Y-63089059D01*
X98899500Y-68913330D01*
X98899499Y-68913348D01*
X98899499Y-69079054D01*
X98899498Y-69079054D01*
X98940423Y-69231786D01*
X98940424Y-69231787D01*
X98959804Y-69265354D01*
X99019481Y-69368717D01*
X99138349Y-69487585D01*
X99138355Y-69487590D01*
X100208058Y-70557293D01*
X100241543Y-70618616D01*
X100240152Y-70677067D01*
X100214366Y-70773302D01*
X100214364Y-70773313D01*
X100194532Y-70999998D01*
X100194532Y-71000001D01*
X100214364Y-71226686D01*
X100214366Y-71226697D01*
X100273258Y-71446488D01*
X100273261Y-71446497D01*
X100369431Y-71652732D01*
X100369432Y-71652734D01*
X100499954Y-71839141D01*
X100660858Y-72000045D01*
X100660861Y-72000047D01*
X100847266Y-72130568D01*
X101053504Y-72226739D01*
X101273308Y-72285635D01*
X101435230Y-72299801D01*
X101499998Y-72305468D01*
X101500000Y-72305468D01*
X101500002Y-72305468D01*
X101556673Y-72300509D01*
X101726692Y-72285635D01*
X101822932Y-72259847D01*
X101892781Y-72261510D01*
X101942706Y-72291941D01*
X102863181Y-73212416D01*
X102896666Y-73273739D01*
X102899500Y-73300097D01*
X102899500Y-74864664D01*
X102879815Y-74931703D01*
X102827011Y-74977458D01*
X102757853Y-74987402D01*
X102694297Y-74958377D01*
X102663118Y-74917069D01*
X102630568Y-74847267D01*
X102630567Y-74847265D01*
X102500045Y-74660858D01*
X102339141Y-74499954D01*
X102152734Y-74369432D01*
X102152732Y-74369431D01*
X101946497Y-74273261D01*
X101946488Y-74273258D01*
X101726697Y-74214366D01*
X101726693Y-74214365D01*
X101726692Y-74214365D01*
X101726691Y-74214364D01*
X101726686Y-74214364D01*
X101500002Y-74194532D01*
X101499998Y-74194532D01*
X101273313Y-74214364D01*
X101273302Y-74214366D01*
X101053511Y-74273258D01*
X101053502Y-74273261D01*
X100847267Y-74369431D01*
X100847265Y-74369432D01*
X100660858Y-74499954D01*
X100499954Y-74660858D01*
X100369432Y-74847265D01*
X100369431Y-74847267D01*
X100273261Y-75053502D01*
X100273258Y-75053511D01*
X100214366Y-75273302D01*
X100214364Y-75273313D01*
X100194532Y-75499998D01*
X100194532Y-75500001D01*
X100214364Y-75726686D01*
X100214366Y-75726697D01*
X100240152Y-75822931D01*
X100238489Y-75892781D01*
X100208058Y-75942705D01*
X99131286Y-77019478D01*
X99019481Y-77131282D01*
X99019479Y-77131285D01*
X98969361Y-77218094D01*
X98969359Y-77218096D01*
X98940425Y-77268209D01*
X98940424Y-77268210D01*
X98940423Y-77268215D01*
X98899499Y-77420943D01*
X98899499Y-77420945D01*
X98899499Y-77589046D01*
X98899500Y-77589059D01*
X98899500Y-86453330D01*
X98899499Y-86453348D01*
X98899499Y-86619054D01*
X98899498Y-86619054D01*
X98940423Y-86771785D01*
X98969358Y-86821900D01*
X98969359Y-86821904D01*
X98969360Y-86821904D01*
X98989496Y-86856782D01*
X99019479Y-86908714D01*
X99019481Y-86908717D01*
X99138349Y-87027585D01*
X99138355Y-87027590D01*
X104475139Y-92364374D01*
X104475149Y-92364385D01*
X104479479Y-92368715D01*
X104479480Y-92368716D01*
X104591284Y-92480520D01*
X104662990Y-92521919D01*
X104728215Y-92559577D01*
X104880943Y-92600500D01*
X105039057Y-92600500D01*
X110199903Y-92600500D01*
X110266942Y-92620185D01*
X110287584Y-92636819D01*
X110363181Y-92712416D01*
X110396666Y-92773739D01*
X110399500Y-92800097D01*
X110399500Y-93589281D01*
X110379815Y-93656320D01*
X110331795Y-93699765D01*
X110292185Y-93719947D01*
X110292184Y-93719948D01*
X110120215Y-93844889D01*
X109981398Y-93983706D01*
X109920075Y-94017190D01*
X109850383Y-94012206D01*
X109794450Y-93970334D01*
X109788178Y-93961120D01*
X109730947Y-93868334D01*
X109692712Y-93806344D01*
X109568656Y-93682288D01*
X109473998Y-93623903D01*
X109419336Y-93590187D01*
X109419331Y-93590185D01*
X109416603Y-93589281D01*
X109252797Y-93535001D01*
X109252795Y-93535000D01*
X109150010Y-93524500D01*
X107849998Y-93524500D01*
X107849981Y-93524501D01*
X107747203Y-93535000D01*
X107747200Y-93535001D01*
X107580668Y-93590185D01*
X107580663Y-93590187D01*
X107431342Y-93682289D01*
X107307289Y-93806342D01*
X107215187Y-93955663D01*
X107215185Y-93955668D01*
X107210325Y-93970334D01*
X107160001Y-94122203D01*
X107160001Y-94122204D01*
X107160000Y-94122204D01*
X107149500Y-94224983D01*
X107149500Y-95775001D01*
X107149501Y-95775018D01*
X107160000Y-95877796D01*
X107160001Y-95877799D01*
X107205894Y-96016294D01*
X107215186Y-96044334D01*
X107307288Y-96193656D01*
X107431344Y-96317712D01*
X107580666Y-96409814D01*
X107747203Y-96464999D01*
X107849991Y-96475500D01*
X109150008Y-96475499D01*
X109252797Y-96464999D01*
X109419334Y-96409814D01*
X109568656Y-96317712D01*
X109692712Y-96193656D01*
X109784814Y-96044334D01*
X109784814Y-96044331D01*
X109788178Y-96038879D01*
X109840126Y-95992154D01*
X109909088Y-95980931D01*
X109973170Y-96008774D01*
X109981398Y-96016294D01*
X110120213Y-96155109D01*
X110292179Y-96280048D01*
X110292181Y-96280049D01*
X110292184Y-96280051D01*
X110481588Y-96376557D01*
X110683757Y-96442246D01*
X110893713Y-96475500D01*
X110893714Y-96475500D01*
X111106286Y-96475500D01*
X111106287Y-96475500D01*
X111316243Y-96442246D01*
X111452873Y-96397851D01*
X111522708Y-96395856D01*
X111578867Y-96428102D01*
X112515139Y-97364374D01*
X112515149Y-97364385D01*
X112519479Y-97368715D01*
X112519480Y-97368716D01*
X112631284Y-97480520D01*
X112718095Y-97530639D01*
X112718097Y-97530641D01*
X112754849Y-97551860D01*
X112768215Y-97559577D01*
X112920943Y-97600500D01*
X121484674Y-97600500D01*
X121551713Y-97620185D01*
X121597468Y-97672989D01*
X121607412Y-97742147D01*
X121591406Y-97787621D01*
X121548718Y-97859801D01*
X121502899Y-98017513D01*
X121502704Y-98019998D01*
X121502705Y-98020000D01*
X124497295Y-98020000D01*
X124497295Y-98019998D01*
X124497100Y-98017513D01*
X124451281Y-97859801D01*
X124367685Y-97718447D01*
X124362900Y-97712278D01*
X124365366Y-97710364D01*
X124338802Y-97661776D01*
X124343749Y-97592082D01*
X124364856Y-97559232D01*
X124363301Y-97558026D01*
X124368077Y-97551868D01*
X124368081Y-97551865D01*
X124451744Y-97410398D01*
X124497598Y-97252569D01*
X124500500Y-97215694D01*
X124500500Y-96784306D01*
X124497598Y-96747431D01*
X124451744Y-96589602D01*
X124368081Y-96448135D01*
X124368078Y-96448132D01*
X124363298Y-96441969D01*
X124365750Y-96440066D01*
X124339155Y-96391421D01*
X124344104Y-96321726D01*
X124364940Y-96289304D01*
X124363298Y-96288031D01*
X124368075Y-96281870D01*
X124368081Y-96281865D01*
X124451744Y-96140398D01*
X124497598Y-95982569D01*
X124500500Y-95945694D01*
X124500500Y-95514306D01*
X124497598Y-95477431D01*
X124487487Y-95442630D01*
X124451745Y-95319606D01*
X124451744Y-95319603D01*
X124451744Y-95319602D01*
X124368081Y-95178135D01*
X124368078Y-95178132D01*
X124363298Y-95171969D01*
X124365750Y-95170066D01*
X124339155Y-95121421D01*
X124344104Y-95051726D01*
X124364940Y-95019304D01*
X124363298Y-95018031D01*
X124368075Y-95011870D01*
X124368081Y-95011865D01*
X124451744Y-94870398D01*
X124497598Y-94712569D01*
X124500500Y-94675694D01*
X124500500Y-94244306D01*
X124497598Y-94207431D01*
X124451744Y-94049602D01*
X124368081Y-93908135D01*
X124368078Y-93908132D01*
X124363298Y-93901969D01*
X124365750Y-93900066D01*
X124339155Y-93851421D01*
X124344104Y-93781726D01*
X124364940Y-93749304D01*
X124363298Y-93748031D01*
X124368075Y-93741870D01*
X124368081Y-93741865D01*
X124451744Y-93600398D01*
X124497598Y-93442569D01*
X124500500Y-93405694D01*
X124500500Y-92974306D01*
X124497598Y-92937431D01*
X124492009Y-92918195D01*
X124451745Y-92779606D01*
X124451744Y-92779603D01*
X124451744Y-92779602D01*
X124368081Y-92638135D01*
X124368078Y-92638132D01*
X124363298Y-92631969D01*
X124365750Y-92630066D01*
X124339155Y-92581421D01*
X124344104Y-92511726D01*
X124364940Y-92479304D01*
X124363298Y-92478031D01*
X124368075Y-92471870D01*
X124368081Y-92471865D01*
X124451744Y-92330398D01*
X124497598Y-92172569D01*
X124500500Y-92135694D01*
X124500500Y-91704306D01*
X124497598Y-91667431D01*
X124487096Y-91631284D01*
X124454614Y-91519480D01*
X124451744Y-91509602D01*
X124368081Y-91368135D01*
X124368078Y-91368132D01*
X124363298Y-91361969D01*
X124365750Y-91360066D01*
X124339155Y-91311421D01*
X124344104Y-91241726D01*
X124364940Y-91209304D01*
X124363298Y-91208031D01*
X124368075Y-91201870D01*
X124368081Y-91201865D01*
X124451744Y-91060398D01*
X124497598Y-90902569D01*
X124500500Y-90865694D01*
X124500500Y-90434306D01*
X124497598Y-90397431D01*
X124451744Y-90239602D01*
X124368081Y-90098135D01*
X124368078Y-90098132D01*
X124363298Y-90091969D01*
X124365750Y-90090066D01*
X124339155Y-90041421D01*
X124344104Y-89971726D01*
X124364940Y-89939304D01*
X124363298Y-89938031D01*
X124368075Y-89931870D01*
X124368081Y-89931865D01*
X124451744Y-89790398D01*
X124497598Y-89632569D01*
X124500500Y-89595694D01*
X124500500Y-89164306D01*
X124500499Y-89164298D01*
X126499500Y-89164298D01*
X126499500Y-89595701D01*
X126502401Y-89632567D01*
X126502402Y-89632573D01*
X126548254Y-89790393D01*
X126548255Y-89790396D01*
X126631917Y-89931862D01*
X126636702Y-89938031D01*
X126634256Y-89939927D01*
X126660857Y-89988642D01*
X126655873Y-90058334D01*
X126635069Y-90090703D01*
X126636702Y-90091969D01*
X126631917Y-90098137D01*
X126548255Y-90239603D01*
X126548254Y-90239606D01*
X126502402Y-90397426D01*
X126502401Y-90397432D01*
X126499500Y-90434298D01*
X126499500Y-90865701D01*
X126502401Y-90902567D01*
X126502402Y-90902573D01*
X126548254Y-91060393D01*
X126548255Y-91060396D01*
X126631917Y-91201862D01*
X126636702Y-91208031D01*
X126634256Y-91209927D01*
X126660857Y-91258642D01*
X126655873Y-91328334D01*
X126635069Y-91360703D01*
X126636702Y-91361969D01*
X126631917Y-91368137D01*
X126548255Y-91509603D01*
X126548254Y-91509606D01*
X126502402Y-91667426D01*
X126502401Y-91667432D01*
X126499500Y-91704298D01*
X126499500Y-92135701D01*
X126502401Y-92172567D01*
X126502402Y-92172573D01*
X126548254Y-92330393D01*
X126548255Y-92330396D01*
X126631917Y-92471862D01*
X126636702Y-92478031D01*
X126634256Y-92479927D01*
X126660857Y-92528642D01*
X126655873Y-92598334D01*
X126635069Y-92630703D01*
X126636702Y-92631969D01*
X126631917Y-92638137D01*
X126548255Y-92779603D01*
X126548254Y-92779606D01*
X126502402Y-92937426D01*
X126502401Y-92937432D01*
X126499500Y-92974298D01*
X126499500Y-93405701D01*
X126502401Y-93442567D01*
X126502402Y-93442573D01*
X126548254Y-93600393D01*
X126548255Y-93600396D01*
X126631917Y-93741862D01*
X126636702Y-93748031D01*
X126634256Y-93749927D01*
X126660857Y-93798642D01*
X126655873Y-93868334D01*
X126635069Y-93900703D01*
X126636702Y-93901969D01*
X126631917Y-93908137D01*
X126548255Y-94049603D01*
X126548254Y-94049606D01*
X126502402Y-94207426D01*
X126502401Y-94207432D01*
X126499500Y-94244298D01*
X126499500Y-94675701D01*
X126502401Y-94712567D01*
X126502402Y-94712573D01*
X126548254Y-94870393D01*
X126548255Y-94870396D01*
X126631917Y-95011862D01*
X126636702Y-95018031D01*
X126634256Y-95019927D01*
X126660857Y-95068642D01*
X126655873Y-95138334D01*
X126635069Y-95170703D01*
X126636702Y-95171969D01*
X126631917Y-95178137D01*
X126548255Y-95319603D01*
X126548254Y-95319606D01*
X126502402Y-95477426D01*
X126502401Y-95477432D01*
X126499500Y-95514298D01*
X126499500Y-95945701D01*
X126502401Y-95982567D01*
X126502402Y-95982573D01*
X126548254Y-96140393D01*
X126548255Y-96140396D01*
X126631917Y-96281862D01*
X126636702Y-96288031D01*
X126634256Y-96289927D01*
X126660857Y-96338642D01*
X126655873Y-96408334D01*
X126635069Y-96440703D01*
X126636702Y-96441969D01*
X126631917Y-96448137D01*
X126548255Y-96589603D01*
X126548254Y-96589606D01*
X126502402Y-96747426D01*
X126502401Y-96747432D01*
X126499500Y-96784298D01*
X126499500Y-97215701D01*
X126502401Y-97252567D01*
X126502402Y-97252573D01*
X126548254Y-97410393D01*
X126548255Y-97410396D01*
X126631917Y-97551862D01*
X126636702Y-97558031D01*
X126634256Y-97559927D01*
X126660857Y-97608642D01*
X126655873Y-97678334D01*
X126635069Y-97710703D01*
X126636702Y-97711969D01*
X126631917Y-97718137D01*
X126548255Y-97859603D01*
X126548254Y-97859606D01*
X126502402Y-98017426D01*
X126502401Y-98017432D01*
X126499500Y-98054298D01*
X126499500Y-98485701D01*
X126502401Y-98522567D01*
X126502402Y-98522573D01*
X126548254Y-98680393D01*
X126548255Y-98680396D01*
X126631917Y-98821862D01*
X126631923Y-98821870D01*
X126748129Y-98938076D01*
X126748133Y-98938079D01*
X126748135Y-98938081D01*
X126889602Y-99021744D01*
X126931224Y-99033836D01*
X127047426Y-99067597D01*
X127047429Y-99067597D01*
X127047431Y-99067598D01*
X127084306Y-99070500D01*
X127084314Y-99070500D01*
X128915686Y-99070500D01*
X128915694Y-99070500D01*
X128952569Y-99067598D01*
X128952571Y-99067597D01*
X128952573Y-99067597D01*
X129004123Y-99052620D01*
X129110398Y-99021744D01*
X129251865Y-98938081D01*
X129368081Y-98821865D01*
X129451744Y-98680398D01*
X129497598Y-98522569D01*
X129500500Y-98485694D01*
X129500500Y-98054306D01*
X129497598Y-98017431D01*
X129451744Y-97859602D01*
X129368081Y-97718135D01*
X129368078Y-97718132D01*
X129363298Y-97711969D01*
X129365750Y-97710066D01*
X129339155Y-97661421D01*
X129344104Y-97591726D01*
X129364940Y-97559304D01*
X129363298Y-97558031D01*
X129368075Y-97551870D01*
X129368081Y-97551865D01*
X129451744Y-97410398D01*
X129497598Y-97252569D01*
X129500500Y-97215694D01*
X129500500Y-96784306D01*
X129497598Y-96747431D01*
X129451744Y-96589602D01*
X129368081Y-96448135D01*
X129368078Y-96448132D01*
X129363298Y-96441969D01*
X129365750Y-96440066D01*
X129339155Y-96391421D01*
X129344104Y-96321726D01*
X129364940Y-96289304D01*
X129363298Y-96288031D01*
X129368075Y-96281870D01*
X129368081Y-96281865D01*
X129451744Y-96140398D01*
X129497598Y-95982569D01*
X129500500Y-95945694D01*
X129500500Y-95514306D01*
X129497598Y-95477431D01*
X129487487Y-95442630D01*
X129451745Y-95319606D01*
X129451744Y-95319603D01*
X129451744Y-95319602D01*
X129368081Y-95178135D01*
X129368078Y-95178132D01*
X129363298Y-95171969D01*
X129365750Y-95170066D01*
X129339155Y-95121421D01*
X129344104Y-95051726D01*
X129364940Y-95019304D01*
X129363298Y-95018031D01*
X129368075Y-95011870D01*
X129368081Y-95011865D01*
X129451744Y-94870398D01*
X129497598Y-94712569D01*
X129500500Y-94675694D01*
X129500500Y-94244306D01*
X129497598Y-94207431D01*
X129451744Y-94049602D01*
X129368081Y-93908135D01*
X129368078Y-93908132D01*
X129363298Y-93901969D01*
X129365750Y-93900066D01*
X129339155Y-93851421D01*
X129344104Y-93781726D01*
X129364940Y-93749304D01*
X129363298Y-93748031D01*
X129368075Y-93741870D01*
X129368081Y-93741865D01*
X129451744Y-93600398D01*
X129497598Y-93442569D01*
X129500500Y-93405694D01*
X129500500Y-92974306D01*
X129497598Y-92937431D01*
X129492009Y-92918195D01*
X129451745Y-92779606D01*
X129451744Y-92779603D01*
X129451744Y-92779602D01*
X129368081Y-92638135D01*
X129368078Y-92638132D01*
X129363298Y-92631969D01*
X129365750Y-92630066D01*
X129339155Y-92581421D01*
X129344104Y-92511726D01*
X129364940Y-92479304D01*
X129363298Y-92478031D01*
X129368075Y-92471870D01*
X129368081Y-92471865D01*
X129451744Y-92330398D01*
X129497598Y-92172569D01*
X129500500Y-92135694D01*
X129500500Y-91704306D01*
X129497598Y-91667431D01*
X129487096Y-91631284D01*
X129454614Y-91519480D01*
X129451744Y-91509602D01*
X129368081Y-91368135D01*
X129368078Y-91368132D01*
X129363298Y-91361969D01*
X129365750Y-91360066D01*
X129339155Y-91311421D01*
X129344104Y-91241726D01*
X129364940Y-91209304D01*
X129363298Y-91208031D01*
X129368075Y-91201870D01*
X129368081Y-91201865D01*
X129451744Y-91060398D01*
X129497598Y-90902569D01*
X129500500Y-90865694D01*
X129500500Y-90434306D01*
X129497598Y-90397431D01*
X129451744Y-90239602D01*
X129368081Y-90098135D01*
X129368078Y-90098132D01*
X129363298Y-90091969D01*
X129365750Y-90090066D01*
X129339155Y-90041421D01*
X129344104Y-89971726D01*
X129364940Y-89939304D01*
X129363298Y-89938031D01*
X129368075Y-89931870D01*
X129368081Y-89931865D01*
X129451744Y-89790398D01*
X129497598Y-89632569D01*
X129500500Y-89595694D01*
X129500500Y-89164306D01*
X129497598Y-89127431D01*
X129487981Y-89094330D01*
X129451745Y-88969606D01*
X129451744Y-88969603D01*
X129451744Y-88969602D01*
X129368081Y-88828135D01*
X129368079Y-88828133D01*
X129368076Y-88828129D01*
X129251870Y-88711923D01*
X129251862Y-88711917D01*
X129110396Y-88628255D01*
X129110393Y-88628254D01*
X128952573Y-88582402D01*
X128952567Y-88582401D01*
X128915701Y-88579500D01*
X128915694Y-88579500D01*
X127084306Y-88579500D01*
X127084298Y-88579500D01*
X127047432Y-88582401D01*
X127047426Y-88582402D01*
X126889606Y-88628254D01*
X126889603Y-88628255D01*
X126748137Y-88711917D01*
X126748129Y-88711923D01*
X126631923Y-88828129D01*
X126631917Y-88828137D01*
X126548255Y-88969603D01*
X126548254Y-88969606D01*
X126502402Y-89127426D01*
X126502401Y-89127432D01*
X126499500Y-89164298D01*
X124500499Y-89164298D01*
X124497598Y-89127431D01*
X124487981Y-89094330D01*
X124451745Y-88969606D01*
X124451744Y-88969603D01*
X124451744Y-88969602D01*
X124368081Y-88828135D01*
X124368079Y-88828133D01*
X124368076Y-88828129D01*
X124251870Y-88711923D01*
X124251862Y-88711917D01*
X124110396Y-88628255D01*
X124110393Y-88628254D01*
X123952573Y-88582402D01*
X123952567Y-88582401D01*
X123915701Y-88579500D01*
X123915694Y-88579500D01*
X122084306Y-88579500D01*
X122084298Y-88579500D01*
X122047432Y-88582401D01*
X122047426Y-88582402D01*
X121889606Y-88628254D01*
X121889603Y-88628255D01*
X121748137Y-88711917D01*
X121748129Y-88711923D01*
X121631923Y-88828129D01*
X121631917Y-88828137D01*
X121548255Y-88969603D01*
X121548254Y-88969606D01*
X121502402Y-89127426D01*
X121502401Y-89127432D01*
X121499500Y-89164298D01*
X121499500Y-89595701D01*
X121502401Y-89632567D01*
X121502402Y-89632573D01*
X121548254Y-89790393D01*
X121548255Y-89790396D01*
X121631917Y-89931862D01*
X121636702Y-89938031D01*
X121634256Y-89939927D01*
X121660857Y-89988642D01*
X121655873Y-90058334D01*
X121635069Y-90090703D01*
X121636702Y-90091969D01*
X121631917Y-90098137D01*
X121548255Y-90239603D01*
X121548254Y-90239606D01*
X121502402Y-90397426D01*
X121502401Y-90397432D01*
X121499500Y-90434298D01*
X121499500Y-90865701D01*
X121502401Y-90902567D01*
X121502402Y-90902573D01*
X121548254Y-91060393D01*
X121548255Y-91060396D01*
X121631917Y-91201862D01*
X121636702Y-91208031D01*
X121634256Y-91209927D01*
X121660857Y-91258642D01*
X121655873Y-91328334D01*
X121635069Y-91360703D01*
X121636702Y-91361969D01*
X121631917Y-91368137D01*
X121548255Y-91509603D01*
X121548254Y-91509606D01*
X121502402Y-91667426D01*
X121502401Y-91667432D01*
X121499500Y-91704298D01*
X121499500Y-92135701D01*
X121502401Y-92172567D01*
X121502402Y-92172573D01*
X121548254Y-92330393D01*
X121548257Y-92330400D01*
X121590825Y-92402380D01*
X121608008Y-92470104D01*
X121585848Y-92536366D01*
X121531381Y-92580129D01*
X121484093Y-92589500D01*
X120990097Y-92589500D01*
X120923058Y-92569815D01*
X120902416Y-92553181D01*
X119636819Y-91287584D01*
X119603334Y-91226261D01*
X119600500Y-91199903D01*
X119600500Y-87420944D01*
X119600500Y-87420943D01*
X119594754Y-87399500D01*
X119589534Y-87380019D01*
X119559577Y-87268216D01*
X119525010Y-87208343D01*
X119480524Y-87131290D01*
X119480521Y-87131286D01*
X119480520Y-87131284D01*
X119368716Y-87019480D01*
X119368715Y-87019479D01*
X119364385Y-87015149D01*
X119364374Y-87015139D01*
X115987590Y-83638355D01*
X115987588Y-83638352D01*
X115868717Y-83519481D01*
X115868716Y-83519480D01*
X115781904Y-83469360D01*
X115781904Y-83469359D01*
X115781900Y-83469358D01*
X115731785Y-83440423D01*
X115579057Y-83399499D01*
X115420943Y-83399499D01*
X115413347Y-83399499D01*
X115413331Y-83399500D01*
X107300097Y-83399500D01*
X107233058Y-83379815D01*
X107212416Y-83363181D01*
X105636819Y-81787584D01*
X105603334Y-81726261D01*
X105600500Y-81699903D01*
X105600500Y-79749999D01*
X110381127Y-79749999D01*
X110381128Y-79750000D01*
X111344314Y-79750000D01*
X111339920Y-79754394D01*
X111287259Y-79845606D01*
X111260000Y-79947339D01*
X111260000Y-80052661D01*
X111287259Y-80154394D01*
X111339920Y-80245606D01*
X111344314Y-80250000D01*
X110381128Y-80250000D01*
X110433730Y-80446317D01*
X110433734Y-80446326D01*
X110529865Y-80652482D01*
X110660342Y-80838820D01*
X110821179Y-80999657D01*
X111007517Y-81130134D01*
X111213673Y-81226265D01*
X111213682Y-81226269D01*
X111409999Y-81278872D01*
X111410000Y-81278871D01*
X111410000Y-80315686D01*
X111414394Y-80320080D01*
X111505606Y-80372741D01*
X111607339Y-80400000D01*
X111712661Y-80400000D01*
X111814394Y-80372741D01*
X111905606Y-80320080D01*
X111910000Y-80315686D01*
X111910000Y-81278872D01*
X112106317Y-81226269D01*
X112106326Y-81226265D01*
X112312482Y-81130134D01*
X112498820Y-80999657D01*
X112659657Y-80838820D01*
X112790134Y-80652482D01*
X112886265Y-80446326D01*
X112886269Y-80446317D01*
X112938872Y-80250000D01*
X111975686Y-80250000D01*
X111980080Y-80245606D01*
X112032741Y-80154394D01*
X112060000Y-80052661D01*
X112060000Y-79947339D01*
X112032741Y-79845606D01*
X111980080Y-79754394D01*
X111975686Y-79750000D01*
X112938872Y-79750000D01*
X112938872Y-79749999D01*
X112886269Y-79553682D01*
X112886265Y-79553673D01*
X112790134Y-79347517D01*
X112659657Y-79161179D01*
X112498820Y-79000342D01*
X112312482Y-78869865D01*
X112106328Y-78773734D01*
X111910000Y-78721127D01*
X111910000Y-79684314D01*
X111905606Y-79679920D01*
X111814394Y-79627259D01*
X111712661Y-79600000D01*
X111607339Y-79600000D01*
X111505606Y-79627259D01*
X111414394Y-79679920D01*
X111410000Y-79684314D01*
X111410000Y-78721127D01*
X111213671Y-78773734D01*
X111007517Y-78869865D01*
X110821179Y-79000342D01*
X110660342Y-79161179D01*
X110529865Y-79347517D01*
X110433734Y-79553673D01*
X110433730Y-79553682D01*
X110381127Y-79749999D01*
X105600500Y-79749999D01*
X105600500Y-75249999D01*
X110381127Y-75249999D01*
X110381128Y-75250000D01*
X111344314Y-75250000D01*
X111339920Y-75254394D01*
X111287259Y-75345606D01*
X111260000Y-75447339D01*
X111260000Y-75552661D01*
X111287259Y-75654394D01*
X111339920Y-75745606D01*
X111344314Y-75750000D01*
X110381128Y-75750000D01*
X110433730Y-75946317D01*
X110433734Y-75946326D01*
X110529865Y-76152482D01*
X110660342Y-76338820D01*
X110821179Y-76499657D01*
X111007517Y-76630134D01*
X111213673Y-76726265D01*
X111213682Y-76726269D01*
X111409999Y-76778872D01*
X111410000Y-76778871D01*
X111410000Y-75815686D01*
X111414394Y-75820080D01*
X111505606Y-75872741D01*
X111607339Y-75900000D01*
X111712661Y-75900000D01*
X111814394Y-75872741D01*
X111905606Y-75820080D01*
X111910000Y-75815686D01*
X111910000Y-76778872D01*
X112106317Y-76726269D01*
X112106326Y-76726265D01*
X112312482Y-76630134D01*
X112498820Y-76499657D01*
X112659657Y-76338820D01*
X112790134Y-76152482D01*
X112886265Y-75946326D01*
X112886269Y-75946317D01*
X112938872Y-75750000D01*
X111975686Y-75750000D01*
X111980080Y-75745606D01*
X112032741Y-75654394D01*
X112060000Y-75552661D01*
X112060000Y-75447339D01*
X112032741Y-75345606D01*
X111980080Y-75254394D01*
X111975686Y-75250000D01*
X112938872Y-75250000D01*
X112938872Y-75249999D01*
X112886269Y-75053682D01*
X112886265Y-75053673D01*
X112790134Y-74847517D01*
X112659657Y-74661179D01*
X112498820Y-74500342D01*
X112312482Y-74369865D01*
X112106328Y-74273734D01*
X111910000Y-74221127D01*
X111910000Y-75184314D01*
X111905606Y-75179920D01*
X111814394Y-75127259D01*
X111712661Y-75100000D01*
X111607339Y-75100000D01*
X111505606Y-75127259D01*
X111414394Y-75179920D01*
X111410000Y-75184314D01*
X111410000Y-74221127D01*
X111213671Y-74273734D01*
X111007517Y-74369865D01*
X110821179Y-74500342D01*
X110660342Y-74661179D01*
X110529865Y-74847517D01*
X110433734Y-75053673D01*
X110433730Y-75053682D01*
X110381127Y-75249999D01*
X105600500Y-75249999D01*
X105600500Y-69920945D01*
X105600500Y-69920943D01*
X105559577Y-69768216D01*
X105554072Y-69758681D01*
X105480524Y-69631290D01*
X105480521Y-69631286D01*
X105480520Y-69631284D01*
X105368716Y-69519480D01*
X105368715Y-69519479D01*
X105364385Y-69515149D01*
X105364374Y-69515139D01*
X102791941Y-66942706D01*
X102758456Y-66881383D01*
X102759847Y-66822931D01*
X102785635Y-66726692D01*
X102805468Y-66500000D01*
X102785635Y-66273308D01*
X102726739Y-66053504D01*
X102630568Y-65847266D01*
X102500047Y-65660861D01*
X102500045Y-65660858D01*
X102339140Y-65499953D01*
X102153377Y-65369881D01*
X102109752Y-65315304D01*
X102100500Y-65268306D01*
X102100500Y-63800096D01*
X102120185Y-63733057D01*
X102136814Y-63712420D01*
X104358506Y-61490727D01*
X104358511Y-61490724D01*
X104368714Y-61480520D01*
X104368716Y-61480520D01*
X104480520Y-61368716D01*
X104554666Y-61240291D01*
X104559577Y-61231785D01*
X104600501Y-61079057D01*
X104600501Y-60920943D01*
X104600501Y-60913348D01*
X104600500Y-60913330D01*
X104600500Y-58910718D01*
X104620185Y-58843679D01*
X104668207Y-58800233D01*
X104707815Y-58780052D01*
X104707815Y-58780051D01*
X104707816Y-58780051D01*
X104799193Y-58713661D01*
X104879786Y-58655109D01*
X104879788Y-58655106D01*
X104879792Y-58655104D01*
X105030104Y-58504792D01*
X105149991Y-58339779D01*
X105205320Y-58297115D01*
X105274933Y-58291136D01*
X105336729Y-58323741D01*
X105350627Y-58339781D01*
X105470272Y-58504459D01*
X105470276Y-58504464D01*
X105620535Y-58654723D01*
X105620540Y-58654727D01*
X105792442Y-58779620D01*
X105981782Y-58876095D01*
X106183871Y-58941757D01*
X106250000Y-58952231D01*
X106250000Y-57904145D01*
X106316657Y-57942630D01*
X106437465Y-57975000D01*
X106562535Y-57975000D01*
X106683343Y-57942630D01*
X106750000Y-57904145D01*
X106750000Y-58952230D01*
X106816126Y-58941757D01*
X106816129Y-58941757D01*
X107018217Y-58876095D01*
X107207557Y-58779620D01*
X107379459Y-58654727D01*
X107379464Y-58654723D01*
X107529723Y-58504464D01*
X107529727Y-58504459D01*
X107654620Y-58332557D01*
X107751095Y-58143217D01*
X107816757Y-57941130D01*
X107816757Y-57941127D01*
X107847030Y-57750000D01*
X106904146Y-57750000D01*
X106942630Y-57683343D01*
X106975000Y-57562535D01*
X106975000Y-57437465D01*
X106942630Y-57316657D01*
X106904146Y-57250000D01*
X107847030Y-57250000D01*
X107816757Y-57058872D01*
X107816757Y-57058869D01*
X107751095Y-56856782D01*
X107654620Y-56667442D01*
X107529727Y-56495540D01*
X107529723Y-56495535D01*
X107379464Y-56345276D01*
X107379459Y-56345272D01*
X107213668Y-56224818D01*
X107171002Y-56169488D01*
X107165023Y-56099875D01*
X107197629Y-56038080D01*
X107258467Y-56003723D01*
X107286553Y-56000500D01*
X111789477Y-56000500D01*
X111856516Y-56020185D01*
X111902271Y-56072989D01*
X111912215Y-56142147D01*
X111883190Y-56205703D01*
X111877158Y-56212181D01*
X111807684Y-56281654D01*
X111715643Y-56430875D01*
X111715641Y-56430880D01*
X111660494Y-56597302D01*
X111660493Y-56597309D01*
X111650000Y-56700013D01*
X111650000Y-57250000D01*
X112566988Y-57250000D01*
X112534075Y-57307007D01*
X112500000Y-57434174D01*
X112500000Y-57565826D01*
X112534075Y-57692993D01*
X112566988Y-57750000D01*
X111650001Y-57750000D01*
X111650001Y-58299986D01*
X111660494Y-58402697D01*
X111715641Y-58569119D01*
X111715643Y-58569124D01*
X111807684Y-58718345D01*
X111931654Y-58842315D01*
X112080875Y-58934356D01*
X112080880Y-58934358D01*
X112247302Y-58989505D01*
X112247309Y-58989506D01*
X112350019Y-58999999D01*
X112749999Y-58999999D01*
X112750000Y-58999998D01*
X112750000Y-57933012D01*
X112807007Y-57965925D01*
X112934174Y-58000000D01*
X113065826Y-58000000D01*
X113192993Y-57965925D01*
X113250000Y-57933012D01*
X113250000Y-58999999D01*
X113649972Y-58999999D01*
X113649986Y-58999998D01*
X113752695Y-58989506D01*
X113867092Y-58951598D01*
X113936921Y-58949196D01*
X113996963Y-58984927D01*
X114028156Y-59047448D01*
X114020596Y-59116907D01*
X113993778Y-59156985D01*
X111291286Y-61859478D01*
X111179481Y-61971282D01*
X111179479Y-61971285D01*
X111163838Y-61998377D01*
X111148196Y-62025470D01*
X111100423Y-62108215D01*
X111059499Y-62260943D01*
X111059499Y-62260945D01*
X111059499Y-62429046D01*
X111059500Y-62429059D01*
X111059500Y-65268306D01*
X111039815Y-65335345D01*
X111006623Y-65369881D01*
X110820859Y-65499953D01*
X110659954Y-65660858D01*
X110529432Y-65847265D01*
X110529431Y-65847267D01*
X110433261Y-66053502D01*
X110433258Y-66053511D01*
X110374366Y-66273302D01*
X110374364Y-66273313D01*
X110354532Y-66499998D01*
X110354532Y-66500001D01*
X110374364Y-66726686D01*
X110374366Y-66726697D01*
X110433258Y-66946488D01*
X110433261Y-66946497D01*
X110529431Y-67152732D01*
X110529432Y-67152734D01*
X110659954Y-67339141D01*
X110820858Y-67500045D01*
X110820861Y-67500047D01*
X111006624Y-67630118D01*
X111050248Y-67684693D01*
X111059500Y-67731692D01*
X111059500Y-69768306D01*
X111039815Y-69835345D01*
X111006623Y-69869881D01*
X110820859Y-69999953D01*
X110659954Y-70160858D01*
X110529432Y-70347265D01*
X110529431Y-70347267D01*
X110433261Y-70553502D01*
X110433258Y-70553511D01*
X110374366Y-70773302D01*
X110374364Y-70773313D01*
X110354532Y-70999998D01*
X110354532Y-71000001D01*
X110374364Y-71226686D01*
X110374366Y-71226697D01*
X110433258Y-71446488D01*
X110433261Y-71446497D01*
X110529431Y-71652732D01*
X110529432Y-71652734D01*
X110659954Y-71839141D01*
X110820858Y-72000045D01*
X110820861Y-72000047D01*
X111007266Y-72130568D01*
X111213504Y-72226739D01*
X111433308Y-72285635D01*
X111595230Y-72299801D01*
X111659998Y-72305468D01*
X111660000Y-72305468D01*
X111660002Y-72305468D01*
X111716673Y-72300509D01*
X111886692Y-72285635D01*
X112106496Y-72226739D01*
X112312734Y-72130568D01*
X112499139Y-72000047D01*
X112660047Y-71839139D01*
X112790568Y-71652734D01*
X112886739Y-71446496D01*
X112945635Y-71226692D01*
X112965468Y-71000000D01*
X112945635Y-70773308D01*
X112886739Y-70553504D01*
X112790568Y-70347266D01*
X112660047Y-70160861D01*
X112660045Y-70160858D01*
X112499140Y-69999953D01*
X112313377Y-69869881D01*
X112269752Y-69815304D01*
X112260500Y-69768306D01*
X112260500Y-67731692D01*
X112280185Y-67664653D01*
X112313374Y-67630119D01*
X112499139Y-67500047D01*
X112660047Y-67339139D01*
X112790568Y-67152734D01*
X112886739Y-66946496D01*
X112945635Y-66726692D01*
X112965468Y-66500000D01*
X112945635Y-66273308D01*
X112886739Y-66053504D01*
X112790568Y-65847266D01*
X112660047Y-65660861D01*
X112660045Y-65660858D01*
X112499140Y-65499953D01*
X112313377Y-65369881D01*
X112269752Y-65315304D01*
X112260500Y-65268306D01*
X112260500Y-62640096D01*
X112280185Y-62573057D01*
X112296814Y-62552420D01*
X115858505Y-58990728D01*
X115858510Y-58990725D01*
X115868714Y-58980520D01*
X115868716Y-58980520D01*
X115892584Y-58956650D01*
X115941945Y-58926402D01*
X116018412Y-58901557D01*
X116207816Y-58805051D01*
X116322891Y-58721445D01*
X116379786Y-58680109D01*
X116379788Y-58680106D01*
X116379792Y-58680104D01*
X116530104Y-58529792D01*
X116530106Y-58529788D01*
X116530109Y-58529786D01*
X116655048Y-58357820D01*
X116655047Y-58357820D01*
X116655051Y-58357816D01*
X116751557Y-58168412D01*
X116817246Y-57966243D01*
X116850500Y-57756287D01*
X116850500Y-57615782D01*
X116870185Y-57548743D01*
X116886819Y-57528101D01*
X118538101Y-55876819D01*
X118599424Y-55843334D01*
X118625782Y-55840500D01*
X120089301Y-55840500D01*
X120156340Y-55860185D01*
X120162186Y-55864182D01*
X120224593Y-55909523D01*
X120401763Y-55999795D01*
X120452560Y-56047769D01*
X120469355Y-56115590D01*
X120446818Y-56181725D01*
X120401764Y-56220765D01*
X120224856Y-56310904D01*
X120065678Y-56426555D01*
X119926555Y-56565678D01*
X119810904Y-56724856D01*
X119721581Y-56900162D01*
X119660781Y-57087283D01*
X119654016Y-57130000D01*
X121506000Y-57130000D01*
X121573039Y-57149685D01*
X121618794Y-57202489D01*
X121630000Y-57254000D01*
X121630000Y-57506000D01*
X121610315Y-57573039D01*
X121557511Y-57618794D01*
X121506000Y-57630000D01*
X119654016Y-57630000D01*
X119660781Y-57672716D01*
X119721581Y-57859837D01*
X119810904Y-58035143D01*
X119926555Y-58194321D01*
X120065678Y-58333444D01*
X120224856Y-58449095D01*
X120401764Y-58539234D01*
X120452560Y-58587208D01*
X120469355Y-58655029D01*
X120446818Y-58721164D01*
X120401764Y-58760204D01*
X120224594Y-58850476D01*
X120154290Y-58901556D01*
X120065354Y-58966172D01*
X120065352Y-58966174D01*
X120065351Y-58966174D01*
X119926174Y-59105351D01*
X119926174Y-59105352D01*
X119926172Y-59105354D01*
X119888660Y-59156985D01*
X119810476Y-59264594D01*
X119721117Y-59439970D01*
X119660290Y-59627173D01*
X119629500Y-59821577D01*
X119629500Y-60018422D01*
X119660290Y-60212826D01*
X119721117Y-60400029D01*
X119763668Y-60483539D01*
X119810476Y-60575405D01*
X119926172Y-60734646D01*
X120065354Y-60873828D01*
X120224595Y-60989524D01*
X120347992Y-61052397D01*
X120401213Y-61079515D01*
X120452009Y-61127489D01*
X120468804Y-61195310D01*
X120446267Y-61261445D01*
X120401213Y-61300485D01*
X120224594Y-61390476D01*
X120133741Y-61456485D01*
X120065354Y-61506172D01*
X120065352Y-61506174D01*
X120065351Y-61506174D01*
X119926174Y-61645351D01*
X119926174Y-61645352D01*
X119926172Y-61645354D01*
X119876485Y-61713741D01*
X119810476Y-61804594D01*
X119721117Y-61979970D01*
X119660290Y-62167173D01*
X119629500Y-62361577D01*
X119629500Y-62558422D01*
X119660290Y-62752826D01*
X119721117Y-62940029D01*
X119797052Y-63089059D01*
X119810476Y-63115405D01*
X119926172Y-63274646D01*
X120065354Y-63413828D01*
X120224595Y-63529524D01*
X120341414Y-63589046D01*
X120401213Y-63619515D01*
X120452009Y-63667489D01*
X120468804Y-63735310D01*
X120446267Y-63801445D01*
X120401213Y-63840485D01*
X120224594Y-63930476D01*
X120133741Y-63996485D01*
X120065354Y-64046172D01*
X120065352Y-64046174D01*
X120065351Y-64046174D01*
X119926174Y-64185351D01*
X119926174Y-64185352D01*
X119926172Y-64185354D01*
X119876485Y-64253741D01*
X119810476Y-64344594D01*
X119721117Y-64519970D01*
X119660290Y-64707173D01*
X119629500Y-64901577D01*
X119629500Y-65098422D01*
X119660290Y-65292826D01*
X119721117Y-65480029D01*
X119763668Y-65563539D01*
X119810476Y-65655405D01*
X119926172Y-65814646D01*
X120065354Y-65953828D01*
X120224595Y-66069524D01*
X120347992Y-66132397D01*
X120401213Y-66159515D01*
X120452009Y-66207489D01*
X120468804Y-66275310D01*
X120446267Y-66341445D01*
X120401213Y-66380485D01*
X120224594Y-66470476D01*
X120133741Y-66536485D01*
X120065354Y-66586172D01*
X120065352Y-66586174D01*
X120065351Y-66586174D01*
X119926174Y-66725351D01*
X119926174Y-66725352D01*
X119926172Y-66725354D01*
X119876485Y-66793741D01*
X119810476Y-66884594D01*
X119721117Y-67059970D01*
X119660290Y-67247173D01*
X119629500Y-67441577D01*
X119629500Y-67638422D01*
X119660290Y-67832826D01*
X119721117Y-68020029D01*
X119763668Y-68103539D01*
X119810476Y-68195405D01*
X119926172Y-68354646D01*
X120065354Y-68493828D01*
X120224595Y-68609524D01*
X120347992Y-68672397D01*
X120401213Y-68699515D01*
X120452009Y-68747489D01*
X120468804Y-68815310D01*
X120446267Y-68881445D01*
X120401213Y-68920485D01*
X120224594Y-69010476D01*
X120133741Y-69076485D01*
X120065354Y-69126172D01*
X120065352Y-69126174D01*
X120065351Y-69126174D01*
X119926174Y-69265351D01*
X119926174Y-69265352D01*
X119926172Y-69265354D01*
X119876485Y-69333741D01*
X119810476Y-69424594D01*
X119721117Y-69599970D01*
X119660290Y-69787173D01*
X119629500Y-69981577D01*
X119629500Y-70178422D01*
X119660290Y-70372826D01*
X119721117Y-70560029D01*
X119763668Y-70643539D01*
X119810476Y-70735405D01*
X119926172Y-70894646D01*
X120065354Y-71033828D01*
X120224595Y-71149524D01*
X120347992Y-71212397D01*
X120401213Y-71239515D01*
X120452009Y-71287489D01*
X120468804Y-71355310D01*
X120446267Y-71421445D01*
X120401213Y-71460485D01*
X120224594Y-71550476D01*
X120133741Y-71616485D01*
X120065354Y-71666172D01*
X120065352Y-71666174D01*
X120065351Y-71666174D01*
X119926174Y-71805351D01*
X119926174Y-71805352D01*
X119926172Y-71805354D01*
X119901626Y-71839139D01*
X119810476Y-71964594D01*
X119721117Y-72139970D01*
X119660290Y-72327173D01*
X119629500Y-72521577D01*
X119629500Y-72718422D01*
X119660290Y-72912826D01*
X119721117Y-73100029D01*
X119796887Y-73248735D01*
X119810476Y-73275405D01*
X119926172Y-73434646D01*
X120065354Y-73573828D01*
X120224595Y-73689524D01*
X120342305Y-73749500D01*
X120401213Y-73779515D01*
X120452009Y-73827489D01*
X120468804Y-73895310D01*
X120446267Y-73961445D01*
X120401213Y-74000485D01*
X120224594Y-74090476D01*
X120133741Y-74156485D01*
X120065354Y-74206172D01*
X120065352Y-74206174D01*
X120065351Y-74206174D01*
X119926174Y-74345351D01*
X119926174Y-74345352D01*
X119926172Y-74345354D01*
X119908364Y-74369865D01*
X119810476Y-74504594D01*
X119721117Y-74679970D01*
X119660290Y-74867173D01*
X119629500Y-75061577D01*
X119629500Y-75258422D01*
X119660290Y-75452826D01*
X119721117Y-75640029D01*
X119791782Y-75778716D01*
X119810476Y-75815405D01*
X119926172Y-75974646D01*
X120065354Y-76113828D01*
X120224595Y-76229524D01*
X120281301Y-76258417D01*
X120399970Y-76318882D01*
X120399972Y-76318882D01*
X120399975Y-76318884D01*
X120500317Y-76351487D01*
X120587173Y-76379709D01*
X120781578Y-76410500D01*
X120781583Y-76410500D01*
X121978422Y-76410500D01*
X122172826Y-76379709D01*
X122360025Y-76318884D01*
X122535405Y-76229524D01*
X122694646Y-76113828D01*
X122833828Y-75974646D01*
X122945182Y-75821380D01*
X123000512Y-75778716D01*
X123070126Y-75772737D01*
X123131921Y-75805343D01*
X123166278Y-75866182D01*
X123169500Y-75894267D01*
X123169500Y-76258422D01*
X123200290Y-76452826D01*
X123261117Y-76640029D01*
X123345413Y-76805468D01*
X123350476Y-76815405D01*
X123466172Y-76974646D01*
X123605354Y-77113828D01*
X123764595Y-77229524D01*
X123840519Y-77268209D01*
X123939970Y-77318882D01*
X123939972Y-77318882D01*
X123939975Y-77318884D01*
X124040317Y-77351487D01*
X124127173Y-77379709D01*
X124321578Y-77410500D01*
X124321583Y-77410500D01*
X124518422Y-77410500D01*
X124712826Y-77379709D01*
X124900025Y-77318884D01*
X125075405Y-77229524D01*
X125234646Y-77113828D01*
X125373828Y-76974646D01*
X125489524Y-76815405D01*
X125504692Y-76785635D01*
X125579515Y-76638787D01*
X125627489Y-76587990D01*
X125695310Y-76571195D01*
X125761445Y-76593732D01*
X125800485Y-76638787D01*
X125890474Y-76815403D01*
X125925234Y-76863246D01*
X126006172Y-76974646D01*
X126145354Y-77113828D01*
X126304595Y-77229524D01*
X126380519Y-77268209D01*
X126479970Y-77318882D01*
X126479972Y-77318882D01*
X126479975Y-77318884D01*
X126580317Y-77351487D01*
X126667173Y-77379709D01*
X126861578Y-77410500D01*
X126861583Y-77410500D01*
X127058422Y-77410500D01*
X127252826Y-77379709D01*
X127440025Y-77318884D01*
X127615405Y-77229524D01*
X127774646Y-77113828D01*
X127913828Y-76974646D01*
X128029524Y-76815405D01*
X128044692Y-76785635D01*
X128119515Y-76638787D01*
X128167489Y-76587990D01*
X128235310Y-76571195D01*
X128301445Y-76593732D01*
X128340485Y-76638787D01*
X128430474Y-76815403D01*
X128465234Y-76863246D01*
X128546172Y-76974646D01*
X128685354Y-77113828D01*
X128844595Y-77229524D01*
X128920519Y-77268209D01*
X129019970Y-77318882D01*
X129019972Y-77318882D01*
X129019975Y-77318884D01*
X129120317Y-77351487D01*
X129207173Y-77379709D01*
X129401578Y-77410500D01*
X129401583Y-77410500D01*
X129598422Y-77410500D01*
X129792826Y-77379709D01*
X129980025Y-77318884D01*
X130155405Y-77229524D01*
X130314646Y-77113828D01*
X130453828Y-76974646D01*
X130569524Y-76815405D01*
X130584692Y-76785635D01*
X130659515Y-76638787D01*
X130707489Y-76587990D01*
X130775310Y-76571195D01*
X130841445Y-76593732D01*
X130880485Y-76638787D01*
X130970474Y-76815403D01*
X131005234Y-76863246D01*
X131086172Y-76974646D01*
X131225354Y-77113828D01*
X131384595Y-77229524D01*
X131460519Y-77268209D01*
X131559970Y-77318882D01*
X131559972Y-77318882D01*
X131559975Y-77318884D01*
X131660317Y-77351487D01*
X131747173Y-77379709D01*
X131941578Y-77410500D01*
X131941583Y-77410500D01*
X132138422Y-77410500D01*
X132332826Y-77379709D01*
X132520025Y-77318884D01*
X132695405Y-77229524D01*
X132854646Y-77113828D01*
X132993828Y-76974646D01*
X133109524Y-76815405D01*
X133124692Y-76785635D01*
X133199515Y-76638787D01*
X133247489Y-76587990D01*
X133315310Y-76571195D01*
X133381445Y-76593732D01*
X133420485Y-76638787D01*
X133510474Y-76815403D01*
X133545234Y-76863246D01*
X133626172Y-76974646D01*
X133765354Y-77113828D01*
X133924595Y-77229524D01*
X134000519Y-77268209D01*
X134099970Y-77318882D01*
X134099972Y-77318882D01*
X134099975Y-77318884D01*
X134200317Y-77351487D01*
X134287173Y-77379709D01*
X134481578Y-77410500D01*
X134481583Y-77410500D01*
X134678422Y-77410500D01*
X134872826Y-77379709D01*
X135060025Y-77318884D01*
X135235405Y-77229524D01*
X135394646Y-77113828D01*
X135533828Y-76974646D01*
X135649524Y-76815405D01*
X135738884Y-76640025D01*
X135799709Y-76452826D01*
X135806413Y-76410500D01*
X135830500Y-76258422D01*
X135830500Y-75894267D01*
X135850185Y-75827228D01*
X135902989Y-75781473D01*
X135972147Y-75771529D01*
X136035703Y-75800554D01*
X136054817Y-75821380D01*
X136166172Y-75974646D01*
X136305354Y-76113828D01*
X136464595Y-76229524D01*
X136521301Y-76258417D01*
X136639970Y-76318882D01*
X136639972Y-76318882D01*
X136639975Y-76318884D01*
X136740317Y-76351487D01*
X136827173Y-76379709D01*
X137021578Y-76410500D01*
X137021583Y-76410500D01*
X138218422Y-76410500D01*
X138412826Y-76379709D01*
X138600025Y-76318884D01*
X138775405Y-76229524D01*
X138934646Y-76113828D01*
X139073828Y-75974646D01*
X139189524Y-75815405D01*
X139265015Y-75667245D01*
X139312989Y-75616448D01*
X139380810Y-75599653D01*
X139446945Y-75622190D01*
X139490397Y-75676905D01*
X139499500Y-75723539D01*
X139499500Y-99927373D01*
X139479815Y-99994412D01*
X139471757Y-100001393D01*
X139496005Y-100043392D01*
X139499500Y-100072626D01*
X139499500Y-147427373D01*
X139479815Y-147494412D01*
X139471757Y-147501393D01*
X139496005Y-147543392D01*
X139499500Y-147572626D01*
X139499500Y-151875500D01*
X139479815Y-151942539D01*
X139427011Y-151988294D01*
X139375500Y-151999500D01*
X95624500Y-151999500D01*
X95557461Y-151979815D01*
X95511706Y-151927011D01*
X95500500Y-151875500D01*
X95500500Y-147572626D01*
X95520185Y-147505587D01*
X95523400Y-147502801D01*
X95721054Y-147502801D01*
X95743477Y-147537691D01*
X95748360Y-147566726D01*
X95764447Y-147904450D01*
X95822071Y-148305231D01*
X95917531Y-148698722D01*
X95917534Y-148698733D01*
X96049956Y-149081340D01*
X96049966Y-149081365D01*
X96218168Y-149449675D01*
X96420621Y-149800335D01*
X96420627Y-149800343D01*
X96655485Y-150130154D01*
X96822985Y-150323460D01*
X98313098Y-148833347D01*
X98380076Y-148920635D01*
X98579365Y-149119924D01*
X98666650Y-149186900D01*
X97174928Y-150678622D01*
X97213676Y-150715568D01*
X97213695Y-150715585D01*
X97531968Y-150965877D01*
X97872594Y-151184782D01*
X98232485Y-151370319D01*
X98608383Y-151520806D01*
X98608395Y-151520810D01*
X98996882Y-151634880D01*
X98996899Y-151634884D01*
X99394460Y-151711508D01*
X99394472Y-151711510D01*
X99797554Y-151750000D01*
X100202446Y-151750000D01*
X100605527Y-151711510D01*
X100605539Y-151711508D01*
X101003100Y-151634884D01*
X101003117Y-151634880D01*
X101391604Y-151520810D01*
X101391616Y-151520806D01*
X101767507Y-151370322D01*
X101767511Y-151370320D01*
X102127406Y-151184782D01*
X102468031Y-150965877D01*
X102786314Y-150715578D01*
X102825069Y-150678622D01*
X101333348Y-149186901D01*
X101420635Y-149119924D01*
X101619924Y-148920635D01*
X101686901Y-148833348D01*
X103177012Y-150323459D01*
X103344512Y-150130156D01*
X103344523Y-150130143D01*
X103579372Y-149800343D01*
X103579378Y-149800335D01*
X103781831Y-149449675D01*
X103950033Y-149081365D01*
X103950043Y-149081340D01*
X104082465Y-148698733D01*
X104082468Y-148698722D01*
X104177928Y-148305231D01*
X104235552Y-147904450D01*
X104254818Y-147500000D01*
X104235552Y-147095549D01*
X104177928Y-146694768D01*
X104082468Y-146301277D01*
X104082465Y-146301266D01*
X103950043Y-145918659D01*
X103950033Y-145918634D01*
X103781831Y-145550324D01*
X103579378Y-145199664D01*
X103579372Y-145199656D01*
X103344523Y-144869856D01*
X103344512Y-144869843D01*
X103177013Y-144676538D01*
X101686900Y-146166650D01*
X101619924Y-146079365D01*
X101420635Y-145880076D01*
X101333348Y-145813098D01*
X102825070Y-144321376D01*
X102786323Y-144284431D01*
X102786304Y-144284414D01*
X102468031Y-144034122D01*
X102127406Y-143815217D01*
X101767511Y-143629679D01*
X101767507Y-143629677D01*
X101391616Y-143479193D01*
X101391604Y-143479189D01*
X101003117Y-143365119D01*
X101003100Y-143365115D01*
X100605539Y-143288491D01*
X100605527Y-143288489D01*
X100202446Y-143250000D01*
X99797554Y-143250000D01*
X99394472Y-143288489D01*
X99394460Y-143288491D01*
X98996899Y-143365115D01*
X98996882Y-143365119D01*
X98608395Y-143479189D01*
X98608383Y-143479193D01*
X98232485Y-143629680D01*
X97872594Y-143815217D01*
X97531968Y-144034122D01*
X97213685Y-144284421D01*
X97213673Y-144284432D01*
X97174929Y-144321375D01*
X97174929Y-144321376D01*
X98666651Y-145813098D01*
X98579365Y-145880076D01*
X98380076Y-146079365D01*
X98313098Y-146166651D01*
X96822986Y-144676539D01*
X96655485Y-144869845D01*
X96420627Y-145199656D01*
X96420621Y-145199664D01*
X96218168Y-145550324D01*
X96049966Y-145918634D01*
X96049956Y-145918659D01*
X95917534Y-146301266D01*
X95917531Y-146301277D01*
X95822071Y-146694768D01*
X95764447Y-147095549D01*
X95748360Y-147433273D01*
X95725507Y-147499300D01*
X95721054Y-147502801D01*
X95523400Y-147502801D01*
X95528242Y-147498605D01*
X95503995Y-147456607D01*
X95500500Y-147427373D01*
X95500500Y-100072626D01*
X95520185Y-100005587D01*
X95523400Y-100002801D01*
X95721054Y-100002801D01*
X95743477Y-100037691D01*
X95748360Y-100066726D01*
X95764447Y-100404450D01*
X95822071Y-100805231D01*
X95917531Y-101198722D01*
X95917534Y-101198733D01*
X96049956Y-101581340D01*
X96049966Y-101581365D01*
X96218168Y-101949675D01*
X96420621Y-102300335D01*
X96420627Y-102300343D01*
X96655485Y-102630154D01*
X96822985Y-102823460D01*
X98313098Y-101333347D01*
X98380076Y-101420635D01*
X98579365Y-101619924D01*
X98666650Y-101686900D01*
X97174928Y-103178622D01*
X97213676Y-103215568D01*
X97213695Y-103215585D01*
X97531968Y-103465877D01*
X97872594Y-103684782D01*
X98232485Y-103870319D01*
X98608383Y-104020806D01*
X98608395Y-104020810D01*
X98996882Y-104134880D01*
X98996899Y-104134884D01*
X99394460Y-104211508D01*
X99394472Y-104211510D01*
X99797554Y-104250000D01*
X100202446Y-104250000D01*
X100605527Y-104211510D01*
X100605539Y-104211508D01*
X101003100Y-104134884D01*
X101003117Y-104134880D01*
X101391604Y-104020810D01*
X101391616Y-104020806D01*
X101767507Y-103870322D01*
X101767511Y-103870320D01*
X102127406Y-103684782D01*
X102468031Y-103465877D01*
X102786314Y-103215578D01*
X102825069Y-103178622D01*
X101333348Y-101686901D01*
X101420635Y-101619924D01*
X101619924Y-101420635D01*
X101686901Y-101333348D01*
X103177012Y-102823459D01*
X103344512Y-102630156D01*
X103344523Y-102630143D01*
X103579372Y-102300343D01*
X103579378Y-102300335D01*
X103781831Y-101949675D01*
X103884445Y-101724983D01*
X107149500Y-101724983D01*
X107149500Y-103275001D01*
X107149501Y-103275018D01*
X107160000Y-103377796D01*
X107160001Y-103377799D01*
X107213378Y-103538879D01*
X107215186Y-103544334D01*
X107307288Y-103693656D01*
X107431344Y-103817712D01*
X107580666Y-103909814D01*
X107747203Y-103964999D01*
X107849991Y-103975500D01*
X109150008Y-103975499D01*
X109252797Y-103964999D01*
X109419334Y-103909814D01*
X109568656Y-103817712D01*
X109692712Y-103693656D01*
X109784814Y-103544334D01*
X109784814Y-103544331D01*
X109788178Y-103538879D01*
X109840126Y-103492154D01*
X109909088Y-103480931D01*
X109973170Y-103508774D01*
X109981398Y-103516294D01*
X110120213Y-103655109D01*
X110292184Y-103780051D01*
X110292184Y-103780052D01*
X110331793Y-103800233D01*
X110382590Y-103848206D01*
X110399500Y-103910718D01*
X110399500Y-103913330D01*
X110399499Y-103913348D01*
X110399499Y-104079054D01*
X110399498Y-104079054D01*
X110399499Y-104079057D01*
X110440423Y-104231785D01*
X110440424Y-104231787D01*
X110440423Y-104231787D01*
X110446553Y-104242403D01*
X110446554Y-104242404D01*
X110519477Y-104368712D01*
X110519479Y-104368715D01*
X110519480Y-104368716D01*
X110631284Y-104480520D01*
X110631285Y-104480521D01*
X111131284Y-104980520D01*
X111131286Y-104980521D01*
X111131290Y-104980524D01*
X111234307Y-105040000D01*
X111268216Y-105059577D01*
X111420943Y-105100501D01*
X111420945Y-105100501D01*
X111586654Y-105100501D01*
X111586670Y-105100500D01*
X113250903Y-105100500D01*
X113317942Y-105120185D01*
X113363697Y-105172989D01*
X113373641Y-105242147D01*
X113344616Y-105305703D01*
X113338584Y-105312179D01*
X111930371Y-106720393D01*
X110631286Y-108019478D01*
X110519481Y-108131282D01*
X110519479Y-108131285D01*
X110514490Y-108139927D01*
X110484024Y-108192696D01*
X110440423Y-108268215D01*
X110399499Y-108420943D01*
X110399499Y-108420945D01*
X110399499Y-108589046D01*
X110399500Y-108589059D01*
X110399500Y-108589281D01*
X110379815Y-108656320D01*
X110331795Y-108699765D01*
X110292185Y-108719947D01*
X110292184Y-108719948D01*
X110120215Y-108844889D01*
X109981398Y-108983706D01*
X109920075Y-109017190D01*
X109850383Y-109012206D01*
X109794450Y-108970334D01*
X109788178Y-108961120D01*
X109746322Y-108893261D01*
X109692712Y-108806344D01*
X109568656Y-108682288D01*
X109419334Y-108590186D01*
X109252797Y-108535001D01*
X109252795Y-108535000D01*
X109150010Y-108524500D01*
X107849998Y-108524500D01*
X107849981Y-108524501D01*
X107747203Y-108535000D01*
X107747200Y-108535001D01*
X107580668Y-108590185D01*
X107580663Y-108590187D01*
X107431342Y-108682289D01*
X107307289Y-108806342D01*
X107215187Y-108955663D01*
X107215185Y-108955668D01*
X107210325Y-108970334D01*
X107160001Y-109122203D01*
X107160001Y-109122204D01*
X107160000Y-109122204D01*
X107149500Y-109224983D01*
X107149500Y-110775001D01*
X107149501Y-110775018D01*
X107160000Y-110877796D01*
X107160001Y-110877799D01*
X107205894Y-111016294D01*
X107215186Y-111044334D01*
X107307288Y-111193656D01*
X107431344Y-111317712D01*
X107580666Y-111409814D01*
X107747203Y-111464999D01*
X107849991Y-111475500D01*
X109150008Y-111475499D01*
X109252797Y-111464999D01*
X109419334Y-111409814D01*
X109568656Y-111317712D01*
X109692712Y-111193656D01*
X109784814Y-111044334D01*
X109784814Y-111044331D01*
X109788178Y-111038879D01*
X109840126Y-110992154D01*
X109909088Y-110980931D01*
X109973170Y-111008774D01*
X109981398Y-111016294D01*
X110120213Y-111155109D01*
X110292179Y-111280048D01*
X110292181Y-111280049D01*
X110292184Y-111280051D01*
X110481588Y-111376557D01*
X110683757Y-111442246D01*
X110893713Y-111475500D01*
X110893714Y-111475500D01*
X111106286Y-111475500D01*
X111106287Y-111475500D01*
X111316243Y-111442246D01*
X111518412Y-111376557D01*
X111707816Y-111280051D01*
X111772497Y-111233058D01*
X111879786Y-111155109D01*
X111879788Y-111155106D01*
X111879792Y-111155104D01*
X112030104Y-111004792D01*
X112149991Y-110839779D01*
X112205320Y-110797115D01*
X112274933Y-110791136D01*
X112336729Y-110823741D01*
X112350627Y-110839781D01*
X112470272Y-111004459D01*
X112470276Y-111004464D01*
X112620535Y-111154723D01*
X112620540Y-111154727D01*
X112792442Y-111279620D01*
X112981782Y-111376095D01*
X113183871Y-111441757D01*
X113250000Y-111452231D01*
X113250000Y-110404145D01*
X113316657Y-110442630D01*
X113437465Y-110475000D01*
X113562535Y-110475000D01*
X113683343Y-110442630D01*
X113750000Y-110404145D01*
X113750000Y-111452230D01*
X113816126Y-111441757D01*
X113816129Y-111441757D01*
X114018217Y-111376095D01*
X114207552Y-111279623D01*
X114210706Y-111277691D01*
X114278151Y-111259444D01*
X114344754Y-111280557D01*
X114389370Y-111334327D01*
X114399500Y-111383416D01*
X114399500Y-113199902D01*
X114379815Y-113266941D01*
X114363181Y-113287583D01*
X111578867Y-116071896D01*
X111517544Y-116105381D01*
X111452868Y-116102146D01*
X111316240Y-116057753D01*
X111151064Y-116031592D01*
X111106287Y-116024500D01*
X110893713Y-116024500D01*
X110848936Y-116031592D01*
X110683760Y-116057753D01*
X110481585Y-116123444D01*
X110292179Y-116219951D01*
X110120215Y-116344889D01*
X109981398Y-116483706D01*
X109920075Y-116517190D01*
X109850383Y-116512206D01*
X109794450Y-116470334D01*
X109788178Y-116461120D01*
X109692712Y-116306344D01*
X109568657Y-116182289D01*
X109568656Y-116182288D01*
X109443969Y-116105381D01*
X109419336Y-116090187D01*
X109419331Y-116090185D01*
X109417862Y-116089698D01*
X109252797Y-116035001D01*
X109252795Y-116035000D01*
X109150010Y-116024500D01*
X107849998Y-116024500D01*
X107849981Y-116024501D01*
X107747203Y-116035000D01*
X107747200Y-116035001D01*
X107580668Y-116090185D01*
X107580663Y-116090187D01*
X107431342Y-116182289D01*
X107307289Y-116306342D01*
X107215187Y-116455663D01*
X107215185Y-116455668D01*
X107210436Y-116470000D01*
X107160001Y-116622203D01*
X107160001Y-116622204D01*
X107160000Y-116622204D01*
X107149500Y-116724983D01*
X107149500Y-118275001D01*
X107149501Y-118275018D01*
X107160000Y-118377796D01*
X107160001Y-118377799D01*
X107205894Y-118516294D01*
X107215186Y-118544334D01*
X107307288Y-118693656D01*
X107431344Y-118817712D01*
X107580666Y-118909814D01*
X107747203Y-118964999D01*
X107849991Y-118975500D01*
X109150008Y-118975499D01*
X109252797Y-118964999D01*
X109419334Y-118909814D01*
X109568656Y-118817712D01*
X109692712Y-118693656D01*
X109784814Y-118544334D01*
X109784814Y-118544331D01*
X109788178Y-118538879D01*
X109840126Y-118492154D01*
X109909088Y-118480931D01*
X109973170Y-118508774D01*
X109981398Y-118516294D01*
X110120213Y-118655109D01*
X110292179Y-118780048D01*
X110292181Y-118780049D01*
X110292184Y-118780051D01*
X110481588Y-118876557D01*
X110683757Y-118942246D01*
X110893713Y-118975500D01*
X110893714Y-118975500D01*
X111106286Y-118975500D01*
X111106287Y-118975500D01*
X111316243Y-118942246D01*
X111518412Y-118876557D01*
X111707816Y-118780051D01*
X111798439Y-118714210D01*
X111879786Y-118655109D01*
X111879788Y-118655106D01*
X111879792Y-118655104D01*
X112030104Y-118504792D01*
X112149991Y-118339779D01*
X112205320Y-118297115D01*
X112274933Y-118291136D01*
X112336729Y-118323741D01*
X112350627Y-118339781D01*
X112470272Y-118504459D01*
X112470276Y-118504464D01*
X112620535Y-118654723D01*
X112620540Y-118654727D01*
X112792442Y-118779620D01*
X112981782Y-118876095D01*
X113183871Y-118941757D01*
X113250000Y-118952231D01*
X113250000Y-117904145D01*
X113316657Y-117942630D01*
X113437465Y-117975000D01*
X113562535Y-117975000D01*
X113683343Y-117942630D01*
X113750000Y-117904145D01*
X113750000Y-118952230D01*
X113816126Y-118941757D01*
X113816129Y-118941757D01*
X114018217Y-118876095D01*
X114207557Y-118779620D01*
X114379459Y-118654727D01*
X114379464Y-118654723D01*
X114529723Y-118504464D01*
X114529727Y-118504459D01*
X114654622Y-118332555D01*
X114665015Y-118312159D01*
X114712989Y-118261362D01*
X114780810Y-118244567D01*
X114846945Y-118267104D01*
X114890397Y-118321819D01*
X114899500Y-118368453D01*
X114899500Y-120199902D01*
X114879815Y-120266941D01*
X114863181Y-120287583D01*
X111578867Y-123571896D01*
X111517544Y-123605381D01*
X111452868Y-123602146D01*
X111316240Y-123557753D01*
X111154957Y-123532208D01*
X111106287Y-123524500D01*
X110893713Y-123524500D01*
X110845042Y-123532208D01*
X110683760Y-123557753D01*
X110481585Y-123623444D01*
X110292179Y-123719951D01*
X110120215Y-123844889D01*
X109981398Y-123983706D01*
X109920075Y-124017190D01*
X109850383Y-124012206D01*
X109794450Y-123970334D01*
X109788178Y-123961120D01*
X109692712Y-123806344D01*
X109568657Y-123682289D01*
X109568656Y-123682288D01*
X109443969Y-123605381D01*
X109419336Y-123590187D01*
X109419331Y-123590185D01*
X109417862Y-123589698D01*
X109252797Y-123535001D01*
X109252795Y-123535000D01*
X109150010Y-123524500D01*
X107849998Y-123524500D01*
X107849981Y-123524501D01*
X107747203Y-123535000D01*
X107747200Y-123535001D01*
X107580668Y-123590185D01*
X107580663Y-123590187D01*
X107431342Y-123682289D01*
X107307289Y-123806342D01*
X107215187Y-123955663D01*
X107215185Y-123955668D01*
X107210325Y-123970334D01*
X107160001Y-124122203D01*
X107160001Y-124122204D01*
X107160000Y-124122204D01*
X107149500Y-124224983D01*
X107149500Y-125775001D01*
X107149501Y-125775018D01*
X107160000Y-125877796D01*
X107160001Y-125877799D01*
X107205894Y-126016294D01*
X107215186Y-126044334D01*
X107307288Y-126193656D01*
X107431344Y-126317712D01*
X107580666Y-126409814D01*
X107747203Y-126464999D01*
X107849991Y-126475500D01*
X109150008Y-126475499D01*
X109252797Y-126464999D01*
X109419334Y-126409814D01*
X109568656Y-126317712D01*
X109692712Y-126193656D01*
X109784814Y-126044334D01*
X109784814Y-126044331D01*
X109788178Y-126038879D01*
X109840126Y-125992154D01*
X109909088Y-125980931D01*
X109973170Y-126008774D01*
X109981398Y-126016294D01*
X110120213Y-126155109D01*
X110292179Y-126280048D01*
X110292181Y-126280049D01*
X110292184Y-126280051D01*
X110481588Y-126376557D01*
X110683757Y-126442246D01*
X110893713Y-126475500D01*
X110893714Y-126475500D01*
X111106286Y-126475500D01*
X111106287Y-126475500D01*
X111316243Y-126442246D01*
X111518412Y-126376557D01*
X111707816Y-126280051D01*
X111729789Y-126264086D01*
X111879786Y-126155109D01*
X111879788Y-126155106D01*
X111879792Y-126155104D01*
X112030104Y-126004792D01*
X112149991Y-125839779D01*
X112205320Y-125797115D01*
X112274933Y-125791136D01*
X112336729Y-125823741D01*
X112350627Y-125839781D01*
X112470272Y-126004459D01*
X112470276Y-126004464D01*
X112620535Y-126154723D01*
X112620540Y-126154727D01*
X112792442Y-126279620D01*
X112981782Y-126376095D01*
X113183871Y-126441757D01*
X113250000Y-126452231D01*
X113250000Y-125404145D01*
X113316657Y-125442630D01*
X113437465Y-125475000D01*
X113562535Y-125475000D01*
X113683343Y-125442630D01*
X113750000Y-125404145D01*
X113750000Y-126452230D01*
X113816126Y-126441757D01*
X113816129Y-126441757D01*
X114018217Y-126376095D01*
X114207557Y-126279620D01*
X114379459Y-126154727D01*
X114379464Y-126154723D01*
X114529723Y-126004464D01*
X114529727Y-126004459D01*
X114654620Y-125832557D01*
X114751095Y-125643217D01*
X114816757Y-125441130D01*
X114816757Y-125441127D01*
X114847030Y-125250000D01*
X113904146Y-125250000D01*
X113942630Y-125183343D01*
X113975000Y-125062535D01*
X113975000Y-124937465D01*
X113942630Y-124816657D01*
X113904146Y-124750000D01*
X114847030Y-124750000D01*
X114816757Y-124558872D01*
X114816757Y-124558869D01*
X114751095Y-124356782D01*
X114654620Y-124167442D01*
X114529727Y-123995540D01*
X114529723Y-123995535D01*
X114379464Y-123845276D01*
X114379459Y-123845272D01*
X114207557Y-123720379D01*
X114018217Y-123623904D01*
X113816129Y-123558242D01*
X113603159Y-123524511D01*
X113540024Y-123494582D01*
X113503093Y-123435270D01*
X113504091Y-123365408D01*
X113534873Y-123314360D01*
X115187821Y-121661413D01*
X115249142Y-121627930D01*
X115318834Y-121632914D01*
X115374767Y-121674786D01*
X115399184Y-121740250D01*
X115399500Y-121749096D01*
X115399500Y-127199902D01*
X115379815Y-127266941D01*
X115363181Y-127287583D01*
X111578867Y-131071896D01*
X111517544Y-131105381D01*
X111452868Y-131102146D01*
X111316240Y-131057753D01*
X111154957Y-131032208D01*
X111106287Y-131024500D01*
X110893713Y-131024500D01*
X110845042Y-131032208D01*
X110683760Y-131057753D01*
X110481585Y-131123444D01*
X110292179Y-131219951D01*
X110120215Y-131344889D01*
X109981398Y-131483706D01*
X109920075Y-131517190D01*
X109850383Y-131512206D01*
X109794450Y-131470334D01*
X109788178Y-131461120D01*
X109692712Y-131306344D01*
X109568657Y-131182289D01*
X109568656Y-131182288D01*
X109443969Y-131105381D01*
X109419336Y-131090187D01*
X109419331Y-131090185D01*
X109417862Y-131089698D01*
X109252797Y-131035001D01*
X109252795Y-131035000D01*
X109150010Y-131024500D01*
X107849998Y-131024500D01*
X107849981Y-131024501D01*
X107747203Y-131035000D01*
X107747200Y-131035001D01*
X107580668Y-131090185D01*
X107580663Y-131090187D01*
X107431342Y-131182289D01*
X107307289Y-131306342D01*
X107215187Y-131455663D01*
X107215185Y-131455668D01*
X107210325Y-131470334D01*
X107160001Y-131622203D01*
X107160001Y-131622204D01*
X107160000Y-131622204D01*
X107149500Y-131724983D01*
X107149500Y-133275001D01*
X107149501Y-133275018D01*
X107160000Y-133377796D01*
X107160001Y-133377799D01*
X107205894Y-133516294D01*
X107215186Y-133544334D01*
X107307288Y-133693656D01*
X107431344Y-133817712D01*
X107580666Y-133909814D01*
X107747203Y-133964999D01*
X107849991Y-133975500D01*
X109150008Y-133975499D01*
X109252797Y-133964999D01*
X109419334Y-133909814D01*
X109568656Y-133817712D01*
X109692712Y-133693656D01*
X109784814Y-133544334D01*
X109784814Y-133544331D01*
X109788178Y-133538879D01*
X109840126Y-133492154D01*
X109909088Y-133480931D01*
X109973170Y-133508774D01*
X109981398Y-133516294D01*
X110120213Y-133655109D01*
X110292179Y-133780048D01*
X110292181Y-133780049D01*
X110292184Y-133780051D01*
X110481588Y-133876557D01*
X110683757Y-133942246D01*
X110893713Y-133975500D01*
X110893714Y-133975500D01*
X111106286Y-133975500D01*
X111106287Y-133975500D01*
X111316243Y-133942246D01*
X111518412Y-133876557D01*
X111707816Y-133780051D01*
X111729789Y-133764086D01*
X111879786Y-133655109D01*
X111879788Y-133655106D01*
X111879792Y-133655104D01*
X112030104Y-133504792D01*
X112149991Y-133339779D01*
X112205320Y-133297115D01*
X112274933Y-133291136D01*
X112336729Y-133323741D01*
X112350627Y-133339781D01*
X112470272Y-133504459D01*
X112470276Y-133504464D01*
X112620535Y-133654723D01*
X112620540Y-133654727D01*
X112792442Y-133779620D01*
X112981782Y-133876095D01*
X113183871Y-133941757D01*
X113250000Y-133952231D01*
X113250000Y-132904145D01*
X113316657Y-132942630D01*
X113437465Y-132975000D01*
X113562535Y-132975000D01*
X113683343Y-132942630D01*
X113750000Y-132904145D01*
X113750000Y-133952230D01*
X113816126Y-133941757D01*
X113816129Y-133941757D01*
X114018217Y-133876095D01*
X114207557Y-133779620D01*
X114379459Y-133654727D01*
X114379464Y-133654723D01*
X114529723Y-133504464D01*
X114529727Y-133504459D01*
X114654620Y-133332557D01*
X114751095Y-133143217D01*
X114816757Y-132941130D01*
X114816757Y-132941127D01*
X114847030Y-132750000D01*
X113904146Y-132750000D01*
X113942630Y-132683343D01*
X113975000Y-132562535D01*
X113975000Y-132437465D01*
X113942630Y-132316657D01*
X113904146Y-132250000D01*
X114847030Y-132250000D01*
X114816757Y-132058872D01*
X114816757Y-132058869D01*
X114751095Y-131856782D01*
X114654620Y-131667442D01*
X114529727Y-131495540D01*
X114529723Y-131495535D01*
X114379464Y-131345276D01*
X114379459Y-131345272D01*
X114207557Y-131220379D01*
X114018217Y-131123904D01*
X113816129Y-131058242D01*
X113603159Y-131024511D01*
X113540024Y-130994582D01*
X113503093Y-130935270D01*
X113504091Y-130865408D01*
X113534873Y-130814360D01*
X115687821Y-128661413D01*
X115749142Y-128627930D01*
X115818834Y-128632914D01*
X115874767Y-128674786D01*
X115899184Y-128740250D01*
X115899500Y-128749096D01*
X115899500Y-134199902D01*
X115879815Y-134266941D01*
X115863181Y-134287583D01*
X111578867Y-138571896D01*
X111517544Y-138605381D01*
X111452868Y-138602146D01*
X111316240Y-138557753D01*
X111154957Y-138532208D01*
X111106287Y-138524500D01*
X110893713Y-138524500D01*
X110845042Y-138532208D01*
X110683760Y-138557753D01*
X110481585Y-138623444D01*
X110292179Y-138719951D01*
X110120215Y-138844889D01*
X109981398Y-138983706D01*
X109920075Y-139017190D01*
X109850383Y-139012206D01*
X109794450Y-138970334D01*
X109788178Y-138961120D01*
X109692712Y-138806344D01*
X109568657Y-138682289D01*
X109568656Y-138682288D01*
X109443969Y-138605381D01*
X109419336Y-138590187D01*
X109419331Y-138590185D01*
X109417862Y-138589698D01*
X109252797Y-138535001D01*
X109252795Y-138535000D01*
X109150010Y-138524500D01*
X107849998Y-138524500D01*
X107849981Y-138524501D01*
X107747203Y-138535000D01*
X107747200Y-138535001D01*
X107580668Y-138590185D01*
X107580663Y-138590187D01*
X107431342Y-138682289D01*
X107307289Y-138806342D01*
X107215187Y-138955663D01*
X107215185Y-138955668D01*
X107210325Y-138970334D01*
X107160001Y-139122203D01*
X107160001Y-139122204D01*
X107160000Y-139122204D01*
X107149500Y-139224983D01*
X107149500Y-140775001D01*
X107149501Y-140775018D01*
X107160000Y-140877796D01*
X107160001Y-140877799D01*
X107205894Y-141016294D01*
X107215186Y-141044334D01*
X107307288Y-141193656D01*
X107431344Y-141317712D01*
X107580666Y-141409814D01*
X107747203Y-141464999D01*
X107849991Y-141475500D01*
X109150008Y-141475499D01*
X109252797Y-141464999D01*
X109419334Y-141409814D01*
X109568656Y-141317712D01*
X109692712Y-141193656D01*
X109784814Y-141044334D01*
X109784814Y-141044331D01*
X109788178Y-141038879D01*
X109840126Y-140992154D01*
X109909088Y-140980931D01*
X109973170Y-141008774D01*
X109981398Y-141016294D01*
X110120213Y-141155109D01*
X110292179Y-141280048D01*
X110292181Y-141280049D01*
X110292184Y-141280051D01*
X110481588Y-141376557D01*
X110683757Y-141442246D01*
X110893713Y-141475500D01*
X110893714Y-141475500D01*
X111106286Y-141475500D01*
X111106287Y-141475500D01*
X111316243Y-141442246D01*
X111518412Y-141376557D01*
X111707816Y-141280051D01*
X111747437Y-141251265D01*
X111879786Y-141155109D01*
X111879788Y-141155106D01*
X111879792Y-141155104D01*
X112030104Y-141004792D01*
X112149991Y-140839779D01*
X112205320Y-140797115D01*
X112274933Y-140791136D01*
X112336729Y-140823741D01*
X112350627Y-140839781D01*
X112470272Y-141004459D01*
X112470276Y-141004464D01*
X112620535Y-141154723D01*
X112620540Y-141154727D01*
X112792442Y-141279620D01*
X112981782Y-141376095D01*
X113183871Y-141441757D01*
X113250000Y-141452231D01*
X113250000Y-140404145D01*
X113316657Y-140442630D01*
X113437465Y-140475000D01*
X113562535Y-140475000D01*
X113683343Y-140442630D01*
X113750000Y-140404145D01*
X113750000Y-141452230D01*
X113816126Y-141441757D01*
X113816129Y-141441757D01*
X114018217Y-141376095D01*
X114207557Y-141279620D01*
X114379459Y-141154727D01*
X114379464Y-141154723D01*
X114529723Y-141004464D01*
X114529727Y-141004459D01*
X114654620Y-140832557D01*
X114751095Y-140643217D01*
X114816757Y-140441130D01*
X114816757Y-140441127D01*
X114847030Y-140250000D01*
X113904146Y-140250000D01*
X113942630Y-140183343D01*
X113975000Y-140062535D01*
X113975000Y-139937465D01*
X113942630Y-139816657D01*
X113904146Y-139750000D01*
X114847030Y-139750000D01*
X114816757Y-139558872D01*
X114816757Y-139558869D01*
X114751095Y-139356782D01*
X114654620Y-139167442D01*
X114529727Y-138995540D01*
X114529723Y-138995535D01*
X114379464Y-138845276D01*
X114379459Y-138845272D01*
X114207557Y-138720379D01*
X114018217Y-138623904D01*
X113816129Y-138558242D01*
X113603159Y-138524511D01*
X113540024Y-138494582D01*
X113503093Y-138435270D01*
X113504091Y-138365408D01*
X113534874Y-138314360D01*
X116187821Y-135661413D01*
X116249142Y-135627930D01*
X116318834Y-135632914D01*
X116374767Y-135674786D01*
X116399184Y-135740250D01*
X116399500Y-135749096D01*
X116399500Y-141199902D01*
X116379815Y-141266941D01*
X116363181Y-141287583D01*
X111578867Y-146071896D01*
X111517544Y-146105381D01*
X111452868Y-146102146D01*
X111316240Y-146057753D01*
X111154957Y-146032208D01*
X111106287Y-146024500D01*
X110893713Y-146024500D01*
X110845042Y-146032208D01*
X110683760Y-146057753D01*
X110481585Y-146123444D01*
X110292179Y-146219951D01*
X110120215Y-146344889D01*
X109981398Y-146483706D01*
X109920075Y-146517190D01*
X109850383Y-146512206D01*
X109794450Y-146470334D01*
X109788178Y-146461120D01*
X109692712Y-146306344D01*
X109568657Y-146182289D01*
X109568656Y-146182288D01*
X109443969Y-146105381D01*
X109419336Y-146090187D01*
X109419331Y-146090185D01*
X109386678Y-146079365D01*
X109252797Y-146035001D01*
X109252795Y-146035000D01*
X109150010Y-146024500D01*
X107849998Y-146024500D01*
X107849981Y-146024501D01*
X107747203Y-146035000D01*
X107747200Y-146035001D01*
X107580668Y-146090185D01*
X107580663Y-146090187D01*
X107431342Y-146182289D01*
X107307289Y-146306342D01*
X107215187Y-146455663D01*
X107215185Y-146455668D01*
X107210325Y-146470334D01*
X107160001Y-146622203D01*
X107160001Y-146622204D01*
X107160000Y-146622204D01*
X107149500Y-146724983D01*
X107149500Y-148275001D01*
X107149501Y-148275018D01*
X107160000Y-148377796D01*
X107160001Y-148377799D01*
X107205894Y-148516294D01*
X107215186Y-148544334D01*
X107307288Y-148693656D01*
X107431344Y-148817712D01*
X107580666Y-148909814D01*
X107747203Y-148964999D01*
X107849991Y-148975500D01*
X109150008Y-148975499D01*
X109252797Y-148964999D01*
X109419334Y-148909814D01*
X109568656Y-148817712D01*
X109692712Y-148693656D01*
X109784814Y-148544334D01*
X109784814Y-148544331D01*
X109788178Y-148538879D01*
X109840126Y-148492154D01*
X109909088Y-148480931D01*
X109973170Y-148508774D01*
X109981398Y-148516294D01*
X110120213Y-148655109D01*
X110292179Y-148780048D01*
X110292181Y-148780049D01*
X110292184Y-148780051D01*
X110481588Y-148876557D01*
X110683757Y-148942246D01*
X110893713Y-148975500D01*
X110893714Y-148975500D01*
X111106286Y-148975500D01*
X111106287Y-148975500D01*
X111316243Y-148942246D01*
X111518412Y-148876557D01*
X111707816Y-148780051D01*
X111729789Y-148764086D01*
X111879786Y-148655109D01*
X111879788Y-148655106D01*
X111879792Y-148655104D01*
X112030104Y-148504792D01*
X112149991Y-148339779D01*
X112205320Y-148297115D01*
X112274933Y-148291136D01*
X112336729Y-148323741D01*
X112350627Y-148339781D01*
X112470272Y-148504459D01*
X112470276Y-148504464D01*
X112620535Y-148654723D01*
X112620540Y-148654727D01*
X112792442Y-148779620D01*
X112981782Y-148876095D01*
X113183871Y-148941757D01*
X113250000Y-148952231D01*
X113250000Y-147904145D01*
X113316657Y-147942630D01*
X113437465Y-147975000D01*
X113562535Y-147975000D01*
X113683343Y-147942630D01*
X113750000Y-147904145D01*
X113750000Y-148952230D01*
X113816126Y-148941757D01*
X113816129Y-148941757D01*
X114018217Y-148876095D01*
X114207557Y-148779620D01*
X114379459Y-148654727D01*
X114379464Y-148654723D01*
X114529723Y-148504464D01*
X114529727Y-148504459D01*
X114654620Y-148332557D01*
X114751095Y-148143217D01*
X114816757Y-147941130D01*
X114816757Y-147941127D01*
X114847030Y-147750000D01*
X113904146Y-147750000D01*
X113942630Y-147683343D01*
X113975000Y-147562535D01*
X113975000Y-147500000D01*
X130745181Y-147500000D01*
X130764447Y-147904450D01*
X130822071Y-148305231D01*
X130917531Y-148698722D01*
X130917534Y-148698733D01*
X131049956Y-149081340D01*
X131049966Y-149081365D01*
X131218168Y-149449675D01*
X131420621Y-149800335D01*
X131420627Y-149800343D01*
X131655485Y-150130154D01*
X131822985Y-150323460D01*
X133313098Y-148833347D01*
X133380076Y-148920635D01*
X133579365Y-149119924D01*
X133666650Y-149186900D01*
X132174928Y-150678622D01*
X132213676Y-150715568D01*
X132213695Y-150715585D01*
X132531968Y-150965877D01*
X132872594Y-151184782D01*
X133232485Y-151370319D01*
X133608383Y-151520806D01*
X133608395Y-151520810D01*
X133996882Y-151634880D01*
X133996899Y-151634884D01*
X134394460Y-151711508D01*
X134394472Y-151711510D01*
X134797554Y-151750000D01*
X135202446Y-151750000D01*
X135605527Y-151711510D01*
X135605539Y-151711508D01*
X136003100Y-151634884D01*
X136003117Y-151634880D01*
X136391604Y-151520810D01*
X136391616Y-151520806D01*
X136767507Y-151370322D01*
X136767511Y-151370320D01*
X137127406Y-151184782D01*
X137468031Y-150965877D01*
X137786314Y-150715578D01*
X137825069Y-150678622D01*
X136333348Y-149186901D01*
X136420635Y-149119924D01*
X136619924Y-148920635D01*
X136686901Y-148833348D01*
X138177012Y-150323459D01*
X138344512Y-150130156D01*
X138344523Y-150130143D01*
X138579372Y-149800343D01*
X138579378Y-149800335D01*
X138781831Y-149449675D01*
X138950033Y-149081365D01*
X138950043Y-149081340D01*
X139082465Y-148698733D01*
X139082468Y-148698722D01*
X139177928Y-148305231D01*
X139235552Y-147904450D01*
X139251640Y-147566726D01*
X139274493Y-147500699D01*
X139278945Y-147497197D01*
X139256523Y-147462308D01*
X139251640Y-147433273D01*
X139235552Y-147095549D01*
X139177928Y-146694768D01*
X139082468Y-146301277D01*
X139082465Y-146301266D01*
X138950043Y-145918659D01*
X138950033Y-145918634D01*
X138781831Y-145550324D01*
X138579378Y-145199664D01*
X138579372Y-145199656D01*
X138344523Y-144869856D01*
X138344512Y-144869843D01*
X138177013Y-144676538D01*
X136686900Y-146166650D01*
X136619924Y-146079365D01*
X136420635Y-145880076D01*
X136333348Y-145813098D01*
X137825070Y-144321376D01*
X137786323Y-144284431D01*
X137786304Y-144284414D01*
X137468031Y-144034122D01*
X137127406Y-143815217D01*
X136767511Y-143629679D01*
X136767507Y-143629677D01*
X136391616Y-143479193D01*
X136391604Y-143479189D01*
X136003117Y-143365119D01*
X136003100Y-143365115D01*
X135605539Y-143288491D01*
X135605527Y-143288489D01*
X135202446Y-143250000D01*
X134797554Y-143250000D01*
X134394472Y-143288489D01*
X134394460Y-143288491D01*
X133996899Y-143365115D01*
X133996882Y-143365119D01*
X133608395Y-143479189D01*
X133608383Y-143479193D01*
X133232485Y-143629680D01*
X132872594Y-143815217D01*
X132531968Y-144034122D01*
X132213685Y-144284421D01*
X132213673Y-144284432D01*
X132174929Y-144321375D01*
X132174929Y-144321376D01*
X133666651Y-145813098D01*
X133579365Y-145880076D01*
X133380076Y-146079365D01*
X133313098Y-146166651D01*
X131822986Y-144676539D01*
X131655485Y-144869845D01*
X131420627Y-145199656D01*
X131420621Y-145199664D01*
X131218168Y-145550324D01*
X131049966Y-145918634D01*
X131049956Y-145918659D01*
X130917534Y-146301266D01*
X130917531Y-146301277D01*
X130822071Y-146694768D01*
X130764447Y-147095549D01*
X130745181Y-147500000D01*
X113975000Y-147500000D01*
X113975000Y-147437465D01*
X113942630Y-147316657D01*
X113904146Y-147250000D01*
X114847030Y-147250000D01*
X114816757Y-147058872D01*
X114816757Y-147058869D01*
X114751095Y-146856782D01*
X114654620Y-146667442D01*
X114529727Y-146495540D01*
X114529723Y-146495535D01*
X114379464Y-146345276D01*
X114379459Y-146345272D01*
X114207557Y-146220379D01*
X114018217Y-146123904D01*
X113816129Y-146058242D01*
X113603158Y-146024511D01*
X113540023Y-145994582D01*
X113503092Y-145935270D01*
X113504090Y-145865408D01*
X113534871Y-145814362D01*
X117358506Y-141990728D01*
X117358511Y-141990724D01*
X117368714Y-141980520D01*
X117368716Y-141980520D01*
X117480520Y-141868716D01*
X117559577Y-141731784D01*
X117600500Y-141579057D01*
X117600500Y-121475982D01*
X117620185Y-121408943D01*
X117672989Y-121363188D01*
X117742147Y-121353244D01*
X117795621Y-121374406D01*
X117847266Y-121410568D01*
X118053504Y-121506739D01*
X118273308Y-121565635D01*
X118435230Y-121579801D01*
X118499998Y-121585468D01*
X118500000Y-121585468D01*
X118500002Y-121585468D01*
X118556673Y-121580509D01*
X118726692Y-121565635D01*
X118946496Y-121506739D01*
X119152734Y-121410568D01*
X119339139Y-121280047D01*
X119500047Y-121119139D01*
X119630568Y-120932734D01*
X119726739Y-120726496D01*
X119785635Y-120506692D01*
X119805468Y-120280000D01*
X119804325Y-120266941D01*
X119785635Y-120053313D01*
X119785635Y-120053308D01*
X119726739Y-119833504D01*
X119630568Y-119627266D01*
X119500047Y-119440861D01*
X119500045Y-119440858D01*
X119339141Y-119279954D01*
X119152734Y-119149432D01*
X119152728Y-119149429D01*
X119094725Y-119122382D01*
X119042285Y-119076210D01*
X119023133Y-119009017D01*
X119043348Y-118942135D01*
X119094725Y-118897618D01*
X119152734Y-118870568D01*
X119339139Y-118740047D01*
X119500047Y-118579139D01*
X119630568Y-118392734D01*
X119726739Y-118186496D01*
X119785635Y-117966692D01*
X119805468Y-117740000D01*
X119785635Y-117513308D01*
X119759847Y-117417066D01*
X119761510Y-117347217D01*
X119791939Y-117297294D01*
X121980520Y-115108716D01*
X122059577Y-114971784D01*
X122100501Y-114819057D01*
X122100501Y-114660942D01*
X122100501Y-114653347D01*
X122100500Y-114653329D01*
X122100500Y-112314000D01*
X122120185Y-112246961D01*
X122172989Y-112201206D01*
X122224500Y-112190000D01*
X122750000Y-112190000D01*
X123250000Y-112190000D01*
X123915634Y-112190000D01*
X123915649Y-112189999D01*
X123952489Y-112187100D01*
X123952495Y-112187099D01*
X124110193Y-112141283D01*
X124110196Y-112141282D01*
X124251552Y-112057685D01*
X124251561Y-112057678D01*
X124367678Y-111941561D01*
X124367685Y-111941552D01*
X124451281Y-111800198D01*
X124497100Y-111642486D01*
X124497295Y-111640001D01*
X124497295Y-111640000D01*
X123250000Y-111640000D01*
X123250000Y-112190000D01*
X122750000Y-112190000D01*
X122750000Y-111264000D01*
X122769685Y-111196961D01*
X122822489Y-111151206D01*
X122874000Y-111140000D01*
X124497295Y-111140000D01*
X124497295Y-111139998D01*
X124497100Y-111137513D01*
X124451281Y-110979801D01*
X124367685Y-110838447D01*
X124362900Y-110832278D01*
X124365366Y-110830364D01*
X124338802Y-110781776D01*
X124343749Y-110712082D01*
X124364856Y-110679232D01*
X124363301Y-110678026D01*
X124368077Y-110671868D01*
X124368081Y-110671865D01*
X124451744Y-110530398D01*
X124486356Y-110411265D01*
X124497597Y-110372573D01*
X124497598Y-110372567D01*
X124500499Y-110335701D01*
X124500500Y-110335694D01*
X124500500Y-109904306D01*
X124497598Y-109867431D01*
X124497497Y-109867084D01*
X124451745Y-109709606D01*
X124451744Y-109709603D01*
X124451744Y-109709602D01*
X124368081Y-109568135D01*
X124368078Y-109568132D01*
X124363298Y-109561969D01*
X124365750Y-109560066D01*
X124339155Y-109511421D01*
X124344104Y-109441726D01*
X124364940Y-109409304D01*
X124363298Y-109408031D01*
X124368075Y-109401870D01*
X124368081Y-109401865D01*
X124451744Y-109260398D01*
X124485505Y-109144191D01*
X124497597Y-109102573D01*
X124497598Y-109102567D01*
X124500499Y-109065701D01*
X124500500Y-109065694D01*
X124500500Y-108634306D01*
X124497598Y-108597431D01*
X124495493Y-108590187D01*
X124451745Y-108439606D01*
X124451744Y-108439603D01*
X124451744Y-108439602D01*
X124368081Y-108298135D01*
X124368078Y-108298132D01*
X124363298Y-108291969D01*
X124365750Y-108290066D01*
X124339155Y-108241421D01*
X124344104Y-108171726D01*
X124364940Y-108139304D01*
X124363298Y-108138031D01*
X124368075Y-108131870D01*
X124368081Y-108131865D01*
X124451744Y-107990398D01*
X124497598Y-107832569D01*
X124500500Y-107795694D01*
X124500500Y-107364306D01*
X124497598Y-107327431D01*
X124451744Y-107169602D01*
X124368081Y-107028135D01*
X124368080Y-107028134D01*
X124363298Y-107021969D01*
X124365750Y-107020066D01*
X124339155Y-106971421D01*
X124344104Y-106901726D01*
X124364940Y-106869304D01*
X124363298Y-106868031D01*
X124368075Y-106861870D01*
X124368081Y-106861865D01*
X124451744Y-106720398D01*
X124492547Y-106579954D01*
X124497597Y-106562573D01*
X124497598Y-106562567D01*
X124500499Y-106525701D01*
X124500500Y-106525694D01*
X124500500Y-106094306D01*
X124497598Y-106057431D01*
X124492547Y-106040047D01*
X124451745Y-105899606D01*
X124451744Y-105899603D01*
X124451744Y-105899602D01*
X124368081Y-105758135D01*
X124368078Y-105758132D01*
X124363298Y-105751969D01*
X124365750Y-105750066D01*
X124339155Y-105701421D01*
X124344104Y-105631726D01*
X124364940Y-105599304D01*
X124363298Y-105598031D01*
X124368075Y-105591870D01*
X124368081Y-105591865D01*
X124451744Y-105450398D01*
X124497598Y-105292569D01*
X124500500Y-105255694D01*
X124500500Y-104824306D01*
X124497598Y-104787431D01*
X124451744Y-104629602D01*
X124368081Y-104488135D01*
X124368078Y-104488132D01*
X124363298Y-104481969D01*
X124365750Y-104480066D01*
X124339155Y-104431421D01*
X124344104Y-104361726D01*
X124364940Y-104329304D01*
X124363298Y-104328031D01*
X124368075Y-104321870D01*
X124368081Y-104321865D01*
X124451744Y-104180398D01*
X124492547Y-104039954D01*
X124497597Y-104022573D01*
X124497598Y-104022567D01*
X124500499Y-103985701D01*
X124500500Y-103985694D01*
X124500500Y-103554306D01*
X124497598Y-103517431D01*
X124493829Y-103504459D01*
X124451745Y-103359606D01*
X124451744Y-103359603D01*
X124451744Y-103359602D01*
X124368081Y-103218135D01*
X124368078Y-103218132D01*
X124363298Y-103211969D01*
X124365750Y-103210066D01*
X124339155Y-103161421D01*
X124344104Y-103091726D01*
X124364940Y-103059304D01*
X124363298Y-103058031D01*
X124368075Y-103051870D01*
X124368081Y-103051865D01*
X124451744Y-102910398D01*
X124497598Y-102752569D01*
X124500500Y-102715694D01*
X124500500Y-102284306D01*
X124500499Y-102284298D01*
X126499500Y-102284298D01*
X126499500Y-102715701D01*
X126502401Y-102752567D01*
X126502402Y-102752573D01*
X126548254Y-102910393D01*
X126548255Y-102910396D01*
X126631917Y-103051862D01*
X126636702Y-103058031D01*
X126634256Y-103059927D01*
X126660857Y-103108642D01*
X126655873Y-103178334D01*
X126635069Y-103210703D01*
X126636702Y-103211969D01*
X126631917Y-103218137D01*
X126548255Y-103359603D01*
X126548254Y-103359606D01*
X126502402Y-103517426D01*
X126502401Y-103517432D01*
X126499500Y-103554298D01*
X126499500Y-103985701D01*
X126502401Y-104022567D01*
X126502402Y-104022573D01*
X126548254Y-104180393D01*
X126548255Y-104180396D01*
X126631917Y-104321862D01*
X126636702Y-104328031D01*
X126634256Y-104329927D01*
X126660857Y-104378642D01*
X126655873Y-104448334D01*
X126635069Y-104480703D01*
X126636702Y-104481969D01*
X126631917Y-104488137D01*
X126548255Y-104629603D01*
X126548254Y-104629606D01*
X126502402Y-104787426D01*
X126502401Y-104787432D01*
X126499500Y-104824298D01*
X126499500Y-105255701D01*
X126502401Y-105292567D01*
X126502402Y-105292573D01*
X126548254Y-105450393D01*
X126548255Y-105450396D01*
X126631917Y-105591862D01*
X126636702Y-105598031D01*
X126634256Y-105599927D01*
X126660857Y-105648642D01*
X126655873Y-105718334D01*
X126635069Y-105750703D01*
X126636702Y-105751969D01*
X126631917Y-105758137D01*
X126548255Y-105899603D01*
X126548254Y-105899606D01*
X126502402Y-106057426D01*
X126502401Y-106057432D01*
X126499500Y-106094298D01*
X126499500Y-106525701D01*
X126502401Y-106562567D01*
X126502402Y-106562573D01*
X126548254Y-106720393D01*
X126548255Y-106720396D01*
X126631917Y-106861862D01*
X126636702Y-106868031D01*
X126634256Y-106869927D01*
X126660857Y-106918642D01*
X126655873Y-106988334D01*
X126635069Y-107020703D01*
X126636702Y-107021969D01*
X126631919Y-107028135D01*
X126548255Y-107169603D01*
X126548254Y-107169606D01*
X126502402Y-107327426D01*
X126502401Y-107327432D01*
X126499500Y-107364298D01*
X126499500Y-107795701D01*
X126502401Y-107832567D01*
X126502402Y-107832573D01*
X126548254Y-107990393D01*
X126548255Y-107990396D01*
X126631917Y-108131862D01*
X126636702Y-108138031D01*
X126634256Y-108139927D01*
X126660857Y-108188642D01*
X126655873Y-108258334D01*
X126635069Y-108290703D01*
X126636702Y-108291969D01*
X126631917Y-108298137D01*
X126548255Y-108439603D01*
X126548254Y-108439606D01*
X126502402Y-108597426D01*
X126502401Y-108597432D01*
X126499500Y-108634298D01*
X126499500Y-109065701D01*
X126502401Y-109102567D01*
X126502402Y-109102573D01*
X126548254Y-109260393D01*
X126548255Y-109260396D01*
X126631917Y-109401862D01*
X126636702Y-109408031D01*
X126634256Y-109409927D01*
X126660857Y-109458642D01*
X126655873Y-109528334D01*
X126635069Y-109560703D01*
X126636702Y-109561969D01*
X126631917Y-109568137D01*
X126548255Y-109709603D01*
X126548254Y-109709606D01*
X126502402Y-109867426D01*
X126502401Y-109867432D01*
X126499500Y-109904298D01*
X126499500Y-110335701D01*
X126502401Y-110372567D01*
X126502402Y-110372573D01*
X126548254Y-110530393D01*
X126548255Y-110530396D01*
X126631917Y-110671862D01*
X126636702Y-110678031D01*
X126634256Y-110679927D01*
X126660857Y-110728642D01*
X126655873Y-110798334D01*
X126635069Y-110830703D01*
X126636702Y-110831969D01*
X126631917Y-110838137D01*
X126548255Y-110979603D01*
X126548254Y-110979606D01*
X126502402Y-111137426D01*
X126502401Y-111137432D01*
X126499500Y-111174298D01*
X126499500Y-111605701D01*
X126502401Y-111642567D01*
X126502402Y-111642573D01*
X126548254Y-111800393D01*
X126548255Y-111800396D01*
X126631917Y-111941862D01*
X126631923Y-111941870D01*
X126748129Y-112058076D01*
X126748133Y-112058079D01*
X126748135Y-112058081D01*
X126889602Y-112141744D01*
X126931224Y-112153836D01*
X127047426Y-112187597D01*
X127047429Y-112187597D01*
X127047431Y-112187598D01*
X127084306Y-112190500D01*
X127084314Y-112190500D01*
X128915686Y-112190500D01*
X128915694Y-112190500D01*
X128952569Y-112187598D01*
X128952571Y-112187597D01*
X128952573Y-112187597D01*
X128994191Y-112175505D01*
X129110398Y-112141744D01*
X129251865Y-112058081D01*
X129368081Y-111941865D01*
X129451744Y-111800398D01*
X129492547Y-111659954D01*
X129497597Y-111642573D01*
X129497598Y-111642567D01*
X129500500Y-111605694D01*
X129500500Y-111174306D01*
X129497598Y-111137431D01*
X129492547Y-111120047D01*
X129451745Y-110979606D01*
X129451744Y-110979603D01*
X129451744Y-110979602D01*
X129368081Y-110838135D01*
X129368078Y-110838132D01*
X129363298Y-110831969D01*
X129365750Y-110830066D01*
X129339155Y-110781421D01*
X129344104Y-110711726D01*
X129364940Y-110679304D01*
X129363298Y-110678031D01*
X129368075Y-110671870D01*
X129368081Y-110671865D01*
X129451744Y-110530398D01*
X129486356Y-110411265D01*
X129497597Y-110372573D01*
X129497598Y-110372567D01*
X129500499Y-110335701D01*
X129500500Y-110335694D01*
X129500500Y-109904306D01*
X129497598Y-109867431D01*
X129497497Y-109867084D01*
X129451745Y-109709606D01*
X129451744Y-109709603D01*
X129451744Y-109709602D01*
X129368081Y-109568135D01*
X129368078Y-109568132D01*
X129363298Y-109561969D01*
X129365750Y-109560066D01*
X129339155Y-109511421D01*
X129344104Y-109441726D01*
X129364940Y-109409304D01*
X129363298Y-109408031D01*
X129368075Y-109401870D01*
X129368081Y-109401865D01*
X129451744Y-109260398D01*
X129485505Y-109144191D01*
X129497597Y-109102573D01*
X129497598Y-109102567D01*
X129500499Y-109065701D01*
X129500500Y-109065694D01*
X129500500Y-108634306D01*
X129497598Y-108597431D01*
X129495493Y-108590187D01*
X129451745Y-108439606D01*
X129451744Y-108439603D01*
X129451744Y-108439602D01*
X129368081Y-108298135D01*
X129368078Y-108298132D01*
X129363298Y-108291969D01*
X129365750Y-108290066D01*
X129339155Y-108241421D01*
X129344104Y-108171726D01*
X129364940Y-108139304D01*
X129363298Y-108138031D01*
X129368075Y-108131870D01*
X129368081Y-108131865D01*
X129451744Y-107990398D01*
X129497598Y-107832569D01*
X129500500Y-107795694D01*
X129500500Y-107364306D01*
X129497598Y-107327431D01*
X129451744Y-107169602D01*
X129368081Y-107028135D01*
X129368080Y-107028134D01*
X129363298Y-107021969D01*
X129365750Y-107020066D01*
X129339155Y-106971421D01*
X129344104Y-106901726D01*
X129364940Y-106869304D01*
X129363298Y-106868031D01*
X129368075Y-106861870D01*
X129368081Y-106861865D01*
X129451744Y-106720398D01*
X129492547Y-106579954D01*
X129497597Y-106562573D01*
X129497598Y-106562567D01*
X129500499Y-106525701D01*
X129500500Y-106525694D01*
X129500500Y-106094306D01*
X129497598Y-106057431D01*
X129492547Y-106040047D01*
X129451745Y-105899606D01*
X129451744Y-105899603D01*
X129451744Y-105899602D01*
X129368081Y-105758135D01*
X129368078Y-105758132D01*
X129363298Y-105751969D01*
X129365750Y-105750066D01*
X129339155Y-105701421D01*
X129344104Y-105631726D01*
X129364940Y-105599304D01*
X129363298Y-105598031D01*
X129368075Y-105591870D01*
X129368081Y-105591865D01*
X129451744Y-105450398D01*
X129497598Y-105292569D01*
X129500500Y-105255694D01*
X129500500Y-104824306D01*
X129497598Y-104787431D01*
X129451744Y-104629602D01*
X129368081Y-104488135D01*
X129368078Y-104488132D01*
X129363298Y-104481969D01*
X129365750Y-104480066D01*
X129339155Y-104431421D01*
X129344104Y-104361726D01*
X129364940Y-104329304D01*
X129363298Y-104328031D01*
X129368075Y-104321870D01*
X129368081Y-104321865D01*
X129451744Y-104180398D01*
X129492547Y-104039954D01*
X129497597Y-104022573D01*
X129497598Y-104022567D01*
X129500499Y-103985701D01*
X129500500Y-103985694D01*
X129500500Y-103554306D01*
X129497598Y-103517431D01*
X129493829Y-103504459D01*
X129451745Y-103359606D01*
X129451744Y-103359603D01*
X129451744Y-103359602D01*
X129368081Y-103218135D01*
X129368078Y-103218132D01*
X129363298Y-103211969D01*
X129365750Y-103210066D01*
X129339155Y-103161421D01*
X129344104Y-103091726D01*
X129364940Y-103059304D01*
X129363298Y-103058031D01*
X129368075Y-103051870D01*
X129368081Y-103051865D01*
X129451744Y-102910398D01*
X129497598Y-102752569D01*
X129500500Y-102715694D01*
X129500500Y-102284306D01*
X129497598Y-102247431D01*
X129451744Y-102089602D01*
X129368081Y-101948135D01*
X129368080Y-101948134D01*
X129368076Y-101948129D01*
X129251870Y-101831923D01*
X129251862Y-101831917D01*
X129110396Y-101748255D01*
X129110393Y-101748254D01*
X128952573Y-101702402D01*
X128952567Y-101702401D01*
X128915701Y-101699500D01*
X128915694Y-101699500D01*
X128051915Y-101699500D01*
X128038031Y-101698720D01*
X128000002Y-101694435D01*
X127999998Y-101694435D01*
X127961969Y-101698720D01*
X127948085Y-101699500D01*
X127084298Y-101699500D01*
X127047432Y-101702401D01*
X127047426Y-101702402D01*
X126889606Y-101748254D01*
X126889603Y-101748255D01*
X126748137Y-101831917D01*
X126748129Y-101831923D01*
X126631923Y-101948129D01*
X126631919Y-101948135D01*
X126548255Y-102089603D01*
X126548254Y-102089606D01*
X126502402Y-102247426D01*
X126502401Y-102247432D01*
X126499500Y-102284298D01*
X124500499Y-102284298D01*
X124497598Y-102247431D01*
X124451744Y-102089602D01*
X124368081Y-101948135D01*
X124368080Y-101948134D01*
X124368076Y-101948129D01*
X124251870Y-101831923D01*
X124251862Y-101831917D01*
X124110396Y-101748255D01*
X124110393Y-101748254D01*
X123952573Y-101702402D01*
X123952567Y-101702401D01*
X123915701Y-101699500D01*
X123915694Y-101699500D01*
X122084306Y-101699500D01*
X122084298Y-101699500D01*
X122047432Y-101702401D01*
X122047426Y-101702402D01*
X121889606Y-101748254D01*
X121889603Y-101748255D01*
X121748137Y-101831917D01*
X121748129Y-101831923D01*
X121716874Y-101863180D01*
X121655552Y-101896666D01*
X121629192Y-101899500D01*
X119731692Y-101899500D01*
X119664653Y-101879815D01*
X119630119Y-101846625D01*
X119510827Y-101676257D01*
X119500045Y-101660858D01*
X119339143Y-101499956D01*
X119332836Y-101495540D01*
X119313912Y-101482289D01*
X119270287Y-101427712D01*
X119263095Y-101358213D01*
X119294617Y-101295859D01*
X119354847Y-101260445D01*
X119371781Y-101257424D01*
X119407380Y-101253596D01*
X119542086Y-101203354D01*
X119542093Y-101203350D01*
X119657187Y-101117190D01*
X119657190Y-101117187D01*
X119743350Y-101002093D01*
X119743354Y-101002086D01*
X119793596Y-100867379D01*
X119793598Y-100867372D01*
X119799999Y-100807844D01*
X119800000Y-100807827D01*
X119800000Y-100210000D01*
X118815686Y-100210000D01*
X118820080Y-100205606D01*
X118872741Y-100114394D01*
X118900000Y-100012661D01*
X118900000Y-100000000D01*
X130745181Y-100000000D01*
X130764447Y-100404450D01*
X130822071Y-100805231D01*
X130917531Y-101198722D01*
X130917534Y-101198733D01*
X131049956Y-101581340D01*
X131049966Y-101581365D01*
X131218168Y-101949675D01*
X131420621Y-102300335D01*
X131420627Y-102300343D01*
X131655485Y-102630154D01*
X131822985Y-102823460D01*
X133313098Y-101333347D01*
X133380076Y-101420635D01*
X133579365Y-101619924D01*
X133666650Y-101686900D01*
X132174928Y-103178622D01*
X132213676Y-103215568D01*
X132213695Y-103215585D01*
X132531968Y-103465877D01*
X132872594Y-103684782D01*
X133232485Y-103870319D01*
X133608383Y-104020806D01*
X133608395Y-104020810D01*
X133996882Y-104134880D01*
X133996899Y-104134884D01*
X134394460Y-104211508D01*
X134394472Y-104211510D01*
X134797554Y-104250000D01*
X135202446Y-104250000D01*
X135605527Y-104211510D01*
X135605539Y-104211508D01*
X136003100Y-104134884D01*
X136003117Y-104134880D01*
X136391604Y-104020810D01*
X136391616Y-104020806D01*
X136767507Y-103870322D01*
X136767511Y-103870320D01*
X137127406Y-103684782D01*
X137468031Y-103465877D01*
X137786314Y-103215578D01*
X137825069Y-103178622D01*
X136333348Y-101686901D01*
X136420635Y-101619924D01*
X136619924Y-101420635D01*
X136686901Y-101333348D01*
X138177012Y-102823459D01*
X138344512Y-102630156D01*
X138344523Y-102630143D01*
X138579372Y-102300343D01*
X138579378Y-102300335D01*
X138781831Y-101949675D01*
X138950033Y-101581365D01*
X138950043Y-101581340D01*
X139082465Y-101198733D01*
X139082468Y-101198722D01*
X139177928Y-100805231D01*
X139235552Y-100404450D01*
X139251640Y-100066726D01*
X139274493Y-100000699D01*
X139278945Y-99997197D01*
X139256523Y-99962308D01*
X139251640Y-99933273D01*
X139235552Y-99595549D01*
X139177928Y-99194768D01*
X139082468Y-98801277D01*
X139082465Y-98801266D01*
X138950043Y-98418659D01*
X138950033Y-98418634D01*
X138781831Y-98050324D01*
X138579378Y-97699664D01*
X138579372Y-97699656D01*
X138344523Y-97369856D01*
X138344512Y-97369843D01*
X138177013Y-97176538D01*
X136686900Y-98666650D01*
X136619924Y-98579365D01*
X136420635Y-98380076D01*
X136333348Y-98313098D01*
X137825070Y-96821376D01*
X137786323Y-96784431D01*
X137786304Y-96784414D01*
X137468031Y-96534122D01*
X137127406Y-96315217D01*
X136767511Y-96129679D01*
X136767507Y-96129677D01*
X136391616Y-95979193D01*
X136391604Y-95979189D01*
X136003117Y-95865119D01*
X136003100Y-95865115D01*
X135605539Y-95788491D01*
X135605527Y-95788489D01*
X135202446Y-95750000D01*
X134797554Y-95750000D01*
X134394472Y-95788489D01*
X134394460Y-95788491D01*
X133996899Y-95865115D01*
X133996882Y-95865119D01*
X133608395Y-95979189D01*
X133608383Y-95979193D01*
X133232485Y-96129680D01*
X132872594Y-96315217D01*
X132531968Y-96534122D01*
X132213685Y-96784421D01*
X132213673Y-96784432D01*
X132174929Y-96821375D01*
X132174929Y-96821376D01*
X133666651Y-98313098D01*
X133579365Y-98380076D01*
X133380076Y-98579365D01*
X133313098Y-98666651D01*
X131822986Y-97176539D01*
X131655485Y-97369845D01*
X131420627Y-97699656D01*
X131420621Y-97699664D01*
X131218168Y-98050324D01*
X131049966Y-98418634D01*
X131049956Y-98418659D01*
X130917534Y-98801266D01*
X130917531Y-98801277D01*
X130822071Y-99194768D01*
X130764447Y-99595549D01*
X130745181Y-100000000D01*
X118900000Y-100000000D01*
X118900000Y-99907339D01*
X118872741Y-99805606D01*
X118820080Y-99714394D01*
X118815686Y-99710000D01*
X119800000Y-99710000D01*
X119800000Y-99112172D01*
X119799999Y-99112155D01*
X119793598Y-99052627D01*
X119793596Y-99052620D01*
X119743354Y-98917913D01*
X119743350Y-98917906D01*
X119657190Y-98802812D01*
X119657187Y-98802809D01*
X119542093Y-98716649D01*
X119542086Y-98716645D01*
X119407379Y-98666403D01*
X119407372Y-98666401D01*
X119347844Y-98660000D01*
X118750000Y-98660000D01*
X118750000Y-99644314D01*
X118745606Y-99639920D01*
X118654394Y-99587259D01*
X118552661Y-99560000D01*
X118447339Y-99560000D01*
X118345606Y-99587259D01*
X118254394Y-99639920D01*
X118250000Y-99644314D01*
X118250000Y-98660000D01*
X117652155Y-98660000D01*
X117592627Y-98666401D01*
X117592620Y-98666403D01*
X117457913Y-98716645D01*
X117457906Y-98716649D01*
X117342812Y-98802809D01*
X117342809Y-98802812D01*
X117256649Y-98917906D01*
X117256645Y-98917913D01*
X117206403Y-99052620D01*
X117206401Y-99052627D01*
X117200000Y-99112155D01*
X117200000Y-99710000D01*
X118184314Y-99710000D01*
X118179920Y-99714394D01*
X118127259Y-99805606D01*
X118100000Y-99907339D01*
X118100000Y-100012661D01*
X118127259Y-100114394D01*
X118179920Y-100205606D01*
X118184314Y-100210000D01*
X117200000Y-100210000D01*
X117200000Y-100807844D01*
X117206401Y-100867372D01*
X117206403Y-100867379D01*
X117256645Y-101002086D01*
X117256649Y-101002093D01*
X117342809Y-101117187D01*
X117342812Y-101117190D01*
X117457906Y-101203350D01*
X117457913Y-101203354D01*
X117592620Y-101253596D01*
X117592627Y-101253598D01*
X117628218Y-101257425D01*
X117692769Y-101284163D01*
X117732618Y-101341555D01*
X117735111Y-101411380D01*
X117699459Y-101471469D01*
X117686088Y-101482287D01*
X117660861Y-101499951D01*
X117499954Y-101660858D01*
X117438759Y-101748256D01*
X117369881Y-101846624D01*
X117315307Y-101890248D01*
X117268308Y-101899500D01*
X115920943Y-101899500D01*
X115768214Y-101940423D01*
X115757682Y-101946504D01*
X115754869Y-101948129D01*
X115754860Y-101948134D01*
X115754857Y-101948135D01*
X115631290Y-102019475D01*
X115631282Y-102019481D01*
X114937083Y-102713681D01*
X114875760Y-102747166D01*
X114849402Y-102750000D01*
X113904146Y-102750000D01*
X113942630Y-102683343D01*
X113975000Y-102562535D01*
X113975000Y-102437465D01*
X113942630Y-102316657D01*
X113904146Y-102250000D01*
X114847030Y-102250000D01*
X114816757Y-102058872D01*
X114816757Y-102058869D01*
X114751095Y-101856782D01*
X114654620Y-101667442D01*
X114529727Y-101495540D01*
X114529723Y-101495535D01*
X114379464Y-101345276D01*
X114379459Y-101345272D01*
X114207557Y-101220379D01*
X114018215Y-101123903D01*
X113816124Y-101058241D01*
X113750000Y-101047768D01*
X113750000Y-102095854D01*
X113683343Y-102057370D01*
X113562535Y-102025000D01*
X113437465Y-102025000D01*
X113316657Y-102057370D01*
X113250000Y-102095854D01*
X113250000Y-101047768D01*
X113249999Y-101047768D01*
X113183875Y-101058241D01*
X112981784Y-101123903D01*
X112792442Y-101220379D01*
X112620540Y-101345272D01*
X112620535Y-101345276D01*
X112470276Y-101495535D01*
X112470272Y-101495540D01*
X112350627Y-101660218D01*
X112295297Y-101702884D01*
X112225684Y-101708863D01*
X112163889Y-101676257D01*
X112149991Y-101660218D01*
X112030109Y-101495214D01*
X112030105Y-101495209D01*
X111879786Y-101344890D01*
X111707820Y-101219951D01*
X111518414Y-101123444D01*
X111518413Y-101123443D01*
X111518412Y-101123443D01*
X111316243Y-101057754D01*
X111316241Y-101057753D01*
X111316240Y-101057753D01*
X111154957Y-101032208D01*
X111106287Y-101024500D01*
X110893713Y-101024500D01*
X110845042Y-101032208D01*
X110683760Y-101057753D01*
X110481585Y-101123444D01*
X110292179Y-101219951D01*
X110120215Y-101344889D01*
X109981398Y-101483706D01*
X109920075Y-101517190D01*
X109850383Y-101512206D01*
X109794450Y-101470334D01*
X109788178Y-101461120D01*
X109692712Y-101306344D01*
X109568657Y-101182289D01*
X109568656Y-101182288D01*
X109419334Y-101090186D01*
X109252797Y-101035001D01*
X109252795Y-101035000D01*
X109150010Y-101024500D01*
X107849998Y-101024500D01*
X107849981Y-101024501D01*
X107747203Y-101035000D01*
X107747200Y-101035001D01*
X107580668Y-101090185D01*
X107580663Y-101090187D01*
X107431342Y-101182289D01*
X107307289Y-101306342D01*
X107215187Y-101455663D01*
X107215185Y-101455668D01*
X107206364Y-101482289D01*
X107160001Y-101622203D01*
X107160001Y-101622204D01*
X107160000Y-101622204D01*
X107149500Y-101724983D01*
X103884445Y-101724983D01*
X103950033Y-101581365D01*
X103950043Y-101581340D01*
X104082465Y-101198733D01*
X104082468Y-101198722D01*
X104177928Y-100805231D01*
X104235552Y-100404450D01*
X104254818Y-100000000D01*
X104235552Y-99595549D01*
X104177928Y-99194768D01*
X104082468Y-98801277D01*
X104082465Y-98801266D01*
X103985118Y-98520001D01*
X121502704Y-98520001D01*
X121502899Y-98522486D01*
X121548718Y-98680198D01*
X121632314Y-98821552D01*
X121632321Y-98821561D01*
X121748438Y-98937678D01*
X121748447Y-98937685D01*
X121889803Y-99021282D01*
X121889806Y-99021283D01*
X122047504Y-99067099D01*
X122047510Y-99067100D01*
X122084350Y-99069999D01*
X122084366Y-99070000D01*
X122750000Y-99070000D01*
X123250000Y-99070000D01*
X123915634Y-99070000D01*
X123915649Y-99069999D01*
X123952489Y-99067100D01*
X123952495Y-99067099D01*
X124110193Y-99021283D01*
X124110196Y-99021282D01*
X124251552Y-98937685D01*
X124251561Y-98937678D01*
X124367678Y-98821561D01*
X124367685Y-98821552D01*
X124451281Y-98680198D01*
X124497100Y-98522486D01*
X124497295Y-98520001D01*
X124497295Y-98520000D01*
X123250000Y-98520000D01*
X123250000Y-99070000D01*
X122750000Y-99070000D01*
X122750000Y-98520000D01*
X121502705Y-98520000D01*
X121502704Y-98520001D01*
X103985118Y-98520001D01*
X103950043Y-98418659D01*
X103950033Y-98418634D01*
X103781831Y-98050324D01*
X103579378Y-97699664D01*
X103579372Y-97699656D01*
X103344523Y-97369856D01*
X103344512Y-97369843D01*
X103177013Y-97176538D01*
X101686900Y-98666650D01*
X101619924Y-98579365D01*
X101420635Y-98380076D01*
X101333348Y-98313098D01*
X102825070Y-96821376D01*
X102786323Y-96784431D01*
X102786304Y-96784414D01*
X102468031Y-96534122D01*
X102127406Y-96315217D01*
X101767511Y-96129679D01*
X101767507Y-96129677D01*
X101391616Y-95979193D01*
X101391604Y-95979189D01*
X101003117Y-95865119D01*
X101003100Y-95865115D01*
X100605539Y-95788491D01*
X100605527Y-95788489D01*
X100202446Y-95750000D01*
X99797554Y-95750000D01*
X99394472Y-95788489D01*
X99394460Y-95788491D01*
X98996899Y-95865115D01*
X98996882Y-95865119D01*
X98608395Y-95979189D01*
X98608383Y-95979193D01*
X98232485Y-96129680D01*
X97872594Y-96315217D01*
X97531968Y-96534122D01*
X97213685Y-96784421D01*
X97213673Y-96784432D01*
X97174929Y-96821375D01*
X97174929Y-96821376D01*
X98666651Y-98313098D01*
X98579365Y-98380076D01*
X98380076Y-98579365D01*
X98313098Y-98666651D01*
X96822986Y-97176539D01*
X96655485Y-97369845D01*
X96420627Y-97699656D01*
X96420621Y-97699664D01*
X96218168Y-98050324D01*
X96049966Y-98418634D01*
X96049956Y-98418659D01*
X95917534Y-98801266D01*
X95917531Y-98801277D01*
X95822071Y-99194768D01*
X95764447Y-99595549D01*
X95748360Y-99933273D01*
X95725507Y-99999300D01*
X95721054Y-100002801D01*
X95523400Y-100002801D01*
X95528242Y-99998605D01*
X95503995Y-99956607D01*
X95500500Y-99927373D01*
X95500500Y-53624500D01*
X95520185Y-53557461D01*
X95572989Y-53511706D01*
X95624500Y-53500500D01*
X120237956Y-53500500D01*
X120304995Y-53520185D01*
G37*
G04 #@! TD.AperFunction*
G04 #@! TA.AperFunction,Conductor*
G36*
X100305703Y-80541622D02*
G01*
X100336881Y-80582928D01*
X100361319Y-80635335D01*
X100369431Y-80652732D01*
X100369432Y-80652734D01*
X100499954Y-80839141D01*
X100660858Y-81000045D01*
X100660861Y-81000047D01*
X100846624Y-81130118D01*
X100890248Y-81184693D01*
X100899500Y-81231692D01*
X100899500Y-85913330D01*
X100899499Y-85913348D01*
X100899499Y-86079054D01*
X100899498Y-86079054D01*
X100940423Y-86231785D01*
X100969358Y-86281900D01*
X100969359Y-86281904D01*
X100969360Y-86281904D01*
X101019479Y-86368714D01*
X101019481Y-86368717D01*
X101138349Y-86487585D01*
X101138355Y-86487590D01*
X104515139Y-89864374D01*
X104515149Y-89864385D01*
X104519479Y-89868715D01*
X104519480Y-89868716D01*
X104631284Y-89980520D01*
X104631286Y-89980521D01*
X104631290Y-89980524D01*
X104766063Y-90058334D01*
X104768216Y-90059577D01*
X104880019Y-90089534D01*
X104920942Y-90100500D01*
X104920943Y-90100500D01*
X110413331Y-90100500D01*
X110413347Y-90100501D01*
X110420943Y-90100501D01*
X110579054Y-90100501D01*
X110579057Y-90100501D01*
X110731785Y-90059577D01*
X110781904Y-90030639D01*
X110868716Y-89980520D01*
X110980520Y-89868716D01*
X110980521Y-89868714D01*
X111480520Y-89368716D01*
X111559577Y-89231784D01*
X111572242Y-89184516D01*
X111608606Y-89124859D01*
X111671453Y-89094330D01*
X111740829Y-89102625D01*
X111779696Y-89128931D01*
X115363180Y-92712416D01*
X118838583Y-96187819D01*
X118872068Y-96249142D01*
X118867084Y-96318834D01*
X118825212Y-96374767D01*
X118759748Y-96399184D01*
X118750902Y-96399500D01*
X114424191Y-96399500D01*
X114357152Y-96379815D01*
X114311397Y-96327011D01*
X114301453Y-96257853D01*
X114330478Y-96194297D01*
X114351307Y-96175181D01*
X114379462Y-96154725D01*
X114529723Y-96004464D01*
X114529727Y-96004459D01*
X114654620Y-95832557D01*
X114751095Y-95643217D01*
X114816757Y-95441130D01*
X114816757Y-95441127D01*
X114847030Y-95250000D01*
X113904146Y-95250000D01*
X113942630Y-95183343D01*
X113975000Y-95062535D01*
X113975000Y-94937465D01*
X113942630Y-94816657D01*
X113904146Y-94750000D01*
X114847030Y-94750000D01*
X114816757Y-94558872D01*
X114816757Y-94558869D01*
X114751095Y-94356782D01*
X114654620Y-94167442D01*
X114529727Y-93995540D01*
X114529723Y-93995535D01*
X114379464Y-93845276D01*
X114379459Y-93845272D01*
X114207557Y-93720379D01*
X114018215Y-93623903D01*
X113816124Y-93558241D01*
X113750000Y-93547768D01*
X113750000Y-94595854D01*
X113683343Y-94557370D01*
X113562535Y-94525000D01*
X113437465Y-94525000D01*
X113316657Y-94557370D01*
X113250000Y-94595854D01*
X113250000Y-93547768D01*
X113249999Y-93547768D01*
X113183875Y-93558241D01*
X112981784Y-93623903D01*
X112792442Y-93720379D01*
X112620540Y-93845272D01*
X112620535Y-93845276D01*
X112470276Y-93995535D01*
X112470272Y-93995540D01*
X112350627Y-94160218D01*
X112295297Y-94202884D01*
X112225684Y-94208863D01*
X112163889Y-94176257D01*
X112149991Y-94160218D01*
X112030109Y-93995214D01*
X112030105Y-93995209D01*
X111879786Y-93844890D01*
X111707815Y-93719948D01*
X111707814Y-93719947D01*
X111668205Y-93699765D01*
X111617409Y-93651791D01*
X111600500Y-93589281D01*
X111600500Y-92589060D01*
X111600501Y-92589047D01*
X111600501Y-92420944D01*
X111595527Y-92402380D01*
X111559577Y-92268216D01*
X111504355Y-92172567D01*
X111480524Y-92131290D01*
X111480518Y-92131282D01*
X110868717Y-91519481D01*
X110868716Y-91519480D01*
X110781904Y-91469360D01*
X110781904Y-91469359D01*
X110781900Y-91469358D01*
X110731785Y-91440423D01*
X110579057Y-91399499D01*
X110420943Y-91399499D01*
X110413347Y-91399499D01*
X110413331Y-91399500D01*
X105260097Y-91399500D01*
X105193058Y-91379815D01*
X105172416Y-91363181D01*
X100136819Y-86327584D01*
X100103334Y-86266261D01*
X100100500Y-86239903D01*
X100100500Y-80635335D01*
X100120185Y-80568296D01*
X100172989Y-80522541D01*
X100242147Y-80512597D01*
X100305703Y-80541622D01*
G37*
G04 #@! TD.AperFunction*
G04 #@! TA.AperFunction,Conductor*
G36*
X102843365Y-80531555D02*
G01*
X102888700Y-80584720D01*
X102899500Y-80635335D01*
X102899500Y-82913330D01*
X102899499Y-82913348D01*
X102899499Y-83079054D01*
X102899498Y-83079054D01*
X102940423Y-83231785D01*
X102969358Y-83281900D01*
X102969359Y-83281904D01*
X102969360Y-83281904D01*
X103016284Y-83363181D01*
X103019479Y-83368714D01*
X103019481Y-83368717D01*
X103138349Y-83487585D01*
X103138354Y-83487589D01*
X105091284Y-85440520D01*
X105091286Y-85440521D01*
X105091290Y-85440524D01*
X105228209Y-85519573D01*
X105228216Y-85519577D01*
X105380943Y-85560501D01*
X105380945Y-85560501D01*
X105546654Y-85560501D01*
X105546670Y-85560500D01*
X114659903Y-85560500D01*
X114726942Y-85580185D01*
X114747584Y-85596819D01*
X117363181Y-88212416D01*
X117396666Y-88273739D01*
X117399500Y-88300097D01*
X117399500Y-92413330D01*
X117399499Y-92413348D01*
X117399499Y-92579054D01*
X117399498Y-92579054D01*
X117399499Y-92579057D01*
X117440423Y-92731785D01*
X117440424Y-92731787D01*
X117440423Y-92731787D01*
X117454098Y-92755471D01*
X117454102Y-92755477D01*
X117460443Y-92766461D01*
X117476912Y-92834361D01*
X117454057Y-92900387D01*
X117399134Y-92943576D01*
X117329581Y-92950214D01*
X117267479Y-92918195D01*
X117265401Y-92916166D01*
X113534876Y-89185641D01*
X113501392Y-89124319D01*
X113506376Y-89054627D01*
X113548248Y-88998694D01*
X113603160Y-88975488D01*
X113816127Y-88941757D01*
X113816130Y-88941757D01*
X114018217Y-88876095D01*
X114207557Y-88779620D01*
X114379459Y-88654727D01*
X114379464Y-88654723D01*
X114529723Y-88504464D01*
X114529727Y-88504459D01*
X114654620Y-88332557D01*
X114751095Y-88143217D01*
X114816757Y-87941130D01*
X114816757Y-87941127D01*
X114847030Y-87750000D01*
X113904146Y-87750000D01*
X113942630Y-87683343D01*
X113975000Y-87562535D01*
X113975000Y-87437465D01*
X113942630Y-87316657D01*
X113904146Y-87250000D01*
X114847030Y-87250000D01*
X114816757Y-87058872D01*
X114816757Y-87058869D01*
X114751095Y-86856782D01*
X114654620Y-86667442D01*
X114529727Y-86495540D01*
X114529723Y-86495535D01*
X114379464Y-86345276D01*
X114379459Y-86345272D01*
X114207557Y-86220379D01*
X114018215Y-86123903D01*
X113816124Y-86058241D01*
X113750000Y-86047768D01*
X113750000Y-87095854D01*
X113683343Y-87057370D01*
X113562535Y-87025000D01*
X113437465Y-87025000D01*
X113316657Y-87057370D01*
X113250000Y-87095854D01*
X113250000Y-86047768D01*
X113249999Y-86047768D01*
X113183875Y-86058241D01*
X112981784Y-86123903D01*
X112792442Y-86220379D01*
X112620540Y-86345272D01*
X112620535Y-86345276D01*
X112470276Y-86495535D01*
X112470272Y-86495540D01*
X112350627Y-86660218D01*
X112295297Y-86702884D01*
X112225684Y-86708863D01*
X112163889Y-86676257D01*
X112149991Y-86660218D01*
X112030109Y-86495214D01*
X112030105Y-86495209D01*
X111879786Y-86344890D01*
X111707820Y-86219951D01*
X111518414Y-86123444D01*
X111518413Y-86123443D01*
X111518412Y-86123443D01*
X111316243Y-86057754D01*
X111316241Y-86057753D01*
X111316240Y-86057753D01*
X111154957Y-86032208D01*
X111106287Y-86024500D01*
X110893713Y-86024500D01*
X110845042Y-86032208D01*
X110683760Y-86057753D01*
X110481585Y-86123444D01*
X110292179Y-86219951D01*
X110120215Y-86344889D01*
X109981398Y-86483706D01*
X109920075Y-86517190D01*
X109850383Y-86512206D01*
X109794450Y-86470334D01*
X109788178Y-86461120D01*
X109692712Y-86306344D01*
X109568657Y-86182289D01*
X109568656Y-86182288D01*
X109419334Y-86090186D01*
X109252797Y-86035001D01*
X109252795Y-86035000D01*
X109150010Y-86024500D01*
X107849998Y-86024500D01*
X107849981Y-86024501D01*
X107747203Y-86035000D01*
X107747200Y-86035001D01*
X107580668Y-86090185D01*
X107580663Y-86090187D01*
X107431342Y-86182289D01*
X107307289Y-86306342D01*
X107215187Y-86455663D01*
X107215185Y-86455668D01*
X107210325Y-86470334D01*
X107160001Y-86622203D01*
X107160001Y-86622204D01*
X107160000Y-86622204D01*
X107149500Y-86724983D01*
X107149500Y-88275001D01*
X107149501Y-88275018D01*
X107160000Y-88377796D01*
X107160001Y-88377799D01*
X107205894Y-88516294D01*
X107215186Y-88544334D01*
X107307288Y-88693656D01*
X107307290Y-88693658D01*
X107311188Y-88698587D01*
X107337329Y-88763382D01*
X107324290Y-88832025D01*
X107276211Y-88882721D01*
X107213923Y-88899500D01*
X105300097Y-88899500D01*
X105233058Y-88879815D01*
X105212416Y-88863181D01*
X102136819Y-85787584D01*
X102103334Y-85726261D01*
X102100500Y-85699903D01*
X102100500Y-81231692D01*
X102120185Y-81164653D01*
X102153374Y-81130119D01*
X102339139Y-81000047D01*
X102500047Y-80839139D01*
X102630568Y-80652734D01*
X102663118Y-80582929D01*
X102709290Y-80530491D01*
X102776484Y-80511339D01*
X102843365Y-80531555D01*
G37*
G04 #@! TD.AperFunction*
M02*
