M48
; DRILL file {KiCad 8.0.2} date 2024-08-18T16:51:36+0900
; FORMAT={-:-/ absolute / metric / decimal}
; #@! TF.CreationDate,2024-08-18T16:51:36+09:00
; #@! TF.GenerationSoftware,Kicad,Pcbnew,8.0.2
; #@! TF.FileFunction,Plated,1,2,PTH
FMAT,2
METRIC
; #@! TA.AperFunction,Plated,PTH,ViaDrill
T1C0.300
; #@! TA.AperFunction,Plated,PTH,ComponentDrill
T2C0.800
; #@! TA.AperFunction,Plated,PTH,ComponentDrill
T3C0.950
; #@! TA.AperFunction,Plated,PTH,ComponentDrill
T4C1.000
; #@! TA.AperFunction,Plated,PTH,ComponentDrill
T5C4.300
%
G90
G05
T1
X108.5Y-57.5
X110.5Y-57.5
X111.0Y-90.5
X111.0Y-98.0
X111.0Y-105.5
X111.0Y-113.0
X111.0Y-120.5
X111.0Y-128.0
X111.0Y-135.5
X111.0Y-143.0
X111.0Y-150.5
X118.5Y-57.5
X118.5Y-60.0
X121.88Y-57.38
X121.88Y-62.46
X121.88Y-65.0
X121.88Y-67.54
X121.88Y-70.08
X121.88Y-72.62
X121.88Y-75.16
X124.42Y-75.16
X125.5Y-98.5
X125.5Y-111.5
X126.96Y-75.16
X128.0Y-93.19
X128.0Y-94.46
X128.0Y-95.73
X128.0Y-97.0
X128.0Y-102.5
X128.0Y-103.77
X128.0Y-105.04
X128.0Y-106.31
X128.0Y-107.58
X128.0Y-108.85
X128.0Y-110.12
X129.5Y-75.16
X132.04Y-75.16
X134.58Y-75.16
T2
X101.5Y-66.5
X101.5Y-71.0
X101.5Y-75.5
X101.5Y-80.0
X111.66Y-66.5
X111.66Y-71.0
X111.66Y-75.5
X111.66Y-80.0
X118.5Y-99.96
X118.5Y-102.5
X118.5Y-105.04
X118.5Y-107.58
X118.5Y-110.12
X118.5Y-112.66
X118.5Y-115.2
X118.5Y-117.74
X118.5Y-120.28
T3
X99.0Y-57.5
X101.5Y-57.5
X104.0Y-57.5
X106.5Y-57.5
X108.5Y-87.5
X108.5Y-95.0
X108.5Y-102.5
X108.5Y-110.0
X108.5Y-117.5
X108.5Y-125.0
X108.5Y-132.5
X108.5Y-140.0
X108.5Y-147.5
X111.0Y-87.5
X111.0Y-95.0
X111.0Y-102.5
X111.0Y-110.0
X111.0Y-117.5
X111.0Y-125.0
X111.0Y-132.5
X111.0Y-140.0
X111.0Y-147.5
X113.5Y-87.5
X113.5Y-95.0
X113.5Y-102.5
X113.5Y-110.0
X113.5Y-117.5
X113.5Y-125.0
X113.5Y-132.5
X113.5Y-140.0
X113.5Y-147.5
T4
X113.0Y-57.5
X115.5Y-57.5
T5
X100.0Y-100.0
X100.0Y-147.5
X135.0Y-100.0
X135.0Y-147.5
M30
