G04 #@! TF.GenerationSoftware,KiCad,Pcbnew,8.0.2*
G04 #@! TF.CreationDate,2024-08-18T16:51:17+09:00*
G04 #@! TF.ProjectId,rainbow2-rp2040,7261696e-626f-4773-922d-727032303430,rev?*
G04 #@! TF.SameCoordinates,Original*
G04 #@! TF.FileFunction,Legend,Bot*
G04 #@! TF.FilePolarity,Positive*
%FSLAX46Y46*%
G04 Gerber Fmt 4.6, Leading zero omitted, Abs format (unit mm)*
G04 Created by KiCad (PCBNEW 8.0.2) date 2024-08-18 16:51:17*
%MOMM*%
%LPD*%
G01*
G04 APERTURE LIST*
G04 Aperture macros list*
%AMRoundRect*
0 Rectangle with rounded corners*
0 $1 Rounding radius*
0 $2 $3 $4 $5 $6 $7 $8 $9 X,Y pos of 4 corners*
0 Add a 4 corners polygon primitive as box body*
4,1,4,$2,$3,$4,$5,$6,$7,$8,$9,$2,$3,0*
0 Add four circle primitives for the rounded corners*
1,1,$1+$1,$2,$3*
1,1,$1+$1,$4,$5*
1,1,$1+$1,$6,$7*
1,1,$1+$1,$8,$9*
0 Add four rect primitives between the rounded corners*
20,1,$1+$1,$2,$3,$4,$5,0*
20,1,$1+$1,$4,$5,$6,$7,0*
20,1,$1+$1,$6,$7,$8,$9,0*
20,1,$1+$1,$8,$9,$2,$3,0*%
G04 Aperture macros list end*
%ADD10RoundRect,0.250000X-0.600000X-0.750000X0.600000X-0.750000X0.600000X0.750000X-0.600000X0.750000X0*%
%ADD11O,1.700000X2.000000*%
%ADD12R,1.600000X1.600000*%
%ADD13O,1.600000X1.600000*%
%ADD14RoundRect,0.250000X-0.600000X-0.725000X0.600000X-0.725000X0.600000X0.725000X-0.600000X0.725000X0*%
%ADD15O,1.700000X1.950000*%
%ADD16C,7.500000*%
%ADD17C,1.600000*%
G04 APERTURE END LIST*
%LPC*%
D10*
X113000000Y-57500000D03*
D11*
X115500000Y-57500000D03*
D12*
X118500000Y-99960000D03*
D13*
X118500000Y-102500000D03*
X118500000Y-105040000D03*
X118500000Y-107580000D03*
X118500000Y-110120000D03*
X118500000Y-112660000D03*
X118500000Y-115200000D03*
X118500000Y-117740000D03*
X118500000Y-120280000D03*
D14*
X108500000Y-140000000D03*
D15*
X111000000Y-140000000D03*
X113500000Y-140000000D03*
D14*
X108500000Y-95000000D03*
D15*
X111000000Y-95000000D03*
X113500000Y-95000000D03*
D16*
X100000000Y-100000000D03*
D14*
X108500000Y-117500000D03*
D15*
X111000000Y-117500000D03*
X113500000Y-117500000D03*
D14*
X108500000Y-87500000D03*
D15*
X111000000Y-87500000D03*
X113500000Y-87500000D03*
D16*
X100000000Y-147500000D03*
X135000000Y-147500000D03*
D17*
X101500000Y-80000000D03*
D13*
X111660000Y-80000000D03*
D16*
X135000000Y-100000000D03*
D17*
X101500000Y-66500000D03*
D13*
X111660000Y-66500000D03*
D17*
X101500000Y-71000000D03*
D13*
X111660000Y-71000000D03*
D14*
X108500000Y-125000000D03*
D15*
X111000000Y-125000000D03*
X113500000Y-125000000D03*
D14*
X108500000Y-110000000D03*
D15*
X111000000Y-110000000D03*
X113500000Y-110000000D03*
D14*
X108500000Y-102500000D03*
D15*
X111000000Y-102500000D03*
X113500000Y-102500000D03*
D14*
X99000000Y-57500000D03*
D15*
X101500000Y-57500000D03*
X104000000Y-57500000D03*
X106500000Y-57500000D03*
D17*
X101500000Y-75500000D03*
D13*
X111660000Y-75500000D03*
D14*
X108500000Y-147500000D03*
D15*
X111000000Y-147500000D03*
X113500000Y-147500000D03*
D14*
X108500000Y-132500000D03*
D15*
X111000000Y-132500000D03*
X113500000Y-132500000D03*
%LPD*%
M02*
