%TF.GenerationSoftware,KiCad,Pcbnew,9.0.6*%
%TF.CreationDate,2026-06-17T23:20:41+09:00*%
%TF.ProjectId,dao-4p-harness,64616f2d-3470-42d6-9861-726e6573732e,rev?*%
%TF.SameCoordinates,Original*%
%TF.FileFunction,Legend,Bot*%
%TF.FilePolarity,Positive*%
%FSLAX46Y46*%
G04 Gerber Fmt 4.6, Leading zero omitted, Abs format (unit mm)*
G04 Created by KiCad (PCBNEW 9.0.6) date 2026-06-17 23:20:41*
%MOMM*%
%LPD*%
G01*
G04 APERTURE LIST*
%ADD10C,0.100000*%
%ADD11C,0.120000*%
G04 APERTURE END LIST*
D10*
X106433571Y-104073609D02*
X106290714Y-104121228D01*
X106290714Y-104121228D02*
X106243095Y-104168847D01*
X106243095Y-104168847D02*
X106195476Y-104264085D01*
X106195476Y-104264085D02*
X106195476Y-104406942D01*
X106195476Y-104406942D02*
X106243095Y-104502180D01*
X106243095Y-104502180D02*
X106290714Y-104549800D01*
X106290714Y-104549800D02*
X106385952Y-104597419D01*
X106385952Y-104597419D02*
X106766904Y-104597419D01*
X106766904Y-104597419D02*
X106766904Y-103597419D01*
X106766904Y-103597419D02*
X106433571Y-103597419D01*
X106433571Y-103597419D02*
X106338333Y-103645038D01*
X106338333Y-103645038D02*
X106290714Y-103692657D01*
X106290714Y-103692657D02*
X106243095Y-103787895D01*
X106243095Y-103787895D02*
X106243095Y-103883133D01*
X106243095Y-103883133D02*
X106290714Y-103978371D01*
X106290714Y-103978371D02*
X106338333Y-104025990D01*
X106338333Y-104025990D02*
X106433571Y-104073609D01*
X106433571Y-104073609D02*
X106766904Y-104073609D01*
X105338333Y-103930752D02*
X105338333Y-104597419D01*
X105576428Y-103549800D02*
X105814523Y-104264085D01*
X105814523Y-104264085D02*
X105195476Y-104264085D01*
X103766904Y-104978371D02*
X103814523Y-104930752D01*
X103814523Y-104930752D02*
X103909761Y-104787895D01*
X103909761Y-104787895D02*
X103957380Y-104692657D01*
X103957380Y-104692657D02*
X104004999Y-104549800D01*
X104004999Y-104549800D02*
X104052618Y-104311704D01*
X104052618Y-104311704D02*
X104052618Y-104121228D01*
X104052618Y-104121228D02*
X104004999Y-103883133D01*
X104004999Y-103883133D02*
X103957380Y-103740276D01*
X103957380Y-103740276D02*
X103909761Y-103645038D01*
X103909761Y-103645038D02*
X103814523Y-103502180D01*
X103814523Y-103502180D02*
X103766904Y-103454561D01*
X102862142Y-103645038D02*
X102957380Y-103597419D01*
X102957380Y-103597419D02*
X103100237Y-103597419D01*
X103100237Y-103597419D02*
X103243094Y-103645038D01*
X103243094Y-103645038D02*
X103338332Y-103740276D01*
X103338332Y-103740276D02*
X103385951Y-103835514D01*
X103385951Y-103835514D02*
X103433570Y-104025990D01*
X103433570Y-104025990D02*
X103433570Y-104168847D01*
X103433570Y-104168847D02*
X103385951Y-104359323D01*
X103385951Y-104359323D02*
X103338332Y-104454561D01*
X103338332Y-104454561D02*
X103243094Y-104549800D01*
X103243094Y-104549800D02*
X103100237Y-104597419D01*
X103100237Y-104597419D02*
X103004999Y-104597419D01*
X103004999Y-104597419D02*
X102862142Y-104549800D01*
X102862142Y-104549800D02*
X102814523Y-104502180D01*
X102814523Y-104502180D02*
X102814523Y-104168847D01*
X102814523Y-104168847D02*
X103004999Y-104168847D01*
X102385951Y-104597419D02*
X102385951Y-103597419D01*
X102385951Y-103597419D02*
X102004999Y-103597419D01*
X102004999Y-103597419D02*
X101909761Y-103645038D01*
X101909761Y-103645038D02*
X101862142Y-103692657D01*
X101862142Y-103692657D02*
X101814523Y-103787895D01*
X101814523Y-103787895D02*
X101814523Y-103930752D01*
X101814523Y-103930752D02*
X101862142Y-104025990D01*
X101862142Y-104025990D02*
X101909761Y-104073609D01*
X101909761Y-104073609D02*
X102004999Y-104121228D01*
X102004999Y-104121228D02*
X102385951Y-104121228D01*
X101338332Y-104597419D02*
X101147856Y-104597419D01*
X101147856Y-104597419D02*
X101052618Y-104549800D01*
X101052618Y-104549800D02*
X101004999Y-104502180D01*
X101004999Y-104502180D02*
X100909761Y-104359323D01*
X100909761Y-104359323D02*
X100862142Y-104168847D01*
X100862142Y-104168847D02*
X100862142Y-103787895D01*
X100862142Y-103787895D02*
X100909761Y-103692657D01*
X100909761Y-103692657D02*
X100957380Y-103645038D01*
X100957380Y-103645038D02*
X101052618Y-103597419D01*
X101052618Y-103597419D02*
X101243094Y-103597419D01*
X101243094Y-103597419D02*
X101338332Y-103645038D01*
X101338332Y-103645038D02*
X101385951Y-103692657D01*
X101385951Y-103692657D02*
X101433570Y-103787895D01*
X101433570Y-103787895D02*
X101433570Y-104025990D01*
X101433570Y-104025990D02*
X101385951Y-104121228D01*
X101385951Y-104121228D02*
X101338332Y-104168847D01*
X101338332Y-104168847D02*
X101243094Y-104216466D01*
X101243094Y-104216466D02*
X101052618Y-104216466D01*
X101052618Y-104216466D02*
X100957380Y-104168847D01*
X100957380Y-104168847D02*
X100909761Y-104121228D01*
X100909761Y-104121228D02*
X100862142Y-104025990D01*
X100528808Y-104978371D02*
X100481189Y-104930752D01*
X100481189Y-104930752D02*
X100385951Y-104787895D01*
X100385951Y-104787895D02*
X100338332Y-104692657D01*
X100338332Y-104692657D02*
X100290713Y-104549800D01*
X100290713Y-104549800D02*
X100243094Y-104311704D01*
X100243094Y-104311704D02*
X100243094Y-104121228D01*
X100243094Y-104121228D02*
X100290713Y-103883133D01*
X100290713Y-103883133D02*
X100338332Y-103740276D01*
X100338332Y-103740276D02*
X100385951Y-103645038D01*
X100385951Y-103645038D02*
X100481189Y-103502180D01*
X100481189Y-103502180D02*
X100528808Y-103454561D01*
X73217208Y-89775312D02*
X73264828Y-89727693D01*
X73264828Y-89727693D02*
X73312447Y-89584836D01*
X73312447Y-89584836D02*
X73312447Y-89489598D01*
X73312447Y-89489598D02*
X73264828Y-89346741D01*
X73264828Y-89346741D02*
X73169589Y-89251503D01*
X73169589Y-89251503D02*
X73074351Y-89203884D01*
X73074351Y-89203884D02*
X72883875Y-89156265D01*
X72883875Y-89156265D02*
X72741018Y-89156265D01*
X72741018Y-89156265D02*
X72550542Y-89203884D01*
X72550542Y-89203884D02*
X72455304Y-89251503D01*
X72455304Y-89251503D02*
X72360066Y-89346741D01*
X72360066Y-89346741D02*
X72312447Y-89489598D01*
X72312447Y-89489598D02*
X72312447Y-89584836D01*
X72312447Y-89584836D02*
X72360066Y-89727693D01*
X72360066Y-89727693D02*
X72407685Y-89775312D01*
X73312447Y-90203884D02*
X72312447Y-90203884D01*
X72312447Y-90203884D02*
X73026732Y-90537217D01*
X73026732Y-90537217D02*
X72312447Y-90870550D01*
X72312447Y-90870550D02*
X73312447Y-90870550D01*
X73312447Y-91346741D02*
X72312447Y-91346741D01*
X72312447Y-91346741D02*
X72312447Y-91584836D01*
X72312447Y-91584836D02*
X72360066Y-91727693D01*
X72360066Y-91727693D02*
X72455304Y-91822931D01*
X72455304Y-91822931D02*
X72550542Y-91870550D01*
X72550542Y-91870550D02*
X72741018Y-91918169D01*
X72741018Y-91918169D02*
X72883875Y-91918169D01*
X72883875Y-91918169D02*
X73074351Y-91870550D01*
X73074351Y-91870550D02*
X73169589Y-91822931D01*
X73169589Y-91822931D02*
X73264828Y-91727693D01*
X73264828Y-91727693D02*
X73312447Y-91584836D01*
X73312447Y-91584836D02*
X73312447Y-91346741D01*
X75303343Y-89489598D02*
X75255724Y-89441979D01*
X75255724Y-89441979D02*
X75112867Y-89346741D01*
X75112867Y-89346741D02*
X75017629Y-89299122D01*
X75017629Y-89299122D02*
X74874772Y-89251503D01*
X74874772Y-89251503D02*
X74636676Y-89203884D01*
X74636676Y-89203884D02*
X74446200Y-89203884D01*
X74446200Y-89203884D02*
X74208105Y-89251503D01*
X74208105Y-89251503D02*
X74065248Y-89299122D01*
X74065248Y-89299122D02*
X73970010Y-89346741D01*
X73970010Y-89346741D02*
X73827152Y-89441979D01*
X73827152Y-89441979D02*
X73779533Y-89489598D01*
X73970010Y-90394360D02*
X73922391Y-90299122D01*
X73922391Y-90299122D02*
X73922391Y-90156265D01*
X73922391Y-90156265D02*
X73970010Y-90013408D01*
X73970010Y-90013408D02*
X74065248Y-89918170D01*
X74065248Y-89918170D02*
X74160486Y-89870551D01*
X74160486Y-89870551D02*
X74350962Y-89822932D01*
X74350962Y-89822932D02*
X74493819Y-89822932D01*
X74493819Y-89822932D02*
X74684295Y-89870551D01*
X74684295Y-89870551D02*
X74779533Y-89918170D01*
X74779533Y-89918170D02*
X74874772Y-90013408D01*
X74874772Y-90013408D02*
X74922391Y-90156265D01*
X74922391Y-90156265D02*
X74922391Y-90251503D01*
X74922391Y-90251503D02*
X74874772Y-90394360D01*
X74874772Y-90394360D02*
X74827152Y-90441979D01*
X74827152Y-90441979D02*
X74493819Y-90441979D01*
X74493819Y-90441979D02*
X74493819Y-90251503D01*
X74922391Y-90870551D02*
X73922391Y-90870551D01*
X73922391Y-90870551D02*
X73922391Y-91251503D01*
X73922391Y-91251503D02*
X73970010Y-91346741D01*
X73970010Y-91346741D02*
X74017629Y-91394360D01*
X74017629Y-91394360D02*
X74112867Y-91441979D01*
X74112867Y-91441979D02*
X74255724Y-91441979D01*
X74255724Y-91441979D02*
X74350962Y-91394360D01*
X74350962Y-91394360D02*
X74398581Y-91346741D01*
X74398581Y-91346741D02*
X74446200Y-91251503D01*
X74446200Y-91251503D02*
X74446200Y-90870551D01*
X74017629Y-91822932D02*
X73970010Y-91870551D01*
X73970010Y-91870551D02*
X73922391Y-91965789D01*
X73922391Y-91965789D02*
X73922391Y-92203884D01*
X73922391Y-92203884D02*
X73970010Y-92299122D01*
X73970010Y-92299122D02*
X74017629Y-92346741D01*
X74017629Y-92346741D02*
X74112867Y-92394360D01*
X74112867Y-92394360D02*
X74208105Y-92394360D01*
X74208105Y-92394360D02*
X74350962Y-92346741D01*
X74350962Y-92346741D02*
X74922391Y-91775313D01*
X74922391Y-91775313D02*
X74922391Y-92394360D01*
X74350962Y-92965789D02*
X74303343Y-92870551D01*
X74303343Y-92870551D02*
X74255724Y-92822932D01*
X74255724Y-92822932D02*
X74160486Y-92775313D01*
X74160486Y-92775313D02*
X74112867Y-92775313D01*
X74112867Y-92775313D02*
X74017629Y-92822932D01*
X74017629Y-92822932D02*
X73970010Y-92870551D01*
X73970010Y-92870551D02*
X73922391Y-92965789D01*
X73922391Y-92965789D02*
X73922391Y-93156265D01*
X73922391Y-93156265D02*
X73970010Y-93251503D01*
X73970010Y-93251503D02*
X74017629Y-93299122D01*
X74017629Y-93299122D02*
X74112867Y-93346741D01*
X74112867Y-93346741D02*
X74160486Y-93346741D01*
X74160486Y-93346741D02*
X74255724Y-93299122D01*
X74255724Y-93299122D02*
X74303343Y-93251503D01*
X74303343Y-93251503D02*
X74350962Y-93156265D01*
X74350962Y-93156265D02*
X74350962Y-92965789D01*
X74350962Y-92965789D02*
X74398581Y-92870551D01*
X74398581Y-92870551D02*
X74446200Y-92822932D01*
X74446200Y-92822932D02*
X74541438Y-92775313D01*
X74541438Y-92775313D02*
X74731914Y-92775313D01*
X74731914Y-92775313D02*
X74827152Y-92822932D01*
X74827152Y-92822932D02*
X74874772Y-92870551D01*
X74874772Y-92870551D02*
X74922391Y-92965789D01*
X74922391Y-92965789D02*
X74922391Y-93156265D01*
X74922391Y-93156265D02*
X74874772Y-93251503D01*
X74874772Y-93251503D02*
X74827152Y-93299122D01*
X74827152Y-93299122D02*
X74731914Y-93346741D01*
X74731914Y-93346741D02*
X74541438Y-93346741D01*
X74541438Y-93346741D02*
X74446200Y-93299122D01*
X74446200Y-93299122D02*
X74398581Y-93251503D01*
X74398581Y-93251503D02*
X74350962Y-93156265D01*
X75303343Y-93680075D02*
X75255724Y-93727694D01*
X75255724Y-93727694D02*
X75112867Y-93822932D01*
X75112867Y-93822932D02*
X75017629Y-93870551D01*
X75017629Y-93870551D02*
X74874772Y-93918170D01*
X74874772Y-93918170D02*
X74636676Y-93965789D01*
X74636676Y-93965789D02*
X74446200Y-93965789D01*
X74446200Y-93965789D02*
X74208105Y-93918170D01*
X74208105Y-93918170D02*
X74065248Y-93870551D01*
X74065248Y-93870551D02*
X73970010Y-93822932D01*
X73970010Y-93822932D02*
X73827152Y-93727694D01*
X73827152Y-93727694D02*
X73779533Y-93680075D01*
X136221115Y-92786466D02*
X135459211Y-92786466D01*
X135840163Y-93167419D02*
X135840163Y-92405514D01*
X134506830Y-92167419D02*
X134983020Y-92167419D01*
X134983020Y-92167419D02*
X135030639Y-92643609D01*
X135030639Y-92643609D02*
X134983020Y-92595990D01*
X134983020Y-92595990D02*
X134887782Y-92548371D01*
X134887782Y-92548371D02*
X134649687Y-92548371D01*
X134649687Y-92548371D02*
X134554449Y-92595990D01*
X134554449Y-92595990D02*
X134506830Y-92643609D01*
X134506830Y-92643609D02*
X134459211Y-92738847D01*
X134459211Y-92738847D02*
X134459211Y-92976942D01*
X134459211Y-92976942D02*
X134506830Y-93072180D01*
X134506830Y-93072180D02*
X134554449Y-93119800D01*
X134554449Y-93119800D02*
X134649687Y-93167419D01*
X134649687Y-93167419D02*
X134887782Y-93167419D01*
X134887782Y-93167419D02*
X134983020Y-93119800D01*
X134983020Y-93119800D02*
X135030639Y-93072180D01*
X134173496Y-92167419D02*
X133840163Y-93167419D01*
X133840163Y-93167419D02*
X133506830Y-92167419D01*
X114053571Y-112963609D02*
X113910714Y-113011228D01*
X113910714Y-113011228D02*
X113863095Y-113058847D01*
X113863095Y-113058847D02*
X113815476Y-113154085D01*
X113815476Y-113154085D02*
X113815476Y-113296942D01*
X113815476Y-113296942D02*
X113863095Y-113392180D01*
X113863095Y-113392180D02*
X113910714Y-113439800D01*
X113910714Y-113439800D02*
X114005952Y-113487419D01*
X114005952Y-113487419D02*
X114386904Y-113487419D01*
X114386904Y-113487419D02*
X114386904Y-112487419D01*
X114386904Y-112487419D02*
X114053571Y-112487419D01*
X114053571Y-112487419D02*
X113958333Y-112535038D01*
X113958333Y-112535038D02*
X113910714Y-112582657D01*
X113910714Y-112582657D02*
X113863095Y-112677895D01*
X113863095Y-112677895D02*
X113863095Y-112773133D01*
X113863095Y-112773133D02*
X113910714Y-112868371D01*
X113910714Y-112868371D02*
X113958333Y-112915990D01*
X113958333Y-112915990D02*
X114053571Y-112963609D01*
X114053571Y-112963609D02*
X114386904Y-112963609D01*
X113482142Y-112487419D02*
X112863095Y-112487419D01*
X112863095Y-112487419D02*
X113196428Y-112868371D01*
X113196428Y-112868371D02*
X113053571Y-112868371D01*
X113053571Y-112868371D02*
X112958333Y-112915990D01*
X112958333Y-112915990D02*
X112910714Y-112963609D01*
X112910714Y-112963609D02*
X112863095Y-113058847D01*
X112863095Y-113058847D02*
X112863095Y-113296942D01*
X112863095Y-113296942D02*
X112910714Y-113392180D01*
X112910714Y-113392180D02*
X112958333Y-113439800D01*
X112958333Y-113439800D02*
X113053571Y-113487419D01*
X113053571Y-113487419D02*
X113339285Y-113487419D01*
X113339285Y-113487419D02*
X113434523Y-113439800D01*
X113434523Y-113439800D02*
X113482142Y-113392180D01*
X111386904Y-113868371D02*
X111434523Y-113820752D01*
X111434523Y-113820752D02*
X111529761Y-113677895D01*
X111529761Y-113677895D02*
X111577380Y-113582657D01*
X111577380Y-113582657D02*
X111624999Y-113439800D01*
X111624999Y-113439800D02*
X111672618Y-113201704D01*
X111672618Y-113201704D02*
X111672618Y-113011228D01*
X111672618Y-113011228D02*
X111624999Y-112773133D01*
X111624999Y-112773133D02*
X111577380Y-112630276D01*
X111577380Y-112630276D02*
X111529761Y-112535038D01*
X111529761Y-112535038D02*
X111434523Y-112392180D01*
X111434523Y-112392180D02*
X111386904Y-112344561D01*
X110482142Y-112535038D02*
X110577380Y-112487419D01*
X110577380Y-112487419D02*
X110720237Y-112487419D01*
X110720237Y-112487419D02*
X110863094Y-112535038D01*
X110863094Y-112535038D02*
X110958332Y-112630276D01*
X110958332Y-112630276D02*
X111005951Y-112725514D01*
X111005951Y-112725514D02*
X111053570Y-112915990D01*
X111053570Y-112915990D02*
X111053570Y-113058847D01*
X111053570Y-113058847D02*
X111005951Y-113249323D01*
X111005951Y-113249323D02*
X110958332Y-113344561D01*
X110958332Y-113344561D02*
X110863094Y-113439800D01*
X110863094Y-113439800D02*
X110720237Y-113487419D01*
X110720237Y-113487419D02*
X110624999Y-113487419D01*
X110624999Y-113487419D02*
X110482142Y-113439800D01*
X110482142Y-113439800D02*
X110434523Y-113392180D01*
X110434523Y-113392180D02*
X110434523Y-113058847D01*
X110434523Y-113058847D02*
X110624999Y-113058847D01*
X110005951Y-113487419D02*
X110005951Y-112487419D01*
X110005951Y-112487419D02*
X109624999Y-112487419D01*
X109624999Y-112487419D02*
X109529761Y-112535038D01*
X109529761Y-112535038D02*
X109482142Y-112582657D01*
X109482142Y-112582657D02*
X109434523Y-112677895D01*
X109434523Y-112677895D02*
X109434523Y-112820752D01*
X109434523Y-112820752D02*
X109482142Y-112915990D01*
X109482142Y-112915990D02*
X109529761Y-112963609D01*
X109529761Y-112963609D02*
X109624999Y-113011228D01*
X109624999Y-113011228D02*
X110005951Y-113011228D01*
X108529761Y-112487419D02*
X109005951Y-112487419D01*
X109005951Y-112487419D02*
X109053570Y-112963609D01*
X109053570Y-112963609D02*
X109005951Y-112915990D01*
X109005951Y-112915990D02*
X108910713Y-112868371D01*
X108910713Y-112868371D02*
X108672618Y-112868371D01*
X108672618Y-112868371D02*
X108577380Y-112915990D01*
X108577380Y-112915990D02*
X108529761Y-112963609D01*
X108529761Y-112963609D02*
X108482142Y-113058847D01*
X108482142Y-113058847D02*
X108482142Y-113296942D01*
X108482142Y-113296942D02*
X108529761Y-113392180D01*
X108529761Y-113392180D02*
X108577380Y-113439800D01*
X108577380Y-113439800D02*
X108672618Y-113487419D01*
X108672618Y-113487419D02*
X108910713Y-113487419D01*
X108910713Y-113487419D02*
X109005951Y-113439800D01*
X109005951Y-113439800D02*
X109053570Y-113392180D01*
X108148808Y-113868371D02*
X108101189Y-113820752D01*
X108101189Y-113820752D02*
X108005951Y-113677895D01*
X108005951Y-113677895D02*
X107958332Y-113582657D01*
X107958332Y-113582657D02*
X107910713Y-113439800D01*
X107910713Y-113439800D02*
X107863094Y-113201704D01*
X107863094Y-113201704D02*
X107863094Y-113011228D01*
X107863094Y-113011228D02*
X107910713Y-112773133D01*
X107910713Y-112773133D02*
X107958332Y-112630276D01*
X107958332Y-112630276D02*
X108005951Y-112535038D01*
X108005951Y-112535038D02*
X108101189Y-112392180D01*
X108101189Y-112392180D02*
X108148808Y-112344561D01*
X91669762Y-104073609D02*
X91526905Y-104121228D01*
X91526905Y-104121228D02*
X91479286Y-104168847D01*
X91479286Y-104168847D02*
X91431667Y-104264085D01*
X91431667Y-104264085D02*
X91431667Y-104406942D01*
X91431667Y-104406942D02*
X91479286Y-104502180D01*
X91479286Y-104502180D02*
X91526905Y-104549800D01*
X91526905Y-104549800D02*
X91622143Y-104597419D01*
X91622143Y-104597419D02*
X92003095Y-104597419D01*
X92003095Y-104597419D02*
X92003095Y-103597419D01*
X92003095Y-103597419D02*
X91669762Y-103597419D01*
X91669762Y-103597419D02*
X91574524Y-103645038D01*
X91574524Y-103645038D02*
X91526905Y-103692657D01*
X91526905Y-103692657D02*
X91479286Y-103787895D01*
X91479286Y-103787895D02*
X91479286Y-103883133D01*
X91479286Y-103883133D02*
X91526905Y-103978371D01*
X91526905Y-103978371D02*
X91574524Y-104025990D01*
X91574524Y-104025990D02*
X91669762Y-104073609D01*
X91669762Y-104073609D02*
X92003095Y-104073609D01*
X90574524Y-103597419D02*
X90765000Y-103597419D01*
X90765000Y-103597419D02*
X90860238Y-103645038D01*
X90860238Y-103645038D02*
X90907857Y-103692657D01*
X90907857Y-103692657D02*
X91003095Y-103835514D01*
X91003095Y-103835514D02*
X91050714Y-104025990D01*
X91050714Y-104025990D02*
X91050714Y-104406942D01*
X91050714Y-104406942D02*
X91003095Y-104502180D01*
X91003095Y-104502180D02*
X90955476Y-104549800D01*
X90955476Y-104549800D02*
X90860238Y-104597419D01*
X90860238Y-104597419D02*
X90669762Y-104597419D01*
X90669762Y-104597419D02*
X90574524Y-104549800D01*
X90574524Y-104549800D02*
X90526905Y-104502180D01*
X90526905Y-104502180D02*
X90479286Y-104406942D01*
X90479286Y-104406942D02*
X90479286Y-104168847D01*
X90479286Y-104168847D02*
X90526905Y-104073609D01*
X90526905Y-104073609D02*
X90574524Y-104025990D01*
X90574524Y-104025990D02*
X90669762Y-103978371D01*
X90669762Y-103978371D02*
X90860238Y-103978371D01*
X90860238Y-103978371D02*
X90955476Y-104025990D01*
X90955476Y-104025990D02*
X91003095Y-104073609D01*
X91003095Y-104073609D02*
X91050714Y-104168847D01*
X89003095Y-104978371D02*
X89050714Y-104930752D01*
X89050714Y-104930752D02*
X89145952Y-104787895D01*
X89145952Y-104787895D02*
X89193571Y-104692657D01*
X89193571Y-104692657D02*
X89241190Y-104549800D01*
X89241190Y-104549800D02*
X89288809Y-104311704D01*
X89288809Y-104311704D02*
X89288809Y-104121228D01*
X89288809Y-104121228D02*
X89241190Y-103883133D01*
X89241190Y-103883133D02*
X89193571Y-103740276D01*
X89193571Y-103740276D02*
X89145952Y-103645038D01*
X89145952Y-103645038D02*
X89050714Y-103502180D01*
X89050714Y-103502180D02*
X89003095Y-103454561D01*
X88098333Y-103645038D02*
X88193571Y-103597419D01*
X88193571Y-103597419D02*
X88336428Y-103597419D01*
X88336428Y-103597419D02*
X88479285Y-103645038D01*
X88479285Y-103645038D02*
X88574523Y-103740276D01*
X88574523Y-103740276D02*
X88622142Y-103835514D01*
X88622142Y-103835514D02*
X88669761Y-104025990D01*
X88669761Y-104025990D02*
X88669761Y-104168847D01*
X88669761Y-104168847D02*
X88622142Y-104359323D01*
X88622142Y-104359323D02*
X88574523Y-104454561D01*
X88574523Y-104454561D02*
X88479285Y-104549800D01*
X88479285Y-104549800D02*
X88336428Y-104597419D01*
X88336428Y-104597419D02*
X88241190Y-104597419D01*
X88241190Y-104597419D02*
X88098333Y-104549800D01*
X88098333Y-104549800D02*
X88050714Y-104502180D01*
X88050714Y-104502180D02*
X88050714Y-104168847D01*
X88050714Y-104168847D02*
X88241190Y-104168847D01*
X87622142Y-104597419D02*
X87622142Y-103597419D01*
X87622142Y-103597419D02*
X87241190Y-103597419D01*
X87241190Y-103597419D02*
X87145952Y-103645038D01*
X87145952Y-103645038D02*
X87098333Y-103692657D01*
X87098333Y-103692657D02*
X87050714Y-103787895D01*
X87050714Y-103787895D02*
X87050714Y-103930752D01*
X87050714Y-103930752D02*
X87098333Y-104025990D01*
X87098333Y-104025990D02*
X87145952Y-104073609D01*
X87145952Y-104073609D02*
X87241190Y-104121228D01*
X87241190Y-104121228D02*
X87622142Y-104121228D01*
X86098333Y-104597419D02*
X86669761Y-104597419D01*
X86384047Y-104597419D02*
X86384047Y-103597419D01*
X86384047Y-103597419D02*
X86479285Y-103740276D01*
X86479285Y-103740276D02*
X86574523Y-103835514D01*
X86574523Y-103835514D02*
X86669761Y-103883133D01*
X85479285Y-103597419D02*
X85384047Y-103597419D01*
X85384047Y-103597419D02*
X85288809Y-103645038D01*
X85288809Y-103645038D02*
X85241190Y-103692657D01*
X85241190Y-103692657D02*
X85193571Y-103787895D01*
X85193571Y-103787895D02*
X85145952Y-103978371D01*
X85145952Y-103978371D02*
X85145952Y-104216466D01*
X85145952Y-104216466D02*
X85193571Y-104406942D01*
X85193571Y-104406942D02*
X85241190Y-104502180D01*
X85241190Y-104502180D02*
X85288809Y-104549800D01*
X85288809Y-104549800D02*
X85384047Y-104597419D01*
X85384047Y-104597419D02*
X85479285Y-104597419D01*
X85479285Y-104597419D02*
X85574523Y-104549800D01*
X85574523Y-104549800D02*
X85622142Y-104502180D01*
X85622142Y-104502180D02*
X85669761Y-104406942D01*
X85669761Y-104406942D02*
X85717380Y-104216466D01*
X85717380Y-104216466D02*
X85717380Y-103978371D01*
X85717380Y-103978371D02*
X85669761Y-103787895D01*
X85669761Y-103787895D02*
X85622142Y-103692657D01*
X85622142Y-103692657D02*
X85574523Y-103645038D01*
X85574523Y-103645038D02*
X85479285Y-103597419D01*
X84812618Y-104978371D02*
X84764999Y-104930752D01*
X84764999Y-104930752D02*
X84669761Y-104787895D01*
X84669761Y-104787895D02*
X84622142Y-104692657D01*
X84622142Y-104692657D02*
X84574523Y-104549800D01*
X84574523Y-104549800D02*
X84526904Y-104311704D01*
X84526904Y-104311704D02*
X84526904Y-104121228D01*
X84526904Y-104121228D02*
X84574523Y-103883133D01*
X84574523Y-103883133D02*
X84622142Y-103740276D01*
X84622142Y-103740276D02*
X84669761Y-103645038D01*
X84669761Y-103645038D02*
X84764999Y-103502180D01*
X84764999Y-103502180D02*
X84812618Y-103454561D01*
X73661979Y-69574800D02*
X73519122Y-69622419D01*
X73519122Y-69622419D02*
X73281027Y-69622419D01*
X73281027Y-69622419D02*
X73185789Y-69574800D01*
X73185789Y-69574800D02*
X73138170Y-69527180D01*
X73138170Y-69527180D02*
X73090551Y-69431942D01*
X73090551Y-69431942D02*
X73090551Y-69336704D01*
X73090551Y-69336704D02*
X73138170Y-69241466D01*
X73138170Y-69241466D02*
X73185789Y-69193847D01*
X73185789Y-69193847D02*
X73281027Y-69146228D01*
X73281027Y-69146228D02*
X73471503Y-69098609D01*
X73471503Y-69098609D02*
X73566741Y-69050990D01*
X73566741Y-69050990D02*
X73614360Y-69003371D01*
X73614360Y-69003371D02*
X73661979Y-68908133D01*
X73661979Y-68908133D02*
X73661979Y-68812895D01*
X73661979Y-68812895D02*
X73614360Y-68717657D01*
X73614360Y-68717657D02*
X73566741Y-68670038D01*
X73566741Y-68670038D02*
X73471503Y-68622419D01*
X73471503Y-68622419D02*
X73233408Y-68622419D01*
X73233408Y-68622419D02*
X73090551Y-68670038D01*
X72661979Y-69098609D02*
X72328646Y-69098609D01*
X72185789Y-69622419D02*
X72661979Y-69622419D01*
X72661979Y-69622419D02*
X72661979Y-68622419D01*
X72661979Y-68622419D02*
X72185789Y-68622419D01*
X71281027Y-69622419D02*
X71757217Y-69622419D01*
X71757217Y-69622419D02*
X71757217Y-68622419D01*
X75900075Y-71613315D02*
X75947694Y-71565696D01*
X75947694Y-71565696D02*
X76042932Y-71422839D01*
X76042932Y-71422839D02*
X76090551Y-71327601D01*
X76090551Y-71327601D02*
X76138170Y-71184744D01*
X76138170Y-71184744D02*
X76185789Y-70946648D01*
X76185789Y-70946648D02*
X76185789Y-70756172D01*
X76185789Y-70756172D02*
X76138170Y-70518077D01*
X76138170Y-70518077D02*
X76090551Y-70375220D01*
X76090551Y-70375220D02*
X76042932Y-70279982D01*
X76042932Y-70279982D02*
X75947694Y-70137124D01*
X75947694Y-70137124D02*
X75900075Y-70089505D01*
X74995313Y-70279982D02*
X75090551Y-70232363D01*
X75090551Y-70232363D02*
X75233408Y-70232363D01*
X75233408Y-70232363D02*
X75376265Y-70279982D01*
X75376265Y-70279982D02*
X75471503Y-70375220D01*
X75471503Y-70375220D02*
X75519122Y-70470458D01*
X75519122Y-70470458D02*
X75566741Y-70660934D01*
X75566741Y-70660934D02*
X75566741Y-70803791D01*
X75566741Y-70803791D02*
X75519122Y-70994267D01*
X75519122Y-70994267D02*
X75471503Y-71089505D01*
X75471503Y-71089505D02*
X75376265Y-71184744D01*
X75376265Y-71184744D02*
X75233408Y-71232363D01*
X75233408Y-71232363D02*
X75138170Y-71232363D01*
X75138170Y-71232363D02*
X74995313Y-71184744D01*
X74995313Y-71184744D02*
X74947694Y-71137124D01*
X74947694Y-71137124D02*
X74947694Y-70803791D01*
X74947694Y-70803791D02*
X75138170Y-70803791D01*
X74519122Y-71232363D02*
X74519122Y-70232363D01*
X74519122Y-70232363D02*
X74138170Y-70232363D01*
X74138170Y-70232363D02*
X74042932Y-70279982D01*
X74042932Y-70279982D02*
X73995313Y-70327601D01*
X73995313Y-70327601D02*
X73947694Y-70422839D01*
X73947694Y-70422839D02*
X73947694Y-70565696D01*
X73947694Y-70565696D02*
X73995313Y-70660934D01*
X73995313Y-70660934D02*
X74042932Y-70708553D01*
X74042932Y-70708553D02*
X74138170Y-70756172D01*
X74138170Y-70756172D02*
X74519122Y-70756172D01*
X72995313Y-71232363D02*
X73566741Y-71232363D01*
X73281027Y-71232363D02*
X73281027Y-70232363D01*
X73281027Y-70232363D02*
X73376265Y-70375220D01*
X73376265Y-70375220D02*
X73471503Y-70470458D01*
X73471503Y-70470458D02*
X73566741Y-70518077D01*
X72661979Y-70232363D02*
X72042932Y-70232363D01*
X72042932Y-70232363D02*
X72376265Y-70613315D01*
X72376265Y-70613315D02*
X72233408Y-70613315D01*
X72233408Y-70613315D02*
X72138170Y-70660934D01*
X72138170Y-70660934D02*
X72090551Y-70708553D01*
X72090551Y-70708553D02*
X72042932Y-70803791D01*
X72042932Y-70803791D02*
X72042932Y-71041886D01*
X72042932Y-71041886D02*
X72090551Y-71137124D01*
X72090551Y-71137124D02*
X72138170Y-71184744D01*
X72138170Y-71184744D02*
X72233408Y-71232363D01*
X72233408Y-71232363D02*
X72519122Y-71232363D01*
X72519122Y-71232363D02*
X72614360Y-71184744D01*
X72614360Y-71184744D02*
X72661979Y-71137124D01*
X71709598Y-71613315D02*
X71661979Y-71565696D01*
X71661979Y-71565696D02*
X71566741Y-71422839D01*
X71566741Y-71422839D02*
X71519122Y-71327601D01*
X71519122Y-71327601D02*
X71471503Y-71184744D01*
X71471503Y-71184744D02*
X71423884Y-70946648D01*
X71423884Y-70946648D02*
X71423884Y-70756172D01*
X71423884Y-70756172D02*
X71471503Y-70518077D01*
X71471503Y-70518077D02*
X71519122Y-70375220D01*
X71519122Y-70375220D02*
X71566741Y-70279982D01*
X71566741Y-70279982D02*
X71661979Y-70137124D01*
X71661979Y-70137124D02*
X71709598Y-70089505D01*
X136268734Y-90341704D02*
X135792544Y-90341704D01*
X136363972Y-90627419D02*
X136030639Y-89627419D01*
X136030639Y-89627419D02*
X135697306Y-90627419D01*
X135078258Y-91008371D02*
X135125877Y-90960752D01*
X135125877Y-90960752D02*
X135221115Y-90817895D01*
X135221115Y-90817895D02*
X135268734Y-90722657D01*
X135268734Y-90722657D02*
X135316353Y-90579800D01*
X135316353Y-90579800D02*
X135363972Y-90341704D01*
X135363972Y-90341704D02*
X135363972Y-90151228D01*
X135363972Y-90151228D02*
X135316353Y-89913133D01*
X135316353Y-89913133D02*
X135268734Y-89770276D01*
X135268734Y-89770276D02*
X135221115Y-89675038D01*
X135221115Y-89675038D02*
X135125877Y-89532180D01*
X135125877Y-89532180D02*
X135078258Y-89484561D01*
X134173496Y-89675038D02*
X134268734Y-89627419D01*
X134268734Y-89627419D02*
X134411591Y-89627419D01*
X134411591Y-89627419D02*
X134554448Y-89675038D01*
X134554448Y-89675038D02*
X134649686Y-89770276D01*
X134649686Y-89770276D02*
X134697305Y-89865514D01*
X134697305Y-89865514D02*
X134744924Y-90055990D01*
X134744924Y-90055990D02*
X134744924Y-90198847D01*
X134744924Y-90198847D02*
X134697305Y-90389323D01*
X134697305Y-90389323D02*
X134649686Y-90484561D01*
X134649686Y-90484561D02*
X134554448Y-90579800D01*
X134554448Y-90579800D02*
X134411591Y-90627419D01*
X134411591Y-90627419D02*
X134316353Y-90627419D01*
X134316353Y-90627419D02*
X134173496Y-90579800D01*
X134173496Y-90579800D02*
X134125877Y-90532180D01*
X134125877Y-90532180D02*
X134125877Y-90198847D01*
X134125877Y-90198847D02*
X134316353Y-90198847D01*
X133697305Y-90627419D02*
X133697305Y-89627419D01*
X133697305Y-89627419D02*
X133316353Y-89627419D01*
X133316353Y-89627419D02*
X133221115Y-89675038D01*
X133221115Y-89675038D02*
X133173496Y-89722657D01*
X133173496Y-89722657D02*
X133125877Y-89817895D01*
X133125877Y-89817895D02*
X133125877Y-89960752D01*
X133125877Y-89960752D02*
X133173496Y-90055990D01*
X133173496Y-90055990D02*
X133221115Y-90103609D01*
X133221115Y-90103609D02*
X133316353Y-90151228D01*
X133316353Y-90151228D02*
X133697305Y-90151228D01*
X132173496Y-90627419D02*
X132744924Y-90627419D01*
X132459210Y-90627419D02*
X132459210Y-89627419D01*
X132459210Y-89627419D02*
X132554448Y-89770276D01*
X132554448Y-89770276D02*
X132649686Y-89865514D01*
X132649686Y-89865514D02*
X132744924Y-89913133D01*
X131792543Y-89722657D02*
X131744924Y-89675038D01*
X131744924Y-89675038D02*
X131649686Y-89627419D01*
X131649686Y-89627419D02*
X131411591Y-89627419D01*
X131411591Y-89627419D02*
X131316353Y-89675038D01*
X131316353Y-89675038D02*
X131268734Y-89722657D01*
X131268734Y-89722657D02*
X131221115Y-89817895D01*
X131221115Y-89817895D02*
X131221115Y-89913133D01*
X131221115Y-89913133D02*
X131268734Y-90055990D01*
X131268734Y-90055990D02*
X131840162Y-90627419D01*
X131840162Y-90627419D02*
X131221115Y-90627419D01*
X130887781Y-91008371D02*
X130840162Y-90960752D01*
X130840162Y-90960752D02*
X130744924Y-90817895D01*
X130744924Y-90817895D02*
X130697305Y-90722657D01*
X130697305Y-90722657D02*
X130649686Y-90579800D01*
X130649686Y-90579800D02*
X130602067Y-90341704D01*
X130602067Y-90341704D02*
X130602067Y-90151228D01*
X130602067Y-90151228D02*
X130649686Y-89913133D01*
X130649686Y-89913133D02*
X130697305Y-89770276D01*
X130697305Y-89770276D02*
X130744924Y-89675038D01*
X130744924Y-89675038D02*
X130840162Y-89532180D01*
X130840162Y-89532180D02*
X130887781Y-89484561D01*
X68867447Y-89203884D02*
X67867447Y-89203884D01*
X67867447Y-89203884D02*
X67867447Y-89441979D01*
X67867447Y-89441979D02*
X67915066Y-89584836D01*
X67915066Y-89584836D02*
X68010304Y-89680074D01*
X68010304Y-89680074D02*
X68105542Y-89727693D01*
X68105542Y-89727693D02*
X68296018Y-89775312D01*
X68296018Y-89775312D02*
X68438875Y-89775312D01*
X68438875Y-89775312D02*
X68629351Y-89727693D01*
X68629351Y-89727693D02*
X68724589Y-89680074D01*
X68724589Y-89680074D02*
X68819828Y-89584836D01*
X68819828Y-89584836D02*
X68867447Y-89441979D01*
X68867447Y-89441979D02*
X68867447Y-89203884D01*
X68581732Y-90156265D02*
X68581732Y-90632455D01*
X68867447Y-90061027D02*
X67867447Y-90394360D01*
X67867447Y-90394360D02*
X68867447Y-90727693D01*
X67867447Y-90918170D02*
X67867447Y-91489598D01*
X68867447Y-91203884D02*
X67867447Y-91203884D01*
X70858343Y-89489598D02*
X70810724Y-89441979D01*
X70810724Y-89441979D02*
X70667867Y-89346741D01*
X70667867Y-89346741D02*
X70572629Y-89299122D01*
X70572629Y-89299122D02*
X70429772Y-89251503D01*
X70429772Y-89251503D02*
X70191676Y-89203884D01*
X70191676Y-89203884D02*
X70001200Y-89203884D01*
X70001200Y-89203884D02*
X69763105Y-89251503D01*
X69763105Y-89251503D02*
X69620248Y-89299122D01*
X69620248Y-89299122D02*
X69525010Y-89346741D01*
X69525010Y-89346741D02*
X69382152Y-89441979D01*
X69382152Y-89441979D02*
X69334533Y-89489598D01*
X69525010Y-90394360D02*
X69477391Y-90299122D01*
X69477391Y-90299122D02*
X69477391Y-90156265D01*
X69477391Y-90156265D02*
X69525010Y-90013408D01*
X69525010Y-90013408D02*
X69620248Y-89918170D01*
X69620248Y-89918170D02*
X69715486Y-89870551D01*
X69715486Y-89870551D02*
X69905962Y-89822932D01*
X69905962Y-89822932D02*
X70048819Y-89822932D01*
X70048819Y-89822932D02*
X70239295Y-89870551D01*
X70239295Y-89870551D02*
X70334533Y-89918170D01*
X70334533Y-89918170D02*
X70429772Y-90013408D01*
X70429772Y-90013408D02*
X70477391Y-90156265D01*
X70477391Y-90156265D02*
X70477391Y-90251503D01*
X70477391Y-90251503D02*
X70429772Y-90394360D01*
X70429772Y-90394360D02*
X70382152Y-90441979D01*
X70382152Y-90441979D02*
X70048819Y-90441979D01*
X70048819Y-90441979D02*
X70048819Y-90251503D01*
X70477391Y-90870551D02*
X69477391Y-90870551D01*
X69477391Y-90870551D02*
X69477391Y-91251503D01*
X69477391Y-91251503D02*
X69525010Y-91346741D01*
X69525010Y-91346741D02*
X69572629Y-91394360D01*
X69572629Y-91394360D02*
X69667867Y-91441979D01*
X69667867Y-91441979D02*
X69810724Y-91441979D01*
X69810724Y-91441979D02*
X69905962Y-91394360D01*
X69905962Y-91394360D02*
X69953581Y-91346741D01*
X69953581Y-91346741D02*
X70001200Y-91251503D01*
X70001200Y-91251503D02*
X70001200Y-90870551D01*
X69572629Y-91822932D02*
X69525010Y-91870551D01*
X69525010Y-91870551D02*
X69477391Y-91965789D01*
X69477391Y-91965789D02*
X69477391Y-92203884D01*
X69477391Y-92203884D02*
X69525010Y-92299122D01*
X69525010Y-92299122D02*
X69572629Y-92346741D01*
X69572629Y-92346741D02*
X69667867Y-92394360D01*
X69667867Y-92394360D02*
X69763105Y-92394360D01*
X69763105Y-92394360D02*
X69905962Y-92346741D01*
X69905962Y-92346741D02*
X70477391Y-91775313D01*
X70477391Y-91775313D02*
X70477391Y-92394360D01*
X70477391Y-92870551D02*
X70477391Y-93061027D01*
X70477391Y-93061027D02*
X70429772Y-93156265D01*
X70429772Y-93156265D02*
X70382152Y-93203884D01*
X70382152Y-93203884D02*
X70239295Y-93299122D01*
X70239295Y-93299122D02*
X70048819Y-93346741D01*
X70048819Y-93346741D02*
X69667867Y-93346741D01*
X69667867Y-93346741D02*
X69572629Y-93299122D01*
X69572629Y-93299122D02*
X69525010Y-93251503D01*
X69525010Y-93251503D02*
X69477391Y-93156265D01*
X69477391Y-93156265D02*
X69477391Y-92965789D01*
X69477391Y-92965789D02*
X69525010Y-92870551D01*
X69525010Y-92870551D02*
X69572629Y-92822932D01*
X69572629Y-92822932D02*
X69667867Y-92775313D01*
X69667867Y-92775313D02*
X69905962Y-92775313D01*
X69905962Y-92775313D02*
X70001200Y-92822932D01*
X70001200Y-92822932D02*
X70048819Y-92870551D01*
X70048819Y-92870551D02*
X70096438Y-92965789D01*
X70096438Y-92965789D02*
X70096438Y-93156265D01*
X70096438Y-93156265D02*
X70048819Y-93251503D01*
X70048819Y-93251503D02*
X70001200Y-93299122D01*
X70001200Y-93299122D02*
X69905962Y-93346741D01*
X70858343Y-93680075D02*
X70810724Y-93727694D01*
X70810724Y-93727694D02*
X70667867Y-93822932D01*
X70667867Y-93822932D02*
X70572629Y-93870551D01*
X70572629Y-93870551D02*
X70429772Y-93918170D01*
X70429772Y-93918170D02*
X70191676Y-93965789D01*
X70191676Y-93965789D02*
X70001200Y-93965789D01*
X70001200Y-93965789D02*
X69763105Y-93918170D01*
X69763105Y-93918170D02*
X69620248Y-93870551D01*
X69620248Y-93870551D02*
X69525010Y-93822932D01*
X69525010Y-93822932D02*
X69382152Y-93727694D01*
X69382152Y-93727694D02*
X69334533Y-93680075D01*
X83573571Y-112963609D02*
X83430714Y-113011228D01*
X83430714Y-113011228D02*
X83383095Y-113058847D01*
X83383095Y-113058847D02*
X83335476Y-113154085D01*
X83335476Y-113154085D02*
X83335476Y-113296942D01*
X83335476Y-113296942D02*
X83383095Y-113392180D01*
X83383095Y-113392180D02*
X83430714Y-113439800D01*
X83430714Y-113439800D02*
X83525952Y-113487419D01*
X83525952Y-113487419D02*
X83906904Y-113487419D01*
X83906904Y-113487419D02*
X83906904Y-112487419D01*
X83906904Y-112487419D02*
X83573571Y-112487419D01*
X83573571Y-112487419D02*
X83478333Y-112535038D01*
X83478333Y-112535038D02*
X83430714Y-112582657D01*
X83430714Y-112582657D02*
X83383095Y-112677895D01*
X83383095Y-112677895D02*
X83383095Y-112773133D01*
X83383095Y-112773133D02*
X83430714Y-112868371D01*
X83430714Y-112868371D02*
X83478333Y-112915990D01*
X83478333Y-112915990D02*
X83573571Y-112963609D01*
X83573571Y-112963609D02*
X83906904Y-112963609D01*
X83002142Y-112487419D02*
X82335476Y-112487419D01*
X82335476Y-112487419D02*
X82764047Y-113487419D01*
X80906904Y-113868371D02*
X80954523Y-113820752D01*
X80954523Y-113820752D02*
X81049761Y-113677895D01*
X81049761Y-113677895D02*
X81097380Y-113582657D01*
X81097380Y-113582657D02*
X81144999Y-113439800D01*
X81144999Y-113439800D02*
X81192618Y-113201704D01*
X81192618Y-113201704D02*
X81192618Y-113011228D01*
X81192618Y-113011228D02*
X81144999Y-112773133D01*
X81144999Y-112773133D02*
X81097380Y-112630276D01*
X81097380Y-112630276D02*
X81049761Y-112535038D01*
X81049761Y-112535038D02*
X80954523Y-112392180D01*
X80954523Y-112392180D02*
X80906904Y-112344561D01*
X80002142Y-112535038D02*
X80097380Y-112487419D01*
X80097380Y-112487419D02*
X80240237Y-112487419D01*
X80240237Y-112487419D02*
X80383094Y-112535038D01*
X80383094Y-112535038D02*
X80478332Y-112630276D01*
X80478332Y-112630276D02*
X80525951Y-112725514D01*
X80525951Y-112725514D02*
X80573570Y-112915990D01*
X80573570Y-112915990D02*
X80573570Y-113058847D01*
X80573570Y-113058847D02*
X80525951Y-113249323D01*
X80525951Y-113249323D02*
X80478332Y-113344561D01*
X80478332Y-113344561D02*
X80383094Y-113439800D01*
X80383094Y-113439800D02*
X80240237Y-113487419D01*
X80240237Y-113487419D02*
X80144999Y-113487419D01*
X80144999Y-113487419D02*
X80002142Y-113439800D01*
X80002142Y-113439800D02*
X79954523Y-113392180D01*
X79954523Y-113392180D02*
X79954523Y-113058847D01*
X79954523Y-113058847D02*
X80144999Y-113058847D01*
X79525951Y-113487419D02*
X79525951Y-112487419D01*
X79525951Y-112487419D02*
X79144999Y-112487419D01*
X79144999Y-112487419D02*
X79049761Y-112535038D01*
X79049761Y-112535038D02*
X79002142Y-112582657D01*
X79002142Y-112582657D02*
X78954523Y-112677895D01*
X78954523Y-112677895D02*
X78954523Y-112820752D01*
X78954523Y-112820752D02*
X79002142Y-112915990D01*
X79002142Y-112915990D02*
X79049761Y-112963609D01*
X79049761Y-112963609D02*
X79144999Y-113011228D01*
X79144999Y-113011228D02*
X79525951Y-113011228D01*
X78621189Y-112487419D02*
X77954523Y-112487419D01*
X77954523Y-112487419D02*
X78383094Y-113487419D01*
X77668808Y-113868371D02*
X77621189Y-113820752D01*
X77621189Y-113820752D02*
X77525951Y-113677895D01*
X77525951Y-113677895D02*
X77478332Y-113582657D01*
X77478332Y-113582657D02*
X77430713Y-113439800D01*
X77430713Y-113439800D02*
X77383094Y-113201704D01*
X77383094Y-113201704D02*
X77383094Y-113011228D01*
X77383094Y-113011228D02*
X77430713Y-112773133D01*
X77430713Y-112773133D02*
X77478332Y-112630276D01*
X77478332Y-112630276D02*
X77525951Y-112535038D01*
X77525951Y-112535038D02*
X77621189Y-112392180D01*
X77621189Y-112392180D02*
X77668808Y-112344561D01*
X100966732Y-89156265D02*
X100966732Y-89632455D01*
X101252447Y-89061027D02*
X100252447Y-89394360D01*
X100252447Y-89394360D02*
X101252447Y-89727693D01*
X101157208Y-90632455D02*
X101204828Y-90584836D01*
X101204828Y-90584836D02*
X101252447Y-90441979D01*
X101252447Y-90441979D02*
X101252447Y-90346741D01*
X101252447Y-90346741D02*
X101204828Y-90203884D01*
X101204828Y-90203884D02*
X101109589Y-90108646D01*
X101109589Y-90108646D02*
X101014351Y-90061027D01*
X101014351Y-90061027D02*
X100823875Y-90013408D01*
X100823875Y-90013408D02*
X100681018Y-90013408D01*
X100681018Y-90013408D02*
X100490542Y-90061027D01*
X100490542Y-90061027D02*
X100395304Y-90108646D01*
X100395304Y-90108646D02*
X100300066Y-90203884D01*
X100300066Y-90203884D02*
X100252447Y-90346741D01*
X100252447Y-90346741D02*
X100252447Y-90441979D01*
X100252447Y-90441979D02*
X100300066Y-90584836D01*
X100300066Y-90584836D02*
X100347685Y-90632455D01*
X101252447Y-91061027D02*
X100252447Y-91061027D01*
X101252447Y-91632455D02*
X100681018Y-91203884D01*
X100252447Y-91632455D02*
X100823875Y-91061027D01*
X103243343Y-89489598D02*
X103195724Y-89441979D01*
X103195724Y-89441979D02*
X103052867Y-89346741D01*
X103052867Y-89346741D02*
X102957629Y-89299122D01*
X102957629Y-89299122D02*
X102814772Y-89251503D01*
X102814772Y-89251503D02*
X102576676Y-89203884D01*
X102576676Y-89203884D02*
X102386200Y-89203884D01*
X102386200Y-89203884D02*
X102148105Y-89251503D01*
X102148105Y-89251503D02*
X102005248Y-89299122D01*
X102005248Y-89299122D02*
X101910010Y-89346741D01*
X101910010Y-89346741D02*
X101767152Y-89441979D01*
X101767152Y-89441979D02*
X101719533Y-89489598D01*
X101910010Y-90394360D02*
X101862391Y-90299122D01*
X101862391Y-90299122D02*
X101862391Y-90156265D01*
X101862391Y-90156265D02*
X101910010Y-90013408D01*
X101910010Y-90013408D02*
X102005248Y-89918170D01*
X102005248Y-89918170D02*
X102100486Y-89870551D01*
X102100486Y-89870551D02*
X102290962Y-89822932D01*
X102290962Y-89822932D02*
X102433819Y-89822932D01*
X102433819Y-89822932D02*
X102624295Y-89870551D01*
X102624295Y-89870551D02*
X102719533Y-89918170D01*
X102719533Y-89918170D02*
X102814772Y-90013408D01*
X102814772Y-90013408D02*
X102862391Y-90156265D01*
X102862391Y-90156265D02*
X102862391Y-90251503D01*
X102862391Y-90251503D02*
X102814772Y-90394360D01*
X102814772Y-90394360D02*
X102767152Y-90441979D01*
X102767152Y-90441979D02*
X102433819Y-90441979D01*
X102433819Y-90441979D02*
X102433819Y-90251503D01*
X102862391Y-90870551D02*
X101862391Y-90870551D01*
X101862391Y-90870551D02*
X101862391Y-91251503D01*
X101862391Y-91251503D02*
X101910010Y-91346741D01*
X101910010Y-91346741D02*
X101957629Y-91394360D01*
X101957629Y-91394360D02*
X102052867Y-91441979D01*
X102052867Y-91441979D02*
X102195724Y-91441979D01*
X102195724Y-91441979D02*
X102290962Y-91394360D01*
X102290962Y-91394360D02*
X102338581Y-91346741D01*
X102338581Y-91346741D02*
X102386200Y-91251503D01*
X102386200Y-91251503D02*
X102386200Y-90870551D01*
X102862391Y-92394360D02*
X102862391Y-91822932D01*
X102862391Y-92108646D02*
X101862391Y-92108646D01*
X101862391Y-92108646D02*
X102005248Y-92013408D01*
X102005248Y-92013408D02*
X102100486Y-91918170D01*
X102100486Y-91918170D02*
X102148105Y-91822932D01*
X101862391Y-93299122D02*
X101862391Y-92822932D01*
X101862391Y-92822932D02*
X102338581Y-92775313D01*
X102338581Y-92775313D02*
X102290962Y-92822932D01*
X102290962Y-92822932D02*
X102243343Y-92918170D01*
X102243343Y-92918170D02*
X102243343Y-93156265D01*
X102243343Y-93156265D02*
X102290962Y-93251503D01*
X102290962Y-93251503D02*
X102338581Y-93299122D01*
X102338581Y-93299122D02*
X102433819Y-93346741D01*
X102433819Y-93346741D02*
X102671914Y-93346741D01*
X102671914Y-93346741D02*
X102767152Y-93299122D01*
X102767152Y-93299122D02*
X102814772Y-93251503D01*
X102814772Y-93251503D02*
X102862391Y-93156265D01*
X102862391Y-93156265D02*
X102862391Y-92918170D01*
X102862391Y-92918170D02*
X102814772Y-92822932D01*
X102814772Y-92822932D02*
X102767152Y-92775313D01*
X103243343Y-93680075D02*
X103195724Y-93727694D01*
X103195724Y-93727694D02*
X103052867Y-93822932D01*
X103052867Y-93822932D02*
X102957629Y-93870551D01*
X102957629Y-93870551D02*
X102814772Y-93918170D01*
X102814772Y-93918170D02*
X102576676Y-93965789D01*
X102576676Y-93965789D02*
X102386200Y-93965789D01*
X102386200Y-93965789D02*
X102148105Y-93918170D01*
X102148105Y-93918170D02*
X102005248Y-93870551D01*
X102005248Y-93870551D02*
X101910010Y-93822932D01*
X101910010Y-93822932D02*
X101767152Y-93727694D01*
X101767152Y-93727694D02*
X101719533Y-93680075D01*
X135887782Y-87563609D02*
X135744925Y-87611228D01*
X135744925Y-87611228D02*
X135697306Y-87658847D01*
X135697306Y-87658847D02*
X135649687Y-87754085D01*
X135649687Y-87754085D02*
X135649687Y-87896942D01*
X135649687Y-87896942D02*
X135697306Y-87992180D01*
X135697306Y-87992180D02*
X135744925Y-88039800D01*
X135744925Y-88039800D02*
X135840163Y-88087419D01*
X135840163Y-88087419D02*
X136221115Y-88087419D01*
X136221115Y-88087419D02*
X136221115Y-87087419D01*
X136221115Y-87087419D02*
X135887782Y-87087419D01*
X135887782Y-87087419D02*
X135792544Y-87135038D01*
X135792544Y-87135038D02*
X135744925Y-87182657D01*
X135744925Y-87182657D02*
X135697306Y-87277895D01*
X135697306Y-87277895D02*
X135697306Y-87373133D01*
X135697306Y-87373133D02*
X135744925Y-87468371D01*
X135744925Y-87468371D02*
X135792544Y-87515990D01*
X135792544Y-87515990D02*
X135887782Y-87563609D01*
X135887782Y-87563609D02*
X136221115Y-87563609D01*
X134935401Y-88468371D02*
X134983020Y-88420752D01*
X134983020Y-88420752D02*
X135078258Y-88277895D01*
X135078258Y-88277895D02*
X135125877Y-88182657D01*
X135125877Y-88182657D02*
X135173496Y-88039800D01*
X135173496Y-88039800D02*
X135221115Y-87801704D01*
X135221115Y-87801704D02*
X135221115Y-87611228D01*
X135221115Y-87611228D02*
X135173496Y-87373133D01*
X135173496Y-87373133D02*
X135125877Y-87230276D01*
X135125877Y-87230276D02*
X135078258Y-87135038D01*
X135078258Y-87135038D02*
X134983020Y-86992180D01*
X134983020Y-86992180D02*
X134935401Y-86944561D01*
X134030639Y-87135038D02*
X134125877Y-87087419D01*
X134125877Y-87087419D02*
X134268734Y-87087419D01*
X134268734Y-87087419D02*
X134411591Y-87135038D01*
X134411591Y-87135038D02*
X134506829Y-87230276D01*
X134506829Y-87230276D02*
X134554448Y-87325514D01*
X134554448Y-87325514D02*
X134602067Y-87515990D01*
X134602067Y-87515990D02*
X134602067Y-87658847D01*
X134602067Y-87658847D02*
X134554448Y-87849323D01*
X134554448Y-87849323D02*
X134506829Y-87944561D01*
X134506829Y-87944561D02*
X134411591Y-88039800D01*
X134411591Y-88039800D02*
X134268734Y-88087419D01*
X134268734Y-88087419D02*
X134173496Y-88087419D01*
X134173496Y-88087419D02*
X134030639Y-88039800D01*
X134030639Y-88039800D02*
X133983020Y-87992180D01*
X133983020Y-87992180D02*
X133983020Y-87658847D01*
X133983020Y-87658847D02*
X134173496Y-87658847D01*
X133554448Y-88087419D02*
X133554448Y-87087419D01*
X133554448Y-87087419D02*
X133173496Y-87087419D01*
X133173496Y-87087419D02*
X133078258Y-87135038D01*
X133078258Y-87135038D02*
X133030639Y-87182657D01*
X133030639Y-87182657D02*
X132983020Y-87277895D01*
X132983020Y-87277895D02*
X132983020Y-87420752D01*
X132983020Y-87420752D02*
X133030639Y-87515990D01*
X133030639Y-87515990D02*
X133078258Y-87563609D01*
X133078258Y-87563609D02*
X133173496Y-87611228D01*
X133173496Y-87611228D02*
X133554448Y-87611228D01*
X132030639Y-88087419D02*
X132602067Y-88087419D01*
X132316353Y-88087419D02*
X132316353Y-87087419D01*
X132316353Y-87087419D02*
X132411591Y-87230276D01*
X132411591Y-87230276D02*
X132506829Y-87325514D01*
X132506829Y-87325514D02*
X132602067Y-87373133D01*
X131078258Y-88087419D02*
X131649686Y-88087419D01*
X131363972Y-88087419D02*
X131363972Y-87087419D01*
X131363972Y-87087419D02*
X131459210Y-87230276D01*
X131459210Y-87230276D02*
X131554448Y-87325514D01*
X131554448Y-87325514D02*
X131649686Y-87373133D01*
X130744924Y-88468371D02*
X130697305Y-88420752D01*
X130697305Y-88420752D02*
X130602067Y-88277895D01*
X130602067Y-88277895D02*
X130554448Y-88182657D01*
X130554448Y-88182657D02*
X130506829Y-88039800D01*
X130506829Y-88039800D02*
X130459210Y-87801704D01*
X130459210Y-87801704D02*
X130459210Y-87611228D01*
X130459210Y-87611228D02*
X130506829Y-87373133D01*
X130506829Y-87373133D02*
X130554448Y-87230276D01*
X130554448Y-87230276D02*
X130602067Y-87135038D01*
X130602067Y-87135038D02*
X130697305Y-86992180D01*
X130697305Y-86992180D02*
X130744924Y-86944561D01*
X121673571Y-104073609D02*
X121530714Y-104121228D01*
X121530714Y-104121228D02*
X121483095Y-104168847D01*
X121483095Y-104168847D02*
X121435476Y-104264085D01*
X121435476Y-104264085D02*
X121435476Y-104406942D01*
X121435476Y-104406942D02*
X121483095Y-104502180D01*
X121483095Y-104502180D02*
X121530714Y-104549800D01*
X121530714Y-104549800D02*
X121625952Y-104597419D01*
X121625952Y-104597419D02*
X122006904Y-104597419D01*
X122006904Y-104597419D02*
X122006904Y-103597419D01*
X122006904Y-103597419D02*
X121673571Y-103597419D01*
X121673571Y-103597419D02*
X121578333Y-103645038D01*
X121578333Y-103645038D02*
X121530714Y-103692657D01*
X121530714Y-103692657D02*
X121483095Y-103787895D01*
X121483095Y-103787895D02*
X121483095Y-103883133D01*
X121483095Y-103883133D02*
X121530714Y-103978371D01*
X121530714Y-103978371D02*
X121578333Y-104025990D01*
X121578333Y-104025990D02*
X121673571Y-104073609D01*
X121673571Y-104073609D02*
X122006904Y-104073609D01*
X121054523Y-103692657D02*
X121006904Y-103645038D01*
X121006904Y-103645038D02*
X120911666Y-103597419D01*
X120911666Y-103597419D02*
X120673571Y-103597419D01*
X120673571Y-103597419D02*
X120578333Y-103645038D01*
X120578333Y-103645038D02*
X120530714Y-103692657D01*
X120530714Y-103692657D02*
X120483095Y-103787895D01*
X120483095Y-103787895D02*
X120483095Y-103883133D01*
X120483095Y-103883133D02*
X120530714Y-104025990D01*
X120530714Y-104025990D02*
X121102142Y-104597419D01*
X121102142Y-104597419D02*
X120483095Y-104597419D01*
X119006904Y-104978371D02*
X119054523Y-104930752D01*
X119054523Y-104930752D02*
X119149761Y-104787895D01*
X119149761Y-104787895D02*
X119197380Y-104692657D01*
X119197380Y-104692657D02*
X119244999Y-104549800D01*
X119244999Y-104549800D02*
X119292618Y-104311704D01*
X119292618Y-104311704D02*
X119292618Y-104121228D01*
X119292618Y-104121228D02*
X119244999Y-103883133D01*
X119244999Y-103883133D02*
X119197380Y-103740276D01*
X119197380Y-103740276D02*
X119149761Y-103645038D01*
X119149761Y-103645038D02*
X119054523Y-103502180D01*
X119054523Y-103502180D02*
X119006904Y-103454561D01*
X118102142Y-103645038D02*
X118197380Y-103597419D01*
X118197380Y-103597419D02*
X118340237Y-103597419D01*
X118340237Y-103597419D02*
X118483094Y-103645038D01*
X118483094Y-103645038D02*
X118578332Y-103740276D01*
X118578332Y-103740276D02*
X118625951Y-103835514D01*
X118625951Y-103835514D02*
X118673570Y-104025990D01*
X118673570Y-104025990D02*
X118673570Y-104168847D01*
X118673570Y-104168847D02*
X118625951Y-104359323D01*
X118625951Y-104359323D02*
X118578332Y-104454561D01*
X118578332Y-104454561D02*
X118483094Y-104549800D01*
X118483094Y-104549800D02*
X118340237Y-104597419D01*
X118340237Y-104597419D02*
X118244999Y-104597419D01*
X118244999Y-104597419D02*
X118102142Y-104549800D01*
X118102142Y-104549800D02*
X118054523Y-104502180D01*
X118054523Y-104502180D02*
X118054523Y-104168847D01*
X118054523Y-104168847D02*
X118244999Y-104168847D01*
X117625951Y-104597419D02*
X117625951Y-103597419D01*
X117625951Y-103597419D02*
X117244999Y-103597419D01*
X117244999Y-103597419D02*
X117149761Y-103645038D01*
X117149761Y-103645038D02*
X117102142Y-103692657D01*
X117102142Y-103692657D02*
X117054523Y-103787895D01*
X117054523Y-103787895D02*
X117054523Y-103930752D01*
X117054523Y-103930752D02*
X117102142Y-104025990D01*
X117102142Y-104025990D02*
X117149761Y-104073609D01*
X117149761Y-104073609D02*
X117244999Y-104121228D01*
X117244999Y-104121228D02*
X117625951Y-104121228D01*
X116483094Y-104025990D02*
X116578332Y-103978371D01*
X116578332Y-103978371D02*
X116625951Y-103930752D01*
X116625951Y-103930752D02*
X116673570Y-103835514D01*
X116673570Y-103835514D02*
X116673570Y-103787895D01*
X116673570Y-103787895D02*
X116625951Y-103692657D01*
X116625951Y-103692657D02*
X116578332Y-103645038D01*
X116578332Y-103645038D02*
X116483094Y-103597419D01*
X116483094Y-103597419D02*
X116292618Y-103597419D01*
X116292618Y-103597419D02*
X116197380Y-103645038D01*
X116197380Y-103645038D02*
X116149761Y-103692657D01*
X116149761Y-103692657D02*
X116102142Y-103787895D01*
X116102142Y-103787895D02*
X116102142Y-103835514D01*
X116102142Y-103835514D02*
X116149761Y-103930752D01*
X116149761Y-103930752D02*
X116197380Y-103978371D01*
X116197380Y-103978371D02*
X116292618Y-104025990D01*
X116292618Y-104025990D02*
X116483094Y-104025990D01*
X116483094Y-104025990D02*
X116578332Y-104073609D01*
X116578332Y-104073609D02*
X116625951Y-104121228D01*
X116625951Y-104121228D02*
X116673570Y-104216466D01*
X116673570Y-104216466D02*
X116673570Y-104406942D01*
X116673570Y-104406942D02*
X116625951Y-104502180D01*
X116625951Y-104502180D02*
X116578332Y-104549800D01*
X116578332Y-104549800D02*
X116483094Y-104597419D01*
X116483094Y-104597419D02*
X116292618Y-104597419D01*
X116292618Y-104597419D02*
X116197380Y-104549800D01*
X116197380Y-104549800D02*
X116149761Y-104502180D01*
X116149761Y-104502180D02*
X116102142Y-104406942D01*
X116102142Y-104406942D02*
X116102142Y-104216466D01*
X116102142Y-104216466D02*
X116149761Y-104121228D01*
X116149761Y-104121228D02*
X116197380Y-104073609D01*
X116197380Y-104073609D02*
X116292618Y-104025990D01*
X115768808Y-104978371D02*
X115721189Y-104930752D01*
X115721189Y-104930752D02*
X115625951Y-104787895D01*
X115625951Y-104787895D02*
X115578332Y-104692657D01*
X115578332Y-104692657D02*
X115530713Y-104549800D01*
X115530713Y-104549800D02*
X115483094Y-104311704D01*
X115483094Y-104311704D02*
X115483094Y-104121228D01*
X115483094Y-104121228D02*
X115530713Y-103883133D01*
X115530713Y-103883133D02*
X115578332Y-103740276D01*
X115578332Y-103740276D02*
X115625951Y-103645038D01*
X115625951Y-103645038D02*
X115721189Y-103502180D01*
X115721189Y-103502180D02*
X115768808Y-103454561D01*
X139606741Y-69574800D02*
X139463884Y-69622419D01*
X139463884Y-69622419D02*
X139225789Y-69622419D01*
X139225789Y-69622419D02*
X139130551Y-69574800D01*
X139130551Y-69574800D02*
X139082932Y-69527180D01*
X139082932Y-69527180D02*
X139035313Y-69431942D01*
X139035313Y-69431942D02*
X139035313Y-69336704D01*
X139035313Y-69336704D02*
X139082932Y-69241466D01*
X139082932Y-69241466D02*
X139130551Y-69193847D01*
X139130551Y-69193847D02*
X139225789Y-69146228D01*
X139225789Y-69146228D02*
X139416265Y-69098609D01*
X139416265Y-69098609D02*
X139511503Y-69050990D01*
X139511503Y-69050990D02*
X139559122Y-69003371D01*
X139559122Y-69003371D02*
X139606741Y-68908133D01*
X139606741Y-68908133D02*
X139606741Y-68812895D01*
X139606741Y-68812895D02*
X139559122Y-68717657D01*
X139559122Y-68717657D02*
X139511503Y-68670038D01*
X139511503Y-68670038D02*
X139416265Y-68622419D01*
X139416265Y-68622419D02*
X139178170Y-68622419D01*
X139178170Y-68622419D02*
X139035313Y-68670038D01*
X138749598Y-68622419D02*
X138178170Y-68622419D01*
X138463884Y-69622419D02*
X138463884Y-68622419D01*
X137892455Y-69336704D02*
X137416265Y-69336704D01*
X137987693Y-69622419D02*
X137654360Y-68622419D01*
X137654360Y-68622419D02*
X137321027Y-69622419D01*
X140987694Y-71613315D02*
X141035313Y-71565696D01*
X141035313Y-71565696D02*
X141130551Y-71422839D01*
X141130551Y-71422839D02*
X141178170Y-71327601D01*
X141178170Y-71327601D02*
X141225789Y-71184744D01*
X141225789Y-71184744D02*
X141273408Y-70946648D01*
X141273408Y-70946648D02*
X141273408Y-70756172D01*
X141273408Y-70756172D02*
X141225789Y-70518077D01*
X141225789Y-70518077D02*
X141178170Y-70375220D01*
X141178170Y-70375220D02*
X141130551Y-70279982D01*
X141130551Y-70279982D02*
X141035313Y-70137124D01*
X141035313Y-70137124D02*
X140987694Y-70089505D01*
X140082932Y-70279982D02*
X140178170Y-70232363D01*
X140178170Y-70232363D02*
X140321027Y-70232363D01*
X140321027Y-70232363D02*
X140463884Y-70279982D01*
X140463884Y-70279982D02*
X140559122Y-70375220D01*
X140559122Y-70375220D02*
X140606741Y-70470458D01*
X140606741Y-70470458D02*
X140654360Y-70660934D01*
X140654360Y-70660934D02*
X140654360Y-70803791D01*
X140654360Y-70803791D02*
X140606741Y-70994267D01*
X140606741Y-70994267D02*
X140559122Y-71089505D01*
X140559122Y-71089505D02*
X140463884Y-71184744D01*
X140463884Y-71184744D02*
X140321027Y-71232363D01*
X140321027Y-71232363D02*
X140225789Y-71232363D01*
X140225789Y-71232363D02*
X140082932Y-71184744D01*
X140082932Y-71184744D02*
X140035313Y-71137124D01*
X140035313Y-71137124D02*
X140035313Y-70803791D01*
X140035313Y-70803791D02*
X140225789Y-70803791D01*
X139606741Y-71232363D02*
X139606741Y-70232363D01*
X139606741Y-70232363D02*
X139225789Y-70232363D01*
X139225789Y-70232363D02*
X139130551Y-70279982D01*
X139130551Y-70279982D02*
X139082932Y-70327601D01*
X139082932Y-70327601D02*
X139035313Y-70422839D01*
X139035313Y-70422839D02*
X139035313Y-70565696D01*
X139035313Y-70565696D02*
X139082932Y-70660934D01*
X139082932Y-70660934D02*
X139130551Y-70708553D01*
X139130551Y-70708553D02*
X139225789Y-70756172D01*
X139225789Y-70756172D02*
X139606741Y-70756172D01*
X138654360Y-70327601D02*
X138606741Y-70279982D01*
X138606741Y-70279982D02*
X138511503Y-70232363D01*
X138511503Y-70232363D02*
X138273408Y-70232363D01*
X138273408Y-70232363D02*
X138178170Y-70279982D01*
X138178170Y-70279982D02*
X138130551Y-70327601D01*
X138130551Y-70327601D02*
X138082932Y-70422839D01*
X138082932Y-70422839D02*
X138082932Y-70518077D01*
X138082932Y-70518077D02*
X138130551Y-70660934D01*
X138130551Y-70660934D02*
X138701979Y-71232363D01*
X138701979Y-71232363D02*
X138082932Y-71232363D01*
X137749598Y-71613315D02*
X137701979Y-71565696D01*
X137701979Y-71565696D02*
X137606741Y-71422839D01*
X137606741Y-71422839D02*
X137559122Y-71327601D01*
X137559122Y-71327601D02*
X137511503Y-71184744D01*
X137511503Y-71184744D02*
X137463884Y-70946648D01*
X137463884Y-70946648D02*
X137463884Y-70756172D01*
X137463884Y-70756172D02*
X137511503Y-70518077D01*
X137511503Y-70518077D02*
X137559122Y-70375220D01*
X137559122Y-70375220D02*
X137606741Y-70279982D01*
X137606741Y-70279982D02*
X137701979Y-70137124D01*
X137701979Y-70137124D02*
X137749598Y-70089505D01*
X88901732Y-89156265D02*
X88901732Y-89632455D01*
X89187447Y-89061027D02*
X88187447Y-89394360D01*
X88187447Y-89394360D02*
X89187447Y-89727693D01*
X88187447Y-89918170D02*
X88187447Y-90489598D01*
X89187447Y-90203884D02*
X88187447Y-90203884D01*
X88187447Y-90680075D02*
X88187447Y-91251503D01*
X89187447Y-90965789D02*
X88187447Y-90965789D01*
X91178343Y-89489598D02*
X91130724Y-89441979D01*
X91130724Y-89441979D02*
X90987867Y-89346741D01*
X90987867Y-89346741D02*
X90892629Y-89299122D01*
X90892629Y-89299122D02*
X90749772Y-89251503D01*
X90749772Y-89251503D02*
X90511676Y-89203884D01*
X90511676Y-89203884D02*
X90321200Y-89203884D01*
X90321200Y-89203884D02*
X90083105Y-89251503D01*
X90083105Y-89251503D02*
X89940248Y-89299122D01*
X89940248Y-89299122D02*
X89845010Y-89346741D01*
X89845010Y-89346741D02*
X89702152Y-89441979D01*
X89702152Y-89441979D02*
X89654533Y-89489598D01*
X89845010Y-90394360D02*
X89797391Y-90299122D01*
X89797391Y-90299122D02*
X89797391Y-90156265D01*
X89797391Y-90156265D02*
X89845010Y-90013408D01*
X89845010Y-90013408D02*
X89940248Y-89918170D01*
X89940248Y-89918170D02*
X90035486Y-89870551D01*
X90035486Y-89870551D02*
X90225962Y-89822932D01*
X90225962Y-89822932D02*
X90368819Y-89822932D01*
X90368819Y-89822932D02*
X90559295Y-89870551D01*
X90559295Y-89870551D02*
X90654533Y-89918170D01*
X90654533Y-89918170D02*
X90749772Y-90013408D01*
X90749772Y-90013408D02*
X90797391Y-90156265D01*
X90797391Y-90156265D02*
X90797391Y-90251503D01*
X90797391Y-90251503D02*
X90749772Y-90394360D01*
X90749772Y-90394360D02*
X90702152Y-90441979D01*
X90702152Y-90441979D02*
X90368819Y-90441979D01*
X90368819Y-90441979D02*
X90368819Y-90251503D01*
X90797391Y-90870551D02*
X89797391Y-90870551D01*
X89797391Y-90870551D02*
X89797391Y-91251503D01*
X89797391Y-91251503D02*
X89845010Y-91346741D01*
X89845010Y-91346741D02*
X89892629Y-91394360D01*
X89892629Y-91394360D02*
X89987867Y-91441979D01*
X89987867Y-91441979D02*
X90130724Y-91441979D01*
X90130724Y-91441979D02*
X90225962Y-91394360D01*
X90225962Y-91394360D02*
X90273581Y-91346741D01*
X90273581Y-91346741D02*
X90321200Y-91251503D01*
X90321200Y-91251503D02*
X90321200Y-90870551D01*
X89892629Y-91822932D02*
X89845010Y-91870551D01*
X89845010Y-91870551D02*
X89797391Y-91965789D01*
X89797391Y-91965789D02*
X89797391Y-92203884D01*
X89797391Y-92203884D02*
X89845010Y-92299122D01*
X89845010Y-92299122D02*
X89892629Y-92346741D01*
X89892629Y-92346741D02*
X89987867Y-92394360D01*
X89987867Y-92394360D02*
X90083105Y-92394360D01*
X90083105Y-92394360D02*
X90225962Y-92346741D01*
X90225962Y-92346741D02*
X90797391Y-91775313D01*
X90797391Y-91775313D02*
X90797391Y-92394360D01*
X89797391Y-92727694D02*
X89797391Y-93394360D01*
X89797391Y-93394360D02*
X90797391Y-92965789D01*
X91178343Y-93680075D02*
X91130724Y-93727694D01*
X91130724Y-93727694D02*
X90987867Y-93822932D01*
X90987867Y-93822932D02*
X90892629Y-93870551D01*
X90892629Y-93870551D02*
X90749772Y-93918170D01*
X90749772Y-93918170D02*
X90511676Y-93965789D01*
X90511676Y-93965789D02*
X90321200Y-93965789D01*
X90321200Y-93965789D02*
X90083105Y-93918170D01*
X90083105Y-93918170D02*
X89940248Y-93870551D01*
X89940248Y-93870551D02*
X89845010Y-93822932D01*
X89845010Y-93822932D02*
X89702152Y-93727694D01*
X89702152Y-93727694D02*
X89654533Y-93680075D01*
X129293571Y-112963609D02*
X129150714Y-113011228D01*
X129150714Y-113011228D02*
X129103095Y-113058847D01*
X129103095Y-113058847D02*
X129055476Y-113154085D01*
X129055476Y-113154085D02*
X129055476Y-113296942D01*
X129055476Y-113296942D02*
X129103095Y-113392180D01*
X129103095Y-113392180D02*
X129150714Y-113439800D01*
X129150714Y-113439800D02*
X129245952Y-113487419D01*
X129245952Y-113487419D02*
X129626904Y-113487419D01*
X129626904Y-113487419D02*
X129626904Y-112487419D01*
X129626904Y-112487419D02*
X129293571Y-112487419D01*
X129293571Y-112487419D02*
X129198333Y-112535038D01*
X129198333Y-112535038D02*
X129150714Y-112582657D01*
X129150714Y-112582657D02*
X129103095Y-112677895D01*
X129103095Y-112677895D02*
X129103095Y-112773133D01*
X129103095Y-112773133D02*
X129150714Y-112868371D01*
X129150714Y-112868371D02*
X129198333Y-112915990D01*
X129198333Y-112915990D02*
X129293571Y-112963609D01*
X129293571Y-112963609D02*
X129626904Y-112963609D01*
X128103095Y-113487419D02*
X128674523Y-113487419D01*
X128388809Y-113487419D02*
X128388809Y-112487419D01*
X128388809Y-112487419D02*
X128484047Y-112630276D01*
X128484047Y-112630276D02*
X128579285Y-112725514D01*
X128579285Y-112725514D02*
X128674523Y-112773133D01*
X126626904Y-113868371D02*
X126674523Y-113820752D01*
X126674523Y-113820752D02*
X126769761Y-113677895D01*
X126769761Y-113677895D02*
X126817380Y-113582657D01*
X126817380Y-113582657D02*
X126864999Y-113439800D01*
X126864999Y-113439800D02*
X126912618Y-113201704D01*
X126912618Y-113201704D02*
X126912618Y-113011228D01*
X126912618Y-113011228D02*
X126864999Y-112773133D01*
X126864999Y-112773133D02*
X126817380Y-112630276D01*
X126817380Y-112630276D02*
X126769761Y-112535038D01*
X126769761Y-112535038D02*
X126674523Y-112392180D01*
X126674523Y-112392180D02*
X126626904Y-112344561D01*
X125722142Y-112535038D02*
X125817380Y-112487419D01*
X125817380Y-112487419D02*
X125960237Y-112487419D01*
X125960237Y-112487419D02*
X126103094Y-112535038D01*
X126103094Y-112535038D02*
X126198332Y-112630276D01*
X126198332Y-112630276D02*
X126245951Y-112725514D01*
X126245951Y-112725514D02*
X126293570Y-112915990D01*
X126293570Y-112915990D02*
X126293570Y-113058847D01*
X126293570Y-113058847D02*
X126245951Y-113249323D01*
X126245951Y-113249323D02*
X126198332Y-113344561D01*
X126198332Y-113344561D02*
X126103094Y-113439800D01*
X126103094Y-113439800D02*
X125960237Y-113487419D01*
X125960237Y-113487419D02*
X125864999Y-113487419D01*
X125864999Y-113487419D02*
X125722142Y-113439800D01*
X125722142Y-113439800D02*
X125674523Y-113392180D01*
X125674523Y-113392180D02*
X125674523Y-113058847D01*
X125674523Y-113058847D02*
X125864999Y-113058847D01*
X125245951Y-113487419D02*
X125245951Y-112487419D01*
X125245951Y-112487419D02*
X124864999Y-112487419D01*
X124864999Y-112487419D02*
X124769761Y-112535038D01*
X124769761Y-112535038D02*
X124722142Y-112582657D01*
X124722142Y-112582657D02*
X124674523Y-112677895D01*
X124674523Y-112677895D02*
X124674523Y-112820752D01*
X124674523Y-112820752D02*
X124722142Y-112915990D01*
X124722142Y-112915990D02*
X124769761Y-112963609D01*
X124769761Y-112963609D02*
X124864999Y-113011228D01*
X124864999Y-113011228D02*
X125245951Y-113011228D01*
X123817380Y-112820752D02*
X123817380Y-113487419D01*
X124055475Y-112439800D02*
X124293570Y-113154085D01*
X124293570Y-113154085D02*
X123674523Y-113154085D01*
X123388808Y-113868371D02*
X123341189Y-113820752D01*
X123341189Y-113820752D02*
X123245951Y-113677895D01*
X123245951Y-113677895D02*
X123198332Y-113582657D01*
X123198332Y-113582657D02*
X123150713Y-113439800D01*
X123150713Y-113439800D02*
X123103094Y-113201704D01*
X123103094Y-113201704D02*
X123103094Y-113011228D01*
X123103094Y-113011228D02*
X123150713Y-112773133D01*
X123150713Y-112773133D02*
X123198332Y-112630276D01*
X123198332Y-112630276D02*
X123245951Y-112535038D01*
X123245951Y-112535038D02*
X123341189Y-112392180D01*
X123341189Y-112392180D02*
X123388808Y-112344561D01*
X98813571Y-112963609D02*
X98670714Y-113011228D01*
X98670714Y-113011228D02*
X98623095Y-113058847D01*
X98623095Y-113058847D02*
X98575476Y-113154085D01*
X98575476Y-113154085D02*
X98575476Y-113296942D01*
X98575476Y-113296942D02*
X98623095Y-113392180D01*
X98623095Y-113392180D02*
X98670714Y-113439800D01*
X98670714Y-113439800D02*
X98765952Y-113487419D01*
X98765952Y-113487419D02*
X99146904Y-113487419D01*
X99146904Y-113487419D02*
X99146904Y-112487419D01*
X99146904Y-112487419D02*
X98813571Y-112487419D01*
X98813571Y-112487419D02*
X98718333Y-112535038D01*
X98718333Y-112535038D02*
X98670714Y-112582657D01*
X98670714Y-112582657D02*
X98623095Y-112677895D01*
X98623095Y-112677895D02*
X98623095Y-112773133D01*
X98623095Y-112773133D02*
X98670714Y-112868371D01*
X98670714Y-112868371D02*
X98718333Y-112915990D01*
X98718333Y-112915990D02*
X98813571Y-112963609D01*
X98813571Y-112963609D02*
X99146904Y-112963609D01*
X97670714Y-112487419D02*
X98146904Y-112487419D01*
X98146904Y-112487419D02*
X98194523Y-112963609D01*
X98194523Y-112963609D02*
X98146904Y-112915990D01*
X98146904Y-112915990D02*
X98051666Y-112868371D01*
X98051666Y-112868371D02*
X97813571Y-112868371D01*
X97813571Y-112868371D02*
X97718333Y-112915990D01*
X97718333Y-112915990D02*
X97670714Y-112963609D01*
X97670714Y-112963609D02*
X97623095Y-113058847D01*
X97623095Y-113058847D02*
X97623095Y-113296942D01*
X97623095Y-113296942D02*
X97670714Y-113392180D01*
X97670714Y-113392180D02*
X97718333Y-113439800D01*
X97718333Y-113439800D02*
X97813571Y-113487419D01*
X97813571Y-113487419D02*
X98051666Y-113487419D01*
X98051666Y-113487419D02*
X98146904Y-113439800D01*
X98146904Y-113439800D02*
X98194523Y-113392180D01*
X96146904Y-113868371D02*
X96194523Y-113820752D01*
X96194523Y-113820752D02*
X96289761Y-113677895D01*
X96289761Y-113677895D02*
X96337380Y-113582657D01*
X96337380Y-113582657D02*
X96384999Y-113439800D01*
X96384999Y-113439800D02*
X96432618Y-113201704D01*
X96432618Y-113201704D02*
X96432618Y-113011228D01*
X96432618Y-113011228D02*
X96384999Y-112773133D01*
X96384999Y-112773133D02*
X96337380Y-112630276D01*
X96337380Y-112630276D02*
X96289761Y-112535038D01*
X96289761Y-112535038D02*
X96194523Y-112392180D01*
X96194523Y-112392180D02*
X96146904Y-112344561D01*
X95242142Y-112535038D02*
X95337380Y-112487419D01*
X95337380Y-112487419D02*
X95480237Y-112487419D01*
X95480237Y-112487419D02*
X95623094Y-112535038D01*
X95623094Y-112535038D02*
X95718332Y-112630276D01*
X95718332Y-112630276D02*
X95765951Y-112725514D01*
X95765951Y-112725514D02*
X95813570Y-112915990D01*
X95813570Y-112915990D02*
X95813570Y-113058847D01*
X95813570Y-113058847D02*
X95765951Y-113249323D01*
X95765951Y-113249323D02*
X95718332Y-113344561D01*
X95718332Y-113344561D02*
X95623094Y-113439800D01*
X95623094Y-113439800D02*
X95480237Y-113487419D01*
X95480237Y-113487419D02*
X95384999Y-113487419D01*
X95384999Y-113487419D02*
X95242142Y-113439800D01*
X95242142Y-113439800D02*
X95194523Y-113392180D01*
X95194523Y-113392180D02*
X95194523Y-113058847D01*
X95194523Y-113058847D02*
X95384999Y-113058847D01*
X94765951Y-113487419D02*
X94765951Y-112487419D01*
X94765951Y-112487419D02*
X94384999Y-112487419D01*
X94384999Y-112487419D02*
X94289761Y-112535038D01*
X94289761Y-112535038D02*
X94242142Y-112582657D01*
X94242142Y-112582657D02*
X94194523Y-112677895D01*
X94194523Y-112677895D02*
X94194523Y-112820752D01*
X94194523Y-112820752D02*
X94242142Y-112915990D01*
X94242142Y-112915990D02*
X94289761Y-112963609D01*
X94289761Y-112963609D02*
X94384999Y-113011228D01*
X94384999Y-113011228D02*
X94765951Y-113011228D01*
X93337380Y-112487419D02*
X93527856Y-112487419D01*
X93527856Y-112487419D02*
X93623094Y-112535038D01*
X93623094Y-112535038D02*
X93670713Y-112582657D01*
X93670713Y-112582657D02*
X93765951Y-112725514D01*
X93765951Y-112725514D02*
X93813570Y-112915990D01*
X93813570Y-112915990D02*
X93813570Y-113296942D01*
X93813570Y-113296942D02*
X93765951Y-113392180D01*
X93765951Y-113392180D02*
X93718332Y-113439800D01*
X93718332Y-113439800D02*
X93623094Y-113487419D01*
X93623094Y-113487419D02*
X93432618Y-113487419D01*
X93432618Y-113487419D02*
X93337380Y-113439800D01*
X93337380Y-113439800D02*
X93289761Y-113392180D01*
X93289761Y-113392180D02*
X93242142Y-113296942D01*
X93242142Y-113296942D02*
X93242142Y-113058847D01*
X93242142Y-113058847D02*
X93289761Y-112963609D01*
X93289761Y-112963609D02*
X93337380Y-112915990D01*
X93337380Y-112915990D02*
X93432618Y-112868371D01*
X93432618Y-112868371D02*
X93623094Y-112868371D01*
X93623094Y-112868371D02*
X93718332Y-112915990D01*
X93718332Y-112915990D02*
X93765951Y-112963609D01*
X93765951Y-112963609D02*
X93813570Y-113058847D01*
X92908808Y-113868371D02*
X92861189Y-113820752D01*
X92861189Y-113820752D02*
X92765951Y-113677895D01*
X92765951Y-113677895D02*
X92718332Y-113582657D01*
X92718332Y-113582657D02*
X92670713Y-113439800D01*
X92670713Y-113439800D02*
X92623094Y-113201704D01*
X92623094Y-113201704D02*
X92623094Y-113011228D01*
X92623094Y-113011228D02*
X92670713Y-112773133D01*
X92670713Y-112773133D02*
X92718332Y-112630276D01*
X92718332Y-112630276D02*
X92765951Y-112535038D01*
X92765951Y-112535038D02*
X92861189Y-112392180D01*
X92861189Y-112392180D02*
X92908808Y-112344561D01*
X93584828Y-89156265D02*
X93632447Y-89299122D01*
X93632447Y-89299122D02*
X93632447Y-89537217D01*
X93632447Y-89537217D02*
X93584828Y-89632455D01*
X93584828Y-89632455D02*
X93537208Y-89680074D01*
X93537208Y-89680074D02*
X93441970Y-89727693D01*
X93441970Y-89727693D02*
X93346732Y-89727693D01*
X93346732Y-89727693D02*
X93251494Y-89680074D01*
X93251494Y-89680074D02*
X93203875Y-89632455D01*
X93203875Y-89632455D02*
X93156256Y-89537217D01*
X93156256Y-89537217D02*
X93108637Y-89346741D01*
X93108637Y-89346741D02*
X93061018Y-89251503D01*
X93061018Y-89251503D02*
X93013399Y-89203884D01*
X93013399Y-89203884D02*
X92918161Y-89156265D01*
X92918161Y-89156265D02*
X92822923Y-89156265D01*
X92822923Y-89156265D02*
X92727685Y-89203884D01*
X92727685Y-89203884D02*
X92680066Y-89251503D01*
X92680066Y-89251503D02*
X92632447Y-89346741D01*
X92632447Y-89346741D02*
X92632447Y-89584836D01*
X92632447Y-89584836D02*
X92680066Y-89727693D01*
X93537208Y-90727693D02*
X93584828Y-90680074D01*
X93584828Y-90680074D02*
X93632447Y-90537217D01*
X93632447Y-90537217D02*
X93632447Y-90441979D01*
X93632447Y-90441979D02*
X93584828Y-90299122D01*
X93584828Y-90299122D02*
X93489589Y-90203884D01*
X93489589Y-90203884D02*
X93394351Y-90156265D01*
X93394351Y-90156265D02*
X93203875Y-90108646D01*
X93203875Y-90108646D02*
X93061018Y-90108646D01*
X93061018Y-90108646D02*
X92870542Y-90156265D01*
X92870542Y-90156265D02*
X92775304Y-90203884D01*
X92775304Y-90203884D02*
X92680066Y-90299122D01*
X92680066Y-90299122D02*
X92632447Y-90441979D01*
X92632447Y-90441979D02*
X92632447Y-90537217D01*
X92632447Y-90537217D02*
X92680066Y-90680074D01*
X92680066Y-90680074D02*
X92727685Y-90727693D01*
X93632447Y-91156265D02*
X92632447Y-91156265D01*
X93632447Y-91727693D02*
X93061018Y-91299122D01*
X92632447Y-91727693D02*
X93203875Y-91156265D01*
X95623343Y-89489598D02*
X95575724Y-89441979D01*
X95575724Y-89441979D02*
X95432867Y-89346741D01*
X95432867Y-89346741D02*
X95337629Y-89299122D01*
X95337629Y-89299122D02*
X95194772Y-89251503D01*
X95194772Y-89251503D02*
X94956676Y-89203884D01*
X94956676Y-89203884D02*
X94766200Y-89203884D01*
X94766200Y-89203884D02*
X94528105Y-89251503D01*
X94528105Y-89251503D02*
X94385248Y-89299122D01*
X94385248Y-89299122D02*
X94290010Y-89346741D01*
X94290010Y-89346741D02*
X94147152Y-89441979D01*
X94147152Y-89441979D02*
X94099533Y-89489598D01*
X94290010Y-90394360D02*
X94242391Y-90299122D01*
X94242391Y-90299122D02*
X94242391Y-90156265D01*
X94242391Y-90156265D02*
X94290010Y-90013408D01*
X94290010Y-90013408D02*
X94385248Y-89918170D01*
X94385248Y-89918170D02*
X94480486Y-89870551D01*
X94480486Y-89870551D02*
X94670962Y-89822932D01*
X94670962Y-89822932D02*
X94813819Y-89822932D01*
X94813819Y-89822932D02*
X95004295Y-89870551D01*
X95004295Y-89870551D02*
X95099533Y-89918170D01*
X95099533Y-89918170D02*
X95194772Y-90013408D01*
X95194772Y-90013408D02*
X95242391Y-90156265D01*
X95242391Y-90156265D02*
X95242391Y-90251503D01*
X95242391Y-90251503D02*
X95194772Y-90394360D01*
X95194772Y-90394360D02*
X95147152Y-90441979D01*
X95147152Y-90441979D02*
X94813819Y-90441979D01*
X94813819Y-90441979D02*
X94813819Y-90251503D01*
X95242391Y-90870551D02*
X94242391Y-90870551D01*
X94242391Y-90870551D02*
X94242391Y-91251503D01*
X94242391Y-91251503D02*
X94290010Y-91346741D01*
X94290010Y-91346741D02*
X94337629Y-91394360D01*
X94337629Y-91394360D02*
X94432867Y-91441979D01*
X94432867Y-91441979D02*
X94575724Y-91441979D01*
X94575724Y-91441979D02*
X94670962Y-91394360D01*
X94670962Y-91394360D02*
X94718581Y-91346741D01*
X94718581Y-91346741D02*
X94766200Y-91251503D01*
X94766200Y-91251503D02*
X94766200Y-90870551D01*
X94337629Y-91822932D02*
X94290010Y-91870551D01*
X94290010Y-91870551D02*
X94242391Y-91965789D01*
X94242391Y-91965789D02*
X94242391Y-92203884D01*
X94242391Y-92203884D02*
X94290010Y-92299122D01*
X94290010Y-92299122D02*
X94337629Y-92346741D01*
X94337629Y-92346741D02*
X94432867Y-92394360D01*
X94432867Y-92394360D02*
X94528105Y-92394360D01*
X94528105Y-92394360D02*
X94670962Y-92346741D01*
X94670962Y-92346741D02*
X95242391Y-91775313D01*
X95242391Y-91775313D02*
X95242391Y-92394360D01*
X94242391Y-93251503D02*
X94242391Y-93061027D01*
X94242391Y-93061027D02*
X94290010Y-92965789D01*
X94290010Y-92965789D02*
X94337629Y-92918170D01*
X94337629Y-92918170D02*
X94480486Y-92822932D01*
X94480486Y-92822932D02*
X94670962Y-92775313D01*
X94670962Y-92775313D02*
X95051914Y-92775313D01*
X95051914Y-92775313D02*
X95147152Y-92822932D01*
X95147152Y-92822932D02*
X95194772Y-92870551D01*
X95194772Y-92870551D02*
X95242391Y-92965789D01*
X95242391Y-92965789D02*
X95242391Y-93156265D01*
X95242391Y-93156265D02*
X95194772Y-93251503D01*
X95194772Y-93251503D02*
X95147152Y-93299122D01*
X95147152Y-93299122D02*
X95051914Y-93346741D01*
X95051914Y-93346741D02*
X94813819Y-93346741D01*
X94813819Y-93346741D02*
X94718581Y-93299122D01*
X94718581Y-93299122D02*
X94670962Y-93251503D01*
X94670962Y-93251503D02*
X94623343Y-93156265D01*
X94623343Y-93156265D02*
X94623343Y-92965789D01*
X94623343Y-92965789D02*
X94670962Y-92870551D01*
X94670962Y-92870551D02*
X94718581Y-92822932D01*
X94718581Y-92822932D02*
X94813819Y-92775313D01*
X95623343Y-93680075D02*
X95575724Y-93727694D01*
X95575724Y-93727694D02*
X95432867Y-93822932D01*
X95432867Y-93822932D02*
X95337629Y-93870551D01*
X95337629Y-93870551D02*
X95194772Y-93918170D01*
X95194772Y-93918170D02*
X94956676Y-93965789D01*
X94956676Y-93965789D02*
X94766200Y-93965789D01*
X94766200Y-93965789D02*
X94528105Y-93918170D01*
X94528105Y-93918170D02*
X94385248Y-93870551D01*
X94385248Y-93870551D02*
X94290010Y-93822932D01*
X94290010Y-93822932D02*
X94147152Y-93727694D01*
X94147152Y-93727694D02*
X94099533Y-93680075D01*
D11*
%TO.C,D1*%
X133010000Y-70065000D02*
X133010000Y-68365000D01*
X133010000Y-70065000D02*
X135670000Y-70065000D01*
X133010000Y-68365000D02*
X135670000Y-68365000D01*
%TO.C,D5*%
X122850000Y-118960000D02*
X122850000Y-117260000D01*
X122850000Y-118960000D02*
X125510000Y-118960000D01*
X122850000Y-117260000D02*
X125510000Y-117260000D01*
%TO.C,D8*%
X77130000Y-118960000D02*
X77130000Y-117260000D01*
X77130000Y-118960000D02*
X79790000Y-118960000D01*
X77130000Y-117260000D02*
X79790000Y-117260000D01*
%TO.C,D2*%
X115230000Y-110070000D02*
X115230000Y-108370000D01*
X115230000Y-110070000D02*
X117890000Y-110070000D01*
X115230000Y-108370000D02*
X117890000Y-108370000D01*
%TO.C,D9*%
X66970000Y-70065000D02*
X66970000Y-68365000D01*
X66970000Y-70065000D02*
X69630000Y-70065000D01*
X66970000Y-68365000D02*
X69630000Y-68365000D01*
%TO.C,D7*%
X92370000Y-118960000D02*
X92370000Y-117260000D01*
X92370000Y-118960000D02*
X95030000Y-118960000D01*
X92370000Y-117260000D02*
X95030000Y-117260000D01*
%TO.C,D6*%
X107610000Y-118960000D02*
X107610000Y-117260000D01*
X107610000Y-118960000D02*
X110270000Y-118960000D01*
X107610000Y-117260000D02*
X110270000Y-117260000D01*
%TO.C,D4*%
X84750000Y-110070000D02*
X84750000Y-108370000D01*
X84750000Y-110070000D02*
X87410000Y-110070000D01*
X84750000Y-108370000D02*
X87410000Y-108370000D01*
%TO.C,D3*%
X99990000Y-110070000D02*
X99990000Y-108370000D01*
X99990000Y-110070000D02*
X102650000Y-110070000D01*
X99990000Y-108370000D02*
X102650000Y-108370000D01*
%TD*%
M02*
