%TF.GenerationSoftware,KiCad,Pcbnew,9.0.6*%
%TF.CreationDate,2026-06-17T23:20:41+09:00*%
%TF.ProjectId,dao-4p-harness,64616f2d-3470-42d6-9861-726e6573732e,rev?*%
%TF.SameCoordinates,Original*%
%TF.FileFunction,Soldermask,Bot*%
%TF.FilePolarity,Negative*%
%FSLAX46Y46*%
G04 Gerber Fmt 4.6, Leading zero omitted, Abs format (unit mm)*
G04 Created by KiCad (PCBNEW 9.0.6) date 2026-06-17 23:20:41*
%MOMM*%
%LPD*%
G01*
G04 APERTURE LIST*
G04 Aperture macros list*
%AMRoundRect*
0 Rectangle with rounded corners*
0 $1 Rounding radius*
0 $2 $3 $4 $5 $6 $7 $8 $9 X,Y pos of 4 corners*
0 Add a 4 corners polygon primitive as box body*
4,1,4,$2,$3,$4,$5,$6,$7,$8,$9,$2,$3,0*
0 Add four circle primitives for the rounded corners*
1,1,$1+$1,$2,$3*
1,1,$1+$1,$4,$5*
1,1,$1+$1,$6,$7*
1,1,$1+$1,$8,$9*
0 Add four rect primitives between the rounded corners*
20,1,$1+$1,$2,$3,$4,$5,0*
20,1,$1+$1,$4,$5,$6,$7,0*
20,1,$1+$1,$6,$7,$8,$9,0*
20,1,$1+$1,$8,$9,$2,$3,0*%
G04 Aperture macros list end*
%ADD10RoundRect,0.250000X-0.600000X-0.725000X0.600000X-0.725000X0.600000X0.725000X-0.600000X0.725000X0*%
%ADD11O,1.700000X1.950000*%
%ADD12C,2.200000*%
%ADD13O,5.005000X1.905000*%
%ADD14C,7.500000*%
%ADD15R,1.905000X2.000000*%
%ADD16O,1.905000X2.000000*%
%ADD17RoundRect,0.250000X0.350000X0.350000X-0.350000X0.350000X-0.350000X-0.350000X0.350000X-0.350000X0*%
%ADD18C,1.200000*%
%ADD19RoundRect,0.250000X-0.350000X-0.350000X0.350000X-0.350000X0.350000X0.350000X-0.350000X0.350000X0*%
%ADD20O,2.500000X1.500000*%
%ADD21O,1.500000X2.500000*%
%ADD22RoundRect,0.250000X0.725000X-0.600000X0.725000X0.600000X-0.725000X0.600000X-0.725000X-0.600000X0*%
%ADD23O,1.950000X1.700000*%
%ADD24RoundRect,0.250000X-0.600000X-0.750000X0.600000X-0.750000X0.600000X0.750000X-0.600000X0.750000X0*%
%ADD25O,1.700000X2.000000*%
%ADD26RoundRect,0.112500X-0.187500X-0.112500X0.187500X-0.112500X0.187500X0.112500X-0.187500X0.112500X0*%
G04 APERTURE END LIST*
D10*
%TO.C,J9*%
X66735000Y-66785000D03*
D11*
X69235000Y-66785000D03*
X71735000Y-66785000D03*
X74235000Y-66785000D03*
%TD*%
D12*
%TO.C,J14*%
X69725000Y-86995000D03*
X73725000Y-86995000D03*
X77725000Y-86995000D03*
X81725000Y-86995000D03*
X85725000Y-86995000D03*
X89725000Y-86995000D03*
X93725000Y-86995000D03*
X97725000Y-86995000D03*
X101725000Y-86995000D03*
D13*
X85725000Y-83495000D03*
%TD*%
D10*
%TO.C,J8*%
X132775000Y-66785000D03*
D11*
X135275000Y-66785000D03*
X137775000Y-66785000D03*
X140275000Y-66785000D03*
%TD*%
D10*
%TO.C,J5*%
X92135000Y-115680000D03*
D11*
X94635000Y-115680000D03*
X97135000Y-115680000D03*
X99635000Y-115680000D03*
%TD*%
D10*
%TO.C,J6*%
X84515000Y-106790000D03*
D11*
X87015000Y-106790000D03*
X89515000Y-106790000D03*
X92015000Y-106790000D03*
%TD*%
D14*
%TO.C,H3*%
X67945000Y-107315000D03*
%TD*%
D15*
%TO.C,U2*%
X97790000Y-69850000D03*
D16*
X100330000Y-69850000D03*
X102870000Y-69850000D03*
%TD*%
D10*
%TO.C,J1*%
X122615000Y-115680000D03*
D11*
X125115000Y-115680000D03*
X127615000Y-115680000D03*
X130115000Y-115680000D03*
%TD*%
D17*
%TO.C,C2*%
X98425000Y-74295000D03*
D18*
X96925000Y-74295000D03*
%TD*%
D10*
%TO.C,J4*%
X99755000Y-106790000D03*
D11*
X102255000Y-106790000D03*
X104755000Y-106790000D03*
X107255000Y-106790000D03*
%TD*%
D19*
%TO.C,C1*%
X102235000Y-74295000D03*
D18*
X103735000Y-74295000D03*
%TD*%
D20*
%TO.C,U1*%
X127500000Y-65405000D03*
X127500000Y-67945000D03*
X127500000Y-70485000D03*
X127500000Y-73025000D03*
X127500000Y-75565000D03*
X127500000Y-78105000D03*
X127500000Y-80645000D03*
X127500000Y-83185000D03*
X127500000Y-85725000D03*
D21*
X124460000Y-86225000D03*
X121920000Y-86225000D03*
X119380000Y-86225000D03*
X116840000Y-86225000D03*
X114300000Y-86225000D03*
D20*
X111260000Y-85725000D03*
X111260000Y-83185000D03*
X111260000Y-80645000D03*
X111260000Y-78105000D03*
X111260000Y-75565000D03*
X111260000Y-73025000D03*
X111260000Y-70485000D03*
X111260000Y-67945000D03*
X111260000Y-65405000D03*
%TD*%
D10*
%TO.C,J3*%
X107375000Y-115680000D03*
D11*
X109875000Y-115680000D03*
X112375000Y-115680000D03*
X114875000Y-115680000D03*
%TD*%
D10*
%TO.C,J7*%
X76895000Y-115680000D03*
D11*
X79395000Y-115680000D03*
X81895000Y-115680000D03*
X84395000Y-115680000D03*
%TD*%
D14*
%TO.C,H4*%
X139065000Y-107315000D03*
%TD*%
%TO.C,H1*%
X67945000Y-76200000D03*
%TD*%
D22*
%TO.C,J12*%
X138540000Y-95190000D03*
D23*
X138540000Y-92690000D03*
X138540000Y-90190000D03*
X138540000Y-87690000D03*
%TD*%
D24*
%TO.C,J10*%
X87015000Y-97900000D03*
D25*
X89515000Y-97900000D03*
%TD*%
D14*
%TO.C,H2*%
X139065000Y-76200000D03*
%TD*%
D10*
%TO.C,J2*%
X114995000Y-106790000D03*
D11*
X117495000Y-106790000D03*
X119995000Y-106790000D03*
X122495000Y-106790000D03*
%TD*%
D26*
%TO.C,D1*%
X133570000Y-69215000D03*
X135670000Y-69215000D03*
%TD*%
%TO.C,D5*%
X123410000Y-118110000D03*
X125510000Y-118110000D03*
%TD*%
%TO.C,D8*%
X77690000Y-118110000D03*
X79790000Y-118110000D03*
%TD*%
%TO.C,D2*%
X115790000Y-109220000D03*
X117890000Y-109220000D03*
%TD*%
%TO.C,D9*%
X67530000Y-69215000D03*
X69630000Y-69215000D03*
%TD*%
%TO.C,D7*%
X92930000Y-118110000D03*
X95030000Y-118110000D03*
%TD*%
%TO.C,D6*%
X108170000Y-118110000D03*
X110270000Y-118110000D03*
%TD*%
%TO.C,D4*%
X85310000Y-109220000D03*
X87410000Y-109220000D03*
%TD*%
%TO.C,D3*%
X100550000Y-109220000D03*
X102650000Y-109220000D03*
%TD*%
M02*
