%TF.GenerationSoftware,KiCad,Pcbnew,9.0.6*%
%TF.CreationDate,2026-06-17T23:20:41+09:00*%
%TF.ProjectId,dao-4p-harness,64616f2d-3470-42d6-9861-726e6573732e,rev?*%
%TF.SameCoordinates,Original*%
%TF.FileFunction,Copper,L1,Top*%
%TF.FilePolarity,Positive*%
%FSLAX46Y46*%
G04 Gerber Fmt 4.6, Leading zero omitted, Abs format (unit mm)*
G04 Created by KiCad (PCBNEW 9.0.6) date 2026-06-17 23:20:41*
%MOMM*%
%LPD*%
G01*
G04 APERTURE LIST*
G04 Aperture macros list*
%AMRoundRect*
0 Rectangle with rounded corners*
0 $1 Rounding radius*
0 $2 $3 $4 $5 $6 $7 $8 $9 X,Y pos of 4 corners*
0 Add a 4 corners polygon primitive as box body*
4,1,4,$2,$3,$4,$5,$6,$7,$8,$9,$2,$3,0*
0 Add four circle primitives for the rounded corners*
1,1,$1+$1,$2,$3*
1,1,$1+$1,$4,$5*
1,1,$1+$1,$6,$7*
1,1,$1+$1,$8,$9*
0 Add four rect primitives between the rounded corners*
20,1,$1+$1,$2,$3,$4,$5,0*
20,1,$1+$1,$4,$5,$6,$7,0*
20,1,$1+$1,$6,$7,$8,$9,0*
20,1,$1+$1,$8,$9,$2,$3,0*%
G04 Aperture macros list end*
%TA.AperFunction,ComponentPad*%
%ADD10RoundRect,0.250000X-0.600000X-0.725000X0.600000X-0.725000X0.600000X0.725000X-0.600000X0.725000X0*%
%TD*%
%TA.AperFunction,ComponentPad*%
%ADD11O,1.700000X1.950000*%
%TD*%
%TA.AperFunction,ComponentPad*%
%ADD12C,2.200000*%
%TD*%
%TA.AperFunction,ComponentPad*%
%ADD13O,5.005000X1.905000*%
%TD*%
%TA.AperFunction,ComponentPad*%
%ADD14C,7.500000*%
%TD*%
%TA.AperFunction,ComponentPad*%
%ADD15R,1.905000X2.000000*%
%TD*%
%TA.AperFunction,ComponentPad*%
%ADD16O,1.905000X2.000000*%
%TD*%
%TA.AperFunction,ComponentPad*%
%ADD17RoundRect,0.250000X0.350000X0.350000X-0.350000X0.350000X-0.350000X-0.350000X0.350000X-0.350000X0*%
%TD*%
%TA.AperFunction,ComponentPad*%
%ADD18C,1.200000*%
%TD*%
%TA.AperFunction,ComponentPad*%
%ADD19RoundRect,0.250000X-0.350000X-0.350000X0.350000X-0.350000X0.350000X0.350000X-0.350000X0.350000X0*%
%TD*%
%TA.AperFunction,ComponentPad*%
%ADD20O,2.500000X1.500000*%
%TD*%
%TA.AperFunction,ComponentPad*%
%ADD21O,1.500000X2.500000*%
%TD*%
%TA.AperFunction,ComponentPad*%
%ADD22RoundRect,0.250000X0.725000X-0.600000X0.725000X0.600000X-0.725000X0.600000X-0.725000X-0.600000X0*%
%TD*%
%TA.AperFunction,ComponentPad*%
%ADD23O,1.950000X1.700000*%
%TD*%
%TA.AperFunction,ComponentPad*%
%ADD24RoundRect,0.250000X-0.600000X-0.750000X0.600000X-0.750000X0.600000X0.750000X-0.600000X0.750000X0*%
%TD*%
%TA.AperFunction,ComponentPad*%
%ADD25O,1.700000X2.000000*%
%TD*%
%TA.AperFunction,ViaPad*%
%ADD26C,0.600000*%
%TD*%
%TA.AperFunction,Conductor*%
%ADD27C,1.000000*%
%TD*%
%TA.AperFunction,Conductor*%
%ADD28C,0.200000*%
%TD*%
G04 APERTURE END LIST*
D10*
%TO.P,J9,1,Pin_1*%
%TO.N,Net-(D9-K)*%
X66735000Y-66785000D03*
D11*
%TO.P,J9,2,Pin_2*%
X69235000Y-66785000D03*
%TO.P,J9,3,Pin_3*%
%TO.N,+5V*%
X71735000Y-66785000D03*
%TO.P,J9,4,Pin_4*%
%TO.N,GND*%
X74235000Y-66785000D03*
%TD*%
D12*
%TO.P,J14,1,Pin_1*%
%TO.N,PSX_DAT*%
X69725000Y-86995000D03*
%TO.P,J14,2,Pin_2*%
%TO.N,PSX_CMD*%
X73725000Y-86995000D03*
%TO.P,J14,3,Pin_3*%
%TO.N,+7.5V*%
X77725000Y-86995000D03*
%TO.P,J14,4,Pin_4*%
%TO.N,GND*%
X81725000Y-86995000D03*
%TO.P,J14,5,Pin_5*%
%TO.N,+3V3_PSX*%
X85725000Y-86995000D03*
%TO.P,J14,6,Pin_6*%
%TO.N,PSX_ATT*%
X89725000Y-86995000D03*
%TO.P,J14,7,Pin_7*%
%TO.N,PSX_SCK*%
X93725000Y-86995000D03*
%TO.P,J14,8,Pin_8*%
%TO.N,unconnected-(J14-Pin_8-Pad8)*%
X97725000Y-86995000D03*
%TO.P,J14,9,Pin_9*%
%TO.N,PSX_ACK*%
X101725000Y-86995000D03*
D13*
%TO.P,J14,10,Pin_10*%
%TO.N,GND*%
X85725000Y-83495000D03*
%TD*%
D10*
%TO.P,J8,1,Pin_1*%
%TO.N,Net-(D1-K)*%
X132775000Y-66785000D03*
D11*
%TO.P,J8,2,Pin_2*%
X135275000Y-66785000D03*
%TO.P,J8,3,Pin_3*%
%TO.N,+5V*%
X137775000Y-66785000D03*
%TO.P,J8,4,Pin_4*%
%TO.N,GND*%
X140275000Y-66785000D03*
%TD*%
D10*
%TO.P,J5,1,Pin_1*%
%TO.N,Net-(D7-K)*%
X92135000Y-115680000D03*
D11*
%TO.P,J5,2,Pin_2*%
X94635000Y-115680000D03*
%TO.P,J5,3,Pin_3*%
%TO.N,+5V*%
X97135000Y-115680000D03*
%TO.P,J5,4,Pin_4*%
%TO.N,GND*%
X99635000Y-115680000D03*
%TD*%
D10*
%TO.P,J6,1,Pin_1*%
%TO.N,Net-(D4-K)*%
X84515000Y-106790000D03*
D11*
%TO.P,J6,2,Pin_2*%
X87015000Y-106790000D03*
%TO.P,J6,3,Pin_3*%
%TO.N,+5V*%
X89515000Y-106790000D03*
%TO.P,J6,4,Pin_4*%
%TO.N,GND*%
X92015000Y-106790000D03*
%TD*%
D14*
%TO.P,H3,1,1*%
%TO.N,GND*%
X67945000Y-107315000D03*
%TD*%
D15*
%TO.P,U2,1,IN*%
%TO.N,+7.5V*%
X97790000Y-69850000D03*
D16*
%TO.P,U2,2,GND*%
%TO.N,GND*%
X100330000Y-69850000D03*
%TO.P,U2,3,OUT*%
%TO.N,+5V*%
X102870000Y-69850000D03*
%TD*%
D10*
%TO.P,J1,1,Pin_1*%
%TO.N,Net-(D5-K)*%
X122615000Y-115680000D03*
D11*
%TO.P,J1,2,Pin_2*%
X125115000Y-115680000D03*
%TO.P,J1,3,Pin_3*%
%TO.N,+5V*%
X127615000Y-115680000D03*
%TO.P,J1,4,Pin_4*%
%TO.N,GND*%
X130115000Y-115680000D03*
%TD*%
D17*
%TO.P,C2,1*%
%TO.N,+7.5V*%
X98425000Y-74295000D03*
D18*
%TO.P,C2,2*%
%TO.N,GND*%
X96925000Y-74295000D03*
%TD*%
D10*
%TO.P,J4,1,Pin_1*%
%TO.N,Net-(D3-K)*%
X99755000Y-106790000D03*
D11*
%TO.P,J4,2,Pin_2*%
X102255000Y-106790000D03*
%TO.P,J4,3,Pin_3*%
%TO.N,+5V*%
X104755000Y-106790000D03*
%TO.P,J4,4,Pin_4*%
%TO.N,GND*%
X107255000Y-106790000D03*
%TD*%
D19*
%TO.P,C1,1*%
%TO.N,+5V*%
X102235000Y-74295000D03*
D18*
%TO.P,C1,2*%
%TO.N,GND*%
X103735000Y-74295000D03*
%TD*%
D20*
%TO.P,U1,1,0*%
%TO.N,unconnected-(U1-0-Pad1)*%
X127500000Y-65405000D03*
%TO.P,U1,2,1*%
%TO.N,unconnected-(U1-1-Pad2)*%
X127500000Y-67945000D03*
%TO.P,U1,3,2*%
%TO.N,KEY_STA*%
X127500000Y-70485000D03*
%TO.P,U1,4,3*%
%TO.N,unconnected-(U1-3-Pad4)*%
X127500000Y-73025000D03*
%TO.P,U1,5,4*%
%TO.N,KEY_1*%
X127500000Y-75565000D03*
%TO.P,U1,6,5*%
%TO.N,KEY_3*%
X127500000Y-78105000D03*
%TO.P,U1,7,6*%
%TO.N,KEY_5*%
X127500000Y-80645000D03*
%TO.P,U1,8,7*%
%TO.N,KEY_7*%
X127500000Y-83185000D03*
%TO.P,U1,9,8*%
%TO.N,KEY_2*%
X127500000Y-85725000D03*
D21*
%TO.P,U1,10,9*%
%TO.N,KEY_4*%
X124460000Y-86225000D03*
%TO.P,U1,11,10*%
%TO.N,KEY_6*%
X121920000Y-86225000D03*
%TO.P,U1,12,11*%
%TO.N,SCR_TRCB*%
X119380000Y-86225000D03*
%TO.P,U1,13,12*%
%TO.N,SCR_TRCA*%
X116840000Y-86225000D03*
%TO.P,U1,14,13*%
%TO.N,KEY_SEL*%
X114300000Y-86225000D03*
D20*
%TO.P,U1,15,14*%
%TO.N,unconnected-(U1-14-Pad15)*%
X111260000Y-85725000D03*
%TO.P,U1,16,15*%
%TO.N,PSX_ACK*%
X111260000Y-83185000D03*
%TO.P,U1,17,26*%
%TO.N,PSX_SCK*%
X111260000Y-80645000D03*
%TO.P,U1,18,27*%
%TO.N,PSX_ATT*%
X111260000Y-78105000D03*
%TO.P,U1,19,28*%
%TO.N,PSX_CMD*%
X111260000Y-75565000D03*
%TO.P,U1,20,29*%
%TO.N,PSX_DAT*%
X111260000Y-73025000D03*
%TO.P,U1,21,3V3*%
%TO.N,+3V3*%
X111260000Y-70485000D03*
%TO.P,U1,22,GND*%
%TO.N,GND*%
X111260000Y-67945000D03*
%TO.P,U1,23,5V*%
%TO.N,+5V*%
X111260000Y-65405000D03*
%TD*%
D10*
%TO.P,J3,1,Pin_1*%
%TO.N,Net-(D6-K)*%
X107375000Y-115680000D03*
D11*
%TO.P,J3,2,Pin_2*%
X109875000Y-115680000D03*
%TO.P,J3,3,Pin_3*%
%TO.N,+5V*%
X112375000Y-115680000D03*
%TO.P,J3,4,Pin_4*%
%TO.N,GND*%
X114875000Y-115680000D03*
%TD*%
D10*
%TO.P,J7,1,Pin_1*%
%TO.N,Net-(D8-K)*%
X76895000Y-115680000D03*
D11*
%TO.P,J7,2,Pin_2*%
X79395000Y-115680000D03*
%TO.P,J7,3,Pin_3*%
%TO.N,+5V*%
X81895000Y-115680000D03*
%TO.P,J7,4,Pin_4*%
%TO.N,GND*%
X84395000Y-115680000D03*
%TD*%
D14*
%TO.P,H4,1,1*%
%TO.N,GND*%
X139065000Y-107315000D03*
%TD*%
%TO.P,H1,1,1*%
%TO.N,GND*%
X67945000Y-76200000D03*
%TD*%
D22*
%TO.P,J12,1,Pin_1*%
%TO.N,GND*%
X138540000Y-95190000D03*
D23*
%TO.P,J12,2,Pin_2*%
%TO.N,+5V*%
X138540000Y-92690000D03*
%TO.P,J12,3,Pin_3*%
%TO.N,SCR_TRCA*%
X138540000Y-90190000D03*
%TO.P,J12,4,Pin_4*%
%TO.N,SCR_TRCB*%
X138540000Y-87690000D03*
%TD*%
D24*
%TO.P,J10,1,Pin_1*%
%TO.N,GND*%
X87015000Y-97900000D03*
D25*
%TO.P,J10,2,Pin_2*%
%TO.N,+5V*%
X89515000Y-97900000D03*
%TD*%
D14*
%TO.P,H2,1,1*%
%TO.N,GND*%
X139065000Y-76200000D03*
%TD*%
D10*
%TO.P,J2,1,Pin_1*%
%TO.N,Net-(D2-K)*%
X114995000Y-106790000D03*
D11*
%TO.P,J2,2,Pin_2*%
X117495000Y-106790000D03*
%TO.P,J2,3,Pin_3*%
%TO.N,+5V*%
X119995000Y-106790000D03*
%TO.P,J2,4,Pin_4*%
%TO.N,GND*%
X122495000Y-106790000D03*
%TD*%
D26*
%TO.N,GND*%
X108585000Y-83185000D03*
X130175000Y-73025000D03*
X65405000Y-116840000D03*
X125095000Y-106680000D03*
X128905000Y-92075000D03*
X76200000Y-99695000D03*
X123190000Y-88900000D03*
X76835000Y-66675000D03*
X128905000Y-95250000D03*
X130175000Y-76835000D03*
X123825000Y-103505000D03*
X75565000Y-72390000D03*
X109855000Y-74295000D03*
X118745000Y-91440000D03*
X106680000Y-68580000D03*
X65405000Y-112395000D03*
X70485000Y-64770000D03*
X128905000Y-99695000D03*
X100330000Y-95250000D03*
X100330000Y-99695000D03*
X69850000Y-95250000D03*
X133985000Y-104775000D03*
X97790000Y-109220000D03*
X107950000Y-69850000D03*
X93980000Y-95250000D03*
X109855000Y-76835000D03*
X109855000Y-81915000D03*
X93980000Y-99695000D03*
X135255000Y-88900000D03*
X141605000Y-81280000D03*
X100330000Y-67310000D03*
X72390000Y-78740000D03*
X117475000Y-115570000D03*
X101600000Y-108585000D03*
X118110000Y-88900000D03*
X111125000Y-109855000D03*
X95885000Y-68580000D03*
X76200000Y-104140000D03*
X93345000Y-73660000D03*
X88900000Y-90170000D03*
X108585000Y-95250000D03*
X83185000Y-73660000D03*
X108585000Y-103505000D03*
X134620000Y-68580000D03*
X104775000Y-67310000D03*
X118745000Y-118745000D03*
X69850000Y-99695000D03*
X106680000Y-71120000D03*
X94615000Y-83820000D03*
X109220000Y-117475000D03*
X95885000Y-109855000D03*
X107950000Y-67310000D03*
X94615000Y-106680000D03*
X82550000Y-90170000D03*
X130175000Y-79375000D03*
X99695000Y-84455000D03*
X115570000Y-91440000D03*
X128905000Y-109220000D03*
X107950000Y-90805000D03*
X142240000Y-113665000D03*
X76200000Y-95250000D03*
X93980000Y-90170000D03*
X122555000Y-92075000D03*
X102235000Y-115570000D03*
X100330000Y-74295000D03*
X129540000Y-66675000D03*
X93980000Y-117475000D03*
X141605000Y-99695000D03*
X69850000Y-116840000D03*
X82550000Y-99695000D03*
X68580000Y-68580000D03*
X119380000Y-99695000D03*
X76835000Y-77470000D03*
X108585000Y-99695000D03*
X128905000Y-104775000D03*
X125730000Y-92075000D03*
X100330000Y-103505000D03*
X125730000Y-88900000D03*
X82550000Y-95250000D03*
X114300000Y-95250000D03*
X85725000Y-73660000D03*
X97155000Y-67310000D03*
X104775000Y-79375000D03*
X133985000Y-109220000D03*
X134620000Y-118745000D03*
X132080000Y-113665000D03*
X84455000Y-75565000D03*
X74295000Y-84455000D03*
X88900000Y-93980000D03*
X130175000Y-82550000D03*
X123825000Y-99695000D03*
X111760000Y-88900000D03*
X69850000Y-112395000D03*
X76200000Y-90170000D03*
X80645000Y-83185000D03*
X78740000Y-72390000D03*
X135255000Y-86360000D03*
X88900000Y-71120000D03*
X123825000Y-95250000D03*
X114300000Y-103505000D03*
X113030000Y-109220000D03*
X76200000Y-108585000D03*
X78740000Y-117475000D03*
X73025000Y-72390000D03*
X109855000Y-79375000D03*
X100330000Y-90170000D03*
X107950000Y-86995000D03*
X74295000Y-80645000D03*
X100330000Y-78105000D03*
X65405000Y-95250000D03*
X100330000Y-72390000D03*
X135255000Y-113665000D03*
X71755000Y-83185000D03*
X103505000Y-118745000D03*
X86360000Y-108585000D03*
X119380000Y-95250000D03*
X114300000Y-99695000D03*
X128905000Y-88900000D03*
X90805000Y-83185000D03*
X134620000Y-81280000D03*
X142240000Y-66040000D03*
X64770000Y-69850000D03*
X109855000Y-106680000D03*
X76200000Y-112395000D03*
X107950000Y-72390000D03*
X141605000Y-83820000D03*
X93980000Y-71120000D03*
X86995000Y-115570000D03*
X116840000Y-108585000D03*
X120650000Y-88900000D03*
X82550000Y-103505000D03*
X134620000Y-73660000D03*
X106045000Y-80645000D03*
X93980000Y-103505000D03*
X124460000Y-117475000D03*
X131445000Y-69215000D03*
X135255000Y-91440000D03*
X107315000Y-81915000D03*
X136525000Y-64770000D03*
X135890000Y-99695000D03*
X140335000Y-69850000D03*
X140335000Y-88900000D03*
X69850000Y-81280000D03*
X88265000Y-118745000D03*
X65405000Y-99695000D03*
X132715000Y-115570000D03*
X69850000Y-90170000D03*
%TD*%
D27*
%TO.N,+5V*%
X112395000Y-115660000D02*
X112375000Y-115680000D01*
X112395000Y-111760000D02*
X112395000Y-115660000D01*
X120015000Y-106810000D02*
X119995000Y-106790000D01*
X120015000Y-111760000D02*
X120015000Y-106810000D01*
X118745000Y-111760000D02*
X120015000Y-111760000D01*
X104755000Y-111760000D02*
X106680000Y-111760000D01*
X104755000Y-106790000D02*
X104755000Y-111760000D01*
X97155000Y-115660000D02*
X97135000Y-115680000D01*
X97155000Y-111760000D02*
X97155000Y-115660000D01*
%TO.N,+7.5V*%
X78740000Y-78105000D02*
X77725000Y-79120000D01*
X96520000Y-78105000D02*
X78740000Y-78105000D01*
X98425000Y-73025000D02*
X98425000Y-74295000D01*
X77725000Y-79120000D02*
X77725000Y-86995000D01*
X97790000Y-69850000D02*
X97790000Y-72390000D01*
X97790000Y-72390000D02*
X98425000Y-73025000D01*
X98425000Y-74295000D02*
X98425000Y-76200000D01*
X98425000Y-76200000D02*
X96520000Y-78105000D01*
%TO.N,+5V*%
X127615000Y-113050000D02*
X127615000Y-115680000D01*
X133350000Y-84455000D02*
X139700000Y-84455000D01*
X121285000Y-102235000D02*
X119995000Y-103525000D01*
X106680000Y-111760000D02*
X112395000Y-111760000D01*
X135592500Y-92690000D02*
X132715000Y-95567500D01*
X83185000Y-111760000D02*
X81895000Y-113050000D01*
X130810000Y-102235000D02*
X121285000Y-102235000D01*
X81280000Y-66040000D02*
X78105000Y-69215000D01*
X127635000Y-113030000D02*
X127615000Y-113050000D01*
X140355000Y-92690000D02*
X138540000Y-92690000D01*
X133985000Y-70485000D02*
X132080000Y-72390000D01*
X102235000Y-81915000D02*
X104775000Y-84455000D01*
X139700000Y-84455000D02*
X141605000Y-86360000D01*
X137775000Y-69235000D02*
X136525000Y-70485000D01*
X119995000Y-103525000D02*
X119995000Y-104775000D01*
X119995000Y-106790000D02*
X119995000Y-104775000D01*
X137775000Y-66785000D02*
X137775000Y-69235000D01*
X102235000Y-73025000D02*
X102235000Y-74295000D01*
X102870000Y-69850000D02*
X102870000Y-67310000D01*
X71735000Y-67925000D02*
X71735000Y-66785000D01*
X138540000Y-92690000D02*
X135592500Y-92690000D01*
X97155000Y-111760000D02*
X89535000Y-111760000D01*
X141605000Y-91440000D02*
X140355000Y-92690000D01*
X71755000Y-67945000D02*
X71735000Y-67925000D01*
X118745000Y-111760000D02*
X126365000Y-111760000D01*
X132715000Y-95567500D02*
X132715000Y-100330000D01*
X89535000Y-111760000D02*
X83185000Y-111760000D01*
X126365000Y-111760000D02*
X127635000Y-113030000D01*
X89535000Y-111760000D02*
X89515000Y-111740000D01*
X89515000Y-106790000D02*
X89515000Y-97900000D01*
X102235000Y-74295000D02*
X102235000Y-81915000D01*
X89515000Y-111740000D02*
X89515000Y-106790000D01*
X119995000Y-104775000D02*
X119995000Y-104120000D01*
X104755000Y-84475000D02*
X104755000Y-106790000D01*
X112395000Y-111760000D02*
X118745000Y-111760000D01*
X141605000Y-86360000D02*
X141605000Y-91440000D01*
X132715000Y-100330000D02*
X130810000Y-102235000D01*
X106680000Y-111760000D02*
X97155000Y-111760000D01*
X81895000Y-113050000D02*
X81895000Y-115680000D01*
X71755000Y-68580000D02*
X71755000Y-67945000D01*
X78105000Y-69215000D02*
X72390000Y-69215000D01*
X72390000Y-69215000D02*
X71755000Y-68580000D01*
X102870000Y-67310000D02*
X101600000Y-66040000D01*
X101600000Y-66040000D02*
X81280000Y-66040000D01*
X104775000Y-84455000D02*
X104755000Y-84475000D01*
X102870000Y-72390000D02*
X102235000Y-73025000D01*
X136525000Y-70485000D02*
X133985000Y-70485000D01*
X102870000Y-69850000D02*
X102870000Y-72390000D01*
X132080000Y-83185000D02*
X133350000Y-84455000D01*
X132080000Y-72390000D02*
X132080000Y-83185000D01*
D28*
%TO.N,SCR_TRCB*%
X134560000Y-87690000D02*
X138540000Y-87690000D01*
X131445000Y-90805000D02*
X134560000Y-87690000D01*
X120650000Y-90805000D02*
X131445000Y-90805000D01*
X119380000Y-89535000D02*
X120650000Y-90805000D01*
X119380000Y-85725000D02*
X119380000Y-89535000D01*
%TO.N,SCR_TRCA*%
X134600000Y-90190000D02*
X131445000Y-93345000D01*
X116840000Y-92075000D02*
X116840000Y-85725000D01*
X138540000Y-90190000D02*
X134600000Y-90190000D01*
X118110000Y-93345000D02*
X116840000Y-92075000D01*
X131445000Y-93345000D02*
X118110000Y-93345000D01*
%TD*%
%TA.AperFunction,Conductor*%
%TO.N,GND*%
G36*
X112838691Y-64019407D02*
G01*
X112874655Y-64068907D01*
X112879500Y-64099500D01*
X112879500Y-64768886D01*
X112860593Y-64827077D01*
X112811093Y-64863041D01*
X112749907Y-64863041D01*
X112700407Y-64827077D01*
X112658938Y-64770000D01*
X112599414Y-64688072D01*
X112476928Y-64565586D01*
X112336788Y-64463768D01*
X112336787Y-64463767D01*
X112336785Y-64463766D01*
X112182441Y-64385125D01*
X112182438Y-64385123D01*
X112017706Y-64331598D01*
X112017702Y-64331597D01*
X111846614Y-64304500D01*
X111846611Y-64304500D01*
X110673389Y-64304500D01*
X110673386Y-64304500D01*
X110502297Y-64331597D01*
X110502293Y-64331598D01*
X110337561Y-64385123D01*
X110337558Y-64385125D01*
X110183214Y-64463766D01*
X110043073Y-64565585D01*
X109920585Y-64688073D01*
X109818766Y-64828214D01*
X109740125Y-64982558D01*
X109740123Y-64982561D01*
X109686598Y-65147293D01*
X109686597Y-65147297D01*
X109659500Y-65318385D01*
X109659500Y-65491614D01*
X109686597Y-65662702D01*
X109686598Y-65662706D01*
X109740123Y-65827438D01*
X109740125Y-65827441D01*
X109803818Y-65952448D01*
X109818768Y-65981788D01*
X109920586Y-66121928D01*
X110043072Y-66244414D01*
X110183212Y-66346232D01*
X110337555Y-66424873D01*
X110337557Y-66424873D01*
X110337558Y-66424874D01*
X110337561Y-66424876D01*
X110502293Y-66478401D01*
X110502297Y-66478402D01*
X110648365Y-66501537D01*
X110702882Y-66529314D01*
X110730659Y-66583831D01*
X110721088Y-66644263D01*
X110677823Y-66687528D01*
X110648365Y-66697099D01*
X110467289Y-66725778D01*
X110467285Y-66725779D01*
X110280173Y-66786576D01*
X110280170Y-66786578D01*
X110104857Y-66875903D01*
X110104851Y-66875907D01*
X109945685Y-66991549D01*
X109806549Y-67130685D01*
X109690907Y-67289851D01*
X109690903Y-67289857D01*
X109601580Y-67465166D01*
X109540777Y-67652295D01*
X109534014Y-67694999D01*
X109534015Y-67695000D01*
X111161000Y-67695000D01*
X111219191Y-67713907D01*
X111255155Y-67763407D01*
X111260000Y-67794000D01*
X111260000Y-68096000D01*
X111241093Y-68154191D01*
X111191593Y-68190155D01*
X111161000Y-68195000D01*
X109534015Y-68195000D01*
X109540777Y-68237704D01*
X109601580Y-68424833D01*
X109690903Y-68600142D01*
X109690907Y-68600148D01*
X109806549Y-68759314D01*
X109945685Y-68898450D01*
X110104851Y-69014092D01*
X110104857Y-69014096D01*
X110280170Y-69103421D01*
X110280173Y-69103423D01*
X110467285Y-69164220D01*
X110467289Y-69164221D01*
X110648365Y-69192900D01*
X110702881Y-69220677D01*
X110730659Y-69275194D01*
X110721088Y-69335626D01*
X110677823Y-69378890D01*
X110648366Y-69388462D01*
X110502296Y-69411598D01*
X110502293Y-69411598D01*
X110337561Y-69465123D01*
X110337558Y-69465125D01*
X110183214Y-69543766D01*
X110043073Y-69645585D01*
X109920585Y-69768073D01*
X109818766Y-69908214D01*
X109740125Y-70062558D01*
X109740123Y-70062561D01*
X109686598Y-70227293D01*
X109686597Y-70227297D01*
X109659500Y-70398385D01*
X109659500Y-70571614D01*
X109686597Y-70742702D01*
X109686598Y-70742706D01*
X109740123Y-70907438D01*
X109740125Y-70907441D01*
X109790039Y-71005405D01*
X109818768Y-71061788D01*
X109920586Y-71201928D01*
X110043072Y-71324414D01*
X110183212Y-71426232D01*
X110337555Y-71504873D01*
X110337557Y-71504873D01*
X110337558Y-71504874D01*
X110337561Y-71504876D01*
X110502293Y-71558401D01*
X110502297Y-71558402D01*
X110673386Y-71585500D01*
X110673389Y-71585500D01*
X111846614Y-71585500D01*
X112017702Y-71558402D01*
X112017706Y-71558401D01*
X112182438Y-71504876D01*
X112182440Y-71504874D01*
X112182445Y-71504873D01*
X112336788Y-71426232D01*
X112476928Y-71324414D01*
X112599414Y-71201928D01*
X112700409Y-71062920D01*
X112749907Y-71026958D01*
X112811093Y-71026958D01*
X112860593Y-71062922D01*
X112879500Y-71121113D01*
X112879500Y-72388886D01*
X112860593Y-72447077D01*
X112811093Y-72483041D01*
X112749907Y-72483041D01*
X112700407Y-72447077D01*
X112599414Y-72308072D01*
X112476928Y-72185586D01*
X112336788Y-72083768D01*
X112336787Y-72083767D01*
X112336785Y-72083766D01*
X112182441Y-72005125D01*
X112182438Y-72005123D01*
X112017706Y-71951598D01*
X112017702Y-71951597D01*
X111846614Y-71924500D01*
X111846611Y-71924500D01*
X110673389Y-71924500D01*
X110673386Y-71924500D01*
X110502297Y-71951597D01*
X110502293Y-71951598D01*
X110337561Y-72005123D01*
X110337558Y-72005125D01*
X110183214Y-72083766D01*
X110043073Y-72185585D01*
X109920585Y-72308073D01*
X109818766Y-72448214D01*
X109740125Y-72602558D01*
X109740123Y-72602561D01*
X109686598Y-72767293D01*
X109686597Y-72767297D01*
X109659500Y-72938385D01*
X109659500Y-73111614D01*
X109686597Y-73282702D01*
X109686598Y-73282706D01*
X109740123Y-73447438D01*
X109740125Y-73447441D01*
X109807571Y-73579814D01*
X109818768Y-73601788D01*
X109920586Y-73741928D01*
X110043072Y-73864414D01*
X110183212Y-73966232D01*
X110337555Y-74044873D01*
X110337557Y-74044873D01*
X110337558Y-74044874D01*
X110337561Y-74044876D01*
X110502293Y-74098401D01*
X110502297Y-74098402D01*
X110673386Y-74125500D01*
X110673389Y-74125500D01*
X111846614Y-74125500D01*
X112017702Y-74098402D01*
X112017706Y-74098401D01*
X112182438Y-74044876D01*
X112182440Y-74044874D01*
X112182445Y-74044873D01*
X112336788Y-73966232D01*
X112476928Y-73864414D01*
X112599414Y-73741928D01*
X112700409Y-73602920D01*
X112749907Y-73566958D01*
X112811093Y-73566958D01*
X112860593Y-73602922D01*
X112879500Y-73661113D01*
X112879500Y-74928886D01*
X112860593Y-74987077D01*
X112811093Y-75023041D01*
X112749907Y-75023041D01*
X112700407Y-74987077D01*
X112694659Y-74979165D01*
X112599414Y-74848072D01*
X112476928Y-74725586D01*
X112336788Y-74623768D01*
X112336787Y-74623767D01*
X112336785Y-74623766D01*
X112182441Y-74545125D01*
X112182438Y-74545123D01*
X112017706Y-74491598D01*
X112017702Y-74491597D01*
X111846614Y-74464500D01*
X111846611Y-74464500D01*
X110673389Y-74464500D01*
X110673386Y-74464500D01*
X110502297Y-74491597D01*
X110502293Y-74491598D01*
X110337561Y-74545123D01*
X110337558Y-74545125D01*
X110183214Y-74623766D01*
X110043073Y-74725585D01*
X109920585Y-74848073D01*
X109818766Y-74988214D01*
X109740125Y-75142558D01*
X109740123Y-75142561D01*
X109686598Y-75307293D01*
X109686597Y-75307297D01*
X109659500Y-75478385D01*
X109659500Y-75651614D01*
X109686597Y-75822702D01*
X109686598Y-75822706D01*
X109740123Y-75987438D01*
X109740125Y-75987441D01*
X109740126Y-75987444D01*
X109740127Y-75987445D01*
X109818768Y-76141788D01*
X109920586Y-76281928D01*
X110043072Y-76404414D01*
X110183212Y-76506232D01*
X110337555Y-76584873D01*
X110337557Y-76584873D01*
X110337558Y-76584874D01*
X110337561Y-76584876D01*
X110502293Y-76638401D01*
X110502297Y-76638402D01*
X110673386Y-76665500D01*
X110673389Y-76665500D01*
X111846614Y-76665500D01*
X112017702Y-76638402D01*
X112017706Y-76638401D01*
X112182438Y-76584876D01*
X112182440Y-76584874D01*
X112182445Y-76584873D01*
X112336788Y-76506232D01*
X112476928Y-76404414D01*
X112599414Y-76281928D01*
X112700409Y-76142920D01*
X112749907Y-76106958D01*
X112811093Y-76106958D01*
X112860593Y-76142922D01*
X112879500Y-76201113D01*
X112879500Y-77468886D01*
X112860593Y-77527077D01*
X112811093Y-77563041D01*
X112749907Y-77563041D01*
X112700407Y-77527077D01*
X112599414Y-77388072D01*
X112476928Y-77265586D01*
X112336788Y-77163768D01*
X112336787Y-77163767D01*
X112336785Y-77163766D01*
X112182441Y-77085125D01*
X112182438Y-77085123D01*
X112017706Y-77031598D01*
X112017702Y-77031597D01*
X111846614Y-77004500D01*
X111846611Y-77004500D01*
X110673389Y-77004500D01*
X110673386Y-77004500D01*
X110502297Y-77031597D01*
X110502293Y-77031598D01*
X110337561Y-77085123D01*
X110337558Y-77085125D01*
X110183214Y-77163766D01*
X110043073Y-77265585D01*
X109920585Y-77388073D01*
X109818766Y-77528214D01*
X109740125Y-77682558D01*
X109740123Y-77682561D01*
X109686598Y-77847293D01*
X109686597Y-77847297D01*
X109659500Y-78018385D01*
X109659500Y-78191614D01*
X109686597Y-78362702D01*
X109686598Y-78362706D01*
X109740123Y-78527438D01*
X109740125Y-78527441D01*
X109740126Y-78527444D01*
X109740127Y-78527445D01*
X109818768Y-78681788D01*
X109920586Y-78821928D01*
X110043072Y-78944414D01*
X110183212Y-79046232D01*
X110337555Y-79124873D01*
X110337557Y-79124873D01*
X110337558Y-79124874D01*
X110337561Y-79124876D01*
X110502293Y-79178401D01*
X110502297Y-79178402D01*
X110673386Y-79205500D01*
X110673389Y-79205500D01*
X111846614Y-79205500D01*
X112017702Y-79178402D01*
X112017706Y-79178401D01*
X112182438Y-79124876D01*
X112182440Y-79124874D01*
X112182445Y-79124873D01*
X112336788Y-79046232D01*
X112476928Y-78944414D01*
X112599414Y-78821928D01*
X112700409Y-78682920D01*
X112749907Y-78646958D01*
X112811093Y-78646958D01*
X112860593Y-78682922D01*
X112879500Y-78741113D01*
X112879500Y-80008886D01*
X112860593Y-80067077D01*
X112811093Y-80103041D01*
X112749907Y-80103041D01*
X112700407Y-80067077D01*
X112599414Y-79928072D01*
X112476928Y-79805586D01*
X112336788Y-79703768D01*
X112336787Y-79703767D01*
X112336785Y-79703766D01*
X112182441Y-79625125D01*
X112182438Y-79625123D01*
X112017706Y-79571598D01*
X112017702Y-79571597D01*
X111846614Y-79544500D01*
X111846611Y-79544500D01*
X110673389Y-79544500D01*
X110673386Y-79544500D01*
X110502297Y-79571597D01*
X110502293Y-79571598D01*
X110337561Y-79625123D01*
X110337558Y-79625125D01*
X110183214Y-79703766D01*
X110043073Y-79805585D01*
X109920585Y-79928073D01*
X109818766Y-80068214D01*
X109740125Y-80222558D01*
X109740123Y-80222561D01*
X109686598Y-80387293D01*
X109686597Y-80387297D01*
X109659500Y-80558385D01*
X109659500Y-80731614D01*
X109686597Y-80902702D01*
X109686598Y-80902706D01*
X109740123Y-81067438D01*
X109740125Y-81067441D01*
X109740126Y-81067444D01*
X109740127Y-81067445D01*
X109818768Y-81221788D01*
X109920586Y-81361928D01*
X110043072Y-81484414D01*
X110183212Y-81586232D01*
X110337555Y-81664873D01*
X110337557Y-81664873D01*
X110337558Y-81664874D01*
X110337561Y-81664876D01*
X110502293Y-81718401D01*
X110502297Y-81718402D01*
X110673386Y-81745500D01*
X110673389Y-81745500D01*
X111846614Y-81745500D01*
X112017702Y-81718402D01*
X112017706Y-81718401D01*
X112182438Y-81664876D01*
X112182440Y-81664874D01*
X112182445Y-81664873D01*
X112336788Y-81586232D01*
X112476928Y-81484414D01*
X112599414Y-81361928D01*
X112700409Y-81222920D01*
X112749907Y-81186958D01*
X112811093Y-81186958D01*
X112860593Y-81222922D01*
X112879500Y-81281113D01*
X112879500Y-82548886D01*
X112860593Y-82607077D01*
X112811093Y-82643041D01*
X112749907Y-82643041D01*
X112700407Y-82607077D01*
X112599414Y-82468072D01*
X112476928Y-82345586D01*
X112336788Y-82243768D01*
X112336787Y-82243767D01*
X112336785Y-82243766D01*
X112182441Y-82165125D01*
X112182438Y-82165123D01*
X112017706Y-82111598D01*
X112017702Y-82111597D01*
X111846614Y-82084500D01*
X111846611Y-82084500D01*
X110673389Y-82084500D01*
X110673386Y-82084500D01*
X110502297Y-82111597D01*
X110502293Y-82111598D01*
X110337561Y-82165123D01*
X110337558Y-82165125D01*
X110183214Y-82243766D01*
X110043073Y-82345585D01*
X109920585Y-82468073D01*
X109818766Y-82608214D01*
X109740125Y-82762558D01*
X109740123Y-82762561D01*
X109686598Y-82927293D01*
X109686597Y-82927297D01*
X109659500Y-83098385D01*
X109659500Y-83271614D01*
X109686597Y-83442702D01*
X109686598Y-83442706D01*
X109740123Y-83607438D01*
X109740125Y-83607441D01*
X109810214Y-83745001D01*
X109818768Y-83761788D01*
X109920586Y-83901928D01*
X110043072Y-84024414D01*
X110183212Y-84126232D01*
X110337555Y-84204873D01*
X110337557Y-84204873D01*
X110337558Y-84204874D01*
X110337561Y-84204876D01*
X110502293Y-84258401D01*
X110502297Y-84258402D01*
X110673386Y-84285500D01*
X110673389Y-84285500D01*
X111846614Y-84285500D01*
X112017702Y-84258402D01*
X112017706Y-84258401D01*
X112182438Y-84204876D01*
X112182440Y-84204874D01*
X112182445Y-84204873D01*
X112336788Y-84126232D01*
X112476928Y-84024414D01*
X112599414Y-83901928D01*
X112700409Y-83762920D01*
X112749907Y-83726958D01*
X112811093Y-83726958D01*
X112860593Y-83762922D01*
X112879500Y-83821113D01*
X112879500Y-84749108D01*
X112879500Y-84880892D01*
X112909579Y-84993151D01*
X112913609Y-85008190D01*
X112979496Y-85122309D01*
X112979498Y-85122311D01*
X112979500Y-85122314D01*
X113072686Y-85215500D01*
X113186814Y-85281392D01*
X113186816Y-85281392D01*
X113190567Y-85282946D01*
X113237094Y-85322682D01*
X113251378Y-85382177D01*
X113246838Y-85405002D01*
X113226597Y-85467299D01*
X113199500Y-85638385D01*
X113199500Y-86811614D01*
X113226597Y-86982702D01*
X113226598Y-86982706D01*
X113280123Y-87147438D01*
X113280125Y-87147441D01*
X113342673Y-87270201D01*
X113358768Y-87301788D01*
X113460586Y-87441928D01*
X113583072Y-87564414D01*
X113723212Y-87666232D01*
X113877555Y-87744873D01*
X113877557Y-87744873D01*
X113877558Y-87744874D01*
X113877561Y-87744876D01*
X114042293Y-87798401D01*
X114042297Y-87798402D01*
X114213386Y-87825500D01*
X114213389Y-87825500D01*
X114386614Y-87825500D01*
X114557702Y-87798402D01*
X114557706Y-87798401D01*
X114722438Y-87744876D01*
X114722440Y-87744874D01*
X114722445Y-87744873D01*
X114876788Y-87666232D01*
X115016928Y-87564414D01*
X115139414Y-87441928D01*
X115241232Y-87301788D01*
X115319873Y-87147445D01*
X115319874Y-87147440D01*
X115319876Y-87147438D01*
X115373401Y-86982706D01*
X115373402Y-86982702D01*
X115400500Y-86811614D01*
X115400500Y-85638385D01*
X115380517Y-85512221D01*
X115373402Y-85467299D01*
X115366187Y-85445093D01*
X115366187Y-85383907D01*
X115402151Y-85334407D01*
X115460342Y-85315500D01*
X115679658Y-85315500D01*
X115737849Y-85334407D01*
X115773813Y-85383907D01*
X115773813Y-85445093D01*
X115766597Y-85467301D01*
X115739500Y-85638385D01*
X115739500Y-86811614D01*
X115766597Y-86982702D01*
X115766598Y-86982706D01*
X115820123Y-87147438D01*
X115820125Y-87147441D01*
X115882673Y-87270201D01*
X115898768Y-87301788D01*
X116000586Y-87441928D01*
X116123072Y-87564414D01*
X116263212Y-87666232D01*
X116335445Y-87703036D01*
X116378709Y-87746299D01*
X116389500Y-87791245D01*
X116389500Y-92134311D01*
X116405414Y-92193700D01*
X116405414Y-92193702D01*
X116405415Y-92193702D01*
X116405415Y-92193703D01*
X116420201Y-92248887D01*
X116420202Y-92248889D01*
X116420203Y-92248892D01*
X116479507Y-92351609D01*
X116479509Y-92351611D01*
X116479511Y-92351614D01*
X117833386Y-93705489D01*
X117833388Y-93705490D01*
X117833390Y-93705492D01*
X117936107Y-93764796D01*
X117936109Y-93764797D01*
X117936113Y-93764799D01*
X117960322Y-93771284D01*
X117960325Y-93771287D01*
X117960326Y-93771286D01*
X118050688Y-93795499D01*
X118050690Y-93795500D01*
X118050691Y-93795500D01*
X131504309Y-93795500D01*
X131594669Y-93771287D01*
X131594672Y-93771287D01*
X131607903Y-93767741D01*
X131618887Y-93764799D01*
X131721614Y-93705489D01*
X134757608Y-90669496D01*
X134812125Y-90641719D01*
X134827612Y-90640500D01*
X137236521Y-90640500D01*
X137294712Y-90659407D01*
X137324730Y-90694554D01*
X137388240Y-90819199D01*
X137499310Y-90972073D01*
X137632927Y-91105690D01*
X137785801Y-91216760D01*
X137954168Y-91302547D01*
X138087425Y-91345845D01*
X138136925Y-91381809D01*
X138155832Y-91440000D01*
X138136925Y-91498191D01*
X138087425Y-91534155D01*
X137954167Y-91577453D01*
X137785803Y-91663238D01*
X137632924Y-91774312D01*
X137596732Y-91810504D01*
X137542215Y-91838281D01*
X137526729Y-91839500D01*
X135508730Y-91839500D01*
X135344420Y-91872183D01*
X135344414Y-91872185D01*
X135286381Y-91896224D01*
X135286380Y-91896224D01*
X135189640Y-91936294D01*
X135050341Y-92029370D01*
X132054376Y-95025334D01*
X132054373Y-95025338D01*
X131961299Y-95164630D01*
X131961293Y-95164641D01*
X131915962Y-95274083D01*
X131897184Y-95319416D01*
X131897184Y-95319418D01*
X131864500Y-95483730D01*
X131864500Y-99936703D01*
X131845593Y-99994894D01*
X131835504Y-100006707D01*
X130486707Y-101355504D01*
X130432190Y-101383281D01*
X130416703Y-101384500D01*
X121201230Y-101384500D01*
X121036920Y-101417183D01*
X121036914Y-101417185D01*
X120882137Y-101481296D01*
X120742838Y-101574374D01*
X120742834Y-101574377D01*
X119334376Y-102982834D01*
X119334373Y-102982838D01*
X119241299Y-103122130D01*
X119241293Y-103122141D01*
X119195962Y-103231583D01*
X119177184Y-103276916D01*
X119177184Y-103276918D01*
X119144500Y-103441230D01*
X119144500Y-105776729D01*
X119125593Y-105834920D01*
X119115504Y-105846732D01*
X119079312Y-105882924D01*
X118968238Y-106035803D01*
X118882453Y-106204167D01*
X118839155Y-106337425D01*
X118803191Y-106386925D01*
X118745000Y-106405832D01*
X118686809Y-106386925D01*
X118650845Y-106337425D01*
X118621441Y-106246930D01*
X118607547Y-106204168D01*
X118521760Y-106035801D01*
X118410690Y-105882927D01*
X118277073Y-105749310D01*
X118124199Y-105638240D01*
X118124198Y-105638239D01*
X118124196Y-105638238D01*
X117955832Y-105552453D01*
X117776113Y-105494058D01*
X117589484Y-105464500D01*
X117589481Y-105464500D01*
X117400519Y-105464500D01*
X117400516Y-105464500D01*
X117213886Y-105494058D01*
X117034167Y-105552453D01*
X116865803Y-105638238D01*
X116712928Y-105749309D01*
X116579309Y-105882928D01*
X116468238Y-106035803D01*
X116382709Y-106203665D01*
X116339444Y-106246930D01*
X116279012Y-106256501D01*
X116224495Y-106228724D01*
X116196718Y-106174207D01*
X116195499Y-106158720D01*
X116195499Y-106025642D01*
X116195499Y-106025640D01*
X116180044Y-105908238D01*
X116119537Y-105762161D01*
X116119537Y-105762160D01*
X116023286Y-105636723D01*
X116023285Y-105636722D01*
X116023282Y-105636718D01*
X116023277Y-105636714D01*
X116023276Y-105636713D01*
X115897838Y-105540462D01*
X115751766Y-105479957D01*
X115751758Y-105479955D01*
X115634361Y-105464500D01*
X114355642Y-105464500D01*
X114355637Y-105464501D01*
X114238241Y-105479955D01*
X114238233Y-105479957D01*
X114092161Y-105540462D01*
X114092160Y-105540462D01*
X113966723Y-105636713D01*
X113966713Y-105636723D01*
X113870462Y-105762160D01*
X113870462Y-105762161D01*
X113809957Y-105908233D01*
X113809955Y-105908241D01*
X113794500Y-106025637D01*
X113794500Y-107554357D01*
X113794501Y-107554362D01*
X113809955Y-107671758D01*
X113809957Y-107671766D01*
X113870462Y-107817838D01*
X113870462Y-107817839D01*
X113880323Y-107830690D01*
X113966718Y-107943282D01*
X113966722Y-107943285D01*
X113966723Y-107943286D01*
X113996082Y-107965813D01*
X114092159Y-108039536D01*
X114092160Y-108039536D01*
X114092161Y-108039537D01*
X114204188Y-108085940D01*
X114238238Y-108100044D01*
X114355639Y-108115500D01*
X115634360Y-108115499D01*
X115751762Y-108100044D01*
X115897841Y-108039536D01*
X116023282Y-107943282D01*
X116119536Y-107817841D01*
X116180044Y-107671762D01*
X116195500Y-107554361D01*
X116195499Y-107421279D01*
X116214406Y-107363091D01*
X116263906Y-107327127D01*
X116325091Y-107327126D01*
X116374591Y-107363090D01*
X116382709Y-107376336D01*
X116468238Y-107544196D01*
X116468240Y-107544199D01*
X116579310Y-107697073D01*
X116712927Y-107830690D01*
X116865801Y-107941760D01*
X117034168Y-108027547D01*
X117213882Y-108085940D01*
X117213883Y-108085940D01*
X117213886Y-108085941D01*
X117400516Y-108115500D01*
X117400519Y-108115500D01*
X117589484Y-108115500D01*
X117776113Y-108085941D01*
X117776114Y-108085940D01*
X117776118Y-108085940D01*
X117955832Y-108027547D01*
X118124199Y-107941760D01*
X118277073Y-107830690D01*
X118410690Y-107697073D01*
X118521760Y-107544199D01*
X118607547Y-107375832D01*
X118650845Y-107242572D01*
X118686809Y-107193074D01*
X118745000Y-107174167D01*
X118803191Y-107193074D01*
X118839154Y-107242572D01*
X118866628Y-107327127D01*
X118882453Y-107375832D01*
X118968237Y-107544195D01*
X118968240Y-107544199D01*
X119079310Y-107697073D01*
X119135505Y-107753268D01*
X119163281Y-107807783D01*
X119164500Y-107823270D01*
X119164500Y-110810500D01*
X119145593Y-110868691D01*
X119096093Y-110904655D01*
X119065500Y-110909500D01*
X105704500Y-110909500D01*
X105646309Y-110890593D01*
X105610345Y-110841093D01*
X105605500Y-110810500D01*
X105605500Y-107803270D01*
X105624407Y-107745079D01*
X105634490Y-107733272D01*
X105670690Y-107697073D01*
X105781760Y-107544199D01*
X105832896Y-107443837D01*
X105876160Y-107400573D01*
X105936592Y-107391001D01*
X105991109Y-107418778D01*
X106009316Y-107443837D01*
X106100375Y-107622551D01*
X106225277Y-107794464D01*
X106375535Y-107944722D01*
X106547447Y-108069624D01*
X106736784Y-108166095D01*
X106938877Y-108231758D01*
X107004999Y-108242231D01*
X107005000Y-108242230D01*
X107005000Y-107194145D01*
X107071657Y-107232630D01*
X107192465Y-107265000D01*
X107317535Y-107265000D01*
X107438343Y-107232630D01*
X107505000Y-107194145D01*
X107505000Y-108242231D01*
X107571122Y-108231758D01*
X107773215Y-108166095D01*
X107962552Y-108069624D01*
X108134464Y-107944722D01*
X108284722Y-107794464D01*
X108409624Y-107622552D01*
X108506095Y-107433215D01*
X108571759Y-107231121D01*
X108602030Y-107040000D01*
X107659146Y-107040000D01*
X107697630Y-106973343D01*
X107730000Y-106852535D01*
X107730000Y-106727465D01*
X107697630Y-106606657D01*
X107659146Y-106540000D01*
X108602030Y-106540000D01*
X108602030Y-106539999D01*
X108571759Y-106348878D01*
X108506095Y-106146784D01*
X108409624Y-105957447D01*
X108284722Y-105785535D01*
X108134464Y-105635277D01*
X107962552Y-105510375D01*
X107773215Y-105413904D01*
X107571120Y-105348240D01*
X107505000Y-105337767D01*
X107505000Y-106385854D01*
X107438343Y-106347370D01*
X107317535Y-106315000D01*
X107192465Y-106315000D01*
X107071657Y-106347370D01*
X107005000Y-106385854D01*
X107005000Y-105337768D01*
X107004999Y-105337767D01*
X106938880Y-105348240D01*
X106938878Y-105348240D01*
X106736784Y-105413904D01*
X106547447Y-105510375D01*
X106375535Y-105635277D01*
X106225277Y-105785535D01*
X106100375Y-105957448D01*
X106009316Y-106136162D01*
X105966051Y-106179427D01*
X105905619Y-106188998D01*
X105851102Y-106161220D01*
X105832896Y-106136162D01*
X105781761Y-106035803D01*
X105774379Y-106025642D01*
X105670690Y-105882927D01*
X105670687Y-105882924D01*
X105634496Y-105846732D01*
X105606719Y-105792215D01*
X105605500Y-105776729D01*
X105605500Y-85638385D01*
X109659500Y-85638385D01*
X109659500Y-85811614D01*
X109686597Y-85982702D01*
X109686598Y-85982706D01*
X109740123Y-86147438D01*
X109740125Y-86147441D01*
X109805747Y-86276234D01*
X109818768Y-86301788D01*
X109920586Y-86441928D01*
X110043072Y-86564414D01*
X110183212Y-86666232D01*
X110337555Y-86744873D01*
X110337557Y-86744873D01*
X110337558Y-86744874D01*
X110337561Y-86744876D01*
X110502293Y-86798401D01*
X110502297Y-86798402D01*
X110673386Y-86825500D01*
X110673389Y-86825500D01*
X111846614Y-86825500D01*
X112017702Y-86798402D01*
X112017706Y-86798401D01*
X112182438Y-86744876D01*
X112182440Y-86744874D01*
X112182445Y-86744873D01*
X112336788Y-86666232D01*
X112476928Y-86564414D01*
X112599414Y-86441928D01*
X112701232Y-86301788D01*
X112779873Y-86147445D01*
X112779874Y-86147440D01*
X112779876Y-86147438D01*
X112833401Y-85982706D01*
X112833402Y-85982702D01*
X112860500Y-85811614D01*
X112860500Y-85638385D01*
X112833402Y-85467297D01*
X112833401Y-85467293D01*
X112779876Y-85302561D01*
X112779874Y-85302558D01*
X112779873Y-85302557D01*
X112779873Y-85302555D01*
X112701232Y-85148212D01*
X112599414Y-85008072D01*
X112476928Y-84885586D01*
X112336788Y-84783768D01*
X112336787Y-84783767D01*
X112336785Y-84783766D01*
X112182441Y-84705125D01*
X112182438Y-84705123D01*
X112017706Y-84651598D01*
X112017702Y-84651597D01*
X111846614Y-84624500D01*
X111846611Y-84624500D01*
X110673389Y-84624500D01*
X110673386Y-84624500D01*
X110502297Y-84651597D01*
X110502293Y-84651598D01*
X110337561Y-84705123D01*
X110337558Y-84705125D01*
X110183214Y-84783766D01*
X110043073Y-84885585D01*
X109920585Y-85008073D01*
X109818766Y-85148214D01*
X109740125Y-85302558D01*
X109740123Y-85302561D01*
X109686598Y-85467293D01*
X109686597Y-85467297D01*
X109659500Y-85638385D01*
X105605500Y-85638385D01*
X105605500Y-84649061D01*
X105607402Y-84629747D01*
X105612741Y-84602905D01*
X105625499Y-84538767D01*
X105625499Y-84371233D01*
X105592815Y-84206919D01*
X105592813Y-84206915D01*
X105592812Y-84206910D01*
X105559114Y-84125556D01*
X105528704Y-84052137D01*
X105435626Y-83912838D01*
X105317162Y-83794374D01*
X105317161Y-83794373D01*
X103114496Y-81591707D01*
X103086719Y-81537190D01*
X103085500Y-81521703D01*
X103085500Y-75360174D01*
X103104407Y-75301983D01*
X103153907Y-75266019D01*
X103215093Y-75266019D01*
X103229445Y-75271965D01*
X103312746Y-75314409D01*
X103477420Y-75367915D01*
X103648425Y-75395000D01*
X103821575Y-75395000D01*
X103992579Y-75367915D01*
X104157248Y-75314411D01*
X104311523Y-75235804D01*
X104311530Y-75235800D01*
X104317736Y-75231290D01*
X103676300Y-74589854D01*
X103695504Y-74595000D01*
X103774496Y-74595000D01*
X103850796Y-74574556D01*
X103919205Y-74535060D01*
X103975060Y-74479205D01*
X104014556Y-74410796D01*
X104035000Y-74334496D01*
X104035000Y-74294999D01*
X104088553Y-74294999D01*
X104671290Y-74877736D01*
X104675800Y-74871530D01*
X104675804Y-74871523D01*
X104754411Y-74717248D01*
X104807915Y-74552579D01*
X104835000Y-74381575D01*
X104835000Y-74208424D01*
X104807915Y-74037420D01*
X104754411Y-73872751D01*
X104675804Y-73718475D01*
X104675800Y-73718469D01*
X104671290Y-73712262D01*
X104671289Y-73712262D01*
X104088553Y-74294999D01*
X104035000Y-74294999D01*
X104035000Y-74255504D01*
X104014556Y-74179204D01*
X103975060Y-74110795D01*
X103919205Y-74054940D01*
X103850796Y-74015444D01*
X103774496Y-73995000D01*
X103695504Y-73995000D01*
X103676299Y-74000145D01*
X104317736Y-73358708D01*
X104311524Y-73354196D01*
X104157248Y-73275588D01*
X103992579Y-73222084D01*
X103821575Y-73195000D01*
X103648425Y-73195000D01*
X103497096Y-73218968D01*
X103436664Y-73209397D01*
X103393399Y-73166132D01*
X103383828Y-73105700D01*
X103411603Y-73051185D01*
X103530627Y-72932162D01*
X103623704Y-72792863D01*
X103687816Y-72638081D01*
X103690988Y-72622137D01*
X103720500Y-72473767D01*
X103720500Y-70930727D01*
X103739407Y-70872536D01*
X103749490Y-70860729D01*
X103863873Y-70746347D01*
X103984425Y-70580421D01*
X104077537Y-70397678D01*
X104077538Y-70397673D01*
X104077540Y-70397671D01*
X104140915Y-70202625D01*
X104140916Y-70202621D01*
X104173000Y-70000051D01*
X104173000Y-69699948D01*
X104140916Y-69497378D01*
X104140915Y-69497374D01*
X104077540Y-69302328D01*
X104077538Y-69302325D01*
X104077537Y-69302324D01*
X104077537Y-69302322D01*
X103984425Y-69119579D01*
X103863873Y-68953653D01*
X103808670Y-68898450D01*
X103749496Y-68839275D01*
X103721719Y-68784759D01*
X103720500Y-68769272D01*
X103720500Y-67226234D01*
X103720499Y-67226230D01*
X103687816Y-67061918D01*
X103664025Y-67004481D01*
X103648331Y-66966593D01*
X103623705Y-66907139D01*
X103599956Y-66871597D01*
X103530626Y-66767838D01*
X102142162Y-65379373D01*
X102072413Y-65332768D01*
X102002869Y-65286299D01*
X102002858Y-65286293D01*
X101882383Y-65236392D01*
X101882382Y-65236391D01*
X101848082Y-65222184D01*
X101683769Y-65189500D01*
X101683767Y-65189500D01*
X81196233Y-65189500D01*
X81196230Y-65189500D01*
X81031918Y-65222184D01*
X81031916Y-65222184D01*
X80997616Y-65236392D01*
X80877139Y-65286294D01*
X80737838Y-65379373D01*
X77781707Y-68335504D01*
X77727190Y-68363281D01*
X77711703Y-68364500D01*
X74752263Y-68364500D01*
X74694072Y-68345593D01*
X74658108Y-68296093D01*
X74658108Y-68234907D01*
X74694072Y-68185407D01*
X74721671Y-68171345D01*
X74753213Y-68161096D01*
X74942552Y-68064624D01*
X75114464Y-67939722D01*
X75264722Y-67789464D01*
X75389624Y-67617552D01*
X75486095Y-67428215D01*
X75551759Y-67226121D01*
X75582030Y-67035000D01*
X74639146Y-67035000D01*
X74677630Y-66968343D01*
X74710000Y-66847535D01*
X74710000Y-66722465D01*
X74677630Y-66601657D01*
X74639146Y-66535000D01*
X75582030Y-66535000D01*
X75582030Y-66534999D01*
X75551759Y-66343878D01*
X75486095Y-66141784D01*
X75389624Y-65952447D01*
X75264722Y-65780535D01*
X75114464Y-65630277D01*
X74942552Y-65505375D01*
X74753215Y-65408904D01*
X74551120Y-65343240D01*
X74485000Y-65332767D01*
X74485000Y-66380854D01*
X74418343Y-66342370D01*
X74297535Y-66310000D01*
X74172465Y-66310000D01*
X74051657Y-66342370D01*
X73985000Y-66380854D01*
X73985000Y-65332768D01*
X73984999Y-65332767D01*
X73918880Y-65343240D01*
X73918878Y-65343240D01*
X73716784Y-65408904D01*
X73527447Y-65505375D01*
X73355535Y-65630277D01*
X73205277Y-65780535D01*
X73080375Y-65952448D01*
X72989316Y-66131162D01*
X72946051Y-66174427D01*
X72885619Y-66183998D01*
X72831102Y-66156220D01*
X72812896Y-66131162D01*
X72761761Y-66030803D01*
X72754379Y-66020642D01*
X72650690Y-65877927D01*
X72517073Y-65744310D01*
X72364199Y-65633240D01*
X72364198Y-65633239D01*
X72364196Y-65633238D01*
X72195832Y-65547453D01*
X72016113Y-65489058D01*
X71829484Y-65459500D01*
X71829481Y-65459500D01*
X71640519Y-65459500D01*
X71640516Y-65459500D01*
X71453886Y-65489058D01*
X71274167Y-65547453D01*
X71105803Y-65633238D01*
X70952928Y-65744309D01*
X70819309Y-65877928D01*
X70708238Y-66030803D01*
X70622453Y-66199167D01*
X70579155Y-66332425D01*
X70543191Y-66381925D01*
X70485000Y-66400832D01*
X70426809Y-66381925D01*
X70390845Y-66332425D01*
X70361441Y-66241930D01*
X70347547Y-66199168D01*
X70261760Y-66030801D01*
X70150690Y-65877927D01*
X70017073Y-65744310D01*
X69864199Y-65633240D01*
X69864198Y-65633239D01*
X69864196Y-65633238D01*
X69695832Y-65547453D01*
X69516113Y-65489058D01*
X69329484Y-65459500D01*
X69329481Y-65459500D01*
X69140519Y-65459500D01*
X69140516Y-65459500D01*
X68953886Y-65489058D01*
X68774167Y-65547453D01*
X68605803Y-65633238D01*
X68452928Y-65744309D01*
X68319309Y-65877928D01*
X68208238Y-66030803D01*
X68122709Y-66198665D01*
X68079444Y-66241930D01*
X68019012Y-66251501D01*
X67964495Y-66223724D01*
X67936718Y-66169207D01*
X67935499Y-66153720D01*
X67935499Y-66020642D01*
X67935499Y-66020640D01*
X67920044Y-65903238D01*
X67909560Y-65877927D01*
X67859537Y-65757161D01*
X67859537Y-65757160D01*
X67763286Y-65631723D01*
X67763285Y-65631722D01*
X67763282Y-65631718D01*
X67763277Y-65631714D01*
X67763276Y-65631713D01*
X67637838Y-65535462D01*
X67491766Y-65474957D01*
X67491758Y-65474955D01*
X67374361Y-65459500D01*
X66095642Y-65459500D01*
X66095637Y-65459501D01*
X65978241Y-65474955D01*
X65978233Y-65474957D01*
X65832161Y-65535462D01*
X65832160Y-65535462D01*
X65706723Y-65631713D01*
X65706713Y-65631723D01*
X65610462Y-65757160D01*
X65610462Y-65757161D01*
X65549957Y-65903233D01*
X65549955Y-65903241D01*
X65534500Y-66020637D01*
X65534500Y-67549357D01*
X65534501Y-67549362D01*
X65549955Y-67666758D01*
X65549957Y-67666766D01*
X65610462Y-67812838D01*
X65610462Y-67812839D01*
X65647596Y-67861233D01*
X65706718Y-67938282D01*
X65706722Y-67938285D01*
X65706723Y-67938286D01*
X65736082Y-67960813D01*
X65832159Y-68034536D01*
X65832160Y-68034536D01*
X65832161Y-68034537D01*
X65944188Y-68080940D01*
X65978238Y-68095044D01*
X66095639Y-68110500D01*
X67374360Y-68110499D01*
X67491762Y-68095044D01*
X67637841Y-68034536D01*
X67763282Y-67938282D01*
X67859536Y-67812841D01*
X67920044Y-67666762D01*
X67935500Y-67549361D01*
X67935499Y-67416279D01*
X67954406Y-67358091D01*
X68003906Y-67322127D01*
X68065091Y-67322126D01*
X68114591Y-67358090D01*
X68122709Y-67371336D01*
X68208238Y-67539196D01*
X68208240Y-67539199D01*
X68319310Y-67692073D01*
X68452927Y-67825690D01*
X68605801Y-67936760D01*
X68774168Y-68022547D01*
X68953882Y-68080940D01*
X68953883Y-68080940D01*
X68953886Y-68080941D01*
X69140516Y-68110500D01*
X69140519Y-68110500D01*
X69329484Y-68110500D01*
X69516113Y-68080941D01*
X69516114Y-68080940D01*
X69516118Y-68080940D01*
X69695832Y-68022547D01*
X69864199Y-67936760D01*
X70017073Y-67825690D01*
X70150690Y-67692073D01*
X70261760Y-67539199D01*
X70347547Y-67370832D01*
X70390845Y-67237572D01*
X70426809Y-67188074D01*
X70485000Y-67169167D01*
X70543191Y-67188074D01*
X70579154Y-67237572D01*
X70606628Y-67322127D01*
X70622453Y-67370832D01*
X70708237Y-67539195D01*
X70708240Y-67539199D01*
X70819310Y-67692073D01*
X70855505Y-67728268D01*
X70883281Y-67782783D01*
X70884500Y-67798270D01*
X70884500Y-68008769D01*
X70902598Y-68099752D01*
X70904500Y-68119066D01*
X70904500Y-68663767D01*
X70934012Y-68812137D01*
X70934012Y-68812138D01*
X70937183Y-68828077D01*
X70937186Y-68828088D01*
X71001293Y-68982858D01*
X71001299Y-68982869D01*
X71040294Y-69041228D01*
X71094373Y-69122162D01*
X71847838Y-69875627D01*
X71896605Y-69908212D01*
X71987130Y-69968700D01*
X71987134Y-69968702D01*
X71987137Y-69968704D01*
X72096584Y-70014037D01*
X72141918Y-70032816D01*
X72306233Y-70065500D01*
X72306234Y-70065500D01*
X78188766Y-70065500D01*
X78188767Y-70065500D01*
X78353082Y-70032816D01*
X78398411Y-70014038D01*
X78398414Y-70014038D01*
X78458276Y-69989242D01*
X78507863Y-69968704D01*
X78647162Y-69875627D01*
X81603292Y-66919495D01*
X81657809Y-66891719D01*
X81673296Y-66890500D01*
X101206703Y-66890500D01*
X101264894Y-66909407D01*
X101276707Y-66919496D01*
X101990504Y-67633292D01*
X102018281Y-67687809D01*
X102019500Y-67703296D01*
X102019500Y-68769272D01*
X102000593Y-68827463D01*
X101990504Y-68839275D01*
X101876125Y-68953654D01*
X101766266Y-69104862D01*
X101716766Y-69140826D01*
X101655581Y-69140825D01*
X101606081Y-69104861D01*
X101597964Y-69091615D01*
X101572291Y-69041228D01*
X101572291Y-69041227D01*
X101437905Y-68856261D01*
X101276238Y-68694594D01*
X101091273Y-68560209D01*
X100887564Y-68456415D01*
X100670127Y-68385766D01*
X100580000Y-68371490D01*
X100580000Y-69359252D01*
X100542292Y-69337482D01*
X100402409Y-69300000D01*
X100257591Y-69300000D01*
X100117708Y-69337482D01*
X100080000Y-69359252D01*
X100080000Y-68371490D01*
X100079999Y-68371490D01*
X99989872Y-68385766D01*
X99772435Y-68456415D01*
X99568726Y-68560209D01*
X99383757Y-68694597D01*
X99253963Y-68824391D01*
X99199447Y-68852168D01*
X99139015Y-68842596D01*
X99095750Y-68799332D01*
X99085995Y-68768662D01*
X99083073Y-68748607D01*
X99031698Y-68643517D01*
X98948983Y-68560802D01*
X98947770Y-68560209D01*
X98843895Y-68509427D01*
X98816639Y-68505456D01*
X98775760Y-68499500D01*
X96804240Y-68499500D01*
X96770173Y-68504463D01*
X96736104Y-68509427D01*
X96631018Y-68560801D01*
X96548301Y-68643518D01*
X96496927Y-68748604D01*
X96496927Y-68748607D01*
X96487000Y-68816740D01*
X96487000Y-70883260D01*
X96493618Y-70928682D01*
X96496927Y-70951395D01*
X96533868Y-71026958D01*
X96548302Y-71056483D01*
X96631017Y-71139198D01*
X96684785Y-71165483D01*
X96736104Y-71190572D01*
X96736105Y-71190572D01*
X96736107Y-71190573D01*
X96804240Y-71200500D01*
X96840500Y-71200500D01*
X96898691Y-71219407D01*
X96934655Y-71268907D01*
X96939500Y-71299500D01*
X96939500Y-72473769D01*
X96949292Y-72523000D01*
X96969012Y-72622137D01*
X96969012Y-72622138D01*
X96972183Y-72638077D01*
X96972186Y-72638088D01*
X97036293Y-72792858D01*
X97036299Y-72792869D01*
X97092294Y-72876670D01*
X97129373Y-72932162D01*
X97129376Y-72932165D01*
X97248394Y-73051183D01*
X97276171Y-73105700D01*
X97266600Y-73166132D01*
X97223335Y-73209397D01*
X97162903Y-73218968D01*
X97011575Y-73195000D01*
X96838425Y-73195000D01*
X96667420Y-73222084D01*
X96502751Y-73275588D01*
X96348478Y-73354194D01*
X96342262Y-73358708D01*
X96983699Y-74000145D01*
X96964496Y-73995000D01*
X96885504Y-73995000D01*
X96809204Y-74015444D01*
X96740795Y-74054940D01*
X96684940Y-74110795D01*
X96645444Y-74179204D01*
X96625000Y-74255504D01*
X96625000Y-74334496D01*
X96645444Y-74410796D01*
X96684940Y-74479205D01*
X96740795Y-74535060D01*
X96809204Y-74574556D01*
X96885504Y-74595000D01*
X96964496Y-74595000D01*
X96983697Y-74589855D01*
X96342262Y-75231289D01*
X96342262Y-75231290D01*
X96348469Y-75235800D01*
X96348475Y-75235804D01*
X96502751Y-75314411D01*
X96667420Y-75367915D01*
X96838425Y-75395000D01*
X97011575Y-75395000D01*
X97182579Y-75367915D01*
X97347253Y-75314409D01*
X97430555Y-75271965D01*
X97490987Y-75262393D01*
X97545503Y-75290170D01*
X97573281Y-75344687D01*
X97574500Y-75360174D01*
X97574500Y-75806703D01*
X97555593Y-75864894D01*
X97545504Y-75876707D01*
X96196707Y-77225504D01*
X96142190Y-77253281D01*
X96126703Y-77254500D01*
X78656230Y-77254500D01*
X78491918Y-77287184D01*
X78491916Y-77287184D01*
X78446583Y-77305962D01*
X78337141Y-77351293D01*
X78337130Y-77351299D01*
X78197838Y-77444373D01*
X78197834Y-77444376D01*
X77064376Y-78577834D01*
X77064373Y-78577838D01*
X76971299Y-78717130D01*
X76971293Y-78717141D01*
X76927891Y-78821927D01*
X76927891Y-78821928D01*
X76907185Y-78871914D01*
X76907183Y-78871920D01*
X76874500Y-79036230D01*
X76874500Y-85769564D01*
X76855593Y-85827755D01*
X76833692Y-85849656D01*
X76780065Y-85888619D01*
X76618616Y-86050068D01*
X76484424Y-86234766D01*
X76484420Y-86234772D01*
X76380769Y-86438200D01*
X76310214Y-86655344D01*
X76274500Y-86880839D01*
X76274500Y-87109160D01*
X76310214Y-87334655D01*
X76380769Y-87551799D01*
X76484420Y-87755227D01*
X76484424Y-87755233D01*
X76618616Y-87939931D01*
X76618618Y-87939933D01*
X76618621Y-87939937D01*
X76780063Y-88101379D01*
X76780066Y-88101381D01*
X76780068Y-88101383D01*
X76964766Y-88235575D01*
X76964772Y-88235579D01*
X77168201Y-88339231D01*
X77385340Y-88409784D01*
X77385341Y-88409784D01*
X77385344Y-88409785D01*
X77610840Y-88445500D01*
X77610843Y-88445500D01*
X77839160Y-88445500D01*
X78064655Y-88409785D01*
X78064656Y-88409784D01*
X78064660Y-88409784D01*
X78281799Y-88339231D01*
X78485228Y-88235579D01*
X78519558Y-88210636D01*
X78573523Y-88171429D01*
X78669931Y-88101383D01*
X78669937Y-88101379D01*
X78831379Y-87939937D01*
X78965579Y-87755228D01*
X79069231Y-87551799D01*
X79139784Y-87334660D01*
X79140600Y-87329507D01*
X79175500Y-87109160D01*
X79175500Y-86880838D01*
X79175499Y-86880836D01*
X79175473Y-86880667D01*
X79173637Y-86869073D01*
X80125000Y-86869073D01*
X80125000Y-87120926D01*
X80164395Y-87369663D01*
X80242221Y-87609187D01*
X80356556Y-87833582D01*
X80356558Y-87833586D01*
X80430746Y-87935697D01*
X81160386Y-87206056D01*
X81165889Y-87226591D01*
X81244881Y-87363408D01*
X81356592Y-87475119D01*
X81493409Y-87554111D01*
X81513940Y-87559612D01*
X80784301Y-88289252D01*
X80886413Y-88363441D01*
X80886417Y-88363443D01*
X81110812Y-88477778D01*
X81350336Y-88555604D01*
X81599074Y-88595000D01*
X81850926Y-88595000D01*
X82099663Y-88555604D01*
X82339187Y-88477778D01*
X82563580Y-88363444D01*
X82665696Y-88289251D01*
X81936057Y-87559612D01*
X81956591Y-87554111D01*
X82093408Y-87475119D01*
X82205119Y-87363408D01*
X82284111Y-87226591D01*
X82289612Y-87206057D01*
X83019251Y-87935696D01*
X83093444Y-87833580D01*
X83207778Y-87609187D01*
X83285604Y-87369663D01*
X83325000Y-87120926D01*
X83325000Y-86880839D01*
X84274500Y-86880839D01*
X84274500Y-87109160D01*
X84310214Y-87334655D01*
X84380769Y-87551799D01*
X84484420Y-87755227D01*
X84484424Y-87755233D01*
X84618616Y-87939931D01*
X84618618Y-87939933D01*
X84618621Y-87939937D01*
X84780063Y-88101379D01*
X84780066Y-88101381D01*
X84780068Y-88101383D01*
X84964766Y-88235575D01*
X84964772Y-88235579D01*
X85168201Y-88339231D01*
X85385340Y-88409784D01*
X85385341Y-88409784D01*
X85385344Y-88409785D01*
X85610840Y-88445500D01*
X85610843Y-88445500D01*
X85839160Y-88445500D01*
X86064655Y-88409785D01*
X86064656Y-88409784D01*
X86064660Y-88409784D01*
X86281799Y-88339231D01*
X86485228Y-88235579D01*
X86669937Y-88101379D01*
X86831379Y-87939937D01*
X86965579Y-87755228D01*
X87069231Y-87551799D01*
X87139784Y-87334660D01*
X87140600Y-87329507D01*
X87175500Y-87109160D01*
X87175500Y-86880839D01*
X88274500Y-86880839D01*
X88274500Y-87109160D01*
X88310214Y-87334655D01*
X88380769Y-87551799D01*
X88484420Y-87755227D01*
X88484424Y-87755233D01*
X88618616Y-87939931D01*
X88618618Y-87939933D01*
X88618621Y-87939937D01*
X88780063Y-88101379D01*
X88780066Y-88101381D01*
X88780068Y-88101383D01*
X88964766Y-88235575D01*
X88964772Y-88235579D01*
X89168201Y-88339231D01*
X89385340Y-88409784D01*
X89385341Y-88409784D01*
X89385344Y-88409785D01*
X89610840Y-88445500D01*
X89610843Y-88445500D01*
X89839160Y-88445500D01*
X90064655Y-88409785D01*
X90064656Y-88409784D01*
X90064660Y-88409784D01*
X90281799Y-88339231D01*
X90485228Y-88235579D01*
X90669937Y-88101379D01*
X90831379Y-87939937D01*
X90965579Y-87755228D01*
X91069231Y-87551799D01*
X91139784Y-87334660D01*
X91140600Y-87329507D01*
X91175500Y-87109160D01*
X91175500Y-86880839D01*
X92274500Y-86880839D01*
X92274500Y-87109160D01*
X92310214Y-87334655D01*
X92380769Y-87551799D01*
X92484420Y-87755227D01*
X92484424Y-87755233D01*
X92618616Y-87939931D01*
X92618618Y-87939933D01*
X92618621Y-87939937D01*
X92780063Y-88101379D01*
X92780066Y-88101381D01*
X92780068Y-88101383D01*
X92964766Y-88235575D01*
X92964772Y-88235579D01*
X93168201Y-88339231D01*
X93385340Y-88409784D01*
X93385341Y-88409784D01*
X93385344Y-88409785D01*
X93610840Y-88445500D01*
X93610843Y-88445500D01*
X93839160Y-88445500D01*
X94064655Y-88409785D01*
X94064656Y-88409784D01*
X94064660Y-88409784D01*
X94281799Y-88339231D01*
X94485228Y-88235579D01*
X94669937Y-88101379D01*
X94831379Y-87939937D01*
X94965579Y-87755228D01*
X95069231Y-87551799D01*
X95139784Y-87334660D01*
X95140600Y-87329507D01*
X95175500Y-87109160D01*
X95175500Y-86880839D01*
X96274500Y-86880839D01*
X96274500Y-87109160D01*
X96310214Y-87334655D01*
X96380769Y-87551799D01*
X96484420Y-87755227D01*
X96484424Y-87755233D01*
X96618616Y-87939931D01*
X96618618Y-87939933D01*
X96618621Y-87939937D01*
X96780063Y-88101379D01*
X96780066Y-88101381D01*
X96780068Y-88101383D01*
X96964766Y-88235575D01*
X96964772Y-88235579D01*
X97168201Y-88339231D01*
X97385340Y-88409784D01*
X97385341Y-88409784D01*
X97385344Y-88409785D01*
X97610840Y-88445500D01*
X97610843Y-88445500D01*
X97839160Y-88445500D01*
X98064655Y-88409785D01*
X98064656Y-88409784D01*
X98064660Y-88409784D01*
X98281799Y-88339231D01*
X98485228Y-88235579D01*
X98669937Y-88101379D01*
X98831379Y-87939937D01*
X98965579Y-87755228D01*
X99069231Y-87551799D01*
X99139784Y-87334660D01*
X99140600Y-87329507D01*
X99175500Y-87109160D01*
X99175500Y-86880839D01*
X100274500Y-86880839D01*
X100274500Y-87109160D01*
X100310214Y-87334655D01*
X100380769Y-87551799D01*
X100484420Y-87755227D01*
X100484424Y-87755233D01*
X100618616Y-87939931D01*
X100618618Y-87939933D01*
X100618621Y-87939937D01*
X100780063Y-88101379D01*
X100780066Y-88101381D01*
X100780068Y-88101383D01*
X100964766Y-88235575D01*
X100964772Y-88235579D01*
X101168201Y-88339231D01*
X101385340Y-88409784D01*
X101385341Y-88409784D01*
X101385344Y-88409785D01*
X101610840Y-88445500D01*
X101610843Y-88445500D01*
X101839160Y-88445500D01*
X102064655Y-88409785D01*
X102064656Y-88409784D01*
X102064660Y-88409784D01*
X102281799Y-88339231D01*
X102485228Y-88235579D01*
X102669937Y-88101379D01*
X102831379Y-87939937D01*
X102965579Y-87755228D01*
X103069231Y-87551799D01*
X103139784Y-87334660D01*
X103140600Y-87329507D01*
X103175500Y-87109160D01*
X103175500Y-86880839D01*
X103139785Y-86655344D01*
X103128410Y-86620336D01*
X103069231Y-86438201D01*
X102965579Y-86234772D01*
X102908651Y-86156418D01*
X102831383Y-86050068D01*
X102831381Y-86050066D01*
X102831379Y-86050063D01*
X102669937Y-85888621D01*
X102669933Y-85888618D01*
X102669931Y-85888616D01*
X102485233Y-85754424D01*
X102485227Y-85754420D01*
X102281799Y-85650769D01*
X102064655Y-85580214D01*
X101839160Y-85544500D01*
X101839157Y-85544500D01*
X101610843Y-85544500D01*
X101610840Y-85544500D01*
X101385344Y-85580214D01*
X101168200Y-85650769D01*
X100964772Y-85754420D01*
X100964766Y-85754424D01*
X100780068Y-85888616D01*
X100618616Y-86050068D01*
X100484424Y-86234766D01*
X100484420Y-86234772D01*
X100380769Y-86438200D01*
X100310214Y-86655344D01*
X100274500Y-86880839D01*
X99175500Y-86880839D01*
X99139785Y-86655344D01*
X99128410Y-86620336D01*
X99069231Y-86438201D01*
X98965579Y-86234772D01*
X98908651Y-86156418D01*
X98831383Y-86050068D01*
X98831381Y-86050066D01*
X98831379Y-86050063D01*
X98669937Y-85888621D01*
X98669933Y-85888618D01*
X98669931Y-85888616D01*
X98485233Y-85754424D01*
X98485227Y-85754420D01*
X98281799Y-85650769D01*
X98064655Y-85580214D01*
X97839160Y-85544500D01*
X97839157Y-85544500D01*
X97610843Y-85544500D01*
X97610840Y-85544500D01*
X97385344Y-85580214D01*
X97168200Y-85650769D01*
X96964772Y-85754420D01*
X96964766Y-85754424D01*
X96780068Y-85888616D01*
X96618616Y-86050068D01*
X96484424Y-86234766D01*
X96484420Y-86234772D01*
X96380769Y-86438200D01*
X96310214Y-86655344D01*
X96274500Y-86880839D01*
X95175500Y-86880839D01*
X95139785Y-86655344D01*
X95128410Y-86620336D01*
X95069231Y-86438201D01*
X94965579Y-86234772D01*
X94908651Y-86156418D01*
X94831383Y-86050068D01*
X94831381Y-86050066D01*
X94831379Y-86050063D01*
X94669937Y-85888621D01*
X94669933Y-85888618D01*
X94669931Y-85888616D01*
X94485233Y-85754424D01*
X94485227Y-85754420D01*
X94281799Y-85650769D01*
X94064655Y-85580214D01*
X93839160Y-85544500D01*
X93839157Y-85544500D01*
X93610843Y-85544500D01*
X93610840Y-85544500D01*
X93385344Y-85580214D01*
X93168200Y-85650769D01*
X92964772Y-85754420D01*
X92964766Y-85754424D01*
X92780068Y-85888616D01*
X92618616Y-86050068D01*
X92484424Y-86234766D01*
X92484420Y-86234772D01*
X92380769Y-86438200D01*
X92310214Y-86655344D01*
X92274500Y-86880839D01*
X91175500Y-86880839D01*
X91139785Y-86655344D01*
X91128410Y-86620336D01*
X91069231Y-86438201D01*
X90965579Y-86234772D01*
X90908651Y-86156418D01*
X90831383Y-86050068D01*
X90831381Y-86050066D01*
X90831379Y-86050063D01*
X90669937Y-85888621D01*
X90669933Y-85888618D01*
X90669931Y-85888616D01*
X90485233Y-85754424D01*
X90485227Y-85754420D01*
X90281799Y-85650769D01*
X90064655Y-85580214D01*
X89839160Y-85544500D01*
X89839157Y-85544500D01*
X89610843Y-85544500D01*
X89610840Y-85544500D01*
X89385344Y-85580214D01*
X89168200Y-85650769D01*
X88964772Y-85754420D01*
X88964766Y-85754424D01*
X88780068Y-85888616D01*
X88618616Y-86050068D01*
X88484424Y-86234766D01*
X88484420Y-86234772D01*
X88380769Y-86438200D01*
X88310214Y-86655344D01*
X88274500Y-86880839D01*
X87175500Y-86880839D01*
X87139785Y-86655344D01*
X87128410Y-86620336D01*
X87069231Y-86438201D01*
X86965579Y-86234772D01*
X86908651Y-86156418D01*
X86831383Y-86050068D01*
X86831381Y-86050066D01*
X86831379Y-86050063D01*
X86669937Y-85888621D01*
X86669933Y-85888618D01*
X86669931Y-85888616D01*
X86485233Y-85754424D01*
X86485227Y-85754420D01*
X86281799Y-85650769D01*
X86064655Y-85580214D01*
X85839160Y-85544500D01*
X85839157Y-85544500D01*
X85610843Y-85544500D01*
X85610840Y-85544500D01*
X85385344Y-85580214D01*
X85168200Y-85650769D01*
X84964772Y-85754420D01*
X84964766Y-85754424D01*
X84780068Y-85888616D01*
X84618616Y-86050068D01*
X84484424Y-86234766D01*
X84484420Y-86234772D01*
X84380769Y-86438200D01*
X84310214Y-86655344D01*
X84274500Y-86880839D01*
X83325000Y-86880839D01*
X83325000Y-86869073D01*
X83285604Y-86620336D01*
X83207778Y-86380812D01*
X83093443Y-86156417D01*
X83093441Y-86156413D01*
X83019252Y-86054301D01*
X82289612Y-86783940D01*
X82284111Y-86763409D01*
X82205119Y-86626592D01*
X82093408Y-86514881D01*
X81956591Y-86435889D01*
X81936056Y-86430386D01*
X82665697Y-85700746D01*
X82563586Y-85626558D01*
X82563582Y-85626556D01*
X82339187Y-85512221D01*
X82099663Y-85434395D01*
X81850926Y-85395000D01*
X81599074Y-85395000D01*
X81350336Y-85434395D01*
X81110812Y-85512221D01*
X80886418Y-85626556D01*
X80784301Y-85700746D01*
X81513942Y-86430387D01*
X81493409Y-86435889D01*
X81356592Y-86514881D01*
X81244881Y-86626592D01*
X81165889Y-86763409D01*
X81160387Y-86783942D01*
X80430746Y-86054301D01*
X80356556Y-86156418D01*
X80242221Y-86380812D01*
X80164395Y-86620336D01*
X80125000Y-86869073D01*
X79173637Y-86869073D01*
X79139785Y-86655344D01*
X79128410Y-86620336D01*
X79069231Y-86438201D01*
X78965579Y-86234772D01*
X78908651Y-86156418D01*
X78831383Y-86050068D01*
X78831381Y-86050066D01*
X78831379Y-86050063D01*
X78669937Y-85888621D01*
X78653227Y-85876480D01*
X78616308Y-85849656D01*
X78607092Y-85836971D01*
X78594407Y-85827755D01*
X78589561Y-85812840D01*
X78580345Y-85800155D01*
X78575500Y-85769564D01*
X78575500Y-83245000D01*
X82743991Y-83245000D01*
X83741988Y-83245000D01*
X83709075Y-83302007D01*
X83675000Y-83429174D01*
X83675000Y-83560826D01*
X83709075Y-83687993D01*
X83741988Y-83745000D01*
X82743991Y-83745000D01*
X82758264Y-83835123D01*
X82828916Y-84052566D01*
X82932709Y-84256273D01*
X83067094Y-84441238D01*
X83228761Y-84602905D01*
X83413726Y-84737290D01*
X83617433Y-84841083D01*
X83834876Y-84911735D01*
X84060683Y-84947500D01*
X85474999Y-84947500D01*
X85475000Y-84947499D01*
X85475000Y-83995000D01*
X85975000Y-83995000D01*
X85975000Y-84947499D01*
X85975001Y-84947500D01*
X87389317Y-84947500D01*
X87615123Y-84911735D01*
X87832566Y-84841083D01*
X88036273Y-84737290D01*
X88221238Y-84602905D01*
X88382905Y-84441238D01*
X88517290Y-84256273D01*
X88621083Y-84052566D01*
X88691735Y-83835123D01*
X88706009Y-83745000D01*
X87708012Y-83745000D01*
X87740925Y-83687993D01*
X87775000Y-83560826D01*
X87775000Y-83429174D01*
X87740925Y-83302007D01*
X87708012Y-83245000D01*
X88706009Y-83245000D01*
X88691735Y-83154876D01*
X88621083Y-82937433D01*
X88517290Y-82733726D01*
X88382905Y-82548761D01*
X88221238Y-82387094D01*
X88036273Y-82252709D01*
X87832566Y-82148916D01*
X87615123Y-82078264D01*
X87389317Y-82042500D01*
X85975001Y-82042500D01*
X85975000Y-82042501D01*
X85975000Y-82995000D01*
X85475000Y-82995000D01*
X85475000Y-82042501D01*
X85474999Y-82042500D01*
X84060683Y-82042500D01*
X83834876Y-82078264D01*
X83617433Y-82148916D01*
X83413726Y-82252709D01*
X83228761Y-82387094D01*
X83067094Y-82548761D01*
X82932709Y-82733726D01*
X82828916Y-82937433D01*
X82758264Y-83154876D01*
X82743991Y-83245000D01*
X78575500Y-83245000D01*
X78575500Y-79513297D01*
X78594407Y-79455106D01*
X78604496Y-79443293D01*
X79063293Y-78984496D01*
X79117810Y-78956719D01*
X79133297Y-78955500D01*
X96603766Y-78955500D01*
X96603767Y-78955500D01*
X96768082Y-78922816D01*
X96813411Y-78904038D01*
X96813414Y-78904038D01*
X96890970Y-78871914D01*
X96922863Y-78858704D01*
X97062162Y-78765627D01*
X99085627Y-76742162D01*
X99178704Y-76602863D01*
X99242816Y-76448081D01*
X99275500Y-76283767D01*
X99275500Y-76116233D01*
X99275500Y-75012771D01*
X99294407Y-74954580D01*
X99295960Y-74952501D01*
X99299536Y-74947841D01*
X99360044Y-74801762D01*
X99375500Y-74684361D01*
X99375499Y-73905640D01*
X99360044Y-73788238D01*
X99299536Y-73642159D01*
X99299534Y-73642154D01*
X99295955Y-73637490D01*
X99275534Y-73579814D01*
X99275500Y-73577227D01*
X99275500Y-72941234D01*
X99275499Y-72941230D01*
X99274933Y-72938385D01*
X99242816Y-72776918D01*
X99224037Y-72731584D01*
X99178704Y-72622137D01*
X99178702Y-72622134D01*
X99178700Y-72622130D01*
X99141117Y-72565884D01*
X99085627Y-72482838D01*
X98669496Y-72066707D01*
X98641719Y-72012190D01*
X98640500Y-71996703D01*
X98640500Y-71299500D01*
X98659407Y-71241309D01*
X98708907Y-71205345D01*
X98739500Y-71200500D01*
X98775757Y-71200500D01*
X98775760Y-71200500D01*
X98843893Y-71190573D01*
X98948983Y-71139198D01*
X99031698Y-71056483D01*
X99083073Y-70951393D01*
X99085995Y-70931337D01*
X99113093Y-70876483D01*
X99167260Y-70848031D01*
X99227806Y-70856851D01*
X99253964Y-70875608D01*
X99383761Y-71005405D01*
X99568726Y-71139790D01*
X99772433Y-71243583D01*
X99989876Y-71314235D01*
X100080000Y-71328509D01*
X100080000Y-70340747D01*
X100117708Y-70362518D01*
X100257591Y-70400000D01*
X100402409Y-70400000D01*
X100542292Y-70362518D01*
X100580000Y-70340747D01*
X100580000Y-71328508D01*
X100670123Y-71314235D01*
X100887566Y-71243583D01*
X101091273Y-71139790D01*
X101276238Y-71005405D01*
X101437905Y-70843738D01*
X101572289Y-70658774D01*
X101597963Y-70608385D01*
X101641227Y-70565119D01*
X101701659Y-70555547D01*
X101756176Y-70583323D01*
X101766265Y-70595135D01*
X101876127Y-70746347D01*
X101990505Y-70860725D01*
X102018281Y-70915240D01*
X102019500Y-70930727D01*
X102019500Y-71996703D01*
X102000593Y-72054894D01*
X101990504Y-72066707D01*
X101574376Y-72482834D01*
X101574373Y-72482838D01*
X101481299Y-72622130D01*
X101481293Y-72622141D01*
X101435962Y-72731583D01*
X101417184Y-72776916D01*
X101417184Y-72776918D01*
X101384500Y-72941230D01*
X101384500Y-73577227D01*
X101365593Y-73635418D01*
X101364045Y-73637490D01*
X101360465Y-73642154D01*
X101299957Y-73788236D01*
X101299955Y-73788241D01*
X101284500Y-73905637D01*
X101284500Y-74684357D01*
X101284501Y-74684362D01*
X101299955Y-74801758D01*
X101299957Y-74801766D01*
X101360462Y-74947838D01*
X101360463Y-74947839D01*
X101360464Y-74947841D01*
X101364040Y-74952501D01*
X101384466Y-75010176D01*
X101384500Y-75012771D01*
X101384500Y-81831233D01*
X101384500Y-81998767D01*
X101414366Y-82148916D01*
X101417184Y-82163080D01*
X101417184Y-82163082D01*
X101481293Y-82317858D01*
X101481299Y-82317869D01*
X101527555Y-82387094D01*
X101574373Y-82457162D01*
X101574375Y-82457164D01*
X101574376Y-82457165D01*
X103875504Y-84758292D01*
X103903281Y-84812809D01*
X103904500Y-84828296D01*
X103904500Y-105776729D01*
X103885593Y-105834920D01*
X103875504Y-105846732D01*
X103839312Y-105882924D01*
X103728238Y-106035803D01*
X103642453Y-106204167D01*
X103599155Y-106337425D01*
X103563191Y-106386925D01*
X103505000Y-106405832D01*
X103446809Y-106386925D01*
X103410845Y-106337425D01*
X103381441Y-106246930D01*
X103367547Y-106204168D01*
X103281760Y-106035801D01*
X103170690Y-105882927D01*
X103037073Y-105749310D01*
X102884199Y-105638240D01*
X102884198Y-105638239D01*
X102884196Y-105638238D01*
X102715832Y-105552453D01*
X102536113Y-105494058D01*
X102349484Y-105464500D01*
X102349481Y-105464500D01*
X102160519Y-105464500D01*
X102160516Y-105464500D01*
X101973886Y-105494058D01*
X101794167Y-105552453D01*
X101625803Y-105638238D01*
X101472928Y-105749309D01*
X101339309Y-105882928D01*
X101228238Y-106035803D01*
X101142709Y-106203665D01*
X101099444Y-106246930D01*
X101039012Y-106256501D01*
X100984495Y-106228724D01*
X100956718Y-106174207D01*
X100955499Y-106158720D01*
X100955499Y-106025642D01*
X100955499Y-106025640D01*
X100940044Y-105908238D01*
X100879537Y-105762161D01*
X100879537Y-105762160D01*
X100783286Y-105636723D01*
X100783285Y-105636722D01*
X100783282Y-105636718D01*
X100783277Y-105636714D01*
X100783276Y-105636713D01*
X100657838Y-105540462D01*
X100511766Y-105479957D01*
X100511758Y-105479955D01*
X100394361Y-105464500D01*
X99115642Y-105464500D01*
X99115637Y-105464501D01*
X98998241Y-105479955D01*
X98998233Y-105479957D01*
X98852161Y-105540462D01*
X98852160Y-105540462D01*
X98726723Y-105636713D01*
X98726713Y-105636723D01*
X98630462Y-105762160D01*
X98630462Y-105762161D01*
X98569957Y-105908233D01*
X98569955Y-105908241D01*
X98554500Y-106025637D01*
X98554500Y-107554357D01*
X98554501Y-107554362D01*
X98569955Y-107671758D01*
X98569957Y-107671766D01*
X98630462Y-107817838D01*
X98630462Y-107817839D01*
X98640323Y-107830690D01*
X98726718Y-107943282D01*
X98726722Y-107943285D01*
X98726723Y-107943286D01*
X98756082Y-107965813D01*
X98852159Y-108039536D01*
X98852160Y-108039536D01*
X98852161Y-108039537D01*
X98964188Y-108085940D01*
X98998238Y-108100044D01*
X99115639Y-108115500D01*
X100394360Y-108115499D01*
X100511762Y-108100044D01*
X100657841Y-108039536D01*
X100783282Y-107943282D01*
X100879536Y-107817841D01*
X100940044Y-107671762D01*
X100955500Y-107554361D01*
X100955499Y-107421279D01*
X100974406Y-107363091D01*
X101023906Y-107327127D01*
X101085091Y-107327126D01*
X101134591Y-107363090D01*
X101142709Y-107376336D01*
X101228238Y-107544196D01*
X101228240Y-107544199D01*
X101339310Y-107697073D01*
X101472927Y-107830690D01*
X101625801Y-107941760D01*
X101794168Y-108027547D01*
X101973882Y-108085940D01*
X101973883Y-108085940D01*
X101973886Y-108085941D01*
X102160516Y-108115500D01*
X102160519Y-108115500D01*
X102349484Y-108115500D01*
X102536113Y-108085941D01*
X102536114Y-108085940D01*
X102536118Y-108085940D01*
X102715832Y-108027547D01*
X102884199Y-107941760D01*
X103037073Y-107830690D01*
X103170690Y-107697073D01*
X103281760Y-107544199D01*
X103367547Y-107375832D01*
X103410845Y-107242572D01*
X103446809Y-107193074D01*
X103505000Y-107174167D01*
X103563191Y-107193074D01*
X103599154Y-107242572D01*
X103626628Y-107327127D01*
X103642453Y-107375832D01*
X103728237Y-107544195D01*
X103728240Y-107544199D01*
X103839310Y-107697073D01*
X103875505Y-107733268D01*
X103903281Y-107787783D01*
X103904500Y-107803270D01*
X103904500Y-110810500D01*
X103885593Y-110868691D01*
X103836093Y-110904655D01*
X103805500Y-110909500D01*
X90464500Y-110909500D01*
X90406309Y-110890593D01*
X90370345Y-110841093D01*
X90365500Y-110810500D01*
X90365500Y-107803270D01*
X90384407Y-107745079D01*
X90394490Y-107733272D01*
X90430690Y-107697073D01*
X90541760Y-107544199D01*
X90592896Y-107443837D01*
X90636160Y-107400573D01*
X90696592Y-107391001D01*
X90751109Y-107418778D01*
X90769316Y-107443837D01*
X90860375Y-107622551D01*
X90985277Y-107794464D01*
X91135535Y-107944722D01*
X91307447Y-108069624D01*
X91496784Y-108166095D01*
X91698877Y-108231758D01*
X91764999Y-108242231D01*
X91765000Y-108242230D01*
X91765000Y-107194145D01*
X91831657Y-107232630D01*
X91952465Y-107265000D01*
X92077535Y-107265000D01*
X92198343Y-107232630D01*
X92265000Y-107194145D01*
X92265000Y-108242231D01*
X92331122Y-108231758D01*
X92533215Y-108166095D01*
X92722552Y-108069624D01*
X92894464Y-107944722D01*
X93044722Y-107794464D01*
X93169624Y-107622552D01*
X93266095Y-107433215D01*
X93331759Y-107231121D01*
X93362030Y-107040000D01*
X92419146Y-107040000D01*
X92457630Y-106973343D01*
X92490000Y-106852535D01*
X92490000Y-106727465D01*
X92457630Y-106606657D01*
X92419146Y-106540000D01*
X93362030Y-106540000D01*
X93362030Y-106539999D01*
X93331759Y-106348878D01*
X93266095Y-106146784D01*
X93169624Y-105957447D01*
X93044722Y-105785535D01*
X92894464Y-105635277D01*
X92722552Y-105510375D01*
X92533215Y-105413904D01*
X92331120Y-105348240D01*
X92265000Y-105337767D01*
X92265000Y-106385854D01*
X92198343Y-106347370D01*
X92077535Y-106315000D01*
X91952465Y-106315000D01*
X91831657Y-106347370D01*
X91765000Y-106385854D01*
X91765000Y-105337768D01*
X91764999Y-105337767D01*
X91698880Y-105348240D01*
X91698878Y-105348240D01*
X91496784Y-105413904D01*
X91307447Y-105510375D01*
X91135535Y-105635277D01*
X90985277Y-105785535D01*
X90860375Y-105957448D01*
X90769316Y-106136162D01*
X90726051Y-106179427D01*
X90665619Y-106188998D01*
X90611102Y-106161220D01*
X90592896Y-106136162D01*
X90541761Y-106035803D01*
X90534379Y-106025642D01*
X90430690Y-105882927D01*
X90430687Y-105882924D01*
X90394496Y-105846732D01*
X90366719Y-105792215D01*
X90365500Y-105776729D01*
X90365500Y-98938270D01*
X90384407Y-98880079D01*
X90394490Y-98868272D01*
X90430690Y-98832073D01*
X90541760Y-98679199D01*
X90627547Y-98510832D01*
X90685940Y-98331118D01*
X90715500Y-98144481D01*
X90715500Y-97655519D01*
X90715500Y-97655515D01*
X90685941Y-97468886D01*
X90674630Y-97434075D01*
X90627547Y-97289168D01*
X90541760Y-97120801D01*
X90430690Y-96967927D01*
X90297073Y-96834310D01*
X90144199Y-96723240D01*
X90144198Y-96723239D01*
X90144196Y-96723238D01*
X89975832Y-96637453D01*
X89796113Y-96579058D01*
X89609484Y-96549500D01*
X89609481Y-96549500D01*
X89420519Y-96549500D01*
X89420516Y-96549500D01*
X89233886Y-96579058D01*
X89054167Y-96637453D01*
X88885803Y-96723238D01*
X88732928Y-96834309D01*
X88599305Y-96967932D01*
X88534307Y-97057394D01*
X88484807Y-97093358D01*
X88423622Y-97093357D01*
X88374122Y-97057393D01*
X88355728Y-97009264D01*
X88354507Y-96997311D01*
X88354504Y-96997300D01*
X88299356Y-96830875D01*
X88207319Y-96681659D01*
X88083340Y-96557680D01*
X87934124Y-96465643D01*
X87767693Y-96410493D01*
X87664987Y-96400000D01*
X87265001Y-96400000D01*
X87265000Y-96400001D01*
X87265000Y-97466988D01*
X87207993Y-97434075D01*
X87080826Y-97400000D01*
X86949174Y-97400000D01*
X86822007Y-97434075D01*
X86765000Y-97466988D01*
X86765000Y-96400001D01*
X86764999Y-96400000D01*
X86365013Y-96400000D01*
X86262312Y-96410492D01*
X86262300Y-96410495D01*
X86095875Y-96465643D01*
X85946659Y-96557680D01*
X85822680Y-96681659D01*
X85730643Y-96830875D01*
X85675493Y-96997306D01*
X85665000Y-97100012D01*
X85665000Y-97649999D01*
X85665001Y-97650000D01*
X86581988Y-97650000D01*
X86549075Y-97707007D01*
X86515000Y-97834174D01*
X86515000Y-97965826D01*
X86549075Y-98092993D01*
X86581988Y-98150000D01*
X85665002Y-98150000D01*
X85665001Y-98150001D01*
X85665001Y-98699986D01*
X85675492Y-98802687D01*
X85675495Y-98802699D01*
X85730643Y-98969124D01*
X85822680Y-99118340D01*
X85946659Y-99242319D01*
X86095875Y-99334356D01*
X86262306Y-99389506D01*
X86365012Y-99399999D01*
X86764998Y-99399999D01*
X86765000Y-99399998D01*
X86765000Y-98333012D01*
X86822007Y-98365925D01*
X86949174Y-98400000D01*
X87080826Y-98400000D01*
X87207993Y-98365925D01*
X87265000Y-98333012D01*
X87265000Y-99399998D01*
X87265001Y-99399999D01*
X87664986Y-99399999D01*
X87767687Y-99389507D01*
X87767699Y-99389504D01*
X87934124Y-99334356D01*
X88083340Y-99242319D01*
X88207319Y-99118340D01*
X88299356Y-98969124D01*
X88354505Y-98802697D01*
X88355727Y-98790737D01*
X88365154Y-98769395D01*
X88371196Y-98746862D01*
X88377285Y-98741932D01*
X88380450Y-98734768D01*
X88400618Y-98723044D01*
X88418753Y-98708365D01*
X88426575Y-98707956D01*
X88433348Y-98704020D01*
X88456558Y-98706390D01*
X88479855Y-98705174D01*
X88485999Y-98709397D01*
X88494216Y-98710237D01*
X88531163Y-98738507D01*
X88532792Y-98740520D01*
X88599310Y-98832073D01*
X88639176Y-98871939D01*
X88642448Y-98875981D01*
X88651634Y-98899924D01*
X88663281Y-98922783D01*
X88664023Y-98932215D01*
X88664365Y-98933106D01*
X88664155Y-98933888D01*
X88664500Y-98938270D01*
X88664500Y-105776729D01*
X88645593Y-105834920D01*
X88635504Y-105846732D01*
X88599312Y-105882924D01*
X88488238Y-106035803D01*
X88402453Y-106204167D01*
X88359155Y-106337425D01*
X88323191Y-106386925D01*
X88265000Y-106405832D01*
X88206809Y-106386925D01*
X88170845Y-106337425D01*
X88141441Y-106246930D01*
X88127547Y-106204168D01*
X88041760Y-106035801D01*
X87930690Y-105882927D01*
X87797073Y-105749310D01*
X87644199Y-105638240D01*
X87644198Y-105638239D01*
X87644196Y-105638238D01*
X87475832Y-105552453D01*
X87296113Y-105494058D01*
X87109484Y-105464500D01*
X87109481Y-105464500D01*
X86920519Y-105464500D01*
X86920516Y-105464500D01*
X86733886Y-105494058D01*
X86554167Y-105552453D01*
X86385803Y-105638238D01*
X86232928Y-105749309D01*
X86099309Y-105882928D01*
X85988238Y-106035803D01*
X85902709Y-106203665D01*
X85859444Y-106246930D01*
X85799012Y-106256501D01*
X85744495Y-106228724D01*
X85716718Y-106174207D01*
X85715499Y-106158720D01*
X85715499Y-106025642D01*
X85715499Y-106025640D01*
X85700044Y-105908238D01*
X85639537Y-105762161D01*
X85639537Y-105762160D01*
X85543286Y-105636723D01*
X85543285Y-105636722D01*
X85543282Y-105636718D01*
X85543277Y-105636714D01*
X85543276Y-105636713D01*
X85417838Y-105540462D01*
X85271766Y-105479957D01*
X85271758Y-105479955D01*
X85154361Y-105464500D01*
X83875642Y-105464500D01*
X83875637Y-105464501D01*
X83758241Y-105479955D01*
X83758233Y-105479957D01*
X83612161Y-105540462D01*
X83612160Y-105540462D01*
X83486723Y-105636713D01*
X83486713Y-105636723D01*
X83390462Y-105762160D01*
X83390462Y-105762161D01*
X83329957Y-105908233D01*
X83329955Y-105908241D01*
X83314500Y-106025637D01*
X83314500Y-107554357D01*
X83314501Y-107554362D01*
X83329955Y-107671758D01*
X83329957Y-107671766D01*
X83390462Y-107817838D01*
X83390462Y-107817839D01*
X83400323Y-107830690D01*
X83486718Y-107943282D01*
X83486722Y-107943285D01*
X83486723Y-107943286D01*
X83516082Y-107965813D01*
X83612159Y-108039536D01*
X83612160Y-108039536D01*
X83612161Y-108039537D01*
X83724188Y-108085940D01*
X83758238Y-108100044D01*
X83875639Y-108115500D01*
X85154360Y-108115499D01*
X85271762Y-108100044D01*
X85417841Y-108039536D01*
X85543282Y-107943282D01*
X85639536Y-107817841D01*
X85700044Y-107671762D01*
X85715500Y-107554361D01*
X85715499Y-107421279D01*
X85734406Y-107363091D01*
X85783906Y-107327127D01*
X85845091Y-107327126D01*
X85894591Y-107363090D01*
X85902709Y-107376336D01*
X85988238Y-107544196D01*
X85988240Y-107544199D01*
X86099310Y-107697073D01*
X86232927Y-107830690D01*
X86385801Y-107941760D01*
X86554168Y-108027547D01*
X86733882Y-108085940D01*
X86733883Y-108085940D01*
X86733886Y-108085941D01*
X86920516Y-108115500D01*
X86920519Y-108115500D01*
X87109484Y-108115500D01*
X87296113Y-108085941D01*
X87296114Y-108085940D01*
X87296118Y-108085940D01*
X87475832Y-108027547D01*
X87644199Y-107941760D01*
X87797073Y-107830690D01*
X87930690Y-107697073D01*
X88041760Y-107544199D01*
X88127547Y-107375832D01*
X88170845Y-107242572D01*
X88206809Y-107193074D01*
X88265000Y-107174167D01*
X88323191Y-107193074D01*
X88359154Y-107242572D01*
X88386628Y-107327127D01*
X88402453Y-107375832D01*
X88488237Y-107544195D01*
X88488240Y-107544199D01*
X88599310Y-107697073D01*
X88635505Y-107733268D01*
X88663281Y-107787783D01*
X88664500Y-107803270D01*
X88664500Y-110810500D01*
X88645593Y-110868691D01*
X88596093Y-110904655D01*
X88565500Y-110909500D01*
X83101230Y-110909500D01*
X82936919Y-110942183D01*
X82782138Y-111006296D01*
X82782137Y-111006296D01*
X82642838Y-111099374D01*
X82642834Y-111099377D01*
X81234376Y-112507834D01*
X81234373Y-112507838D01*
X81141299Y-112647130D01*
X81141293Y-112647141D01*
X81095962Y-112756583D01*
X81077184Y-112801916D01*
X81077184Y-112801918D01*
X81044500Y-112966230D01*
X81044500Y-114666729D01*
X81025593Y-114724920D01*
X81015504Y-114736732D01*
X80979312Y-114772924D01*
X80868238Y-114925803D01*
X80782453Y-115094167D01*
X80739155Y-115227425D01*
X80703191Y-115276925D01*
X80645000Y-115295832D01*
X80586809Y-115276925D01*
X80550845Y-115227425D01*
X80521441Y-115136930D01*
X80507547Y-115094168D01*
X80421760Y-114925801D01*
X80310690Y-114772927D01*
X80177073Y-114639310D01*
X80024199Y-114528240D01*
X80024198Y-114528239D01*
X80024196Y-114528238D01*
X79855832Y-114442453D01*
X79676113Y-114384058D01*
X79489484Y-114354500D01*
X79489481Y-114354500D01*
X79300519Y-114354500D01*
X79300516Y-114354500D01*
X79113886Y-114384058D01*
X78934167Y-114442453D01*
X78765803Y-114528238D01*
X78612928Y-114639309D01*
X78479309Y-114772928D01*
X78368238Y-114925803D01*
X78282709Y-115093665D01*
X78239444Y-115136930D01*
X78179012Y-115146501D01*
X78124495Y-115118724D01*
X78096718Y-115064207D01*
X78095499Y-115048720D01*
X78095499Y-114915642D01*
X78095499Y-114915640D01*
X78080044Y-114798238D01*
X78054567Y-114736732D01*
X78019537Y-114652161D01*
X78019537Y-114652160D01*
X77923286Y-114526723D01*
X77923285Y-114526722D01*
X77923282Y-114526718D01*
X77923277Y-114526714D01*
X77923276Y-114526713D01*
X77797838Y-114430462D01*
X77651766Y-114369957D01*
X77651758Y-114369955D01*
X77534361Y-114354500D01*
X76255642Y-114354500D01*
X76255637Y-114354501D01*
X76138241Y-114369955D01*
X76138233Y-114369957D01*
X75992161Y-114430462D01*
X75992160Y-114430462D01*
X75866723Y-114526713D01*
X75866713Y-114526723D01*
X75770462Y-114652160D01*
X75770462Y-114652161D01*
X75709957Y-114798233D01*
X75709955Y-114798241D01*
X75694500Y-114915637D01*
X75694500Y-116444357D01*
X75694501Y-116444362D01*
X75709955Y-116561758D01*
X75709957Y-116561766D01*
X75770462Y-116707838D01*
X75770462Y-116707839D01*
X75770464Y-116707841D01*
X75866718Y-116833282D01*
X75866722Y-116833285D01*
X75866723Y-116833286D01*
X75896082Y-116855813D01*
X75992159Y-116929536D01*
X75992160Y-116929536D01*
X75992161Y-116929537D01*
X76104188Y-116975940D01*
X76138238Y-116990044D01*
X76255639Y-117005500D01*
X77534360Y-117005499D01*
X77651762Y-116990044D01*
X77797841Y-116929536D01*
X77923282Y-116833282D01*
X78019536Y-116707841D01*
X78080044Y-116561762D01*
X78095500Y-116444361D01*
X78095499Y-116311279D01*
X78114406Y-116253091D01*
X78163906Y-116217127D01*
X78225091Y-116217126D01*
X78274591Y-116253090D01*
X78282709Y-116266336D01*
X78368238Y-116434196D01*
X78368240Y-116434199D01*
X78479310Y-116587073D01*
X78612927Y-116720690D01*
X78765801Y-116831760D01*
X78934168Y-116917547D01*
X79113882Y-116975940D01*
X79113883Y-116975940D01*
X79113886Y-116975941D01*
X79300516Y-117005500D01*
X79300519Y-117005500D01*
X79489484Y-117005500D01*
X79676113Y-116975941D01*
X79676114Y-116975940D01*
X79676118Y-116975940D01*
X79855832Y-116917547D01*
X80024199Y-116831760D01*
X80177073Y-116720690D01*
X80310690Y-116587073D01*
X80421760Y-116434199D01*
X80507547Y-116265832D01*
X80550845Y-116132572D01*
X80586809Y-116083074D01*
X80645000Y-116064167D01*
X80703191Y-116083074D01*
X80739154Y-116132572D01*
X80766628Y-116217127D01*
X80782453Y-116265832D01*
X80868237Y-116434195D01*
X80868240Y-116434199D01*
X80979310Y-116587073D01*
X81112927Y-116720690D01*
X81265801Y-116831760D01*
X81434168Y-116917547D01*
X81613882Y-116975940D01*
X81613883Y-116975940D01*
X81613886Y-116975941D01*
X81800516Y-117005500D01*
X81800519Y-117005500D01*
X81989484Y-117005500D01*
X82176113Y-116975941D01*
X82176114Y-116975940D01*
X82176118Y-116975940D01*
X82355832Y-116917547D01*
X82524199Y-116831760D01*
X82677073Y-116720690D01*
X82810690Y-116587073D01*
X82921760Y-116434199D01*
X82972896Y-116333837D01*
X83016160Y-116290573D01*
X83076592Y-116281001D01*
X83131109Y-116308778D01*
X83149316Y-116333837D01*
X83240375Y-116512551D01*
X83365277Y-116684464D01*
X83515535Y-116834722D01*
X83687447Y-116959624D01*
X83876784Y-117056095D01*
X84078877Y-117121758D01*
X84144999Y-117132231D01*
X84145000Y-117132230D01*
X84145000Y-116084145D01*
X84211657Y-116122630D01*
X84332465Y-116155000D01*
X84457535Y-116155000D01*
X84578343Y-116122630D01*
X84645000Y-116084145D01*
X84645000Y-117132231D01*
X84711122Y-117121758D01*
X84913215Y-117056095D01*
X85102552Y-116959624D01*
X85274464Y-116834722D01*
X85424722Y-116684464D01*
X85549624Y-116512552D01*
X85646095Y-116323215D01*
X85711759Y-116121121D01*
X85742030Y-115930000D01*
X84799146Y-115930000D01*
X84837630Y-115863343D01*
X84870000Y-115742535D01*
X84870000Y-115617465D01*
X84837630Y-115496657D01*
X84799146Y-115430000D01*
X85742030Y-115430000D01*
X85742030Y-115429999D01*
X85711759Y-115238878D01*
X85646095Y-115036784D01*
X85549624Y-114847447D01*
X85424722Y-114675535D01*
X85274464Y-114525277D01*
X85102552Y-114400375D01*
X84913215Y-114303904D01*
X84711120Y-114238240D01*
X84645000Y-114227767D01*
X84645000Y-115275854D01*
X84578343Y-115237370D01*
X84457535Y-115205000D01*
X84332465Y-115205000D01*
X84211657Y-115237370D01*
X84145000Y-115275854D01*
X84145000Y-114227768D01*
X84144999Y-114227767D01*
X84078880Y-114238240D01*
X84078878Y-114238240D01*
X83876784Y-114303904D01*
X83687447Y-114400375D01*
X83515535Y-114525277D01*
X83365277Y-114675535D01*
X83240375Y-114847448D01*
X83149316Y-115026162D01*
X83106051Y-115069427D01*
X83045619Y-115078998D01*
X82991102Y-115051220D01*
X82972896Y-115026162D01*
X82921761Y-114925803D01*
X82914379Y-114915642D01*
X82810690Y-114772927D01*
X82794494Y-114756731D01*
X82774496Y-114736732D01*
X82746719Y-114682215D01*
X82745500Y-114666729D01*
X82745500Y-113443296D01*
X82764407Y-113385105D01*
X82774496Y-113373292D01*
X83508292Y-112639496D01*
X83562809Y-112611719D01*
X83578296Y-112610500D01*
X89451233Y-112610500D01*
X96205500Y-112610500D01*
X96263691Y-112629407D01*
X96299655Y-112678907D01*
X96304500Y-112709500D01*
X96304500Y-114646729D01*
X96285593Y-114704920D01*
X96275504Y-114716732D01*
X96219312Y-114772924D01*
X96108238Y-114925803D01*
X96022453Y-115094167D01*
X95979155Y-115227425D01*
X95943191Y-115276925D01*
X95885000Y-115295832D01*
X95826809Y-115276925D01*
X95790845Y-115227425D01*
X95761441Y-115136930D01*
X95747547Y-115094168D01*
X95661760Y-114925801D01*
X95550690Y-114772927D01*
X95417073Y-114639310D01*
X95264199Y-114528240D01*
X95264198Y-114528239D01*
X95264196Y-114528238D01*
X95095832Y-114442453D01*
X94916113Y-114384058D01*
X94729484Y-114354500D01*
X94729481Y-114354500D01*
X94540519Y-114354500D01*
X94540516Y-114354500D01*
X94353886Y-114384058D01*
X94174167Y-114442453D01*
X94005803Y-114528238D01*
X93852928Y-114639309D01*
X93719309Y-114772928D01*
X93608238Y-114925803D01*
X93522709Y-115093665D01*
X93479444Y-115136930D01*
X93419012Y-115146501D01*
X93364495Y-115118724D01*
X93336718Y-115064207D01*
X93335499Y-115048720D01*
X93335499Y-114915642D01*
X93335499Y-114915640D01*
X93320044Y-114798238D01*
X93294567Y-114736732D01*
X93259537Y-114652161D01*
X93259537Y-114652160D01*
X93163286Y-114526723D01*
X93163285Y-114526722D01*
X93163282Y-114526718D01*
X93163277Y-114526714D01*
X93163276Y-114526713D01*
X93037838Y-114430462D01*
X92891766Y-114369957D01*
X92891758Y-114369955D01*
X92774361Y-114354500D01*
X91495642Y-114354500D01*
X91495637Y-114354501D01*
X91378241Y-114369955D01*
X91378233Y-114369957D01*
X91232161Y-114430462D01*
X91232160Y-114430462D01*
X91106723Y-114526713D01*
X91106713Y-114526723D01*
X91010462Y-114652160D01*
X91010462Y-114652161D01*
X90949957Y-114798233D01*
X90949955Y-114798241D01*
X90934500Y-114915637D01*
X90934500Y-116444357D01*
X90934501Y-116444362D01*
X90949955Y-116561758D01*
X90949957Y-116561766D01*
X91010462Y-116707838D01*
X91010462Y-116707839D01*
X91010464Y-116707841D01*
X91106718Y-116833282D01*
X91106722Y-116833285D01*
X91106723Y-116833286D01*
X91136082Y-116855813D01*
X91232159Y-116929536D01*
X91232160Y-116929536D01*
X91232161Y-116929537D01*
X91344188Y-116975940D01*
X91378238Y-116990044D01*
X91495639Y-117005500D01*
X92774360Y-117005499D01*
X92891762Y-116990044D01*
X93037841Y-116929536D01*
X93163282Y-116833282D01*
X93259536Y-116707841D01*
X93320044Y-116561762D01*
X93335500Y-116444361D01*
X93335499Y-116311279D01*
X93354406Y-116253091D01*
X93403906Y-116217127D01*
X93465091Y-116217126D01*
X93514591Y-116253090D01*
X93522709Y-116266336D01*
X93608238Y-116434196D01*
X93608240Y-116434199D01*
X93719310Y-116587073D01*
X93852927Y-116720690D01*
X94005801Y-116831760D01*
X94174168Y-116917547D01*
X94353882Y-116975940D01*
X94353883Y-116975940D01*
X94353886Y-116975941D01*
X94540516Y-117005500D01*
X94540519Y-117005500D01*
X94729484Y-117005500D01*
X94916113Y-116975941D01*
X94916114Y-116975940D01*
X94916118Y-116975940D01*
X95095832Y-116917547D01*
X95264199Y-116831760D01*
X95417073Y-116720690D01*
X95550690Y-116587073D01*
X95661760Y-116434199D01*
X95747547Y-116265832D01*
X95790845Y-116132572D01*
X95826809Y-116083074D01*
X95885000Y-116064167D01*
X95943191Y-116083074D01*
X95979154Y-116132572D01*
X96006628Y-116217127D01*
X96022453Y-116265832D01*
X96108237Y-116434195D01*
X96108240Y-116434199D01*
X96219310Y-116587073D01*
X96352927Y-116720690D01*
X96505801Y-116831760D01*
X96674168Y-116917547D01*
X96853882Y-116975940D01*
X96853883Y-116975940D01*
X96853886Y-116975941D01*
X97040516Y-117005500D01*
X97040519Y-117005500D01*
X97229484Y-117005500D01*
X97416113Y-116975941D01*
X97416114Y-116975940D01*
X97416118Y-116975940D01*
X97595832Y-116917547D01*
X97764199Y-116831760D01*
X97917073Y-116720690D01*
X98050690Y-116587073D01*
X98161760Y-116434199D01*
X98212896Y-116333837D01*
X98256160Y-116290573D01*
X98316592Y-116281001D01*
X98371109Y-116308778D01*
X98389316Y-116333837D01*
X98480375Y-116512551D01*
X98605277Y-116684464D01*
X98755535Y-116834722D01*
X98927447Y-116959624D01*
X99116784Y-117056095D01*
X99318877Y-117121758D01*
X99384999Y-117132231D01*
X99385000Y-117132230D01*
X99385000Y-116084145D01*
X99451657Y-116122630D01*
X99572465Y-116155000D01*
X99697535Y-116155000D01*
X99818343Y-116122630D01*
X99885000Y-116084145D01*
X99885000Y-117132231D01*
X99951122Y-117121758D01*
X100153215Y-117056095D01*
X100342552Y-116959624D01*
X100514464Y-116834722D01*
X100664722Y-116684464D01*
X100789624Y-116512552D01*
X100886095Y-116323215D01*
X100951759Y-116121121D01*
X100982030Y-115930000D01*
X100039146Y-115930000D01*
X100077630Y-115863343D01*
X100110000Y-115742535D01*
X100110000Y-115617465D01*
X100077630Y-115496657D01*
X100039146Y-115430000D01*
X100982030Y-115430000D01*
X100982030Y-115429999D01*
X100951759Y-115238878D01*
X100886095Y-115036784D01*
X100789624Y-114847447D01*
X100664722Y-114675535D01*
X100514464Y-114525277D01*
X100342552Y-114400375D01*
X100153215Y-114303904D01*
X99951120Y-114238240D01*
X99885000Y-114227767D01*
X99885000Y-115275854D01*
X99818343Y-115237370D01*
X99697535Y-115205000D01*
X99572465Y-115205000D01*
X99451657Y-115237370D01*
X99385000Y-115275854D01*
X99385000Y-114227768D01*
X99384999Y-114227767D01*
X99318880Y-114238240D01*
X99318878Y-114238240D01*
X99116784Y-114303904D01*
X98927447Y-114400375D01*
X98755535Y-114525277D01*
X98605277Y-114675535D01*
X98480375Y-114847448D01*
X98389316Y-115026162D01*
X98346051Y-115069427D01*
X98285619Y-115078998D01*
X98231102Y-115051220D01*
X98212896Y-115026162D01*
X98161761Y-114925803D01*
X98154379Y-114915642D01*
X98050690Y-114772927D01*
X98050687Y-114772924D01*
X98034495Y-114756731D01*
X98006718Y-114702213D01*
X98005500Y-114686729D01*
X98005500Y-112709500D01*
X98024407Y-112651309D01*
X98073907Y-112615345D01*
X98104500Y-112610500D01*
X104671233Y-112610500D01*
X104838767Y-112610500D01*
X106596233Y-112610500D01*
X111445500Y-112610500D01*
X111503691Y-112629407D01*
X111539655Y-112678907D01*
X111544500Y-112709500D01*
X111544500Y-114646729D01*
X111525593Y-114704920D01*
X111515504Y-114716732D01*
X111459312Y-114772924D01*
X111348238Y-114925803D01*
X111262453Y-115094167D01*
X111219155Y-115227425D01*
X111183191Y-115276925D01*
X111125000Y-115295832D01*
X111066809Y-115276925D01*
X111030845Y-115227425D01*
X111001441Y-115136930D01*
X110987547Y-115094168D01*
X110901760Y-114925801D01*
X110790690Y-114772927D01*
X110657073Y-114639310D01*
X110504199Y-114528240D01*
X110504198Y-114528239D01*
X110504196Y-114528238D01*
X110335832Y-114442453D01*
X110156113Y-114384058D01*
X109969484Y-114354500D01*
X109969481Y-114354500D01*
X109780519Y-114354500D01*
X109780516Y-114354500D01*
X109593886Y-114384058D01*
X109414167Y-114442453D01*
X109245803Y-114528238D01*
X109092928Y-114639309D01*
X108959309Y-114772928D01*
X108848238Y-114925803D01*
X108762709Y-115093665D01*
X108719444Y-115136930D01*
X108659012Y-115146501D01*
X108604495Y-115118724D01*
X108576718Y-115064207D01*
X108575499Y-115048720D01*
X108575499Y-114915642D01*
X108575499Y-114915640D01*
X108560044Y-114798238D01*
X108534567Y-114736732D01*
X108499537Y-114652161D01*
X108499537Y-114652160D01*
X108403286Y-114526723D01*
X108403285Y-114526722D01*
X108403282Y-114526718D01*
X108403277Y-114526714D01*
X108403276Y-114526713D01*
X108277838Y-114430462D01*
X108131766Y-114369957D01*
X108131758Y-114369955D01*
X108014361Y-114354500D01*
X106735642Y-114354500D01*
X106735637Y-114354501D01*
X106618241Y-114369955D01*
X106618233Y-114369957D01*
X106472161Y-114430462D01*
X106472160Y-114430462D01*
X106346723Y-114526713D01*
X106346713Y-114526723D01*
X106250462Y-114652160D01*
X106250462Y-114652161D01*
X106189957Y-114798233D01*
X106189955Y-114798241D01*
X106174500Y-114915637D01*
X106174500Y-116444357D01*
X106174501Y-116444362D01*
X106189955Y-116561758D01*
X106189957Y-116561766D01*
X106250462Y-116707838D01*
X106250462Y-116707839D01*
X106250464Y-116707841D01*
X106346718Y-116833282D01*
X106346722Y-116833285D01*
X106346723Y-116833286D01*
X106376082Y-116855813D01*
X106472159Y-116929536D01*
X106472160Y-116929536D01*
X106472161Y-116929537D01*
X106584188Y-116975940D01*
X106618238Y-116990044D01*
X106735639Y-117005500D01*
X108014360Y-117005499D01*
X108131762Y-116990044D01*
X108277841Y-116929536D01*
X108403282Y-116833282D01*
X108499536Y-116707841D01*
X108560044Y-116561762D01*
X108575500Y-116444361D01*
X108575499Y-116311279D01*
X108594406Y-116253091D01*
X108643906Y-116217127D01*
X108705091Y-116217126D01*
X108754591Y-116253090D01*
X108762709Y-116266336D01*
X108848238Y-116434196D01*
X108848240Y-116434199D01*
X108959310Y-116587073D01*
X109092927Y-116720690D01*
X109245801Y-116831760D01*
X109414168Y-116917547D01*
X109593882Y-116975940D01*
X109593883Y-116975940D01*
X109593886Y-116975941D01*
X109780516Y-117005500D01*
X109780519Y-117005500D01*
X109969484Y-117005500D01*
X110156113Y-116975941D01*
X110156114Y-116975940D01*
X110156118Y-116975940D01*
X110335832Y-116917547D01*
X110504199Y-116831760D01*
X110657073Y-116720690D01*
X110790690Y-116587073D01*
X110901760Y-116434199D01*
X110987547Y-116265832D01*
X111030845Y-116132572D01*
X111066809Y-116083074D01*
X111125000Y-116064167D01*
X111183191Y-116083074D01*
X111219154Y-116132572D01*
X111246628Y-116217127D01*
X111262453Y-116265832D01*
X111348237Y-116434195D01*
X111348240Y-116434199D01*
X111459310Y-116587073D01*
X111592927Y-116720690D01*
X111745801Y-116831760D01*
X111914168Y-116917547D01*
X112093882Y-116975940D01*
X112093883Y-116975940D01*
X112093886Y-116975941D01*
X112280516Y-117005500D01*
X112280519Y-117005500D01*
X112469484Y-117005500D01*
X112656113Y-116975941D01*
X112656114Y-116975940D01*
X112656118Y-116975940D01*
X112835832Y-116917547D01*
X113004199Y-116831760D01*
X113157073Y-116720690D01*
X113290690Y-116587073D01*
X113401760Y-116434199D01*
X113452896Y-116333837D01*
X113496160Y-116290573D01*
X113556592Y-116281001D01*
X113611109Y-116308778D01*
X113629316Y-116333837D01*
X113720375Y-116512551D01*
X113845277Y-116684464D01*
X113995535Y-116834722D01*
X114167447Y-116959624D01*
X114356784Y-117056095D01*
X114558877Y-117121758D01*
X114624999Y-117132231D01*
X114625000Y-117132230D01*
X114625000Y-116084145D01*
X114691657Y-116122630D01*
X114812465Y-116155000D01*
X114937535Y-116155000D01*
X115058343Y-116122630D01*
X115125000Y-116084145D01*
X115125000Y-117132231D01*
X115191122Y-117121758D01*
X115393215Y-117056095D01*
X115582552Y-116959624D01*
X115754464Y-116834722D01*
X115904722Y-116684464D01*
X116029624Y-116512552D01*
X116126095Y-116323215D01*
X116191759Y-116121121D01*
X116222030Y-115930000D01*
X115279146Y-115930000D01*
X115317630Y-115863343D01*
X115350000Y-115742535D01*
X115350000Y-115617465D01*
X115317630Y-115496657D01*
X115279146Y-115430000D01*
X116222030Y-115430000D01*
X116222030Y-115429999D01*
X116191759Y-115238878D01*
X116126095Y-115036784D01*
X116029624Y-114847447D01*
X115904722Y-114675535D01*
X115754464Y-114525277D01*
X115582552Y-114400375D01*
X115393215Y-114303904D01*
X115191120Y-114238240D01*
X115125000Y-114227767D01*
X115125000Y-115275854D01*
X115058343Y-115237370D01*
X114937535Y-115205000D01*
X114812465Y-115205000D01*
X114691657Y-115237370D01*
X114625000Y-115275854D01*
X114625000Y-114227768D01*
X114624999Y-114227767D01*
X114558880Y-114238240D01*
X114558878Y-114238240D01*
X114356784Y-114303904D01*
X114167447Y-114400375D01*
X113995535Y-114525277D01*
X113845277Y-114675535D01*
X113720375Y-114847448D01*
X113629316Y-115026162D01*
X113586051Y-115069427D01*
X113525619Y-115078998D01*
X113471102Y-115051220D01*
X113452896Y-115026162D01*
X113401761Y-114925803D01*
X113394379Y-114915642D01*
X113290690Y-114772927D01*
X113290687Y-114772924D01*
X113274495Y-114756731D01*
X113246718Y-114702213D01*
X113245500Y-114686729D01*
X113245500Y-112709500D01*
X113264407Y-112651309D01*
X113313907Y-112615345D01*
X113344500Y-112610500D01*
X118661233Y-112610500D01*
X119931233Y-112610500D01*
X120098767Y-112610500D01*
X125971703Y-112610500D01*
X126029894Y-112629407D01*
X126041707Y-112639496D01*
X126735504Y-113333292D01*
X126763281Y-113387809D01*
X126764500Y-113403296D01*
X126764500Y-114666729D01*
X126745593Y-114724920D01*
X126735504Y-114736732D01*
X126699312Y-114772924D01*
X126588238Y-114925803D01*
X126502453Y-115094167D01*
X126459155Y-115227425D01*
X126423191Y-115276925D01*
X126365000Y-115295832D01*
X126306809Y-115276925D01*
X126270845Y-115227425D01*
X126241441Y-115136930D01*
X126227547Y-115094168D01*
X126141760Y-114925801D01*
X126030690Y-114772927D01*
X125897073Y-114639310D01*
X125744199Y-114528240D01*
X125744198Y-114528239D01*
X125744196Y-114528238D01*
X125575832Y-114442453D01*
X125396113Y-114384058D01*
X125209484Y-114354500D01*
X125209481Y-114354500D01*
X125020519Y-114354500D01*
X125020516Y-114354500D01*
X124833886Y-114384058D01*
X124654167Y-114442453D01*
X124485803Y-114528238D01*
X124332928Y-114639309D01*
X124199309Y-114772928D01*
X124088238Y-114925803D01*
X124002709Y-115093665D01*
X123959444Y-115136930D01*
X123899012Y-115146501D01*
X123844495Y-115118724D01*
X123816718Y-115064207D01*
X123815499Y-115048720D01*
X123815499Y-114915642D01*
X123815499Y-114915640D01*
X123800044Y-114798238D01*
X123774567Y-114736732D01*
X123739537Y-114652161D01*
X123739537Y-114652160D01*
X123643286Y-114526723D01*
X123643285Y-114526722D01*
X123643282Y-114526718D01*
X123643277Y-114526714D01*
X123643276Y-114526713D01*
X123517838Y-114430462D01*
X123371766Y-114369957D01*
X123371758Y-114369955D01*
X123254361Y-114354500D01*
X121975642Y-114354500D01*
X121975637Y-114354501D01*
X121858241Y-114369955D01*
X121858233Y-114369957D01*
X121712161Y-114430462D01*
X121712160Y-114430462D01*
X121586723Y-114526713D01*
X121586713Y-114526723D01*
X121490462Y-114652160D01*
X121490462Y-114652161D01*
X121429957Y-114798233D01*
X121429955Y-114798241D01*
X121414500Y-114915637D01*
X121414500Y-116444357D01*
X121414501Y-116444362D01*
X121429955Y-116561758D01*
X121429957Y-116561766D01*
X121490462Y-116707838D01*
X121490462Y-116707839D01*
X121490464Y-116707841D01*
X121586718Y-116833282D01*
X121586722Y-116833285D01*
X121586723Y-116833286D01*
X121616082Y-116855813D01*
X121712159Y-116929536D01*
X121712160Y-116929536D01*
X121712161Y-116929537D01*
X121824188Y-116975940D01*
X121858238Y-116990044D01*
X121975639Y-117005500D01*
X123254360Y-117005499D01*
X123371762Y-116990044D01*
X123517841Y-116929536D01*
X123643282Y-116833282D01*
X123739536Y-116707841D01*
X123800044Y-116561762D01*
X123815500Y-116444361D01*
X123815499Y-116311279D01*
X123834406Y-116253091D01*
X123883906Y-116217127D01*
X123945091Y-116217126D01*
X123994591Y-116253090D01*
X124002709Y-116266336D01*
X124088238Y-116434196D01*
X124088240Y-116434199D01*
X124199310Y-116587073D01*
X124332927Y-116720690D01*
X124485801Y-116831760D01*
X124654168Y-116917547D01*
X124833882Y-116975940D01*
X124833883Y-116975940D01*
X124833886Y-116975941D01*
X125020516Y-117005500D01*
X125020519Y-117005500D01*
X125209484Y-117005500D01*
X125396113Y-116975941D01*
X125396114Y-116975940D01*
X125396118Y-116975940D01*
X125575832Y-116917547D01*
X125744199Y-116831760D01*
X125897073Y-116720690D01*
X126030690Y-116587073D01*
X126141760Y-116434199D01*
X126227547Y-116265832D01*
X126270845Y-116132572D01*
X126306809Y-116083074D01*
X126365000Y-116064167D01*
X126423191Y-116083074D01*
X126459154Y-116132572D01*
X126486628Y-116217127D01*
X126502453Y-116265832D01*
X126588237Y-116434195D01*
X126588240Y-116434199D01*
X126699310Y-116587073D01*
X126832927Y-116720690D01*
X126985801Y-116831760D01*
X127154168Y-116917547D01*
X127333882Y-116975940D01*
X127333883Y-116975940D01*
X127333886Y-116975941D01*
X127520516Y-117005500D01*
X127520519Y-117005500D01*
X127709484Y-117005500D01*
X127896113Y-116975941D01*
X127896114Y-116975940D01*
X127896118Y-116975940D01*
X128075832Y-116917547D01*
X128244199Y-116831760D01*
X128397073Y-116720690D01*
X128530690Y-116587073D01*
X128641760Y-116434199D01*
X128692896Y-116333837D01*
X128736160Y-116290573D01*
X128796592Y-116281001D01*
X128851109Y-116308778D01*
X128869316Y-116333837D01*
X128960375Y-116512551D01*
X129085277Y-116684464D01*
X129235535Y-116834722D01*
X129407447Y-116959624D01*
X129596784Y-117056095D01*
X129798877Y-117121758D01*
X129864999Y-117132231D01*
X129865000Y-117132230D01*
X129865000Y-116084145D01*
X129931657Y-116122630D01*
X130052465Y-116155000D01*
X130177535Y-116155000D01*
X130298343Y-116122630D01*
X130365000Y-116084145D01*
X130365000Y-117132231D01*
X130431122Y-117121758D01*
X130633215Y-117056095D01*
X130822552Y-116959624D01*
X130994464Y-116834722D01*
X131144722Y-116684464D01*
X131269624Y-116512552D01*
X131366095Y-116323215D01*
X131431759Y-116121121D01*
X131462030Y-115930000D01*
X130519146Y-115930000D01*
X130557630Y-115863343D01*
X130590000Y-115742535D01*
X130590000Y-115617465D01*
X130557630Y-115496657D01*
X130519146Y-115430000D01*
X131462030Y-115430000D01*
X131462030Y-115429999D01*
X131431759Y-115238878D01*
X131366095Y-115036784D01*
X131269624Y-114847447D01*
X131144722Y-114675535D01*
X130994464Y-114525277D01*
X130822552Y-114400375D01*
X130633215Y-114303904D01*
X130431120Y-114238240D01*
X130365000Y-114227767D01*
X130365000Y-115275854D01*
X130298343Y-115237370D01*
X130177535Y-115205000D01*
X130052465Y-115205000D01*
X129931657Y-115237370D01*
X129865000Y-115275854D01*
X129865000Y-114227768D01*
X129864999Y-114227767D01*
X129798880Y-114238240D01*
X129798878Y-114238240D01*
X129596784Y-114303904D01*
X129407447Y-114400375D01*
X129235535Y-114525277D01*
X129085277Y-114675535D01*
X128960375Y-114847448D01*
X128869316Y-115026162D01*
X128826051Y-115069427D01*
X128765619Y-115078998D01*
X128711102Y-115051220D01*
X128692896Y-115026162D01*
X128641761Y-114925803D01*
X128634379Y-114915642D01*
X128530690Y-114772927D01*
X128514494Y-114756731D01*
X128494496Y-114736732D01*
X128466719Y-114682215D01*
X128465500Y-114666729D01*
X128465500Y-113224062D01*
X128467402Y-113204748D01*
X128485499Y-113113767D01*
X128485499Y-112946233D01*
X128452816Y-112781918D01*
X128388704Y-112627137D01*
X128295626Y-112487838D01*
X126907162Y-111099373D01*
X126851670Y-111062294D01*
X126767869Y-111006299D01*
X126767858Y-111006293D01*
X126658415Y-110960962D01*
X126613085Y-110942185D01*
X126613079Y-110942183D01*
X126448769Y-110909500D01*
X126448767Y-110909500D01*
X120964500Y-110909500D01*
X120906309Y-110890593D01*
X120870345Y-110841093D01*
X120865500Y-110810500D01*
X120865500Y-107783270D01*
X120884407Y-107725079D01*
X120894490Y-107713272D01*
X120910690Y-107697073D01*
X121021760Y-107544199D01*
X121072896Y-107443837D01*
X121116160Y-107400573D01*
X121176592Y-107391001D01*
X121231109Y-107418778D01*
X121249316Y-107443837D01*
X121340375Y-107622551D01*
X121465277Y-107794464D01*
X121615535Y-107944722D01*
X121787447Y-108069624D01*
X121976784Y-108166095D01*
X122178877Y-108231758D01*
X122244999Y-108242231D01*
X122245000Y-108242230D01*
X122245000Y-107194145D01*
X122311657Y-107232630D01*
X122432465Y-107265000D01*
X122557535Y-107265000D01*
X122678343Y-107232630D01*
X122745000Y-107194145D01*
X122745000Y-108242231D01*
X122811122Y-108231758D01*
X123013215Y-108166095D01*
X123202552Y-108069624D01*
X123374464Y-107944722D01*
X123524722Y-107794464D01*
X123649624Y-107622552D01*
X123746095Y-107433215D01*
X123811759Y-107231121D01*
X123842030Y-107040000D01*
X122899146Y-107040000D01*
X122937630Y-106973343D01*
X122970000Y-106852535D01*
X122970000Y-106727465D01*
X122937630Y-106606657D01*
X122899146Y-106540000D01*
X123842030Y-106540000D01*
X123842030Y-106539999D01*
X123811759Y-106348878D01*
X123746095Y-106146784D01*
X123649624Y-105957447D01*
X123524722Y-105785535D01*
X123374464Y-105635277D01*
X123202552Y-105510375D01*
X123013215Y-105413904D01*
X122811120Y-105348240D01*
X122745000Y-105337767D01*
X122745000Y-106385854D01*
X122678343Y-106347370D01*
X122557535Y-106315000D01*
X122432465Y-106315000D01*
X122311657Y-106347370D01*
X122245000Y-106385854D01*
X122245000Y-105337768D01*
X122244999Y-105337767D01*
X122178880Y-105348240D01*
X122178878Y-105348240D01*
X121976784Y-105413904D01*
X121787447Y-105510375D01*
X121615535Y-105635277D01*
X121465277Y-105785535D01*
X121340375Y-105957448D01*
X121249316Y-106136162D01*
X121206051Y-106179427D01*
X121145619Y-106188998D01*
X121091102Y-106161220D01*
X121072896Y-106136162D01*
X121021761Y-106035803D01*
X121014379Y-106025642D01*
X120910690Y-105882927D01*
X120910687Y-105882924D01*
X120874496Y-105846732D01*
X120846719Y-105792215D01*
X120845500Y-105776729D01*
X120845500Y-103918296D01*
X120864407Y-103860105D01*
X120874496Y-103848292D01*
X121608292Y-103114496D01*
X121662809Y-103086719D01*
X121678296Y-103085500D01*
X130893766Y-103085500D01*
X130893767Y-103085500D01*
X131058082Y-103052816D01*
X131103411Y-103034038D01*
X131103414Y-103034038D01*
X131163276Y-103009242D01*
X131212863Y-102988704D01*
X131352162Y-102895627D01*
X133375627Y-100872162D01*
X133468704Y-100732863D01*
X133532816Y-100578081D01*
X133565500Y-100413767D01*
X133565500Y-100246233D01*
X133565500Y-95960797D01*
X133584407Y-95902606D01*
X133594496Y-95890793D01*
X135915793Y-93569496D01*
X135970310Y-93541719D01*
X135985797Y-93540500D01*
X137526729Y-93540500D01*
X137529291Y-93541332D01*
X137531893Y-93540635D01*
X137544728Y-93546348D01*
X137584920Y-93559407D01*
X137589018Y-93562552D01*
X137593065Y-93565828D01*
X137632927Y-93605690D01*
X137724482Y-93672208D01*
X137726492Y-93673836D01*
X137741812Y-93697418D01*
X137758358Y-93720191D01*
X137758358Y-93722885D01*
X137759825Y-93725144D01*
X137758358Y-93753234D01*
X137758358Y-93781377D01*
X137756774Y-93783556D01*
X137756634Y-93786246D01*
X137738935Y-93808110D01*
X137722394Y-93830877D01*
X137719659Y-93831922D01*
X137718137Y-93833803D01*
X137706751Y-93836855D01*
X137674269Y-93849271D01*
X137662310Y-93850493D01*
X137662300Y-93850495D01*
X137495875Y-93905643D01*
X137346659Y-93997680D01*
X137222680Y-94121659D01*
X137130643Y-94270875D01*
X137075493Y-94437306D01*
X137065000Y-94540012D01*
X137065000Y-94939999D01*
X137065001Y-94940000D01*
X138135854Y-94940000D01*
X138097370Y-95006657D01*
X138065000Y-95127465D01*
X138065000Y-95252535D01*
X138097370Y-95373343D01*
X138135854Y-95440000D01*
X137065002Y-95440000D01*
X137065001Y-95440001D01*
X137065001Y-95839986D01*
X137075492Y-95942687D01*
X137075495Y-95942699D01*
X137130643Y-96109124D01*
X137222680Y-96258340D01*
X137346659Y-96382319D01*
X137495875Y-96474356D01*
X137662306Y-96529506D01*
X137765012Y-96539999D01*
X138289998Y-96539999D01*
X138290000Y-96539998D01*
X138290000Y-95594145D01*
X138356657Y-95632630D01*
X138477465Y-95665000D01*
X138602535Y-95665000D01*
X138723343Y-95632630D01*
X138790000Y-95594145D01*
X138790000Y-96539998D01*
X138790001Y-96539999D01*
X139314986Y-96539999D01*
X139417687Y-96529507D01*
X139417699Y-96529504D01*
X139584124Y-96474356D01*
X139733340Y-96382319D01*
X139857319Y-96258340D01*
X139949356Y-96109124D01*
X140004506Y-95942693D01*
X140015000Y-95839987D01*
X140015000Y-95440001D01*
X140014999Y-95440000D01*
X138944146Y-95440000D01*
X138982630Y-95373343D01*
X139015000Y-95252535D01*
X139015000Y-95127465D01*
X138982630Y-95006657D01*
X138944146Y-94940000D01*
X140014998Y-94940000D01*
X140014999Y-94939999D01*
X140014999Y-94540013D01*
X140004507Y-94437312D01*
X140004504Y-94437300D01*
X139949356Y-94270875D01*
X139857319Y-94121659D01*
X139733340Y-93997680D01*
X139584124Y-93905643D01*
X139417693Y-93850493D01*
X139417694Y-93850493D01*
X139405731Y-93849271D01*
X139384393Y-93839844D01*
X139361862Y-93833803D01*
X139356931Y-93827712D01*
X139349764Y-93824546D01*
X139338042Y-93804377D01*
X139323365Y-93786246D01*
X139322956Y-93778420D01*
X139319019Y-93771646D01*
X139321390Y-93748440D01*
X139320174Y-93725144D01*
X139324399Y-93718996D01*
X139325240Y-93710777D01*
X139353507Y-93673835D01*
X139355496Y-93672224D01*
X139447073Y-93605690D01*
X139486940Y-93565822D01*
X139490982Y-93562551D01*
X139514932Y-93553362D01*
X139537785Y-93541719D01*
X139547217Y-93540976D01*
X139548108Y-93540635D01*
X139548890Y-93540844D01*
X139553271Y-93540500D01*
X140438766Y-93540500D01*
X140438767Y-93540500D01*
X140603082Y-93507816D01*
X140661119Y-93483776D01*
X140757863Y-93443704D01*
X140897162Y-93350627D01*
X142265627Y-91982162D01*
X142358704Y-91842863D01*
X142387098Y-91774312D01*
X142404038Y-91733414D01*
X142404038Y-91733411D01*
X142422816Y-91688082D01*
X142455500Y-91523767D01*
X142455500Y-86276233D01*
X142422816Y-86111918D01*
X142394890Y-86044500D01*
X142358704Y-85957137D01*
X142358702Y-85957134D01*
X142358700Y-85957130D01*
X142312923Y-85888621D01*
X142265627Y-85817838D01*
X140242162Y-83794373D01*
X140168272Y-83745001D01*
X140102869Y-83701299D01*
X140102858Y-83701293D01*
X139993415Y-83655962D01*
X139948085Y-83637185D01*
X139948079Y-83637183D01*
X139783769Y-83604500D01*
X139783767Y-83604500D01*
X133743296Y-83604500D01*
X133685105Y-83585593D01*
X133673292Y-83575504D01*
X132959496Y-82861707D01*
X132931719Y-82807190D01*
X132930500Y-82791703D01*
X132930500Y-72783297D01*
X132949407Y-72725106D01*
X132959496Y-72713293D01*
X134308293Y-71364496D01*
X134362810Y-71336719D01*
X134378297Y-71335500D01*
X136608766Y-71335500D01*
X136608767Y-71335500D01*
X136773082Y-71302816D01*
X136818411Y-71284038D01*
X136818414Y-71284038D01*
X136878276Y-71259242D01*
X136927863Y-71238704D01*
X137067162Y-71145627D01*
X138435627Y-69777162D01*
X138528704Y-69637863D01*
X138567679Y-69543766D01*
X138574038Y-69528414D01*
X138574038Y-69528411D01*
X138592816Y-69483082D01*
X138625500Y-69318767D01*
X138625500Y-67798270D01*
X138644407Y-67740079D01*
X138654490Y-67728272D01*
X138690690Y-67692073D01*
X138801760Y-67539199D01*
X138852896Y-67438837D01*
X138896160Y-67395573D01*
X138956592Y-67386001D01*
X139011109Y-67413778D01*
X139029316Y-67438837D01*
X139120375Y-67617551D01*
X139245277Y-67789464D01*
X139395535Y-67939722D01*
X139567447Y-68064624D01*
X139756784Y-68161095D01*
X139958877Y-68226758D01*
X140024999Y-68237231D01*
X140025000Y-68237230D01*
X140025000Y-67189145D01*
X140091657Y-67227630D01*
X140212465Y-67260000D01*
X140337535Y-67260000D01*
X140458343Y-67227630D01*
X140525000Y-67189145D01*
X140525000Y-68237231D01*
X140591122Y-68226758D01*
X140793215Y-68161095D01*
X140982552Y-68064624D01*
X141154464Y-67939722D01*
X141304722Y-67789464D01*
X141429624Y-67617552D01*
X141526095Y-67428215D01*
X141591759Y-67226121D01*
X141622030Y-67035000D01*
X140679146Y-67035000D01*
X140717630Y-66968343D01*
X140750000Y-66847535D01*
X140750000Y-66722465D01*
X140717630Y-66601657D01*
X140679146Y-66535000D01*
X141622030Y-66535000D01*
X141622030Y-66534999D01*
X141591759Y-66343878D01*
X141526095Y-66141784D01*
X141429624Y-65952447D01*
X141304722Y-65780535D01*
X141154464Y-65630277D01*
X140982552Y-65505375D01*
X140793215Y-65408904D01*
X140591120Y-65343240D01*
X140525000Y-65332767D01*
X140525000Y-66380854D01*
X140458343Y-66342370D01*
X140337535Y-66310000D01*
X140212465Y-66310000D01*
X140091657Y-66342370D01*
X140025000Y-66380854D01*
X140025000Y-65332768D01*
X140024999Y-65332767D01*
X139958880Y-65343240D01*
X139958878Y-65343240D01*
X139756784Y-65408904D01*
X139567447Y-65505375D01*
X139395535Y-65630277D01*
X139245277Y-65780535D01*
X139120375Y-65952448D01*
X139029316Y-66131162D01*
X138986051Y-66174427D01*
X138925619Y-66183998D01*
X138871102Y-66156220D01*
X138852896Y-66131162D01*
X138801761Y-66030803D01*
X138794379Y-66020642D01*
X138690690Y-65877927D01*
X138557073Y-65744310D01*
X138404199Y-65633240D01*
X138404198Y-65633239D01*
X138404196Y-65633238D01*
X138235832Y-65547453D01*
X138056113Y-65489058D01*
X137869484Y-65459500D01*
X137869481Y-65459500D01*
X137680519Y-65459500D01*
X137680516Y-65459500D01*
X137493886Y-65489058D01*
X137314167Y-65547453D01*
X137145803Y-65633238D01*
X136992928Y-65744309D01*
X136859309Y-65877928D01*
X136748238Y-66030803D01*
X136662453Y-66199167D01*
X136619155Y-66332425D01*
X136583191Y-66381925D01*
X136525000Y-66400832D01*
X136466809Y-66381925D01*
X136430845Y-66332425D01*
X136401441Y-66241930D01*
X136387547Y-66199168D01*
X136301760Y-66030801D01*
X136190690Y-65877927D01*
X136057073Y-65744310D01*
X135904199Y-65633240D01*
X135904198Y-65633239D01*
X135904196Y-65633238D01*
X135735832Y-65547453D01*
X135556113Y-65489058D01*
X135369484Y-65459500D01*
X135369481Y-65459500D01*
X135180519Y-65459500D01*
X135180516Y-65459500D01*
X134993886Y-65489058D01*
X134814167Y-65547453D01*
X134645803Y-65633238D01*
X134492928Y-65744309D01*
X134359309Y-65877928D01*
X134248238Y-66030803D01*
X134162709Y-66198665D01*
X134119444Y-66241930D01*
X134059012Y-66251501D01*
X134004495Y-66223724D01*
X133976718Y-66169207D01*
X133975499Y-66153720D01*
X133975499Y-66020642D01*
X133975499Y-66020640D01*
X133960044Y-65903238D01*
X133949560Y-65877927D01*
X133899537Y-65757161D01*
X133899537Y-65757160D01*
X133803286Y-65631723D01*
X133803285Y-65631722D01*
X133803282Y-65631718D01*
X133803277Y-65631714D01*
X133803276Y-65631713D01*
X133677838Y-65535462D01*
X133531766Y-65474957D01*
X133531758Y-65474955D01*
X133414361Y-65459500D01*
X132135642Y-65459500D01*
X132135637Y-65459501D01*
X132018241Y-65474955D01*
X132018233Y-65474957D01*
X131872161Y-65535462D01*
X131872160Y-65535462D01*
X131746723Y-65631713D01*
X131746713Y-65631723D01*
X131650462Y-65757160D01*
X131650462Y-65757161D01*
X131589957Y-65903233D01*
X131589955Y-65903241D01*
X131574500Y-66020637D01*
X131574500Y-67549357D01*
X131574501Y-67549362D01*
X131589955Y-67666758D01*
X131589957Y-67666766D01*
X131650462Y-67812838D01*
X131650462Y-67812839D01*
X131687596Y-67861233D01*
X131746718Y-67938282D01*
X131746722Y-67938285D01*
X131746723Y-67938286D01*
X131776082Y-67960813D01*
X131872159Y-68034536D01*
X131872160Y-68034536D01*
X131872161Y-68034537D01*
X131984188Y-68080940D01*
X132018238Y-68095044D01*
X132135639Y-68110500D01*
X133414360Y-68110499D01*
X133531762Y-68095044D01*
X133677841Y-68034536D01*
X133803282Y-67938282D01*
X133899536Y-67812841D01*
X133960044Y-67666762D01*
X133975500Y-67549361D01*
X133975499Y-67416279D01*
X133994406Y-67358091D01*
X134043906Y-67322127D01*
X134105091Y-67322126D01*
X134154591Y-67358090D01*
X134162709Y-67371336D01*
X134248238Y-67539196D01*
X134248240Y-67539199D01*
X134359310Y-67692073D01*
X134492927Y-67825690D01*
X134645801Y-67936760D01*
X134814168Y-68022547D01*
X134993882Y-68080940D01*
X134993883Y-68080940D01*
X134993886Y-68080941D01*
X135180516Y-68110500D01*
X135180519Y-68110500D01*
X135369484Y-68110500D01*
X135556113Y-68080941D01*
X135556114Y-68080940D01*
X135556118Y-68080940D01*
X135735832Y-68022547D01*
X135904199Y-67936760D01*
X136057073Y-67825690D01*
X136190690Y-67692073D01*
X136301760Y-67539199D01*
X136387547Y-67370832D01*
X136430845Y-67237572D01*
X136466809Y-67188074D01*
X136525000Y-67169167D01*
X136583191Y-67188074D01*
X136619154Y-67237572D01*
X136646628Y-67322127D01*
X136662453Y-67370832D01*
X136748237Y-67539195D01*
X136748240Y-67539199D01*
X136859310Y-67692073D01*
X136895505Y-67728268D01*
X136923281Y-67782783D01*
X136924500Y-67798270D01*
X136924500Y-68841703D01*
X136905593Y-68899894D01*
X136895504Y-68911707D01*
X136201707Y-69605504D01*
X136147190Y-69633281D01*
X136131703Y-69634500D01*
X133901230Y-69634500D01*
X133736918Y-69667184D01*
X133736916Y-69667184D01*
X133691583Y-69685962D01*
X133582141Y-69731293D01*
X133582130Y-69731299D01*
X133442838Y-69824373D01*
X133442834Y-69824376D01*
X131419376Y-71847834D01*
X131419373Y-71847838D01*
X131326299Y-71987130D01*
X131326293Y-71987141D01*
X131286271Y-72083767D01*
X131286271Y-72083768D01*
X131262185Y-72141914D01*
X131262183Y-72141920D01*
X131229500Y-72306230D01*
X131229500Y-83268769D01*
X131262183Y-83433079D01*
X131262185Y-83433085D01*
X131280962Y-83478415D01*
X131280962Y-83478416D01*
X131326293Y-83587858D01*
X131326299Y-83587869D01*
X131359251Y-83637184D01*
X131419373Y-83727162D01*
X132807838Y-85115626D01*
X132947137Y-85208704D01*
X132947138Y-85208704D01*
X132947139Y-85208705D01*
X133098669Y-85271470D01*
X133100713Y-85272402D01*
X133101911Y-85272813D01*
X133101916Y-85272815D01*
X133101918Y-85272816D01*
X133266233Y-85305500D01*
X139306703Y-85305500D01*
X139364894Y-85324407D01*
X139376707Y-85334496D01*
X140725504Y-86683293D01*
X140753281Y-86737810D01*
X140754500Y-86753297D01*
X140754500Y-91046703D01*
X140735593Y-91104894D01*
X140725504Y-91116707D01*
X140031707Y-91810504D01*
X139977190Y-91838281D01*
X139961703Y-91839500D01*
X139553271Y-91839500D01*
X139495080Y-91820593D01*
X139483268Y-91810504D01*
X139447075Y-91774312D01*
X139447073Y-91774310D01*
X139294199Y-91663240D01*
X139294198Y-91663239D01*
X139294196Y-91663238D01*
X139125832Y-91577453D01*
X138992572Y-91534154D01*
X138943074Y-91498191D01*
X138924167Y-91440000D01*
X138943074Y-91381809D01*
X138992572Y-91345845D01*
X139125832Y-91302547D01*
X139294199Y-91216760D01*
X139447073Y-91105690D01*
X139580690Y-90972073D01*
X139691760Y-90819199D01*
X139777547Y-90650832D01*
X139835940Y-90471118D01*
X139835941Y-90471113D01*
X139865500Y-90284484D01*
X139865500Y-90095515D01*
X139835941Y-89908886D01*
X139810150Y-89829510D01*
X139777547Y-89729168D01*
X139691760Y-89560801D01*
X139580690Y-89407927D01*
X139447073Y-89274310D01*
X139294199Y-89163240D01*
X139294198Y-89163239D01*
X139294196Y-89163238D01*
X139125832Y-89077453D01*
X138992572Y-89034154D01*
X138943074Y-88998191D01*
X138924167Y-88940000D01*
X138943074Y-88881809D01*
X138992572Y-88845845D01*
X139125832Y-88802547D01*
X139294199Y-88716760D01*
X139447073Y-88605690D01*
X139580690Y-88472073D01*
X139691760Y-88319199D01*
X139777547Y-88150832D01*
X139835940Y-87971118D01*
X139840879Y-87939937D01*
X139865500Y-87784484D01*
X139865500Y-87595515D01*
X139835941Y-87408886D01*
X139823197Y-87369663D01*
X139777547Y-87229168D01*
X139691760Y-87060801D01*
X139580690Y-86907927D01*
X139447073Y-86774310D01*
X139294199Y-86663240D01*
X139294198Y-86663239D01*
X139294196Y-86663238D01*
X139125832Y-86577453D01*
X138946113Y-86519058D01*
X138759484Y-86489500D01*
X138759481Y-86489500D01*
X138320519Y-86489500D01*
X138320516Y-86489500D01*
X138133886Y-86519058D01*
X137954167Y-86577453D01*
X137785803Y-86663238D01*
X137632928Y-86774309D01*
X137499309Y-86907928D01*
X137388238Y-87060803D01*
X137324731Y-87185445D01*
X137281466Y-87228710D01*
X137236521Y-87239500D01*
X134500691Y-87239500D01*
X134455508Y-87251606D01*
X134410325Y-87263713D01*
X134410324Y-87263712D01*
X134386112Y-87270201D01*
X134386109Y-87270202D01*
X134283390Y-87329507D01*
X131287393Y-90325504D01*
X131232876Y-90353281D01*
X131217389Y-90354500D01*
X120877611Y-90354500D01*
X120819420Y-90335593D01*
X120807607Y-90325504D01*
X119859496Y-89377393D01*
X119831719Y-89322876D01*
X119830500Y-89307389D01*
X119830500Y-87791245D01*
X119849407Y-87733054D01*
X119884554Y-87703036D01*
X119956788Y-87666232D01*
X120096928Y-87564414D01*
X120219414Y-87441928D01*
X120321232Y-87301788D01*
X120399873Y-87147445D01*
X120399874Y-87147440D01*
X120399876Y-87147438D01*
X120453401Y-86982706D01*
X120453402Y-86982702D01*
X120480500Y-86811614D01*
X120480500Y-85638385D01*
X120460517Y-85512221D01*
X120453402Y-85467299D01*
X120446187Y-85445093D01*
X120446187Y-85383907D01*
X120482151Y-85334407D01*
X120540342Y-85315500D01*
X120759658Y-85315500D01*
X120817849Y-85334407D01*
X120853813Y-85383907D01*
X120853813Y-85445093D01*
X120846597Y-85467301D01*
X120819500Y-85638385D01*
X120819500Y-86811614D01*
X120846597Y-86982702D01*
X120846598Y-86982706D01*
X120900123Y-87147438D01*
X120900125Y-87147441D01*
X120962673Y-87270201D01*
X120978768Y-87301788D01*
X121080586Y-87441928D01*
X121203072Y-87564414D01*
X121343212Y-87666232D01*
X121497555Y-87744873D01*
X121497557Y-87744873D01*
X121497558Y-87744874D01*
X121497561Y-87744876D01*
X121662293Y-87798401D01*
X121662297Y-87798402D01*
X121833386Y-87825500D01*
X121833389Y-87825500D01*
X122006614Y-87825500D01*
X122177702Y-87798402D01*
X122177706Y-87798401D01*
X122342438Y-87744876D01*
X122342440Y-87744874D01*
X122342445Y-87744873D01*
X122496788Y-87666232D01*
X122636928Y-87564414D01*
X122759414Y-87441928D01*
X122861232Y-87301788D01*
X122939873Y-87147445D01*
X122939874Y-87147440D01*
X122939876Y-87147438D01*
X122993401Y-86982706D01*
X122993402Y-86982702D01*
X123020500Y-86811614D01*
X123020500Y-85638385D01*
X123000517Y-85512221D01*
X122993402Y-85467299D01*
X122986187Y-85445093D01*
X122986187Y-85383907D01*
X123022151Y-85334407D01*
X123080342Y-85315500D01*
X123299658Y-85315500D01*
X123357849Y-85334407D01*
X123393813Y-85383907D01*
X123393813Y-85445093D01*
X123386597Y-85467301D01*
X123359500Y-85638385D01*
X123359500Y-86811614D01*
X123386597Y-86982702D01*
X123386598Y-86982706D01*
X123440123Y-87147438D01*
X123440125Y-87147441D01*
X123502673Y-87270201D01*
X123518768Y-87301788D01*
X123620586Y-87441928D01*
X123743072Y-87564414D01*
X123883212Y-87666232D01*
X124037555Y-87744873D01*
X124037557Y-87744873D01*
X124037558Y-87744874D01*
X124037561Y-87744876D01*
X124202293Y-87798401D01*
X124202297Y-87798402D01*
X124373386Y-87825500D01*
X124373389Y-87825500D01*
X124546614Y-87825500D01*
X124717702Y-87798402D01*
X124717706Y-87798401D01*
X124882438Y-87744876D01*
X124882440Y-87744874D01*
X124882445Y-87744873D01*
X125036788Y-87666232D01*
X125176928Y-87564414D01*
X125299414Y-87441928D01*
X125401232Y-87301788D01*
X125479873Y-87147445D01*
X125479874Y-87147440D01*
X125479876Y-87147438D01*
X125533401Y-86982706D01*
X125533402Y-86982702D01*
X125560500Y-86811614D01*
X125560500Y-85638385D01*
X125899500Y-85638385D01*
X125899500Y-85811614D01*
X125926597Y-85982702D01*
X125926598Y-85982706D01*
X125980123Y-86147438D01*
X125980125Y-86147441D01*
X126045747Y-86276234D01*
X126058768Y-86301788D01*
X126160586Y-86441928D01*
X126283072Y-86564414D01*
X126423212Y-86666232D01*
X126577555Y-86744873D01*
X126577557Y-86744873D01*
X126577558Y-86744874D01*
X126577561Y-86744876D01*
X126742293Y-86798401D01*
X126742297Y-86798402D01*
X126913386Y-86825500D01*
X126913389Y-86825500D01*
X128086614Y-86825500D01*
X128257702Y-86798402D01*
X128257706Y-86798401D01*
X128422438Y-86744876D01*
X128422440Y-86744874D01*
X128422445Y-86744873D01*
X128576788Y-86666232D01*
X128716928Y-86564414D01*
X128839414Y-86441928D01*
X128941232Y-86301788D01*
X129019873Y-86147445D01*
X129019874Y-86147440D01*
X129019876Y-86147438D01*
X129073401Y-85982706D01*
X129073402Y-85982702D01*
X129100500Y-85811614D01*
X129100500Y-85638385D01*
X129073402Y-85467297D01*
X129073401Y-85467293D01*
X129019876Y-85302561D01*
X129019874Y-85302558D01*
X129019873Y-85302557D01*
X129019873Y-85302555D01*
X128941232Y-85148212D01*
X128839414Y-85008072D01*
X128716928Y-84885586D01*
X128576788Y-84783768D01*
X128576787Y-84783767D01*
X128576785Y-84783766D01*
X128422441Y-84705125D01*
X128422438Y-84705123D01*
X128257706Y-84651598D01*
X128257702Y-84651597D01*
X128086614Y-84624500D01*
X128086611Y-84624500D01*
X126913389Y-84624500D01*
X126913386Y-84624500D01*
X126742297Y-84651597D01*
X126742293Y-84651598D01*
X126577561Y-84705123D01*
X126577558Y-84705125D01*
X126423214Y-84783766D01*
X126283073Y-84885585D01*
X126160585Y-85008073D01*
X126058766Y-85148214D01*
X125980125Y-85302558D01*
X125980123Y-85302561D01*
X125926598Y-85467293D01*
X125926597Y-85467297D01*
X125899500Y-85638385D01*
X125560500Y-85638385D01*
X125533403Y-85467303D01*
X125533400Y-85467293D01*
X125513159Y-85405001D01*
X125513159Y-85343820D01*
X125549122Y-85294319D01*
X125569440Y-85282942D01*
X125573171Y-85281395D01*
X125573186Y-85281392D01*
X125687314Y-85215500D01*
X125780500Y-85122314D01*
X125846392Y-85008186D01*
X125880500Y-84880892D01*
X125880500Y-83821113D01*
X125899407Y-83762922D01*
X125948907Y-83726958D01*
X126010093Y-83726958D01*
X126059590Y-83762920D01*
X126160586Y-83901928D01*
X126283072Y-84024414D01*
X126423212Y-84126232D01*
X126577555Y-84204873D01*
X126577557Y-84204873D01*
X126577558Y-84204874D01*
X126577561Y-84204876D01*
X126742293Y-84258401D01*
X126742297Y-84258402D01*
X126913386Y-84285500D01*
X126913389Y-84285500D01*
X128086614Y-84285500D01*
X128257702Y-84258402D01*
X128257706Y-84258401D01*
X128422438Y-84204876D01*
X128422440Y-84204874D01*
X128422445Y-84204873D01*
X128576788Y-84126232D01*
X128716928Y-84024414D01*
X128839414Y-83901928D01*
X128941232Y-83761788D01*
X129019873Y-83607445D01*
X129019874Y-83607440D01*
X129019876Y-83607438D01*
X129073401Y-83442706D01*
X129073402Y-83442702D01*
X129100500Y-83271614D01*
X129100500Y-83098385D01*
X129073402Y-82927297D01*
X129073401Y-82927293D01*
X129019876Y-82762561D01*
X129019874Y-82762558D01*
X129019873Y-82762557D01*
X129019873Y-82762555D01*
X128941232Y-82608212D01*
X128839414Y-82468072D01*
X128716928Y-82345586D01*
X128576788Y-82243768D01*
X128576787Y-82243767D01*
X128576785Y-82243766D01*
X128422441Y-82165125D01*
X128422438Y-82165123D01*
X128257706Y-82111598D01*
X128257702Y-82111597D01*
X128086614Y-82084500D01*
X128086611Y-82084500D01*
X126913389Y-82084500D01*
X126913386Y-82084500D01*
X126742297Y-82111597D01*
X126742293Y-82111598D01*
X126577561Y-82165123D01*
X126577558Y-82165125D01*
X126423214Y-82243766D01*
X126283073Y-82345585D01*
X126160585Y-82468073D01*
X126059593Y-82607077D01*
X126010092Y-82643041D01*
X125948907Y-82643041D01*
X125899407Y-82607077D01*
X125880500Y-82548886D01*
X125880500Y-81281113D01*
X125899407Y-81222922D01*
X125948907Y-81186958D01*
X126010093Y-81186958D01*
X126059590Y-81222920D01*
X126160586Y-81361928D01*
X126283072Y-81484414D01*
X126423212Y-81586232D01*
X126577555Y-81664873D01*
X126577557Y-81664873D01*
X126577558Y-81664874D01*
X126577561Y-81664876D01*
X126742293Y-81718401D01*
X126742297Y-81718402D01*
X126913386Y-81745500D01*
X126913389Y-81745500D01*
X128086614Y-81745500D01*
X128257702Y-81718402D01*
X128257706Y-81718401D01*
X128422438Y-81664876D01*
X128422440Y-81664874D01*
X128422445Y-81664873D01*
X128576788Y-81586232D01*
X128716928Y-81484414D01*
X128839414Y-81361928D01*
X128941232Y-81221788D01*
X129019873Y-81067445D01*
X129019874Y-81067440D01*
X129019876Y-81067438D01*
X129073401Y-80902706D01*
X129073402Y-80902702D01*
X129100500Y-80731614D01*
X129100500Y-80558385D01*
X129073402Y-80387297D01*
X129073401Y-80387293D01*
X129019876Y-80222561D01*
X129019874Y-80222558D01*
X129019873Y-80222557D01*
X129019873Y-80222555D01*
X128941232Y-80068212D01*
X128839414Y-79928072D01*
X128716928Y-79805586D01*
X128576788Y-79703768D01*
X128576787Y-79703767D01*
X128576785Y-79703766D01*
X128422441Y-79625125D01*
X128422438Y-79625123D01*
X128257706Y-79571598D01*
X128257702Y-79571597D01*
X128086614Y-79544500D01*
X128086611Y-79544500D01*
X126913389Y-79544500D01*
X126913386Y-79544500D01*
X126742297Y-79571597D01*
X126742293Y-79571598D01*
X126577561Y-79625123D01*
X126577558Y-79625125D01*
X126423214Y-79703766D01*
X126283073Y-79805585D01*
X126160585Y-79928073D01*
X126059593Y-80067077D01*
X126010092Y-80103041D01*
X125948907Y-80103041D01*
X125899407Y-80067077D01*
X125880500Y-80008886D01*
X125880500Y-78741113D01*
X125899407Y-78682922D01*
X125948907Y-78646958D01*
X126010093Y-78646958D01*
X126059590Y-78682920D01*
X126160586Y-78821928D01*
X126283072Y-78944414D01*
X126423212Y-79046232D01*
X126577555Y-79124873D01*
X126577557Y-79124873D01*
X126577558Y-79124874D01*
X126577561Y-79124876D01*
X126742293Y-79178401D01*
X126742297Y-79178402D01*
X126913386Y-79205500D01*
X126913389Y-79205500D01*
X128086614Y-79205500D01*
X128257702Y-79178402D01*
X128257706Y-79178401D01*
X128422438Y-79124876D01*
X128422440Y-79124874D01*
X128422445Y-79124873D01*
X128576788Y-79046232D01*
X128716928Y-78944414D01*
X128839414Y-78821928D01*
X128941232Y-78681788D01*
X129019873Y-78527445D01*
X129019874Y-78527440D01*
X129019876Y-78527438D01*
X129073401Y-78362706D01*
X129073402Y-78362702D01*
X129100500Y-78191614D01*
X129100500Y-78018385D01*
X129073402Y-77847297D01*
X129073401Y-77847293D01*
X129019876Y-77682561D01*
X129019874Y-77682558D01*
X129019873Y-77682557D01*
X129019873Y-77682555D01*
X128941232Y-77528212D01*
X128839414Y-77388072D01*
X128716928Y-77265586D01*
X128576788Y-77163768D01*
X128576787Y-77163767D01*
X128576785Y-77163766D01*
X128422441Y-77085125D01*
X128422438Y-77085123D01*
X128257706Y-77031598D01*
X128257702Y-77031597D01*
X128086614Y-77004500D01*
X128086611Y-77004500D01*
X126913389Y-77004500D01*
X126913386Y-77004500D01*
X126742297Y-77031597D01*
X126742293Y-77031598D01*
X126577561Y-77085123D01*
X126577558Y-77085125D01*
X126423214Y-77163766D01*
X126283073Y-77265585D01*
X126160585Y-77388073D01*
X126059593Y-77527077D01*
X126010092Y-77563041D01*
X125948907Y-77563041D01*
X125899407Y-77527077D01*
X125880500Y-77468886D01*
X125880500Y-76201113D01*
X125899407Y-76142922D01*
X125948907Y-76106958D01*
X126010093Y-76106958D01*
X126059590Y-76142920D01*
X126160586Y-76281928D01*
X126283072Y-76404414D01*
X126423212Y-76506232D01*
X126577555Y-76584873D01*
X126577557Y-76584873D01*
X126577558Y-76584874D01*
X126577561Y-76584876D01*
X126742293Y-76638401D01*
X126742297Y-76638402D01*
X126913386Y-76665500D01*
X126913389Y-76665500D01*
X128086614Y-76665500D01*
X128257702Y-76638402D01*
X128257706Y-76638401D01*
X128422438Y-76584876D01*
X128422440Y-76584874D01*
X128422445Y-76584873D01*
X128576788Y-76506232D01*
X128716928Y-76404414D01*
X128839414Y-76281928D01*
X128941232Y-76141788D01*
X129019873Y-75987445D01*
X129019874Y-75987440D01*
X129019876Y-75987438D01*
X129073401Y-75822706D01*
X129073402Y-75822702D01*
X129100500Y-75651614D01*
X129100500Y-75478385D01*
X129073402Y-75307297D01*
X129073401Y-75307293D01*
X129019876Y-75142561D01*
X129019874Y-75142558D01*
X129019873Y-75142557D01*
X129019873Y-75142555D01*
X128941232Y-74988212D01*
X128839414Y-74848072D01*
X128716928Y-74725586D01*
X128576788Y-74623768D01*
X128576787Y-74623767D01*
X128576785Y-74623766D01*
X128422441Y-74545125D01*
X128422438Y-74545123D01*
X128257706Y-74491598D01*
X128257702Y-74491597D01*
X128086614Y-74464500D01*
X128086611Y-74464500D01*
X126913389Y-74464500D01*
X126913386Y-74464500D01*
X126742297Y-74491597D01*
X126742293Y-74491598D01*
X126577561Y-74545123D01*
X126577558Y-74545125D01*
X126423214Y-74623766D01*
X126294548Y-74717248D01*
X126283072Y-74725586D01*
X126160586Y-74848072D01*
X126088100Y-74947841D01*
X126059593Y-74987077D01*
X126010092Y-75023041D01*
X125948907Y-75023041D01*
X125899407Y-74987077D01*
X125880500Y-74928886D01*
X125880500Y-73661113D01*
X125899407Y-73602922D01*
X125948907Y-73566958D01*
X126010093Y-73566958D01*
X126059590Y-73602920D01*
X126160586Y-73741928D01*
X126283072Y-73864414D01*
X126423212Y-73966232D01*
X126577555Y-74044873D01*
X126577557Y-74044873D01*
X126577558Y-74044874D01*
X126577561Y-74044876D01*
X126742293Y-74098401D01*
X126742297Y-74098402D01*
X126913386Y-74125500D01*
X126913389Y-74125500D01*
X128086614Y-74125500D01*
X128257702Y-74098402D01*
X128257706Y-74098401D01*
X128422438Y-74044876D01*
X128422440Y-74044874D01*
X128422445Y-74044873D01*
X128576788Y-73966232D01*
X128716928Y-73864414D01*
X128839414Y-73741928D01*
X128941232Y-73601788D01*
X129019873Y-73447445D01*
X129019874Y-73447440D01*
X129019876Y-73447438D01*
X129073401Y-73282706D01*
X129073402Y-73282702D01*
X129100500Y-73111614D01*
X129100500Y-72938385D01*
X129073402Y-72767297D01*
X129073401Y-72767293D01*
X129019876Y-72602561D01*
X129019874Y-72602558D01*
X129019873Y-72602557D01*
X129019873Y-72602555D01*
X128941232Y-72448212D01*
X128839414Y-72308072D01*
X128716928Y-72185586D01*
X128576788Y-72083768D01*
X128576787Y-72083767D01*
X128576785Y-72083766D01*
X128422441Y-72005125D01*
X128422438Y-72005123D01*
X128257706Y-71951598D01*
X128257702Y-71951597D01*
X128086614Y-71924500D01*
X128086611Y-71924500D01*
X126913389Y-71924500D01*
X126913386Y-71924500D01*
X126742297Y-71951597D01*
X126742293Y-71951598D01*
X126577561Y-72005123D01*
X126577558Y-72005125D01*
X126423214Y-72083766D01*
X126283073Y-72185585D01*
X126160585Y-72308073D01*
X126059593Y-72447077D01*
X126010092Y-72483041D01*
X125948907Y-72483041D01*
X125899407Y-72447077D01*
X125880500Y-72388886D01*
X125880500Y-71121113D01*
X125899407Y-71062922D01*
X125948907Y-71026958D01*
X126010093Y-71026958D01*
X126059590Y-71062920D01*
X126160586Y-71201928D01*
X126283072Y-71324414D01*
X126423212Y-71426232D01*
X126577555Y-71504873D01*
X126577557Y-71504873D01*
X126577558Y-71504874D01*
X126577561Y-71504876D01*
X126742293Y-71558401D01*
X126742297Y-71558402D01*
X126913386Y-71585500D01*
X126913389Y-71585500D01*
X128086614Y-71585500D01*
X128257702Y-71558402D01*
X128257706Y-71558401D01*
X128422438Y-71504876D01*
X128422440Y-71504874D01*
X128422445Y-71504873D01*
X128576788Y-71426232D01*
X128716928Y-71324414D01*
X128839414Y-71201928D01*
X128941232Y-71061788D01*
X129019873Y-70907445D01*
X129019874Y-70907440D01*
X129019876Y-70907438D01*
X129073401Y-70742706D01*
X129073402Y-70742702D01*
X129100500Y-70571614D01*
X129100500Y-70398385D01*
X129073402Y-70227297D01*
X129073401Y-70227293D01*
X129019876Y-70062561D01*
X129019874Y-70062558D01*
X129019873Y-70062557D01*
X129019873Y-70062555D01*
X128941232Y-69908212D01*
X128839414Y-69768072D01*
X128716928Y-69645586D01*
X128576788Y-69543768D01*
X128576787Y-69543767D01*
X128576785Y-69543766D01*
X128422441Y-69465125D01*
X128422438Y-69465123D01*
X128257706Y-69411598D01*
X128257702Y-69411597D01*
X128086614Y-69384500D01*
X128086611Y-69384500D01*
X126913389Y-69384500D01*
X126913386Y-69384500D01*
X126742297Y-69411597D01*
X126742293Y-69411598D01*
X126577561Y-69465123D01*
X126577558Y-69465125D01*
X126423214Y-69543766D01*
X126283073Y-69645585D01*
X126160585Y-69768073D01*
X126153670Y-69777591D01*
X126082443Y-69875627D01*
X126059593Y-69907077D01*
X126010092Y-69943041D01*
X125948907Y-69943041D01*
X125899407Y-69907077D01*
X125880500Y-69848886D01*
X125880500Y-68581113D01*
X125899407Y-68522922D01*
X125948907Y-68486958D01*
X126010093Y-68486958D01*
X126059590Y-68522920D01*
X126160586Y-68661928D01*
X126283072Y-68784414D01*
X126423212Y-68886232D01*
X126577555Y-68964873D01*
X126577557Y-68964873D01*
X126577558Y-68964874D01*
X126577561Y-68964876D01*
X126742293Y-69018401D01*
X126742297Y-69018402D01*
X126913386Y-69045500D01*
X126913389Y-69045500D01*
X128086614Y-69045500D01*
X128257702Y-69018402D01*
X128257706Y-69018401D01*
X128422438Y-68964876D01*
X128422440Y-68964874D01*
X128422445Y-68964873D01*
X128576788Y-68886232D01*
X128716928Y-68784414D01*
X128839414Y-68661928D01*
X128941232Y-68521788D01*
X129019873Y-68367445D01*
X129019874Y-68367440D01*
X129019876Y-68367438D01*
X129073401Y-68202706D01*
X129073402Y-68202702D01*
X129100500Y-68031614D01*
X129100500Y-67858385D01*
X129073402Y-67687297D01*
X129073401Y-67687293D01*
X129019876Y-67522561D01*
X129019874Y-67522558D01*
X129019873Y-67522557D01*
X129019873Y-67522555D01*
X128941232Y-67368212D01*
X128839414Y-67228072D01*
X128716928Y-67105586D01*
X128576788Y-67003768D01*
X128576787Y-67003767D01*
X128576785Y-67003766D01*
X128422441Y-66925125D01*
X128422438Y-66925123D01*
X128257706Y-66871598D01*
X128257702Y-66871597D01*
X128086614Y-66844500D01*
X128086611Y-66844500D01*
X126913389Y-66844500D01*
X126913386Y-66844500D01*
X126742297Y-66871597D01*
X126742293Y-66871598D01*
X126577561Y-66925123D01*
X126577558Y-66925125D01*
X126423214Y-67003766D01*
X126322889Y-67076657D01*
X126283072Y-67105586D01*
X126160586Y-67228072D01*
X126066122Y-67358091D01*
X126059593Y-67367077D01*
X126010092Y-67403041D01*
X125948907Y-67403041D01*
X125899407Y-67367077D01*
X125880500Y-67308886D01*
X125880500Y-66041113D01*
X125899407Y-65982922D01*
X125948907Y-65946958D01*
X126010093Y-65946958D01*
X126059590Y-65982920D01*
X126160586Y-66121928D01*
X126283072Y-66244414D01*
X126423212Y-66346232D01*
X126577555Y-66424873D01*
X126577557Y-66424873D01*
X126577558Y-66424874D01*
X126577561Y-66424876D01*
X126742293Y-66478401D01*
X126742297Y-66478402D01*
X126913386Y-66505500D01*
X126913389Y-66505500D01*
X128086614Y-66505500D01*
X128257702Y-66478402D01*
X128257706Y-66478401D01*
X128422438Y-66424876D01*
X128422440Y-66424874D01*
X128422445Y-66424873D01*
X128576788Y-66346232D01*
X128716928Y-66244414D01*
X128839414Y-66121928D01*
X128941232Y-65981788D01*
X129019873Y-65827445D01*
X129019874Y-65827440D01*
X129019876Y-65827438D01*
X129073401Y-65662706D01*
X129073402Y-65662702D01*
X129100500Y-65491614D01*
X129100500Y-65318385D01*
X129073402Y-65147297D01*
X129073401Y-65147293D01*
X129019876Y-64982561D01*
X129019874Y-64982558D01*
X129019873Y-64982557D01*
X129019873Y-64982555D01*
X128941232Y-64828212D01*
X128839414Y-64688072D01*
X128716928Y-64565586D01*
X128576788Y-64463768D01*
X128576787Y-64463767D01*
X128576785Y-64463766D01*
X128422441Y-64385125D01*
X128422438Y-64385123D01*
X128257706Y-64331598D01*
X128257702Y-64331597D01*
X128086614Y-64304500D01*
X128086611Y-64304500D01*
X126913389Y-64304500D01*
X126913386Y-64304500D01*
X126742297Y-64331597D01*
X126742293Y-64331598D01*
X126577561Y-64385123D01*
X126577558Y-64385125D01*
X126423214Y-64463766D01*
X126283073Y-64565585D01*
X126160585Y-64688073D01*
X126059593Y-64827077D01*
X126010092Y-64863041D01*
X125948907Y-64863041D01*
X125899407Y-64827077D01*
X125880500Y-64768886D01*
X125880500Y-64099500D01*
X125899407Y-64041309D01*
X125948907Y-64005345D01*
X125979500Y-64000500D01*
X142174108Y-64000500D01*
X142235139Y-64000500D01*
X142244842Y-64000976D01*
X142380418Y-64014330D01*
X142399451Y-64018116D01*
X142525148Y-64056245D01*
X142543071Y-64063670D01*
X142658915Y-64125589D01*
X142675043Y-64136365D01*
X142748018Y-64196254D01*
X142776581Y-64219695D01*
X142790304Y-64233418D01*
X142870877Y-64331597D01*
X142873631Y-64334952D01*
X142884411Y-64351087D01*
X142906650Y-64392692D01*
X142946328Y-64466925D01*
X142953755Y-64484855D01*
X142991883Y-64610548D01*
X142995669Y-64629582D01*
X143009023Y-64765157D01*
X143009500Y-64774861D01*
X143009500Y-118740138D01*
X143009023Y-118749842D01*
X142995669Y-118885417D01*
X142991883Y-118904451D01*
X142953755Y-119030144D01*
X142946328Y-119048074D01*
X142884413Y-119163910D01*
X142873631Y-119180047D01*
X142790304Y-119281581D01*
X142776581Y-119295304D01*
X142675047Y-119378631D01*
X142658910Y-119389413D01*
X142543074Y-119451328D01*
X142525144Y-119458755D01*
X142399451Y-119496883D01*
X142380418Y-119500669D01*
X142260442Y-119512486D01*
X142244841Y-119514023D01*
X142235139Y-119514500D01*
X64774861Y-119514500D01*
X64765157Y-119514023D01*
X64629582Y-119500669D01*
X64610548Y-119496883D01*
X64484855Y-119458755D01*
X64466925Y-119451328D01*
X64351089Y-119389413D01*
X64334952Y-119378631D01*
X64233418Y-119295304D01*
X64219695Y-119281581D01*
X64196254Y-119253018D01*
X64136365Y-119180043D01*
X64125589Y-119163915D01*
X64063670Y-119048071D01*
X64056244Y-119030144D01*
X64018116Y-118904451D01*
X64014330Y-118885417D01*
X64000977Y-118749842D01*
X64000500Y-118740138D01*
X64000500Y-86880839D01*
X68274500Y-86880839D01*
X68274500Y-87109160D01*
X68310214Y-87334655D01*
X68380769Y-87551799D01*
X68484420Y-87755227D01*
X68484424Y-87755233D01*
X68618616Y-87939931D01*
X68618618Y-87939933D01*
X68618621Y-87939937D01*
X68780063Y-88101379D01*
X68780066Y-88101381D01*
X68780068Y-88101383D01*
X68964766Y-88235575D01*
X68964772Y-88235579D01*
X69168201Y-88339231D01*
X69385340Y-88409784D01*
X69385341Y-88409784D01*
X69385344Y-88409785D01*
X69610840Y-88445500D01*
X69610843Y-88445500D01*
X69839160Y-88445500D01*
X70064655Y-88409785D01*
X70064656Y-88409784D01*
X70064660Y-88409784D01*
X70281799Y-88339231D01*
X70485228Y-88235579D01*
X70669937Y-88101379D01*
X70831379Y-87939937D01*
X70965579Y-87755228D01*
X71069231Y-87551799D01*
X71139784Y-87334660D01*
X71140600Y-87329507D01*
X71175500Y-87109160D01*
X71175500Y-86880839D01*
X72274500Y-86880839D01*
X72274500Y-87109160D01*
X72310214Y-87334655D01*
X72380769Y-87551799D01*
X72484420Y-87755227D01*
X72484424Y-87755233D01*
X72618616Y-87939931D01*
X72618618Y-87939933D01*
X72618621Y-87939937D01*
X72780063Y-88101379D01*
X72780066Y-88101381D01*
X72780068Y-88101383D01*
X72964766Y-88235575D01*
X72964772Y-88235579D01*
X73168201Y-88339231D01*
X73385340Y-88409784D01*
X73385341Y-88409784D01*
X73385344Y-88409785D01*
X73610840Y-88445500D01*
X73610843Y-88445500D01*
X73839160Y-88445500D01*
X74064655Y-88409785D01*
X74064656Y-88409784D01*
X74064660Y-88409784D01*
X74281799Y-88339231D01*
X74485228Y-88235579D01*
X74669937Y-88101379D01*
X74831379Y-87939937D01*
X74965579Y-87755228D01*
X75069231Y-87551799D01*
X75139784Y-87334660D01*
X75140600Y-87329507D01*
X75175500Y-87109160D01*
X75175500Y-86880839D01*
X75139785Y-86655344D01*
X75128410Y-86620336D01*
X75069231Y-86438201D01*
X74965579Y-86234772D01*
X74908651Y-86156418D01*
X74831383Y-86050068D01*
X74831381Y-86050066D01*
X74831379Y-86050063D01*
X74669937Y-85888621D01*
X74669933Y-85888618D01*
X74669931Y-85888616D01*
X74485233Y-85754424D01*
X74485227Y-85754420D01*
X74281799Y-85650769D01*
X74064655Y-85580214D01*
X73839160Y-85544500D01*
X73839157Y-85544500D01*
X73610843Y-85544500D01*
X73610840Y-85544500D01*
X73385344Y-85580214D01*
X73168200Y-85650769D01*
X72964772Y-85754420D01*
X72964766Y-85754424D01*
X72780068Y-85888616D01*
X72618616Y-86050068D01*
X72484424Y-86234766D01*
X72484420Y-86234772D01*
X72380769Y-86438200D01*
X72310214Y-86655344D01*
X72274500Y-86880839D01*
X71175500Y-86880839D01*
X71139785Y-86655344D01*
X71128410Y-86620336D01*
X71069231Y-86438201D01*
X70965579Y-86234772D01*
X70908651Y-86156418D01*
X70831383Y-86050068D01*
X70831381Y-86050066D01*
X70831379Y-86050063D01*
X70669937Y-85888621D01*
X70669933Y-85888618D01*
X70669931Y-85888616D01*
X70485233Y-85754424D01*
X70485227Y-85754420D01*
X70281799Y-85650769D01*
X70064655Y-85580214D01*
X69839160Y-85544500D01*
X69839157Y-85544500D01*
X69610843Y-85544500D01*
X69610840Y-85544500D01*
X69385344Y-85580214D01*
X69168200Y-85650769D01*
X68964772Y-85754420D01*
X68964766Y-85754424D01*
X68780068Y-85888616D01*
X68618616Y-86050068D01*
X68484424Y-86234766D01*
X68484420Y-86234772D01*
X68380769Y-86438200D01*
X68310214Y-86655344D01*
X68274500Y-86880839D01*
X64000500Y-86880839D01*
X64000500Y-74208424D01*
X95825000Y-74208424D01*
X95825000Y-74381575D01*
X95852084Y-74552579D01*
X95905588Y-74717248D01*
X95984196Y-74871524D01*
X95988708Y-74877735D01*
X96571445Y-74294999D01*
X95988708Y-73712262D01*
X95984194Y-73718478D01*
X95905588Y-73872751D01*
X95852084Y-74037420D01*
X95825000Y-74208424D01*
X64000500Y-74208424D01*
X64000500Y-64774861D01*
X64000977Y-64765157D01*
X64014330Y-64629582D01*
X64018116Y-64610548D01*
X64031755Y-64565586D01*
X64056246Y-64484848D01*
X64063668Y-64466931D01*
X64125592Y-64351079D01*
X64136361Y-64334961D01*
X64219698Y-64233414D01*
X64233414Y-64219698D01*
X64334961Y-64136361D01*
X64351079Y-64125592D01*
X64466931Y-64063668D01*
X64484848Y-64056246D01*
X64610550Y-64018115D01*
X64629579Y-64014330D01*
X64765157Y-64000976D01*
X64774861Y-64000500D01*
X64835892Y-64000500D01*
X112780500Y-64000500D01*
X112838691Y-64019407D01*
G37*
%TD.AperFunction*%
%TA.AperFunction,Conductor*%
G36*
X118277849Y-85334407D02*
G01*
X118313813Y-85383907D01*
X118313813Y-85445093D01*
X118306597Y-85467301D01*
X118279500Y-85638385D01*
X118279500Y-86811614D01*
X118306597Y-86982702D01*
X118306598Y-86982706D01*
X118360123Y-87147438D01*
X118360125Y-87147441D01*
X118422673Y-87270201D01*
X118438768Y-87301788D01*
X118540586Y-87441928D01*
X118663072Y-87564414D01*
X118803212Y-87666232D01*
X118875445Y-87703036D01*
X118918709Y-87746299D01*
X118929500Y-87791245D01*
X118929500Y-89594309D01*
X118953713Y-89684673D01*
X118953712Y-89684673D01*
X118960200Y-89708886D01*
X118960202Y-89708890D01*
X119019507Y-89811609D01*
X119019509Y-89811611D01*
X119019511Y-89811614D01*
X120373386Y-91165489D01*
X120373388Y-91165490D01*
X120373390Y-91165492D01*
X120476107Y-91224796D01*
X120476109Y-91224797D01*
X120476113Y-91224799D01*
X120500322Y-91231284D01*
X120500325Y-91231287D01*
X120500326Y-91231286D01*
X120590688Y-91255499D01*
X120590690Y-91255500D01*
X120590691Y-91255500D01*
X131504309Y-91255500D01*
X131594669Y-91231287D01*
X131594672Y-91231287D01*
X131607903Y-91227741D01*
X131618887Y-91224799D01*
X131721614Y-91165489D01*
X134717607Y-88169496D01*
X134772124Y-88141719D01*
X134787611Y-88140500D01*
X137236521Y-88140500D01*
X137294712Y-88159407D01*
X137324731Y-88194555D01*
X137372980Y-88289251D01*
X137388240Y-88319199D01*
X137499310Y-88472073D01*
X137632927Y-88605690D01*
X137785801Y-88716760D01*
X137954168Y-88802547D01*
X138087425Y-88845845D01*
X138136925Y-88881809D01*
X138155832Y-88940000D01*
X138136925Y-88998191D01*
X138087425Y-89034155D01*
X137954167Y-89077453D01*
X137785803Y-89163238D01*
X137632928Y-89274309D01*
X137499309Y-89407928D01*
X137388238Y-89560803D01*
X137324731Y-89685445D01*
X137281466Y-89728710D01*
X137236521Y-89739500D01*
X134540691Y-89739500D01*
X134495508Y-89751606D01*
X134450325Y-89763713D01*
X134450324Y-89763712D01*
X134426115Y-89770200D01*
X134426113Y-89770200D01*
X134426113Y-89770201D01*
X134323386Y-89829510D01*
X132791957Y-91360940D01*
X131287393Y-92865504D01*
X131232876Y-92893281D01*
X131217389Y-92894500D01*
X118337611Y-92894500D01*
X118279420Y-92875593D01*
X118267607Y-92865504D01*
X117319496Y-91917393D01*
X117291719Y-91862876D01*
X117290500Y-91847389D01*
X117290500Y-87791245D01*
X117309407Y-87733054D01*
X117344554Y-87703036D01*
X117416788Y-87666232D01*
X117556928Y-87564414D01*
X117679414Y-87441928D01*
X117781232Y-87301788D01*
X117859873Y-87147445D01*
X117859874Y-87147440D01*
X117859876Y-87147438D01*
X117913401Y-86982706D01*
X117913402Y-86982702D01*
X117940500Y-86811614D01*
X117940500Y-85638385D01*
X117920517Y-85512221D01*
X117913402Y-85467299D01*
X117906187Y-85445093D01*
X117906187Y-85383907D01*
X117942151Y-85334407D01*
X118000342Y-85315500D01*
X118219658Y-85315500D01*
X118277849Y-85334407D01*
G37*
%TD.AperFunction*%
%TD*%
M02*
