M48
; DRILL file {KiCad 9.0.6} date 2026-06-17T23:20:46+0900
; FORMAT={-:-/ absolute / metric / decimal}
; #@! TF.CreationDate,2026-06-17T23:20:46+09:00
; #@! TF.GenerationSoftware,Kicad,Pcbnew,9.0.6
; #@! TF.FileFunction,Plated,1,2,PTH
FMAT,2
METRIC
; #@! TA.AperFunction,Plated,PTH,ViaDrill
T1C0.300
; #@! TA.AperFunction,Plated,PTH,ComponentDrill
T2C0.600
; #@! TA.AperFunction,Plated,PTH,ComponentDrill
T3C0.950
; #@! TA.AperFunction,Plated,PTH,ComponentDrill
T4C1.000
; #@! TA.AperFunction,Plated,PTH,ComponentDrill
T5C1.100
; #@! TA.AperFunction,Plated,PTH,ComponentDrill
T6C1.200
; #@! TA.AperFunction,Plated,PTH,ComponentDrill
T7C4.300
%
G90
G05
T1
X64.77Y-69.85
X65.405Y-95.25
X65.405Y-99.695
X65.405Y-112.395
X65.405Y-116.84
X68.58Y-68.58
X69.85Y-81.28
X69.85Y-90.17
X69.85Y-95.25
X69.85Y-99.695
X69.85Y-112.395
X69.85Y-116.84
X70.485Y-64.77
X71.755Y-83.185
X72.39Y-78.74
X73.025Y-72.39
X74.295Y-80.645
X74.295Y-84.455
X75.565Y-72.39
X76.2Y-90.17
X76.2Y-95.25
X76.2Y-99.695
X76.2Y-104.14
X76.2Y-108.585
X76.2Y-112.395
X76.835Y-66.675
X76.835Y-77.47
X78.74Y-72.39
X78.74Y-117.475
X80.645Y-83.185
X82.55Y-90.17
X82.55Y-95.25
X82.55Y-99.695
X82.55Y-103.505
X83.185Y-73.66
X84.455Y-75.565
X85.725Y-73.66
X86.36Y-108.585
X86.995Y-115.57
X88.265Y-118.745
X88.9Y-71.12
X88.9Y-90.17
X88.9Y-93.98
X90.805Y-83.185
X93.345Y-73.66
X93.98Y-71.12
X93.98Y-90.17
X93.98Y-95.25
X93.98Y-99.695
X93.98Y-103.505
X93.98Y-117.475
X94.615Y-83.82
X94.615Y-106.68
X95.885Y-68.58
X95.885Y-109.855
X97.155Y-67.31
X97.79Y-109.22
X99.695Y-84.455
X100.33Y-67.31
X100.33Y-72.39
X100.33Y-74.295
X100.33Y-78.105
X100.33Y-90.17
X100.33Y-95.25
X100.33Y-99.695
X100.33Y-103.505
X101.6Y-108.585
X102.235Y-115.57
X103.505Y-118.745
X104.775Y-67.31
X104.775Y-79.375
X106.045Y-80.645
X106.68Y-68.58
X106.68Y-71.12
X107.315Y-81.915
X107.95Y-67.31
X107.95Y-69.85
X107.95Y-72.39
X107.95Y-86.995
X107.95Y-90.805
X108.585Y-83.185
X108.585Y-95.25
X108.585Y-99.695
X108.585Y-103.505
X109.22Y-117.475
X109.855Y-74.295
X109.855Y-76.835
X109.855Y-79.375
X109.855Y-81.915
X109.855Y-106.68
X111.125Y-109.855
X111.76Y-88.9
X113.03Y-109.22
X114.3Y-95.25
X114.3Y-99.695
X114.3Y-103.505
X115.57Y-91.44
X116.84Y-108.585
X117.475Y-115.57
X118.11Y-88.9
X118.745Y-91.44
X118.745Y-118.745
X119.38Y-95.25
X119.38Y-99.695
X120.65Y-88.9
X122.555Y-92.075
X123.19Y-88.9
X123.825Y-95.25
X123.825Y-99.695
X123.825Y-103.505
X124.46Y-117.475
X125.095Y-106.68
X125.73Y-88.9
X125.73Y-92.075
X128.905Y-88.9
X128.905Y-92.075
X128.905Y-95.25
X128.905Y-99.695
X128.905Y-104.775
X128.905Y-109.22
X129.54Y-66.675
X130.175Y-73.025
X130.175Y-76.835
X130.175Y-79.375
X130.175Y-82.55
X131.445Y-69.215
X132.08Y-113.665
X132.715Y-115.57
X133.985Y-104.775
X133.985Y-109.22
X134.62Y-68.58
X134.62Y-73.66
X134.62Y-81.28
X134.62Y-118.745
X135.255Y-86.36
X135.255Y-88.9
X135.255Y-91.44
X135.255Y-113.665
X135.89Y-99.695
X136.525Y-64.77
X140.335Y-69.85
X140.335Y-88.9
X141.605Y-81.28
X141.605Y-83.82
X141.605Y-99.695
X142.24Y-66.04
X142.24Y-113.665
T2
X96.925Y-74.295
X98.425Y-74.295
X102.235Y-74.295
X103.735Y-74.295
T3
X66.735Y-66.785
X69.235Y-66.785
X71.735Y-66.785
X74.235Y-66.785
X76.895Y-115.68
X79.395Y-115.68
X81.895Y-115.68
X84.395Y-115.68
X84.515Y-106.79
X87.015Y-106.79
X89.515Y-106.79
X92.015Y-106.79
X92.135Y-115.68
X94.635Y-115.68
X97.135Y-115.68
X99.635Y-115.68
X99.755Y-106.79
X102.255Y-106.79
X104.755Y-106.79
X107.255Y-106.79
X107.375Y-115.68
X109.875Y-115.68
X112.375Y-115.68
X114.875Y-115.68
X114.995Y-106.79
X117.495Y-106.79
X119.995Y-106.79
X122.495Y-106.79
X122.615Y-115.68
X125.115Y-115.68
X127.615Y-115.68
X130.115Y-115.68
X132.775Y-66.785
X135.275Y-66.785
X137.775Y-66.785
X138.54Y-87.69
X138.54Y-90.19
X138.54Y-92.69
X138.54Y-95.19
X140.275Y-66.785
T4
X87.015Y-97.9
X89.515Y-97.9
X111.76Y-65.405
X111.76Y-67.945
X111.76Y-70.485
X111.76Y-73.025
X111.76Y-75.565
X111.76Y-78.105
X111.76Y-80.645
X111.76Y-83.185
X111.76Y-85.725
X114.3Y-85.725
X116.84Y-85.725
X119.38Y-85.725
X121.92Y-85.725
X124.46Y-85.725
X127.0Y-65.405
X127.0Y-67.945
X127.0Y-70.485
X127.0Y-73.025
X127.0Y-75.565
X127.0Y-78.105
X127.0Y-80.645
X127.0Y-83.185
X127.0Y-85.725
T5
X97.79Y-69.85
X100.33Y-69.85
X102.87Y-69.85
T6
X69.725Y-86.995
X73.725Y-86.995
X77.725Y-86.995
X81.725Y-86.995
X85.725Y-86.995
X89.725Y-86.995
X93.725Y-86.995
X97.725Y-86.995
X101.725Y-86.995
T7
X67.945Y-76.2
X67.945Y-107.315
X139.065Y-76.2
X139.065Y-107.315
T4
X84.175Y-83.495G85X87.275Y-83.495
G05
M30
