%TF.GenerationSoftware,KiCad,Pcbnew,9.0.6*%
%TF.CreationDate,2026-06-17T23:20:41+09:00*%
%TF.ProjectId,dao-4p-harness,64616f2d-3470-42d6-9861-726e6573732e,rev?*%
%TF.SameCoordinates,Original*%
%TF.FileFunction,Copper,L2,Bot*%
%TF.FilePolarity,Positive*%
%FSLAX46Y46*%
G04 Gerber Fmt 4.6, Leading zero omitted, Abs format (unit mm)*
G04 Created by KiCad (PCBNEW 9.0.6) date 2026-06-17 23:20:41*
%MOMM*%
%LPD*%
G01*
G04 APERTURE LIST*
G04 Aperture macros list*
%AMRoundRect*
0 Rectangle with rounded corners*
0 $1 Rounding radius*
0 $2 $3 $4 $5 $6 $7 $8 $9 X,Y pos of 4 corners*
0 Add a 4 corners polygon primitive as box body*
4,1,4,$2,$3,$4,$5,$6,$7,$8,$9,$2,$3,0*
0 Add four circle primitives for the rounded corners*
1,1,$1+$1,$2,$3*
1,1,$1+$1,$4,$5*
1,1,$1+$1,$6,$7*
1,1,$1+$1,$8,$9*
0 Add four rect primitives between the rounded corners*
20,1,$1+$1,$2,$3,$4,$5,0*
20,1,$1+$1,$4,$5,$6,$7,0*
20,1,$1+$1,$6,$7,$8,$9,0*
20,1,$1+$1,$8,$9,$2,$3,0*%
G04 Aperture macros list end*
%TA.AperFunction,ComponentPad*%
%ADD10RoundRect,0.250000X-0.600000X-0.725000X0.600000X-0.725000X0.600000X0.725000X-0.600000X0.725000X0*%
%TD*%
%TA.AperFunction,ComponentPad*%
%ADD11O,1.700000X1.950000*%
%TD*%
%TA.AperFunction,ComponentPad*%
%ADD12C,2.200000*%
%TD*%
%TA.AperFunction,ComponentPad*%
%ADD13O,5.005000X1.905000*%
%TD*%
%TA.AperFunction,ComponentPad*%
%ADD14C,7.500000*%
%TD*%
%TA.AperFunction,ComponentPad*%
%ADD15R,1.905000X2.000000*%
%TD*%
%TA.AperFunction,ComponentPad*%
%ADD16O,1.905000X2.000000*%
%TD*%
%TA.AperFunction,ComponentPad*%
%ADD17RoundRect,0.250000X0.350000X0.350000X-0.350000X0.350000X-0.350000X-0.350000X0.350000X-0.350000X0*%
%TD*%
%TA.AperFunction,ComponentPad*%
%ADD18C,1.200000*%
%TD*%
%TA.AperFunction,ComponentPad*%
%ADD19RoundRect,0.250000X-0.350000X-0.350000X0.350000X-0.350000X0.350000X0.350000X-0.350000X0.350000X0*%
%TD*%
%TA.AperFunction,ComponentPad*%
%ADD20O,2.500000X1.500000*%
%TD*%
%TA.AperFunction,ComponentPad*%
%ADD21O,1.500000X2.500000*%
%TD*%
%TA.AperFunction,ComponentPad*%
%ADD22RoundRect,0.250000X0.725000X-0.600000X0.725000X0.600000X-0.725000X0.600000X-0.725000X-0.600000X0*%
%TD*%
%TA.AperFunction,ComponentPad*%
%ADD23O,1.950000X1.700000*%
%TD*%
%TA.AperFunction,ComponentPad*%
%ADD24RoundRect,0.250000X-0.600000X-0.750000X0.600000X-0.750000X0.600000X0.750000X-0.600000X0.750000X0*%
%TD*%
%TA.AperFunction,ComponentPad*%
%ADD25O,1.700000X2.000000*%
%TD*%
%TA.AperFunction,SMDPad,CuDef*%
%ADD26RoundRect,0.112500X-0.187500X-0.112500X0.187500X-0.112500X0.187500X0.112500X-0.187500X0.112500X0*%
%TD*%
%TA.AperFunction,ViaPad*%
%ADD27C,0.600000*%
%TD*%
%TA.AperFunction,Conductor*%
%ADD28C,0.200000*%
%TD*%
%TA.AperFunction,Conductor*%
%ADD29C,1.000000*%
%TD*%
G04 APERTURE END LIST*
D10*
%TO.P,J9,1,Pin_1*%
%TO.N,Net-(D9-K)*%
X66735000Y-66785000D03*
D11*
%TO.P,J9,2,Pin_2*%
X69235000Y-66785000D03*
%TO.P,J9,3,Pin_3*%
%TO.N,+5V*%
X71735000Y-66785000D03*
%TO.P,J9,4,Pin_4*%
%TO.N,GND*%
X74235000Y-66785000D03*
%TD*%
D12*
%TO.P,J14,1,Pin_1*%
%TO.N,PSX_DAT*%
X69725000Y-86995000D03*
%TO.P,J14,2,Pin_2*%
%TO.N,PSX_CMD*%
X73725000Y-86995000D03*
%TO.P,J14,3,Pin_3*%
%TO.N,+7.5V*%
X77725000Y-86995000D03*
%TO.P,J14,4,Pin_4*%
%TO.N,GND*%
X81725000Y-86995000D03*
%TO.P,J14,5,Pin_5*%
%TO.N,+3V3_PSX*%
X85725000Y-86995000D03*
%TO.P,J14,6,Pin_6*%
%TO.N,PSX_ATT*%
X89725000Y-86995000D03*
%TO.P,J14,7,Pin_7*%
%TO.N,PSX_SCK*%
X93725000Y-86995000D03*
%TO.P,J14,8,Pin_8*%
%TO.N,unconnected-(J14-Pin_8-Pad8)*%
X97725000Y-86995000D03*
%TO.P,J14,9,Pin_9*%
%TO.N,PSX_ACK*%
X101725000Y-86995000D03*
D13*
%TO.P,J14,10,Pin_10*%
%TO.N,GND*%
X85725000Y-83495000D03*
%TD*%
D10*
%TO.P,J8,1,Pin_1*%
%TO.N,Net-(D1-K)*%
X132775000Y-66785000D03*
D11*
%TO.P,J8,2,Pin_2*%
X135275000Y-66785000D03*
%TO.P,J8,3,Pin_3*%
%TO.N,+5V*%
X137775000Y-66785000D03*
%TO.P,J8,4,Pin_4*%
%TO.N,GND*%
X140275000Y-66785000D03*
%TD*%
D10*
%TO.P,J5,1,Pin_1*%
%TO.N,Net-(D7-K)*%
X92135000Y-115680000D03*
D11*
%TO.P,J5,2,Pin_2*%
X94635000Y-115680000D03*
%TO.P,J5,3,Pin_3*%
%TO.N,+5V*%
X97135000Y-115680000D03*
%TO.P,J5,4,Pin_4*%
%TO.N,GND*%
X99635000Y-115680000D03*
%TD*%
D10*
%TO.P,J6,1,Pin_1*%
%TO.N,Net-(D4-K)*%
X84515000Y-106790000D03*
D11*
%TO.P,J6,2,Pin_2*%
X87015000Y-106790000D03*
%TO.P,J6,3,Pin_3*%
%TO.N,+5V*%
X89515000Y-106790000D03*
%TO.P,J6,4,Pin_4*%
%TO.N,GND*%
X92015000Y-106790000D03*
%TD*%
D14*
%TO.P,H3,1,1*%
%TO.N,GND*%
X67945000Y-107315000D03*
%TD*%
D15*
%TO.P,U2,1,IN*%
%TO.N,+7.5V*%
X97790000Y-69850000D03*
D16*
%TO.P,U2,2,GND*%
%TO.N,GND*%
X100330000Y-69850000D03*
%TO.P,U2,3,OUT*%
%TO.N,+5V*%
X102870000Y-69850000D03*
%TD*%
D10*
%TO.P,J1,1,Pin_1*%
%TO.N,Net-(D5-K)*%
X122615000Y-115680000D03*
D11*
%TO.P,J1,2,Pin_2*%
X125115000Y-115680000D03*
%TO.P,J1,3,Pin_3*%
%TO.N,+5V*%
X127615000Y-115680000D03*
%TO.P,J1,4,Pin_4*%
%TO.N,GND*%
X130115000Y-115680000D03*
%TD*%
D17*
%TO.P,C2,1*%
%TO.N,+7.5V*%
X98425000Y-74295000D03*
D18*
%TO.P,C2,2*%
%TO.N,GND*%
X96925000Y-74295000D03*
%TD*%
D10*
%TO.P,J4,1,Pin_1*%
%TO.N,Net-(D3-K)*%
X99755000Y-106790000D03*
D11*
%TO.P,J4,2,Pin_2*%
X102255000Y-106790000D03*
%TO.P,J4,3,Pin_3*%
%TO.N,+5V*%
X104755000Y-106790000D03*
%TO.P,J4,4,Pin_4*%
%TO.N,GND*%
X107255000Y-106790000D03*
%TD*%
D19*
%TO.P,C1,1*%
%TO.N,+5V*%
X102235000Y-74295000D03*
D18*
%TO.P,C1,2*%
%TO.N,GND*%
X103735000Y-74295000D03*
%TD*%
D20*
%TO.P,U1,1,0*%
%TO.N,unconnected-(U1-0-Pad1)*%
X127500000Y-65405000D03*
%TO.P,U1,2,1*%
%TO.N,unconnected-(U1-1-Pad2)*%
X127500000Y-67945000D03*
%TO.P,U1,3,2*%
%TO.N,KEY_STA*%
X127500000Y-70485000D03*
%TO.P,U1,4,3*%
%TO.N,unconnected-(U1-3-Pad4)*%
X127500000Y-73025000D03*
%TO.P,U1,5,4*%
%TO.N,KEY_1*%
X127500000Y-75565000D03*
%TO.P,U1,6,5*%
%TO.N,KEY_3*%
X127500000Y-78105000D03*
%TO.P,U1,7,6*%
%TO.N,KEY_5*%
X127500000Y-80645000D03*
%TO.P,U1,8,7*%
%TO.N,KEY_7*%
X127500000Y-83185000D03*
%TO.P,U1,9,8*%
%TO.N,KEY_2*%
X127500000Y-85725000D03*
D21*
%TO.P,U1,10,9*%
%TO.N,KEY_4*%
X124460000Y-86225000D03*
%TO.P,U1,11,10*%
%TO.N,KEY_6*%
X121920000Y-86225000D03*
%TO.P,U1,12,11*%
%TO.N,SCR_TRCB*%
X119380000Y-86225000D03*
%TO.P,U1,13,12*%
%TO.N,SCR_TRCA*%
X116840000Y-86225000D03*
%TO.P,U1,14,13*%
%TO.N,KEY_SEL*%
X114300000Y-86225000D03*
D20*
%TO.P,U1,15,14*%
%TO.N,unconnected-(U1-14-Pad15)*%
X111260000Y-85725000D03*
%TO.P,U1,16,15*%
%TO.N,PSX_ACK*%
X111260000Y-83185000D03*
%TO.P,U1,17,26*%
%TO.N,PSX_SCK*%
X111260000Y-80645000D03*
%TO.P,U1,18,27*%
%TO.N,PSX_ATT*%
X111260000Y-78105000D03*
%TO.P,U1,19,28*%
%TO.N,PSX_CMD*%
X111260000Y-75565000D03*
%TO.P,U1,20,29*%
%TO.N,PSX_DAT*%
X111260000Y-73025000D03*
%TO.P,U1,21,3V3*%
%TO.N,+3V3*%
X111260000Y-70485000D03*
%TO.P,U1,22,GND*%
%TO.N,GND*%
X111260000Y-67945000D03*
%TO.P,U1,23,5V*%
%TO.N,+5V*%
X111260000Y-65405000D03*
%TD*%
D10*
%TO.P,J3,1,Pin_1*%
%TO.N,Net-(D6-K)*%
X107375000Y-115680000D03*
D11*
%TO.P,J3,2,Pin_2*%
X109875000Y-115680000D03*
%TO.P,J3,3,Pin_3*%
%TO.N,+5V*%
X112375000Y-115680000D03*
%TO.P,J3,4,Pin_4*%
%TO.N,GND*%
X114875000Y-115680000D03*
%TD*%
D10*
%TO.P,J7,1,Pin_1*%
%TO.N,Net-(D8-K)*%
X76895000Y-115680000D03*
D11*
%TO.P,J7,2,Pin_2*%
X79395000Y-115680000D03*
%TO.P,J7,3,Pin_3*%
%TO.N,+5V*%
X81895000Y-115680000D03*
%TO.P,J7,4,Pin_4*%
%TO.N,GND*%
X84395000Y-115680000D03*
%TD*%
D14*
%TO.P,H4,1,1*%
%TO.N,GND*%
X139065000Y-107315000D03*
%TD*%
%TO.P,H1,1,1*%
%TO.N,GND*%
X67945000Y-76200000D03*
%TD*%
D22*
%TO.P,J12,1,Pin_1*%
%TO.N,GND*%
X138540000Y-95190000D03*
D23*
%TO.P,J12,2,Pin_2*%
%TO.N,+5V*%
X138540000Y-92690000D03*
%TO.P,J12,3,Pin_3*%
%TO.N,SCR_TRCA*%
X138540000Y-90190000D03*
%TO.P,J12,4,Pin_4*%
%TO.N,SCR_TRCB*%
X138540000Y-87690000D03*
%TD*%
D24*
%TO.P,J10,1,Pin_1*%
%TO.N,GND*%
X87015000Y-97900000D03*
D25*
%TO.P,J10,2,Pin_2*%
%TO.N,+5V*%
X89515000Y-97900000D03*
%TD*%
D14*
%TO.P,H2,1,1*%
%TO.N,GND*%
X139065000Y-76200000D03*
%TD*%
D10*
%TO.P,J2,1,Pin_1*%
%TO.N,Net-(D2-K)*%
X114995000Y-106790000D03*
D11*
%TO.P,J2,2,Pin_2*%
X117495000Y-106790000D03*
%TO.P,J2,3,Pin_3*%
%TO.N,+5V*%
X119995000Y-106790000D03*
%TO.P,J2,4,Pin_4*%
%TO.N,GND*%
X122495000Y-106790000D03*
%TD*%
D26*
%TO.P,D1,1,K*%
%TO.N,Net-(D1-K)*%
X133570000Y-69215000D03*
%TO.P,D1,2,A*%
%TO.N,KEY_STA*%
X135670000Y-69215000D03*
%TD*%
%TO.P,D5,1,K*%
%TO.N,Net-(D5-K)*%
X123410000Y-118110000D03*
%TO.P,D5,2,A*%
%TO.N,KEY_1*%
X125510000Y-118110000D03*
%TD*%
%TO.P,D8,1,K*%
%TO.N,Net-(D8-K)*%
X77690000Y-118110000D03*
%TO.P,D8,2,A*%
%TO.N,KEY_7*%
X79790000Y-118110000D03*
%TD*%
%TO.P,D2,1,K*%
%TO.N,Net-(D2-K)*%
X115790000Y-109220000D03*
%TO.P,D2,2,A*%
%TO.N,KEY_2*%
X117890000Y-109220000D03*
%TD*%
%TO.P,D9,1,K*%
%TO.N,Net-(D9-K)*%
X67530000Y-69215000D03*
%TO.P,D9,2,A*%
%TO.N,KEY_SEL*%
X69630000Y-69215000D03*
%TD*%
%TO.P,D7,1,K*%
%TO.N,Net-(D7-K)*%
X92930000Y-118110000D03*
%TO.P,D7,2,A*%
%TO.N,KEY_5*%
X95030000Y-118110000D03*
%TD*%
%TO.P,D6,1,K*%
%TO.N,Net-(D6-K)*%
X108170000Y-118110000D03*
%TO.P,D6,2,A*%
%TO.N,KEY_3*%
X110270000Y-118110000D03*
%TD*%
%TO.P,D4,1,K*%
%TO.N,Net-(D4-K)*%
X85310000Y-109220000D03*
%TO.P,D4,2,A*%
%TO.N,KEY_6*%
X87410000Y-109220000D03*
%TD*%
%TO.P,D3,1,K*%
%TO.N,Net-(D3-K)*%
X100550000Y-109220000D03*
%TO.P,D3,2,A*%
%TO.N,KEY_4*%
X102650000Y-109220000D03*
%TD*%
D27*
%TO.N,GND*%
X108585000Y-83185000D03*
X130175000Y-73025000D03*
X65405000Y-116840000D03*
X125095000Y-106680000D03*
X128905000Y-92075000D03*
X76200000Y-99695000D03*
X123190000Y-88900000D03*
X76835000Y-66675000D03*
X128905000Y-95250000D03*
X130175000Y-76835000D03*
X123825000Y-103505000D03*
X75565000Y-72390000D03*
X109855000Y-74295000D03*
X118745000Y-91440000D03*
X106680000Y-68580000D03*
X65405000Y-112395000D03*
X70485000Y-64770000D03*
X128905000Y-99695000D03*
X100330000Y-95250000D03*
X100330000Y-99695000D03*
X69850000Y-95250000D03*
X133985000Y-104775000D03*
X97790000Y-109220000D03*
X107950000Y-69850000D03*
X93980000Y-95250000D03*
X109855000Y-76835000D03*
X109855000Y-81915000D03*
X93980000Y-99695000D03*
X135255000Y-88900000D03*
X141605000Y-81280000D03*
X100330000Y-67310000D03*
X72390000Y-78740000D03*
X117475000Y-115570000D03*
X101600000Y-108585000D03*
X118110000Y-88900000D03*
X111125000Y-109855000D03*
X95885000Y-68580000D03*
X76200000Y-104140000D03*
X93345000Y-73660000D03*
X88900000Y-90170000D03*
X108585000Y-95250000D03*
X83185000Y-73660000D03*
X108585000Y-103505000D03*
X134620000Y-68580000D03*
X104775000Y-67310000D03*
X118745000Y-118745000D03*
X69850000Y-99695000D03*
X106680000Y-71120000D03*
X94615000Y-83820000D03*
X109220000Y-117475000D03*
X95885000Y-109855000D03*
X107950000Y-67310000D03*
X94615000Y-106680000D03*
X82550000Y-90170000D03*
X130175000Y-79375000D03*
X99695000Y-84455000D03*
X115570000Y-91440000D03*
X128905000Y-109220000D03*
X107950000Y-90805000D03*
X142240000Y-113665000D03*
X76200000Y-95250000D03*
X93980000Y-90170000D03*
X122555000Y-92075000D03*
X102235000Y-115570000D03*
X100330000Y-74295000D03*
X129540000Y-66675000D03*
X93980000Y-117475000D03*
X141605000Y-99695000D03*
X69850000Y-116840000D03*
X82550000Y-99695000D03*
X68580000Y-68580000D03*
X119380000Y-99695000D03*
X76835000Y-77470000D03*
X108585000Y-99695000D03*
X128905000Y-104775000D03*
X125730000Y-92075000D03*
X100330000Y-103505000D03*
X125730000Y-88900000D03*
X82550000Y-95250000D03*
X114300000Y-95250000D03*
X85725000Y-73660000D03*
X97155000Y-67310000D03*
X104775000Y-79375000D03*
X133985000Y-109220000D03*
X134620000Y-118745000D03*
X132080000Y-113665000D03*
X84455000Y-75565000D03*
X74295000Y-84455000D03*
X88900000Y-93980000D03*
X130175000Y-82550000D03*
X123825000Y-99695000D03*
X111760000Y-88900000D03*
X69850000Y-112395000D03*
X76200000Y-90170000D03*
X80645000Y-83185000D03*
X78740000Y-72390000D03*
X135255000Y-86360000D03*
X88900000Y-71120000D03*
X123825000Y-95250000D03*
X114300000Y-103505000D03*
X113030000Y-109220000D03*
X76200000Y-108585000D03*
X78740000Y-117475000D03*
X73025000Y-72390000D03*
X109855000Y-79375000D03*
X100330000Y-90170000D03*
X107950000Y-86995000D03*
X74295000Y-80645000D03*
X100330000Y-78105000D03*
X65405000Y-95250000D03*
X100330000Y-72390000D03*
X135255000Y-113665000D03*
X71755000Y-83185000D03*
X103505000Y-118745000D03*
X86360000Y-108585000D03*
X119380000Y-95250000D03*
X114300000Y-99695000D03*
X128905000Y-88900000D03*
X90805000Y-83185000D03*
X134620000Y-81280000D03*
X142240000Y-66040000D03*
X64770000Y-69850000D03*
X109855000Y-106680000D03*
X76200000Y-112395000D03*
X107950000Y-72390000D03*
X141605000Y-83820000D03*
X93980000Y-71120000D03*
X86995000Y-115570000D03*
X116840000Y-108585000D03*
X120650000Y-88900000D03*
X82550000Y-103505000D03*
X134620000Y-73660000D03*
X106045000Y-80645000D03*
X93980000Y-103505000D03*
X124460000Y-117475000D03*
X131445000Y-69215000D03*
X135255000Y-91440000D03*
X107315000Y-81915000D03*
X136525000Y-64770000D03*
X135890000Y-99695000D03*
X140335000Y-69850000D03*
X140335000Y-88900000D03*
X69850000Y-81280000D03*
X88265000Y-118745000D03*
X65405000Y-99695000D03*
X132715000Y-115570000D03*
X69850000Y-90170000D03*
%TD*%
D28*
%TO.N,KEY_7*%
X86995000Y-118110000D02*
X79790000Y-118110000D01*
X89535000Y-111125000D02*
X88265000Y-112395000D01*
X130810000Y-109855000D02*
X129540000Y-111125000D01*
X88265000Y-116840000D02*
X86995000Y-118110000D01*
X129540000Y-83185000D02*
X130810000Y-84455000D01*
X130810000Y-84455000D02*
X130810000Y-109855000D01*
X88265000Y-112395000D02*
X88265000Y-116840000D01*
X127000000Y-83185000D02*
X129540000Y-83185000D01*
X129540000Y-111125000D02*
X89535000Y-111125000D01*
D29*
%TO.N,+5V*%
X102870000Y-66675000D02*
X104140000Y-65405000D01*
X102870000Y-69850000D02*
X102870000Y-66675000D01*
X104140000Y-65405000D02*
X111760000Y-65405000D01*
D28*
%TO.N,PSX_SCK*%
X107315000Y-83185000D02*
X109855000Y-80645000D01*
X97535000Y-83185000D02*
X107315000Y-83185000D01*
X109855000Y-80645000D02*
X111760000Y-80645000D01*
X93725000Y-86995000D02*
X97535000Y-83185000D01*
%TO.N,PSX_DAT*%
X69725000Y-86995000D02*
X77345000Y-79375000D01*
X77345000Y-79375000D02*
X103505000Y-79375000D01*
X109855000Y-73025000D02*
X111760000Y-73025000D01*
X103505000Y-79375000D02*
X109855000Y-73025000D01*
%TO.N,PSX_ACK*%
X101725000Y-86995000D02*
X104265000Y-84455000D01*
X109855000Y-83185000D02*
X111760000Y-83185000D01*
X108585000Y-84455000D02*
X109855000Y-83185000D01*
X104265000Y-84455000D02*
X108585000Y-84455000D01*
%TO.N,PSX_ATT*%
X94805000Y-81915000D02*
X89725000Y-86995000D01*
X111760000Y-78105000D02*
X109855000Y-78105000D01*
X109855000Y-78105000D02*
X106045000Y-81915000D01*
X106045000Y-81915000D02*
X94805000Y-81915000D01*
%TO.N,PSX_CMD*%
X109855000Y-75565000D02*
X104775000Y-80645000D01*
X80075000Y-80645000D02*
X73725000Y-86995000D01*
X111760000Y-75565000D02*
X109855000Y-75565000D01*
X104775000Y-80645000D02*
X80075000Y-80645000D01*
%TO.N,KEY_4*%
X111125000Y-94615000D02*
X111125000Y-107950000D01*
X124460000Y-92075000D02*
X123190000Y-93345000D01*
X112395000Y-93345000D02*
X111125000Y-94615000D01*
X123190000Y-93345000D02*
X112395000Y-93345000D01*
X109855000Y-109220000D02*
X102650000Y-109220000D01*
X111125000Y-107950000D02*
X109855000Y-109220000D01*
X124460000Y-85725000D02*
X124460000Y-92075000D01*
%TO.N,KEY_SEL*%
X66675000Y-90805000D02*
X66675000Y-83820000D01*
X74295000Y-70485000D02*
X73025000Y-69215000D01*
X67945000Y-82550000D02*
X70485000Y-82550000D01*
X70485000Y-82550000D02*
X74295000Y-78740000D01*
X73025000Y-69215000D02*
X69630000Y-69215000D01*
X114300000Y-85725000D02*
X114300000Y-90805000D01*
X66675000Y-83820000D02*
X67945000Y-82550000D01*
X74295000Y-78740000D02*
X74295000Y-70485000D01*
X114300000Y-90805000D02*
X113030000Y-92075000D01*
X113030000Y-92075000D02*
X67945000Y-92075000D01*
X67945000Y-92075000D02*
X66675000Y-90805000D01*
%TO.N,KEY_2*%
X117890000Y-109220000D02*
X125095000Y-109220000D01*
X127000000Y-94297500D02*
X127000000Y-85725000D01*
X126365000Y-107950000D02*
X126365000Y-94932500D01*
X126365000Y-94932500D02*
X127000000Y-94297500D01*
X125095000Y-109220000D02*
X126365000Y-107950000D01*
%TO.N,KEY_3*%
X117475000Y-118110000D02*
X118745000Y-116840000D01*
X130810000Y-112395000D02*
X132080000Y-111125000D01*
X110270000Y-118110000D02*
X117475000Y-118110000D01*
X130810000Y-78105000D02*
X127000000Y-78105000D01*
X118745000Y-116840000D02*
X118745000Y-113665000D01*
X132080000Y-79375000D02*
X130810000Y-78105000D01*
X118745000Y-113665000D02*
X120015000Y-112395000D01*
X132080000Y-111125000D02*
X132080000Y-79375000D01*
X120015000Y-112395000D02*
X130810000Y-112395000D01*
%TO.N,KEY_6*%
X95885000Y-93980000D02*
X97155000Y-92710000D01*
X94615000Y-109220000D02*
X95885000Y-107950000D01*
X87410000Y-109220000D02*
X94615000Y-109220000D01*
X95885000Y-107950000D02*
X95885000Y-93980000D01*
X120650000Y-92710000D02*
X121920000Y-91440000D01*
X121920000Y-91440000D02*
X121920000Y-85725000D01*
X97155000Y-92710000D02*
X120650000Y-92710000D01*
%TO.N,KEY_STA*%
X134400000Y-70485000D02*
X135670000Y-69215000D01*
X127000000Y-70485000D02*
X134400000Y-70485000D01*
%TO.N,KEY_5*%
X103505000Y-113030000D02*
X104775000Y-111760000D01*
X131445000Y-81915000D02*
X130175000Y-80645000D01*
X131445000Y-110490000D02*
X131445000Y-81915000D01*
X104775000Y-111760000D02*
X130175000Y-111760000D01*
X130175000Y-80645000D02*
X127000000Y-80645000D01*
X102235000Y-118110000D02*
X103505000Y-116840000D01*
X103505000Y-116840000D02*
X103505000Y-113030000D01*
X95030000Y-118110000D02*
X102235000Y-118110000D01*
X130175000Y-111760000D02*
X131445000Y-110490000D01*
%TO.N,KEY_1*%
X133985000Y-116840000D02*
X133985000Y-112395000D01*
X133985000Y-112395000D02*
X132715000Y-111125000D01*
X125510000Y-118110000D02*
X132715000Y-118110000D01*
X131445000Y-75565000D02*
X127000000Y-75565000D01*
X132715000Y-76835000D02*
X131445000Y-75565000D01*
X132715000Y-118110000D02*
X133985000Y-116840000D01*
X132715000Y-111125000D02*
X132715000Y-76835000D01*
%TO.N,Net-(D1-K)*%
X132775000Y-68420000D02*
X133570000Y-69215000D01*
X132775000Y-66785000D02*
X135275000Y-66785000D01*
X132775000Y-66785000D02*
X132775000Y-68420000D01*
%TO.N,Net-(D2-K)*%
X117495000Y-106790000D02*
X114995000Y-106790000D01*
X114995000Y-106790000D02*
X114995000Y-108425000D01*
X114995000Y-108425000D02*
X115790000Y-109220000D01*
%TO.N,Net-(D3-K)*%
X99755000Y-108425000D02*
X100550000Y-109220000D01*
X102255000Y-106790000D02*
X99755000Y-106790000D01*
X99755000Y-106790000D02*
X99755000Y-108425000D01*
%TO.N,Net-(D4-K)*%
X84515000Y-108425000D02*
X85310000Y-109220000D01*
X84515000Y-106790000D02*
X84515000Y-108425000D01*
X84515000Y-106790000D02*
X87015000Y-106790000D01*
%TO.N,Net-(D5-K)*%
X125115000Y-115680000D02*
X122615000Y-115680000D01*
X122615000Y-117315000D02*
X123410000Y-118110000D01*
X122615000Y-115680000D02*
X122615000Y-117315000D01*
%TO.N,Net-(D6-K)*%
X107375000Y-115680000D02*
X107375000Y-117315000D01*
X107375000Y-117315000D02*
X108170000Y-118110000D01*
X109875000Y-115680000D02*
X107375000Y-115680000D01*
%TO.N,Net-(D7-K)*%
X92135000Y-115680000D02*
X92135000Y-117315000D01*
X92135000Y-115680000D02*
X94635000Y-115680000D01*
X92135000Y-117315000D02*
X92930000Y-118110000D01*
%TO.N,Net-(D8-K)*%
X76895000Y-115680000D02*
X76895000Y-117315000D01*
X76895000Y-115680000D02*
X79395000Y-115680000D01*
X76895000Y-117315000D02*
X77690000Y-118110000D01*
%TO.N,Net-(D9-K)*%
X66735000Y-68420000D02*
X67530000Y-69215000D01*
X66735000Y-66785000D02*
X66735000Y-68420000D01*
X66735000Y-66785000D02*
X69235000Y-66785000D01*
%TD*%
%TA.AperFunction,Conductor*%
%TO.N,GND*%
G36*
X112838691Y-64019407D02*
G01*
X112874655Y-64068907D01*
X112879500Y-64099500D01*
X112879500Y-64768886D01*
X112860593Y-64827077D01*
X112811093Y-64863041D01*
X112749907Y-64863041D01*
X112700407Y-64827077D01*
X112658938Y-64770000D01*
X112599414Y-64688072D01*
X112476928Y-64565586D01*
X112336788Y-64463768D01*
X112336787Y-64463767D01*
X112336785Y-64463766D01*
X112182441Y-64385125D01*
X112182438Y-64385123D01*
X112017706Y-64331598D01*
X112017702Y-64331597D01*
X111846614Y-64304500D01*
X111846611Y-64304500D01*
X110673389Y-64304500D01*
X110673386Y-64304500D01*
X110502297Y-64331597D01*
X110502293Y-64331598D01*
X110337561Y-64385123D01*
X110337558Y-64385125D01*
X110183212Y-64463767D01*
X110183206Y-64463771D01*
X110084355Y-64535592D01*
X110026164Y-64554500D01*
X104056230Y-64554500D01*
X103891918Y-64587184D01*
X103891916Y-64587184D01*
X103737139Y-64651294D01*
X103597838Y-64744373D01*
X102209376Y-66132834D01*
X102209373Y-66132838D01*
X102116299Y-66272130D01*
X102116293Y-66272141D01*
X102077748Y-66365200D01*
X102052184Y-66426916D01*
X102052184Y-66426918D01*
X102019500Y-66591230D01*
X102019500Y-68769272D01*
X102000593Y-68827463D01*
X101990504Y-68839275D01*
X101876125Y-68953654D01*
X101766266Y-69104862D01*
X101716766Y-69140826D01*
X101655581Y-69140825D01*
X101606081Y-69104861D01*
X101597964Y-69091615D01*
X101572291Y-69041228D01*
X101572291Y-69041227D01*
X101437905Y-68856261D01*
X101276238Y-68694594D01*
X101091273Y-68560209D01*
X100887564Y-68456415D01*
X100670127Y-68385766D01*
X100580000Y-68371490D01*
X100580000Y-69359252D01*
X100542292Y-69337482D01*
X100402409Y-69300000D01*
X100257591Y-69300000D01*
X100117708Y-69337482D01*
X100080000Y-69359252D01*
X100080000Y-68371490D01*
X100079999Y-68371490D01*
X99989872Y-68385766D01*
X99772435Y-68456415D01*
X99568726Y-68560209D01*
X99383757Y-68694597D01*
X99253963Y-68824391D01*
X99199447Y-68852168D01*
X99139015Y-68842596D01*
X99095750Y-68799332D01*
X99085995Y-68768662D01*
X99083073Y-68748607D01*
X99031698Y-68643517D01*
X98948983Y-68560802D01*
X98947770Y-68560209D01*
X98843895Y-68509427D01*
X98816639Y-68505456D01*
X98775760Y-68499500D01*
X96804240Y-68499500D01*
X96770173Y-68504463D01*
X96736104Y-68509427D01*
X96631018Y-68560801D01*
X96548301Y-68643518D01*
X96496927Y-68748604D01*
X96496927Y-68748607D01*
X96487000Y-68816740D01*
X96487000Y-70883260D01*
X96491084Y-70911287D01*
X96496927Y-70951395D01*
X96533868Y-71026958D01*
X96548302Y-71056483D01*
X96631017Y-71139198D01*
X96684785Y-71165483D01*
X96736104Y-71190572D01*
X96736105Y-71190572D01*
X96736107Y-71190573D01*
X96804240Y-71200500D01*
X96804243Y-71200500D01*
X98775757Y-71200500D01*
X98775760Y-71200500D01*
X98843893Y-71190573D01*
X98948983Y-71139198D01*
X99031698Y-71056483D01*
X99083073Y-70951393D01*
X99085995Y-70931337D01*
X99113093Y-70876483D01*
X99167260Y-70848031D01*
X99227806Y-70856851D01*
X99253964Y-70875608D01*
X99383761Y-71005405D01*
X99568726Y-71139790D01*
X99772433Y-71243583D01*
X99989876Y-71314235D01*
X100080000Y-71328509D01*
X100080000Y-70340747D01*
X100117708Y-70362518D01*
X100257591Y-70400000D01*
X100402409Y-70400000D01*
X100542292Y-70362518D01*
X100580000Y-70340747D01*
X100580000Y-71328508D01*
X100670123Y-71314235D01*
X100887566Y-71243583D01*
X101091273Y-71139790D01*
X101276238Y-71005405D01*
X101437905Y-70843738D01*
X101572289Y-70658774D01*
X101597963Y-70608385D01*
X101641227Y-70565119D01*
X101701659Y-70555547D01*
X101756176Y-70583323D01*
X101766265Y-70595135D01*
X101876127Y-70746347D01*
X102021153Y-70891373D01*
X102187079Y-71011925D01*
X102369822Y-71105037D01*
X102369824Y-71105037D01*
X102369825Y-71105038D01*
X102369828Y-71105040D01*
X102564874Y-71168415D01*
X102564878Y-71168416D01*
X102767449Y-71200500D01*
X102767452Y-71200500D01*
X102972551Y-71200500D01*
X103175121Y-71168416D01*
X103175125Y-71168415D01*
X103370171Y-71105040D01*
X103370173Y-71105038D01*
X103370178Y-71105037D01*
X103552921Y-71011925D01*
X103718847Y-70891373D01*
X103863873Y-70746347D01*
X103984425Y-70580421D01*
X104077537Y-70397678D01*
X104077538Y-70397673D01*
X104077540Y-70397671D01*
X104140915Y-70202625D01*
X104140916Y-70202621D01*
X104173000Y-70000051D01*
X104173000Y-69699948D01*
X104140916Y-69497378D01*
X104140915Y-69497374D01*
X104077540Y-69302328D01*
X104077538Y-69302325D01*
X104077537Y-69302324D01*
X104077537Y-69302322D01*
X103984425Y-69119579D01*
X103863873Y-68953653D01*
X103808670Y-68898450D01*
X103749496Y-68839275D01*
X103721719Y-68784759D01*
X103720500Y-68769272D01*
X103720500Y-67068296D01*
X103739407Y-67010105D01*
X103749496Y-66998292D01*
X104463292Y-66284496D01*
X104517809Y-66256719D01*
X104533296Y-66255500D01*
X110026164Y-66255500D01*
X110084353Y-66274406D01*
X110183212Y-66346232D01*
X110337555Y-66424873D01*
X110337557Y-66424873D01*
X110337558Y-66424874D01*
X110337561Y-66424876D01*
X110502293Y-66478401D01*
X110502297Y-66478402D01*
X110648365Y-66501537D01*
X110702882Y-66529314D01*
X110730659Y-66583831D01*
X110721088Y-66644263D01*
X110677823Y-66687528D01*
X110648365Y-66697099D01*
X110467289Y-66725778D01*
X110467285Y-66725779D01*
X110280173Y-66786576D01*
X110280170Y-66786578D01*
X110104857Y-66875903D01*
X110104851Y-66875907D01*
X109945685Y-66991549D01*
X109806549Y-67130685D01*
X109690907Y-67289851D01*
X109690903Y-67289857D01*
X109601580Y-67465166D01*
X109540777Y-67652295D01*
X109534014Y-67694999D01*
X109534015Y-67695000D01*
X111161000Y-67695000D01*
X111219191Y-67713907D01*
X111255155Y-67763407D01*
X111260000Y-67794000D01*
X111260000Y-68096000D01*
X111241093Y-68154191D01*
X111191593Y-68190155D01*
X111161000Y-68195000D01*
X109534015Y-68195000D01*
X109540777Y-68237704D01*
X109601580Y-68424833D01*
X109690903Y-68600142D01*
X109690907Y-68600148D01*
X109806549Y-68759314D01*
X109945685Y-68898450D01*
X110104851Y-69014092D01*
X110104857Y-69014096D01*
X110280170Y-69103421D01*
X110280173Y-69103423D01*
X110467285Y-69164220D01*
X110467289Y-69164221D01*
X110648365Y-69192900D01*
X110702881Y-69220677D01*
X110730659Y-69275194D01*
X110721088Y-69335626D01*
X110677823Y-69378890D01*
X110648366Y-69388462D01*
X110502296Y-69411598D01*
X110502293Y-69411598D01*
X110337561Y-69465123D01*
X110337558Y-69465125D01*
X110183214Y-69543766D01*
X110043073Y-69645585D01*
X109920585Y-69768073D01*
X109818766Y-69908214D01*
X109740125Y-70062558D01*
X109740123Y-70062561D01*
X109686598Y-70227293D01*
X109686597Y-70227297D01*
X109659500Y-70398385D01*
X109659500Y-70571614D01*
X109686597Y-70742702D01*
X109686598Y-70742706D01*
X109740123Y-70907438D01*
X109740125Y-70907441D01*
X109793361Y-71011925D01*
X109818768Y-71061788D01*
X109920586Y-71201928D01*
X110043072Y-71324414D01*
X110183212Y-71426232D01*
X110337555Y-71504873D01*
X110337557Y-71504873D01*
X110337558Y-71504874D01*
X110337561Y-71504876D01*
X110502293Y-71558401D01*
X110502297Y-71558402D01*
X110673386Y-71585500D01*
X110673389Y-71585500D01*
X111846614Y-71585500D01*
X112017702Y-71558402D01*
X112017706Y-71558401D01*
X112182438Y-71504876D01*
X112182440Y-71504874D01*
X112182445Y-71504873D01*
X112336788Y-71426232D01*
X112476928Y-71324414D01*
X112599414Y-71201928D01*
X112700409Y-71062920D01*
X112749907Y-71026958D01*
X112811093Y-71026958D01*
X112860593Y-71062922D01*
X112879500Y-71121113D01*
X112879500Y-72388886D01*
X112860593Y-72447077D01*
X112811093Y-72483041D01*
X112749907Y-72483041D01*
X112700407Y-72447077D01*
X112599414Y-72308072D01*
X112476928Y-72185586D01*
X112336788Y-72083768D01*
X112336787Y-72083767D01*
X112336785Y-72083766D01*
X112182441Y-72005125D01*
X112182438Y-72005123D01*
X112017706Y-71951598D01*
X112017702Y-71951597D01*
X111846614Y-71924500D01*
X111846611Y-71924500D01*
X110673389Y-71924500D01*
X110673386Y-71924500D01*
X110502297Y-71951597D01*
X110502293Y-71951598D01*
X110337561Y-72005123D01*
X110337558Y-72005125D01*
X110183214Y-72083766D01*
X110043073Y-72185585D01*
X109920585Y-72308073D01*
X109818765Y-72448215D01*
X109818764Y-72448217D01*
X109767905Y-72548033D01*
X109724640Y-72591297D01*
X109705324Y-72598712D01*
X109681114Y-72605200D01*
X109681109Y-72605202D01*
X109578390Y-72664507D01*
X103347393Y-78895504D01*
X103292876Y-78923281D01*
X103277389Y-78924500D01*
X77285691Y-78924500D01*
X77228402Y-78939850D01*
X77171112Y-78955201D01*
X77127696Y-78980266D01*
X77127697Y-78980267D01*
X77068388Y-79014509D01*
X70432246Y-85650649D01*
X70377729Y-85678426D01*
X70317299Y-85668856D01*
X70281800Y-85650769D01*
X70064655Y-85580214D01*
X69839160Y-85544500D01*
X69839157Y-85544500D01*
X69610843Y-85544500D01*
X69610840Y-85544500D01*
X69385344Y-85580214D01*
X69168200Y-85650769D01*
X68964772Y-85754420D01*
X68964766Y-85754424D01*
X68780068Y-85888616D01*
X68618616Y-86050068D01*
X68484424Y-86234766D01*
X68484420Y-86234772D01*
X68380769Y-86438200D01*
X68310214Y-86655344D01*
X68274500Y-86880839D01*
X68274500Y-87109160D01*
X68310214Y-87334655D01*
X68380769Y-87551799D01*
X68484420Y-87755227D01*
X68484424Y-87755233D01*
X68618616Y-87939931D01*
X68618618Y-87939933D01*
X68618621Y-87939937D01*
X68780063Y-88101379D01*
X68780066Y-88101381D01*
X68780068Y-88101383D01*
X68964766Y-88235575D01*
X68964772Y-88235579D01*
X69168201Y-88339231D01*
X69385340Y-88409784D01*
X69385341Y-88409784D01*
X69385344Y-88409785D01*
X69610840Y-88445500D01*
X69610843Y-88445500D01*
X69839160Y-88445500D01*
X70064655Y-88409785D01*
X70064656Y-88409784D01*
X70064660Y-88409784D01*
X70281799Y-88339231D01*
X70485228Y-88235579D01*
X70669937Y-88101379D01*
X70831379Y-87939937D01*
X70965579Y-87755228D01*
X71069231Y-87551799D01*
X71139784Y-87334660D01*
X71139785Y-87334655D01*
X71175500Y-87109160D01*
X71175500Y-86880839D01*
X71139785Y-86655344D01*
X71128410Y-86620336D01*
X71069231Y-86438201D01*
X71051142Y-86402700D01*
X71041572Y-86342269D01*
X71069347Y-86287754D01*
X77502607Y-79854496D01*
X77557124Y-79826719D01*
X77572611Y-79825500D01*
X103564309Y-79825500D01*
X103654669Y-79801287D01*
X103654672Y-79801287D01*
X103667903Y-79797741D01*
X103678887Y-79794799D01*
X103781614Y-79735489D01*
X109777878Y-73739223D01*
X109832393Y-73711448D01*
X109892825Y-73721019D01*
X109917884Y-73739225D01*
X109920583Y-73741924D01*
X109920586Y-73741928D01*
X110043072Y-73864414D01*
X110183212Y-73966232D01*
X110337555Y-74044873D01*
X110337557Y-74044873D01*
X110337558Y-74044874D01*
X110337561Y-74044876D01*
X110502293Y-74098401D01*
X110502297Y-74098402D01*
X110673386Y-74125500D01*
X110673389Y-74125500D01*
X111846614Y-74125500D01*
X112017702Y-74098402D01*
X112017706Y-74098401D01*
X112182438Y-74044876D01*
X112182440Y-74044874D01*
X112182445Y-74044873D01*
X112336788Y-73966232D01*
X112476928Y-73864414D01*
X112599414Y-73741928D01*
X112700409Y-73602920D01*
X112749907Y-73566958D01*
X112811093Y-73566958D01*
X112860593Y-73602922D01*
X112879500Y-73661113D01*
X112879500Y-74928886D01*
X112860593Y-74987077D01*
X112811093Y-75023041D01*
X112749907Y-75023041D01*
X112700407Y-74987077D01*
X112599414Y-74848072D01*
X112476928Y-74725586D01*
X112336788Y-74623768D01*
X112336787Y-74623767D01*
X112336785Y-74623766D01*
X112182441Y-74545125D01*
X112182438Y-74545123D01*
X112017706Y-74491598D01*
X112017702Y-74491597D01*
X111846614Y-74464500D01*
X111846611Y-74464500D01*
X110673389Y-74464500D01*
X110673386Y-74464500D01*
X110502297Y-74491597D01*
X110502293Y-74491598D01*
X110337561Y-74545123D01*
X110337558Y-74545125D01*
X110183214Y-74623766D01*
X110043073Y-74725585D01*
X109920585Y-74848073D01*
X109818765Y-74988215D01*
X109818764Y-74988217D01*
X109767905Y-75088033D01*
X109724640Y-75131297D01*
X109705324Y-75138712D01*
X109681114Y-75145200D01*
X109681109Y-75145202D01*
X109578390Y-75204507D01*
X104617393Y-80165504D01*
X104562876Y-80193281D01*
X104547389Y-80194500D01*
X80015691Y-80194500D01*
X79970508Y-80206606D01*
X79925325Y-80218713D01*
X79925324Y-80218712D01*
X79901112Y-80225201D01*
X79901109Y-80225202D01*
X79798390Y-80284507D01*
X79798389Y-80284508D01*
X74432246Y-85650649D01*
X74377729Y-85678426D01*
X74317299Y-85668856D01*
X74281800Y-85650769D01*
X74064655Y-85580214D01*
X73839160Y-85544500D01*
X73839157Y-85544500D01*
X73610843Y-85544500D01*
X73610840Y-85544500D01*
X73385344Y-85580214D01*
X73168200Y-85650769D01*
X72964772Y-85754420D01*
X72964766Y-85754424D01*
X72780068Y-85888616D01*
X72618616Y-86050068D01*
X72484424Y-86234766D01*
X72484420Y-86234772D01*
X72380769Y-86438200D01*
X72310214Y-86655344D01*
X72274500Y-86880839D01*
X72274500Y-87109160D01*
X72310214Y-87334655D01*
X72380769Y-87551799D01*
X72484420Y-87755227D01*
X72484424Y-87755233D01*
X72618616Y-87939931D01*
X72618618Y-87939933D01*
X72618621Y-87939937D01*
X72780063Y-88101379D01*
X72780066Y-88101381D01*
X72780068Y-88101383D01*
X72964766Y-88235575D01*
X72964772Y-88235579D01*
X73168201Y-88339231D01*
X73385340Y-88409784D01*
X73385341Y-88409784D01*
X73385344Y-88409785D01*
X73610840Y-88445500D01*
X73610843Y-88445500D01*
X73839160Y-88445500D01*
X74064655Y-88409785D01*
X74064656Y-88409784D01*
X74064660Y-88409784D01*
X74281799Y-88339231D01*
X74485228Y-88235579D01*
X74669937Y-88101379D01*
X74831379Y-87939937D01*
X74965579Y-87755228D01*
X75069231Y-87551799D01*
X75139784Y-87334660D01*
X75139785Y-87334655D01*
X75175500Y-87109160D01*
X75175500Y-86880839D01*
X76274500Y-86880839D01*
X76274500Y-87109160D01*
X76310214Y-87334655D01*
X76380769Y-87551799D01*
X76484420Y-87755227D01*
X76484424Y-87755233D01*
X76618616Y-87939931D01*
X76618618Y-87939933D01*
X76618621Y-87939937D01*
X76780063Y-88101379D01*
X76780066Y-88101381D01*
X76780068Y-88101383D01*
X76964766Y-88235575D01*
X76964772Y-88235579D01*
X77168201Y-88339231D01*
X77385340Y-88409784D01*
X77385341Y-88409784D01*
X77385344Y-88409785D01*
X77610840Y-88445500D01*
X77610843Y-88445500D01*
X77839160Y-88445500D01*
X78064655Y-88409785D01*
X78064656Y-88409784D01*
X78064660Y-88409784D01*
X78281799Y-88339231D01*
X78485228Y-88235579D01*
X78519558Y-88210636D01*
X78573523Y-88171429D01*
X78669931Y-88101383D01*
X78669937Y-88101379D01*
X78831379Y-87939937D01*
X78965579Y-87755228D01*
X79069231Y-87551799D01*
X79139784Y-87334660D01*
X79139785Y-87334655D01*
X79175500Y-87109160D01*
X79175500Y-86880838D01*
X79175499Y-86880836D01*
X79175473Y-86880667D01*
X79173637Y-86869073D01*
X80125000Y-86869073D01*
X80125000Y-87120926D01*
X80164395Y-87369663D01*
X80242221Y-87609187D01*
X80356556Y-87833582D01*
X80356558Y-87833586D01*
X80430746Y-87935697D01*
X81160386Y-87206056D01*
X81165889Y-87226591D01*
X81244881Y-87363408D01*
X81356592Y-87475119D01*
X81493409Y-87554111D01*
X81513940Y-87559612D01*
X80784301Y-88289252D01*
X80886413Y-88363441D01*
X80886417Y-88363443D01*
X81110812Y-88477778D01*
X81350336Y-88555604D01*
X81599074Y-88595000D01*
X81850926Y-88595000D01*
X82099663Y-88555604D01*
X82339187Y-88477778D01*
X82563580Y-88363444D01*
X82665696Y-88289251D01*
X81936057Y-87559612D01*
X81956591Y-87554111D01*
X82093408Y-87475119D01*
X82205119Y-87363408D01*
X82284111Y-87226591D01*
X82289612Y-87206057D01*
X83019251Y-87935696D01*
X83093444Y-87833580D01*
X83207778Y-87609187D01*
X83285604Y-87369663D01*
X83325000Y-87120926D01*
X83325000Y-86880839D01*
X84274500Y-86880839D01*
X84274500Y-87109160D01*
X84310214Y-87334655D01*
X84380769Y-87551799D01*
X84484420Y-87755227D01*
X84484424Y-87755233D01*
X84618616Y-87939931D01*
X84618618Y-87939933D01*
X84618621Y-87939937D01*
X84780063Y-88101379D01*
X84780066Y-88101381D01*
X84780068Y-88101383D01*
X84964766Y-88235575D01*
X84964772Y-88235579D01*
X85168201Y-88339231D01*
X85385340Y-88409784D01*
X85385341Y-88409784D01*
X85385344Y-88409785D01*
X85610840Y-88445500D01*
X85610843Y-88445500D01*
X85839160Y-88445500D01*
X86064655Y-88409785D01*
X86064656Y-88409784D01*
X86064660Y-88409784D01*
X86281799Y-88339231D01*
X86485228Y-88235579D01*
X86669937Y-88101379D01*
X86831379Y-87939937D01*
X86965579Y-87755228D01*
X87069231Y-87551799D01*
X87139784Y-87334660D01*
X87139785Y-87334655D01*
X87175500Y-87109160D01*
X87175500Y-86880839D01*
X87139785Y-86655344D01*
X87128410Y-86620336D01*
X87069231Y-86438201D01*
X86965579Y-86234772D01*
X86908651Y-86156418D01*
X86831383Y-86050068D01*
X86831381Y-86050066D01*
X86831379Y-86050063D01*
X86669937Y-85888621D01*
X86669933Y-85888618D01*
X86669931Y-85888616D01*
X86485233Y-85754424D01*
X86485227Y-85754420D01*
X86281799Y-85650769D01*
X86064655Y-85580214D01*
X85839160Y-85544500D01*
X85839157Y-85544500D01*
X85610843Y-85544500D01*
X85610840Y-85544500D01*
X85385344Y-85580214D01*
X85168200Y-85650769D01*
X84964772Y-85754420D01*
X84964766Y-85754424D01*
X84780068Y-85888616D01*
X84618616Y-86050068D01*
X84484424Y-86234766D01*
X84484420Y-86234772D01*
X84380769Y-86438200D01*
X84310214Y-86655344D01*
X84274500Y-86880839D01*
X83325000Y-86880839D01*
X83325000Y-86869073D01*
X83285604Y-86620336D01*
X83207778Y-86380812D01*
X83093443Y-86156417D01*
X83093441Y-86156413D01*
X83019252Y-86054301D01*
X82289612Y-86783940D01*
X82284111Y-86763409D01*
X82205119Y-86626592D01*
X82093408Y-86514881D01*
X81956591Y-86435889D01*
X81936056Y-86430386D01*
X82665697Y-85700746D01*
X82563586Y-85626558D01*
X82563582Y-85626556D01*
X82339187Y-85512221D01*
X82099663Y-85434395D01*
X81850926Y-85395000D01*
X81599074Y-85395000D01*
X81350336Y-85434395D01*
X81110812Y-85512221D01*
X80886418Y-85626556D01*
X80784301Y-85700746D01*
X81513942Y-86430387D01*
X81493409Y-86435889D01*
X81356592Y-86514881D01*
X81244881Y-86626592D01*
X81165889Y-86763409D01*
X81160387Y-86783942D01*
X80430746Y-86054301D01*
X80356556Y-86156418D01*
X80242221Y-86380812D01*
X80164395Y-86620336D01*
X80125000Y-86869073D01*
X79173637Y-86869073D01*
X79139785Y-86655344D01*
X79128410Y-86620336D01*
X79069231Y-86438201D01*
X78965579Y-86234772D01*
X78908651Y-86156418D01*
X78831383Y-86050068D01*
X78831381Y-86050066D01*
X78831379Y-86050063D01*
X78669937Y-85888621D01*
X78669933Y-85888618D01*
X78669931Y-85888616D01*
X78573524Y-85818571D01*
X78573522Y-85818571D01*
X78563947Y-85811614D01*
X78485228Y-85754421D01*
X78485227Y-85754420D01*
X78485225Y-85754419D01*
X78281799Y-85650769D01*
X78064655Y-85580214D01*
X77839160Y-85544500D01*
X77839157Y-85544500D01*
X77610843Y-85544500D01*
X77610840Y-85544500D01*
X77385344Y-85580214D01*
X77168200Y-85650769D01*
X76964772Y-85754420D01*
X76964766Y-85754424D01*
X76780068Y-85888616D01*
X76618616Y-86050068D01*
X76484424Y-86234766D01*
X76484420Y-86234772D01*
X76380769Y-86438200D01*
X76310214Y-86655344D01*
X76274500Y-86880839D01*
X75175500Y-86880839D01*
X75139785Y-86655344D01*
X75128410Y-86620336D01*
X75069231Y-86438201D01*
X75051142Y-86402700D01*
X75041572Y-86342269D01*
X75069347Y-86287754D01*
X78112102Y-83245000D01*
X82743991Y-83245000D01*
X83741988Y-83245000D01*
X83709075Y-83302007D01*
X83675000Y-83429174D01*
X83675000Y-83560826D01*
X83709075Y-83687993D01*
X83741988Y-83745000D01*
X82743991Y-83745000D01*
X82758264Y-83835123D01*
X82828916Y-84052566D01*
X82932709Y-84256273D01*
X83067094Y-84441238D01*
X83228761Y-84602905D01*
X83413726Y-84737290D01*
X83617433Y-84841083D01*
X83834876Y-84911735D01*
X84060683Y-84947500D01*
X85474999Y-84947500D01*
X85475000Y-84947499D01*
X85475000Y-83995000D01*
X85975000Y-83995000D01*
X85975000Y-84947499D01*
X85975001Y-84947500D01*
X87389317Y-84947500D01*
X87615123Y-84911735D01*
X87832566Y-84841083D01*
X88036273Y-84737290D01*
X88221238Y-84602905D01*
X88382905Y-84441238D01*
X88517290Y-84256273D01*
X88621083Y-84052566D01*
X88691735Y-83835123D01*
X88706009Y-83745000D01*
X87708012Y-83745000D01*
X87740925Y-83687993D01*
X87775000Y-83560826D01*
X87775000Y-83429174D01*
X87740925Y-83302007D01*
X87708012Y-83245000D01*
X88706009Y-83245000D01*
X88691735Y-83154876D01*
X88621083Y-82937433D01*
X88517290Y-82733726D01*
X88382905Y-82548761D01*
X88221238Y-82387094D01*
X88036273Y-82252709D01*
X87832566Y-82148916D01*
X87615123Y-82078264D01*
X87389317Y-82042500D01*
X85975001Y-82042500D01*
X85975000Y-82042501D01*
X85975000Y-82995000D01*
X85475000Y-82995000D01*
X85475000Y-82042501D01*
X85474999Y-82042500D01*
X84060683Y-82042500D01*
X83834876Y-82078264D01*
X83617433Y-82148916D01*
X83413726Y-82252709D01*
X83228761Y-82387094D01*
X83067094Y-82548761D01*
X82932709Y-82733726D01*
X82828916Y-82937433D01*
X82758264Y-83154876D01*
X82743991Y-83245000D01*
X78112102Y-83245000D01*
X80232607Y-81124496D01*
X80287124Y-81096719D01*
X80302611Y-81095500D01*
X104834309Y-81095500D01*
X104924669Y-81071287D01*
X104924672Y-81071287D01*
X104939010Y-81067445D01*
X104948887Y-81064799D01*
X105051614Y-81005489D01*
X109777878Y-76279223D01*
X109832393Y-76251448D01*
X109892825Y-76261019D01*
X109917884Y-76279225D01*
X109920583Y-76281924D01*
X109920586Y-76281928D01*
X110043072Y-76404414D01*
X110183212Y-76506232D01*
X110337555Y-76584873D01*
X110337557Y-76584873D01*
X110337558Y-76584874D01*
X110337561Y-76584876D01*
X110502293Y-76638401D01*
X110502297Y-76638402D01*
X110673386Y-76665500D01*
X110673389Y-76665500D01*
X111846614Y-76665500D01*
X112017702Y-76638402D01*
X112017706Y-76638401D01*
X112182438Y-76584876D01*
X112182440Y-76584874D01*
X112182445Y-76584873D01*
X112336788Y-76506232D01*
X112476928Y-76404414D01*
X112599414Y-76281928D01*
X112700409Y-76142920D01*
X112749907Y-76106958D01*
X112811093Y-76106958D01*
X112860593Y-76142922D01*
X112879500Y-76201113D01*
X112879500Y-77468886D01*
X112860593Y-77527077D01*
X112811093Y-77563041D01*
X112749907Y-77563041D01*
X112700407Y-77527077D01*
X112599414Y-77388072D01*
X112476928Y-77265586D01*
X112336788Y-77163768D01*
X112336787Y-77163767D01*
X112336785Y-77163766D01*
X112182441Y-77085125D01*
X112182438Y-77085123D01*
X112017706Y-77031598D01*
X112017702Y-77031597D01*
X111846614Y-77004500D01*
X111846611Y-77004500D01*
X110673389Y-77004500D01*
X110673386Y-77004500D01*
X110502297Y-77031597D01*
X110502293Y-77031598D01*
X110337561Y-77085123D01*
X110337558Y-77085125D01*
X110183214Y-77163766D01*
X110043073Y-77265585D01*
X109920585Y-77388073D01*
X109818765Y-77528215D01*
X109818764Y-77528217D01*
X109767905Y-77628033D01*
X109724640Y-77671297D01*
X109705324Y-77678712D01*
X109681117Y-77685199D01*
X109681115Y-77685199D01*
X109578391Y-77744507D01*
X109578386Y-77744510D01*
X107720286Y-79602611D01*
X105887393Y-81435504D01*
X105832876Y-81463281D01*
X105817389Y-81464500D01*
X94745691Y-81464500D01*
X94700508Y-81476606D01*
X94655325Y-81488713D01*
X94655324Y-81488712D01*
X94631112Y-81495201D01*
X94631109Y-81495202D01*
X94528390Y-81554507D01*
X94528389Y-81554508D01*
X90432246Y-85650649D01*
X90377729Y-85678426D01*
X90317299Y-85668856D01*
X90281800Y-85650769D01*
X90064655Y-85580214D01*
X89839160Y-85544500D01*
X89839157Y-85544500D01*
X89610843Y-85544500D01*
X89610840Y-85544500D01*
X89385344Y-85580214D01*
X89168200Y-85650769D01*
X88964772Y-85754420D01*
X88964766Y-85754424D01*
X88780068Y-85888616D01*
X88618616Y-86050068D01*
X88484424Y-86234766D01*
X88484420Y-86234772D01*
X88380769Y-86438200D01*
X88310214Y-86655344D01*
X88274500Y-86880839D01*
X88274500Y-87109160D01*
X88310214Y-87334655D01*
X88380769Y-87551799D01*
X88484420Y-87755227D01*
X88484424Y-87755233D01*
X88618616Y-87939931D01*
X88618618Y-87939933D01*
X88618621Y-87939937D01*
X88780063Y-88101379D01*
X88780066Y-88101381D01*
X88780068Y-88101383D01*
X88964766Y-88235575D01*
X88964772Y-88235579D01*
X89168201Y-88339231D01*
X89385340Y-88409784D01*
X89385341Y-88409784D01*
X89385344Y-88409785D01*
X89610840Y-88445500D01*
X89610843Y-88445500D01*
X89839160Y-88445500D01*
X90064655Y-88409785D01*
X90064656Y-88409784D01*
X90064660Y-88409784D01*
X90281799Y-88339231D01*
X90485228Y-88235579D01*
X90669937Y-88101379D01*
X90831379Y-87939937D01*
X90965579Y-87755228D01*
X91069231Y-87551799D01*
X91139784Y-87334660D01*
X91139785Y-87334655D01*
X91175500Y-87109160D01*
X91175500Y-86880839D01*
X91139785Y-86655344D01*
X91128410Y-86620336D01*
X91069231Y-86438201D01*
X91051142Y-86402700D01*
X91041572Y-86342269D01*
X91069347Y-86287754D01*
X94962607Y-82394496D01*
X95017124Y-82366719D01*
X95032611Y-82365500D01*
X106104309Y-82365500D01*
X106194669Y-82341287D01*
X106194672Y-82341287D01*
X106207903Y-82337741D01*
X106218887Y-82334799D01*
X106321614Y-82275489D01*
X109777880Y-78819222D01*
X109832393Y-78791448D01*
X109892825Y-78801019D01*
X109917884Y-78819225D01*
X109920583Y-78821924D01*
X109920586Y-78821928D01*
X110043072Y-78944414D01*
X110183212Y-79046232D01*
X110337555Y-79124873D01*
X110337557Y-79124873D01*
X110337558Y-79124874D01*
X110337561Y-79124876D01*
X110502293Y-79178401D01*
X110502297Y-79178402D01*
X110673386Y-79205500D01*
X110673389Y-79205500D01*
X111846614Y-79205500D01*
X112017702Y-79178402D01*
X112017706Y-79178401D01*
X112182438Y-79124876D01*
X112182440Y-79124874D01*
X112182445Y-79124873D01*
X112336788Y-79046232D01*
X112476928Y-78944414D01*
X112599414Y-78821928D01*
X112700409Y-78682920D01*
X112749907Y-78646958D01*
X112811093Y-78646958D01*
X112860593Y-78682922D01*
X112879500Y-78741113D01*
X112879500Y-80008886D01*
X112860593Y-80067077D01*
X112811093Y-80103041D01*
X112749907Y-80103041D01*
X112700407Y-80067077D01*
X112599414Y-79928072D01*
X112476928Y-79805586D01*
X112336788Y-79703768D01*
X112336787Y-79703767D01*
X112336785Y-79703766D01*
X112182441Y-79625125D01*
X112182438Y-79625123D01*
X112017706Y-79571598D01*
X112017702Y-79571597D01*
X111846614Y-79544500D01*
X111846611Y-79544500D01*
X110673389Y-79544500D01*
X110673386Y-79544500D01*
X110502297Y-79571597D01*
X110502293Y-79571598D01*
X110337561Y-79625123D01*
X110337558Y-79625125D01*
X110183214Y-79703766D01*
X110043073Y-79805585D01*
X109920585Y-79928073D01*
X109818765Y-80068215D01*
X109818761Y-80068222D01*
X109767905Y-80168033D01*
X109724641Y-80211298D01*
X109705321Y-80218714D01*
X109681115Y-80225200D01*
X109651780Y-80242137D01*
X109651779Y-80242136D01*
X109578387Y-80284510D01*
X107157393Y-82705504D01*
X107102876Y-82733281D01*
X107087389Y-82734500D01*
X97475691Y-82734500D01*
X97430508Y-82746606D01*
X97385325Y-82758713D01*
X97385324Y-82758712D01*
X97361115Y-82765200D01*
X97361113Y-82765200D01*
X97361113Y-82765201D01*
X97258391Y-82824507D01*
X97258386Y-82824510D01*
X94432245Y-85650649D01*
X94377728Y-85678426D01*
X94317297Y-85668855D01*
X94281802Y-85650770D01*
X94064655Y-85580214D01*
X93839160Y-85544500D01*
X93839157Y-85544500D01*
X93610843Y-85544500D01*
X93610840Y-85544500D01*
X93385344Y-85580214D01*
X93168200Y-85650769D01*
X92964772Y-85754420D01*
X92964766Y-85754424D01*
X92780068Y-85888616D01*
X92618616Y-86050068D01*
X92484424Y-86234766D01*
X92484420Y-86234772D01*
X92380769Y-86438200D01*
X92310214Y-86655344D01*
X92274500Y-86880839D01*
X92274500Y-87109160D01*
X92310214Y-87334655D01*
X92380769Y-87551799D01*
X92484420Y-87755227D01*
X92484424Y-87755233D01*
X92618616Y-87939931D01*
X92618618Y-87939933D01*
X92618621Y-87939937D01*
X92780063Y-88101379D01*
X92780066Y-88101381D01*
X92780068Y-88101383D01*
X92964766Y-88235575D01*
X92964772Y-88235579D01*
X93168201Y-88339231D01*
X93385340Y-88409784D01*
X93385341Y-88409784D01*
X93385344Y-88409785D01*
X93610840Y-88445500D01*
X93610843Y-88445500D01*
X93839160Y-88445500D01*
X94064655Y-88409785D01*
X94064656Y-88409784D01*
X94064660Y-88409784D01*
X94281799Y-88339231D01*
X94485228Y-88235579D01*
X94669937Y-88101379D01*
X94831379Y-87939937D01*
X94965579Y-87755228D01*
X95069231Y-87551799D01*
X95139784Y-87334660D01*
X95139785Y-87334655D01*
X95175500Y-87109160D01*
X95175500Y-86880839D01*
X96274500Y-86880839D01*
X96274500Y-87109160D01*
X96310214Y-87334655D01*
X96380769Y-87551799D01*
X96484420Y-87755227D01*
X96484424Y-87755233D01*
X96618616Y-87939931D01*
X96618618Y-87939933D01*
X96618621Y-87939937D01*
X96780063Y-88101379D01*
X96780066Y-88101381D01*
X96780068Y-88101383D01*
X96964766Y-88235575D01*
X96964772Y-88235579D01*
X97168201Y-88339231D01*
X97385340Y-88409784D01*
X97385341Y-88409784D01*
X97385344Y-88409785D01*
X97610840Y-88445500D01*
X97610843Y-88445500D01*
X97839160Y-88445500D01*
X98064655Y-88409785D01*
X98064656Y-88409784D01*
X98064660Y-88409784D01*
X98281799Y-88339231D01*
X98485228Y-88235579D01*
X98669937Y-88101379D01*
X98831379Y-87939937D01*
X98965579Y-87755228D01*
X99069231Y-87551799D01*
X99139784Y-87334660D01*
X99139785Y-87334655D01*
X99175500Y-87109160D01*
X99175500Y-86880839D01*
X99139785Y-86655344D01*
X99128410Y-86620336D01*
X99069231Y-86438201D01*
X98965579Y-86234772D01*
X98908651Y-86156418D01*
X98831383Y-86050068D01*
X98831381Y-86050066D01*
X98831379Y-86050063D01*
X98669937Y-85888621D01*
X98669933Y-85888618D01*
X98669931Y-85888616D01*
X98485233Y-85754424D01*
X98485227Y-85754420D01*
X98281799Y-85650769D01*
X98064655Y-85580214D01*
X97839160Y-85544500D01*
X97839157Y-85544500D01*
X97610843Y-85544500D01*
X97610840Y-85544500D01*
X97385344Y-85580214D01*
X97168200Y-85650769D01*
X96964772Y-85754420D01*
X96964766Y-85754424D01*
X96780068Y-85888616D01*
X96618616Y-86050068D01*
X96484424Y-86234766D01*
X96484420Y-86234772D01*
X96380769Y-86438200D01*
X96310214Y-86655344D01*
X96274500Y-86880839D01*
X95175500Y-86880839D01*
X95139785Y-86655344D01*
X95128410Y-86620336D01*
X95069231Y-86438201D01*
X95051144Y-86402703D01*
X95041572Y-86342271D01*
X95069349Y-86287754D01*
X97692608Y-83664496D01*
X97747125Y-83636719D01*
X97762612Y-83635500D01*
X107374309Y-83635500D01*
X107464669Y-83611287D01*
X107464672Y-83611287D01*
X107479010Y-83607445D01*
X107488887Y-83604799D01*
X107591614Y-83545489D01*
X109777878Y-81359223D01*
X109832393Y-81331448D01*
X109892825Y-81341019D01*
X109917884Y-81359225D01*
X109920583Y-81361924D01*
X109920586Y-81361928D01*
X110043072Y-81484414D01*
X110183212Y-81586232D01*
X110337555Y-81664873D01*
X110337557Y-81664873D01*
X110337558Y-81664874D01*
X110337561Y-81664876D01*
X110502293Y-81718401D01*
X110502297Y-81718402D01*
X110673386Y-81745500D01*
X110673389Y-81745500D01*
X111846614Y-81745500D01*
X112017702Y-81718402D01*
X112017706Y-81718401D01*
X112182438Y-81664876D01*
X112182440Y-81664874D01*
X112182445Y-81664873D01*
X112336788Y-81586232D01*
X112476928Y-81484414D01*
X112599414Y-81361928D01*
X112700409Y-81222920D01*
X112749907Y-81186958D01*
X112811093Y-81186958D01*
X112860593Y-81222922D01*
X112879500Y-81281113D01*
X112879500Y-82548886D01*
X112860593Y-82607077D01*
X112811093Y-82643041D01*
X112749907Y-82643041D01*
X112700407Y-82607077D01*
X112599414Y-82468072D01*
X112476928Y-82345586D01*
X112336788Y-82243768D01*
X112336787Y-82243767D01*
X112336785Y-82243766D01*
X112182441Y-82165125D01*
X112182438Y-82165123D01*
X112017706Y-82111598D01*
X112017702Y-82111597D01*
X111846614Y-82084500D01*
X111846611Y-82084500D01*
X110673389Y-82084500D01*
X110673386Y-82084500D01*
X110502297Y-82111597D01*
X110502293Y-82111598D01*
X110337561Y-82165123D01*
X110337558Y-82165125D01*
X110183214Y-82243766D01*
X110043073Y-82345585D01*
X109920585Y-82468073D01*
X109818765Y-82608215D01*
X109818764Y-82608217D01*
X109767905Y-82708033D01*
X109724640Y-82751297D01*
X109705324Y-82758712D01*
X109681114Y-82765200D01*
X109681109Y-82765202D01*
X109578390Y-82824507D01*
X108427393Y-83975504D01*
X108372876Y-84003281D01*
X108357389Y-84004500D01*
X104205691Y-84004500D01*
X104148402Y-84019850D01*
X104091112Y-84035201D01*
X104047696Y-84060266D01*
X104047697Y-84060267D01*
X103988388Y-84094509D01*
X102432246Y-85650649D01*
X102377729Y-85678426D01*
X102317299Y-85668856D01*
X102281800Y-85650769D01*
X102064655Y-85580214D01*
X101839160Y-85544500D01*
X101839157Y-85544500D01*
X101610843Y-85544500D01*
X101610840Y-85544500D01*
X101385344Y-85580214D01*
X101168200Y-85650769D01*
X100964772Y-85754420D01*
X100964766Y-85754424D01*
X100780068Y-85888616D01*
X100618616Y-86050068D01*
X100484424Y-86234766D01*
X100484420Y-86234772D01*
X100380769Y-86438200D01*
X100310214Y-86655344D01*
X100274500Y-86880839D01*
X100274500Y-87109160D01*
X100310214Y-87334655D01*
X100380769Y-87551799D01*
X100484420Y-87755227D01*
X100484424Y-87755233D01*
X100618616Y-87939931D01*
X100618618Y-87939933D01*
X100618621Y-87939937D01*
X100780063Y-88101379D01*
X100780066Y-88101381D01*
X100780068Y-88101383D01*
X100964766Y-88235575D01*
X100964772Y-88235579D01*
X101168201Y-88339231D01*
X101385340Y-88409784D01*
X101385341Y-88409784D01*
X101385344Y-88409785D01*
X101610840Y-88445500D01*
X101610843Y-88445500D01*
X101839160Y-88445500D01*
X102064655Y-88409785D01*
X102064656Y-88409784D01*
X102064660Y-88409784D01*
X102281799Y-88339231D01*
X102485228Y-88235579D01*
X102669937Y-88101379D01*
X102831379Y-87939937D01*
X102965579Y-87755228D01*
X103069231Y-87551799D01*
X103139784Y-87334660D01*
X103139785Y-87334655D01*
X103175500Y-87109160D01*
X103175500Y-86880839D01*
X103139785Y-86655344D01*
X103128410Y-86620336D01*
X103069231Y-86438201D01*
X103051142Y-86402700D01*
X103041572Y-86342269D01*
X103069347Y-86287754D01*
X103718717Y-85638385D01*
X109659500Y-85638385D01*
X109659500Y-85811614D01*
X109686597Y-85982702D01*
X109686598Y-85982706D01*
X109740123Y-86147438D01*
X109740125Y-86147441D01*
X109811616Y-86287753D01*
X109818768Y-86301788D01*
X109920586Y-86441928D01*
X110043072Y-86564414D01*
X110183212Y-86666232D01*
X110337555Y-86744873D01*
X110337557Y-86744873D01*
X110337558Y-86744874D01*
X110337561Y-86744876D01*
X110502293Y-86798401D01*
X110502297Y-86798402D01*
X110673386Y-86825500D01*
X110673389Y-86825500D01*
X111846614Y-86825500D01*
X112017702Y-86798402D01*
X112017706Y-86798401D01*
X112182438Y-86744876D01*
X112182440Y-86744874D01*
X112182445Y-86744873D01*
X112336788Y-86666232D01*
X112476928Y-86564414D01*
X112599414Y-86441928D01*
X112701232Y-86301788D01*
X112779873Y-86147445D01*
X112779874Y-86147440D01*
X112779876Y-86147438D01*
X112833401Y-85982706D01*
X112833402Y-85982702D01*
X112860500Y-85811614D01*
X112860500Y-85638385D01*
X112833402Y-85467297D01*
X112833401Y-85467293D01*
X112779876Y-85302561D01*
X112779874Y-85302558D01*
X112779873Y-85302557D01*
X112779873Y-85302555D01*
X112701232Y-85148212D01*
X112599414Y-85008072D01*
X112476928Y-84885586D01*
X112336788Y-84783768D01*
X112336787Y-84783767D01*
X112336785Y-84783766D01*
X112182441Y-84705125D01*
X112182438Y-84705123D01*
X112017706Y-84651598D01*
X112017702Y-84651597D01*
X111846614Y-84624500D01*
X111846611Y-84624500D01*
X110673389Y-84624500D01*
X110673386Y-84624500D01*
X110502297Y-84651597D01*
X110502293Y-84651598D01*
X110337561Y-84705123D01*
X110337558Y-84705125D01*
X110183214Y-84783766D01*
X110043073Y-84885585D01*
X109920585Y-85008073D01*
X109818766Y-85148214D01*
X109740125Y-85302558D01*
X109740123Y-85302561D01*
X109686598Y-85467293D01*
X109686597Y-85467297D01*
X109659500Y-85638385D01*
X103718717Y-85638385D01*
X104422607Y-84934496D01*
X104477124Y-84906719D01*
X104492611Y-84905500D01*
X108644307Y-84905500D01*
X108644309Y-84905500D01*
X108736147Y-84880892D01*
X108758887Y-84874799D01*
X108861614Y-84815489D01*
X109777878Y-83899223D01*
X109832393Y-83871448D01*
X109892825Y-83881019D01*
X109917884Y-83899225D01*
X109920583Y-83901924D01*
X109920586Y-83901928D01*
X110043072Y-84024414D01*
X110183212Y-84126232D01*
X110337555Y-84204873D01*
X110337557Y-84204873D01*
X110337558Y-84204874D01*
X110337561Y-84204876D01*
X110502293Y-84258401D01*
X110502297Y-84258402D01*
X110673386Y-84285500D01*
X110673389Y-84285500D01*
X111846614Y-84285500D01*
X112017702Y-84258402D01*
X112017706Y-84258401D01*
X112182438Y-84204876D01*
X112182440Y-84204874D01*
X112182445Y-84204873D01*
X112336788Y-84126232D01*
X112476928Y-84024414D01*
X112599414Y-83901928D01*
X112700409Y-83762920D01*
X112749907Y-83726958D01*
X112811093Y-83726958D01*
X112860593Y-83762922D01*
X112879500Y-83821113D01*
X112879500Y-84749108D01*
X112879500Y-84880892D01*
X112909579Y-84993151D01*
X112913609Y-85008190D01*
X112979496Y-85122309D01*
X112979498Y-85122311D01*
X112979500Y-85122314D01*
X113072686Y-85215500D01*
X113186814Y-85281392D01*
X113186816Y-85281392D01*
X113190567Y-85282946D01*
X113237094Y-85322682D01*
X113251378Y-85382177D01*
X113246838Y-85405002D01*
X113226597Y-85467299D01*
X113199500Y-85638385D01*
X113199500Y-86811614D01*
X113226597Y-86982702D01*
X113226598Y-86982706D01*
X113280123Y-87147438D01*
X113280125Y-87147441D01*
X113321766Y-87229168D01*
X113358768Y-87301788D01*
X113460586Y-87441928D01*
X113583072Y-87564414D01*
X113723212Y-87666232D01*
X113795445Y-87703036D01*
X113838709Y-87746299D01*
X113849500Y-87791245D01*
X113849500Y-90577389D01*
X113830593Y-90635580D01*
X113820504Y-90647393D01*
X112872393Y-91595504D01*
X112817876Y-91623281D01*
X112802389Y-91624500D01*
X68172611Y-91624500D01*
X68114420Y-91605593D01*
X68102607Y-91595504D01*
X67154496Y-90647393D01*
X67126719Y-90592876D01*
X67125500Y-90577389D01*
X67125500Y-84047611D01*
X67144407Y-83989420D01*
X67154496Y-83977607D01*
X68102607Y-83029496D01*
X68157124Y-83001719D01*
X68172611Y-83000500D01*
X70544309Y-83000500D01*
X70634669Y-82976287D01*
X70634672Y-82976287D01*
X70647903Y-82972741D01*
X70658887Y-82969799D01*
X70761614Y-82910489D01*
X74655490Y-79016614D01*
X74714799Y-78913887D01*
X74729585Y-78858703D01*
X74745500Y-78799309D01*
X74745500Y-74208424D01*
X95825000Y-74208424D01*
X95825000Y-74381575D01*
X95852084Y-74552579D01*
X95905588Y-74717248D01*
X95984196Y-74871524D01*
X95988708Y-74877735D01*
X96571445Y-74294999D01*
X95988708Y-73712262D01*
X95984194Y-73718478D01*
X95905588Y-73872751D01*
X95852084Y-74037420D01*
X95825000Y-74208424D01*
X74745500Y-74208424D01*
X74745500Y-73358708D01*
X96342262Y-73358708D01*
X96983699Y-74000145D01*
X96964496Y-73995000D01*
X96885504Y-73995000D01*
X96809204Y-74015444D01*
X96740795Y-74054940D01*
X96684940Y-74110795D01*
X96645444Y-74179204D01*
X96625000Y-74255504D01*
X96625000Y-74334496D01*
X96645444Y-74410796D01*
X96684940Y-74479205D01*
X96740795Y-74535060D01*
X96809204Y-74574556D01*
X96885504Y-74595000D01*
X96964496Y-74595000D01*
X96983697Y-74589855D01*
X96342262Y-75231289D01*
X96342262Y-75231290D01*
X96348469Y-75235800D01*
X96348475Y-75235804D01*
X96502751Y-75314411D01*
X96667420Y-75367915D01*
X96838425Y-75395000D01*
X97011575Y-75395000D01*
X97182579Y-75367915D01*
X97347248Y-75314411D01*
X97501523Y-75235805D01*
X97625088Y-75146030D01*
X97683279Y-75127123D01*
X97741470Y-75146030D01*
X97743545Y-75147580D01*
X97772159Y-75169536D01*
X97918238Y-75230044D01*
X98035639Y-75245500D01*
X98814360Y-75245499D01*
X98931762Y-75230044D01*
X99077841Y-75169536D01*
X99203282Y-75073282D01*
X99299536Y-74947841D01*
X99360044Y-74801762D01*
X99375500Y-74684361D01*
X99375499Y-73905640D01*
X99375499Y-73905637D01*
X101284500Y-73905637D01*
X101284500Y-74684357D01*
X101284501Y-74684362D01*
X101299955Y-74801758D01*
X101299957Y-74801766D01*
X101360462Y-74947838D01*
X101360462Y-74947839D01*
X101456713Y-75073276D01*
X101456718Y-75073282D01*
X101582159Y-75169536D01*
X101728238Y-75230044D01*
X101845639Y-75245500D01*
X102624360Y-75245499D01*
X102741762Y-75230044D01*
X102887841Y-75169536D01*
X102916453Y-75147581D01*
X102974127Y-75127157D01*
X103032793Y-75144534D01*
X103034910Y-75146030D01*
X103158471Y-75235802D01*
X103158475Y-75235804D01*
X103312751Y-75314411D01*
X103477420Y-75367915D01*
X103648425Y-75395000D01*
X103821575Y-75395000D01*
X103992579Y-75367915D01*
X104157248Y-75314411D01*
X104311523Y-75235804D01*
X104311530Y-75235800D01*
X104317736Y-75231290D01*
X103676300Y-74589854D01*
X103695504Y-74595000D01*
X103774496Y-74595000D01*
X103850796Y-74574556D01*
X103919205Y-74535060D01*
X103975060Y-74479205D01*
X104014556Y-74410796D01*
X104035000Y-74334496D01*
X104035000Y-74294999D01*
X104088553Y-74294999D01*
X104671290Y-74877736D01*
X104675800Y-74871530D01*
X104675804Y-74871523D01*
X104754411Y-74717248D01*
X104807915Y-74552579D01*
X104835000Y-74381575D01*
X104835000Y-74208424D01*
X104807915Y-74037420D01*
X104754411Y-73872751D01*
X104675804Y-73718475D01*
X104675800Y-73718469D01*
X104671290Y-73712262D01*
X104671289Y-73712262D01*
X104088553Y-74294999D01*
X104035000Y-74294999D01*
X104035000Y-74255504D01*
X104014556Y-74179204D01*
X103975060Y-74110795D01*
X103919205Y-74054940D01*
X103850796Y-74015444D01*
X103774496Y-73995000D01*
X103695504Y-73995000D01*
X103676299Y-74000145D01*
X104317736Y-73358708D01*
X104311524Y-73354196D01*
X104157248Y-73275588D01*
X103992579Y-73222084D01*
X103821575Y-73195000D01*
X103648425Y-73195000D01*
X103477420Y-73222084D01*
X103312751Y-73275588D01*
X103158475Y-73354195D01*
X103158471Y-73354198D01*
X103034910Y-73443969D01*
X102976719Y-73462876D01*
X102918528Y-73443968D01*
X102916454Y-73442419D01*
X102887841Y-73420464D01*
X102887839Y-73420463D01*
X102854746Y-73406755D01*
X102741762Y-73359956D01*
X102741759Y-73359955D01*
X102741758Y-73359955D01*
X102624361Y-73344500D01*
X101845642Y-73344500D01*
X101845637Y-73344501D01*
X101728241Y-73359955D01*
X101728233Y-73359957D01*
X101582161Y-73420462D01*
X101582160Y-73420462D01*
X101456723Y-73516713D01*
X101456713Y-73516723D01*
X101360462Y-73642160D01*
X101360462Y-73642161D01*
X101299957Y-73788233D01*
X101299955Y-73788241D01*
X101284500Y-73905637D01*
X99375499Y-73905637D01*
X99360044Y-73788238D01*
X99332201Y-73721019D01*
X99299537Y-73642161D01*
X99299537Y-73642160D01*
X99203286Y-73516723D01*
X99203285Y-73516722D01*
X99203282Y-73516718D01*
X99203277Y-73516714D01*
X99203276Y-73516713D01*
X99077838Y-73420462D01*
X98931766Y-73359957D01*
X98931758Y-73359955D01*
X98814361Y-73344500D01*
X98035642Y-73344500D01*
X98035637Y-73344501D01*
X97918241Y-73359955D01*
X97918236Y-73359957D01*
X97772156Y-73420465D01*
X97743543Y-73442420D01*
X97685867Y-73462842D01*
X97627202Y-73445463D01*
X97625087Y-73443969D01*
X97501523Y-73354195D01*
X97347248Y-73275588D01*
X97182579Y-73222084D01*
X97011575Y-73195000D01*
X96838425Y-73195000D01*
X96667420Y-73222084D01*
X96502751Y-73275588D01*
X96348478Y-73354194D01*
X96342262Y-73358708D01*
X74745500Y-73358708D01*
X74745500Y-70425691D01*
X74714799Y-70311114D01*
X74714799Y-70311113D01*
X74714799Y-70311112D01*
X74655492Y-70208390D01*
X74655490Y-70208388D01*
X74655489Y-70208386D01*
X73301614Y-68854511D01*
X73301611Y-68854509D01*
X73301609Y-68854507D01*
X73198890Y-68795202D01*
X73198886Y-68795200D01*
X73174673Y-68788712D01*
X73174673Y-68788713D01*
X73084309Y-68764500D01*
X73084307Y-68764500D01*
X70171802Y-68764500D01*
X70113611Y-68745593D01*
X70113015Y-68745156D01*
X70036290Y-68688532D01*
X70036289Y-68688531D01*
X70036287Y-68688530D01*
X70036285Y-68688529D01*
X69904553Y-68642434D01*
X69904544Y-68642432D01*
X69873282Y-68639500D01*
X69873272Y-68639500D01*
X69386728Y-68639500D01*
X69386717Y-68639500D01*
X69355455Y-68642432D01*
X69355446Y-68642434D01*
X69223714Y-68688529D01*
X69223713Y-68688530D01*
X69223712Y-68688530D01*
X69223711Y-68688531D01*
X69111411Y-68771411D01*
X69050082Y-68854511D01*
X69028530Y-68883713D01*
X69028529Y-68883714D01*
X68982434Y-69015446D01*
X68982432Y-69015455D01*
X68979500Y-69046717D01*
X68979500Y-69383282D01*
X68982432Y-69414544D01*
X68982434Y-69414553D01*
X69028529Y-69546285D01*
X69028531Y-69546289D01*
X69111411Y-69658589D01*
X69223711Y-69741469D01*
X69355451Y-69787567D01*
X69384293Y-69790271D01*
X69386717Y-69790499D01*
X69386721Y-69790500D01*
X69386728Y-69790500D01*
X69873279Y-69790500D01*
X69873281Y-69790499D01*
X69904549Y-69787567D01*
X70036289Y-69741469D01*
X70099936Y-69694496D01*
X70113015Y-69684844D01*
X70171063Y-69665503D01*
X70171802Y-69665500D01*
X72797389Y-69665500D01*
X72855580Y-69684407D01*
X72867393Y-69694496D01*
X73815504Y-70642607D01*
X73843281Y-70697124D01*
X73844500Y-70712611D01*
X73844500Y-78512388D01*
X73825593Y-78570579D01*
X73815504Y-78582392D01*
X70327393Y-82070504D01*
X70272876Y-82098281D01*
X70257389Y-82099500D01*
X67885691Y-82099500D01*
X67840544Y-82111597D01*
X67795325Y-82123713D01*
X67795324Y-82123712D01*
X67771112Y-82130201D01*
X67771109Y-82130202D01*
X67668390Y-82189507D01*
X66314507Y-83543390D01*
X66255200Y-83646112D01*
X66255200Y-83646113D01*
X66255201Y-83646114D01*
X66224500Y-83760691D01*
X66224500Y-90864309D01*
X66248713Y-90954673D01*
X66248712Y-90954673D01*
X66255200Y-90978886D01*
X66255202Y-90978890D01*
X66314507Y-91081609D01*
X66314509Y-91081611D01*
X66314511Y-91081614D01*
X67668386Y-92435489D01*
X67668388Y-92435490D01*
X67668390Y-92435492D01*
X67771107Y-92494796D01*
X67771109Y-92494797D01*
X67771113Y-92494799D01*
X67795322Y-92501284D01*
X67795325Y-92501287D01*
X67795326Y-92501286D01*
X67885688Y-92525499D01*
X67885690Y-92525500D01*
X67885691Y-92525500D01*
X96463389Y-92525500D01*
X96521580Y-92544407D01*
X96557544Y-92593907D01*
X96557544Y-92655093D01*
X96533393Y-92694504D01*
X95524507Y-93703390D01*
X95465200Y-93806112D01*
X95465200Y-93806113D01*
X95465201Y-93806114D01*
X95434500Y-93920692D01*
X95434500Y-107722389D01*
X95415593Y-107780580D01*
X95405504Y-107792393D01*
X94457393Y-108740504D01*
X94402876Y-108768281D01*
X94387389Y-108769500D01*
X87951802Y-108769500D01*
X87893611Y-108750593D01*
X87893015Y-108750156D01*
X87816290Y-108693532D01*
X87816289Y-108693531D01*
X87816287Y-108693530D01*
X87816285Y-108693529D01*
X87684553Y-108647434D01*
X87684544Y-108647432D01*
X87653282Y-108644500D01*
X87653272Y-108644500D01*
X87166728Y-108644500D01*
X87166717Y-108644500D01*
X87135455Y-108647432D01*
X87135446Y-108647434D01*
X87003714Y-108693529D01*
X87003713Y-108693530D01*
X87003712Y-108693530D01*
X87003711Y-108693531D01*
X87003710Y-108693532D01*
X86891411Y-108776411D01*
X86808530Y-108888713D01*
X86808529Y-108888714D01*
X86762434Y-109020446D01*
X86762432Y-109020455D01*
X86759500Y-109051717D01*
X86759500Y-109388282D01*
X86762432Y-109419544D01*
X86762434Y-109419553D01*
X86808529Y-109551285D01*
X86808531Y-109551289D01*
X86891411Y-109663589D01*
X87003711Y-109746469D01*
X87135451Y-109792567D01*
X87164293Y-109795271D01*
X87166717Y-109795499D01*
X87166721Y-109795500D01*
X87166728Y-109795500D01*
X87653279Y-109795500D01*
X87653281Y-109795499D01*
X87684549Y-109792567D01*
X87816289Y-109746469D01*
X87882786Y-109697393D01*
X87893015Y-109689844D01*
X87951063Y-109670503D01*
X87951802Y-109670500D01*
X94674309Y-109670500D01*
X94764669Y-109646287D01*
X94764672Y-109646287D01*
X94777903Y-109642741D01*
X94788887Y-109639799D01*
X94891614Y-109580489D01*
X96245489Y-108226614D01*
X96304799Y-108123887D01*
X96311188Y-108100044D01*
X96314968Y-108085939D01*
X96322482Y-108057890D01*
X96335500Y-108009309D01*
X96335500Y-106025637D01*
X98554500Y-106025637D01*
X98554500Y-107554357D01*
X98554501Y-107554362D01*
X98569955Y-107671758D01*
X98569957Y-107671766D01*
X98630462Y-107817838D01*
X98630462Y-107817839D01*
X98630464Y-107817841D01*
X98726718Y-107943282D01*
X98726722Y-107943285D01*
X98726723Y-107943286D01*
X98756082Y-107965813D01*
X98852159Y-108039536D01*
X98852160Y-108039536D01*
X98852161Y-108039537D01*
X98964188Y-108085940D01*
X98998238Y-108100044D01*
X99115639Y-108115500D01*
X99205500Y-108115499D01*
X99263690Y-108134406D01*
X99299654Y-108183905D01*
X99304500Y-108214499D01*
X99304500Y-108484309D01*
X99328713Y-108574673D01*
X99328712Y-108574673D01*
X99335200Y-108598886D01*
X99335202Y-108598890D01*
X99394507Y-108701609D01*
X99394509Y-108701611D01*
X99394511Y-108701614D01*
X99870505Y-109177608D01*
X99898281Y-109232123D01*
X99899500Y-109247610D01*
X99899500Y-109388282D01*
X99902432Y-109419544D01*
X99902434Y-109419553D01*
X99948529Y-109551285D01*
X99948531Y-109551289D01*
X100031411Y-109663589D01*
X100143711Y-109746469D01*
X100275451Y-109792567D01*
X100304293Y-109795271D01*
X100306717Y-109795499D01*
X100306721Y-109795500D01*
X100306728Y-109795500D01*
X100793279Y-109795500D01*
X100793281Y-109795499D01*
X100824549Y-109792567D01*
X100956289Y-109746469D01*
X101068589Y-109663589D01*
X101151469Y-109551289D01*
X101197567Y-109419549D01*
X101200499Y-109388281D01*
X101200500Y-109388279D01*
X101200500Y-109051721D01*
X101200499Y-109051717D01*
X101197567Y-109020455D01*
X101197567Y-109020451D01*
X101151469Y-108888711D01*
X101068589Y-108776411D01*
X100956289Y-108693531D01*
X100956285Y-108693529D01*
X100824553Y-108647434D01*
X100824544Y-108647432D01*
X100793282Y-108644500D01*
X100793272Y-108644500D01*
X100652612Y-108644500D01*
X100594421Y-108625593D01*
X100582608Y-108615504D01*
X100251607Y-108284503D01*
X100223830Y-108229986D01*
X100233401Y-108169554D01*
X100276666Y-108126289D01*
X100321611Y-108115499D01*
X100394358Y-108115499D01*
X100394360Y-108115499D01*
X100511762Y-108100044D01*
X100657841Y-108039536D01*
X100783282Y-107943282D01*
X100879536Y-107817841D01*
X100940044Y-107671762D01*
X100955500Y-107554361D01*
X100955500Y-107421281D01*
X100974407Y-107363090D01*
X101023907Y-107327126D01*
X101085093Y-107327126D01*
X101134593Y-107363090D01*
X101142710Y-107376336D01*
X101228237Y-107544195D01*
X101228240Y-107544199D01*
X101339310Y-107697073D01*
X101472927Y-107830690D01*
X101625801Y-107941760D01*
X101794168Y-108027547D01*
X101973882Y-108085940D01*
X101973883Y-108085940D01*
X101973886Y-108085941D01*
X102160516Y-108115500D01*
X102160519Y-108115500D01*
X102349484Y-108115500D01*
X102536113Y-108085941D01*
X102536114Y-108085940D01*
X102536118Y-108085940D01*
X102715832Y-108027547D01*
X102884199Y-107941760D01*
X103037073Y-107830690D01*
X103170690Y-107697073D01*
X103281760Y-107544199D01*
X103367547Y-107375832D01*
X103410845Y-107242572D01*
X103446809Y-107193074D01*
X103505000Y-107174167D01*
X103563191Y-107193074D01*
X103599154Y-107242572D01*
X103638313Y-107363090D01*
X103642453Y-107375832D01*
X103728237Y-107544195D01*
X103728240Y-107544199D01*
X103839310Y-107697073D01*
X103972927Y-107830690D01*
X104125801Y-107941760D01*
X104294168Y-108027547D01*
X104473882Y-108085940D01*
X104473883Y-108085940D01*
X104473886Y-108085941D01*
X104660516Y-108115500D01*
X104660519Y-108115500D01*
X104849484Y-108115500D01*
X105036113Y-108085941D01*
X105036114Y-108085940D01*
X105036118Y-108085940D01*
X105215832Y-108027547D01*
X105384199Y-107941760D01*
X105537073Y-107830690D01*
X105670690Y-107697073D01*
X105781760Y-107544199D01*
X105832896Y-107443837D01*
X105876160Y-107400573D01*
X105936592Y-107391001D01*
X105991109Y-107418778D01*
X106009316Y-107443837D01*
X106100375Y-107622551D01*
X106225277Y-107794464D01*
X106375535Y-107944722D01*
X106547447Y-108069624D01*
X106736784Y-108166095D01*
X106938877Y-108231758D01*
X107004999Y-108242231D01*
X107005000Y-108242230D01*
X107005000Y-107194145D01*
X107071657Y-107232630D01*
X107192465Y-107265000D01*
X107317535Y-107265000D01*
X107438343Y-107232630D01*
X107505000Y-107194145D01*
X107505000Y-108242231D01*
X107571122Y-108231758D01*
X107773215Y-108166095D01*
X107962552Y-108069624D01*
X108134464Y-107944722D01*
X108284722Y-107794464D01*
X108409624Y-107622552D01*
X108506095Y-107433215D01*
X108571759Y-107231121D01*
X108602030Y-107040000D01*
X107659146Y-107040000D01*
X107697630Y-106973343D01*
X107730000Y-106852535D01*
X107730000Y-106727465D01*
X107697630Y-106606657D01*
X107659146Y-106540000D01*
X108602030Y-106540000D01*
X108602030Y-106539999D01*
X108571759Y-106348878D01*
X108506095Y-106146784D01*
X108409624Y-105957447D01*
X108284722Y-105785535D01*
X108134464Y-105635277D01*
X107962552Y-105510375D01*
X107773215Y-105413904D01*
X107571120Y-105348240D01*
X107505000Y-105337767D01*
X107505000Y-106385854D01*
X107438343Y-106347370D01*
X107317535Y-106315000D01*
X107192465Y-106315000D01*
X107071657Y-106347370D01*
X107005000Y-106385854D01*
X107005000Y-105337768D01*
X107004999Y-105337767D01*
X106938880Y-105348240D01*
X106938878Y-105348240D01*
X106736784Y-105413904D01*
X106547447Y-105510375D01*
X106375535Y-105635277D01*
X106225277Y-105785535D01*
X106100375Y-105957448D01*
X106009316Y-106136162D01*
X105966051Y-106179427D01*
X105905619Y-106188998D01*
X105851102Y-106161220D01*
X105832896Y-106136162D01*
X105781761Y-106035803D01*
X105774379Y-106025642D01*
X105670690Y-105882927D01*
X105537073Y-105749310D01*
X105384199Y-105638240D01*
X105384198Y-105638239D01*
X105384196Y-105638238D01*
X105215832Y-105552453D01*
X105036113Y-105494058D01*
X104849484Y-105464500D01*
X104849481Y-105464500D01*
X104660519Y-105464500D01*
X104660516Y-105464500D01*
X104473886Y-105494058D01*
X104294167Y-105552453D01*
X104125803Y-105638238D01*
X103972928Y-105749309D01*
X103839309Y-105882928D01*
X103728238Y-106035803D01*
X103642453Y-106204167D01*
X103599155Y-106337425D01*
X103563191Y-106386925D01*
X103505000Y-106405832D01*
X103446809Y-106386925D01*
X103410845Y-106337425D01*
X103381441Y-106246930D01*
X103367547Y-106204168D01*
X103281760Y-106035801D01*
X103170690Y-105882927D01*
X103037073Y-105749310D01*
X102884199Y-105638240D01*
X102884198Y-105638239D01*
X102884196Y-105638238D01*
X102715832Y-105552453D01*
X102536113Y-105494058D01*
X102349484Y-105464500D01*
X102349481Y-105464500D01*
X102160519Y-105464500D01*
X102160516Y-105464500D01*
X101973886Y-105494058D01*
X101794167Y-105552453D01*
X101625803Y-105638238D01*
X101472928Y-105749309D01*
X101339309Y-105882928D01*
X101228238Y-106035803D01*
X101142709Y-106203665D01*
X101099444Y-106246930D01*
X101039012Y-106256501D01*
X100984495Y-106228724D01*
X100956718Y-106174207D01*
X100955499Y-106158720D01*
X100955499Y-106025642D01*
X100955499Y-106025640D01*
X100940044Y-105908238D01*
X100879537Y-105762161D01*
X100879537Y-105762160D01*
X100783286Y-105636723D01*
X100783285Y-105636722D01*
X100783282Y-105636718D01*
X100783277Y-105636714D01*
X100783276Y-105636713D01*
X100657838Y-105540462D01*
X100511766Y-105479957D01*
X100511758Y-105479955D01*
X100394361Y-105464500D01*
X99115642Y-105464500D01*
X99115637Y-105464501D01*
X98998241Y-105479955D01*
X98998233Y-105479957D01*
X98852161Y-105540462D01*
X98852160Y-105540462D01*
X98726723Y-105636713D01*
X98726713Y-105636723D01*
X98630462Y-105762160D01*
X98630462Y-105762161D01*
X98569957Y-105908233D01*
X98569955Y-105908241D01*
X98554500Y-106025637D01*
X96335500Y-106025637D01*
X96335500Y-94207611D01*
X96354407Y-94149420D01*
X96364496Y-94137607D01*
X97312607Y-93189496D01*
X97367124Y-93161719D01*
X97382611Y-93160500D01*
X111703389Y-93160500D01*
X111761580Y-93179407D01*
X111797544Y-93228907D01*
X111797544Y-93290093D01*
X111773393Y-93329504D01*
X110764507Y-94338390D01*
X110705200Y-94441112D01*
X110705200Y-94441113D01*
X110705201Y-94441114D01*
X110674500Y-94555692D01*
X110674500Y-107722389D01*
X110655593Y-107780580D01*
X110645504Y-107792393D01*
X109697393Y-108740504D01*
X109642876Y-108768281D01*
X109627389Y-108769500D01*
X103191802Y-108769500D01*
X103133611Y-108750593D01*
X103133015Y-108750156D01*
X103056290Y-108693532D01*
X103056289Y-108693531D01*
X103056287Y-108693530D01*
X103056285Y-108693529D01*
X102924553Y-108647434D01*
X102924544Y-108647432D01*
X102893282Y-108644500D01*
X102893272Y-108644500D01*
X102406728Y-108644500D01*
X102406717Y-108644500D01*
X102375455Y-108647432D01*
X102375446Y-108647434D01*
X102243714Y-108693529D01*
X102243713Y-108693530D01*
X102243712Y-108693530D01*
X102243711Y-108693531D01*
X102243710Y-108693532D01*
X102131411Y-108776411D01*
X102048530Y-108888713D01*
X102048529Y-108888714D01*
X102002434Y-109020446D01*
X102002432Y-109020455D01*
X101999500Y-109051717D01*
X101999500Y-109388282D01*
X102002432Y-109419544D01*
X102002434Y-109419553D01*
X102048529Y-109551285D01*
X102048531Y-109551289D01*
X102131411Y-109663589D01*
X102243711Y-109746469D01*
X102375451Y-109792567D01*
X102404293Y-109795271D01*
X102406717Y-109795499D01*
X102406721Y-109795500D01*
X102406728Y-109795500D01*
X102893279Y-109795500D01*
X102893281Y-109795499D01*
X102924549Y-109792567D01*
X103056289Y-109746469D01*
X103122786Y-109697393D01*
X103133015Y-109689844D01*
X103191063Y-109670503D01*
X103191802Y-109670500D01*
X109914309Y-109670500D01*
X110004669Y-109646287D01*
X110004672Y-109646287D01*
X110017903Y-109642741D01*
X110028887Y-109639799D01*
X110131614Y-109580489D01*
X111485489Y-108226614D01*
X111544799Y-108123887D01*
X111551188Y-108100044D01*
X111554968Y-108085939D01*
X111562482Y-108057890D01*
X111575500Y-108009309D01*
X111575500Y-106025637D01*
X113794500Y-106025637D01*
X113794500Y-107554357D01*
X113794501Y-107554362D01*
X113809955Y-107671758D01*
X113809957Y-107671766D01*
X113870462Y-107817838D01*
X113870462Y-107817839D01*
X113870464Y-107817841D01*
X113966718Y-107943282D01*
X113966722Y-107943285D01*
X113966723Y-107943286D01*
X113996082Y-107965813D01*
X114092159Y-108039536D01*
X114092160Y-108039536D01*
X114092161Y-108039537D01*
X114204188Y-108085940D01*
X114238238Y-108100044D01*
X114355639Y-108115500D01*
X114445500Y-108115499D01*
X114503690Y-108134406D01*
X114539654Y-108183905D01*
X114544500Y-108214499D01*
X114544500Y-108484309D01*
X114568713Y-108574673D01*
X114568712Y-108574673D01*
X114575200Y-108598886D01*
X114575202Y-108598890D01*
X114634507Y-108701609D01*
X114634509Y-108701611D01*
X114634511Y-108701614D01*
X115110505Y-109177608D01*
X115138281Y-109232123D01*
X115139500Y-109247610D01*
X115139500Y-109388282D01*
X115142432Y-109419544D01*
X115142434Y-109419553D01*
X115188529Y-109551285D01*
X115188531Y-109551289D01*
X115271411Y-109663589D01*
X115383711Y-109746469D01*
X115515451Y-109792567D01*
X115544293Y-109795271D01*
X115546717Y-109795499D01*
X115546721Y-109795500D01*
X115546728Y-109795500D01*
X116033279Y-109795500D01*
X116033281Y-109795499D01*
X116064549Y-109792567D01*
X116196289Y-109746469D01*
X116308589Y-109663589D01*
X116391469Y-109551289D01*
X116437567Y-109419549D01*
X116440499Y-109388281D01*
X116440500Y-109388279D01*
X116440500Y-109051721D01*
X116440499Y-109051717D01*
X117239500Y-109051717D01*
X117239500Y-109388282D01*
X117242432Y-109419544D01*
X117242434Y-109419553D01*
X117288529Y-109551285D01*
X117288531Y-109551289D01*
X117371411Y-109663589D01*
X117483711Y-109746469D01*
X117615451Y-109792567D01*
X117644293Y-109795271D01*
X117646717Y-109795499D01*
X117646721Y-109795500D01*
X117646728Y-109795500D01*
X118133279Y-109795500D01*
X118133281Y-109795499D01*
X118164549Y-109792567D01*
X118296289Y-109746469D01*
X118362786Y-109697393D01*
X118373015Y-109689844D01*
X118431063Y-109670503D01*
X118431802Y-109670500D01*
X125154309Y-109670500D01*
X125244669Y-109646287D01*
X125244672Y-109646287D01*
X125257903Y-109642741D01*
X125268887Y-109639799D01*
X125371614Y-109580489D01*
X126725489Y-108226614D01*
X126784799Y-108123887D01*
X126791188Y-108100044D01*
X126794968Y-108085939D01*
X126802482Y-108057890D01*
X126815500Y-108009309D01*
X126815500Y-95160111D01*
X126834407Y-95101920D01*
X126844496Y-95090107D01*
X127061412Y-94873191D01*
X127360490Y-94574114D01*
X127419799Y-94471386D01*
X127427910Y-94441114D01*
X127450500Y-94356809D01*
X127450500Y-86924500D01*
X127469407Y-86866309D01*
X127518907Y-86830345D01*
X127549500Y-86825500D01*
X128086614Y-86825500D01*
X128257702Y-86798402D01*
X128257706Y-86798401D01*
X128422438Y-86744876D01*
X128422440Y-86744874D01*
X128422445Y-86744873D01*
X128576788Y-86666232D01*
X128716928Y-86564414D01*
X128839414Y-86441928D01*
X128941232Y-86301788D01*
X129019873Y-86147445D01*
X129019874Y-86147440D01*
X129019876Y-86147438D01*
X129073401Y-85982706D01*
X129073402Y-85982702D01*
X129100500Y-85811614D01*
X129100500Y-85638385D01*
X129073402Y-85467297D01*
X129073401Y-85467293D01*
X129019876Y-85302561D01*
X129019874Y-85302558D01*
X129019873Y-85302557D01*
X129019873Y-85302555D01*
X128941232Y-85148212D01*
X128839414Y-85008072D01*
X128716928Y-84885586D01*
X128576788Y-84783768D01*
X128576787Y-84783767D01*
X128576785Y-84783766D01*
X128422441Y-84705125D01*
X128422438Y-84705123D01*
X128257706Y-84651598D01*
X128257702Y-84651597D01*
X128086614Y-84624500D01*
X128086611Y-84624500D01*
X126913389Y-84624500D01*
X126913386Y-84624500D01*
X126742297Y-84651597D01*
X126742293Y-84651598D01*
X126577561Y-84705123D01*
X126577558Y-84705125D01*
X126423214Y-84783766D01*
X126283073Y-84885585D01*
X126160585Y-85008073D01*
X126058766Y-85148214D01*
X125980125Y-85302558D01*
X125980123Y-85302561D01*
X125926598Y-85467293D01*
X125926597Y-85467297D01*
X125899500Y-85638385D01*
X125899500Y-85811614D01*
X125926597Y-85982702D01*
X125926598Y-85982706D01*
X125980123Y-86147438D01*
X125980125Y-86147441D01*
X126051616Y-86287753D01*
X126058768Y-86301788D01*
X126160586Y-86441928D01*
X126283072Y-86564414D01*
X126423212Y-86666232D01*
X126495445Y-86703036D01*
X126538709Y-86746299D01*
X126549500Y-86791245D01*
X126549500Y-94069888D01*
X126530593Y-94128079D01*
X126520504Y-94139891D01*
X126004511Y-94655885D01*
X126004507Y-94655890D01*
X125945200Y-94758612D01*
X125945200Y-94758613D01*
X125945201Y-94758614D01*
X125914500Y-94873192D01*
X125914500Y-107722389D01*
X125895593Y-107780580D01*
X125885504Y-107792393D01*
X124937393Y-108740504D01*
X124882876Y-108768281D01*
X124867389Y-108769500D01*
X118431802Y-108769500D01*
X118373611Y-108750593D01*
X118373015Y-108750156D01*
X118296290Y-108693532D01*
X118296289Y-108693531D01*
X118296287Y-108693530D01*
X118296285Y-108693529D01*
X118164553Y-108647434D01*
X118164544Y-108647432D01*
X118133282Y-108644500D01*
X118133272Y-108644500D01*
X117646728Y-108644500D01*
X117646717Y-108644500D01*
X117615455Y-108647432D01*
X117615446Y-108647434D01*
X117483714Y-108693529D01*
X117483713Y-108693530D01*
X117483712Y-108693530D01*
X117483711Y-108693531D01*
X117483710Y-108693532D01*
X117371411Y-108776411D01*
X117288530Y-108888713D01*
X117288529Y-108888714D01*
X117242434Y-109020446D01*
X117242432Y-109020455D01*
X117239500Y-109051717D01*
X116440499Y-109051717D01*
X116437567Y-109020455D01*
X116437567Y-109020451D01*
X116391469Y-108888711D01*
X116308589Y-108776411D01*
X116196289Y-108693531D01*
X116196285Y-108693529D01*
X116064553Y-108647434D01*
X116064544Y-108647432D01*
X116033282Y-108644500D01*
X116033272Y-108644500D01*
X115892612Y-108644500D01*
X115834421Y-108625593D01*
X115822608Y-108615504D01*
X115491607Y-108284503D01*
X115463830Y-108229986D01*
X115473401Y-108169554D01*
X115516666Y-108126289D01*
X115561611Y-108115499D01*
X115634358Y-108115499D01*
X115634360Y-108115499D01*
X115751762Y-108100044D01*
X115897841Y-108039536D01*
X116023282Y-107943282D01*
X116119536Y-107817841D01*
X116180044Y-107671762D01*
X116195500Y-107554361D01*
X116195500Y-107421281D01*
X116214407Y-107363090D01*
X116263907Y-107327126D01*
X116325093Y-107327126D01*
X116374593Y-107363090D01*
X116382710Y-107376336D01*
X116468237Y-107544195D01*
X116468240Y-107544199D01*
X116579310Y-107697073D01*
X116712927Y-107830690D01*
X116865801Y-107941760D01*
X117034168Y-108027547D01*
X117213882Y-108085940D01*
X117213883Y-108085940D01*
X117213886Y-108085941D01*
X117400516Y-108115500D01*
X117400519Y-108115500D01*
X117589484Y-108115500D01*
X117776113Y-108085941D01*
X117776114Y-108085940D01*
X117776118Y-108085940D01*
X117955832Y-108027547D01*
X118124199Y-107941760D01*
X118277073Y-107830690D01*
X118410690Y-107697073D01*
X118521760Y-107544199D01*
X118607547Y-107375832D01*
X118650845Y-107242572D01*
X118686809Y-107193074D01*
X118745000Y-107174167D01*
X118803191Y-107193074D01*
X118839154Y-107242572D01*
X118878313Y-107363090D01*
X118882453Y-107375832D01*
X118968237Y-107544195D01*
X118968240Y-107544199D01*
X119079310Y-107697073D01*
X119212927Y-107830690D01*
X119365801Y-107941760D01*
X119534168Y-108027547D01*
X119713882Y-108085940D01*
X119713883Y-108085940D01*
X119713886Y-108085941D01*
X119900516Y-108115500D01*
X119900519Y-108115500D01*
X120089484Y-108115500D01*
X120276113Y-108085941D01*
X120276114Y-108085940D01*
X120276118Y-108085940D01*
X120455832Y-108027547D01*
X120624199Y-107941760D01*
X120777073Y-107830690D01*
X120910690Y-107697073D01*
X121021760Y-107544199D01*
X121072896Y-107443837D01*
X121116160Y-107400573D01*
X121176592Y-107391001D01*
X121231109Y-107418778D01*
X121249316Y-107443837D01*
X121340375Y-107622551D01*
X121465277Y-107794464D01*
X121615535Y-107944722D01*
X121787447Y-108069624D01*
X121976784Y-108166095D01*
X122178877Y-108231758D01*
X122244999Y-108242231D01*
X122245000Y-108242230D01*
X122245000Y-107194145D01*
X122311657Y-107232630D01*
X122432465Y-107265000D01*
X122557535Y-107265000D01*
X122678343Y-107232630D01*
X122745000Y-107194145D01*
X122745000Y-108242231D01*
X122811122Y-108231758D01*
X123013215Y-108166095D01*
X123202552Y-108069624D01*
X123374464Y-107944722D01*
X123524722Y-107794464D01*
X123649624Y-107622552D01*
X123746095Y-107433215D01*
X123811759Y-107231121D01*
X123842030Y-107040000D01*
X122899146Y-107040000D01*
X122937630Y-106973343D01*
X122970000Y-106852535D01*
X122970000Y-106727465D01*
X122937630Y-106606657D01*
X122899146Y-106540000D01*
X123842030Y-106540000D01*
X123842030Y-106539999D01*
X123811759Y-106348878D01*
X123746095Y-106146784D01*
X123649624Y-105957447D01*
X123524722Y-105785535D01*
X123374464Y-105635277D01*
X123202552Y-105510375D01*
X123013215Y-105413904D01*
X122811120Y-105348240D01*
X122745000Y-105337767D01*
X122745000Y-106385854D01*
X122678343Y-106347370D01*
X122557535Y-106315000D01*
X122432465Y-106315000D01*
X122311657Y-106347370D01*
X122245000Y-106385854D01*
X122245000Y-105337768D01*
X122244999Y-105337767D01*
X122178880Y-105348240D01*
X122178878Y-105348240D01*
X121976784Y-105413904D01*
X121787447Y-105510375D01*
X121615535Y-105635277D01*
X121465277Y-105785535D01*
X121340375Y-105957448D01*
X121249316Y-106136162D01*
X121206051Y-106179427D01*
X121145619Y-106188998D01*
X121091102Y-106161220D01*
X121072896Y-106136162D01*
X121021761Y-106035803D01*
X121014379Y-106025642D01*
X120910690Y-105882927D01*
X120777073Y-105749310D01*
X120624199Y-105638240D01*
X120624198Y-105638239D01*
X120624196Y-105638238D01*
X120455832Y-105552453D01*
X120276113Y-105494058D01*
X120089484Y-105464500D01*
X120089481Y-105464500D01*
X119900519Y-105464500D01*
X119900516Y-105464500D01*
X119713886Y-105494058D01*
X119534167Y-105552453D01*
X119365803Y-105638238D01*
X119212928Y-105749309D01*
X119079309Y-105882928D01*
X118968238Y-106035803D01*
X118882453Y-106204167D01*
X118839155Y-106337425D01*
X118803191Y-106386925D01*
X118745000Y-106405832D01*
X118686809Y-106386925D01*
X118650845Y-106337425D01*
X118621441Y-106246930D01*
X118607547Y-106204168D01*
X118521760Y-106035801D01*
X118410690Y-105882927D01*
X118277073Y-105749310D01*
X118124199Y-105638240D01*
X118124198Y-105638239D01*
X118124196Y-105638238D01*
X117955832Y-105552453D01*
X117776113Y-105494058D01*
X117589484Y-105464500D01*
X117589481Y-105464500D01*
X117400519Y-105464500D01*
X117400516Y-105464500D01*
X117213886Y-105494058D01*
X117034167Y-105552453D01*
X116865803Y-105638238D01*
X116712928Y-105749309D01*
X116579309Y-105882928D01*
X116468238Y-106035803D01*
X116382709Y-106203665D01*
X116339444Y-106246930D01*
X116279012Y-106256501D01*
X116224495Y-106228724D01*
X116196718Y-106174207D01*
X116195499Y-106158720D01*
X116195499Y-106025642D01*
X116195499Y-106025640D01*
X116180044Y-105908238D01*
X116119537Y-105762161D01*
X116119537Y-105762160D01*
X116023286Y-105636723D01*
X116023285Y-105636722D01*
X116023282Y-105636718D01*
X116023277Y-105636714D01*
X116023276Y-105636713D01*
X115897838Y-105540462D01*
X115751766Y-105479957D01*
X115751758Y-105479955D01*
X115634361Y-105464500D01*
X114355642Y-105464500D01*
X114355637Y-105464501D01*
X114238241Y-105479955D01*
X114238233Y-105479957D01*
X114092161Y-105540462D01*
X114092160Y-105540462D01*
X113966723Y-105636713D01*
X113966713Y-105636723D01*
X113870462Y-105762160D01*
X113870462Y-105762161D01*
X113809957Y-105908233D01*
X113809955Y-105908241D01*
X113794500Y-106025637D01*
X111575500Y-106025637D01*
X111575500Y-94842611D01*
X111594407Y-94784420D01*
X111604496Y-94772607D01*
X112552607Y-93824496D01*
X112607124Y-93796719D01*
X112622611Y-93795500D01*
X123249309Y-93795500D01*
X123339669Y-93771287D01*
X123339672Y-93771287D01*
X123352903Y-93767741D01*
X123363887Y-93764799D01*
X123466614Y-93705489D01*
X124820489Y-92351614D01*
X124879799Y-92248887D01*
X124885082Y-92229168D01*
X124886287Y-92224672D01*
X124886287Y-92224669D01*
X124910500Y-92134309D01*
X124910500Y-87791245D01*
X124929407Y-87733054D01*
X124964554Y-87703036D01*
X125036788Y-87666232D01*
X125176928Y-87564414D01*
X125299414Y-87441928D01*
X125401232Y-87301788D01*
X125479873Y-87147445D01*
X125479874Y-87147440D01*
X125479876Y-87147438D01*
X125533401Y-86982706D01*
X125533402Y-86982702D01*
X125560500Y-86811614D01*
X125560500Y-85638385D01*
X125533403Y-85467303D01*
X125533400Y-85467293D01*
X125513159Y-85405001D01*
X125513159Y-85343820D01*
X125549122Y-85294319D01*
X125569440Y-85282942D01*
X125573171Y-85281395D01*
X125573186Y-85281392D01*
X125687314Y-85215500D01*
X125780500Y-85122314D01*
X125846392Y-85008186D01*
X125880500Y-84880892D01*
X125880500Y-83821113D01*
X125899407Y-83762922D01*
X125948907Y-83726958D01*
X126010093Y-83726958D01*
X126059590Y-83762920D01*
X126160586Y-83901928D01*
X126283072Y-84024414D01*
X126423212Y-84126232D01*
X126577555Y-84204873D01*
X126577557Y-84204873D01*
X126577558Y-84204874D01*
X126577561Y-84204876D01*
X126742293Y-84258401D01*
X126742297Y-84258402D01*
X126913386Y-84285500D01*
X126913389Y-84285500D01*
X128086614Y-84285500D01*
X128257702Y-84258402D01*
X128257706Y-84258401D01*
X128422438Y-84204876D01*
X128422440Y-84204874D01*
X128422445Y-84204873D01*
X128576788Y-84126232D01*
X128716928Y-84024414D01*
X128839414Y-83901928D01*
X128941232Y-83761788D01*
X128978036Y-83689554D01*
X129021301Y-83646290D01*
X129066246Y-83635500D01*
X129312389Y-83635500D01*
X129370580Y-83654407D01*
X129382393Y-83664496D01*
X130330504Y-84612607D01*
X130358281Y-84667124D01*
X130359500Y-84682611D01*
X130359500Y-109627389D01*
X130340593Y-109685580D01*
X130330504Y-109697393D01*
X129382393Y-110645504D01*
X129327876Y-110673281D01*
X129312389Y-110674500D01*
X89475691Y-110674500D01*
X89430508Y-110686606D01*
X89385325Y-110698713D01*
X89385324Y-110698712D01*
X89361112Y-110705201D01*
X89361109Y-110705202D01*
X89258390Y-110764507D01*
X87904507Y-112118390D01*
X87845200Y-112221112D01*
X87845200Y-112221113D01*
X87845201Y-112221114D01*
X87814500Y-112335692D01*
X87814500Y-116612389D01*
X87795593Y-116670580D01*
X87785504Y-116682393D01*
X86837393Y-117630504D01*
X86782876Y-117658281D01*
X86767389Y-117659500D01*
X80331802Y-117659500D01*
X80273611Y-117640593D01*
X80273015Y-117640156D01*
X80196290Y-117583532D01*
X80196289Y-117583531D01*
X80196287Y-117583530D01*
X80196285Y-117583529D01*
X80064553Y-117537434D01*
X80064544Y-117537432D01*
X80033282Y-117534500D01*
X80033272Y-117534500D01*
X79546728Y-117534500D01*
X79546717Y-117534500D01*
X79515455Y-117537432D01*
X79515446Y-117537434D01*
X79383714Y-117583529D01*
X79383713Y-117583530D01*
X79383712Y-117583530D01*
X79383711Y-117583531D01*
X79383710Y-117583532D01*
X79271411Y-117666411D01*
X79188530Y-117778713D01*
X79188529Y-117778714D01*
X79142434Y-117910446D01*
X79142432Y-117910455D01*
X79139500Y-117941717D01*
X79139500Y-118278282D01*
X79142432Y-118309544D01*
X79142434Y-118309553D01*
X79188529Y-118441285D01*
X79188531Y-118441289D01*
X79271411Y-118553589D01*
X79383711Y-118636469D01*
X79515451Y-118682567D01*
X79544293Y-118685271D01*
X79546717Y-118685499D01*
X79546721Y-118685500D01*
X79546728Y-118685500D01*
X80033279Y-118685500D01*
X80033281Y-118685499D01*
X80064549Y-118682567D01*
X80196289Y-118636469D01*
X80252792Y-118594768D01*
X80273015Y-118579844D01*
X80331063Y-118560503D01*
X80331802Y-118560500D01*
X87054309Y-118560500D01*
X87144669Y-118536287D01*
X87144672Y-118536287D01*
X87157903Y-118532741D01*
X87168887Y-118529799D01*
X87271614Y-118470489D01*
X88625489Y-117116614D01*
X88684799Y-117013887D01*
X88691188Y-116990044D01*
X88694968Y-116975939D01*
X88702482Y-116947890D01*
X88715500Y-116899309D01*
X88715500Y-114915637D01*
X90934500Y-114915637D01*
X90934500Y-116444357D01*
X90934501Y-116444362D01*
X90949955Y-116561758D01*
X90949957Y-116561766D01*
X91010462Y-116707838D01*
X91010462Y-116707839D01*
X91010464Y-116707841D01*
X91106718Y-116833282D01*
X91106722Y-116833285D01*
X91106723Y-116833286D01*
X91136082Y-116855813D01*
X91232159Y-116929536D01*
X91232160Y-116929536D01*
X91232161Y-116929537D01*
X91344188Y-116975940D01*
X91378238Y-116990044D01*
X91495639Y-117005500D01*
X91585500Y-117005499D01*
X91643690Y-117024406D01*
X91679654Y-117073905D01*
X91684500Y-117104499D01*
X91684500Y-117374309D01*
X91708713Y-117464673D01*
X91708712Y-117464673D01*
X91715200Y-117488886D01*
X91715202Y-117488890D01*
X91774507Y-117591609D01*
X91774509Y-117591611D01*
X91774511Y-117591614D01*
X92250505Y-118067608D01*
X92278281Y-118122123D01*
X92279500Y-118137610D01*
X92279500Y-118278282D01*
X92282432Y-118309544D01*
X92282434Y-118309553D01*
X92328529Y-118441285D01*
X92328531Y-118441289D01*
X92411411Y-118553589D01*
X92523711Y-118636469D01*
X92655451Y-118682567D01*
X92684293Y-118685271D01*
X92686717Y-118685499D01*
X92686721Y-118685500D01*
X92686728Y-118685500D01*
X93173279Y-118685500D01*
X93173281Y-118685499D01*
X93204549Y-118682567D01*
X93336289Y-118636469D01*
X93448589Y-118553589D01*
X93531469Y-118441289D01*
X93577567Y-118309549D01*
X93580499Y-118278281D01*
X93580500Y-118278279D01*
X93580500Y-117941721D01*
X93580499Y-117941717D01*
X93577567Y-117910455D01*
X93577567Y-117910451D01*
X93531469Y-117778711D01*
X93448589Y-117666411D01*
X93336289Y-117583531D01*
X93336285Y-117583529D01*
X93204553Y-117537434D01*
X93204544Y-117537432D01*
X93173282Y-117534500D01*
X93173272Y-117534500D01*
X93032612Y-117534500D01*
X92974421Y-117515593D01*
X92962608Y-117505504D01*
X92631607Y-117174503D01*
X92603830Y-117119986D01*
X92613401Y-117059554D01*
X92656666Y-117016289D01*
X92701611Y-117005499D01*
X92774358Y-117005499D01*
X92774360Y-117005499D01*
X92891762Y-116990044D01*
X93037841Y-116929536D01*
X93163282Y-116833282D01*
X93259536Y-116707841D01*
X93320044Y-116561762D01*
X93335500Y-116444361D01*
X93335500Y-116311281D01*
X93354407Y-116253090D01*
X93403907Y-116217126D01*
X93465093Y-116217126D01*
X93514593Y-116253090D01*
X93522710Y-116266336D01*
X93608237Y-116434195D01*
X93608240Y-116434199D01*
X93719310Y-116587073D01*
X93852927Y-116720690D01*
X94005801Y-116831760D01*
X94174168Y-116917547D01*
X94353882Y-116975940D01*
X94353883Y-116975940D01*
X94353886Y-116975941D01*
X94540516Y-117005500D01*
X94540519Y-117005500D01*
X94729484Y-117005500D01*
X94916113Y-116975941D01*
X94916114Y-116975940D01*
X94916118Y-116975940D01*
X95095832Y-116917547D01*
X95264199Y-116831760D01*
X95417073Y-116720690D01*
X95550690Y-116587073D01*
X95661760Y-116434199D01*
X95747547Y-116265832D01*
X95790845Y-116132572D01*
X95826809Y-116083074D01*
X95885000Y-116064167D01*
X95943191Y-116083074D01*
X95979154Y-116132572D01*
X96018313Y-116253090D01*
X96022453Y-116265832D01*
X96108237Y-116434195D01*
X96108240Y-116434199D01*
X96219310Y-116587073D01*
X96352927Y-116720690D01*
X96505801Y-116831760D01*
X96674168Y-116917547D01*
X96853882Y-116975940D01*
X96853883Y-116975940D01*
X96853886Y-116975941D01*
X97040516Y-117005500D01*
X97040519Y-117005500D01*
X97229484Y-117005500D01*
X97416113Y-116975941D01*
X97416114Y-116975940D01*
X97416118Y-116975940D01*
X97595832Y-116917547D01*
X97764199Y-116831760D01*
X97917073Y-116720690D01*
X98050690Y-116587073D01*
X98161760Y-116434199D01*
X98212896Y-116333837D01*
X98256160Y-116290573D01*
X98316592Y-116281001D01*
X98371109Y-116308778D01*
X98389316Y-116333837D01*
X98480375Y-116512551D01*
X98605277Y-116684464D01*
X98755535Y-116834722D01*
X98927447Y-116959624D01*
X99116784Y-117056095D01*
X99318877Y-117121758D01*
X99384999Y-117132231D01*
X99385000Y-117132230D01*
X99385000Y-116084145D01*
X99451657Y-116122630D01*
X99572465Y-116155000D01*
X99697535Y-116155000D01*
X99818343Y-116122630D01*
X99885000Y-116084145D01*
X99885000Y-117132231D01*
X99951122Y-117121758D01*
X100153215Y-117056095D01*
X100342552Y-116959624D01*
X100514464Y-116834722D01*
X100664722Y-116684464D01*
X100789624Y-116512552D01*
X100886095Y-116323215D01*
X100951759Y-116121121D01*
X100982030Y-115930000D01*
X100039146Y-115930000D01*
X100077630Y-115863343D01*
X100110000Y-115742535D01*
X100110000Y-115617465D01*
X100077630Y-115496657D01*
X100039146Y-115430000D01*
X100982030Y-115430000D01*
X100982030Y-115429999D01*
X100951759Y-115238878D01*
X100886095Y-115036784D01*
X100789624Y-114847447D01*
X100664722Y-114675535D01*
X100514464Y-114525277D01*
X100342552Y-114400375D01*
X100153215Y-114303904D01*
X99951120Y-114238240D01*
X99885000Y-114227767D01*
X99885000Y-115275854D01*
X99818343Y-115237370D01*
X99697535Y-115205000D01*
X99572465Y-115205000D01*
X99451657Y-115237370D01*
X99385000Y-115275854D01*
X99385000Y-114227768D01*
X99384999Y-114227767D01*
X99318880Y-114238240D01*
X99318878Y-114238240D01*
X99116784Y-114303904D01*
X98927447Y-114400375D01*
X98755535Y-114525277D01*
X98605277Y-114675535D01*
X98480375Y-114847448D01*
X98389316Y-115026162D01*
X98346051Y-115069427D01*
X98285619Y-115078998D01*
X98231102Y-115051220D01*
X98212896Y-115026162D01*
X98161761Y-114925803D01*
X98154379Y-114915642D01*
X98050690Y-114772927D01*
X97917073Y-114639310D01*
X97764199Y-114528240D01*
X97764198Y-114528239D01*
X97764196Y-114528238D01*
X97595832Y-114442453D01*
X97416113Y-114384058D01*
X97229484Y-114354500D01*
X97229481Y-114354500D01*
X97040519Y-114354500D01*
X97040516Y-114354500D01*
X96853886Y-114384058D01*
X96674167Y-114442453D01*
X96505803Y-114528238D01*
X96352928Y-114639309D01*
X96219309Y-114772928D01*
X96108238Y-114925803D01*
X96022453Y-115094167D01*
X95979155Y-115227425D01*
X95943191Y-115276925D01*
X95885000Y-115295832D01*
X95826809Y-115276925D01*
X95790845Y-115227425D01*
X95761441Y-115136930D01*
X95747547Y-115094168D01*
X95661760Y-114925801D01*
X95550690Y-114772927D01*
X95417073Y-114639310D01*
X95264199Y-114528240D01*
X95264198Y-114528239D01*
X95264196Y-114528238D01*
X95095832Y-114442453D01*
X94916113Y-114384058D01*
X94729484Y-114354500D01*
X94729481Y-114354500D01*
X94540519Y-114354500D01*
X94540516Y-114354500D01*
X94353886Y-114384058D01*
X94174167Y-114442453D01*
X94005803Y-114528238D01*
X93852928Y-114639309D01*
X93719309Y-114772928D01*
X93608238Y-114925803D01*
X93522709Y-115093665D01*
X93479444Y-115136930D01*
X93419012Y-115146501D01*
X93364495Y-115118724D01*
X93336718Y-115064207D01*
X93335499Y-115048720D01*
X93335499Y-114915642D01*
X93335499Y-114915640D01*
X93320044Y-114798238D01*
X93259537Y-114652161D01*
X93259537Y-114652160D01*
X93163286Y-114526723D01*
X93163285Y-114526722D01*
X93163282Y-114526718D01*
X93163277Y-114526714D01*
X93163276Y-114526713D01*
X93037838Y-114430462D01*
X92891766Y-114369957D01*
X92891758Y-114369955D01*
X92774361Y-114354500D01*
X91495642Y-114354500D01*
X91495637Y-114354501D01*
X91378241Y-114369955D01*
X91378233Y-114369957D01*
X91232161Y-114430462D01*
X91232160Y-114430462D01*
X91106723Y-114526713D01*
X91106713Y-114526723D01*
X91010462Y-114652160D01*
X91010462Y-114652161D01*
X90949957Y-114798233D01*
X90949955Y-114798241D01*
X90934500Y-114915637D01*
X88715500Y-114915637D01*
X88715500Y-112622611D01*
X88734407Y-112564420D01*
X88744496Y-112552607D01*
X89692607Y-111604496D01*
X89747124Y-111576719D01*
X89762611Y-111575500D01*
X104083389Y-111575500D01*
X104141580Y-111594407D01*
X104177544Y-111643907D01*
X104177544Y-111705093D01*
X104153393Y-111744504D01*
X103144507Y-112753390D01*
X103085200Y-112856112D01*
X103085200Y-112856113D01*
X103085201Y-112856114D01*
X103054500Y-112970692D01*
X103054500Y-116612389D01*
X103035593Y-116670580D01*
X103025504Y-116682393D01*
X102077393Y-117630504D01*
X102022876Y-117658281D01*
X102007389Y-117659500D01*
X95571802Y-117659500D01*
X95513611Y-117640593D01*
X95513015Y-117640156D01*
X95436290Y-117583532D01*
X95436289Y-117583531D01*
X95436287Y-117583530D01*
X95436285Y-117583529D01*
X95304553Y-117537434D01*
X95304544Y-117537432D01*
X95273282Y-117534500D01*
X95273272Y-117534500D01*
X94786728Y-117534500D01*
X94786717Y-117534500D01*
X94755455Y-117537432D01*
X94755446Y-117537434D01*
X94623714Y-117583529D01*
X94623713Y-117583530D01*
X94623712Y-117583530D01*
X94623711Y-117583531D01*
X94623710Y-117583532D01*
X94511411Y-117666411D01*
X94428530Y-117778713D01*
X94428529Y-117778714D01*
X94382434Y-117910446D01*
X94382432Y-117910455D01*
X94379500Y-117941717D01*
X94379500Y-118278282D01*
X94382432Y-118309544D01*
X94382434Y-118309553D01*
X94428529Y-118441285D01*
X94428531Y-118441289D01*
X94511411Y-118553589D01*
X94623711Y-118636469D01*
X94755451Y-118682567D01*
X94784293Y-118685271D01*
X94786717Y-118685499D01*
X94786721Y-118685500D01*
X94786728Y-118685500D01*
X95273279Y-118685500D01*
X95273281Y-118685499D01*
X95304549Y-118682567D01*
X95436289Y-118636469D01*
X95492792Y-118594768D01*
X95513015Y-118579844D01*
X95571063Y-118560503D01*
X95571802Y-118560500D01*
X102294309Y-118560500D01*
X102384669Y-118536287D01*
X102384672Y-118536287D01*
X102397903Y-118532741D01*
X102408887Y-118529799D01*
X102511614Y-118470489D01*
X103865489Y-117116614D01*
X103924799Y-117013887D01*
X103931188Y-116990044D01*
X103934968Y-116975939D01*
X103942482Y-116947890D01*
X103955500Y-116899309D01*
X103955500Y-114915637D01*
X106174500Y-114915637D01*
X106174500Y-116444357D01*
X106174501Y-116444362D01*
X106189955Y-116561758D01*
X106189957Y-116561766D01*
X106250462Y-116707838D01*
X106250462Y-116707839D01*
X106250464Y-116707841D01*
X106346718Y-116833282D01*
X106346722Y-116833285D01*
X106346723Y-116833286D01*
X106376082Y-116855813D01*
X106472159Y-116929536D01*
X106472160Y-116929536D01*
X106472161Y-116929537D01*
X106584188Y-116975940D01*
X106618238Y-116990044D01*
X106735639Y-117005500D01*
X106825500Y-117005499D01*
X106883690Y-117024406D01*
X106919654Y-117073905D01*
X106924500Y-117104499D01*
X106924500Y-117374309D01*
X106948713Y-117464673D01*
X106948712Y-117464673D01*
X106955200Y-117488886D01*
X106955202Y-117488890D01*
X107014507Y-117591609D01*
X107014509Y-117591611D01*
X107014511Y-117591614D01*
X107490505Y-118067608D01*
X107518281Y-118122123D01*
X107519500Y-118137610D01*
X107519500Y-118278282D01*
X107522432Y-118309544D01*
X107522434Y-118309553D01*
X107568529Y-118441285D01*
X107568531Y-118441289D01*
X107651411Y-118553589D01*
X107763711Y-118636469D01*
X107895451Y-118682567D01*
X107924293Y-118685271D01*
X107926717Y-118685499D01*
X107926721Y-118685500D01*
X107926728Y-118685500D01*
X108413279Y-118685500D01*
X108413281Y-118685499D01*
X108444549Y-118682567D01*
X108576289Y-118636469D01*
X108688589Y-118553589D01*
X108771469Y-118441289D01*
X108817567Y-118309549D01*
X108820499Y-118278281D01*
X108820500Y-118278279D01*
X108820500Y-117941721D01*
X108820499Y-117941717D01*
X108817567Y-117910455D01*
X108817567Y-117910451D01*
X108771469Y-117778711D01*
X108688589Y-117666411D01*
X108576289Y-117583531D01*
X108576285Y-117583529D01*
X108444553Y-117537434D01*
X108444544Y-117537432D01*
X108413282Y-117534500D01*
X108413272Y-117534500D01*
X108272612Y-117534500D01*
X108214421Y-117515593D01*
X108202608Y-117505504D01*
X107871607Y-117174503D01*
X107843830Y-117119986D01*
X107853401Y-117059554D01*
X107896666Y-117016289D01*
X107941611Y-117005499D01*
X108014358Y-117005499D01*
X108014360Y-117005499D01*
X108131762Y-116990044D01*
X108277841Y-116929536D01*
X108403282Y-116833282D01*
X108499536Y-116707841D01*
X108560044Y-116561762D01*
X108575500Y-116444361D01*
X108575500Y-116311281D01*
X108594407Y-116253090D01*
X108643907Y-116217126D01*
X108705093Y-116217126D01*
X108754593Y-116253090D01*
X108762710Y-116266336D01*
X108848237Y-116434195D01*
X108848240Y-116434199D01*
X108959310Y-116587073D01*
X109092927Y-116720690D01*
X109245801Y-116831760D01*
X109414168Y-116917547D01*
X109593882Y-116975940D01*
X109593883Y-116975940D01*
X109593886Y-116975941D01*
X109780516Y-117005500D01*
X109780519Y-117005500D01*
X109969484Y-117005500D01*
X110156113Y-116975941D01*
X110156114Y-116975940D01*
X110156118Y-116975940D01*
X110335832Y-116917547D01*
X110504199Y-116831760D01*
X110657073Y-116720690D01*
X110790690Y-116587073D01*
X110901760Y-116434199D01*
X110987547Y-116265832D01*
X111030845Y-116132572D01*
X111066809Y-116083074D01*
X111125000Y-116064167D01*
X111183191Y-116083074D01*
X111219154Y-116132572D01*
X111258313Y-116253090D01*
X111262453Y-116265832D01*
X111348237Y-116434195D01*
X111348240Y-116434199D01*
X111459310Y-116587073D01*
X111592927Y-116720690D01*
X111745801Y-116831760D01*
X111914168Y-116917547D01*
X112093882Y-116975940D01*
X112093883Y-116975940D01*
X112093886Y-116975941D01*
X112280516Y-117005500D01*
X112280519Y-117005500D01*
X112469484Y-117005500D01*
X112656113Y-116975941D01*
X112656114Y-116975940D01*
X112656118Y-116975940D01*
X112835832Y-116917547D01*
X113004199Y-116831760D01*
X113157073Y-116720690D01*
X113290690Y-116587073D01*
X113401760Y-116434199D01*
X113452896Y-116333837D01*
X113496160Y-116290573D01*
X113556592Y-116281001D01*
X113611109Y-116308778D01*
X113629316Y-116333837D01*
X113720375Y-116512551D01*
X113845277Y-116684464D01*
X113995535Y-116834722D01*
X114167447Y-116959624D01*
X114356784Y-117056095D01*
X114558877Y-117121758D01*
X114624999Y-117132231D01*
X114625000Y-117132230D01*
X114625000Y-116084145D01*
X114691657Y-116122630D01*
X114812465Y-116155000D01*
X114937535Y-116155000D01*
X115058343Y-116122630D01*
X115125000Y-116084145D01*
X115125000Y-117132231D01*
X115191122Y-117121758D01*
X115393215Y-117056095D01*
X115582552Y-116959624D01*
X115754464Y-116834722D01*
X115904722Y-116684464D01*
X116029624Y-116512552D01*
X116126095Y-116323215D01*
X116191759Y-116121121D01*
X116222030Y-115930000D01*
X115279146Y-115930000D01*
X115317630Y-115863343D01*
X115350000Y-115742535D01*
X115350000Y-115617465D01*
X115317630Y-115496657D01*
X115279146Y-115430000D01*
X116222030Y-115430000D01*
X116222030Y-115429999D01*
X116191759Y-115238878D01*
X116126095Y-115036784D01*
X116029624Y-114847447D01*
X115904722Y-114675535D01*
X115754464Y-114525277D01*
X115582552Y-114400375D01*
X115393215Y-114303904D01*
X115191120Y-114238240D01*
X115125000Y-114227767D01*
X115125000Y-115275854D01*
X115058343Y-115237370D01*
X114937535Y-115205000D01*
X114812465Y-115205000D01*
X114691657Y-115237370D01*
X114625000Y-115275854D01*
X114625000Y-114227768D01*
X114624999Y-114227767D01*
X114558880Y-114238240D01*
X114558878Y-114238240D01*
X114356784Y-114303904D01*
X114167447Y-114400375D01*
X113995535Y-114525277D01*
X113845277Y-114675535D01*
X113720375Y-114847448D01*
X113629316Y-115026162D01*
X113586051Y-115069427D01*
X113525619Y-115078998D01*
X113471102Y-115051220D01*
X113452896Y-115026162D01*
X113401761Y-114925803D01*
X113394379Y-114915642D01*
X113290690Y-114772927D01*
X113157073Y-114639310D01*
X113004199Y-114528240D01*
X113004198Y-114528239D01*
X113004196Y-114528238D01*
X112835832Y-114442453D01*
X112656113Y-114384058D01*
X112469484Y-114354500D01*
X112469481Y-114354500D01*
X112280519Y-114354500D01*
X112280516Y-114354500D01*
X112093886Y-114384058D01*
X111914167Y-114442453D01*
X111745803Y-114528238D01*
X111592928Y-114639309D01*
X111459309Y-114772928D01*
X111348238Y-114925803D01*
X111262453Y-115094167D01*
X111219155Y-115227425D01*
X111183191Y-115276925D01*
X111125000Y-115295832D01*
X111066809Y-115276925D01*
X111030845Y-115227425D01*
X111001441Y-115136930D01*
X110987547Y-115094168D01*
X110901760Y-114925801D01*
X110790690Y-114772927D01*
X110657073Y-114639310D01*
X110504199Y-114528240D01*
X110504198Y-114528239D01*
X110504196Y-114528238D01*
X110335832Y-114442453D01*
X110156113Y-114384058D01*
X109969484Y-114354500D01*
X109969481Y-114354500D01*
X109780519Y-114354500D01*
X109780516Y-114354500D01*
X109593886Y-114384058D01*
X109414167Y-114442453D01*
X109245803Y-114528238D01*
X109092928Y-114639309D01*
X108959309Y-114772928D01*
X108848238Y-114925803D01*
X108762709Y-115093665D01*
X108719444Y-115136930D01*
X108659012Y-115146501D01*
X108604495Y-115118724D01*
X108576718Y-115064207D01*
X108575499Y-115048720D01*
X108575499Y-114915642D01*
X108575499Y-114915640D01*
X108560044Y-114798238D01*
X108499537Y-114652161D01*
X108499537Y-114652160D01*
X108403286Y-114526723D01*
X108403285Y-114526722D01*
X108403282Y-114526718D01*
X108403277Y-114526714D01*
X108403276Y-114526713D01*
X108277838Y-114430462D01*
X108131766Y-114369957D01*
X108131758Y-114369955D01*
X108014361Y-114354500D01*
X106735642Y-114354500D01*
X106735637Y-114354501D01*
X106618241Y-114369955D01*
X106618233Y-114369957D01*
X106472161Y-114430462D01*
X106472160Y-114430462D01*
X106346723Y-114526713D01*
X106346713Y-114526723D01*
X106250462Y-114652160D01*
X106250462Y-114652161D01*
X106189957Y-114798233D01*
X106189955Y-114798241D01*
X106174500Y-114915637D01*
X103955500Y-114915637D01*
X103955500Y-113257611D01*
X103974407Y-113199420D01*
X103984496Y-113187607D01*
X104932607Y-112239496D01*
X104987124Y-112211719D01*
X105002611Y-112210500D01*
X119323389Y-112210500D01*
X119381580Y-112229407D01*
X119417544Y-112278907D01*
X119417544Y-112340093D01*
X119393393Y-112379504D01*
X118384507Y-113388390D01*
X118325200Y-113491112D01*
X118325200Y-113491113D01*
X118325201Y-113491114D01*
X118294500Y-113605692D01*
X118294500Y-116612389D01*
X118275593Y-116670580D01*
X118265504Y-116682393D01*
X117317393Y-117630504D01*
X117262876Y-117658281D01*
X117247389Y-117659500D01*
X110811802Y-117659500D01*
X110753611Y-117640593D01*
X110753015Y-117640156D01*
X110676290Y-117583532D01*
X110676289Y-117583531D01*
X110676287Y-117583530D01*
X110676285Y-117583529D01*
X110544553Y-117537434D01*
X110544544Y-117537432D01*
X110513282Y-117534500D01*
X110513272Y-117534500D01*
X110026728Y-117534500D01*
X110026717Y-117534500D01*
X109995455Y-117537432D01*
X109995446Y-117537434D01*
X109863714Y-117583529D01*
X109863713Y-117583530D01*
X109863712Y-117583530D01*
X109863711Y-117583531D01*
X109863710Y-117583532D01*
X109751411Y-117666411D01*
X109668530Y-117778713D01*
X109668529Y-117778714D01*
X109622434Y-117910446D01*
X109622432Y-117910455D01*
X109619500Y-117941717D01*
X109619500Y-118278282D01*
X109622432Y-118309544D01*
X109622434Y-118309553D01*
X109668529Y-118441285D01*
X109668531Y-118441289D01*
X109751411Y-118553589D01*
X109863711Y-118636469D01*
X109995451Y-118682567D01*
X110024293Y-118685271D01*
X110026717Y-118685499D01*
X110026721Y-118685500D01*
X110026728Y-118685500D01*
X110513279Y-118685500D01*
X110513281Y-118685499D01*
X110544549Y-118682567D01*
X110676289Y-118636469D01*
X110732792Y-118594768D01*
X110753015Y-118579844D01*
X110811063Y-118560503D01*
X110811802Y-118560500D01*
X117534309Y-118560500D01*
X117624669Y-118536287D01*
X117624672Y-118536287D01*
X117637903Y-118532741D01*
X117648887Y-118529799D01*
X117751614Y-118470489D01*
X119105489Y-117116614D01*
X119164799Y-117013887D01*
X119171188Y-116990044D01*
X119174968Y-116975939D01*
X119182482Y-116947890D01*
X119195500Y-116899309D01*
X119195500Y-114915637D01*
X121414500Y-114915637D01*
X121414500Y-116444357D01*
X121414501Y-116444362D01*
X121429955Y-116561758D01*
X121429957Y-116561766D01*
X121490462Y-116707838D01*
X121490462Y-116707839D01*
X121490464Y-116707841D01*
X121586718Y-116833282D01*
X121586722Y-116833285D01*
X121586723Y-116833286D01*
X121616082Y-116855813D01*
X121712159Y-116929536D01*
X121712160Y-116929536D01*
X121712161Y-116929537D01*
X121824188Y-116975940D01*
X121858238Y-116990044D01*
X121975639Y-117005500D01*
X122065500Y-117005499D01*
X122123690Y-117024406D01*
X122159654Y-117073905D01*
X122164500Y-117104499D01*
X122164500Y-117374309D01*
X122188713Y-117464673D01*
X122188712Y-117464673D01*
X122195200Y-117488886D01*
X122195202Y-117488890D01*
X122254507Y-117591609D01*
X122254509Y-117591611D01*
X122254511Y-117591614D01*
X122730505Y-118067608D01*
X122758281Y-118122123D01*
X122759500Y-118137610D01*
X122759500Y-118278282D01*
X122762432Y-118309544D01*
X122762434Y-118309553D01*
X122808529Y-118441285D01*
X122808531Y-118441289D01*
X122891411Y-118553589D01*
X123003711Y-118636469D01*
X123135451Y-118682567D01*
X123164293Y-118685271D01*
X123166717Y-118685499D01*
X123166721Y-118685500D01*
X123166728Y-118685500D01*
X123653279Y-118685500D01*
X123653281Y-118685499D01*
X123684549Y-118682567D01*
X123816289Y-118636469D01*
X123928589Y-118553589D01*
X124011469Y-118441289D01*
X124057567Y-118309549D01*
X124060499Y-118278281D01*
X124060500Y-118278279D01*
X124060500Y-117941721D01*
X124060499Y-117941717D01*
X124057567Y-117910455D01*
X124057567Y-117910451D01*
X124011469Y-117778711D01*
X123928589Y-117666411D01*
X123816289Y-117583531D01*
X123816285Y-117583529D01*
X123684553Y-117537434D01*
X123684544Y-117537432D01*
X123653282Y-117534500D01*
X123653272Y-117534500D01*
X123512612Y-117534500D01*
X123454421Y-117515593D01*
X123442608Y-117505504D01*
X123111607Y-117174503D01*
X123083830Y-117119986D01*
X123093401Y-117059554D01*
X123136666Y-117016289D01*
X123181611Y-117005499D01*
X123254358Y-117005499D01*
X123254360Y-117005499D01*
X123371762Y-116990044D01*
X123517841Y-116929536D01*
X123643282Y-116833282D01*
X123739536Y-116707841D01*
X123800044Y-116561762D01*
X123815500Y-116444361D01*
X123815500Y-116311281D01*
X123834407Y-116253090D01*
X123883907Y-116217126D01*
X123945093Y-116217126D01*
X123994593Y-116253090D01*
X124002710Y-116266336D01*
X124088237Y-116434195D01*
X124088240Y-116434199D01*
X124199310Y-116587073D01*
X124332927Y-116720690D01*
X124485801Y-116831760D01*
X124654168Y-116917547D01*
X124833882Y-116975940D01*
X124833883Y-116975940D01*
X124833886Y-116975941D01*
X125020516Y-117005500D01*
X125020519Y-117005500D01*
X125209484Y-117005500D01*
X125396113Y-116975941D01*
X125396114Y-116975940D01*
X125396118Y-116975940D01*
X125575832Y-116917547D01*
X125744199Y-116831760D01*
X125897073Y-116720690D01*
X126030690Y-116587073D01*
X126141760Y-116434199D01*
X126227547Y-116265832D01*
X126270845Y-116132572D01*
X126306809Y-116083074D01*
X126365000Y-116064167D01*
X126423191Y-116083074D01*
X126459154Y-116132572D01*
X126498313Y-116253090D01*
X126502453Y-116265832D01*
X126588237Y-116434195D01*
X126588240Y-116434199D01*
X126699310Y-116587073D01*
X126832927Y-116720690D01*
X126985801Y-116831760D01*
X127154168Y-116917547D01*
X127333882Y-116975940D01*
X127333883Y-116975940D01*
X127333886Y-116975941D01*
X127520516Y-117005500D01*
X127520519Y-117005500D01*
X127709484Y-117005500D01*
X127896113Y-116975941D01*
X127896114Y-116975940D01*
X127896118Y-116975940D01*
X128075832Y-116917547D01*
X128244199Y-116831760D01*
X128397073Y-116720690D01*
X128530690Y-116587073D01*
X128641760Y-116434199D01*
X128692896Y-116333837D01*
X128736160Y-116290573D01*
X128796592Y-116281001D01*
X128851109Y-116308778D01*
X128869316Y-116333837D01*
X128960375Y-116512551D01*
X129085277Y-116684464D01*
X129235535Y-116834722D01*
X129407447Y-116959624D01*
X129596784Y-117056095D01*
X129798877Y-117121758D01*
X129864999Y-117132231D01*
X129865000Y-117132230D01*
X129865000Y-116084145D01*
X129931657Y-116122630D01*
X130052465Y-116155000D01*
X130177535Y-116155000D01*
X130298343Y-116122630D01*
X130365000Y-116084145D01*
X130365000Y-117132231D01*
X130431122Y-117121758D01*
X130633215Y-117056095D01*
X130822552Y-116959624D01*
X130994464Y-116834722D01*
X131144722Y-116684464D01*
X131269624Y-116512552D01*
X131366095Y-116323215D01*
X131431759Y-116121121D01*
X131462030Y-115930000D01*
X130519146Y-115930000D01*
X130557630Y-115863343D01*
X130590000Y-115742535D01*
X130590000Y-115617465D01*
X130557630Y-115496657D01*
X130519146Y-115430000D01*
X131462030Y-115430000D01*
X131462030Y-115429999D01*
X131431759Y-115238878D01*
X131366095Y-115036784D01*
X131269624Y-114847447D01*
X131144722Y-114675535D01*
X130994464Y-114525277D01*
X130822552Y-114400375D01*
X130633215Y-114303904D01*
X130431120Y-114238240D01*
X130365000Y-114227767D01*
X130365000Y-115275854D01*
X130298343Y-115237370D01*
X130177535Y-115205000D01*
X130052465Y-115205000D01*
X129931657Y-115237370D01*
X129865000Y-115275854D01*
X129865000Y-114227768D01*
X129864999Y-114227767D01*
X129798880Y-114238240D01*
X129798878Y-114238240D01*
X129596784Y-114303904D01*
X129407447Y-114400375D01*
X129235535Y-114525277D01*
X129085277Y-114675535D01*
X128960375Y-114847448D01*
X128869316Y-115026162D01*
X128826051Y-115069427D01*
X128765619Y-115078998D01*
X128711102Y-115051220D01*
X128692896Y-115026162D01*
X128641761Y-114925803D01*
X128634379Y-114915642D01*
X128530690Y-114772927D01*
X128397073Y-114639310D01*
X128244199Y-114528240D01*
X128244198Y-114528239D01*
X128244196Y-114528238D01*
X128075832Y-114442453D01*
X127896113Y-114384058D01*
X127709484Y-114354500D01*
X127709481Y-114354500D01*
X127520519Y-114354500D01*
X127520516Y-114354500D01*
X127333886Y-114384058D01*
X127154167Y-114442453D01*
X126985803Y-114528238D01*
X126832928Y-114639309D01*
X126699309Y-114772928D01*
X126588238Y-114925803D01*
X126502453Y-115094167D01*
X126459155Y-115227425D01*
X126423191Y-115276925D01*
X126365000Y-115295832D01*
X126306809Y-115276925D01*
X126270845Y-115227425D01*
X126241441Y-115136930D01*
X126227547Y-115094168D01*
X126141760Y-114925801D01*
X126030690Y-114772927D01*
X125897073Y-114639310D01*
X125744199Y-114528240D01*
X125744198Y-114528239D01*
X125744196Y-114528238D01*
X125575832Y-114442453D01*
X125396113Y-114384058D01*
X125209484Y-114354500D01*
X125209481Y-114354500D01*
X125020519Y-114354500D01*
X125020516Y-114354500D01*
X124833886Y-114384058D01*
X124654167Y-114442453D01*
X124485803Y-114528238D01*
X124332928Y-114639309D01*
X124199309Y-114772928D01*
X124088238Y-114925803D01*
X124002709Y-115093665D01*
X123959444Y-115136930D01*
X123899012Y-115146501D01*
X123844495Y-115118724D01*
X123816718Y-115064207D01*
X123815499Y-115048720D01*
X123815499Y-114915642D01*
X123815499Y-114915640D01*
X123800044Y-114798238D01*
X123739537Y-114652161D01*
X123739537Y-114652160D01*
X123643286Y-114526723D01*
X123643285Y-114526722D01*
X123643282Y-114526718D01*
X123643277Y-114526714D01*
X123643276Y-114526713D01*
X123517838Y-114430462D01*
X123371766Y-114369957D01*
X123371758Y-114369955D01*
X123254361Y-114354500D01*
X121975642Y-114354500D01*
X121975637Y-114354501D01*
X121858241Y-114369955D01*
X121858233Y-114369957D01*
X121712161Y-114430462D01*
X121712160Y-114430462D01*
X121586723Y-114526713D01*
X121586713Y-114526723D01*
X121490462Y-114652160D01*
X121490462Y-114652161D01*
X121429957Y-114798233D01*
X121429955Y-114798241D01*
X121414500Y-114915637D01*
X119195500Y-114915637D01*
X119195500Y-113892611D01*
X119214407Y-113834420D01*
X119224496Y-113822607D01*
X120172607Y-112874496D01*
X120227124Y-112846719D01*
X120242611Y-112845500D01*
X130869309Y-112845500D01*
X130959669Y-112821287D01*
X130959672Y-112821287D01*
X130972903Y-112817741D01*
X130983887Y-112814799D01*
X131086614Y-112755489D01*
X132327499Y-111514603D01*
X132382012Y-111486829D01*
X132442444Y-111496400D01*
X132467503Y-111514606D01*
X133505504Y-112552607D01*
X133533281Y-112607124D01*
X133534500Y-112622611D01*
X133534500Y-116612389D01*
X133515593Y-116670580D01*
X133505504Y-116682393D01*
X132557393Y-117630504D01*
X132502876Y-117658281D01*
X132487389Y-117659500D01*
X126051802Y-117659500D01*
X125993611Y-117640593D01*
X125993015Y-117640156D01*
X125916290Y-117583532D01*
X125916289Y-117583531D01*
X125916287Y-117583530D01*
X125916285Y-117583529D01*
X125784553Y-117537434D01*
X125784544Y-117537432D01*
X125753282Y-117534500D01*
X125753272Y-117534500D01*
X125266728Y-117534500D01*
X125266717Y-117534500D01*
X125235455Y-117537432D01*
X125235446Y-117537434D01*
X125103714Y-117583529D01*
X125103713Y-117583530D01*
X125103712Y-117583530D01*
X125103711Y-117583531D01*
X125103710Y-117583532D01*
X124991411Y-117666411D01*
X124908530Y-117778713D01*
X124908529Y-117778714D01*
X124862434Y-117910446D01*
X124862432Y-117910455D01*
X124859500Y-117941717D01*
X124859500Y-118278282D01*
X124862432Y-118309544D01*
X124862434Y-118309553D01*
X124908529Y-118441285D01*
X124908531Y-118441289D01*
X124991411Y-118553589D01*
X125103711Y-118636469D01*
X125235451Y-118682567D01*
X125264293Y-118685271D01*
X125266717Y-118685499D01*
X125266721Y-118685500D01*
X125266728Y-118685500D01*
X125753279Y-118685500D01*
X125753281Y-118685499D01*
X125784549Y-118682567D01*
X125916289Y-118636469D01*
X125972792Y-118594768D01*
X125993015Y-118579844D01*
X126051063Y-118560503D01*
X126051802Y-118560500D01*
X132774309Y-118560500D01*
X132864669Y-118536287D01*
X132864672Y-118536287D01*
X132877903Y-118532741D01*
X132888887Y-118529799D01*
X132991614Y-118470489D01*
X134345489Y-117116614D01*
X134404799Y-117013887D01*
X134411188Y-116990044D01*
X134414968Y-116975939D01*
X134422482Y-116947890D01*
X134435500Y-116899309D01*
X134435500Y-112335691D01*
X134404799Y-112221114D01*
X134404799Y-112221113D01*
X134404799Y-112221112D01*
X134345492Y-112118390D01*
X134345491Y-112118389D01*
X134345490Y-112118388D01*
X134345489Y-112118386D01*
X133194496Y-110967393D01*
X133166719Y-110912876D01*
X133165500Y-110897389D01*
X133165500Y-94540012D01*
X137065000Y-94540012D01*
X137065000Y-94939999D01*
X137065001Y-94940000D01*
X138135854Y-94940000D01*
X138097370Y-95006657D01*
X138065000Y-95127465D01*
X138065000Y-95252535D01*
X138097370Y-95373343D01*
X138135854Y-95440000D01*
X137065002Y-95440000D01*
X137065001Y-95440001D01*
X137065001Y-95839986D01*
X137075492Y-95942687D01*
X137075495Y-95942699D01*
X137130643Y-96109124D01*
X137222680Y-96258340D01*
X137346659Y-96382319D01*
X137495875Y-96474356D01*
X137662306Y-96529506D01*
X137765012Y-96539999D01*
X138289998Y-96539999D01*
X138290000Y-96539998D01*
X138290000Y-95594145D01*
X138356657Y-95632630D01*
X138477465Y-95665000D01*
X138602535Y-95665000D01*
X138723343Y-95632630D01*
X138790000Y-95594145D01*
X138790000Y-96539998D01*
X138790001Y-96539999D01*
X139314986Y-96539999D01*
X139417687Y-96529507D01*
X139417699Y-96529504D01*
X139584124Y-96474356D01*
X139733340Y-96382319D01*
X139857319Y-96258340D01*
X139949356Y-96109124D01*
X140004506Y-95942693D01*
X140015000Y-95839987D01*
X140015000Y-95440001D01*
X140014999Y-95440000D01*
X138944146Y-95440000D01*
X138982630Y-95373343D01*
X139015000Y-95252535D01*
X139015000Y-95127465D01*
X138982630Y-95006657D01*
X138944146Y-94940000D01*
X140014998Y-94940000D01*
X140014999Y-94939999D01*
X140014999Y-94540013D01*
X140004507Y-94437312D01*
X140004504Y-94437300D01*
X139949356Y-94270875D01*
X139857319Y-94121659D01*
X139733340Y-93997680D01*
X139584124Y-93905643D01*
X139417693Y-93850493D01*
X139417694Y-93850493D01*
X139405731Y-93849271D01*
X139349764Y-93824546D01*
X139319019Y-93771646D01*
X139325240Y-93710777D01*
X139357604Y-93670693D01*
X139447073Y-93605690D01*
X139580690Y-93472073D01*
X139691760Y-93319199D01*
X139777547Y-93150832D01*
X139835940Y-92971118D01*
X139848268Y-92893281D01*
X139865500Y-92784484D01*
X139865500Y-92595515D01*
X139835941Y-92408886D01*
X139817332Y-92351614D01*
X139777547Y-92229168D01*
X139691760Y-92060801D01*
X139580690Y-91907927D01*
X139447073Y-91774310D01*
X139294199Y-91663240D01*
X139294198Y-91663239D01*
X139294196Y-91663238D01*
X139125832Y-91577453D01*
X139125829Y-91577452D01*
X138992572Y-91534154D01*
X138943074Y-91498191D01*
X138924167Y-91440000D01*
X138943074Y-91381809D01*
X138992572Y-91345845D01*
X139125832Y-91302547D01*
X139294199Y-91216760D01*
X139447073Y-91105690D01*
X139580690Y-90972073D01*
X139691760Y-90819199D01*
X139777547Y-90650832D01*
X139835940Y-90471118D01*
X139865500Y-90284481D01*
X139865500Y-90095519D01*
X139865500Y-90095515D01*
X139835941Y-89908886D01*
X139835940Y-89908882D01*
X139777547Y-89729168D01*
X139691760Y-89560801D01*
X139580690Y-89407927D01*
X139447073Y-89274310D01*
X139294199Y-89163240D01*
X139294198Y-89163239D01*
X139294196Y-89163238D01*
X139125832Y-89077453D01*
X138992572Y-89034154D01*
X138943074Y-88998191D01*
X138924167Y-88940000D01*
X138943074Y-88881809D01*
X138992572Y-88845845D01*
X139125832Y-88802547D01*
X139294199Y-88716760D01*
X139447073Y-88605690D01*
X139580690Y-88472073D01*
X139691760Y-88319199D01*
X139777547Y-88150832D01*
X139835940Y-87971118D01*
X139840879Y-87939937D01*
X139865500Y-87784484D01*
X139865500Y-87595515D01*
X139835941Y-87408886D01*
X139823197Y-87369663D01*
X139777547Y-87229168D01*
X139691760Y-87060801D01*
X139580690Y-86907927D01*
X139447073Y-86774310D01*
X139294199Y-86663240D01*
X139294198Y-86663239D01*
X139294196Y-86663238D01*
X139125832Y-86577453D01*
X138946113Y-86519058D01*
X138759484Y-86489500D01*
X138759481Y-86489500D01*
X138320519Y-86489500D01*
X138320516Y-86489500D01*
X138133886Y-86519058D01*
X137954167Y-86577453D01*
X137785803Y-86663238D01*
X137632928Y-86774309D01*
X137499309Y-86907928D01*
X137388238Y-87060803D01*
X137302453Y-87229167D01*
X137244058Y-87408886D01*
X137214500Y-87595515D01*
X137214500Y-87784484D01*
X137244058Y-87971113D01*
X137302453Y-88150832D01*
X137372980Y-88289251D01*
X137388240Y-88319199D01*
X137499310Y-88472073D01*
X137632927Y-88605690D01*
X137785801Y-88716760D01*
X137954168Y-88802547D01*
X138087425Y-88845845D01*
X138136925Y-88881809D01*
X138155832Y-88940000D01*
X138136925Y-88998191D01*
X138087425Y-89034155D01*
X137954167Y-89077453D01*
X137785803Y-89163238D01*
X137632928Y-89274309D01*
X137499309Y-89407928D01*
X137388238Y-89560803D01*
X137302453Y-89729167D01*
X137244058Y-89908886D01*
X137214500Y-90095515D01*
X137214500Y-90284484D01*
X137244058Y-90471113D01*
X137244060Y-90471118D01*
X137302453Y-90650832D01*
X137388240Y-90819199D01*
X137499310Y-90972073D01*
X137632927Y-91105690D01*
X137785801Y-91216760D01*
X137954168Y-91302547D01*
X138087425Y-91345845D01*
X138136925Y-91381809D01*
X138155832Y-91440000D01*
X138136925Y-91498191D01*
X138087425Y-91534155D01*
X137954167Y-91577453D01*
X137785803Y-91663238D01*
X137632928Y-91774309D01*
X137499309Y-91907928D01*
X137388238Y-92060803D01*
X137302453Y-92229167D01*
X137244058Y-92408886D01*
X137214500Y-92595515D01*
X137214500Y-92784484D01*
X137244058Y-92971113D01*
X137302453Y-93150832D01*
X137373409Y-93290093D01*
X137388240Y-93319199D01*
X137499310Y-93472073D01*
X137632927Y-93605690D01*
X137722395Y-93670692D01*
X137758358Y-93720191D01*
X137758358Y-93781377D01*
X137722394Y-93830877D01*
X137674269Y-93849271D01*
X137662310Y-93850493D01*
X137662300Y-93850495D01*
X137495875Y-93905643D01*
X137346659Y-93997680D01*
X137222680Y-94121659D01*
X137130643Y-94270875D01*
X137075493Y-94437306D01*
X137065000Y-94540012D01*
X133165500Y-94540012D01*
X133165500Y-76775692D01*
X133134799Y-76661114D01*
X133134799Y-76661112D01*
X133075492Y-76558390D01*
X133075490Y-76558388D01*
X133075489Y-76558386D01*
X131721614Y-75204511D01*
X131721611Y-75204509D01*
X131721609Y-75204507D01*
X131618890Y-75145202D01*
X131618886Y-75145200D01*
X131594673Y-75138712D01*
X131594673Y-75138713D01*
X131504309Y-75114500D01*
X131504307Y-75114500D01*
X129066246Y-75114500D01*
X129008055Y-75095593D01*
X128978036Y-75060445D01*
X128958978Y-75023041D01*
X128941232Y-74988212D01*
X128839414Y-74848072D01*
X128716928Y-74725586D01*
X128576788Y-74623768D01*
X128576787Y-74623767D01*
X128576785Y-74623766D01*
X128422441Y-74545125D01*
X128422438Y-74545123D01*
X128257706Y-74491598D01*
X128257702Y-74491597D01*
X128086614Y-74464500D01*
X128086611Y-74464500D01*
X126913389Y-74464500D01*
X126913386Y-74464500D01*
X126742297Y-74491597D01*
X126742293Y-74491598D01*
X126577561Y-74545123D01*
X126577558Y-74545125D01*
X126423214Y-74623766D01*
X126294548Y-74717248D01*
X126283072Y-74725586D01*
X126160586Y-74848072D01*
X126088100Y-74947841D01*
X126059593Y-74987077D01*
X126010092Y-75023041D01*
X125948907Y-75023041D01*
X125899407Y-74987077D01*
X125880500Y-74928886D01*
X125880500Y-73661113D01*
X125899407Y-73602922D01*
X125948907Y-73566958D01*
X126010093Y-73566958D01*
X126059590Y-73602920D01*
X126160586Y-73741928D01*
X126283072Y-73864414D01*
X126423212Y-73966232D01*
X126577555Y-74044873D01*
X126577557Y-74044873D01*
X126577558Y-74044874D01*
X126577561Y-74044876D01*
X126742293Y-74098401D01*
X126742297Y-74098402D01*
X126913386Y-74125500D01*
X126913389Y-74125500D01*
X128086614Y-74125500D01*
X128257702Y-74098402D01*
X128257706Y-74098401D01*
X128422438Y-74044876D01*
X128422440Y-74044874D01*
X128422445Y-74044873D01*
X128576788Y-73966232D01*
X128716928Y-73864414D01*
X128839414Y-73741928D01*
X128941232Y-73601788D01*
X129019873Y-73447445D01*
X129019874Y-73447440D01*
X129019876Y-73447438D01*
X129073401Y-73282706D01*
X129073402Y-73282702D01*
X129100500Y-73111614D01*
X129100500Y-72938385D01*
X129073402Y-72767297D01*
X129073401Y-72767293D01*
X129019876Y-72602561D01*
X129019874Y-72602558D01*
X129019873Y-72602557D01*
X129019873Y-72602555D01*
X128941232Y-72448212D01*
X128839414Y-72308072D01*
X128716928Y-72185586D01*
X128576788Y-72083768D01*
X128576787Y-72083767D01*
X128576785Y-72083766D01*
X128422441Y-72005125D01*
X128422438Y-72005123D01*
X128257706Y-71951598D01*
X128257702Y-71951597D01*
X128086614Y-71924500D01*
X128086611Y-71924500D01*
X126913389Y-71924500D01*
X126913386Y-71924500D01*
X126742297Y-71951597D01*
X126742293Y-71951598D01*
X126577561Y-72005123D01*
X126577558Y-72005125D01*
X126423214Y-72083766D01*
X126283073Y-72185585D01*
X126160585Y-72308073D01*
X126059593Y-72447077D01*
X126010092Y-72483041D01*
X125948907Y-72483041D01*
X125899407Y-72447077D01*
X125880500Y-72388886D01*
X125880500Y-71121113D01*
X125899407Y-71062922D01*
X125948907Y-71026958D01*
X126010093Y-71026958D01*
X126059590Y-71062920D01*
X126160586Y-71201928D01*
X126283072Y-71324414D01*
X126423212Y-71426232D01*
X126577555Y-71504873D01*
X126577557Y-71504873D01*
X126577558Y-71504874D01*
X126577561Y-71504876D01*
X126742293Y-71558401D01*
X126742297Y-71558402D01*
X126913386Y-71585500D01*
X126913389Y-71585500D01*
X128086614Y-71585500D01*
X128257702Y-71558402D01*
X128257706Y-71558401D01*
X128422438Y-71504876D01*
X128422440Y-71504874D01*
X128422445Y-71504873D01*
X128576788Y-71426232D01*
X128716928Y-71324414D01*
X128839414Y-71201928D01*
X128941232Y-71061788D01*
X128978036Y-70989554D01*
X129021301Y-70946290D01*
X129066246Y-70935500D01*
X134459309Y-70935500D01*
X134549669Y-70911287D01*
X134549672Y-70911287D01*
X134564036Y-70907438D01*
X134573887Y-70904799D01*
X134676614Y-70845489D01*
X135702607Y-69819496D01*
X135757124Y-69791719D01*
X135772611Y-69790500D01*
X135913279Y-69790500D01*
X135913281Y-69790499D01*
X135944549Y-69787567D01*
X136076289Y-69741469D01*
X136188589Y-69658589D01*
X136271469Y-69546289D01*
X136317567Y-69414549D01*
X136320499Y-69383281D01*
X136320500Y-69383279D01*
X136320500Y-69046721D01*
X136320499Y-69046717D01*
X136319984Y-69041227D01*
X136317567Y-69015451D01*
X136271469Y-68883711D01*
X136188589Y-68771411D01*
X136076289Y-68688531D01*
X136076285Y-68688529D01*
X135944553Y-68642434D01*
X135944544Y-68642432D01*
X135913282Y-68639500D01*
X135913272Y-68639500D01*
X135426728Y-68639500D01*
X135426717Y-68639500D01*
X135395455Y-68642432D01*
X135395446Y-68642434D01*
X135263714Y-68688529D01*
X135263713Y-68688530D01*
X135263712Y-68688530D01*
X135263711Y-68688531D01*
X135151411Y-68771411D01*
X135090082Y-68854511D01*
X135068530Y-68883713D01*
X135068529Y-68883714D01*
X135022434Y-69015446D01*
X135022432Y-69015455D01*
X135019500Y-69046717D01*
X135019500Y-69187389D01*
X135000593Y-69245580D01*
X134990504Y-69257393D01*
X134242393Y-70005504D01*
X134187876Y-70033281D01*
X134172389Y-70034500D01*
X129066246Y-70034500D01*
X129008055Y-70015593D01*
X128978036Y-69980445D01*
X128958978Y-69943041D01*
X128941232Y-69908212D01*
X128839414Y-69768072D01*
X128716928Y-69645586D01*
X128576788Y-69543768D01*
X128576787Y-69543767D01*
X128576785Y-69543766D01*
X128422441Y-69465125D01*
X128422438Y-69465123D01*
X128257706Y-69411598D01*
X128257702Y-69411597D01*
X128086614Y-69384500D01*
X128086611Y-69384500D01*
X126913389Y-69384500D01*
X126913386Y-69384500D01*
X126742297Y-69411597D01*
X126742293Y-69411598D01*
X126577561Y-69465123D01*
X126577558Y-69465125D01*
X126423214Y-69543766D01*
X126283073Y-69645585D01*
X126160585Y-69768073D01*
X126059593Y-69907077D01*
X126010092Y-69943041D01*
X125948907Y-69943041D01*
X125899407Y-69907077D01*
X125880500Y-69848886D01*
X125880500Y-68581113D01*
X125899407Y-68522922D01*
X125948907Y-68486958D01*
X126010093Y-68486958D01*
X126059590Y-68522920D01*
X126160586Y-68661928D01*
X126283072Y-68784414D01*
X126423212Y-68886232D01*
X126577555Y-68964873D01*
X126577557Y-68964873D01*
X126577558Y-68964874D01*
X126577561Y-68964876D01*
X126742293Y-69018401D01*
X126742297Y-69018402D01*
X126913386Y-69045500D01*
X126913389Y-69045500D01*
X128086614Y-69045500D01*
X128257702Y-69018402D01*
X128257706Y-69018401D01*
X128422438Y-68964876D01*
X128422440Y-68964874D01*
X128422445Y-68964873D01*
X128576788Y-68886232D01*
X128716928Y-68784414D01*
X128839414Y-68661928D01*
X128941232Y-68521788D01*
X129019873Y-68367445D01*
X129019874Y-68367440D01*
X129019876Y-68367438D01*
X129073401Y-68202706D01*
X129073402Y-68202702D01*
X129100500Y-68031614D01*
X129100500Y-67858385D01*
X129073402Y-67687297D01*
X129073401Y-67687293D01*
X129019876Y-67522561D01*
X129019874Y-67522558D01*
X129019873Y-67522557D01*
X129019873Y-67522555D01*
X128941232Y-67368212D01*
X128839414Y-67228072D01*
X128716928Y-67105586D01*
X128576788Y-67003768D01*
X128576787Y-67003767D01*
X128576785Y-67003766D01*
X128422441Y-66925125D01*
X128422438Y-66925123D01*
X128257706Y-66871598D01*
X128257702Y-66871597D01*
X128086614Y-66844500D01*
X128086611Y-66844500D01*
X126913389Y-66844500D01*
X126913386Y-66844500D01*
X126742297Y-66871597D01*
X126742293Y-66871598D01*
X126577561Y-66925123D01*
X126577558Y-66925125D01*
X126423214Y-67003766D01*
X126283073Y-67105585D01*
X126160585Y-67228073D01*
X126059593Y-67367077D01*
X126010092Y-67403041D01*
X125948907Y-67403041D01*
X125899407Y-67367077D01*
X125880500Y-67308886D01*
X125880500Y-66041113D01*
X125899407Y-65982922D01*
X125948907Y-65946958D01*
X126010093Y-65946958D01*
X126059590Y-65982920D01*
X126160586Y-66121928D01*
X126283072Y-66244414D01*
X126423212Y-66346232D01*
X126577555Y-66424873D01*
X126577557Y-66424873D01*
X126577558Y-66424874D01*
X126577561Y-66424876D01*
X126742293Y-66478401D01*
X126742297Y-66478402D01*
X126913386Y-66505500D01*
X126913389Y-66505500D01*
X128086614Y-66505500D01*
X128257702Y-66478402D01*
X128257706Y-66478401D01*
X128422438Y-66424876D01*
X128422440Y-66424874D01*
X128422445Y-66424873D01*
X128576788Y-66346232D01*
X128716928Y-66244414D01*
X128839414Y-66121928D01*
X128913006Y-66020637D01*
X131574500Y-66020637D01*
X131574500Y-67549357D01*
X131574501Y-67549362D01*
X131589955Y-67666758D01*
X131589957Y-67666766D01*
X131650462Y-67812838D01*
X131650462Y-67812839D01*
X131650464Y-67812841D01*
X131746718Y-67938282D01*
X131746722Y-67938285D01*
X131746723Y-67938286D01*
X131776082Y-67960813D01*
X131872159Y-68034536D01*
X131872160Y-68034536D01*
X131872161Y-68034537D01*
X131984188Y-68080940D01*
X132018238Y-68095044D01*
X132135639Y-68110500D01*
X132225500Y-68110499D01*
X132283690Y-68129406D01*
X132319654Y-68178905D01*
X132324500Y-68209499D01*
X132324500Y-68479309D01*
X132346336Y-68560802D01*
X132346335Y-68560802D01*
X132355200Y-68593886D01*
X132355202Y-68593890D01*
X132414507Y-68696609D01*
X132414509Y-68696611D01*
X132414511Y-68696614D01*
X132890505Y-69172608D01*
X132918281Y-69227123D01*
X132919500Y-69242610D01*
X132919500Y-69383282D01*
X132922432Y-69414544D01*
X132922434Y-69414553D01*
X132968529Y-69546285D01*
X132968531Y-69546289D01*
X133051411Y-69658589D01*
X133163711Y-69741469D01*
X133295451Y-69787567D01*
X133324293Y-69790271D01*
X133326717Y-69790499D01*
X133326721Y-69790500D01*
X133326728Y-69790500D01*
X133813279Y-69790500D01*
X133813281Y-69790499D01*
X133844549Y-69787567D01*
X133976289Y-69741469D01*
X134088589Y-69658589D01*
X134171469Y-69546289D01*
X134217567Y-69414549D01*
X134220499Y-69383281D01*
X134220500Y-69383279D01*
X134220500Y-69046721D01*
X134220499Y-69046717D01*
X134219984Y-69041227D01*
X134217567Y-69015451D01*
X134171469Y-68883711D01*
X134088589Y-68771411D01*
X133976289Y-68688531D01*
X133976285Y-68688529D01*
X133844553Y-68642434D01*
X133844544Y-68642432D01*
X133813282Y-68639500D01*
X133813272Y-68639500D01*
X133672612Y-68639500D01*
X133614421Y-68620593D01*
X133602608Y-68610504D01*
X133271607Y-68279503D01*
X133243830Y-68224986D01*
X133253401Y-68164554D01*
X133296666Y-68121289D01*
X133341611Y-68110499D01*
X133414358Y-68110499D01*
X133414360Y-68110499D01*
X133531762Y-68095044D01*
X133677841Y-68034536D01*
X133803282Y-67938282D01*
X133899536Y-67812841D01*
X133960044Y-67666762D01*
X133975500Y-67549361D01*
X133975500Y-67416281D01*
X133994407Y-67358090D01*
X134043907Y-67322126D01*
X134105093Y-67322126D01*
X134154593Y-67358090D01*
X134162710Y-67371336D01*
X134248237Y-67539195D01*
X134248240Y-67539199D01*
X134359310Y-67692073D01*
X134492927Y-67825690D01*
X134645801Y-67936760D01*
X134814168Y-68022547D01*
X134993882Y-68080940D01*
X134993883Y-68080940D01*
X134993886Y-68080941D01*
X135180516Y-68110500D01*
X135180519Y-68110500D01*
X135369484Y-68110500D01*
X135556113Y-68080941D01*
X135556114Y-68080940D01*
X135556118Y-68080940D01*
X135735832Y-68022547D01*
X135904199Y-67936760D01*
X136057073Y-67825690D01*
X136190690Y-67692073D01*
X136301760Y-67539199D01*
X136387547Y-67370832D01*
X136430845Y-67237572D01*
X136466809Y-67188074D01*
X136525000Y-67169167D01*
X136583191Y-67188074D01*
X136619154Y-67237572D01*
X136658313Y-67358090D01*
X136662453Y-67370832D01*
X136748237Y-67539195D01*
X136748240Y-67539199D01*
X136859310Y-67692073D01*
X136992927Y-67825690D01*
X137145801Y-67936760D01*
X137314168Y-68022547D01*
X137493882Y-68080940D01*
X137493883Y-68080940D01*
X137493886Y-68080941D01*
X137680516Y-68110500D01*
X137680519Y-68110500D01*
X137869484Y-68110500D01*
X138056113Y-68080941D01*
X138056114Y-68080940D01*
X138056118Y-68080940D01*
X138235832Y-68022547D01*
X138404199Y-67936760D01*
X138557073Y-67825690D01*
X138690690Y-67692073D01*
X138801760Y-67539199D01*
X138852896Y-67438837D01*
X138896160Y-67395573D01*
X138956592Y-67386001D01*
X139011109Y-67413778D01*
X139029316Y-67438837D01*
X139120375Y-67617551D01*
X139245277Y-67789464D01*
X139395535Y-67939722D01*
X139567447Y-68064624D01*
X139756784Y-68161095D01*
X139958877Y-68226758D01*
X140024999Y-68237231D01*
X140025000Y-68237230D01*
X140025000Y-67189145D01*
X140091657Y-67227630D01*
X140212465Y-67260000D01*
X140337535Y-67260000D01*
X140458343Y-67227630D01*
X140525000Y-67189145D01*
X140525000Y-68237231D01*
X140591122Y-68226758D01*
X140793215Y-68161095D01*
X140982552Y-68064624D01*
X141154464Y-67939722D01*
X141304722Y-67789464D01*
X141429624Y-67617552D01*
X141526095Y-67428215D01*
X141591759Y-67226121D01*
X141622030Y-67035000D01*
X140679146Y-67035000D01*
X140717630Y-66968343D01*
X140750000Y-66847535D01*
X140750000Y-66722465D01*
X140717630Y-66601657D01*
X140679146Y-66535000D01*
X141622030Y-66535000D01*
X141622030Y-66534999D01*
X141591759Y-66343878D01*
X141526095Y-66141784D01*
X141429624Y-65952447D01*
X141304722Y-65780535D01*
X141154464Y-65630277D01*
X140982552Y-65505375D01*
X140793215Y-65408904D01*
X140591120Y-65343240D01*
X140525000Y-65332767D01*
X140525000Y-66380854D01*
X140458343Y-66342370D01*
X140337535Y-66310000D01*
X140212465Y-66310000D01*
X140091657Y-66342370D01*
X140025000Y-66380854D01*
X140025000Y-65332768D01*
X140024999Y-65332767D01*
X139958880Y-65343240D01*
X139958878Y-65343240D01*
X139756784Y-65408904D01*
X139567447Y-65505375D01*
X139395535Y-65630277D01*
X139245277Y-65780535D01*
X139120375Y-65952448D01*
X139029316Y-66131162D01*
X138986051Y-66174427D01*
X138925619Y-66183998D01*
X138871102Y-66156220D01*
X138852896Y-66131162D01*
X138801761Y-66030803D01*
X138794379Y-66020642D01*
X138690690Y-65877927D01*
X138557073Y-65744310D01*
X138404199Y-65633240D01*
X138404198Y-65633239D01*
X138404196Y-65633238D01*
X138235832Y-65547453D01*
X138056113Y-65489058D01*
X137869484Y-65459500D01*
X137869481Y-65459500D01*
X137680519Y-65459500D01*
X137680516Y-65459500D01*
X137493886Y-65489058D01*
X137314167Y-65547453D01*
X137145803Y-65633238D01*
X136992928Y-65744309D01*
X136859309Y-65877928D01*
X136748238Y-66030803D01*
X136662453Y-66199167D01*
X136619155Y-66332425D01*
X136583191Y-66381925D01*
X136525000Y-66400832D01*
X136466809Y-66381925D01*
X136430845Y-66332425D01*
X136411994Y-66274408D01*
X136387547Y-66199168D01*
X136301760Y-66030801D01*
X136190690Y-65877927D01*
X136057073Y-65744310D01*
X135904199Y-65633240D01*
X135904198Y-65633239D01*
X135904196Y-65633238D01*
X135735832Y-65547453D01*
X135556113Y-65489058D01*
X135369484Y-65459500D01*
X135369481Y-65459500D01*
X135180519Y-65459500D01*
X135180516Y-65459500D01*
X134993886Y-65489058D01*
X134814167Y-65547453D01*
X134645803Y-65633238D01*
X134492928Y-65744309D01*
X134359309Y-65877928D01*
X134248238Y-66030803D01*
X134162709Y-66198665D01*
X134119444Y-66241930D01*
X134059012Y-66251501D01*
X134004495Y-66223724D01*
X133976718Y-66169207D01*
X133975499Y-66153720D01*
X133975499Y-66020642D01*
X133975499Y-66020640D01*
X133960044Y-65903238D01*
X133949560Y-65877927D01*
X133899537Y-65757161D01*
X133899537Y-65757160D01*
X133803286Y-65631723D01*
X133803285Y-65631722D01*
X133803282Y-65631718D01*
X133803277Y-65631714D01*
X133803276Y-65631713D01*
X133677838Y-65535462D01*
X133531766Y-65474957D01*
X133531758Y-65474955D01*
X133414361Y-65459500D01*
X132135642Y-65459500D01*
X132135637Y-65459501D01*
X132018241Y-65474955D01*
X132018233Y-65474957D01*
X131872161Y-65535462D01*
X131872160Y-65535462D01*
X131746723Y-65631713D01*
X131746713Y-65631723D01*
X131650462Y-65757160D01*
X131650462Y-65757161D01*
X131589957Y-65903233D01*
X131589955Y-65903241D01*
X131574500Y-66020637D01*
X128913006Y-66020637D01*
X128941232Y-65981788D01*
X129019873Y-65827445D01*
X129019874Y-65827440D01*
X129019876Y-65827438D01*
X129073401Y-65662706D01*
X129073402Y-65662702D01*
X129100500Y-65491614D01*
X129100500Y-65318385D01*
X129073402Y-65147297D01*
X129073401Y-65147293D01*
X129019876Y-64982561D01*
X129019874Y-64982558D01*
X129019873Y-64982557D01*
X129019873Y-64982555D01*
X128941232Y-64828212D01*
X128839414Y-64688072D01*
X128716928Y-64565586D01*
X128576788Y-64463768D01*
X128576787Y-64463767D01*
X128576785Y-64463766D01*
X128422441Y-64385125D01*
X128422438Y-64385123D01*
X128257706Y-64331598D01*
X128257702Y-64331597D01*
X128086614Y-64304500D01*
X128086611Y-64304500D01*
X126913389Y-64304500D01*
X126913386Y-64304500D01*
X126742297Y-64331597D01*
X126742293Y-64331598D01*
X126577561Y-64385123D01*
X126577558Y-64385125D01*
X126423214Y-64463766D01*
X126283073Y-64565585D01*
X126160585Y-64688073D01*
X126059593Y-64827077D01*
X126010092Y-64863041D01*
X125948907Y-64863041D01*
X125899407Y-64827077D01*
X125880500Y-64768886D01*
X125880500Y-64099500D01*
X125899407Y-64041309D01*
X125948907Y-64005345D01*
X125979500Y-64000500D01*
X142174108Y-64000500D01*
X142235139Y-64000500D01*
X142244842Y-64000976D01*
X142380418Y-64014330D01*
X142399451Y-64018116D01*
X142525148Y-64056245D01*
X142543071Y-64063670D01*
X142658915Y-64125589D01*
X142675043Y-64136365D01*
X142748018Y-64196254D01*
X142776581Y-64219695D01*
X142790304Y-64233418D01*
X142870877Y-64331597D01*
X142873631Y-64334952D01*
X142884411Y-64351087D01*
X142906650Y-64392692D01*
X142946328Y-64466925D01*
X142953755Y-64484855D01*
X142991883Y-64610548D01*
X142995669Y-64629582D01*
X143009023Y-64765157D01*
X143009500Y-64774861D01*
X143009500Y-118740138D01*
X143009023Y-118749842D01*
X142995669Y-118885417D01*
X142991883Y-118904451D01*
X142953755Y-119030144D01*
X142946328Y-119048074D01*
X142884413Y-119163910D01*
X142873631Y-119180047D01*
X142790304Y-119281581D01*
X142776581Y-119295304D01*
X142675047Y-119378631D01*
X142658910Y-119389413D01*
X142543074Y-119451328D01*
X142525144Y-119458755D01*
X142399451Y-119496883D01*
X142380418Y-119500669D01*
X142260442Y-119512486D01*
X142244841Y-119514023D01*
X142235139Y-119514500D01*
X64774861Y-119514500D01*
X64765157Y-119514023D01*
X64629582Y-119500669D01*
X64610548Y-119496883D01*
X64484855Y-119458755D01*
X64466925Y-119451328D01*
X64351089Y-119389413D01*
X64334952Y-119378631D01*
X64233418Y-119295304D01*
X64219695Y-119281581D01*
X64196254Y-119253018D01*
X64136365Y-119180043D01*
X64125589Y-119163915D01*
X64063670Y-119048071D01*
X64056244Y-119030144D01*
X64018116Y-118904451D01*
X64014330Y-118885417D01*
X64000977Y-118749842D01*
X64000500Y-118740138D01*
X64000500Y-114915637D01*
X75694500Y-114915637D01*
X75694500Y-116444357D01*
X75694501Y-116444362D01*
X75709955Y-116561758D01*
X75709957Y-116561766D01*
X75770462Y-116707838D01*
X75770462Y-116707839D01*
X75770464Y-116707841D01*
X75866718Y-116833282D01*
X75866722Y-116833285D01*
X75866723Y-116833286D01*
X75896082Y-116855813D01*
X75992159Y-116929536D01*
X75992160Y-116929536D01*
X75992161Y-116929537D01*
X76104188Y-116975940D01*
X76138238Y-116990044D01*
X76255639Y-117005500D01*
X76345500Y-117005499D01*
X76403690Y-117024406D01*
X76439654Y-117073905D01*
X76444500Y-117104499D01*
X76444500Y-117374309D01*
X76468713Y-117464673D01*
X76468712Y-117464673D01*
X76475200Y-117488886D01*
X76475202Y-117488890D01*
X76534507Y-117591609D01*
X76534509Y-117591611D01*
X76534511Y-117591614D01*
X77010505Y-118067608D01*
X77038281Y-118122123D01*
X77039500Y-118137610D01*
X77039500Y-118278282D01*
X77042432Y-118309544D01*
X77042434Y-118309553D01*
X77088529Y-118441285D01*
X77088531Y-118441289D01*
X77171411Y-118553589D01*
X77283711Y-118636469D01*
X77415451Y-118682567D01*
X77444293Y-118685271D01*
X77446717Y-118685499D01*
X77446721Y-118685500D01*
X77446728Y-118685500D01*
X77933279Y-118685500D01*
X77933281Y-118685499D01*
X77964549Y-118682567D01*
X78096289Y-118636469D01*
X78208589Y-118553589D01*
X78291469Y-118441289D01*
X78337567Y-118309549D01*
X78340499Y-118278281D01*
X78340500Y-118278279D01*
X78340500Y-117941721D01*
X78340499Y-117941717D01*
X78337567Y-117910455D01*
X78337567Y-117910451D01*
X78291469Y-117778711D01*
X78208589Y-117666411D01*
X78096289Y-117583531D01*
X78096285Y-117583529D01*
X77964553Y-117537434D01*
X77964544Y-117537432D01*
X77933282Y-117534500D01*
X77933272Y-117534500D01*
X77792612Y-117534500D01*
X77734421Y-117515593D01*
X77722608Y-117505504D01*
X77391607Y-117174503D01*
X77363830Y-117119986D01*
X77373401Y-117059554D01*
X77416666Y-117016289D01*
X77461611Y-117005499D01*
X77534358Y-117005499D01*
X77534360Y-117005499D01*
X77651762Y-116990044D01*
X77797841Y-116929536D01*
X77923282Y-116833282D01*
X78019536Y-116707841D01*
X78080044Y-116561762D01*
X78095500Y-116444361D01*
X78095500Y-116311281D01*
X78114407Y-116253090D01*
X78163907Y-116217126D01*
X78225093Y-116217126D01*
X78274593Y-116253090D01*
X78282710Y-116266336D01*
X78368237Y-116434195D01*
X78368240Y-116434199D01*
X78479310Y-116587073D01*
X78612927Y-116720690D01*
X78765801Y-116831760D01*
X78934168Y-116917547D01*
X79113882Y-116975940D01*
X79113883Y-116975940D01*
X79113886Y-116975941D01*
X79300516Y-117005500D01*
X79300519Y-117005500D01*
X79489484Y-117005500D01*
X79676113Y-116975941D01*
X79676114Y-116975940D01*
X79676118Y-116975940D01*
X79855832Y-116917547D01*
X80024199Y-116831760D01*
X80177073Y-116720690D01*
X80310690Y-116587073D01*
X80421760Y-116434199D01*
X80507547Y-116265832D01*
X80550845Y-116132572D01*
X80586809Y-116083074D01*
X80645000Y-116064167D01*
X80703191Y-116083074D01*
X80739154Y-116132572D01*
X80778313Y-116253090D01*
X80782453Y-116265832D01*
X80868237Y-116434195D01*
X80868240Y-116434199D01*
X80979310Y-116587073D01*
X81112927Y-116720690D01*
X81265801Y-116831760D01*
X81434168Y-116917547D01*
X81613882Y-116975940D01*
X81613883Y-116975940D01*
X81613886Y-116975941D01*
X81800516Y-117005500D01*
X81800519Y-117005500D01*
X81989484Y-117005500D01*
X82176113Y-116975941D01*
X82176114Y-116975940D01*
X82176118Y-116975940D01*
X82355832Y-116917547D01*
X82524199Y-116831760D01*
X82677073Y-116720690D01*
X82810690Y-116587073D01*
X82921760Y-116434199D01*
X82972896Y-116333837D01*
X83016160Y-116290573D01*
X83076592Y-116281001D01*
X83131109Y-116308778D01*
X83149316Y-116333837D01*
X83240375Y-116512551D01*
X83365277Y-116684464D01*
X83515535Y-116834722D01*
X83687447Y-116959624D01*
X83876784Y-117056095D01*
X84078877Y-117121758D01*
X84144999Y-117132231D01*
X84145000Y-117132230D01*
X84145000Y-116084145D01*
X84211657Y-116122630D01*
X84332465Y-116155000D01*
X84457535Y-116155000D01*
X84578343Y-116122630D01*
X84645000Y-116084145D01*
X84645000Y-117132231D01*
X84711122Y-117121758D01*
X84913215Y-117056095D01*
X85102552Y-116959624D01*
X85274464Y-116834722D01*
X85424722Y-116684464D01*
X85549624Y-116512552D01*
X85646095Y-116323215D01*
X85711759Y-116121121D01*
X85742030Y-115930000D01*
X84799146Y-115930000D01*
X84837630Y-115863343D01*
X84870000Y-115742535D01*
X84870000Y-115617465D01*
X84837630Y-115496657D01*
X84799146Y-115430000D01*
X85742030Y-115430000D01*
X85742030Y-115429999D01*
X85711759Y-115238878D01*
X85646095Y-115036784D01*
X85549624Y-114847447D01*
X85424722Y-114675535D01*
X85274464Y-114525277D01*
X85102552Y-114400375D01*
X84913215Y-114303904D01*
X84711120Y-114238240D01*
X84645000Y-114227767D01*
X84645000Y-115275854D01*
X84578343Y-115237370D01*
X84457535Y-115205000D01*
X84332465Y-115205000D01*
X84211657Y-115237370D01*
X84145000Y-115275854D01*
X84145000Y-114227768D01*
X84144999Y-114227767D01*
X84078880Y-114238240D01*
X84078878Y-114238240D01*
X83876784Y-114303904D01*
X83687447Y-114400375D01*
X83515535Y-114525277D01*
X83365277Y-114675535D01*
X83240375Y-114847448D01*
X83149316Y-115026162D01*
X83106051Y-115069427D01*
X83045619Y-115078998D01*
X82991102Y-115051220D01*
X82972896Y-115026162D01*
X82921761Y-114925803D01*
X82914379Y-114915642D01*
X82810690Y-114772927D01*
X82677073Y-114639310D01*
X82524199Y-114528240D01*
X82524198Y-114528239D01*
X82524196Y-114528238D01*
X82355832Y-114442453D01*
X82176113Y-114384058D01*
X81989484Y-114354500D01*
X81989481Y-114354500D01*
X81800519Y-114354500D01*
X81800516Y-114354500D01*
X81613886Y-114384058D01*
X81434167Y-114442453D01*
X81265803Y-114528238D01*
X81112928Y-114639309D01*
X80979309Y-114772928D01*
X80868238Y-114925803D01*
X80782453Y-115094167D01*
X80739155Y-115227425D01*
X80703191Y-115276925D01*
X80645000Y-115295832D01*
X80586809Y-115276925D01*
X80550845Y-115227425D01*
X80521441Y-115136930D01*
X80507547Y-115094168D01*
X80421760Y-114925801D01*
X80310690Y-114772927D01*
X80177073Y-114639310D01*
X80024199Y-114528240D01*
X80024198Y-114528239D01*
X80024196Y-114528238D01*
X79855832Y-114442453D01*
X79676113Y-114384058D01*
X79489484Y-114354500D01*
X79489481Y-114354500D01*
X79300519Y-114354500D01*
X79300516Y-114354500D01*
X79113886Y-114384058D01*
X78934167Y-114442453D01*
X78765803Y-114528238D01*
X78612928Y-114639309D01*
X78479309Y-114772928D01*
X78368238Y-114925803D01*
X78282709Y-115093665D01*
X78239444Y-115136930D01*
X78179012Y-115146501D01*
X78124495Y-115118724D01*
X78096718Y-115064207D01*
X78095499Y-115048720D01*
X78095499Y-114915642D01*
X78095499Y-114915640D01*
X78080044Y-114798238D01*
X78019537Y-114652161D01*
X78019537Y-114652160D01*
X77923286Y-114526723D01*
X77923285Y-114526722D01*
X77923282Y-114526718D01*
X77923277Y-114526714D01*
X77923276Y-114526713D01*
X77797838Y-114430462D01*
X77651766Y-114369957D01*
X77651758Y-114369955D01*
X77534361Y-114354500D01*
X76255642Y-114354500D01*
X76255637Y-114354501D01*
X76138241Y-114369955D01*
X76138233Y-114369957D01*
X75992161Y-114430462D01*
X75992160Y-114430462D01*
X75866723Y-114526713D01*
X75866713Y-114526723D01*
X75770462Y-114652160D01*
X75770462Y-114652161D01*
X75709957Y-114798233D01*
X75709955Y-114798241D01*
X75694500Y-114915637D01*
X64000500Y-114915637D01*
X64000500Y-106025637D01*
X83314500Y-106025637D01*
X83314500Y-107554357D01*
X83314501Y-107554362D01*
X83329955Y-107671758D01*
X83329957Y-107671766D01*
X83390462Y-107817838D01*
X83390462Y-107817839D01*
X83390464Y-107817841D01*
X83486718Y-107943282D01*
X83486722Y-107943285D01*
X83486723Y-107943286D01*
X83516082Y-107965813D01*
X83612159Y-108039536D01*
X83612160Y-108039536D01*
X83612161Y-108039537D01*
X83724188Y-108085940D01*
X83758238Y-108100044D01*
X83875639Y-108115500D01*
X83965500Y-108115499D01*
X84023690Y-108134406D01*
X84059654Y-108183905D01*
X84064500Y-108214499D01*
X84064500Y-108484309D01*
X84088713Y-108574673D01*
X84088712Y-108574673D01*
X84095200Y-108598886D01*
X84095202Y-108598890D01*
X84154507Y-108701609D01*
X84154509Y-108701611D01*
X84154511Y-108701614D01*
X84630505Y-109177608D01*
X84658281Y-109232123D01*
X84659500Y-109247610D01*
X84659500Y-109388282D01*
X84662432Y-109419544D01*
X84662434Y-109419553D01*
X84708529Y-109551285D01*
X84708531Y-109551289D01*
X84791411Y-109663589D01*
X84903711Y-109746469D01*
X85035451Y-109792567D01*
X85064293Y-109795271D01*
X85066717Y-109795499D01*
X85066721Y-109795500D01*
X85066728Y-109795500D01*
X85553279Y-109795500D01*
X85553281Y-109795499D01*
X85584549Y-109792567D01*
X85716289Y-109746469D01*
X85828589Y-109663589D01*
X85911469Y-109551289D01*
X85957567Y-109419549D01*
X85960499Y-109388281D01*
X85960500Y-109388279D01*
X85960500Y-109051721D01*
X85960499Y-109051717D01*
X85957567Y-109020455D01*
X85957567Y-109020451D01*
X85911469Y-108888711D01*
X85828589Y-108776411D01*
X85716289Y-108693531D01*
X85716285Y-108693529D01*
X85584553Y-108647434D01*
X85584544Y-108647432D01*
X85553282Y-108644500D01*
X85553272Y-108644500D01*
X85412612Y-108644500D01*
X85354421Y-108625593D01*
X85342608Y-108615504D01*
X85011607Y-108284503D01*
X84983830Y-108229986D01*
X84993401Y-108169554D01*
X85036666Y-108126289D01*
X85081611Y-108115499D01*
X85154358Y-108115499D01*
X85154360Y-108115499D01*
X85271762Y-108100044D01*
X85417841Y-108039536D01*
X85543282Y-107943282D01*
X85639536Y-107817841D01*
X85700044Y-107671762D01*
X85715500Y-107554361D01*
X85715500Y-107421281D01*
X85734407Y-107363090D01*
X85783907Y-107327126D01*
X85845093Y-107327126D01*
X85894593Y-107363090D01*
X85902710Y-107376336D01*
X85988237Y-107544195D01*
X85988240Y-107544199D01*
X86099310Y-107697073D01*
X86232927Y-107830690D01*
X86385801Y-107941760D01*
X86554168Y-108027547D01*
X86733882Y-108085940D01*
X86733883Y-108085940D01*
X86733886Y-108085941D01*
X86920516Y-108115500D01*
X86920519Y-108115500D01*
X87109484Y-108115500D01*
X87296113Y-108085941D01*
X87296114Y-108085940D01*
X87296118Y-108085940D01*
X87475832Y-108027547D01*
X87644199Y-107941760D01*
X87797073Y-107830690D01*
X87930690Y-107697073D01*
X88041760Y-107544199D01*
X88127547Y-107375832D01*
X88170845Y-107242572D01*
X88206809Y-107193074D01*
X88265000Y-107174167D01*
X88323191Y-107193074D01*
X88359154Y-107242572D01*
X88398313Y-107363090D01*
X88402453Y-107375832D01*
X88488237Y-107544195D01*
X88488240Y-107544199D01*
X88599310Y-107697073D01*
X88732927Y-107830690D01*
X88885801Y-107941760D01*
X89054168Y-108027547D01*
X89233882Y-108085940D01*
X89233883Y-108085940D01*
X89233886Y-108085941D01*
X89420516Y-108115500D01*
X89420519Y-108115500D01*
X89609484Y-108115500D01*
X89796113Y-108085941D01*
X89796114Y-108085940D01*
X89796118Y-108085940D01*
X89975832Y-108027547D01*
X90144199Y-107941760D01*
X90297073Y-107830690D01*
X90430690Y-107697073D01*
X90541760Y-107544199D01*
X90592896Y-107443837D01*
X90636160Y-107400573D01*
X90696592Y-107391001D01*
X90751109Y-107418778D01*
X90769316Y-107443837D01*
X90860375Y-107622551D01*
X90985277Y-107794464D01*
X91135535Y-107944722D01*
X91307447Y-108069624D01*
X91496784Y-108166095D01*
X91698877Y-108231758D01*
X91764999Y-108242231D01*
X91765000Y-108242230D01*
X91765000Y-107194145D01*
X91831657Y-107232630D01*
X91952465Y-107265000D01*
X92077535Y-107265000D01*
X92198343Y-107232630D01*
X92265000Y-107194145D01*
X92265000Y-108242231D01*
X92331122Y-108231758D01*
X92533215Y-108166095D01*
X92722552Y-108069624D01*
X92894464Y-107944722D01*
X93044722Y-107794464D01*
X93169624Y-107622552D01*
X93266095Y-107433215D01*
X93331759Y-107231121D01*
X93362030Y-107040000D01*
X92419146Y-107040000D01*
X92457630Y-106973343D01*
X92490000Y-106852535D01*
X92490000Y-106727465D01*
X92457630Y-106606657D01*
X92419146Y-106540000D01*
X93362030Y-106540000D01*
X93362030Y-106539999D01*
X93331759Y-106348878D01*
X93266095Y-106146784D01*
X93169624Y-105957447D01*
X93044722Y-105785535D01*
X92894464Y-105635277D01*
X92722552Y-105510375D01*
X92533215Y-105413904D01*
X92331120Y-105348240D01*
X92265000Y-105337767D01*
X92265000Y-106385854D01*
X92198343Y-106347370D01*
X92077535Y-106315000D01*
X91952465Y-106315000D01*
X91831657Y-106347370D01*
X91765000Y-106385854D01*
X91765000Y-105337768D01*
X91764999Y-105337767D01*
X91698880Y-105348240D01*
X91698878Y-105348240D01*
X91496784Y-105413904D01*
X91307447Y-105510375D01*
X91135535Y-105635277D01*
X90985277Y-105785535D01*
X90860375Y-105957448D01*
X90769316Y-106136162D01*
X90726051Y-106179427D01*
X90665619Y-106188998D01*
X90611102Y-106161220D01*
X90592896Y-106136162D01*
X90541761Y-106035803D01*
X90534379Y-106025642D01*
X90430690Y-105882927D01*
X90297073Y-105749310D01*
X90144199Y-105638240D01*
X90144198Y-105638239D01*
X90144196Y-105638238D01*
X89975832Y-105552453D01*
X89796113Y-105494058D01*
X89609484Y-105464500D01*
X89609481Y-105464500D01*
X89420519Y-105464500D01*
X89420516Y-105464500D01*
X89233886Y-105494058D01*
X89054167Y-105552453D01*
X88885803Y-105638238D01*
X88732928Y-105749309D01*
X88599309Y-105882928D01*
X88488238Y-106035803D01*
X88402453Y-106204167D01*
X88359155Y-106337425D01*
X88323191Y-106386925D01*
X88265000Y-106405832D01*
X88206809Y-106386925D01*
X88170845Y-106337425D01*
X88141441Y-106246930D01*
X88127547Y-106204168D01*
X88041760Y-106035801D01*
X87930690Y-105882927D01*
X87797073Y-105749310D01*
X87644199Y-105638240D01*
X87644198Y-105638239D01*
X87644196Y-105638238D01*
X87475832Y-105552453D01*
X87296113Y-105494058D01*
X87109484Y-105464500D01*
X87109481Y-105464500D01*
X86920519Y-105464500D01*
X86920516Y-105464500D01*
X86733886Y-105494058D01*
X86554167Y-105552453D01*
X86385803Y-105638238D01*
X86232928Y-105749309D01*
X86099309Y-105882928D01*
X85988238Y-106035803D01*
X85902709Y-106203665D01*
X85859444Y-106246930D01*
X85799012Y-106256501D01*
X85744495Y-106228724D01*
X85716718Y-106174207D01*
X85715499Y-106158720D01*
X85715499Y-106025642D01*
X85715499Y-106025640D01*
X85700044Y-105908238D01*
X85639537Y-105762161D01*
X85639537Y-105762160D01*
X85543286Y-105636723D01*
X85543285Y-105636722D01*
X85543282Y-105636718D01*
X85543277Y-105636714D01*
X85543276Y-105636713D01*
X85417838Y-105540462D01*
X85271766Y-105479957D01*
X85271758Y-105479955D01*
X85154361Y-105464500D01*
X83875642Y-105464500D01*
X83875637Y-105464501D01*
X83758241Y-105479955D01*
X83758233Y-105479957D01*
X83612161Y-105540462D01*
X83612160Y-105540462D01*
X83486723Y-105636713D01*
X83486713Y-105636723D01*
X83390462Y-105762160D01*
X83390462Y-105762161D01*
X83329957Y-105908233D01*
X83329955Y-105908241D01*
X83314500Y-106025637D01*
X64000500Y-106025637D01*
X64000500Y-97100012D01*
X85665000Y-97100012D01*
X85665000Y-97649999D01*
X85665001Y-97650000D01*
X86581988Y-97650000D01*
X86549075Y-97707007D01*
X86515000Y-97834174D01*
X86515000Y-97965826D01*
X86549075Y-98092993D01*
X86581988Y-98150000D01*
X85665002Y-98150000D01*
X85665001Y-98150001D01*
X85665001Y-98699986D01*
X85675492Y-98802687D01*
X85675495Y-98802699D01*
X85730643Y-98969124D01*
X85822680Y-99118340D01*
X85946659Y-99242319D01*
X86095875Y-99334356D01*
X86262306Y-99389506D01*
X86365012Y-99399999D01*
X86764998Y-99399999D01*
X86765000Y-99399998D01*
X86765000Y-98333012D01*
X86822007Y-98365925D01*
X86949174Y-98400000D01*
X87080826Y-98400000D01*
X87207993Y-98365925D01*
X87265000Y-98333012D01*
X87265000Y-99399998D01*
X87265001Y-99399999D01*
X87664986Y-99399999D01*
X87767687Y-99389507D01*
X87767699Y-99389504D01*
X87934124Y-99334356D01*
X88083340Y-99242319D01*
X88207319Y-99118340D01*
X88299356Y-98969124D01*
X88354505Y-98802697D01*
X88355727Y-98790737D01*
X88380450Y-98734768D01*
X88433348Y-98704020D01*
X88494216Y-98710237D01*
X88534306Y-98742603D01*
X88599310Y-98832073D01*
X88732927Y-98965690D01*
X88885801Y-99076760D01*
X89054168Y-99162547D01*
X89233882Y-99220940D01*
X89233883Y-99220940D01*
X89233886Y-99220941D01*
X89420516Y-99250500D01*
X89420519Y-99250500D01*
X89609484Y-99250500D01*
X89796113Y-99220941D01*
X89796114Y-99220940D01*
X89796118Y-99220940D01*
X89975832Y-99162547D01*
X90144199Y-99076760D01*
X90297073Y-98965690D01*
X90430690Y-98832073D01*
X90541760Y-98679199D01*
X90627547Y-98510832D01*
X90685940Y-98331118D01*
X90715500Y-98144481D01*
X90715500Y-97655519D01*
X90715500Y-97655515D01*
X90685941Y-97468886D01*
X90674630Y-97434075D01*
X90627547Y-97289168D01*
X90541760Y-97120801D01*
X90430690Y-96967927D01*
X90297073Y-96834310D01*
X90144199Y-96723240D01*
X90144198Y-96723239D01*
X90144196Y-96723238D01*
X89975832Y-96637453D01*
X89796113Y-96579058D01*
X89609484Y-96549500D01*
X89609481Y-96549500D01*
X89420519Y-96549500D01*
X89420516Y-96549500D01*
X89233886Y-96579058D01*
X89054167Y-96637453D01*
X88885803Y-96723238D01*
X88732928Y-96834309D01*
X88599305Y-96967932D01*
X88534307Y-97057394D01*
X88484807Y-97093358D01*
X88423622Y-97093357D01*
X88374122Y-97057393D01*
X88355728Y-97009264D01*
X88354507Y-96997311D01*
X88354504Y-96997300D01*
X88299356Y-96830875D01*
X88207319Y-96681659D01*
X88083340Y-96557680D01*
X87934124Y-96465643D01*
X87767693Y-96410493D01*
X87664987Y-96400000D01*
X87265001Y-96400000D01*
X87265000Y-96400001D01*
X87265000Y-97466988D01*
X87207993Y-97434075D01*
X87080826Y-97400000D01*
X86949174Y-97400000D01*
X86822007Y-97434075D01*
X86765000Y-97466988D01*
X86765000Y-96400001D01*
X86764999Y-96400000D01*
X86365013Y-96400000D01*
X86262312Y-96410492D01*
X86262300Y-96410495D01*
X86095875Y-96465643D01*
X85946659Y-96557680D01*
X85822680Y-96681659D01*
X85730643Y-96830875D01*
X85675493Y-96997306D01*
X85665000Y-97100012D01*
X64000500Y-97100012D01*
X64000500Y-66020637D01*
X65534500Y-66020637D01*
X65534500Y-67549357D01*
X65534501Y-67549362D01*
X65549955Y-67666758D01*
X65549957Y-67666766D01*
X65610462Y-67812838D01*
X65610462Y-67812839D01*
X65610464Y-67812841D01*
X65706718Y-67938282D01*
X65706722Y-67938285D01*
X65706723Y-67938286D01*
X65736082Y-67960813D01*
X65832159Y-68034536D01*
X65832160Y-68034536D01*
X65832161Y-68034537D01*
X65944188Y-68080940D01*
X65978238Y-68095044D01*
X66095639Y-68110500D01*
X66185500Y-68110499D01*
X66243690Y-68129406D01*
X66279654Y-68178905D01*
X66284500Y-68209499D01*
X66284500Y-68479309D01*
X66306336Y-68560802D01*
X66306335Y-68560802D01*
X66315200Y-68593886D01*
X66315202Y-68593890D01*
X66374507Y-68696609D01*
X66374509Y-68696611D01*
X66374511Y-68696614D01*
X66850505Y-69172608D01*
X66878281Y-69227123D01*
X66879500Y-69242610D01*
X66879500Y-69383282D01*
X66882432Y-69414544D01*
X66882434Y-69414553D01*
X66928529Y-69546285D01*
X66928531Y-69546289D01*
X67011411Y-69658589D01*
X67123711Y-69741469D01*
X67255451Y-69787567D01*
X67284293Y-69790271D01*
X67286717Y-69790499D01*
X67286721Y-69790500D01*
X67286728Y-69790500D01*
X67773279Y-69790500D01*
X67773281Y-69790499D01*
X67804549Y-69787567D01*
X67936289Y-69741469D01*
X68048589Y-69658589D01*
X68131469Y-69546289D01*
X68177567Y-69414549D01*
X68180499Y-69383281D01*
X68180500Y-69383279D01*
X68180500Y-69046721D01*
X68180499Y-69046717D01*
X68179984Y-69041227D01*
X68177567Y-69015451D01*
X68131469Y-68883711D01*
X68048589Y-68771411D01*
X67936289Y-68688531D01*
X67936285Y-68688529D01*
X67804553Y-68642434D01*
X67804544Y-68642432D01*
X67773282Y-68639500D01*
X67773272Y-68639500D01*
X67632612Y-68639500D01*
X67574421Y-68620593D01*
X67562608Y-68610504D01*
X67231607Y-68279503D01*
X67203830Y-68224986D01*
X67213401Y-68164554D01*
X67256666Y-68121289D01*
X67301611Y-68110499D01*
X67374358Y-68110499D01*
X67374360Y-68110499D01*
X67491762Y-68095044D01*
X67637841Y-68034536D01*
X67763282Y-67938282D01*
X67859536Y-67812841D01*
X67920044Y-67666762D01*
X67935500Y-67549361D01*
X67935500Y-67416281D01*
X67954407Y-67358090D01*
X68003907Y-67322126D01*
X68065093Y-67322126D01*
X68114593Y-67358090D01*
X68122710Y-67371336D01*
X68208237Y-67539195D01*
X68208240Y-67539199D01*
X68319310Y-67692073D01*
X68452927Y-67825690D01*
X68605801Y-67936760D01*
X68774168Y-68022547D01*
X68953882Y-68080940D01*
X68953883Y-68080940D01*
X68953886Y-68080941D01*
X69140516Y-68110500D01*
X69140519Y-68110500D01*
X69329484Y-68110500D01*
X69516113Y-68080941D01*
X69516114Y-68080940D01*
X69516118Y-68080940D01*
X69695832Y-68022547D01*
X69864199Y-67936760D01*
X70017073Y-67825690D01*
X70150690Y-67692073D01*
X70261760Y-67539199D01*
X70347547Y-67370832D01*
X70390845Y-67237572D01*
X70426809Y-67188074D01*
X70485000Y-67169167D01*
X70543191Y-67188074D01*
X70579154Y-67237572D01*
X70618313Y-67358090D01*
X70622453Y-67370832D01*
X70708237Y-67539195D01*
X70708240Y-67539199D01*
X70819310Y-67692073D01*
X70952927Y-67825690D01*
X71105801Y-67936760D01*
X71274168Y-68022547D01*
X71453882Y-68080940D01*
X71453883Y-68080940D01*
X71453886Y-68080941D01*
X71640516Y-68110500D01*
X71640519Y-68110500D01*
X71829484Y-68110500D01*
X72016113Y-68080941D01*
X72016114Y-68080940D01*
X72016118Y-68080940D01*
X72195832Y-68022547D01*
X72364199Y-67936760D01*
X72517073Y-67825690D01*
X72650690Y-67692073D01*
X72761760Y-67539199D01*
X72812896Y-67438837D01*
X72856160Y-67395573D01*
X72916592Y-67386001D01*
X72971109Y-67413778D01*
X72989316Y-67438837D01*
X73080375Y-67617551D01*
X73205277Y-67789464D01*
X73355535Y-67939722D01*
X73527447Y-68064624D01*
X73716784Y-68161095D01*
X73918877Y-68226758D01*
X73984999Y-68237231D01*
X73985000Y-68237230D01*
X73985000Y-67189145D01*
X74051657Y-67227630D01*
X74172465Y-67260000D01*
X74297535Y-67260000D01*
X74418343Y-67227630D01*
X74485000Y-67189145D01*
X74485000Y-68237231D01*
X74551122Y-68226758D01*
X74753215Y-68161095D01*
X74942552Y-68064624D01*
X75114464Y-67939722D01*
X75264722Y-67789464D01*
X75389624Y-67617552D01*
X75486095Y-67428215D01*
X75551759Y-67226121D01*
X75582030Y-67035000D01*
X74639146Y-67035000D01*
X74677630Y-66968343D01*
X74710000Y-66847535D01*
X74710000Y-66722465D01*
X74677630Y-66601657D01*
X74639146Y-66535000D01*
X75582030Y-66535000D01*
X75582030Y-66534999D01*
X75551759Y-66343878D01*
X75486095Y-66141784D01*
X75389624Y-65952447D01*
X75264722Y-65780535D01*
X75114464Y-65630277D01*
X74942552Y-65505375D01*
X74753215Y-65408904D01*
X74551120Y-65343240D01*
X74485000Y-65332767D01*
X74485000Y-66380854D01*
X74418343Y-66342370D01*
X74297535Y-66310000D01*
X74172465Y-66310000D01*
X74051657Y-66342370D01*
X73985000Y-66380854D01*
X73985000Y-65332768D01*
X73984999Y-65332767D01*
X73918880Y-65343240D01*
X73918878Y-65343240D01*
X73716784Y-65408904D01*
X73527447Y-65505375D01*
X73355535Y-65630277D01*
X73205277Y-65780535D01*
X73080375Y-65952448D01*
X72989316Y-66131162D01*
X72946051Y-66174427D01*
X72885619Y-66183998D01*
X72831102Y-66156220D01*
X72812896Y-66131162D01*
X72761761Y-66030803D01*
X72754379Y-66020642D01*
X72650690Y-65877927D01*
X72517073Y-65744310D01*
X72364199Y-65633240D01*
X72364198Y-65633239D01*
X72364196Y-65633238D01*
X72195832Y-65547453D01*
X72016113Y-65489058D01*
X71829484Y-65459500D01*
X71829481Y-65459500D01*
X71640519Y-65459500D01*
X71640516Y-65459500D01*
X71453886Y-65489058D01*
X71274167Y-65547453D01*
X71105803Y-65633238D01*
X70952928Y-65744309D01*
X70819309Y-65877928D01*
X70708238Y-66030803D01*
X70622453Y-66199167D01*
X70579155Y-66332425D01*
X70543191Y-66381925D01*
X70485000Y-66400832D01*
X70426809Y-66381925D01*
X70390845Y-66332425D01*
X70371994Y-66274408D01*
X70347547Y-66199168D01*
X70261760Y-66030801D01*
X70150690Y-65877927D01*
X70017073Y-65744310D01*
X69864199Y-65633240D01*
X69864198Y-65633239D01*
X69864196Y-65633238D01*
X69695832Y-65547453D01*
X69516113Y-65489058D01*
X69329484Y-65459500D01*
X69329481Y-65459500D01*
X69140519Y-65459500D01*
X69140516Y-65459500D01*
X68953886Y-65489058D01*
X68774167Y-65547453D01*
X68605803Y-65633238D01*
X68452928Y-65744309D01*
X68319309Y-65877928D01*
X68208238Y-66030803D01*
X68122709Y-66198665D01*
X68079444Y-66241930D01*
X68019012Y-66251501D01*
X67964495Y-66223724D01*
X67936718Y-66169207D01*
X67935499Y-66153720D01*
X67935499Y-66020642D01*
X67935499Y-66020640D01*
X67920044Y-65903238D01*
X67909560Y-65877927D01*
X67859537Y-65757161D01*
X67859537Y-65757160D01*
X67763286Y-65631723D01*
X67763285Y-65631722D01*
X67763282Y-65631718D01*
X67763277Y-65631714D01*
X67763276Y-65631713D01*
X67637838Y-65535462D01*
X67491766Y-65474957D01*
X67491758Y-65474955D01*
X67374361Y-65459500D01*
X66095642Y-65459500D01*
X66095637Y-65459501D01*
X65978241Y-65474955D01*
X65978233Y-65474957D01*
X65832161Y-65535462D01*
X65832160Y-65535462D01*
X65706723Y-65631713D01*
X65706713Y-65631723D01*
X65610462Y-65757160D01*
X65610462Y-65757161D01*
X65549957Y-65903233D01*
X65549955Y-65903241D01*
X65534500Y-66020637D01*
X64000500Y-66020637D01*
X64000500Y-64774861D01*
X64000977Y-64765157D01*
X64008569Y-64688072D01*
X64014330Y-64629579D01*
X64018116Y-64610548D01*
X64056246Y-64484848D01*
X64063668Y-64466931D01*
X64125592Y-64351079D01*
X64136361Y-64334961D01*
X64219698Y-64233414D01*
X64233414Y-64219698D01*
X64334961Y-64136361D01*
X64351079Y-64125592D01*
X64466931Y-64063668D01*
X64484848Y-64056246D01*
X64610550Y-64018115D01*
X64629579Y-64014330D01*
X64765157Y-64000976D01*
X64774861Y-64000500D01*
X64835892Y-64000500D01*
X112780500Y-64000500D01*
X112838691Y-64019407D01*
G37*
%TD.AperFunction*%
%TA.AperFunction,Conductor*%
G36*
X123357849Y-85334407D02*
G01*
X123393813Y-85383907D01*
X123393813Y-85445093D01*
X123386597Y-85467301D01*
X123359500Y-85638385D01*
X123359500Y-86811614D01*
X123386597Y-86982702D01*
X123386598Y-86982706D01*
X123440123Y-87147438D01*
X123440125Y-87147441D01*
X123481766Y-87229168D01*
X123518768Y-87301788D01*
X123620586Y-87441928D01*
X123743072Y-87564414D01*
X123883212Y-87666232D01*
X123955445Y-87703036D01*
X123998709Y-87746299D01*
X124009500Y-87791245D01*
X124009500Y-91847389D01*
X123990593Y-91905580D01*
X123980504Y-91917393D01*
X123032393Y-92865504D01*
X122977876Y-92893281D01*
X122962389Y-92894500D01*
X121341611Y-92894500D01*
X121283420Y-92875593D01*
X121247456Y-92826093D01*
X121247456Y-92764907D01*
X121271607Y-92725496D01*
X121502307Y-92494796D01*
X122280489Y-91716614D01*
X122339799Y-91613887D01*
X122349561Y-91577453D01*
X122370500Y-91499309D01*
X122370500Y-87791245D01*
X122389407Y-87733054D01*
X122424554Y-87703036D01*
X122496788Y-87666232D01*
X122636928Y-87564414D01*
X122759414Y-87441928D01*
X122861232Y-87301788D01*
X122939873Y-87147445D01*
X122939874Y-87147440D01*
X122939876Y-87147438D01*
X122993401Y-86982706D01*
X122993402Y-86982702D01*
X123020500Y-86811614D01*
X123020500Y-85638385D01*
X123000517Y-85512221D01*
X122993402Y-85467299D01*
X122986187Y-85445093D01*
X122986187Y-85383907D01*
X123022151Y-85334407D01*
X123080342Y-85315500D01*
X123299658Y-85315500D01*
X123357849Y-85334407D01*
G37*
%TD.AperFunction*%
%TA.AperFunction,Conductor*%
G36*
X115737849Y-85334407D02*
G01*
X115773813Y-85383907D01*
X115773813Y-85445093D01*
X115766597Y-85467301D01*
X115739500Y-85638385D01*
X115739500Y-86811614D01*
X115766597Y-86982702D01*
X115766598Y-86982706D01*
X115820123Y-87147438D01*
X115820125Y-87147441D01*
X115861766Y-87229168D01*
X115898768Y-87301788D01*
X116000586Y-87441928D01*
X116123072Y-87564414D01*
X116263212Y-87666232D01*
X116417555Y-87744873D01*
X116417557Y-87744873D01*
X116417558Y-87744874D01*
X116417561Y-87744876D01*
X116582293Y-87798401D01*
X116582297Y-87798402D01*
X116753386Y-87825500D01*
X116753389Y-87825500D01*
X116926614Y-87825500D01*
X117097702Y-87798402D01*
X117097706Y-87798401D01*
X117262438Y-87744876D01*
X117262440Y-87744874D01*
X117262445Y-87744873D01*
X117416788Y-87666232D01*
X117556928Y-87564414D01*
X117679414Y-87441928D01*
X117781232Y-87301788D01*
X117859873Y-87147445D01*
X117859874Y-87147440D01*
X117859876Y-87147438D01*
X117913401Y-86982706D01*
X117913402Y-86982702D01*
X117940500Y-86811614D01*
X117940500Y-85638385D01*
X117920517Y-85512221D01*
X117913402Y-85467299D01*
X117906187Y-85445093D01*
X117906187Y-85383907D01*
X117942151Y-85334407D01*
X118000342Y-85315500D01*
X118219658Y-85315500D01*
X118277849Y-85334407D01*
X118313813Y-85383907D01*
X118313813Y-85445093D01*
X118306597Y-85467301D01*
X118279500Y-85638385D01*
X118279500Y-86811614D01*
X118306597Y-86982702D01*
X118306598Y-86982706D01*
X118360123Y-87147438D01*
X118360125Y-87147441D01*
X118401766Y-87229168D01*
X118438768Y-87301788D01*
X118540586Y-87441928D01*
X118663072Y-87564414D01*
X118803212Y-87666232D01*
X118957555Y-87744873D01*
X118957557Y-87744873D01*
X118957558Y-87744874D01*
X118957561Y-87744876D01*
X119122293Y-87798401D01*
X119122297Y-87798402D01*
X119293386Y-87825500D01*
X119293389Y-87825500D01*
X119466614Y-87825500D01*
X119637702Y-87798402D01*
X119637706Y-87798401D01*
X119802438Y-87744876D01*
X119802440Y-87744874D01*
X119802445Y-87744873D01*
X119956788Y-87666232D01*
X120096928Y-87564414D01*
X120219414Y-87441928D01*
X120321232Y-87301788D01*
X120399873Y-87147445D01*
X120399874Y-87147440D01*
X120399876Y-87147438D01*
X120453401Y-86982706D01*
X120453402Y-86982702D01*
X120480500Y-86811614D01*
X120480500Y-85638385D01*
X120460517Y-85512221D01*
X120453402Y-85467299D01*
X120446187Y-85445093D01*
X120446187Y-85383907D01*
X120482151Y-85334407D01*
X120540342Y-85315500D01*
X120759658Y-85315500D01*
X120817849Y-85334407D01*
X120853813Y-85383907D01*
X120853813Y-85445093D01*
X120846597Y-85467301D01*
X120819500Y-85638385D01*
X120819500Y-86811614D01*
X120846597Y-86982702D01*
X120846598Y-86982706D01*
X120900123Y-87147438D01*
X120900125Y-87147441D01*
X120941766Y-87229168D01*
X120978768Y-87301788D01*
X121080586Y-87441928D01*
X121203072Y-87564414D01*
X121343212Y-87666232D01*
X121415445Y-87703036D01*
X121458709Y-87746299D01*
X121469500Y-87791245D01*
X121469500Y-91212389D01*
X121450593Y-91270580D01*
X121440504Y-91282393D01*
X120492393Y-92230504D01*
X120437876Y-92258281D01*
X120422389Y-92259500D01*
X113721611Y-92259500D01*
X113663420Y-92240593D01*
X113627456Y-92191093D01*
X113627456Y-92129907D01*
X113651607Y-92090496D01*
X113894714Y-91847389D01*
X114660489Y-91081614D01*
X114719799Y-90978887D01*
X114722741Y-90967903D01*
X114726287Y-90954672D01*
X114726287Y-90954669D01*
X114750500Y-90864309D01*
X114750500Y-87791245D01*
X114769407Y-87733054D01*
X114804554Y-87703036D01*
X114876788Y-87666232D01*
X115016928Y-87564414D01*
X115139414Y-87441928D01*
X115241232Y-87301788D01*
X115319873Y-87147445D01*
X115319874Y-87147440D01*
X115319876Y-87147438D01*
X115373401Y-86982706D01*
X115373402Y-86982702D01*
X115400500Y-86811614D01*
X115400500Y-85638385D01*
X115380517Y-85512221D01*
X115373402Y-85467299D01*
X115366187Y-85445093D01*
X115366187Y-85383907D01*
X115402151Y-85334407D01*
X115460342Y-85315500D01*
X115679658Y-85315500D01*
X115737849Y-85334407D01*
G37*
%TD.AperFunction*%
%TA.AperFunction,Conductor*%
G36*
X130005580Y-81114407D02*
G01*
X130017393Y-81124496D01*
X130965504Y-82072607D01*
X130993281Y-82127124D01*
X130994500Y-82142611D01*
X130994500Y-83763389D01*
X130975593Y-83821580D01*
X130926093Y-83857544D01*
X130864907Y-83857544D01*
X130825496Y-83833393D01*
X130421277Y-83429174D01*
X129816614Y-82824511D01*
X129816611Y-82824509D01*
X129816610Y-82824508D01*
X129816609Y-82824507D01*
X129713890Y-82765202D01*
X129713886Y-82765200D01*
X129689673Y-82758712D01*
X129689673Y-82758713D01*
X129599309Y-82734500D01*
X129599307Y-82734500D01*
X129066246Y-82734500D01*
X129008055Y-82715593D01*
X128978036Y-82680445D01*
X128958978Y-82643041D01*
X128941232Y-82608212D01*
X128839414Y-82468072D01*
X128716928Y-82345586D01*
X128576788Y-82243768D01*
X128576787Y-82243767D01*
X128576785Y-82243766D01*
X128422441Y-82165125D01*
X128422438Y-82165123D01*
X128257706Y-82111598D01*
X128257702Y-82111597D01*
X128086614Y-82084500D01*
X128086611Y-82084500D01*
X126913389Y-82084500D01*
X126913386Y-82084500D01*
X126742297Y-82111597D01*
X126742293Y-82111598D01*
X126577561Y-82165123D01*
X126577558Y-82165125D01*
X126423214Y-82243766D01*
X126283073Y-82345585D01*
X126160585Y-82468073D01*
X126059593Y-82607077D01*
X126010092Y-82643041D01*
X125948907Y-82643041D01*
X125899407Y-82607077D01*
X125880500Y-82548886D01*
X125880500Y-81281113D01*
X125899407Y-81222922D01*
X125948907Y-81186958D01*
X126010093Y-81186958D01*
X126059590Y-81222920D01*
X126160586Y-81361928D01*
X126283072Y-81484414D01*
X126423212Y-81586232D01*
X126577555Y-81664873D01*
X126577557Y-81664873D01*
X126577558Y-81664874D01*
X126577561Y-81664876D01*
X126742293Y-81718401D01*
X126742297Y-81718402D01*
X126913386Y-81745500D01*
X126913389Y-81745500D01*
X128086614Y-81745500D01*
X128257702Y-81718402D01*
X128257706Y-81718401D01*
X128422438Y-81664876D01*
X128422440Y-81664874D01*
X128422445Y-81664873D01*
X128576788Y-81586232D01*
X128716928Y-81484414D01*
X128839414Y-81361928D01*
X128941232Y-81221788D01*
X128978036Y-81149554D01*
X129021301Y-81106290D01*
X129066246Y-81095500D01*
X129947389Y-81095500D01*
X130005580Y-81114407D01*
G37*
%TD.AperFunction*%
%TA.AperFunction,Conductor*%
G36*
X130640580Y-78574407D02*
G01*
X130652393Y-78584496D01*
X131600504Y-79532607D01*
X131628281Y-79587124D01*
X131629500Y-79602611D01*
X131629500Y-81223389D01*
X131610593Y-81281580D01*
X131561093Y-81317544D01*
X131499907Y-81317544D01*
X131460496Y-81293393D01*
X131069804Y-80902701D01*
X130451614Y-80284511D01*
X130451611Y-80284509D01*
X130451610Y-80284508D01*
X130451609Y-80284507D01*
X130348890Y-80225202D01*
X130348886Y-80225200D01*
X130324673Y-80218712D01*
X130324673Y-80218713D01*
X130234309Y-80194500D01*
X130234307Y-80194500D01*
X129066246Y-80194500D01*
X129008055Y-80175593D01*
X128978036Y-80140445D01*
X128941237Y-80068222D01*
X128941232Y-80068212D01*
X128839414Y-79928072D01*
X128716928Y-79805586D01*
X128576788Y-79703768D01*
X128576787Y-79703767D01*
X128576785Y-79703766D01*
X128422441Y-79625125D01*
X128422438Y-79625123D01*
X128257706Y-79571598D01*
X128257702Y-79571597D01*
X128086614Y-79544500D01*
X128086611Y-79544500D01*
X126913389Y-79544500D01*
X126913386Y-79544500D01*
X126742297Y-79571597D01*
X126742293Y-79571598D01*
X126577561Y-79625123D01*
X126577558Y-79625125D01*
X126423214Y-79703766D01*
X126283073Y-79805585D01*
X126160585Y-79928073D01*
X126059593Y-80067077D01*
X126010092Y-80103041D01*
X125948907Y-80103041D01*
X125899407Y-80067077D01*
X125880500Y-80008886D01*
X125880500Y-78741113D01*
X125899407Y-78682922D01*
X125948907Y-78646958D01*
X126010093Y-78646958D01*
X126059590Y-78682920D01*
X126160586Y-78821928D01*
X126283072Y-78944414D01*
X126423212Y-79046232D01*
X126577555Y-79124873D01*
X126577557Y-79124873D01*
X126577558Y-79124874D01*
X126577561Y-79124876D01*
X126742293Y-79178401D01*
X126742297Y-79178402D01*
X126913386Y-79205500D01*
X126913389Y-79205500D01*
X128086614Y-79205500D01*
X128257702Y-79178402D01*
X128257706Y-79178401D01*
X128422438Y-79124876D01*
X128422440Y-79124874D01*
X128422445Y-79124873D01*
X128576788Y-79046232D01*
X128716928Y-78944414D01*
X128839414Y-78821928D01*
X128941232Y-78681788D01*
X128978036Y-78609554D01*
X129021301Y-78566290D01*
X129066246Y-78555500D01*
X130582389Y-78555500D01*
X130640580Y-78574407D01*
G37*
%TD.AperFunction*%
%TA.AperFunction,Conductor*%
G36*
X131275580Y-76034407D02*
G01*
X131287393Y-76044496D01*
X132235504Y-76992607D01*
X132263281Y-77047124D01*
X132264500Y-77062611D01*
X132264500Y-78683389D01*
X132245593Y-78741580D01*
X132196093Y-78777544D01*
X132134907Y-78777544D01*
X132095496Y-78753393D01*
X131704804Y-78362701D01*
X131086614Y-77744511D01*
X131086611Y-77744509D01*
X131086610Y-77744508D01*
X131086609Y-77744507D01*
X130983890Y-77685202D01*
X130983886Y-77685200D01*
X130959673Y-77678712D01*
X130959673Y-77678713D01*
X130869309Y-77654500D01*
X130869307Y-77654500D01*
X129066246Y-77654500D01*
X129008055Y-77635593D01*
X128978036Y-77600445D01*
X128958978Y-77563041D01*
X128941232Y-77528212D01*
X128839414Y-77388072D01*
X128716928Y-77265586D01*
X128576788Y-77163768D01*
X128576787Y-77163767D01*
X128576785Y-77163766D01*
X128422441Y-77085125D01*
X128422438Y-77085123D01*
X128257706Y-77031598D01*
X128257702Y-77031597D01*
X128086614Y-77004500D01*
X128086611Y-77004500D01*
X126913389Y-77004500D01*
X126913386Y-77004500D01*
X126742297Y-77031597D01*
X126742293Y-77031598D01*
X126577561Y-77085123D01*
X126577558Y-77085125D01*
X126423214Y-77163766D01*
X126283073Y-77265585D01*
X126160585Y-77388073D01*
X126059593Y-77527077D01*
X126010092Y-77563041D01*
X125948907Y-77563041D01*
X125899407Y-77527077D01*
X125880500Y-77468886D01*
X125880500Y-76201113D01*
X125899407Y-76142922D01*
X125948907Y-76106958D01*
X126010093Y-76106958D01*
X126059590Y-76142920D01*
X126160586Y-76281928D01*
X126283072Y-76404414D01*
X126423212Y-76506232D01*
X126577555Y-76584873D01*
X126577557Y-76584873D01*
X126577558Y-76584874D01*
X126577561Y-76584876D01*
X126742293Y-76638401D01*
X126742297Y-76638402D01*
X126913386Y-76665500D01*
X126913389Y-76665500D01*
X128086614Y-76665500D01*
X128257702Y-76638402D01*
X128257706Y-76638401D01*
X128422438Y-76584876D01*
X128422440Y-76584874D01*
X128422445Y-76584873D01*
X128576788Y-76506232D01*
X128716928Y-76404414D01*
X128839414Y-76281928D01*
X128941232Y-76141788D01*
X128978036Y-76069554D01*
X129021301Y-76026290D01*
X129066246Y-76015500D01*
X131217389Y-76015500D01*
X131275580Y-76034407D01*
G37*
%TD.AperFunction*%
%TD*%
M02*
