G04 #@! TF.GenerationSoftware,KiCad,Pcbnew,9.0.5*
G04 #@! TF.CreationDate,2025-11-25T12:55:11+09:00*
G04 #@! TF.ProjectId,iidx_pcb,69696478-5f70-4636-922e-6b696361645f,rev?*
G04 #@! TF.SameCoordinates,Original*
G04 #@! TF.FileFunction,Copper,L1,Top*
G04 #@! TF.FilePolarity,Positive*
%FSLAX46Y46*%
G04 Gerber Fmt 4.6, Leading zero omitted, Abs format (unit mm)*
G04 Created by KiCad (PCBNEW 9.0.5) date 2025-11-25 12:55:11*
%MOMM*%
%LPD*%
G01*
G04 APERTURE LIST*
G04 #@! TA.AperFunction,ComponentPad*
%ADD10C,1.400000*%
G04 #@! TD*
G04 #@! TA.AperFunction,ComponentPad*
%ADD11O,1.400000X1.400000*%
G04 #@! TD*
G04 #@! TA.AperFunction,ComponentPad*
%ADD12O,1.500000X2.500000*%
G04 #@! TD*
G04 #@! TA.AperFunction,ComponentPad*
%ADD13O,2.500000X1.500000*%
G04 #@! TD*
G04 #@! TA.AperFunction,ComponentPad*
%ADD14C,5.600000*%
G04 #@! TD*
G04 #@! TA.AperFunction,ComponentPad*
%ADD15R,1.700000X1.700000*%
G04 #@! TD*
G04 #@! TA.AperFunction,ComponentPad*
%ADD16O,1.700000X1.700000*%
G04 #@! TD*
G04 #@! TA.AperFunction,ComponentPad*
%ADD17R,1.350000X1.350000*%
G04 #@! TD*
G04 #@! TA.AperFunction,ComponentPad*
%ADD18O,1.350000X1.350000*%
G04 #@! TD*
G04 #@! TA.AperFunction,ComponentPad*
%ADD19C,1.700000*%
G04 #@! TD*
G04 #@! TA.AperFunction,ViaPad*
%ADD20C,0.600000*%
G04 #@! TD*
G04 #@! TA.AperFunction,Conductor*
%ADD21C,0.200000*%
G04 #@! TD*
G04 #@! TA.AperFunction,Conductor*
%ADD22C,0.300000*%
G04 #@! TD*
G04 APERTURE END LIST*
D10*
X55880000Y-121920000D03*
D11*
X60960000Y-121920000D03*
D12*
X110490000Y-137660000D03*
X107950000Y-137660000D03*
X105410000Y-137660000D03*
X102870000Y-137660000D03*
X100330000Y-137660000D03*
X97790000Y-137660000D03*
X95250000Y-137660000D03*
X92710000Y-137660000D03*
X90170000Y-137660000D03*
D13*
X89670000Y-134620000D03*
X89670000Y-132080000D03*
X89670000Y-129540000D03*
X89670000Y-127000000D03*
X89670000Y-124460000D03*
D12*
X90170000Y-121420000D03*
X92710000Y-121420000D03*
X95250000Y-121420000D03*
X97790000Y-121420000D03*
X100330000Y-121420000D03*
X102870000Y-121420000D03*
X105410000Y-121420000D03*
X107950000Y-121420000D03*
X110490000Y-121420000D03*
D14*
X50800000Y-147320000D03*
D10*
X55880000Y-137160000D03*
D11*
X60960000Y-137160000D03*
D15*
X110490000Y-100330000D03*
D16*
X110490000Y-102870000D03*
X110490000Y-105410000D03*
X110490000Y-107950000D03*
X110490000Y-110490000D03*
X110490000Y-113030000D03*
X110490000Y-115570000D03*
D17*
X50800000Y-102680000D03*
D18*
X50800000Y-104680000D03*
X50800000Y-106680000D03*
X50800000Y-108680000D03*
X50800000Y-110680000D03*
D17*
X50800000Y-117000000D03*
D18*
X50800000Y-119000000D03*
X50800000Y-121000000D03*
X50800000Y-123000000D03*
X50800000Y-125000000D03*
X50800000Y-127000000D03*
X50800000Y-129000000D03*
X50800000Y-131000000D03*
X50800000Y-133000000D03*
X50800000Y-135000000D03*
X50800000Y-137000000D03*
X50800000Y-139000000D03*
D15*
X106045000Y-115570000D03*
D19*
X106045000Y-118110000D03*
D10*
X55245000Y-102235000D03*
D11*
X55245000Y-107315000D03*
D10*
X55880000Y-127000000D03*
D11*
X60960000Y-127000000D03*
D10*
X55880000Y-129540000D03*
D11*
X60960000Y-129540000D03*
D10*
X55880000Y-119380000D03*
D11*
X60960000Y-119380000D03*
D10*
X59055000Y-102235000D03*
D11*
X59055000Y-107315000D03*
D10*
X55880000Y-116840000D03*
D11*
X60960000Y-116840000D03*
D10*
X55880000Y-124460000D03*
D11*
X60960000Y-124460000D03*
D14*
X110800000Y-147320000D03*
D20*
X82550000Y-114300000D03*
X106680000Y-106680000D03*
X76200000Y-120650000D03*
X76200000Y-114300000D03*
X106680000Y-109220000D03*
X109220000Y-117475000D03*
X106680000Y-111760000D03*
X76200000Y-133350000D03*
X82550000Y-133350000D03*
X113030000Y-121285000D03*
X106680000Y-104140000D03*
X94488000Y-104648000D03*
X102108000Y-112268000D03*
X82550000Y-127000000D03*
X101600000Y-116840000D03*
X88900000Y-114300000D03*
X76200000Y-127000000D03*
X112395000Y-117475000D03*
X97028000Y-107188000D03*
X82550000Y-120650000D03*
X93980000Y-116840000D03*
X107950000Y-119380000D03*
X99060000Y-116840000D03*
X104140000Y-119380000D03*
X99568000Y-109728000D03*
X112395000Y-114300000D03*
X96520000Y-116840000D03*
X108585000Y-114300000D03*
D21*
X57150000Y-105410000D02*
X53340000Y-105410000D01*
X85725000Y-127635000D02*
X85725000Y-136525000D01*
X69215000Y-136525000D02*
X69215000Y-113665000D01*
X86360000Y-127000000D02*
X85725000Y-127635000D01*
X90170000Y-127000000D02*
X86360000Y-127000000D01*
X85725000Y-136525000D02*
X85090000Y-137160000D01*
X57785000Y-106045000D02*
X57150000Y-105410000D01*
X57785000Y-112395000D02*
X57785000Y-106045000D01*
X69850000Y-137160000D02*
X69215000Y-136525000D01*
X58420000Y-113030000D02*
X57785000Y-112395000D01*
X52705000Y-104775000D02*
X52705000Y-103505000D01*
X53340000Y-105410000D02*
X52705000Y-104775000D01*
X52705000Y-103505000D02*
X51880000Y-102680000D01*
X69215000Y-113665000D02*
X68580000Y-113030000D01*
X68580000Y-113030000D02*
X58420000Y-113030000D01*
X85090000Y-137160000D02*
X69850000Y-137160000D01*
X51880000Y-102680000D02*
X50800000Y-102680000D01*
X86360000Y-137160000D02*
X85725000Y-137795000D01*
X86360000Y-130175000D02*
X86360000Y-137160000D01*
X68580000Y-137160000D02*
X68580000Y-116205000D01*
X56515000Y-106045000D02*
X53340000Y-106045000D01*
X57785000Y-115570000D02*
X57150000Y-114935000D01*
X85725000Y-137795000D02*
X69215000Y-137795000D01*
X86995000Y-129540000D02*
X86360000Y-130175000D01*
X68580000Y-116205000D02*
X67945000Y-115570000D01*
X52705000Y-107950000D02*
X51975000Y-108680000D01*
X52705000Y-106680000D02*
X52705000Y-107950000D01*
X67945000Y-115570000D02*
X57785000Y-115570000D01*
X57150000Y-106680000D02*
X56515000Y-106045000D01*
X51975000Y-108680000D02*
X50800000Y-108680000D01*
X90170000Y-129540000D02*
X86995000Y-129540000D01*
X69215000Y-137795000D02*
X68580000Y-137160000D01*
X57150000Y-114935000D02*
X57150000Y-106680000D01*
X53340000Y-106045000D02*
X52705000Y-106680000D01*
X51815000Y-119000000D02*
X53975000Y-116840000D01*
X57150000Y-116840000D02*
X58420000Y-118110000D01*
X58420000Y-118110000D02*
X67310000Y-118110000D01*
X86995000Y-137795000D02*
X86995000Y-132715000D01*
X86995000Y-132715000D02*
X87630000Y-132080000D01*
X87630000Y-132080000D02*
X90170000Y-132080000D01*
X53975000Y-116840000D02*
X57150000Y-116840000D01*
X50800000Y-119000000D02*
X51815000Y-119000000D01*
X67945000Y-118745000D02*
X67945000Y-137795000D01*
X67310000Y-118110000D02*
X67945000Y-118745000D01*
X68580000Y-138430000D02*
X86360000Y-138430000D01*
X86360000Y-138430000D02*
X86995000Y-137795000D01*
X67945000Y-137795000D02*
X68580000Y-138430000D01*
X58420000Y-120650000D02*
X66675000Y-120650000D01*
X67310000Y-121285000D02*
X67310000Y-138430000D01*
X67310000Y-138430000D02*
X67945000Y-139065000D01*
X86995000Y-139065000D02*
X87630000Y-138430000D01*
X53975000Y-119380000D02*
X57150000Y-119380000D01*
X88265000Y-134620000D02*
X90170000Y-134620000D01*
X52355000Y-121000000D02*
X53975000Y-119380000D01*
X50800000Y-121000000D02*
X52355000Y-121000000D01*
X67945000Y-139065000D02*
X86995000Y-139065000D01*
X87630000Y-138430000D02*
X87630000Y-135255000D01*
X57150000Y-119380000D02*
X58420000Y-120650000D01*
X66675000Y-120650000D02*
X67310000Y-121285000D01*
X87630000Y-135255000D02*
X88265000Y-134620000D01*
X53975000Y-121920000D02*
X57150000Y-121920000D01*
X67310000Y-139700000D02*
X89535000Y-139700000D01*
X66675000Y-123825000D02*
X66675000Y-139065000D01*
X89535000Y-139700000D02*
X90170000Y-139065000D01*
X90170000Y-139065000D02*
X90170000Y-137160000D01*
X58420000Y-123190000D02*
X66040000Y-123190000D01*
X50800000Y-123000000D02*
X52895000Y-123000000D01*
X66040000Y-123190000D02*
X66675000Y-123825000D01*
X52895000Y-123000000D02*
X53975000Y-121920000D01*
X57150000Y-121920000D02*
X58420000Y-123190000D01*
X66675000Y-139065000D02*
X67310000Y-139700000D01*
X53435000Y-125000000D02*
X53975000Y-124460000D01*
X92710000Y-137160000D02*
X92710000Y-139700000D01*
X92075000Y-140335000D02*
X66675000Y-140335000D01*
X57150000Y-124460000D02*
X58420000Y-125730000D01*
X53975000Y-124460000D02*
X57150000Y-124460000D01*
X66040000Y-139700000D02*
X66040000Y-126365000D01*
X92710000Y-139700000D02*
X92075000Y-140335000D01*
X50800000Y-125000000D02*
X53435000Y-125000000D01*
X66675000Y-140335000D02*
X66040000Y-139700000D01*
X58420000Y-125730000D02*
X65405000Y-125730000D01*
X66040000Y-126365000D02*
X65405000Y-125730000D01*
X95250000Y-137160000D02*
X95250000Y-140335000D01*
X95250000Y-140335000D02*
X94615000Y-140970000D01*
X50800000Y-127000000D02*
X57150000Y-127000000D01*
X94615000Y-140970000D02*
X66040000Y-140970000D01*
X66040000Y-140970000D02*
X65405000Y-140335000D01*
X65405000Y-128905000D02*
X64770000Y-128270000D01*
X65405000Y-140335000D02*
X65405000Y-128905000D01*
X58420000Y-128270000D02*
X64770000Y-128270000D01*
X57150000Y-127000000D02*
X58420000Y-128270000D01*
X50800000Y-129000000D02*
X53435000Y-129000000D01*
X65405000Y-141605000D02*
X97155000Y-141605000D01*
X97155000Y-141605000D02*
X97790000Y-140970000D01*
X64770000Y-140970000D02*
X65405000Y-141605000D01*
X97790000Y-140970000D02*
X97790000Y-137160000D01*
X53975000Y-129540000D02*
X57150000Y-129540000D01*
X58420000Y-130810000D02*
X64135000Y-130810000D01*
X64135000Y-130810000D02*
X64770000Y-131445000D01*
X64770000Y-131445000D02*
X64770000Y-140970000D01*
X57150000Y-129540000D02*
X58420000Y-130810000D01*
X53435000Y-129000000D02*
X53975000Y-129540000D01*
X52895000Y-131000000D02*
X53975000Y-132080000D01*
X53975000Y-132080000D02*
X57150000Y-132080000D01*
X100330000Y-137160000D02*
X100330000Y-141605000D01*
X58420000Y-133350000D02*
X63500000Y-133350000D01*
X64135000Y-133985000D02*
X63500000Y-133350000D01*
X100330000Y-141605000D02*
X99695000Y-142240000D01*
X64770000Y-142240000D02*
X64135000Y-141605000D01*
X50800000Y-131000000D02*
X52895000Y-131000000D01*
X64135000Y-141605000D02*
X64135000Y-133985000D01*
X99695000Y-142240000D02*
X64770000Y-142240000D01*
X57150000Y-132080000D02*
X58420000Y-133350000D01*
X102870000Y-142240000D02*
X102235000Y-142875000D01*
X50800000Y-133000000D02*
X52355000Y-133000000D01*
X58420000Y-135890000D02*
X62865000Y-135890000D01*
X102235000Y-142875000D02*
X64135000Y-142875000D01*
X52355000Y-133000000D02*
X53975000Y-134620000D01*
X102870000Y-137160000D02*
X102870000Y-142240000D01*
X57150000Y-134620000D02*
X58420000Y-135890000D01*
X63500000Y-136525000D02*
X62865000Y-135890000D01*
X63500000Y-142240000D02*
X63500000Y-136525000D01*
X53975000Y-134620000D02*
X57150000Y-134620000D01*
X64135000Y-142875000D02*
X63500000Y-142240000D01*
X62865000Y-142875000D02*
X63500000Y-143510000D01*
X57150000Y-137160000D02*
X53975000Y-137160000D01*
X62865000Y-139065000D02*
X62865000Y-142875000D01*
X105410000Y-142875000D02*
X105410000Y-137160000D01*
X53975000Y-137160000D02*
X51815000Y-135000000D01*
X51815000Y-135000000D02*
X50800000Y-135000000D01*
X104775000Y-143510000D02*
X105410000Y-142875000D01*
X57150000Y-137160000D02*
X58420000Y-138430000D01*
X62230000Y-138430000D02*
X62865000Y-139065000D01*
X58420000Y-138430000D02*
X62230000Y-138430000D01*
X63500000Y-143510000D02*
X104775000Y-143510000D01*
D22*
X104775000Y-118110000D02*
X106045000Y-118110000D01*
X106045000Y-118745000D02*
X106045000Y-118110000D01*
X104140000Y-100965000D02*
X104140000Y-117475000D01*
X59055000Y-101637500D02*
X59055000Y-100965000D01*
X59055000Y-102235000D02*
X55245000Y-102235000D01*
X105410000Y-121920000D02*
X105410000Y-119380000D01*
X59055000Y-100965000D02*
X59690000Y-100330000D01*
X104140000Y-117475000D02*
X104775000Y-118110000D01*
X103505000Y-100330000D02*
X104140000Y-100965000D01*
X105410000Y-119380000D02*
X106045000Y-118745000D01*
X59690000Y-100330000D02*
X103505000Y-100330000D01*
D21*
X107250000Y-115500000D02*
X107950000Y-116200000D01*
X105750000Y-115500000D02*
X107250000Y-115500000D01*
X108585000Y-118745000D02*
X113030000Y-118745000D01*
X113030000Y-118745000D02*
X113665000Y-118110000D01*
X107950000Y-118110000D02*
X108585000Y-118745000D01*
X113665000Y-100965000D02*
X113030000Y-100330000D01*
X107950000Y-116200000D02*
X107950000Y-118110000D01*
X113030000Y-100330000D02*
X110941000Y-100330000D01*
X113665000Y-118110000D02*
X113665000Y-100965000D01*
G04 #@! TA.AperFunction,Conductor*
G36*
X113671061Y-96386097D02*
G01*
X113802973Y-96399089D01*
X113826801Y-96403828D01*
X113947793Y-96440531D01*
X113970245Y-96449832D01*
X114025993Y-96479629D01*
X114081738Y-96509426D01*
X114101949Y-96522930D01*
X114199677Y-96603132D01*
X114216867Y-96620322D01*
X114297069Y-96718050D01*
X114310573Y-96738261D01*
X114370166Y-96849751D01*
X114379469Y-96872209D01*
X114416169Y-96993192D01*
X114420911Y-97017032D01*
X114433903Y-97148937D01*
X114434500Y-97161092D01*
X114434500Y-100618038D01*
X114433639Y-100620967D01*
X114434360Y-100623936D01*
X114423858Y-100654279D01*
X114414815Y-100685077D01*
X114412507Y-100687076D01*
X114411508Y-100689964D01*
X114386262Y-100709818D01*
X114362011Y-100730832D01*
X114358989Y-100731266D01*
X114356588Y-100733155D01*
X114324621Y-100736208D01*
X114292853Y-100740776D01*
X114290075Y-100739507D01*
X114287035Y-100739798D01*
X114258503Y-100725089D01*
X114229297Y-100711751D01*
X114226826Y-100708758D01*
X114224932Y-100707782D01*
X114203114Y-100680040D01*
X114192304Y-100661317D01*
X114187550Y-100653083D01*
X114151922Y-100591373D01*
X113403627Y-99843078D01*
X113264873Y-99762968D01*
X113187491Y-99742234D01*
X113187490Y-99742233D01*
X113130844Y-99727055D01*
X113110111Y-99721500D01*
X113110110Y-99721500D01*
X111972500Y-99721500D01*
X111905461Y-99701815D01*
X111859706Y-99649011D01*
X111848500Y-99597500D01*
X111848500Y-99431362D01*
X111848499Y-99431345D01*
X111845157Y-99400270D01*
X111841989Y-99370799D01*
X111790889Y-99233796D01*
X111703261Y-99116739D01*
X111586204Y-99029111D01*
X111449203Y-98978011D01*
X111388654Y-98971500D01*
X111388638Y-98971500D01*
X109591362Y-98971500D01*
X109591345Y-98971500D01*
X109530797Y-98978011D01*
X109530795Y-98978011D01*
X109393795Y-99029111D01*
X109276739Y-99116739D01*
X109189111Y-99233795D01*
X109138011Y-99370795D01*
X109138011Y-99370797D01*
X109131500Y-99431345D01*
X109131500Y-101228654D01*
X109138011Y-101289202D01*
X109138011Y-101289204D01*
X109189111Y-101426204D01*
X109276739Y-101543261D01*
X109393796Y-101630889D01*
X109514626Y-101675956D01*
X109570557Y-101717827D01*
X109594974Y-101783291D01*
X109580122Y-101851564D01*
X109558972Y-101879818D01*
X109453793Y-101984997D01*
X109328106Y-102157990D01*
X109231027Y-102348516D01*
X109231026Y-102348519D01*
X109164951Y-102551882D01*
X109131500Y-102763084D01*
X109131500Y-102976915D01*
X109164951Y-103188117D01*
X109231026Y-103391480D01*
X109231027Y-103391483D01*
X109268080Y-103464202D01*
X109328106Y-103582009D01*
X109453794Y-103755004D01*
X109604996Y-103906206D01*
X109777991Y-104031894D01*
X109781873Y-104034273D01*
X109828748Y-104086086D01*
X109840169Y-104155016D01*
X109812512Y-104219178D01*
X109781873Y-104245727D01*
X109777991Y-104248105D01*
X109604993Y-104373796D01*
X109453796Y-104524993D01*
X109328106Y-104697990D01*
X109231027Y-104888516D01*
X109231026Y-104888519D01*
X109164951Y-105091882D01*
X109131500Y-105303084D01*
X109131500Y-105516915D01*
X109164951Y-105728117D01*
X109231026Y-105931480D01*
X109231027Y-105931483D01*
X109298631Y-106064162D01*
X109328106Y-106122009D01*
X109453794Y-106295004D01*
X109604996Y-106446206D01*
X109714281Y-106525606D01*
X109777991Y-106571894D01*
X109781873Y-106574273D01*
X109828748Y-106626086D01*
X109840169Y-106695016D01*
X109812512Y-106759178D01*
X109781873Y-106785727D01*
X109777991Y-106788105D01*
X109604993Y-106913796D01*
X109453796Y-107064993D01*
X109328106Y-107237990D01*
X109231027Y-107428516D01*
X109231026Y-107428519D01*
X109164951Y-107631882D01*
X109131500Y-107843084D01*
X109131500Y-108056915D01*
X109164951Y-108268117D01*
X109231026Y-108471480D01*
X109231027Y-108471483D01*
X109328106Y-108662009D01*
X109453794Y-108835004D01*
X109604996Y-108986206D01*
X109777991Y-109111894D01*
X109781873Y-109114273D01*
X109828748Y-109166086D01*
X109840169Y-109235016D01*
X109812512Y-109299178D01*
X109781873Y-109325727D01*
X109777991Y-109328105D01*
X109604993Y-109453796D01*
X109453796Y-109604993D01*
X109328106Y-109777990D01*
X109231027Y-109968516D01*
X109231026Y-109968519D01*
X109164951Y-110171882D01*
X109131500Y-110383084D01*
X109131500Y-110596915D01*
X109164951Y-110808117D01*
X109231026Y-111011480D01*
X109231027Y-111011483D01*
X109328106Y-111202009D01*
X109453794Y-111375004D01*
X109604996Y-111526206D01*
X109777991Y-111651894D01*
X109781873Y-111654273D01*
X109828748Y-111706086D01*
X109840169Y-111775016D01*
X109812512Y-111839178D01*
X109781873Y-111865727D01*
X109777991Y-111868105D01*
X109604993Y-111993796D01*
X109453796Y-112144993D01*
X109328106Y-112317990D01*
X109231027Y-112508516D01*
X109231026Y-112508519D01*
X109164951Y-112711882D01*
X109131500Y-112923084D01*
X109131500Y-113136915D01*
X109164951Y-113348117D01*
X109231026Y-113551480D01*
X109231027Y-113551482D01*
X109231028Y-113551483D01*
X109328106Y-113742009D01*
X109453794Y-113915004D01*
X109604996Y-114066206D01*
X109715613Y-114146574D01*
X109777992Y-114191895D01*
X109782683Y-114194285D01*
X109833480Y-114242259D01*
X109850275Y-114310080D01*
X109827738Y-114376215D01*
X109786212Y-114412202D01*
X109786598Y-114412832D01*
X109782803Y-114415157D01*
X109782701Y-114415246D01*
X109782448Y-114415374D01*
X109782446Y-114415376D01*
X109610540Y-114540272D01*
X109610535Y-114540276D01*
X109460276Y-114690535D01*
X109460272Y-114690540D01*
X109335379Y-114862442D01*
X109238904Y-115051782D01*
X109173242Y-115253870D01*
X109173242Y-115253873D01*
X109162769Y-115320000D01*
X110056988Y-115320000D01*
X110024075Y-115377007D01*
X109990000Y-115504174D01*
X109990000Y-115635826D01*
X110024075Y-115762993D01*
X110056988Y-115820000D01*
X109162769Y-115820000D01*
X109173242Y-115886126D01*
X109173242Y-115886129D01*
X109238904Y-116088217D01*
X109335379Y-116277557D01*
X109460272Y-116449459D01*
X109460276Y-116449464D01*
X109610535Y-116599723D01*
X109610540Y-116599727D01*
X109782442Y-116724620D01*
X109971782Y-116821095D01*
X110173871Y-116886757D01*
X110240000Y-116897231D01*
X110240000Y-116003012D01*
X110297007Y-116035925D01*
X110424174Y-116070000D01*
X110555826Y-116070000D01*
X110682993Y-116035925D01*
X110740000Y-116003012D01*
X110740000Y-116897230D01*
X110806126Y-116886757D01*
X110806129Y-116886757D01*
X111008217Y-116821095D01*
X111197557Y-116724620D01*
X111369459Y-116599727D01*
X111369464Y-116599723D01*
X111519723Y-116449464D01*
X111519727Y-116449459D01*
X111644620Y-116277557D01*
X111741095Y-116088217D01*
X111806757Y-115886129D01*
X111806757Y-115886126D01*
X111817231Y-115820000D01*
X110923012Y-115820000D01*
X110955925Y-115762993D01*
X110990000Y-115635826D01*
X110990000Y-115504174D01*
X110955925Y-115377007D01*
X110923012Y-115320000D01*
X111817231Y-115320000D01*
X111806757Y-115253873D01*
X111806757Y-115253870D01*
X111741095Y-115051782D01*
X111644620Y-114862442D01*
X111519727Y-114690540D01*
X111519723Y-114690535D01*
X111369464Y-114540276D01*
X111369459Y-114540272D01*
X111197553Y-114415376D01*
X111197554Y-114415376D01*
X111197308Y-114415251D01*
X111197231Y-114415178D01*
X111193402Y-114412832D01*
X111193895Y-114412027D01*
X111146515Y-114367274D01*
X111129724Y-114299451D01*
X111152266Y-114233318D01*
X111197319Y-114194283D01*
X111202009Y-114191894D01*
X111375004Y-114066206D01*
X111526206Y-113915004D01*
X111651894Y-113742009D01*
X111748972Y-113551483D01*
X111748973Y-113551482D01*
X111748973Y-113551480D01*
X111788402Y-113430127D01*
X111815049Y-113348116D01*
X111848500Y-113136916D01*
X111848500Y-112923084D01*
X111815049Y-112711884D01*
X111760202Y-112543080D01*
X111748973Y-112508519D01*
X111748972Y-112508516D01*
X111699507Y-112411438D01*
X111651894Y-112317991D01*
X111526206Y-112144996D01*
X111375004Y-111993794D01*
X111202009Y-111868106D01*
X111202005Y-111868103D01*
X111198132Y-111865730D01*
X111151254Y-111813920D01*
X111139829Y-111744991D01*
X111167483Y-111680827D01*
X111198132Y-111654270D01*
X111202005Y-111651896D01*
X111202004Y-111651896D01*
X111202009Y-111651894D01*
X111375004Y-111526206D01*
X111526206Y-111375004D01*
X111651894Y-111202009D01*
X111748972Y-111011483D01*
X111815049Y-110808116D01*
X111848500Y-110596916D01*
X111848500Y-110383084D01*
X111815049Y-110171884D01*
X111748972Y-109968517D01*
X111748972Y-109968516D01*
X111651893Y-109777990D01*
X111651379Y-109777282D01*
X111526206Y-109604996D01*
X111375004Y-109453794D01*
X111202009Y-109328106D01*
X111202005Y-109328103D01*
X111198132Y-109325730D01*
X111151254Y-109273920D01*
X111139829Y-109204991D01*
X111167483Y-109140827D01*
X111198132Y-109114270D01*
X111202005Y-109111896D01*
X111202004Y-109111896D01*
X111202009Y-109111894D01*
X111375004Y-108986206D01*
X111526206Y-108835004D01*
X111651894Y-108662009D01*
X111748972Y-108471483D01*
X111815049Y-108268116D01*
X111848500Y-108056916D01*
X111848500Y-107843084D01*
X111815049Y-107631884D01*
X111748972Y-107428517D01*
X111748972Y-107428516D01*
X111699507Y-107331438D01*
X111651894Y-107237991D01*
X111526206Y-107064996D01*
X111375004Y-106913794D01*
X111202009Y-106788106D01*
X111202005Y-106788103D01*
X111198132Y-106785730D01*
X111151254Y-106733920D01*
X111139829Y-106664991D01*
X111167483Y-106600827D01*
X111198132Y-106574270D01*
X111202005Y-106571896D01*
X111202004Y-106571896D01*
X111202009Y-106571894D01*
X111375004Y-106446206D01*
X111526206Y-106295004D01*
X111651894Y-106122009D01*
X111748972Y-105931483D01*
X111815049Y-105728116D01*
X111848500Y-105516916D01*
X111848500Y-105303084D01*
X111815049Y-105091884D01*
X111776707Y-104973879D01*
X111748973Y-104888519D01*
X111748972Y-104888516D01*
X111699507Y-104791438D01*
X111651894Y-104697991D01*
X111526206Y-104524996D01*
X111375004Y-104373794D01*
X111202009Y-104248106D01*
X111202005Y-104248103D01*
X111198132Y-104245730D01*
X111151254Y-104193920D01*
X111139829Y-104124991D01*
X111167483Y-104060827D01*
X111198132Y-104034270D01*
X111202005Y-104031896D01*
X111202004Y-104031896D01*
X111202009Y-104031894D01*
X111375004Y-103906206D01*
X111526206Y-103755004D01*
X111651894Y-103582009D01*
X111748972Y-103391483D01*
X111815049Y-103188116D01*
X111848500Y-102976916D01*
X111848500Y-102763084D01*
X111815049Y-102551884D01*
X111748972Y-102348517D01*
X111748972Y-102348516D01*
X111699507Y-102251438D01*
X111651894Y-102157991D01*
X111526206Y-101984996D01*
X111421028Y-101879818D01*
X111387543Y-101818495D01*
X111392527Y-101748803D01*
X111434399Y-101692870D01*
X111465367Y-101675959D01*
X111586204Y-101630889D01*
X111703261Y-101543261D01*
X111790889Y-101426204D01*
X111841989Y-101289201D01*
X111847058Y-101242053D01*
X111848499Y-101228654D01*
X111848500Y-101228637D01*
X111848500Y-101062500D01*
X111868185Y-100995461D01*
X111920989Y-100949706D01*
X111972500Y-100938500D01*
X112726589Y-100938500D01*
X112793628Y-100958185D01*
X112814270Y-100974819D01*
X113020181Y-101180730D01*
X113053666Y-101242053D01*
X113056500Y-101268411D01*
X113056500Y-117806589D01*
X113036815Y-117873628D01*
X113020181Y-117894270D01*
X112814270Y-118100181D01*
X112752947Y-118133666D01*
X112726589Y-118136500D01*
X108888411Y-118136500D01*
X108821372Y-118116815D01*
X108800730Y-118100181D01*
X108594819Y-117894270D01*
X108561334Y-117832947D01*
X108558500Y-117806589D01*
X108558500Y-116119891D01*
X108558500Y-116119889D01*
X108517032Y-115965128D01*
X108515075Y-115961739D01*
X108447639Y-115844936D01*
X108447022Y-115843867D01*
X108436921Y-115826372D01*
X108323628Y-115713079D01*
X107623627Y-115013078D01*
X107484873Y-114932968D01*
X107480047Y-114930969D01*
X107425643Y-114887127D01*
X107403579Y-114820833D01*
X107403500Y-114816408D01*
X107403500Y-114671362D01*
X107403499Y-114671345D01*
X107399224Y-114631589D01*
X107396989Y-114610799D01*
X107345889Y-114473796D01*
X107258261Y-114356739D01*
X107141204Y-114269111D01*
X107124166Y-114262756D01*
X107004203Y-114218011D01*
X106943654Y-114211500D01*
X106943638Y-114211500D01*
X105146362Y-114211500D01*
X105146345Y-114211500D01*
X105085798Y-114218010D01*
X104965834Y-114262756D01*
X104896142Y-114267740D01*
X104834819Y-114234256D01*
X104801334Y-114172933D01*
X104798500Y-114146574D01*
X104798500Y-100900141D01*
X104792982Y-100872402D01*
X104781946Y-100816921D01*
X104773195Y-100772923D01*
X104732723Y-100675217D01*
X104723556Y-100653085D01*
X104723551Y-100653076D01*
X104651491Y-100545231D01*
X104651488Y-100545227D01*
X103924771Y-99818510D01*
X103816920Y-99746447D01*
X103816919Y-99746446D01*
X103816917Y-99746445D01*
X103816915Y-99746444D01*
X103816913Y-99746443D01*
X103697077Y-99696806D01*
X103697071Y-99696804D01*
X103569859Y-99671500D01*
X103569857Y-99671500D01*
X59625143Y-99671500D01*
X59625139Y-99671500D01*
X59604033Y-99675698D01*
X59604032Y-99675697D01*
X59497930Y-99696803D01*
X59497922Y-99696805D01*
X59378086Y-99746443D01*
X59378076Y-99746448D01*
X59270231Y-99818508D01*
X59270227Y-99818511D01*
X58543513Y-100545225D01*
X58543507Y-100545232D01*
X58490765Y-100624168D01*
X58490765Y-100624169D01*
X58471444Y-100653085D01*
X58421807Y-100772918D01*
X58421804Y-100772928D01*
X58396500Y-100900140D01*
X58396500Y-101156459D01*
X58376815Y-101223498D01*
X58345387Y-101256775D01*
X58267715Y-101313208D01*
X58267713Y-101313210D01*
X58267712Y-101313210D01*
X58133210Y-101447712D01*
X58133210Y-101447713D01*
X58133208Y-101447715D01*
X58097764Y-101496500D01*
X58076777Y-101525386D01*
X58021447Y-101568051D01*
X57976459Y-101576500D01*
X56323541Y-101576500D01*
X56256502Y-101556815D01*
X56223223Y-101525386D01*
X56166792Y-101447715D01*
X56032285Y-101313208D01*
X55878392Y-101201398D01*
X55837829Y-101180730D01*
X55708907Y-101115040D01*
X55527991Y-101056256D01*
X55340116Y-101026500D01*
X55340111Y-101026500D01*
X55149889Y-101026500D01*
X55149884Y-101026500D01*
X54962008Y-101056256D01*
X54781092Y-101115040D01*
X54611607Y-101201398D01*
X54574115Y-101228638D01*
X54457715Y-101313208D01*
X54457713Y-101313210D01*
X54457712Y-101313210D01*
X54323210Y-101447712D01*
X54323210Y-101447713D01*
X54323208Y-101447715D01*
X54287764Y-101496500D01*
X54211398Y-101601607D01*
X54125040Y-101771092D01*
X54066256Y-101952008D01*
X54036500Y-102139883D01*
X54036500Y-102330116D01*
X54066256Y-102517991D01*
X54125040Y-102698907D01*
X54211398Y-102868392D01*
X54323208Y-103022285D01*
X54457715Y-103156792D01*
X54611608Y-103268602D01*
X54691683Y-103309402D01*
X54781092Y-103354959D01*
X54781094Y-103354959D01*
X54781097Y-103354961D01*
X54878070Y-103386469D01*
X54962008Y-103413743D01*
X55149884Y-103443500D01*
X55149889Y-103443500D01*
X55340116Y-103443500D01*
X55527991Y-103413743D01*
X55708903Y-103354961D01*
X55878392Y-103268602D01*
X56032285Y-103156792D01*
X56166792Y-103022285D01*
X56223223Y-102944613D01*
X56278553Y-102901949D01*
X56323541Y-102893500D01*
X57976459Y-102893500D01*
X58043498Y-102913185D01*
X58076775Y-102944612D01*
X58133208Y-103022285D01*
X58267715Y-103156792D01*
X58421608Y-103268602D01*
X58501683Y-103309402D01*
X58591092Y-103354959D01*
X58591094Y-103354959D01*
X58591097Y-103354961D01*
X58688070Y-103386469D01*
X58772008Y-103413743D01*
X58959884Y-103443500D01*
X58959889Y-103443500D01*
X59150116Y-103443500D01*
X59337991Y-103413743D01*
X59518903Y-103354961D01*
X59688392Y-103268602D01*
X59842285Y-103156792D01*
X59976792Y-103022285D01*
X60088602Y-102868392D01*
X60174961Y-102698903D01*
X60233743Y-102517991D01*
X60263500Y-102330116D01*
X60263500Y-102139883D01*
X60233743Y-101952008D01*
X60201106Y-101851564D01*
X60174961Y-101771097D01*
X60174959Y-101771094D01*
X60174959Y-101771092D01*
X60088601Y-101601607D01*
X59976792Y-101447715D01*
X59842285Y-101313208D01*
X59841454Y-101312604D01*
X59841214Y-101312293D01*
X59838572Y-101310036D01*
X59839045Y-101309481D01*
X59830036Y-101297797D01*
X59815070Y-101286594D01*
X59809144Y-101270706D01*
X59798787Y-101257276D01*
X59797186Y-101238645D01*
X59790653Y-101221129D01*
X59794257Y-101204558D01*
X59792806Y-101187663D01*
X59801530Y-101171126D01*
X59805505Y-101152857D01*
X59824695Y-101127220D01*
X59825410Y-101125867D01*
X59826562Y-101124697D01*
X59926442Y-101024816D01*
X59987765Y-100991334D01*
X60014122Y-100988500D01*
X103180878Y-100988500D01*
X103247917Y-101008185D01*
X103268559Y-101024819D01*
X103445181Y-101201441D01*
X103478666Y-101262764D01*
X103481500Y-101289122D01*
X103481500Y-117410143D01*
X103481500Y-117539857D01*
X103481500Y-117539859D01*
X103481499Y-117539859D01*
X103506804Y-117667071D01*
X103506806Y-117667077D01*
X103556443Y-117786913D01*
X103556447Y-117786920D01*
X103628510Y-117894771D01*
X104355227Y-118621488D01*
X104355231Y-118621491D01*
X104463076Y-118693551D01*
X104463080Y-118693553D01*
X104463083Y-118693555D01*
X104582923Y-118743195D01*
X104689036Y-118764301D01*
X104710143Y-118768500D01*
X104710144Y-118768500D01*
X104784565Y-118768500D01*
X104788060Y-118768698D01*
X104817802Y-118779292D01*
X104848087Y-118788185D01*
X104851308Y-118791227D01*
X104853879Y-118792143D01*
X104858187Y-118797723D01*
X104881365Y-118819613D01*
X104888441Y-118829352D01*
X104893458Y-118843412D01*
X104896575Y-118847450D01*
X104897110Y-118853649D01*
X104911922Y-118895158D01*
X104896097Y-118963212D01*
X104891227Y-118971129D01*
X104839590Y-119048411D01*
X104833907Y-119056916D01*
X104826442Y-119068087D01*
X104776807Y-119187918D01*
X104776804Y-119187928D01*
X104751500Y-119315139D01*
X104751500Y-119779654D01*
X104731815Y-119846693D01*
X104700386Y-119879971D01*
X104590148Y-119960065D01*
X104590139Y-119960072D01*
X104450072Y-120100139D01*
X104450072Y-120100140D01*
X104450070Y-120100142D01*
X104404346Y-120163076D01*
X104333634Y-120260401D01*
X104250485Y-120423590D01*
X104202510Y-120474386D01*
X104134689Y-120491181D01*
X104068554Y-120468643D01*
X104029515Y-120423590D01*
X103946365Y-120260401D01*
X103935395Y-120245302D01*
X103829930Y-120100142D01*
X103689858Y-119960070D01*
X103529598Y-119843634D01*
X103528499Y-119843074D01*
X103353101Y-119753703D01*
X103164700Y-119692487D01*
X102969051Y-119661500D01*
X102969046Y-119661500D01*
X102770954Y-119661500D01*
X102770949Y-119661500D01*
X102575299Y-119692487D01*
X102386898Y-119753703D01*
X102210401Y-119843634D01*
X102123364Y-119906871D01*
X102050142Y-119960070D01*
X102050140Y-119960072D01*
X102050139Y-119960072D01*
X101910072Y-120100139D01*
X101910072Y-120100140D01*
X101910070Y-120100142D01*
X101864346Y-120163076D01*
X101793634Y-120260401D01*
X101710485Y-120423590D01*
X101662510Y-120474386D01*
X101594689Y-120491181D01*
X101528554Y-120468643D01*
X101489515Y-120423590D01*
X101406365Y-120260401D01*
X101395395Y-120245302D01*
X101289930Y-120100142D01*
X101149858Y-119960070D01*
X100989598Y-119843634D01*
X100988499Y-119843074D01*
X100813101Y-119753703D01*
X100624700Y-119692487D01*
X100429051Y-119661500D01*
X100429046Y-119661500D01*
X100230954Y-119661500D01*
X100230949Y-119661500D01*
X100035299Y-119692487D01*
X99846898Y-119753703D01*
X99670401Y-119843634D01*
X99583364Y-119906871D01*
X99510142Y-119960070D01*
X99510140Y-119960072D01*
X99510139Y-119960072D01*
X99370072Y-120100139D01*
X99370072Y-120100140D01*
X99370070Y-120100142D01*
X99324346Y-120163076D01*
X99253634Y-120260401D01*
X99170485Y-120423590D01*
X99122510Y-120474386D01*
X99054689Y-120491181D01*
X98988554Y-120468643D01*
X98949515Y-120423590D01*
X98866365Y-120260401D01*
X98855395Y-120245302D01*
X98749930Y-120100142D01*
X98609858Y-119960070D01*
X98449598Y-119843634D01*
X98448499Y-119843074D01*
X98273101Y-119753703D01*
X98084700Y-119692487D01*
X97889051Y-119661500D01*
X97889046Y-119661500D01*
X97690954Y-119661500D01*
X97690949Y-119661500D01*
X97495299Y-119692487D01*
X97306898Y-119753703D01*
X97130401Y-119843634D01*
X97043364Y-119906871D01*
X96970142Y-119960070D01*
X96970140Y-119960072D01*
X96970139Y-119960072D01*
X96830072Y-120100139D01*
X96830072Y-120100140D01*
X96830070Y-120100142D01*
X96784346Y-120163076D01*
X96713634Y-120260401D01*
X96630485Y-120423590D01*
X96582510Y-120474386D01*
X96514689Y-120491181D01*
X96448554Y-120468643D01*
X96409515Y-120423590D01*
X96326365Y-120260401D01*
X96315395Y-120245302D01*
X96209930Y-120100142D01*
X96069858Y-119960070D01*
X95909598Y-119843634D01*
X95908499Y-119843074D01*
X95733101Y-119753703D01*
X95544700Y-119692487D01*
X95349051Y-119661500D01*
X95349046Y-119661500D01*
X95150954Y-119661500D01*
X95150949Y-119661500D01*
X94955299Y-119692487D01*
X94766898Y-119753703D01*
X94590401Y-119843634D01*
X94503364Y-119906871D01*
X94430142Y-119960070D01*
X94430140Y-119960072D01*
X94430139Y-119960072D01*
X94290072Y-120100139D01*
X94290072Y-120100140D01*
X94290070Y-120100142D01*
X94244346Y-120163076D01*
X94173634Y-120260401D01*
X94090485Y-120423590D01*
X94042510Y-120474386D01*
X93974689Y-120491181D01*
X93908554Y-120468643D01*
X93869515Y-120423590D01*
X93786365Y-120260401D01*
X93775395Y-120245302D01*
X93669930Y-120100142D01*
X93529858Y-119960070D01*
X93369598Y-119843634D01*
X93368499Y-119843074D01*
X93193101Y-119753703D01*
X93004700Y-119692487D01*
X92809051Y-119661500D01*
X92809046Y-119661500D01*
X92610954Y-119661500D01*
X92610949Y-119661500D01*
X92415299Y-119692487D01*
X92226898Y-119753703D01*
X92050401Y-119843634D01*
X91963364Y-119906871D01*
X91890142Y-119960070D01*
X91890140Y-119960072D01*
X91890139Y-119960072D01*
X91750072Y-120100139D01*
X91750072Y-120100140D01*
X91750070Y-120100142D01*
X91704346Y-120163076D01*
X91633634Y-120260401D01*
X91550485Y-120423590D01*
X91502510Y-120474386D01*
X91434689Y-120491181D01*
X91368554Y-120468643D01*
X91329515Y-120423590D01*
X91246365Y-120260401D01*
X91235395Y-120245302D01*
X91129930Y-120100142D01*
X90989858Y-119960070D01*
X90829598Y-119843634D01*
X90828499Y-119843074D01*
X90653101Y-119753703D01*
X90464700Y-119692487D01*
X90269051Y-119661500D01*
X90269046Y-119661500D01*
X90070954Y-119661500D01*
X90070949Y-119661500D01*
X89875299Y-119692487D01*
X89686898Y-119753703D01*
X89510401Y-119843634D01*
X89423364Y-119906871D01*
X89350142Y-119960070D01*
X89350140Y-119960072D01*
X89350139Y-119960072D01*
X89210072Y-120100139D01*
X89210072Y-120100140D01*
X89210070Y-120100142D01*
X89164346Y-120163076D01*
X89093634Y-120260401D01*
X89003703Y-120436898D01*
X88942487Y-120625299D01*
X88911500Y-120820948D01*
X88911500Y-122019051D01*
X88942487Y-122214700D01*
X89003703Y-122403101D01*
X89076356Y-122545689D01*
X89093634Y-122579598D01*
X89210070Y-122739858D01*
X89350142Y-122879930D01*
X89476505Y-122971738D01*
X89483998Y-122977182D01*
X89526663Y-123032512D01*
X89532642Y-123102126D01*
X89500036Y-123163921D01*
X89439197Y-123198278D01*
X89411112Y-123201500D01*
X89070949Y-123201500D01*
X88875299Y-123232487D01*
X88686898Y-123293703D01*
X88510401Y-123383634D01*
X88418967Y-123450065D01*
X88350142Y-123500070D01*
X88350140Y-123500072D01*
X88350139Y-123500072D01*
X88210072Y-123640139D01*
X88210072Y-123640140D01*
X88210070Y-123640142D01*
X88160065Y-123708967D01*
X88093634Y-123800401D01*
X88003703Y-123976898D01*
X87942487Y-124165299D01*
X87911500Y-124360948D01*
X87911500Y-124559051D01*
X87942487Y-124754700D01*
X88003703Y-124943101D01*
X88080281Y-125093392D01*
X88093634Y-125119598D01*
X88210070Y-125279858D01*
X88350142Y-125419930D01*
X88510402Y-125536366D01*
X88595958Y-125579959D01*
X88673590Y-125619515D01*
X88724386Y-125667490D01*
X88741181Y-125735311D01*
X88718643Y-125801446D01*
X88673590Y-125840485D01*
X88510401Y-125923634D01*
X88418967Y-125990065D01*
X88350142Y-126040070D01*
X88350140Y-126040072D01*
X88350139Y-126040072D01*
X88210072Y-126180139D01*
X88210072Y-126180140D01*
X88210070Y-126180142D01*
X88093646Y-126340386D01*
X88038316Y-126383051D01*
X87993328Y-126391500D01*
X86279889Y-126391500D01*
X86170296Y-126420865D01*
X86170295Y-126420864D01*
X86125132Y-126432966D01*
X86125125Y-126432969D01*
X85986376Y-126513075D01*
X85986371Y-126513079D01*
X85238080Y-127261370D01*
X85238076Y-127261376D01*
X85157967Y-127400126D01*
X85157968Y-127400126D01*
X85157968Y-127400127D01*
X85116500Y-127554889D01*
X85116500Y-136221589D01*
X85096815Y-136288628D01*
X85080181Y-136309270D01*
X84874270Y-136515181D01*
X84812947Y-136548666D01*
X84786589Y-136551500D01*
X70153411Y-136551500D01*
X70086372Y-136531815D01*
X70065730Y-136515181D01*
X69859819Y-136309270D01*
X69826334Y-136247947D01*
X69823500Y-136221589D01*
X69823500Y-113584891D01*
X69823500Y-113584889D01*
X69782032Y-113430128D01*
X69734682Y-113348116D01*
X69701922Y-113291373D01*
X68953627Y-112543078D01*
X68814873Y-112462968D01*
X68737491Y-112442234D01*
X68737490Y-112442233D01*
X68680844Y-112427055D01*
X68660111Y-112421500D01*
X68660110Y-112421500D01*
X58723411Y-112421500D01*
X58656372Y-112401815D01*
X58635730Y-112385181D01*
X58429819Y-112179270D01*
X58396334Y-112117947D01*
X58393500Y-112091589D01*
X58393500Y-108536630D01*
X58413185Y-108469591D01*
X58465989Y-108423836D01*
X58535147Y-108413892D01*
X58573796Y-108426146D01*
X58591090Y-108434958D01*
X58591093Y-108434958D01*
X58591097Y-108434961D01*
X58697677Y-108469591D01*
X58772008Y-108493743D01*
X58959884Y-108523500D01*
X58959889Y-108523500D01*
X59150116Y-108523500D01*
X59337991Y-108493743D01*
X59518903Y-108434961D01*
X59688392Y-108348602D01*
X59842285Y-108236792D01*
X59976792Y-108102285D01*
X60088602Y-107948392D01*
X60174961Y-107778903D01*
X60233743Y-107597991D01*
X60245202Y-107525641D01*
X60263500Y-107410116D01*
X60263500Y-107219883D01*
X60233743Y-107032008D01*
X60195333Y-106913796D01*
X60174961Y-106851097D01*
X60174959Y-106851094D01*
X60174959Y-106851092D01*
X60111215Y-106725989D01*
X60088602Y-106681608D01*
X59976792Y-106527715D01*
X59842285Y-106393208D01*
X59688392Y-106281398D01*
X59685648Y-106280000D01*
X59518907Y-106195040D01*
X59337991Y-106136256D01*
X59150116Y-106106500D01*
X59150111Y-106106500D01*
X58959889Y-106106500D01*
X58959884Y-106106500D01*
X58772008Y-106136256D01*
X58633094Y-106181393D01*
X58591097Y-106195039D01*
X58591094Y-106195040D01*
X58591089Y-106195042D01*
X58573792Y-106203855D01*
X58505123Y-106216750D01*
X58440383Y-106190472D01*
X58400127Y-106133364D01*
X58393500Y-106093369D01*
X58393500Y-105964891D01*
X58393500Y-105964889D01*
X58352032Y-105810128D01*
X58304682Y-105728116D01*
X58271922Y-105671373D01*
X57523627Y-104923078D01*
X57431124Y-104869671D01*
X57384875Y-104842969D01*
X57384874Y-104842968D01*
X57384873Y-104842968D01*
X57307491Y-104822234D01*
X57307490Y-104822233D01*
X57250844Y-104807055D01*
X57230111Y-104801500D01*
X57230110Y-104801500D01*
X53643411Y-104801500D01*
X53576372Y-104781815D01*
X53555730Y-104765181D01*
X53349819Y-104559270D01*
X53316334Y-104497947D01*
X53313500Y-104471589D01*
X53313500Y-103424891D01*
X53313500Y-103424889D01*
X53272032Y-103270128D01*
X53272032Y-103270127D01*
X53191921Y-103131372D01*
X52253627Y-102193078D01*
X52114873Y-102112968D01*
X52075404Y-102102392D01*
X52015745Y-102066027D01*
X51985217Y-102003180D01*
X51983500Y-101982618D01*
X51983500Y-101956362D01*
X51983499Y-101956345D01*
X51980157Y-101925270D01*
X51976989Y-101895799D01*
X51971028Y-101879818D01*
X51930475Y-101771092D01*
X51925889Y-101758796D01*
X51838261Y-101641739D01*
X51721204Y-101554111D01*
X51584203Y-101503011D01*
X51523654Y-101496500D01*
X51523638Y-101496500D01*
X50076362Y-101496500D01*
X50076345Y-101496500D01*
X50015797Y-101503011D01*
X50015795Y-101503011D01*
X49878795Y-101554111D01*
X49761739Y-101641739D01*
X49674111Y-101758795D01*
X49623011Y-101895795D01*
X49623011Y-101895797D01*
X49616500Y-101956345D01*
X49616500Y-103403654D01*
X49623011Y-103464202D01*
X49623011Y-103464204D01*
X49674111Y-103601204D01*
X49743538Y-103693948D01*
X49761740Y-103718262D01*
X49841430Y-103777917D01*
X49883302Y-103833851D01*
X49888286Y-103903542D01*
X49867439Y-103950068D01*
X49787780Y-104059710D01*
X49787779Y-104059712D01*
X49703208Y-104225689D01*
X49645640Y-104402862D01*
X49616500Y-104586850D01*
X49616500Y-104773149D01*
X49645640Y-104957137D01*
X49703208Y-105134310D01*
X49784783Y-105294407D01*
X49787780Y-105300289D01*
X49897276Y-105450999D01*
X50029001Y-105582724D01*
X50032038Y-105584930D01*
X50074707Y-105640255D01*
X50080692Y-105709868D01*
X50048092Y-105771666D01*
X50038051Y-105780370D01*
X50038244Y-105780596D01*
X50034536Y-105783762D01*
X49903758Y-105914540D01*
X49903754Y-105914545D01*
X49795052Y-106064162D01*
X49711084Y-106228956D01*
X49711082Y-106228962D01*
X49653932Y-106404855D01*
X49649950Y-106429999D01*
X49649950Y-106430000D01*
X50484314Y-106430000D01*
X50479920Y-106434394D01*
X50427259Y-106525606D01*
X50400000Y-106627339D01*
X50400000Y-106732661D01*
X50427259Y-106834394D01*
X50479920Y-106925606D01*
X50484314Y-106930000D01*
X49649950Y-106930000D01*
X49653932Y-106955144D01*
X49711082Y-107131037D01*
X49711084Y-107131043D01*
X49795052Y-107295837D01*
X49903754Y-107445454D01*
X49903758Y-107445459D01*
X50034540Y-107576241D01*
X50038252Y-107579412D01*
X50037011Y-107580863D01*
X50074718Y-107629780D01*
X50080684Y-107699394D01*
X50048066Y-107761183D01*
X50032051Y-107775058D01*
X50029012Y-107777266D01*
X50029002Y-107777274D01*
X49897278Y-107908998D01*
X49870698Y-107945583D01*
X49789812Y-108056915D01*
X49787778Y-108059714D01*
X49703208Y-108225689D01*
X49645640Y-108402862D01*
X49616500Y-108586850D01*
X49616500Y-108773149D01*
X49645640Y-108957137D01*
X49703208Y-109134310D01*
X49760644Y-109247032D01*
X49787780Y-109300289D01*
X49897276Y-109450999D01*
X49897278Y-109451001D01*
X50029000Y-109582723D01*
X50032507Y-109585719D01*
X50070693Y-109644231D01*
X50071183Y-109714099D01*
X50033823Y-109773140D01*
X50032507Y-109774281D01*
X50029000Y-109777276D01*
X49897278Y-109908998D01*
X49787778Y-110059714D01*
X49703208Y-110225689D01*
X49645640Y-110402862D01*
X49616500Y-110586850D01*
X49616500Y-110773149D01*
X49645640Y-110957137D01*
X49703208Y-111134310D01*
X49784783Y-111294407D01*
X49787780Y-111300289D01*
X49897276Y-111450999D01*
X50029001Y-111582724D01*
X50179711Y-111692220D01*
X50261232Y-111733757D01*
X50345689Y-111776791D01*
X50345691Y-111776791D01*
X50345694Y-111776793D01*
X50440659Y-111807649D01*
X50522862Y-111834359D01*
X50706851Y-111863500D01*
X50706856Y-111863500D01*
X50893149Y-111863500D01*
X51077137Y-111834359D01*
X51140041Y-111813920D01*
X51254306Y-111776793D01*
X51420289Y-111692220D01*
X51570999Y-111582724D01*
X51702724Y-111450999D01*
X51812220Y-111300289D01*
X51896793Y-111134306D01*
X51954359Y-110957137D01*
X51983500Y-110773149D01*
X51983500Y-110586850D01*
X51954359Y-110402862D01*
X51896791Y-110225689D01*
X51853757Y-110141232D01*
X51812220Y-110059711D01*
X51702724Y-109909001D01*
X51570999Y-109777276D01*
X51570992Y-109777271D01*
X51567504Y-109774292D01*
X51529310Y-109715786D01*
X51528810Y-109645918D01*
X51566162Y-109586871D01*
X51567504Y-109585708D01*
X51570984Y-109582734D01*
X51570999Y-109582724D01*
X51702724Y-109450999D01*
X51702727Y-109450995D01*
X51783649Y-109339615D01*
X51838979Y-109296949D01*
X51883967Y-109288500D01*
X52055109Y-109288500D01*
X52055110Y-109288500D01*
X52055111Y-109288500D01*
X52164703Y-109259135D01*
X52209873Y-109247032D01*
X52348627Y-109166922D01*
X53191922Y-108323627D01*
X53272032Y-108184873D01*
X53294542Y-108100865D01*
X53313500Y-108030111D01*
X53313500Y-106983411D01*
X53333185Y-106916372D01*
X53349819Y-106895730D01*
X53555730Y-106689819D01*
X53617053Y-106656334D01*
X53643411Y-106653500D01*
X54023370Y-106653500D01*
X54090409Y-106673185D01*
X54136164Y-106725989D01*
X54146108Y-106795147D01*
X54133854Y-106833796D01*
X54125041Y-106851090D01*
X54066256Y-107032008D01*
X54036500Y-107219883D01*
X54036500Y-107410116D01*
X54066256Y-107597991D01*
X54125040Y-107778907D01*
X54208716Y-107943128D01*
X54211398Y-107948392D01*
X54323208Y-108102285D01*
X54457715Y-108236792D01*
X54611608Y-108348602D01*
X54691683Y-108389402D01*
X54781092Y-108434959D01*
X54781094Y-108434959D01*
X54781097Y-108434961D01*
X54878070Y-108466469D01*
X54962008Y-108493743D01*
X55149884Y-108523500D01*
X55149889Y-108523500D01*
X55340116Y-108523500D01*
X55527991Y-108493743D01*
X55708903Y-108434961D01*
X55878392Y-108348602D01*
X56032285Y-108236792D01*
X56166792Y-108102285D01*
X56278602Y-107948392D01*
X56307015Y-107892627D01*
X56354990Y-107841832D01*
X56422810Y-107825037D01*
X56488945Y-107847574D01*
X56532397Y-107902289D01*
X56541500Y-107948923D01*
X56541500Y-115015109D01*
X56582968Y-115169874D01*
X56623023Y-115239250D01*
X56663078Y-115308627D01*
X56663080Y-115308629D01*
X57388967Y-116034516D01*
X57422452Y-116095839D01*
X57417468Y-116165531D01*
X57375596Y-116221464D01*
X57310132Y-116245881D01*
X57269193Y-116241972D01*
X57264502Y-116240715D01*
X57230111Y-116231500D01*
X57230110Y-116231500D01*
X56994868Y-116231500D01*
X56927829Y-116211815D01*
X56894551Y-116180387D01*
X56801792Y-116052715D01*
X56667285Y-115918208D01*
X56513392Y-115806398D01*
X56343907Y-115720040D01*
X56162991Y-115661256D01*
X55975116Y-115631500D01*
X55975111Y-115631500D01*
X55784889Y-115631500D01*
X55784884Y-115631500D01*
X55597008Y-115661256D01*
X55416092Y-115720040D01*
X55246607Y-115806398D01*
X55193565Y-115844936D01*
X55092715Y-115918208D01*
X55092713Y-115918210D01*
X55092712Y-115918210D01*
X54958210Y-116052712D01*
X54958208Y-116052715D01*
X54865448Y-116180386D01*
X54810120Y-116223051D01*
X54765132Y-116231500D01*
X53894889Y-116231500D01*
X53817508Y-116252233D01*
X53817508Y-116252234D01*
X53740127Y-116272968D01*
X53740125Y-116272968D01*
X53740125Y-116272969D01*
X53601372Y-116353079D01*
X53601369Y-116353081D01*
X52195181Y-117759269D01*
X52133858Y-117792754D01*
X52064166Y-117787770D01*
X52008233Y-117745898D01*
X51983816Y-117680434D01*
X51983500Y-117671588D01*
X51983500Y-116276362D01*
X51983499Y-116276345D01*
X51978677Y-116231500D01*
X51976989Y-116215799D01*
X51976623Y-116214819D01*
X51941216Y-116119889D01*
X51925889Y-116078796D01*
X51838261Y-115961739D01*
X51721204Y-115874111D01*
X51584203Y-115823011D01*
X51523654Y-115816500D01*
X51523638Y-115816500D01*
X50076362Y-115816500D01*
X50076345Y-115816500D01*
X50015797Y-115823011D01*
X50015795Y-115823011D01*
X49878795Y-115874111D01*
X49761739Y-115961739D01*
X49674111Y-116078795D01*
X49623011Y-116215795D01*
X49623011Y-116215797D01*
X49616500Y-116276345D01*
X49616500Y-117723654D01*
X49623011Y-117784202D01*
X49623011Y-117784204D01*
X49674111Y-117921204D01*
X49761740Y-118038262D01*
X49841430Y-118097917D01*
X49883302Y-118153851D01*
X49888286Y-118223542D01*
X49867439Y-118270068D01*
X49787780Y-118379710D01*
X49787779Y-118379712D01*
X49703208Y-118545689D01*
X49645640Y-118722862D01*
X49616500Y-118906850D01*
X49616500Y-119093149D01*
X49645640Y-119277137D01*
X49703208Y-119454310D01*
X49760644Y-119567032D01*
X49787780Y-119620289D01*
X49897276Y-119770999D01*
X49897278Y-119771001D01*
X50029000Y-119902723D01*
X50032507Y-119905719D01*
X50070693Y-119964231D01*
X50071183Y-120034099D01*
X50033823Y-120093140D01*
X50032507Y-120094281D01*
X50029000Y-120097276D01*
X49897278Y-120228998D01*
X49787778Y-120379714D01*
X49703208Y-120545689D01*
X49645640Y-120722862D01*
X49616500Y-120906850D01*
X49616500Y-121093149D01*
X49645640Y-121277137D01*
X49703208Y-121454310D01*
X49760644Y-121567032D01*
X49787780Y-121620289D01*
X49897276Y-121770999D01*
X49897278Y-121771001D01*
X50029000Y-121902723D01*
X50032507Y-121905719D01*
X50070693Y-121964231D01*
X50071183Y-122034099D01*
X50033823Y-122093140D01*
X50032507Y-122094281D01*
X50029000Y-122097276D01*
X49897278Y-122228998D01*
X49897276Y-122229001D01*
X49800654Y-122361992D01*
X49787778Y-122379714D01*
X49703208Y-122545689D01*
X49645640Y-122722862D01*
X49616500Y-122906850D01*
X49616500Y-123093149D01*
X49645640Y-123277137D01*
X49703208Y-123454310D01*
X49760644Y-123567032D01*
X49787780Y-123620289D01*
X49897276Y-123770999D01*
X49897278Y-123771001D01*
X50029000Y-123902723D01*
X50032507Y-123905719D01*
X50070693Y-123964231D01*
X50071183Y-124034099D01*
X50033823Y-124093140D01*
X50032507Y-124094281D01*
X50029000Y-124097276D01*
X49897278Y-124228998D01*
X49787778Y-124379714D01*
X49703208Y-124545689D01*
X49645640Y-124722862D01*
X49616500Y-124906850D01*
X49616500Y-125093149D01*
X49645640Y-125277137D01*
X49703208Y-125454310D01*
X49771209Y-125587767D01*
X49787780Y-125620289D01*
X49897276Y-125770999D01*
X49897278Y-125771001D01*
X50029000Y-125902723D01*
X50032507Y-125905719D01*
X50070693Y-125964231D01*
X50071183Y-126034099D01*
X50033823Y-126093140D01*
X50032507Y-126094281D01*
X50029000Y-126097276D01*
X49897278Y-126228998D01*
X49897276Y-126229001D01*
X49803420Y-126358185D01*
X49787778Y-126379714D01*
X49703208Y-126545689D01*
X49645640Y-126722862D01*
X49616500Y-126906850D01*
X49616500Y-127093149D01*
X49645640Y-127277137D01*
X49703208Y-127454310D01*
X49771843Y-127589011D01*
X49787780Y-127620289D01*
X49897276Y-127770999D01*
X49897278Y-127771001D01*
X50029000Y-127902723D01*
X50032507Y-127905719D01*
X50070693Y-127964231D01*
X50071183Y-128034099D01*
X50033823Y-128093140D01*
X50032507Y-128094281D01*
X50029000Y-128097276D01*
X49897278Y-128228998D01*
X49897276Y-128229001D01*
X49801188Y-128361257D01*
X49787778Y-128379714D01*
X49703208Y-128545689D01*
X49645640Y-128722862D01*
X49616500Y-128906850D01*
X49616500Y-129093149D01*
X49645640Y-129277137D01*
X49703208Y-129454310D01*
X49781773Y-129608500D01*
X49787780Y-129620289D01*
X49897276Y-129770999D01*
X49897278Y-129771001D01*
X50029000Y-129902723D01*
X50032507Y-129905719D01*
X50070693Y-129964231D01*
X50071183Y-130034099D01*
X50033823Y-130093140D01*
X50032507Y-130094281D01*
X50029000Y-130097276D01*
X49897278Y-130228998D01*
X49897276Y-130229001D01*
X49802203Y-130359860D01*
X49787778Y-130379714D01*
X49703208Y-130545689D01*
X49645640Y-130722862D01*
X49616500Y-130906850D01*
X49616500Y-131093149D01*
X49645640Y-131277137D01*
X49703208Y-131454310D01*
X49773914Y-131593075D01*
X49787780Y-131620289D01*
X49897276Y-131770999D01*
X49897278Y-131771001D01*
X50029000Y-131902723D01*
X50032507Y-131905719D01*
X50070693Y-131964231D01*
X50071183Y-132034099D01*
X50033823Y-132093140D01*
X50032507Y-132094281D01*
X50029000Y-132097276D01*
X49897278Y-132228998D01*
X49787778Y-132379714D01*
X49703208Y-132545689D01*
X49645640Y-132722862D01*
X49616500Y-132906850D01*
X49616500Y-133093149D01*
X49645640Y-133277137D01*
X49703208Y-133454310D01*
X49748722Y-133543634D01*
X49787780Y-133620289D01*
X49897276Y-133770999D01*
X49897278Y-133771001D01*
X50029000Y-133902723D01*
X50032507Y-133905719D01*
X50070693Y-133964231D01*
X50071183Y-134034099D01*
X50033823Y-134093140D01*
X50032507Y-134094281D01*
X50029000Y-134097276D01*
X49897278Y-134228998D01*
X49854113Y-134288411D01*
X49788861Y-134378224D01*
X49787778Y-134379714D01*
X49703208Y-134545689D01*
X49645640Y-134722862D01*
X49616500Y-134906850D01*
X49616500Y-135093149D01*
X49645640Y-135277137D01*
X49703208Y-135454310D01*
X49733789Y-135514327D01*
X49787780Y-135620289D01*
X49897276Y-135770999D01*
X50029001Y-135902724D01*
X50032038Y-135904930D01*
X50074707Y-135960255D01*
X50080692Y-136029868D01*
X50048092Y-136091666D01*
X50038051Y-136100370D01*
X50038244Y-136100596D01*
X50034536Y-136103762D01*
X49903758Y-136234540D01*
X49903754Y-136234545D01*
X49795052Y-136384162D01*
X49711084Y-136548956D01*
X49711082Y-136548962D01*
X49653932Y-136724855D01*
X49649950Y-136749999D01*
X49649950Y-136750000D01*
X50484314Y-136750000D01*
X50479920Y-136754394D01*
X50427259Y-136845606D01*
X50400000Y-136947339D01*
X50400000Y-137052661D01*
X50427259Y-137154394D01*
X50479920Y-137245606D01*
X50484314Y-137250000D01*
X49649950Y-137250000D01*
X49653932Y-137275144D01*
X49711082Y-137451037D01*
X49711084Y-137451043D01*
X49795052Y-137615837D01*
X49903754Y-137765454D01*
X49903758Y-137765459D01*
X50034540Y-137896241D01*
X50038252Y-137899412D01*
X50037011Y-137900863D01*
X50074718Y-137949780D01*
X50080684Y-138019394D01*
X50048066Y-138081183D01*
X50032051Y-138095058D01*
X50029012Y-138097266D01*
X50029002Y-138097274D01*
X49897278Y-138228998D01*
X49787778Y-138379714D01*
X49703208Y-138545689D01*
X49645640Y-138722862D01*
X49616500Y-138906850D01*
X49616500Y-139093149D01*
X49645640Y-139277137D01*
X49703208Y-139454310D01*
X49769724Y-139584853D01*
X49787780Y-139620289D01*
X49897276Y-139770999D01*
X50029001Y-139902724D01*
X50179711Y-140012220D01*
X50217725Y-140031589D01*
X50345689Y-140096791D01*
X50345691Y-140096791D01*
X50345694Y-140096793D01*
X50414871Y-140119270D01*
X50522862Y-140154359D01*
X50706851Y-140183500D01*
X50706856Y-140183500D01*
X50893149Y-140183500D01*
X51077137Y-140154359D01*
X51254306Y-140096793D01*
X51420289Y-140012220D01*
X51570999Y-139902724D01*
X51702724Y-139770999D01*
X51812220Y-139620289D01*
X51896793Y-139454306D01*
X51954359Y-139277137D01*
X51983500Y-139093149D01*
X51983500Y-138906850D01*
X51954359Y-138722862D01*
X51896791Y-138545689D01*
X51850429Y-138454700D01*
X51812220Y-138379711D01*
X51702724Y-138229001D01*
X51570999Y-138097276D01*
X51570998Y-138097275D01*
X51570992Y-138097270D01*
X51567954Y-138095063D01*
X51525288Y-138039733D01*
X51519310Y-137970120D01*
X51551916Y-137908325D01*
X51561948Y-137899633D01*
X51561754Y-137899406D01*
X51565462Y-137896238D01*
X51696241Y-137765459D01*
X51696245Y-137765454D01*
X51804947Y-137615837D01*
X51888915Y-137451043D01*
X51888917Y-137451037D01*
X51946067Y-137275144D01*
X51950049Y-137250000D01*
X51115686Y-137250000D01*
X51120080Y-137245606D01*
X51172741Y-137154394D01*
X51200000Y-137052661D01*
X51200000Y-136947339D01*
X51172741Y-136845606D01*
X51120080Y-136754394D01*
X51115686Y-136750000D01*
X51950050Y-136750000D01*
X51950049Y-136749999D01*
X51946067Y-136724855D01*
X51888917Y-136548962D01*
X51888915Y-136548956D01*
X51804947Y-136384162D01*
X51696245Y-136234545D01*
X51696241Y-136234540D01*
X51565459Y-136103758D01*
X51561748Y-136100588D01*
X51562990Y-136099133D01*
X51555769Y-136089768D01*
X51540045Y-136077478D01*
X51534869Y-136062665D01*
X51525290Y-136050243D01*
X51523581Y-136030361D01*
X51516998Y-136011519D01*
X51520651Y-135996260D01*
X51519309Y-135980630D01*
X51528622Y-135962979D01*
X51533270Y-135943570D01*
X51546833Y-135928462D01*
X51551914Y-135918834D01*
X51555006Y-135915763D01*
X51561108Y-135909909D01*
X51570999Y-135902724D01*
X51627322Y-135846400D01*
X51628253Y-135845508D01*
X51658162Y-135829976D01*
X51687729Y-135813832D01*
X51689068Y-135813927D01*
X51690260Y-135813309D01*
X51723795Y-135816411D01*
X51757421Y-135818816D01*
X51758703Y-135819640D01*
X51759833Y-135819745D01*
X51764303Y-135823239D01*
X51801768Y-135847317D01*
X53601372Y-137646921D01*
X53740127Y-137727032D01*
X53817508Y-137747766D01*
X53894889Y-137768500D01*
X53894890Y-137768500D01*
X54055110Y-137768500D01*
X54765132Y-137768500D01*
X54832171Y-137788185D01*
X54865448Y-137819612D01*
X54958208Y-137947285D01*
X55092715Y-138081792D01*
X55246608Y-138193602D01*
X55319910Y-138230951D01*
X55416092Y-138279959D01*
X55416094Y-138279959D01*
X55416097Y-138279961D01*
X55513070Y-138311469D01*
X55597008Y-138338743D01*
X55784884Y-138368500D01*
X55784889Y-138368500D01*
X55975116Y-138368500D01*
X56162991Y-138338743D01*
X56343903Y-138279961D01*
X56513392Y-138193602D01*
X56667285Y-138081792D01*
X56801792Y-137947285D01*
X56832154Y-137905494D01*
X56887479Y-137862831D01*
X56957093Y-137856850D01*
X57018888Y-137889455D01*
X57020151Y-137890700D01*
X58046372Y-138916921D01*
X58185127Y-138997032D01*
X58262508Y-139017766D01*
X58339889Y-139038500D01*
X58339890Y-139038500D01*
X58500110Y-139038500D01*
X61926589Y-139038500D01*
X61993628Y-139058185D01*
X62014270Y-139074819D01*
X62220181Y-139280730D01*
X62253666Y-139342053D01*
X62256500Y-139368411D01*
X62256500Y-142955109D01*
X62297968Y-143109874D01*
X62338023Y-143179250D01*
X62378078Y-143248627D01*
X63126373Y-143996922D01*
X63265128Y-144077032D01*
X63419889Y-144118500D01*
X63419890Y-144118500D01*
X63419891Y-144118500D01*
X104855109Y-144118500D01*
X104855110Y-144118500D01*
X104855111Y-144118500D01*
X104932491Y-144097766D01*
X105009873Y-144077032D01*
X105148627Y-143996922D01*
X105896922Y-143248627D01*
X105977032Y-143109872D01*
X106018500Y-142955110D01*
X106018500Y-142794889D01*
X106018500Y-139336672D01*
X106038185Y-139269633D01*
X106069612Y-139236355D01*
X106229858Y-139119930D01*
X106369930Y-138979858D01*
X106486366Y-138819598D01*
X106569515Y-138656408D01*
X106617490Y-138605613D01*
X106685311Y-138588818D01*
X106751446Y-138611355D01*
X106790484Y-138656408D01*
X106873634Y-138819598D01*
X106990070Y-138979858D01*
X107130142Y-139119930D01*
X107290402Y-139236366D01*
X107352601Y-139268058D01*
X107466898Y-139326296D01*
X107466900Y-139326296D01*
X107466903Y-139326298D01*
X107515392Y-139342053D01*
X107655299Y-139387512D01*
X107850949Y-139418500D01*
X107850954Y-139418500D01*
X108049051Y-139418500D01*
X108244700Y-139387512D01*
X108433097Y-139326298D01*
X108609598Y-139236366D01*
X108769858Y-139119930D01*
X108909930Y-138979858D01*
X109026366Y-138819598D01*
X109109515Y-138656408D01*
X109157490Y-138605613D01*
X109225311Y-138588818D01*
X109291446Y-138611355D01*
X109330484Y-138656408D01*
X109413634Y-138819598D01*
X109530070Y-138979858D01*
X109670142Y-139119930D01*
X109830402Y-139236366D01*
X109892601Y-139268058D01*
X110006898Y-139326296D01*
X110006900Y-139326296D01*
X110006903Y-139326298D01*
X110055392Y-139342053D01*
X110195299Y-139387512D01*
X110390949Y-139418500D01*
X110390954Y-139418500D01*
X110589051Y-139418500D01*
X110784700Y-139387512D01*
X110973097Y-139326298D01*
X111149598Y-139236366D01*
X111309858Y-139119930D01*
X111449930Y-138979858D01*
X111566366Y-138819598D01*
X111656298Y-138643097D01*
X111717512Y-138454700D01*
X111748500Y-138259051D01*
X111748500Y-137060948D01*
X111717512Y-136865299D01*
X111673934Y-136731181D01*
X111656298Y-136676903D01*
X111656296Y-136676900D01*
X111656296Y-136676898D01*
X111592402Y-136551500D01*
X111566366Y-136500402D01*
X111449930Y-136340142D01*
X111361969Y-136252181D01*
X111328484Y-136190858D01*
X111333468Y-136121166D01*
X111375340Y-136065233D01*
X111440804Y-136040816D01*
X111449650Y-136040500D01*
X112058994Y-136040500D01*
X112103723Y-136044261D01*
X112124639Y-136040500D01*
X112145892Y-136040500D01*
X112184228Y-136030227D01*
X112194366Y-136027961D01*
X113676891Y-135761387D01*
X113710980Y-135760028D01*
X113802974Y-135769089D01*
X113826801Y-135773828D01*
X113947793Y-135810531D01*
X113970245Y-135819832D01*
X113976620Y-135823239D01*
X114081738Y-135879426D01*
X114101949Y-135892930D01*
X114199677Y-135973132D01*
X114216867Y-135990322D01*
X114297069Y-136088050D01*
X114310573Y-136108261D01*
X114370166Y-136219751D01*
X114379469Y-136242209D01*
X114416169Y-136363192D01*
X114420911Y-136387032D01*
X114433903Y-136518937D01*
X114434500Y-136531092D01*
X114434500Y-150488907D01*
X114433903Y-150501061D01*
X114433903Y-150501062D01*
X114420911Y-150632967D01*
X114416169Y-150656807D01*
X114379469Y-150777790D01*
X114370166Y-150800248D01*
X114310573Y-150911738D01*
X114297069Y-150931949D01*
X114216867Y-151029677D01*
X114199677Y-151046867D01*
X114101949Y-151127069D01*
X114081738Y-151140573D01*
X113970248Y-151200166D01*
X113947790Y-151209469D01*
X113826807Y-151246169D01*
X113802967Y-151250911D01*
X113705698Y-151260491D01*
X113671060Y-151263903D01*
X113658907Y-151264500D01*
X47631093Y-151264500D01*
X47618939Y-151263903D01*
X47487033Y-151250911D01*
X47463192Y-151246169D01*
X47342209Y-151209469D01*
X47319751Y-151200166D01*
X47208261Y-151140573D01*
X47188050Y-151127069D01*
X47090322Y-151046867D01*
X47073132Y-151029677D01*
X46992930Y-150931949D01*
X46979426Y-150911738D01*
X46919833Y-150800248D01*
X46910530Y-150777790D01*
X46873828Y-150656801D01*
X46869089Y-150632973D01*
X46856097Y-150501061D01*
X46855500Y-150488907D01*
X46855500Y-147157884D01*
X47500000Y-147157884D01*
X47500000Y-147482115D01*
X47531779Y-147804784D01*
X47531782Y-147804801D01*
X47595030Y-148122781D01*
X47595033Y-148122792D01*
X47689157Y-148433078D01*
X47813238Y-148732635D01*
X47813240Y-148732640D01*
X47966079Y-149018580D01*
X47966090Y-149018598D01*
X48146212Y-149288170D01*
X48146222Y-149288184D01*
X48295890Y-149470554D01*
X48295891Y-149470555D01*
X49505748Y-148260698D01*
X49579588Y-148362330D01*
X49757670Y-148540412D01*
X49859300Y-148614251D01*
X48649443Y-149824107D01*
X48649444Y-149824108D01*
X48831815Y-149973777D01*
X48831829Y-149973787D01*
X49101401Y-150153909D01*
X49101419Y-150153920D01*
X49387359Y-150306759D01*
X49387364Y-150306761D01*
X49686921Y-150430842D01*
X49997207Y-150524966D01*
X49997218Y-150524969D01*
X50315198Y-150588217D01*
X50315215Y-150588220D01*
X50637884Y-150620000D01*
X50962116Y-150620000D01*
X51284784Y-150588220D01*
X51284801Y-150588217D01*
X51602781Y-150524969D01*
X51602792Y-150524966D01*
X51913078Y-150430842D01*
X52212635Y-150306761D01*
X52212640Y-150306759D01*
X52498580Y-150153920D01*
X52498598Y-150153909D01*
X52768170Y-149973787D01*
X52768183Y-149973777D01*
X52950554Y-149824108D01*
X52950554Y-149824107D01*
X51740698Y-148614251D01*
X51842330Y-148540412D01*
X52020412Y-148362330D01*
X52094251Y-148260698D01*
X53304107Y-149470554D01*
X53304108Y-149470554D01*
X53453777Y-149288183D01*
X53453787Y-149288170D01*
X53633909Y-149018598D01*
X53633920Y-149018580D01*
X53786759Y-148732640D01*
X53786761Y-148732635D01*
X53910842Y-148433078D01*
X54004966Y-148122792D01*
X54004969Y-148122781D01*
X54068217Y-147804801D01*
X54068220Y-147804784D01*
X54100000Y-147482115D01*
X54100000Y-147157884D01*
X107500000Y-147157884D01*
X107500000Y-147482115D01*
X107531779Y-147804784D01*
X107531782Y-147804801D01*
X107595030Y-148122781D01*
X107595033Y-148122792D01*
X107689157Y-148433078D01*
X107813238Y-148732635D01*
X107813240Y-148732640D01*
X107966079Y-149018580D01*
X107966090Y-149018598D01*
X108146212Y-149288170D01*
X108146222Y-149288184D01*
X108295890Y-149470554D01*
X108295891Y-149470555D01*
X109505748Y-148260698D01*
X109579588Y-148362330D01*
X109757670Y-148540412D01*
X109859300Y-148614251D01*
X108649443Y-149824107D01*
X108649444Y-149824108D01*
X108831815Y-149973777D01*
X108831829Y-149973787D01*
X109101401Y-150153909D01*
X109101419Y-150153920D01*
X109387359Y-150306759D01*
X109387364Y-150306761D01*
X109686921Y-150430842D01*
X109997207Y-150524966D01*
X109997218Y-150524969D01*
X110315198Y-150588217D01*
X110315215Y-150588220D01*
X110637884Y-150620000D01*
X110962116Y-150620000D01*
X111284784Y-150588220D01*
X111284801Y-150588217D01*
X111602781Y-150524969D01*
X111602792Y-150524966D01*
X111913078Y-150430842D01*
X112212635Y-150306761D01*
X112212640Y-150306759D01*
X112498580Y-150153920D01*
X112498598Y-150153909D01*
X112768170Y-149973787D01*
X112768183Y-149973777D01*
X112950554Y-149824108D01*
X112950554Y-149824107D01*
X111740698Y-148614251D01*
X111842330Y-148540412D01*
X112020412Y-148362330D01*
X112094251Y-148260698D01*
X113304107Y-149470554D01*
X113304108Y-149470554D01*
X113453777Y-149288183D01*
X113453787Y-149288170D01*
X113633909Y-149018598D01*
X113633920Y-149018580D01*
X113786759Y-148732640D01*
X113786761Y-148732635D01*
X113910842Y-148433078D01*
X114004966Y-148122792D01*
X114004969Y-148122781D01*
X114068217Y-147804801D01*
X114068220Y-147804784D01*
X114100000Y-147482115D01*
X114100000Y-147157884D01*
X114068220Y-146835215D01*
X114068217Y-146835198D01*
X114004969Y-146517218D01*
X114004966Y-146517207D01*
X113910842Y-146206921D01*
X113786761Y-145907364D01*
X113786759Y-145907359D01*
X113633920Y-145621419D01*
X113633909Y-145621401D01*
X113453787Y-145351829D01*
X113453777Y-145351815D01*
X113304108Y-145169444D01*
X113304107Y-145169443D01*
X112094250Y-146379300D01*
X112020412Y-146277670D01*
X111842330Y-146099588D01*
X111740697Y-146025747D01*
X112950555Y-144815891D01*
X112950554Y-144815890D01*
X112768184Y-144666222D01*
X112768170Y-144666212D01*
X112498598Y-144486090D01*
X112498580Y-144486079D01*
X112212640Y-144333240D01*
X112212635Y-144333238D01*
X111913078Y-144209157D01*
X111602792Y-144115033D01*
X111602781Y-144115030D01*
X111284801Y-144051782D01*
X111284784Y-144051779D01*
X110962116Y-144020000D01*
X110637884Y-144020000D01*
X110315215Y-144051779D01*
X110315198Y-144051782D01*
X109997218Y-144115030D01*
X109997207Y-144115033D01*
X109686921Y-144209157D01*
X109387364Y-144333238D01*
X109387359Y-144333240D01*
X109101419Y-144486079D01*
X109101401Y-144486090D01*
X108831829Y-144666212D01*
X108831815Y-144666222D01*
X108649444Y-144815890D01*
X108649443Y-144815891D01*
X109859301Y-146025748D01*
X109757670Y-146099588D01*
X109579588Y-146277670D01*
X109505748Y-146379301D01*
X108295891Y-145169443D01*
X108295890Y-145169444D01*
X108146222Y-145351815D01*
X108146212Y-145351829D01*
X107966090Y-145621401D01*
X107966079Y-145621419D01*
X107813240Y-145907359D01*
X107813238Y-145907364D01*
X107689157Y-146206921D01*
X107595033Y-146517207D01*
X107595030Y-146517218D01*
X107531782Y-146835198D01*
X107531779Y-146835215D01*
X107500000Y-147157884D01*
X54100000Y-147157884D01*
X54068220Y-146835215D01*
X54068217Y-146835198D01*
X54004969Y-146517218D01*
X54004966Y-146517207D01*
X53910842Y-146206921D01*
X53786761Y-145907364D01*
X53786759Y-145907359D01*
X53633920Y-145621419D01*
X53633909Y-145621401D01*
X53453787Y-145351829D01*
X53453777Y-145351815D01*
X53304108Y-145169444D01*
X53304107Y-145169443D01*
X52094250Y-146379300D01*
X52020412Y-146277670D01*
X51842330Y-146099588D01*
X51740697Y-146025747D01*
X52950555Y-144815891D01*
X52950554Y-144815890D01*
X52768184Y-144666222D01*
X52768170Y-144666212D01*
X52498598Y-144486090D01*
X52498580Y-144486079D01*
X52212640Y-144333240D01*
X52212635Y-144333238D01*
X51913078Y-144209157D01*
X51602792Y-144115033D01*
X51602781Y-144115030D01*
X51284801Y-144051782D01*
X51284784Y-144051779D01*
X50962116Y-144020000D01*
X50637884Y-144020000D01*
X50315215Y-144051779D01*
X50315198Y-144051782D01*
X49997218Y-144115030D01*
X49997207Y-144115033D01*
X49686921Y-144209157D01*
X49387364Y-144333238D01*
X49387359Y-144333240D01*
X49101419Y-144486079D01*
X49101401Y-144486090D01*
X48831829Y-144666212D01*
X48831815Y-144666222D01*
X48649444Y-144815890D01*
X48649443Y-144815891D01*
X49859301Y-146025748D01*
X49757670Y-146099588D01*
X49579588Y-146277670D01*
X49505748Y-146379301D01*
X48295891Y-145169443D01*
X48295890Y-145169444D01*
X48146222Y-145351815D01*
X48146212Y-145351829D01*
X47966090Y-145621401D01*
X47966079Y-145621419D01*
X47813240Y-145907359D01*
X47813238Y-145907364D01*
X47689157Y-146206921D01*
X47595033Y-146517207D01*
X47595030Y-146517218D01*
X47531782Y-146835198D01*
X47531779Y-146835215D01*
X47500000Y-147157884D01*
X46855500Y-147157884D01*
X46855500Y-97161092D01*
X46856097Y-97148938D01*
X46861990Y-97089108D01*
X46869089Y-97017022D01*
X46873828Y-96993200D01*
X46910532Y-96872202D01*
X46919830Y-96849757D01*
X46979427Y-96738259D01*
X46992930Y-96718050D01*
X47073137Y-96620316D01*
X47090316Y-96603137D01*
X47188052Y-96522928D01*
X47208261Y-96509426D01*
X47319757Y-96449830D01*
X47342202Y-96440532D01*
X47463200Y-96403828D01*
X47487024Y-96399089D01*
X47618939Y-96386097D01*
X47631093Y-96385500D01*
X47690892Y-96385500D01*
X113599108Y-96385500D01*
X113658907Y-96385500D01*
X113671061Y-96386097D01*
G37*
G04 #@! TD.AperFunction*
G04 #@! TA.AperFunction,Conductor*
G36*
X114387151Y-118359490D02*
G01*
X114427680Y-118416404D01*
X114434500Y-118456961D01*
X114434500Y-122548907D01*
X114433903Y-122561062D01*
X114420911Y-122692967D01*
X114416169Y-122716807D01*
X114379469Y-122837790D01*
X114370166Y-122860248D01*
X114310573Y-122971738D01*
X114297069Y-122991949D01*
X114216867Y-123089677D01*
X114199677Y-123106867D01*
X114101949Y-123187069D01*
X114081738Y-123200573D01*
X113970248Y-123260166D01*
X113947790Y-123269469D01*
X113826807Y-123306169D01*
X113802966Y-123310911D01*
X113710985Y-123319970D01*
X113676886Y-123318610D01*
X112194365Y-123052036D01*
X112194365Y-123052035D01*
X112189231Y-123051112D01*
X112145892Y-123039500D01*
X112124644Y-123039500D01*
X112113759Y-123037543D01*
X112113756Y-123037543D01*
X112103723Y-123035739D01*
X112103722Y-123035739D01*
X112064179Y-123039064D01*
X112053789Y-123039500D01*
X111449650Y-123039500D01*
X111382611Y-123019815D01*
X111336856Y-122967011D01*
X111326912Y-122897853D01*
X111355937Y-122834297D01*
X111361969Y-122827819D01*
X111404486Y-122785302D01*
X111449930Y-122739858D01*
X111566366Y-122579598D01*
X111656298Y-122403097D01*
X111717512Y-122214700D01*
X111748500Y-122019051D01*
X111748500Y-120820948D01*
X111717512Y-120625299D01*
X111671519Y-120483749D01*
X111656298Y-120436903D01*
X111656296Y-120436900D01*
X111656296Y-120436898D01*
X111566365Y-120260401D01*
X111555395Y-120245302D01*
X111449930Y-120100142D01*
X111309858Y-119960070D01*
X111149598Y-119843634D01*
X111148499Y-119843074D01*
X110973101Y-119753703D01*
X110784700Y-119692487D01*
X110589051Y-119661500D01*
X110589046Y-119661500D01*
X110390954Y-119661500D01*
X110390949Y-119661500D01*
X110195299Y-119692487D01*
X110006898Y-119753703D01*
X109830401Y-119843634D01*
X109743364Y-119906871D01*
X109670142Y-119960070D01*
X109670140Y-119960072D01*
X109670139Y-119960072D01*
X109530072Y-120100139D01*
X109530072Y-120100140D01*
X109530070Y-120100142D01*
X109484346Y-120163076D01*
X109413634Y-120260401D01*
X109325714Y-120432953D01*
X109277739Y-120483749D01*
X109209918Y-120500544D01*
X109143783Y-120478006D01*
X109104744Y-120432952D01*
X109019097Y-120264858D01*
X108903444Y-120105678D01*
X108764321Y-119966555D01*
X108605143Y-119850904D01*
X108429835Y-119761581D01*
X108242705Y-119700778D01*
X108200000Y-119694014D01*
X108200000Y-121296000D01*
X108180315Y-121363039D01*
X108127511Y-121408794D01*
X108076000Y-121420000D01*
X107824000Y-121420000D01*
X107756961Y-121400315D01*
X107711206Y-121347511D01*
X107700000Y-121296000D01*
X107700000Y-119694014D01*
X107699999Y-119694014D01*
X107657294Y-119700778D01*
X107470164Y-119761581D01*
X107294856Y-119850904D01*
X107135678Y-119966555D01*
X106996555Y-120105678D01*
X106880904Y-120264856D01*
X106795255Y-120432953D01*
X106747280Y-120483749D01*
X106679459Y-120500544D01*
X106613325Y-120478007D01*
X106574285Y-120432953D01*
X106486366Y-120260402D01*
X106369930Y-120100142D01*
X106229858Y-119960070D01*
X106188296Y-119929873D01*
X106119614Y-119879971D01*
X106116274Y-119875640D01*
X106111297Y-119873367D01*
X106095165Y-119848266D01*
X106076948Y-119824641D01*
X106075695Y-119817968D01*
X106073523Y-119814589D01*
X106068500Y-119779654D01*
X106068500Y-119704121D01*
X106088185Y-119637082D01*
X106104810Y-119616449D01*
X106243250Y-119478008D01*
X106304569Y-119444526D01*
X106311531Y-119443219D01*
X106341546Y-119438465D01*
X106363116Y-119435049D01*
X106566483Y-119368972D01*
X106757009Y-119271894D01*
X106930004Y-119146206D01*
X107081206Y-118995004D01*
X107206894Y-118822009D01*
X107303972Y-118631483D01*
X107315203Y-118596918D01*
X107316721Y-118592246D01*
X107356157Y-118534570D01*
X107420516Y-118507371D01*
X107489362Y-118519285D01*
X107522333Y-118542882D01*
X108211373Y-119231922D01*
X108329096Y-119299889D01*
X108350124Y-119312030D01*
X108350128Y-119312032D01*
X108504889Y-119353500D01*
X108504890Y-119353500D01*
X108504891Y-119353500D01*
X113110109Y-119353500D01*
X113110110Y-119353500D01*
X113110111Y-119353500D01*
X113253262Y-119315143D01*
X113264873Y-119312032D01*
X113403627Y-119231922D01*
X114151922Y-118483627D01*
X114203113Y-118394960D01*
X114253679Y-118346746D01*
X114322286Y-118333522D01*
X114387151Y-118359490D01*
G37*
G04 #@! TD.AperFunction*
M02*
