G04 #@! TF.GenerationSoftware,KiCad,Pcbnew,9.0.5*
G04 #@! TF.CreationDate,2025-11-25T12:55:11+09:00*
G04 #@! TF.ProjectId,iidx_pcb,69696478-5f70-4636-922e-6b696361645f,rev?*
G04 #@! TF.SameCoordinates,Original*
G04 #@! TF.FileFunction,Soldermask,Bot*
G04 #@! TF.FilePolarity,Negative*
%FSLAX46Y46*%
G04 Gerber Fmt 4.6, Leading zero omitted, Abs format (unit mm)*
G04 Created by KiCad (PCBNEW 9.0.5) date 2025-11-25 12:55:11*
%MOMM*%
%LPD*%
G01*
G04 APERTURE LIST*
G04 Aperture macros list*
%AMRoundRect*
0 Rectangle with rounded corners*
0 $1 Rounding radius*
0 $2 $3 $4 $5 $6 $7 $8 $9 X,Y pos of 4 corners*
0 Add a 4 corners polygon primitive as box body*
4,1,4,$2,$3,$4,$5,$6,$7,$8,$9,$2,$3,0*
0 Add four circle primitives for the rounded corners*
1,1,$1+$1,$2,$3*
1,1,$1+$1,$4,$5*
1,1,$1+$1,$6,$7*
1,1,$1+$1,$8,$9*
0 Add four rect primitives between the rounded corners*
20,1,$1+$1,$2,$3,$4,$5,0*
20,1,$1+$1,$4,$5,$6,$7,0*
20,1,$1+$1,$6,$7,$8,$9,0*
20,1,$1+$1,$8,$9,$2,$3,0*%
G04 Aperture macros list end*
%ADD10C,1.400000*%
%ADD11O,1.400000X1.400000*%
%ADD12O,1.500000X2.500000*%
%ADD13O,2.500000X1.500000*%
%ADD14C,5.600000*%
%ADD15R,1.700000X1.700000*%
%ADD16O,1.700000X1.700000*%
%ADD17R,1.350000X1.350000*%
%ADD18O,1.350000X1.350000*%
%ADD19C,1.700000*%
%ADD20RoundRect,0.250000X-0.450000X0.350000X-0.450000X-0.350000X0.450000X-0.350000X0.450000X0.350000X0*%
G04 APERTURE END LIST*
D10*
X55880000Y-121920000D03*
D11*
X60960000Y-121920000D03*
D12*
X110490000Y-137660000D03*
X107950000Y-137660000D03*
X105410000Y-137660000D03*
X102870000Y-137660000D03*
X100330000Y-137660000D03*
X97790000Y-137660000D03*
X95250000Y-137660000D03*
X92710000Y-137660000D03*
X90170000Y-137660000D03*
D13*
X89670000Y-134620000D03*
X89670000Y-132080000D03*
X89670000Y-129540000D03*
X89670000Y-127000000D03*
X89670000Y-124460000D03*
D12*
X90170000Y-121420000D03*
X92710000Y-121420000D03*
X95250000Y-121420000D03*
X97790000Y-121420000D03*
X100330000Y-121420000D03*
X102870000Y-121420000D03*
X105410000Y-121420000D03*
X107950000Y-121420000D03*
X110490000Y-121420000D03*
D14*
X50800000Y-147320000D03*
D10*
X55880000Y-137160000D03*
D11*
X60960000Y-137160000D03*
D15*
X110490000Y-100330000D03*
D16*
X110490000Y-102870000D03*
X110490000Y-105410000D03*
X110490000Y-107950000D03*
X110490000Y-110490000D03*
X110490000Y-113030000D03*
X110490000Y-115570000D03*
D17*
X50800000Y-102680000D03*
D18*
X50800000Y-104680000D03*
X50800000Y-106680000D03*
X50800000Y-108680000D03*
X50800000Y-110680000D03*
D17*
X50800000Y-117000000D03*
D18*
X50800000Y-119000000D03*
X50800000Y-121000000D03*
X50800000Y-123000000D03*
X50800000Y-125000000D03*
X50800000Y-127000000D03*
X50800000Y-129000000D03*
X50800000Y-131000000D03*
X50800000Y-133000000D03*
X50800000Y-135000000D03*
X50800000Y-137000000D03*
X50800000Y-139000000D03*
D15*
X106045000Y-115570000D03*
D19*
X106045000Y-118110000D03*
D10*
X55245000Y-102235000D03*
D11*
X55245000Y-107315000D03*
D10*
X55880000Y-127000000D03*
D11*
X60960000Y-127000000D03*
D10*
X55880000Y-129540000D03*
D11*
X60960000Y-129540000D03*
D10*
X55880000Y-119380000D03*
D11*
X60960000Y-119380000D03*
D10*
X59055000Y-102235000D03*
D11*
X59055000Y-107315000D03*
D10*
X55880000Y-116840000D03*
D11*
X60960000Y-116840000D03*
D10*
X55880000Y-124460000D03*
D11*
X60960000Y-124460000D03*
D14*
X110800000Y-147320000D03*
D20*
X59055000Y-103775000D03*
X59055000Y-105775000D03*
X55245000Y-103775000D03*
X55245000Y-105775000D03*
M02*
