M48
; DRILL file {KiCad 9.0.5} date 2025-11-25T12:55:16+0900
; FORMAT={-:-/ absolute / metric / decimal}
; #@! TF.CreationDate,2025-11-25T12:55:17+09:00
; #@! TF.GenerationSoftware,Kicad,Pcbnew,9.0.5
; #@! TF.FileFunction,Plated,1,2,PTH
FMAT,2
METRIC
; #@! TA.AperFunction,Plated,PTH,ViaDrill
T1C0.300
; #@! TA.AperFunction,Plated,PTH,ComponentDrill
T2C0.700
; #@! TA.AperFunction,Plated,PTH,ComponentDrill
T3C0.800
; #@! TA.AperFunction,Plated,PTH,ComponentDrill
T4C1.000
; #@! TA.AperFunction,Plated,PTH,ComponentDrill
T5C3.200
%
G90
G05
T1
X76.2Y-114.3
X76.2Y-120.65
X76.2Y-127.0
X76.2Y-133.35
X82.55Y-114.3
X82.55Y-120.65
X82.55Y-127.0
X82.55Y-133.35
X88.9Y-114.3
X93.98Y-116.84
X94.488Y-104.648
X96.52Y-116.84
X97.028Y-107.188
X99.06Y-116.84
X99.568Y-109.728
X101.6Y-116.84
X102.108Y-112.268
X104.14Y-119.38
X106.68Y-104.14
X106.68Y-106.68
X106.68Y-109.22
X106.68Y-111.76
X107.95Y-119.38
X108.585Y-114.3
X109.22Y-117.475
X112.395Y-114.3
X112.395Y-117.475
X113.03Y-121.285
T2
X55.245Y-102.235
X55.245Y-107.315
X55.88Y-116.84
X55.88Y-119.38
X55.88Y-121.92
X55.88Y-124.46
X55.88Y-127.0
X55.88Y-129.54
X55.88Y-137.16
X59.055Y-102.235
X59.055Y-107.315
X60.96Y-116.84
X60.96Y-119.38
X60.96Y-121.92
X60.96Y-124.46
X60.96Y-127.0
X60.96Y-129.54
X60.96Y-137.16
T3
X50.8Y-102.68
X50.8Y-104.68
X50.8Y-106.68
X50.8Y-108.68
X50.8Y-110.68
X50.8Y-117.0
X50.8Y-119.0
X50.8Y-121.0
X50.8Y-123.0
X50.8Y-125.0
X50.8Y-127.0
X50.8Y-129.0
X50.8Y-131.0
X50.8Y-133.0
X50.8Y-135.0
X50.8Y-137.0
X50.8Y-139.0
T4
X90.17Y-121.92
X90.17Y-124.46
X90.17Y-127.0
X90.17Y-129.54
X90.17Y-132.08
X90.17Y-134.62
X90.17Y-137.16
X92.71Y-121.92
X92.71Y-137.16
X95.25Y-121.92
X95.25Y-137.16
X97.79Y-121.92
X97.79Y-137.16
X100.33Y-121.92
X100.33Y-137.16
X102.87Y-121.92
X102.87Y-137.16
X105.41Y-121.92
X105.41Y-137.16
X106.045Y-115.57
X106.045Y-118.11
X107.95Y-121.92
X107.95Y-137.16
X110.49Y-100.33
X110.49Y-102.87
X110.49Y-105.41
X110.49Y-107.95
X110.49Y-110.49
X110.49Y-113.03
X110.49Y-115.57
X110.49Y-121.92
X110.49Y-137.16
T5
X50.8Y-147.32
X110.8Y-147.32
M30
