G04 #@! TF.GenerationSoftware,KiCad,Pcbnew,8.0.2*
G04 #@! TF.CreationDate,2024-06-05T08:55:07+09:00*
G04 #@! TF.ProjectId,rainbow2v5-rp2040,7261696e-626f-4773-9276-352d72703230,rev?*
G04 #@! TF.SameCoordinates,Original*
G04 #@! TF.FileFunction,Copper,L2,Bot*
G04 #@! TF.FilePolarity,Positive*
%FSLAX46Y46*%
G04 Gerber Fmt 4.6, Leading zero omitted, Abs format (unit mm)*
G04 Created by KiCad (PCBNEW 8.0.2) date 2024-06-05 08:55:07*
%MOMM*%
%LPD*%
G01*
G04 APERTURE LIST*
G04 Aperture macros list*
%AMRoundRect*
0 Rectangle with rounded corners*
0 $1 Rounding radius*
0 $2 $3 $4 $5 $6 $7 $8 $9 X,Y pos of 4 corners*
0 Add a 4 corners polygon primitive as box body*
4,1,4,$2,$3,$4,$5,$6,$7,$8,$9,$2,$3,0*
0 Add four circle primitives for the rounded corners*
1,1,$1+$1,$2,$3*
1,1,$1+$1,$4,$5*
1,1,$1+$1,$6,$7*
1,1,$1+$1,$8,$9*
0 Add four rect primitives between the rounded corners*
20,1,$1+$1,$2,$3,$4,$5,0*
20,1,$1+$1,$4,$5,$6,$7,0*
20,1,$1+$1,$6,$7,$8,$9,0*
20,1,$1+$1,$8,$9,$2,$3,0*%
G04 Aperture macros list end*
G04 #@! TA.AperFunction,ComponentPad*
%ADD10C,4.700000*%
G04 #@! TD*
G04 #@! TA.AperFunction,ConnectorPad*
%ADD11C,7.500000*%
G04 #@! TD*
G04 #@! TA.AperFunction,ComponentPad*
%ADD12O,3.000000X2.000000*%
G04 #@! TD*
G04 #@! TA.AperFunction,ComponentPad*
%ADD13RoundRect,0.250000X-0.725000X0.600000X-0.725000X-0.600000X0.725000X-0.600000X0.725000X0.600000X0*%
G04 #@! TD*
G04 #@! TA.AperFunction,ComponentPad*
%ADD14O,1.950000X1.700000*%
G04 #@! TD*
G04 #@! TA.AperFunction,ComponentPad*
%ADD15R,1.600000X1.600000*%
G04 #@! TD*
G04 #@! TA.AperFunction,ComponentPad*
%ADD16O,1.600000X1.600000*%
G04 #@! TD*
G04 #@! TA.AperFunction,SMDPad,CuDef*
%ADD17O,1.500000X2.500000*%
G04 #@! TD*
G04 #@! TA.AperFunction,SMDPad,CuDef*
%ADD18O,2.500000X1.500000*%
G04 #@! TD*
G04 #@! TA.AperFunction,ViaPad*
%ADD19C,0.600000*%
G04 #@! TD*
G04 #@! TA.AperFunction,Conductor*
%ADD20C,1.000000*%
G04 #@! TD*
G04 #@! TA.AperFunction,Conductor*
%ADD21C,0.200000*%
G04 #@! TD*
G04 #@! TA.AperFunction,Conductor*
%ADD22C,0.500000*%
G04 #@! TD*
G04 APERTURE END LIST*
D10*
X71755000Y-34925000D03*
D11*
X71755000Y-34925000D03*
D12*
X92710000Y-63500000D03*
X97910000Y-63500000D03*
X92710000Y-55880000D03*
X97910000Y-55880000D03*
X92710000Y-48260000D03*
X97910000Y-48260000D03*
X80010000Y-55880000D03*
X85210000Y-55880000D03*
X118110000Y-48260000D03*
X123310000Y-48260000D03*
X80010000Y-63500000D03*
X85210000Y-63500000D03*
X105410000Y-48260000D03*
X110610000Y-48260000D03*
D10*
X66675000Y-64770000D03*
D11*
X66675000Y-64770000D03*
D12*
X105410000Y-55880000D03*
X110610000Y-55880000D03*
X80010000Y-48260000D03*
X85210000Y-48260000D03*
X118110000Y-55880000D03*
X123310000Y-55880000D03*
D10*
X136525000Y-64770000D03*
D11*
X136525000Y-64770000D03*
D12*
X118050000Y-63500000D03*
X123250000Y-63500000D03*
X105410000Y-63500000D03*
X110610000Y-63500000D03*
D13*
X66040000Y-47070000D03*
D14*
X66040000Y-49570000D03*
X66040000Y-52070000D03*
X66040000Y-54570000D03*
D15*
X114300000Y-63500000D03*
D16*
X114300000Y-60960000D03*
D15*
X88900000Y-55880000D03*
D16*
X88900000Y-53340000D03*
D15*
X88900000Y-48260000D03*
D16*
X88900000Y-45720000D03*
D15*
X101600000Y-48260000D03*
D16*
X101600000Y-45720000D03*
D15*
X114300000Y-55880000D03*
D16*
X114300000Y-53340000D03*
D17*
X151130000Y-33790000D03*
X148590000Y-33790000D03*
X146050000Y-33790000D03*
X143510000Y-33790000D03*
X140970000Y-33790000D03*
X138430000Y-33790000D03*
X135890000Y-33790000D03*
X133350000Y-33790000D03*
X130810000Y-33790000D03*
D18*
X130310000Y-36830000D03*
X130310000Y-39370000D03*
X130310000Y-41910000D03*
X130310000Y-44450000D03*
X130310000Y-46990000D03*
D17*
X130810000Y-50030000D03*
X133350000Y-50030000D03*
X135890000Y-50030000D03*
X138430000Y-50030000D03*
X140970000Y-50030000D03*
X143510000Y-50030000D03*
X146050000Y-50030000D03*
X148590000Y-50030000D03*
X151130000Y-50030000D03*
D15*
X114300000Y-48260000D03*
D16*
X114300000Y-45720000D03*
D15*
X101600000Y-63500000D03*
D16*
X101600000Y-60960000D03*
D15*
X127000000Y-63500000D03*
D16*
X127000000Y-60960000D03*
D15*
X88900000Y-63500000D03*
D16*
X88900000Y-60960000D03*
D15*
X101600000Y-55880000D03*
D16*
X101600000Y-53340000D03*
D19*
X151130000Y-50800000D03*
X151130000Y-49530000D03*
X148590000Y-50800000D03*
X148590000Y-49530000D03*
X148590000Y-34290000D03*
X151130000Y-34290000D03*
X135890000Y-49530000D03*
X130810000Y-46990000D03*
X138430000Y-49530000D03*
X130810000Y-49530000D03*
X140970000Y-49530000D03*
X133350000Y-49530000D03*
X143510000Y-49530000D03*
X130810000Y-39370000D03*
X130810000Y-41910000D03*
X130810000Y-44450000D03*
X130810000Y-34290000D03*
X130810000Y-36830000D03*
X145415000Y-58420000D03*
X146050000Y-49530000D03*
X146050000Y-34290000D03*
X138430000Y-34290000D03*
X143510000Y-34290000D03*
X133350000Y-34290000D03*
X140970000Y-34290000D03*
X135890000Y-34290000D03*
D20*
X123310000Y-55880000D02*
X118110000Y-55880000D01*
X118110000Y-48260000D02*
X123310000Y-48260000D01*
D21*
X93980000Y-59690000D02*
X105410000Y-59690000D01*
X90805000Y-60325000D02*
X93345000Y-60325000D01*
X93345000Y-60325000D02*
X93980000Y-59690000D01*
X118144657Y-58420000D02*
X129540000Y-58420000D01*
X105410000Y-59690000D02*
X106045000Y-59055000D01*
X90170000Y-60960000D02*
X90805000Y-60325000D01*
X106045000Y-59055000D02*
X117509657Y-59055000D01*
X135890000Y-52070000D02*
X135890000Y-49530000D01*
X129540000Y-58420000D02*
X135890000Y-52070000D01*
X88900000Y-60960000D02*
X90170000Y-60960000D01*
X117509657Y-59055000D02*
X118144657Y-58420000D01*
X93345000Y-52705000D02*
X93980000Y-52070000D01*
X128270000Y-46990000D02*
X130810000Y-46990000D01*
X127000000Y-51435000D02*
X127635000Y-50800000D01*
X106045000Y-51435000D02*
X127000000Y-51435000D01*
X127635000Y-47625000D02*
X128270000Y-46990000D01*
X90805000Y-52705000D02*
X93345000Y-52705000D01*
X90170000Y-53340000D02*
X90805000Y-52705000D01*
X105410000Y-52070000D02*
X106045000Y-51435000D01*
X88900000Y-53340000D02*
X90170000Y-53340000D01*
X127635000Y-50800000D02*
X127635000Y-47625000D01*
X93980000Y-52070000D02*
X105410000Y-52070000D01*
X133350000Y-57150000D02*
X138430000Y-52070000D01*
X132080000Y-57150000D02*
X133350000Y-57150000D01*
X102870000Y-60960000D02*
X103505000Y-60325000D01*
X103505000Y-60325000D02*
X106045000Y-60325000D01*
X130175000Y-59055000D02*
X132080000Y-57150000D01*
X118745000Y-59055000D02*
X130175000Y-59055000D01*
X138430000Y-52070000D02*
X138430000Y-49530000D01*
X106680000Y-59690000D02*
X118110000Y-59690000D01*
X106045000Y-60325000D02*
X106680000Y-59690000D01*
X118110000Y-59690000D02*
X118745000Y-59055000D01*
X101600000Y-60960000D02*
X102870000Y-60960000D01*
X128905000Y-49530000D02*
X130810000Y-49530000D01*
X106045000Y-52705000D02*
X106680000Y-52070000D01*
X128270000Y-50165000D02*
X128905000Y-49530000D01*
X106680000Y-52070000D02*
X127635000Y-52070000D01*
X101600000Y-53340000D02*
X102870000Y-53340000D01*
X128270000Y-51435000D02*
X128270000Y-50165000D01*
X127635000Y-52070000D02*
X128270000Y-51435000D01*
X102870000Y-53340000D02*
X103505000Y-52705000D01*
X103505000Y-52705000D02*
X106045000Y-52705000D01*
X115570000Y-60960000D02*
X116205000Y-60325000D01*
X130810000Y-59690000D02*
X132080000Y-58420000D01*
X119380000Y-59690000D02*
X130810000Y-59690000D01*
X134620000Y-58420000D02*
X140970000Y-52070000D01*
X140970000Y-52070000D02*
X140970000Y-49530000D01*
X114300000Y-60960000D02*
X115570000Y-60960000D01*
X118745000Y-60325000D02*
X119380000Y-59690000D01*
X116205000Y-60325000D02*
X118745000Y-60325000D01*
X132080000Y-58420000D02*
X134620000Y-58420000D01*
X132715000Y-52705000D02*
X133350000Y-52070000D01*
X114300000Y-53340000D02*
X115570000Y-53340000D01*
X116205000Y-52705000D02*
X132715000Y-52705000D01*
X133350000Y-52070000D02*
X133350000Y-49530000D01*
X115570000Y-53340000D02*
X116205000Y-52705000D01*
X127000000Y-60960000D02*
X130810000Y-60960000D01*
X130810000Y-60960000D02*
X132080000Y-59690000D01*
X135890000Y-59690000D02*
X143510000Y-52070000D01*
X143510000Y-52070000D02*
X143510000Y-49530000D01*
X132080000Y-59690000D02*
X135890000Y-59690000D01*
X93980000Y-44450000D02*
X105410000Y-44450000D01*
X90170000Y-45720000D02*
X90805000Y-45085000D01*
X93345000Y-45085000D02*
X93980000Y-44450000D01*
X106045000Y-43815000D02*
X123825000Y-43815000D01*
X90805000Y-45085000D02*
X93345000Y-45085000D01*
X105410000Y-44450000D02*
X106045000Y-43815000D01*
X128270000Y-39370000D02*
X130810000Y-39370000D01*
X123825000Y-43815000D02*
X128270000Y-39370000D01*
X88900000Y-45720000D02*
X90170000Y-45720000D01*
X106680000Y-44450000D02*
X125730000Y-44450000D01*
X128270000Y-41910000D02*
X130810000Y-41910000D01*
X102870000Y-45720000D02*
X103505000Y-45085000D01*
X106045000Y-45085000D02*
X106680000Y-44450000D01*
X125730000Y-44450000D02*
X128270000Y-41910000D01*
X103505000Y-45085000D02*
X106045000Y-45085000D01*
X101600000Y-45720000D02*
X102870000Y-45720000D01*
X114300000Y-45720000D02*
X115570000Y-45720000D01*
X115570000Y-45720000D02*
X116205000Y-45085000D01*
X127635000Y-45085000D02*
X128270000Y-44450000D01*
X128270000Y-44450000D02*
X130810000Y-44450000D01*
X116205000Y-45085000D02*
X127635000Y-45085000D01*
X72390000Y-48260000D02*
X72390000Y-44450000D01*
X92710000Y-43180000D02*
X104140000Y-43180000D01*
X66040000Y-49570000D02*
X71080000Y-49570000D01*
X104140000Y-43180000D02*
X104775000Y-42545000D01*
X92075000Y-43815000D02*
X92710000Y-43180000D01*
X104775000Y-42545000D02*
X120015000Y-42545000D01*
X72390000Y-44450000D02*
X73025000Y-43815000D01*
X71080000Y-49570000D02*
X72390000Y-48260000D01*
X73025000Y-43815000D02*
X92075000Y-43815000D01*
X120015000Y-42545000D02*
X128270000Y-34290000D01*
X128270000Y-34290000D02*
X130810000Y-34290000D01*
X105410000Y-43180000D02*
X121920000Y-43180000D01*
X93345000Y-43815000D02*
X104775000Y-43815000D01*
X66040000Y-52070000D02*
X72390000Y-52070000D01*
X72390000Y-52070000D02*
X73660000Y-50800000D01*
X73660000Y-45720000D02*
X74930000Y-44450000D01*
X121920000Y-43180000D02*
X128270000Y-36830000D01*
X74930000Y-44450000D02*
X92710000Y-44450000D01*
X104775000Y-43815000D02*
X105410000Y-43180000D01*
X73660000Y-50800000D02*
X73660000Y-45720000D01*
X128270000Y-36830000D02*
X130810000Y-36830000D01*
X92710000Y-44450000D02*
X93345000Y-43815000D01*
D22*
X146050000Y-49530000D02*
X146050000Y-57785000D01*
X146050000Y-57785000D02*
X145415000Y-58420000D01*
D21*
X80010000Y-63500000D02*
X85210000Y-63500000D01*
X85210000Y-63500000D02*
X88900000Y-63500000D01*
X80010000Y-55880000D02*
X85210000Y-55880000D01*
X85210000Y-55880000D02*
X88900000Y-55880000D01*
X97910000Y-63500000D02*
X92710000Y-63500000D01*
X97910000Y-63500000D02*
X101600000Y-63500000D01*
X92710000Y-55880000D02*
X97910000Y-55880000D01*
X101600000Y-55880000D02*
X97910000Y-55880000D01*
X114300000Y-63500000D02*
X110610000Y-63500000D01*
X110610000Y-63500000D02*
X105410000Y-63500000D01*
X105410000Y-55880000D02*
X110610000Y-55880000D01*
X114300000Y-55880000D02*
X110610000Y-55880000D01*
X118050000Y-63500000D02*
X123250000Y-63500000D01*
X127000000Y-63500000D02*
X123250000Y-63500000D01*
X88900000Y-48260000D02*
X85210000Y-48260000D01*
X85210000Y-48260000D02*
X80010000Y-48260000D01*
X101600000Y-48260000D02*
X97910000Y-48260000D01*
X92710000Y-48260000D02*
X97910000Y-48260000D01*
X114300000Y-48260000D02*
X110610000Y-48260000D01*
X110610000Y-48260000D02*
X105410000Y-48260000D01*
M02*
