G04 #@! TF.GenerationSoftware,KiCad,Pcbnew,8.0.2*
G04 #@! TF.CreationDate,2024-06-05T08:55:07+09:00*
G04 #@! TF.ProjectId,rainbow2v5-rp2040,7261696e-626f-4773-9276-352d72703230,rev?*
G04 #@! TF.SameCoordinates,Original*
G04 #@! TF.FileFunction,Legend,Top*
G04 #@! TF.FilePolarity,Positive*
%FSLAX46Y46*%
G04 Gerber Fmt 4.6, Leading zero omitted, Abs format (unit mm)*
G04 Created by KiCad (PCBNEW 8.0.2) date 2024-06-05 08:55:07*
%MOMM*%
%LPD*%
G01*
G04 APERTURE LIST*
G04 Aperture macros list*
%AMRoundRect*
0 Rectangle with rounded corners*
0 $1 Rounding radius*
0 $2 $3 $4 $5 $6 $7 $8 $9 X,Y pos of 4 corners*
0 Add a 4 corners polygon primitive as box body*
4,1,4,$2,$3,$4,$5,$6,$7,$8,$9,$2,$3,0*
0 Add four circle primitives for the rounded corners*
1,1,$1+$1,$2,$3*
1,1,$1+$1,$4,$5*
1,1,$1+$1,$6,$7*
1,1,$1+$1,$8,$9*
0 Add four rect primitives between the rounded corners*
20,1,$1+$1,$2,$3,$4,$5,0*
20,1,$1+$1,$4,$5,$6,$7,0*
20,1,$1+$1,$6,$7,$8,$9,0*
20,1,$1+$1,$8,$9,$2,$3,0*%
G04 Aperture macros list end*
%ADD10C,0.100000*%
%ADD11C,4.700000*%
%ADD12C,7.500000*%
%ADD13O,3.000000X2.000000*%
%ADD14RoundRect,0.250000X-0.725000X0.600000X-0.725000X-0.600000X0.725000X-0.600000X0.725000X0.600000X0*%
%ADD15O,1.950000X1.700000*%
%ADD16R,1.600000X1.600000*%
%ADD17O,1.600000X1.600000*%
G04 APERTURE END LIST*
D10*
X63500000Y-44450000D02*
X63500000Y-45720000D01*
X88900000Y-45720000D02*
X101600000Y-45720000D01*
X101600000Y-50800000D01*
X88900000Y-50800000D01*
X88900000Y-45720000D01*
X69850000Y-44450000D02*
X69850000Y-45720000D01*
X114300000Y-45720000D02*
X127000000Y-45720000D01*
X127000000Y-50800000D01*
X114300000Y-50800000D01*
X114300000Y-45720000D01*
X88900000Y-60960000D02*
X101600000Y-60960000D01*
X101600000Y-66040000D01*
X88900000Y-66040000D01*
X88900000Y-60960000D01*
X64770000Y-44450000D02*
X63500000Y-44450000D01*
X63500000Y-57150000D02*
X64770000Y-57150000D01*
X101600000Y-53340000D02*
X114300000Y-53340000D01*
X114300000Y-58420000D01*
X101600000Y-58420000D01*
X101600000Y-53340000D01*
X69850000Y-57150000D02*
X69850000Y-55880000D01*
X76200000Y-60960000D02*
X88900000Y-60960000D01*
X88900000Y-66040000D01*
X76200000Y-66040000D01*
X76200000Y-60960000D01*
X114300000Y-60960000D02*
X127000000Y-60960000D01*
X127000000Y-66040000D01*
X114300000Y-66040000D01*
X114300000Y-60960000D01*
X68580000Y-57150000D02*
X69850000Y-57150000D01*
X76200000Y-53340000D02*
X88900000Y-53340000D01*
X88900000Y-58420000D01*
X76200000Y-58420000D01*
X76200000Y-53340000D01*
X68580000Y-44450000D02*
X69850000Y-44450000D01*
X76200000Y-45720000D02*
X88900000Y-45720000D01*
X88900000Y-50800000D01*
X76200000Y-50800000D01*
X76200000Y-45720000D01*
X101600000Y-60960000D02*
X114300000Y-60960000D01*
X114300000Y-66040000D01*
X101600000Y-66040000D01*
X101600000Y-60960000D01*
X114300000Y-53340000D02*
X127000000Y-53340000D01*
X127000000Y-58420000D01*
X114300000Y-58420000D01*
X114300000Y-53340000D01*
X88900000Y-53340000D02*
X101600000Y-53340000D01*
X101600000Y-58420000D01*
X88900000Y-58420000D01*
X88900000Y-53340000D01*
X63500000Y-55880000D02*
X63500000Y-57150000D01*
X101600000Y-45720000D02*
X114300000Y-45720000D01*
X114300000Y-50800000D01*
X101600000Y-50800000D01*
X101600000Y-45720000D01*
X92297619Y-59147419D02*
X92916666Y-59147419D01*
X92916666Y-59147419D02*
X92583333Y-59528371D01*
X92583333Y-59528371D02*
X92726190Y-59528371D01*
X92726190Y-59528371D02*
X92821428Y-59575990D01*
X92821428Y-59575990D02*
X92869047Y-59623609D01*
X92869047Y-59623609D02*
X92916666Y-59718847D01*
X92916666Y-59718847D02*
X92916666Y-59956942D01*
X92916666Y-59956942D02*
X92869047Y-60052180D01*
X92869047Y-60052180D02*
X92821428Y-60099800D01*
X92821428Y-60099800D02*
X92726190Y-60147419D01*
X92726190Y-60147419D02*
X92440476Y-60147419D01*
X92440476Y-60147419D02*
X92345238Y-60099800D01*
X92345238Y-60099800D02*
X92297619Y-60052180D01*
X93630952Y-60528371D02*
X93583333Y-60480752D01*
X93583333Y-60480752D02*
X93488095Y-60337895D01*
X93488095Y-60337895D02*
X93440476Y-60242657D01*
X93440476Y-60242657D02*
X93392857Y-60099800D01*
X93392857Y-60099800D02*
X93345238Y-59861704D01*
X93345238Y-59861704D02*
X93345238Y-59671228D01*
X93345238Y-59671228D02*
X93392857Y-59433133D01*
X93392857Y-59433133D02*
X93440476Y-59290276D01*
X93440476Y-59290276D02*
X93488095Y-59195038D01*
X93488095Y-59195038D02*
X93583333Y-59052180D01*
X93583333Y-59052180D02*
X93630952Y-59004561D01*
X94535714Y-59195038D02*
X94440476Y-59147419D01*
X94440476Y-59147419D02*
X94297619Y-59147419D01*
X94297619Y-59147419D02*
X94154762Y-59195038D01*
X94154762Y-59195038D02*
X94059524Y-59290276D01*
X94059524Y-59290276D02*
X94011905Y-59385514D01*
X94011905Y-59385514D02*
X93964286Y-59575990D01*
X93964286Y-59575990D02*
X93964286Y-59718847D01*
X93964286Y-59718847D02*
X94011905Y-59909323D01*
X94011905Y-59909323D02*
X94059524Y-60004561D01*
X94059524Y-60004561D02*
X94154762Y-60099800D01*
X94154762Y-60099800D02*
X94297619Y-60147419D01*
X94297619Y-60147419D02*
X94392857Y-60147419D01*
X94392857Y-60147419D02*
X94535714Y-60099800D01*
X94535714Y-60099800D02*
X94583333Y-60052180D01*
X94583333Y-60052180D02*
X94583333Y-59718847D01*
X94583333Y-59718847D02*
X94392857Y-59718847D01*
X95011905Y-60147419D02*
X95011905Y-59147419D01*
X95011905Y-59147419D02*
X95392857Y-59147419D01*
X95392857Y-59147419D02*
X95488095Y-59195038D01*
X95488095Y-59195038D02*
X95535714Y-59242657D01*
X95535714Y-59242657D02*
X95583333Y-59337895D01*
X95583333Y-59337895D02*
X95583333Y-59480752D01*
X95583333Y-59480752D02*
X95535714Y-59575990D01*
X95535714Y-59575990D02*
X95488095Y-59623609D01*
X95488095Y-59623609D02*
X95392857Y-59671228D01*
X95392857Y-59671228D02*
X95011905Y-59671228D01*
X95964286Y-59242657D02*
X96011905Y-59195038D01*
X96011905Y-59195038D02*
X96107143Y-59147419D01*
X96107143Y-59147419D02*
X96345238Y-59147419D01*
X96345238Y-59147419D02*
X96440476Y-59195038D01*
X96440476Y-59195038D02*
X96488095Y-59242657D01*
X96488095Y-59242657D02*
X96535714Y-59337895D01*
X96535714Y-59337895D02*
X96535714Y-59433133D01*
X96535714Y-59433133D02*
X96488095Y-59575990D01*
X96488095Y-59575990D02*
X95916667Y-60147419D01*
X95916667Y-60147419D02*
X96535714Y-60147419D01*
X96869048Y-59147419D02*
X97535714Y-59147419D01*
X97535714Y-59147419D02*
X97107143Y-60147419D01*
X97821429Y-60528371D02*
X97869048Y-60480752D01*
X97869048Y-60480752D02*
X97964286Y-60337895D01*
X97964286Y-60337895D02*
X98011905Y-60242657D01*
X98011905Y-60242657D02*
X98059524Y-60099800D01*
X98059524Y-60099800D02*
X98107143Y-59861704D01*
X98107143Y-59861704D02*
X98107143Y-59671228D01*
X98107143Y-59671228D02*
X98059524Y-59433133D01*
X98059524Y-59433133D02*
X98011905Y-59290276D01*
X98011905Y-59290276D02*
X97964286Y-59195038D01*
X97964286Y-59195038D02*
X97869048Y-59052180D01*
X97869048Y-59052180D02*
X97821429Y-59004561D01*
X92821428Y-51860752D02*
X92821428Y-52527419D01*
X92583333Y-51479800D02*
X92345238Y-52194085D01*
X92345238Y-52194085D02*
X92964285Y-52194085D01*
X93630952Y-52908371D02*
X93583333Y-52860752D01*
X93583333Y-52860752D02*
X93488095Y-52717895D01*
X93488095Y-52717895D02*
X93440476Y-52622657D01*
X93440476Y-52622657D02*
X93392857Y-52479800D01*
X93392857Y-52479800D02*
X93345238Y-52241704D01*
X93345238Y-52241704D02*
X93345238Y-52051228D01*
X93345238Y-52051228D02*
X93392857Y-51813133D01*
X93392857Y-51813133D02*
X93440476Y-51670276D01*
X93440476Y-51670276D02*
X93488095Y-51575038D01*
X93488095Y-51575038D02*
X93583333Y-51432180D01*
X93583333Y-51432180D02*
X93630952Y-51384561D01*
X94535714Y-51575038D02*
X94440476Y-51527419D01*
X94440476Y-51527419D02*
X94297619Y-51527419D01*
X94297619Y-51527419D02*
X94154762Y-51575038D01*
X94154762Y-51575038D02*
X94059524Y-51670276D01*
X94059524Y-51670276D02*
X94011905Y-51765514D01*
X94011905Y-51765514D02*
X93964286Y-51955990D01*
X93964286Y-51955990D02*
X93964286Y-52098847D01*
X93964286Y-52098847D02*
X94011905Y-52289323D01*
X94011905Y-52289323D02*
X94059524Y-52384561D01*
X94059524Y-52384561D02*
X94154762Y-52479800D01*
X94154762Y-52479800D02*
X94297619Y-52527419D01*
X94297619Y-52527419D02*
X94392857Y-52527419D01*
X94392857Y-52527419D02*
X94535714Y-52479800D01*
X94535714Y-52479800D02*
X94583333Y-52432180D01*
X94583333Y-52432180D02*
X94583333Y-52098847D01*
X94583333Y-52098847D02*
X94392857Y-52098847D01*
X95011905Y-52527419D02*
X95011905Y-51527419D01*
X95011905Y-51527419D02*
X95392857Y-51527419D01*
X95392857Y-51527419D02*
X95488095Y-51575038D01*
X95488095Y-51575038D02*
X95535714Y-51622657D01*
X95535714Y-51622657D02*
X95583333Y-51717895D01*
X95583333Y-51717895D02*
X95583333Y-51860752D01*
X95583333Y-51860752D02*
X95535714Y-51955990D01*
X95535714Y-51955990D02*
X95488095Y-52003609D01*
X95488095Y-52003609D02*
X95392857Y-52051228D01*
X95392857Y-52051228D02*
X95011905Y-52051228D01*
X96535714Y-52527419D02*
X95964286Y-52527419D01*
X96250000Y-52527419D02*
X96250000Y-51527419D01*
X96250000Y-51527419D02*
X96154762Y-51670276D01*
X96154762Y-51670276D02*
X96059524Y-51765514D01*
X96059524Y-51765514D02*
X95964286Y-51813133D01*
X97392857Y-51860752D02*
X97392857Y-52527419D01*
X97154762Y-51479800D02*
X96916667Y-52194085D01*
X96916667Y-52194085D02*
X97535714Y-52194085D01*
X97821429Y-52908371D02*
X97869048Y-52860752D01*
X97869048Y-52860752D02*
X97964286Y-52717895D01*
X97964286Y-52717895D02*
X98011905Y-52622657D01*
X98011905Y-52622657D02*
X98059524Y-52479800D01*
X98059524Y-52479800D02*
X98107143Y-52241704D01*
X98107143Y-52241704D02*
X98107143Y-52051228D01*
X98107143Y-52051228D02*
X98059524Y-51813133D01*
X98059524Y-51813133D02*
X98011905Y-51670276D01*
X98011905Y-51670276D02*
X97964286Y-51575038D01*
X97964286Y-51575038D02*
X97869048Y-51432180D01*
X97869048Y-51432180D02*
X97821429Y-51384561D01*
X119888095Y-43955038D02*
X119792857Y-43907419D01*
X119792857Y-43907419D02*
X119650000Y-43907419D01*
X119650000Y-43907419D02*
X119507143Y-43955038D01*
X119507143Y-43955038D02*
X119411905Y-44050276D01*
X119411905Y-44050276D02*
X119364286Y-44145514D01*
X119364286Y-44145514D02*
X119316667Y-44335990D01*
X119316667Y-44335990D02*
X119316667Y-44478847D01*
X119316667Y-44478847D02*
X119364286Y-44669323D01*
X119364286Y-44669323D02*
X119411905Y-44764561D01*
X119411905Y-44764561D02*
X119507143Y-44859800D01*
X119507143Y-44859800D02*
X119650000Y-44907419D01*
X119650000Y-44907419D02*
X119745238Y-44907419D01*
X119745238Y-44907419D02*
X119888095Y-44859800D01*
X119888095Y-44859800D02*
X119935714Y-44812180D01*
X119935714Y-44812180D02*
X119935714Y-44478847D01*
X119935714Y-44478847D02*
X119745238Y-44478847D01*
X120364286Y-44907419D02*
X120364286Y-43907419D01*
X120364286Y-43907419D02*
X120935714Y-44907419D01*
X120935714Y-44907419D02*
X120935714Y-43907419D01*
X121411905Y-44907419D02*
X121411905Y-43907419D01*
X121411905Y-43907419D02*
X121650000Y-43907419D01*
X121650000Y-43907419D02*
X121792857Y-43955038D01*
X121792857Y-43955038D02*
X121888095Y-44050276D01*
X121888095Y-44050276D02*
X121935714Y-44145514D01*
X121935714Y-44145514D02*
X121983333Y-44335990D01*
X121983333Y-44335990D02*
X121983333Y-44478847D01*
X121983333Y-44478847D02*
X121935714Y-44669323D01*
X121935714Y-44669323D02*
X121888095Y-44764561D01*
X121888095Y-44764561D02*
X121792857Y-44859800D01*
X121792857Y-44859800D02*
X121650000Y-44907419D01*
X121650000Y-44907419D02*
X121411905Y-44907419D01*
X117697619Y-59147419D02*
X118364285Y-59147419D01*
X118364285Y-59147419D02*
X117935714Y-60147419D01*
X119030952Y-60528371D02*
X118983333Y-60480752D01*
X118983333Y-60480752D02*
X118888095Y-60337895D01*
X118888095Y-60337895D02*
X118840476Y-60242657D01*
X118840476Y-60242657D02*
X118792857Y-60099800D01*
X118792857Y-60099800D02*
X118745238Y-59861704D01*
X118745238Y-59861704D02*
X118745238Y-59671228D01*
X118745238Y-59671228D02*
X118792857Y-59433133D01*
X118792857Y-59433133D02*
X118840476Y-59290276D01*
X118840476Y-59290276D02*
X118888095Y-59195038D01*
X118888095Y-59195038D02*
X118983333Y-59052180D01*
X118983333Y-59052180D02*
X119030952Y-59004561D01*
X119935714Y-59195038D02*
X119840476Y-59147419D01*
X119840476Y-59147419D02*
X119697619Y-59147419D01*
X119697619Y-59147419D02*
X119554762Y-59195038D01*
X119554762Y-59195038D02*
X119459524Y-59290276D01*
X119459524Y-59290276D02*
X119411905Y-59385514D01*
X119411905Y-59385514D02*
X119364286Y-59575990D01*
X119364286Y-59575990D02*
X119364286Y-59718847D01*
X119364286Y-59718847D02*
X119411905Y-59909323D01*
X119411905Y-59909323D02*
X119459524Y-60004561D01*
X119459524Y-60004561D02*
X119554762Y-60099800D01*
X119554762Y-60099800D02*
X119697619Y-60147419D01*
X119697619Y-60147419D02*
X119792857Y-60147419D01*
X119792857Y-60147419D02*
X119935714Y-60099800D01*
X119935714Y-60099800D02*
X119983333Y-60052180D01*
X119983333Y-60052180D02*
X119983333Y-59718847D01*
X119983333Y-59718847D02*
X119792857Y-59718847D01*
X120411905Y-60147419D02*
X120411905Y-59147419D01*
X120411905Y-59147419D02*
X120792857Y-59147419D01*
X120792857Y-59147419D02*
X120888095Y-59195038D01*
X120888095Y-59195038D02*
X120935714Y-59242657D01*
X120935714Y-59242657D02*
X120983333Y-59337895D01*
X120983333Y-59337895D02*
X120983333Y-59480752D01*
X120983333Y-59480752D02*
X120935714Y-59575990D01*
X120935714Y-59575990D02*
X120888095Y-59623609D01*
X120888095Y-59623609D02*
X120792857Y-59671228D01*
X120792857Y-59671228D02*
X120411905Y-59671228D01*
X121364286Y-59242657D02*
X121411905Y-59195038D01*
X121411905Y-59195038D02*
X121507143Y-59147419D01*
X121507143Y-59147419D02*
X121745238Y-59147419D01*
X121745238Y-59147419D02*
X121840476Y-59195038D01*
X121840476Y-59195038D02*
X121888095Y-59242657D01*
X121888095Y-59242657D02*
X121935714Y-59337895D01*
X121935714Y-59337895D02*
X121935714Y-59433133D01*
X121935714Y-59433133D02*
X121888095Y-59575990D01*
X121888095Y-59575990D02*
X121316667Y-60147419D01*
X121316667Y-60147419D02*
X121935714Y-60147419D01*
X122411905Y-60147419D02*
X122602381Y-60147419D01*
X122602381Y-60147419D02*
X122697619Y-60099800D01*
X122697619Y-60099800D02*
X122745238Y-60052180D01*
X122745238Y-60052180D02*
X122840476Y-59909323D01*
X122840476Y-59909323D02*
X122888095Y-59718847D01*
X122888095Y-59718847D02*
X122888095Y-59337895D01*
X122888095Y-59337895D02*
X122840476Y-59242657D01*
X122840476Y-59242657D02*
X122792857Y-59195038D01*
X122792857Y-59195038D02*
X122697619Y-59147419D01*
X122697619Y-59147419D02*
X122507143Y-59147419D01*
X122507143Y-59147419D02*
X122411905Y-59195038D01*
X122411905Y-59195038D02*
X122364286Y-59242657D01*
X122364286Y-59242657D02*
X122316667Y-59337895D01*
X122316667Y-59337895D02*
X122316667Y-59575990D01*
X122316667Y-59575990D02*
X122364286Y-59671228D01*
X122364286Y-59671228D02*
X122411905Y-59718847D01*
X122411905Y-59718847D02*
X122507143Y-59766466D01*
X122507143Y-59766466D02*
X122697619Y-59766466D01*
X122697619Y-59766466D02*
X122792857Y-59718847D01*
X122792857Y-59718847D02*
X122840476Y-59671228D01*
X122840476Y-59671228D02*
X122888095Y-59575990D01*
X123221429Y-60528371D02*
X123269048Y-60480752D01*
X123269048Y-60480752D02*
X123364286Y-60337895D01*
X123364286Y-60337895D02*
X123411905Y-60242657D01*
X123411905Y-60242657D02*
X123459524Y-60099800D01*
X123459524Y-60099800D02*
X123507143Y-59861704D01*
X123507143Y-59861704D02*
X123507143Y-59671228D01*
X123507143Y-59671228D02*
X123459524Y-59433133D01*
X123459524Y-59433133D02*
X123411905Y-59290276D01*
X123411905Y-59290276D02*
X123364286Y-59195038D01*
X123364286Y-59195038D02*
X123269048Y-59052180D01*
X123269048Y-59052180D02*
X123221429Y-59004561D01*
X105521428Y-51527419D02*
X105330952Y-51527419D01*
X105330952Y-51527419D02*
X105235714Y-51575038D01*
X105235714Y-51575038D02*
X105188095Y-51622657D01*
X105188095Y-51622657D02*
X105092857Y-51765514D01*
X105092857Y-51765514D02*
X105045238Y-51955990D01*
X105045238Y-51955990D02*
X105045238Y-52336942D01*
X105045238Y-52336942D02*
X105092857Y-52432180D01*
X105092857Y-52432180D02*
X105140476Y-52479800D01*
X105140476Y-52479800D02*
X105235714Y-52527419D01*
X105235714Y-52527419D02*
X105426190Y-52527419D01*
X105426190Y-52527419D02*
X105521428Y-52479800D01*
X105521428Y-52479800D02*
X105569047Y-52432180D01*
X105569047Y-52432180D02*
X105616666Y-52336942D01*
X105616666Y-52336942D02*
X105616666Y-52098847D01*
X105616666Y-52098847D02*
X105569047Y-52003609D01*
X105569047Y-52003609D02*
X105521428Y-51955990D01*
X105521428Y-51955990D02*
X105426190Y-51908371D01*
X105426190Y-51908371D02*
X105235714Y-51908371D01*
X105235714Y-51908371D02*
X105140476Y-51955990D01*
X105140476Y-51955990D02*
X105092857Y-52003609D01*
X105092857Y-52003609D02*
X105045238Y-52098847D01*
X106330952Y-52908371D02*
X106283333Y-52860752D01*
X106283333Y-52860752D02*
X106188095Y-52717895D01*
X106188095Y-52717895D02*
X106140476Y-52622657D01*
X106140476Y-52622657D02*
X106092857Y-52479800D01*
X106092857Y-52479800D02*
X106045238Y-52241704D01*
X106045238Y-52241704D02*
X106045238Y-52051228D01*
X106045238Y-52051228D02*
X106092857Y-51813133D01*
X106092857Y-51813133D02*
X106140476Y-51670276D01*
X106140476Y-51670276D02*
X106188095Y-51575038D01*
X106188095Y-51575038D02*
X106283333Y-51432180D01*
X106283333Y-51432180D02*
X106330952Y-51384561D01*
X107235714Y-51575038D02*
X107140476Y-51527419D01*
X107140476Y-51527419D02*
X106997619Y-51527419D01*
X106997619Y-51527419D02*
X106854762Y-51575038D01*
X106854762Y-51575038D02*
X106759524Y-51670276D01*
X106759524Y-51670276D02*
X106711905Y-51765514D01*
X106711905Y-51765514D02*
X106664286Y-51955990D01*
X106664286Y-51955990D02*
X106664286Y-52098847D01*
X106664286Y-52098847D02*
X106711905Y-52289323D01*
X106711905Y-52289323D02*
X106759524Y-52384561D01*
X106759524Y-52384561D02*
X106854762Y-52479800D01*
X106854762Y-52479800D02*
X106997619Y-52527419D01*
X106997619Y-52527419D02*
X107092857Y-52527419D01*
X107092857Y-52527419D02*
X107235714Y-52479800D01*
X107235714Y-52479800D02*
X107283333Y-52432180D01*
X107283333Y-52432180D02*
X107283333Y-52098847D01*
X107283333Y-52098847D02*
X107092857Y-52098847D01*
X107711905Y-52527419D02*
X107711905Y-51527419D01*
X107711905Y-51527419D02*
X108092857Y-51527419D01*
X108092857Y-51527419D02*
X108188095Y-51575038D01*
X108188095Y-51575038D02*
X108235714Y-51622657D01*
X108235714Y-51622657D02*
X108283333Y-51717895D01*
X108283333Y-51717895D02*
X108283333Y-51860752D01*
X108283333Y-51860752D02*
X108235714Y-51955990D01*
X108235714Y-51955990D02*
X108188095Y-52003609D01*
X108188095Y-52003609D02*
X108092857Y-52051228D01*
X108092857Y-52051228D02*
X107711905Y-52051228D01*
X109235714Y-52527419D02*
X108664286Y-52527419D01*
X108950000Y-52527419D02*
X108950000Y-51527419D01*
X108950000Y-51527419D02*
X108854762Y-51670276D01*
X108854762Y-51670276D02*
X108759524Y-51765514D01*
X108759524Y-51765514D02*
X108664286Y-51813133D01*
X110140476Y-51527419D02*
X109664286Y-51527419D01*
X109664286Y-51527419D02*
X109616667Y-52003609D01*
X109616667Y-52003609D02*
X109664286Y-51955990D01*
X109664286Y-51955990D02*
X109759524Y-51908371D01*
X109759524Y-51908371D02*
X109997619Y-51908371D01*
X109997619Y-51908371D02*
X110092857Y-51955990D01*
X110092857Y-51955990D02*
X110140476Y-52003609D01*
X110140476Y-52003609D02*
X110188095Y-52098847D01*
X110188095Y-52098847D02*
X110188095Y-52336942D01*
X110188095Y-52336942D02*
X110140476Y-52432180D01*
X110140476Y-52432180D02*
X110092857Y-52479800D01*
X110092857Y-52479800D02*
X109997619Y-52527419D01*
X109997619Y-52527419D02*
X109759524Y-52527419D01*
X109759524Y-52527419D02*
X109664286Y-52479800D01*
X109664286Y-52479800D02*
X109616667Y-52432180D01*
X110521429Y-52908371D02*
X110569048Y-52860752D01*
X110569048Y-52860752D02*
X110664286Y-52717895D01*
X110664286Y-52717895D02*
X110711905Y-52622657D01*
X110711905Y-52622657D02*
X110759524Y-52479800D01*
X110759524Y-52479800D02*
X110807143Y-52241704D01*
X110807143Y-52241704D02*
X110807143Y-52051228D01*
X110807143Y-52051228D02*
X110759524Y-51813133D01*
X110759524Y-51813133D02*
X110711905Y-51670276D01*
X110711905Y-51670276D02*
X110664286Y-51575038D01*
X110664286Y-51575038D02*
X110569048Y-51432180D01*
X110569048Y-51432180D02*
X110521429Y-51384561D01*
X79645238Y-51622657D02*
X79692857Y-51575038D01*
X79692857Y-51575038D02*
X79788095Y-51527419D01*
X79788095Y-51527419D02*
X80026190Y-51527419D01*
X80026190Y-51527419D02*
X80121428Y-51575038D01*
X80121428Y-51575038D02*
X80169047Y-51622657D01*
X80169047Y-51622657D02*
X80216666Y-51717895D01*
X80216666Y-51717895D02*
X80216666Y-51813133D01*
X80216666Y-51813133D02*
X80169047Y-51955990D01*
X80169047Y-51955990D02*
X79597619Y-52527419D01*
X79597619Y-52527419D02*
X80216666Y-52527419D01*
X80930952Y-52908371D02*
X80883333Y-52860752D01*
X80883333Y-52860752D02*
X80788095Y-52717895D01*
X80788095Y-52717895D02*
X80740476Y-52622657D01*
X80740476Y-52622657D02*
X80692857Y-52479800D01*
X80692857Y-52479800D02*
X80645238Y-52241704D01*
X80645238Y-52241704D02*
X80645238Y-52051228D01*
X80645238Y-52051228D02*
X80692857Y-51813133D01*
X80692857Y-51813133D02*
X80740476Y-51670276D01*
X80740476Y-51670276D02*
X80788095Y-51575038D01*
X80788095Y-51575038D02*
X80883333Y-51432180D01*
X80883333Y-51432180D02*
X80930952Y-51384561D01*
X81835714Y-51575038D02*
X81740476Y-51527419D01*
X81740476Y-51527419D02*
X81597619Y-51527419D01*
X81597619Y-51527419D02*
X81454762Y-51575038D01*
X81454762Y-51575038D02*
X81359524Y-51670276D01*
X81359524Y-51670276D02*
X81311905Y-51765514D01*
X81311905Y-51765514D02*
X81264286Y-51955990D01*
X81264286Y-51955990D02*
X81264286Y-52098847D01*
X81264286Y-52098847D02*
X81311905Y-52289323D01*
X81311905Y-52289323D02*
X81359524Y-52384561D01*
X81359524Y-52384561D02*
X81454762Y-52479800D01*
X81454762Y-52479800D02*
X81597619Y-52527419D01*
X81597619Y-52527419D02*
X81692857Y-52527419D01*
X81692857Y-52527419D02*
X81835714Y-52479800D01*
X81835714Y-52479800D02*
X81883333Y-52432180D01*
X81883333Y-52432180D02*
X81883333Y-52098847D01*
X81883333Y-52098847D02*
X81692857Y-52098847D01*
X82311905Y-52527419D02*
X82311905Y-51527419D01*
X82311905Y-51527419D02*
X82692857Y-51527419D01*
X82692857Y-51527419D02*
X82788095Y-51575038D01*
X82788095Y-51575038D02*
X82835714Y-51622657D01*
X82835714Y-51622657D02*
X82883333Y-51717895D01*
X82883333Y-51717895D02*
X82883333Y-51860752D01*
X82883333Y-51860752D02*
X82835714Y-51955990D01*
X82835714Y-51955990D02*
X82788095Y-52003609D01*
X82788095Y-52003609D02*
X82692857Y-52051228D01*
X82692857Y-52051228D02*
X82311905Y-52051228D01*
X83835714Y-52527419D02*
X83264286Y-52527419D01*
X83550000Y-52527419D02*
X83550000Y-51527419D01*
X83550000Y-51527419D02*
X83454762Y-51670276D01*
X83454762Y-51670276D02*
X83359524Y-51765514D01*
X83359524Y-51765514D02*
X83264286Y-51813133D01*
X84169048Y-51527419D02*
X84788095Y-51527419D01*
X84788095Y-51527419D02*
X84454762Y-51908371D01*
X84454762Y-51908371D02*
X84597619Y-51908371D01*
X84597619Y-51908371D02*
X84692857Y-51955990D01*
X84692857Y-51955990D02*
X84740476Y-52003609D01*
X84740476Y-52003609D02*
X84788095Y-52098847D01*
X84788095Y-52098847D02*
X84788095Y-52336942D01*
X84788095Y-52336942D02*
X84740476Y-52432180D01*
X84740476Y-52432180D02*
X84692857Y-52479800D01*
X84692857Y-52479800D02*
X84597619Y-52527419D01*
X84597619Y-52527419D02*
X84311905Y-52527419D01*
X84311905Y-52527419D02*
X84216667Y-52479800D01*
X84216667Y-52479800D02*
X84169048Y-52432180D01*
X85121429Y-52908371D02*
X85169048Y-52860752D01*
X85169048Y-52860752D02*
X85264286Y-52717895D01*
X85264286Y-52717895D02*
X85311905Y-52622657D01*
X85311905Y-52622657D02*
X85359524Y-52479800D01*
X85359524Y-52479800D02*
X85407143Y-52241704D01*
X85407143Y-52241704D02*
X85407143Y-52051228D01*
X85407143Y-52051228D02*
X85359524Y-51813133D01*
X85359524Y-51813133D02*
X85311905Y-51670276D01*
X85311905Y-51670276D02*
X85264286Y-51575038D01*
X85264286Y-51575038D02*
X85169048Y-51432180D01*
X85169048Y-51432180D02*
X85121429Y-51384561D01*
X69217217Y-52003609D02*
X69360074Y-52051228D01*
X69360074Y-52051228D02*
X69407693Y-52098847D01*
X69407693Y-52098847D02*
X69455312Y-52194085D01*
X69455312Y-52194085D02*
X69455312Y-52336942D01*
X69455312Y-52336942D02*
X69407693Y-52432180D01*
X69407693Y-52432180D02*
X69360074Y-52479800D01*
X69360074Y-52479800D02*
X69264836Y-52527419D01*
X69264836Y-52527419D02*
X68883884Y-52527419D01*
X68883884Y-52527419D02*
X68883884Y-51527419D01*
X68883884Y-51527419D02*
X69217217Y-51527419D01*
X69217217Y-51527419D02*
X69312455Y-51575038D01*
X69312455Y-51575038D02*
X69360074Y-51622657D01*
X69360074Y-51622657D02*
X69407693Y-51717895D01*
X69407693Y-51717895D02*
X69407693Y-51813133D01*
X69407693Y-51813133D02*
X69360074Y-51908371D01*
X69360074Y-51908371D02*
X69312455Y-51955990D01*
X69312455Y-51955990D02*
X69217217Y-52003609D01*
X69217217Y-52003609D02*
X68883884Y-52003609D01*
X70169598Y-52908371D02*
X70121979Y-52860752D01*
X70121979Y-52860752D02*
X70026741Y-52717895D01*
X70026741Y-52717895D02*
X69979122Y-52622657D01*
X69979122Y-52622657D02*
X69931503Y-52479800D01*
X69931503Y-52479800D02*
X69883884Y-52241704D01*
X69883884Y-52241704D02*
X69883884Y-52051228D01*
X69883884Y-52051228D02*
X69931503Y-51813133D01*
X69931503Y-51813133D02*
X69979122Y-51670276D01*
X69979122Y-51670276D02*
X70026741Y-51575038D01*
X70026741Y-51575038D02*
X70121979Y-51432180D01*
X70121979Y-51432180D02*
X70169598Y-51384561D01*
X71074360Y-51575038D02*
X70979122Y-51527419D01*
X70979122Y-51527419D02*
X70836265Y-51527419D01*
X70836265Y-51527419D02*
X70693408Y-51575038D01*
X70693408Y-51575038D02*
X70598170Y-51670276D01*
X70598170Y-51670276D02*
X70550551Y-51765514D01*
X70550551Y-51765514D02*
X70502932Y-51955990D01*
X70502932Y-51955990D02*
X70502932Y-52098847D01*
X70502932Y-52098847D02*
X70550551Y-52289323D01*
X70550551Y-52289323D02*
X70598170Y-52384561D01*
X70598170Y-52384561D02*
X70693408Y-52479800D01*
X70693408Y-52479800D02*
X70836265Y-52527419D01*
X70836265Y-52527419D02*
X70931503Y-52527419D01*
X70931503Y-52527419D02*
X71074360Y-52479800D01*
X71074360Y-52479800D02*
X71121979Y-52432180D01*
X71121979Y-52432180D02*
X71121979Y-52098847D01*
X71121979Y-52098847D02*
X70931503Y-52098847D01*
X71550551Y-52527419D02*
X71550551Y-51527419D01*
X71550551Y-51527419D02*
X71931503Y-51527419D01*
X71931503Y-51527419D02*
X72026741Y-51575038D01*
X72026741Y-51575038D02*
X72074360Y-51622657D01*
X72074360Y-51622657D02*
X72121979Y-51717895D01*
X72121979Y-51717895D02*
X72121979Y-51860752D01*
X72121979Y-51860752D02*
X72074360Y-51955990D01*
X72074360Y-51955990D02*
X72026741Y-52003609D01*
X72026741Y-52003609D02*
X71931503Y-52051228D01*
X71931503Y-52051228D02*
X71550551Y-52051228D01*
X72598170Y-52527419D02*
X72788646Y-52527419D01*
X72788646Y-52527419D02*
X72883884Y-52479800D01*
X72883884Y-52479800D02*
X72931503Y-52432180D01*
X72931503Y-52432180D02*
X73026741Y-52289323D01*
X73026741Y-52289323D02*
X73074360Y-52098847D01*
X73074360Y-52098847D02*
X73074360Y-51717895D01*
X73074360Y-51717895D02*
X73026741Y-51622657D01*
X73026741Y-51622657D02*
X72979122Y-51575038D01*
X72979122Y-51575038D02*
X72883884Y-51527419D01*
X72883884Y-51527419D02*
X72693408Y-51527419D01*
X72693408Y-51527419D02*
X72598170Y-51575038D01*
X72598170Y-51575038D02*
X72550551Y-51622657D01*
X72550551Y-51622657D02*
X72502932Y-51717895D01*
X72502932Y-51717895D02*
X72502932Y-51955990D01*
X72502932Y-51955990D02*
X72550551Y-52051228D01*
X72550551Y-52051228D02*
X72598170Y-52098847D01*
X72598170Y-52098847D02*
X72693408Y-52146466D01*
X72693408Y-52146466D02*
X72883884Y-52146466D01*
X72883884Y-52146466D02*
X72979122Y-52098847D01*
X72979122Y-52098847D02*
X73026741Y-52051228D01*
X73026741Y-52051228D02*
X73074360Y-51955990D01*
X73407694Y-52908371D02*
X73455313Y-52860752D01*
X73455313Y-52860752D02*
X73550551Y-52717895D01*
X73550551Y-52717895D02*
X73598170Y-52622657D01*
X73598170Y-52622657D02*
X73645789Y-52479800D01*
X73645789Y-52479800D02*
X73693408Y-52241704D01*
X73693408Y-52241704D02*
X73693408Y-52051228D01*
X73693408Y-52051228D02*
X73645789Y-51813133D01*
X73645789Y-51813133D02*
X73598170Y-51670276D01*
X73598170Y-51670276D02*
X73550551Y-51575038D01*
X73550551Y-51575038D02*
X73455313Y-51432180D01*
X73455313Y-51432180D02*
X73407694Y-51384561D01*
X105569047Y-59147419D02*
X105092857Y-59147419D01*
X105092857Y-59147419D02*
X105045238Y-59623609D01*
X105045238Y-59623609D02*
X105092857Y-59575990D01*
X105092857Y-59575990D02*
X105188095Y-59528371D01*
X105188095Y-59528371D02*
X105426190Y-59528371D01*
X105426190Y-59528371D02*
X105521428Y-59575990D01*
X105521428Y-59575990D02*
X105569047Y-59623609D01*
X105569047Y-59623609D02*
X105616666Y-59718847D01*
X105616666Y-59718847D02*
X105616666Y-59956942D01*
X105616666Y-59956942D02*
X105569047Y-60052180D01*
X105569047Y-60052180D02*
X105521428Y-60099800D01*
X105521428Y-60099800D02*
X105426190Y-60147419D01*
X105426190Y-60147419D02*
X105188095Y-60147419D01*
X105188095Y-60147419D02*
X105092857Y-60099800D01*
X105092857Y-60099800D02*
X105045238Y-60052180D01*
X106330952Y-60528371D02*
X106283333Y-60480752D01*
X106283333Y-60480752D02*
X106188095Y-60337895D01*
X106188095Y-60337895D02*
X106140476Y-60242657D01*
X106140476Y-60242657D02*
X106092857Y-60099800D01*
X106092857Y-60099800D02*
X106045238Y-59861704D01*
X106045238Y-59861704D02*
X106045238Y-59671228D01*
X106045238Y-59671228D02*
X106092857Y-59433133D01*
X106092857Y-59433133D02*
X106140476Y-59290276D01*
X106140476Y-59290276D02*
X106188095Y-59195038D01*
X106188095Y-59195038D02*
X106283333Y-59052180D01*
X106283333Y-59052180D02*
X106330952Y-59004561D01*
X107235714Y-59195038D02*
X107140476Y-59147419D01*
X107140476Y-59147419D02*
X106997619Y-59147419D01*
X106997619Y-59147419D02*
X106854762Y-59195038D01*
X106854762Y-59195038D02*
X106759524Y-59290276D01*
X106759524Y-59290276D02*
X106711905Y-59385514D01*
X106711905Y-59385514D02*
X106664286Y-59575990D01*
X106664286Y-59575990D02*
X106664286Y-59718847D01*
X106664286Y-59718847D02*
X106711905Y-59909323D01*
X106711905Y-59909323D02*
X106759524Y-60004561D01*
X106759524Y-60004561D02*
X106854762Y-60099800D01*
X106854762Y-60099800D02*
X106997619Y-60147419D01*
X106997619Y-60147419D02*
X107092857Y-60147419D01*
X107092857Y-60147419D02*
X107235714Y-60099800D01*
X107235714Y-60099800D02*
X107283333Y-60052180D01*
X107283333Y-60052180D02*
X107283333Y-59718847D01*
X107283333Y-59718847D02*
X107092857Y-59718847D01*
X107711905Y-60147419D02*
X107711905Y-59147419D01*
X107711905Y-59147419D02*
X108092857Y-59147419D01*
X108092857Y-59147419D02*
X108188095Y-59195038D01*
X108188095Y-59195038D02*
X108235714Y-59242657D01*
X108235714Y-59242657D02*
X108283333Y-59337895D01*
X108283333Y-59337895D02*
X108283333Y-59480752D01*
X108283333Y-59480752D02*
X108235714Y-59575990D01*
X108235714Y-59575990D02*
X108188095Y-59623609D01*
X108188095Y-59623609D02*
X108092857Y-59671228D01*
X108092857Y-59671228D02*
X107711905Y-59671228D01*
X108664286Y-59242657D02*
X108711905Y-59195038D01*
X108711905Y-59195038D02*
X108807143Y-59147419D01*
X108807143Y-59147419D02*
X109045238Y-59147419D01*
X109045238Y-59147419D02*
X109140476Y-59195038D01*
X109140476Y-59195038D02*
X109188095Y-59242657D01*
X109188095Y-59242657D02*
X109235714Y-59337895D01*
X109235714Y-59337895D02*
X109235714Y-59433133D01*
X109235714Y-59433133D02*
X109188095Y-59575990D01*
X109188095Y-59575990D02*
X108616667Y-60147419D01*
X108616667Y-60147419D02*
X109235714Y-60147419D01*
X109807143Y-59575990D02*
X109711905Y-59528371D01*
X109711905Y-59528371D02*
X109664286Y-59480752D01*
X109664286Y-59480752D02*
X109616667Y-59385514D01*
X109616667Y-59385514D02*
X109616667Y-59337895D01*
X109616667Y-59337895D02*
X109664286Y-59242657D01*
X109664286Y-59242657D02*
X109711905Y-59195038D01*
X109711905Y-59195038D02*
X109807143Y-59147419D01*
X109807143Y-59147419D02*
X109997619Y-59147419D01*
X109997619Y-59147419D02*
X110092857Y-59195038D01*
X110092857Y-59195038D02*
X110140476Y-59242657D01*
X110140476Y-59242657D02*
X110188095Y-59337895D01*
X110188095Y-59337895D02*
X110188095Y-59385514D01*
X110188095Y-59385514D02*
X110140476Y-59480752D01*
X110140476Y-59480752D02*
X110092857Y-59528371D01*
X110092857Y-59528371D02*
X109997619Y-59575990D01*
X109997619Y-59575990D02*
X109807143Y-59575990D01*
X109807143Y-59575990D02*
X109711905Y-59623609D01*
X109711905Y-59623609D02*
X109664286Y-59671228D01*
X109664286Y-59671228D02*
X109616667Y-59766466D01*
X109616667Y-59766466D02*
X109616667Y-59956942D01*
X109616667Y-59956942D02*
X109664286Y-60052180D01*
X109664286Y-60052180D02*
X109711905Y-60099800D01*
X109711905Y-60099800D02*
X109807143Y-60147419D01*
X109807143Y-60147419D02*
X109997619Y-60147419D01*
X109997619Y-60147419D02*
X110092857Y-60099800D01*
X110092857Y-60099800D02*
X110140476Y-60052180D01*
X110140476Y-60052180D02*
X110188095Y-59956942D01*
X110188095Y-59956942D02*
X110188095Y-59766466D01*
X110188095Y-59766466D02*
X110140476Y-59671228D01*
X110140476Y-59671228D02*
X110092857Y-59623609D01*
X110092857Y-59623609D02*
X109997619Y-59575990D01*
X110521429Y-60528371D02*
X110569048Y-60480752D01*
X110569048Y-60480752D02*
X110664286Y-60337895D01*
X110664286Y-60337895D02*
X110711905Y-60242657D01*
X110711905Y-60242657D02*
X110759524Y-60099800D01*
X110759524Y-60099800D02*
X110807143Y-59861704D01*
X110807143Y-59861704D02*
X110807143Y-59671228D01*
X110807143Y-59671228D02*
X110759524Y-59433133D01*
X110759524Y-59433133D02*
X110711905Y-59290276D01*
X110711905Y-59290276D02*
X110664286Y-59195038D01*
X110664286Y-59195038D02*
X110569048Y-59052180D01*
X110569048Y-59052180D02*
X110521429Y-59004561D01*
X80216666Y-60147419D02*
X79645238Y-60147419D01*
X79930952Y-60147419D02*
X79930952Y-59147419D01*
X79930952Y-59147419D02*
X79835714Y-59290276D01*
X79835714Y-59290276D02*
X79740476Y-59385514D01*
X79740476Y-59385514D02*
X79645238Y-59433133D01*
X80930952Y-60528371D02*
X80883333Y-60480752D01*
X80883333Y-60480752D02*
X80788095Y-60337895D01*
X80788095Y-60337895D02*
X80740476Y-60242657D01*
X80740476Y-60242657D02*
X80692857Y-60099800D01*
X80692857Y-60099800D02*
X80645238Y-59861704D01*
X80645238Y-59861704D02*
X80645238Y-59671228D01*
X80645238Y-59671228D02*
X80692857Y-59433133D01*
X80692857Y-59433133D02*
X80740476Y-59290276D01*
X80740476Y-59290276D02*
X80788095Y-59195038D01*
X80788095Y-59195038D02*
X80883333Y-59052180D01*
X80883333Y-59052180D02*
X80930952Y-59004561D01*
X81835714Y-59195038D02*
X81740476Y-59147419D01*
X81740476Y-59147419D02*
X81597619Y-59147419D01*
X81597619Y-59147419D02*
X81454762Y-59195038D01*
X81454762Y-59195038D02*
X81359524Y-59290276D01*
X81359524Y-59290276D02*
X81311905Y-59385514D01*
X81311905Y-59385514D02*
X81264286Y-59575990D01*
X81264286Y-59575990D02*
X81264286Y-59718847D01*
X81264286Y-59718847D02*
X81311905Y-59909323D01*
X81311905Y-59909323D02*
X81359524Y-60004561D01*
X81359524Y-60004561D02*
X81454762Y-60099800D01*
X81454762Y-60099800D02*
X81597619Y-60147419D01*
X81597619Y-60147419D02*
X81692857Y-60147419D01*
X81692857Y-60147419D02*
X81835714Y-60099800D01*
X81835714Y-60099800D02*
X81883333Y-60052180D01*
X81883333Y-60052180D02*
X81883333Y-59718847D01*
X81883333Y-59718847D02*
X81692857Y-59718847D01*
X82311905Y-60147419D02*
X82311905Y-59147419D01*
X82311905Y-59147419D02*
X82692857Y-59147419D01*
X82692857Y-59147419D02*
X82788095Y-59195038D01*
X82788095Y-59195038D02*
X82835714Y-59242657D01*
X82835714Y-59242657D02*
X82883333Y-59337895D01*
X82883333Y-59337895D02*
X82883333Y-59480752D01*
X82883333Y-59480752D02*
X82835714Y-59575990D01*
X82835714Y-59575990D02*
X82788095Y-59623609D01*
X82788095Y-59623609D02*
X82692857Y-59671228D01*
X82692857Y-59671228D02*
X82311905Y-59671228D01*
X83264286Y-59242657D02*
X83311905Y-59195038D01*
X83311905Y-59195038D02*
X83407143Y-59147419D01*
X83407143Y-59147419D02*
X83645238Y-59147419D01*
X83645238Y-59147419D02*
X83740476Y-59195038D01*
X83740476Y-59195038D02*
X83788095Y-59242657D01*
X83788095Y-59242657D02*
X83835714Y-59337895D01*
X83835714Y-59337895D02*
X83835714Y-59433133D01*
X83835714Y-59433133D02*
X83788095Y-59575990D01*
X83788095Y-59575990D02*
X83216667Y-60147419D01*
X83216667Y-60147419D02*
X83835714Y-60147419D01*
X84692857Y-59147419D02*
X84502381Y-59147419D01*
X84502381Y-59147419D02*
X84407143Y-59195038D01*
X84407143Y-59195038D02*
X84359524Y-59242657D01*
X84359524Y-59242657D02*
X84264286Y-59385514D01*
X84264286Y-59385514D02*
X84216667Y-59575990D01*
X84216667Y-59575990D02*
X84216667Y-59956942D01*
X84216667Y-59956942D02*
X84264286Y-60052180D01*
X84264286Y-60052180D02*
X84311905Y-60099800D01*
X84311905Y-60099800D02*
X84407143Y-60147419D01*
X84407143Y-60147419D02*
X84597619Y-60147419D01*
X84597619Y-60147419D02*
X84692857Y-60099800D01*
X84692857Y-60099800D02*
X84740476Y-60052180D01*
X84740476Y-60052180D02*
X84788095Y-59956942D01*
X84788095Y-59956942D02*
X84788095Y-59718847D01*
X84788095Y-59718847D02*
X84740476Y-59623609D01*
X84740476Y-59623609D02*
X84692857Y-59575990D01*
X84692857Y-59575990D02*
X84597619Y-59528371D01*
X84597619Y-59528371D02*
X84407143Y-59528371D01*
X84407143Y-59528371D02*
X84311905Y-59575990D01*
X84311905Y-59575990D02*
X84264286Y-59623609D01*
X84264286Y-59623609D02*
X84216667Y-59718847D01*
X85121429Y-60528371D02*
X85169048Y-60480752D01*
X85169048Y-60480752D02*
X85264286Y-60337895D01*
X85264286Y-60337895D02*
X85311905Y-60242657D01*
X85311905Y-60242657D02*
X85359524Y-60099800D01*
X85359524Y-60099800D02*
X85407143Y-59861704D01*
X85407143Y-59861704D02*
X85407143Y-59671228D01*
X85407143Y-59671228D02*
X85359524Y-59433133D01*
X85359524Y-59433133D02*
X85311905Y-59290276D01*
X85311905Y-59290276D02*
X85264286Y-59195038D01*
X85264286Y-59195038D02*
X85169048Y-59052180D01*
X85169048Y-59052180D02*
X85121429Y-59004561D01*
X69407693Y-54115038D02*
X69312455Y-54067419D01*
X69312455Y-54067419D02*
X69169598Y-54067419D01*
X69169598Y-54067419D02*
X69026741Y-54115038D01*
X69026741Y-54115038D02*
X68931503Y-54210276D01*
X68931503Y-54210276D02*
X68883884Y-54305514D01*
X68883884Y-54305514D02*
X68836265Y-54495990D01*
X68836265Y-54495990D02*
X68836265Y-54638847D01*
X68836265Y-54638847D02*
X68883884Y-54829323D01*
X68883884Y-54829323D02*
X68931503Y-54924561D01*
X68931503Y-54924561D02*
X69026741Y-55019800D01*
X69026741Y-55019800D02*
X69169598Y-55067419D01*
X69169598Y-55067419D02*
X69264836Y-55067419D01*
X69264836Y-55067419D02*
X69407693Y-55019800D01*
X69407693Y-55019800D02*
X69455312Y-54972180D01*
X69455312Y-54972180D02*
X69455312Y-54638847D01*
X69455312Y-54638847D02*
X69264836Y-54638847D01*
X69883884Y-55067419D02*
X69883884Y-54067419D01*
X69883884Y-54067419D02*
X70455312Y-55067419D01*
X70455312Y-55067419D02*
X70455312Y-54067419D01*
X70931503Y-55067419D02*
X70931503Y-54067419D01*
X70931503Y-54067419D02*
X71169598Y-54067419D01*
X71169598Y-54067419D02*
X71312455Y-54115038D01*
X71312455Y-54115038D02*
X71407693Y-54210276D01*
X71407693Y-54210276D02*
X71455312Y-54305514D01*
X71455312Y-54305514D02*
X71502931Y-54495990D01*
X71502931Y-54495990D02*
X71502931Y-54638847D01*
X71502931Y-54638847D02*
X71455312Y-54829323D01*
X71455312Y-54829323D02*
X71407693Y-54924561D01*
X71407693Y-54924561D02*
X71312455Y-55019800D01*
X71312455Y-55019800D02*
X71169598Y-55067419D01*
X71169598Y-55067419D02*
X70931503Y-55067419D01*
X90154761Y-44859800D02*
X90297618Y-44907419D01*
X90297618Y-44907419D02*
X90535713Y-44907419D01*
X90535713Y-44907419D02*
X90630951Y-44859800D01*
X90630951Y-44859800D02*
X90678570Y-44812180D01*
X90678570Y-44812180D02*
X90726189Y-44716942D01*
X90726189Y-44716942D02*
X90726189Y-44621704D01*
X90726189Y-44621704D02*
X90678570Y-44526466D01*
X90678570Y-44526466D02*
X90630951Y-44478847D01*
X90630951Y-44478847D02*
X90535713Y-44431228D01*
X90535713Y-44431228D02*
X90345237Y-44383609D01*
X90345237Y-44383609D02*
X90249999Y-44335990D01*
X90249999Y-44335990D02*
X90202380Y-44288371D01*
X90202380Y-44288371D02*
X90154761Y-44193133D01*
X90154761Y-44193133D02*
X90154761Y-44097895D01*
X90154761Y-44097895D02*
X90202380Y-44002657D01*
X90202380Y-44002657D02*
X90249999Y-43955038D01*
X90249999Y-43955038D02*
X90345237Y-43907419D01*
X90345237Y-43907419D02*
X90583332Y-43907419D01*
X90583332Y-43907419D02*
X90726189Y-43955038D01*
X91154761Y-44383609D02*
X91488094Y-44383609D01*
X91630951Y-44907419D02*
X91154761Y-44907419D01*
X91154761Y-44907419D02*
X91154761Y-43907419D01*
X91154761Y-43907419D02*
X91630951Y-43907419D01*
X92535713Y-44907419D02*
X92059523Y-44907419D01*
X92059523Y-44907419D02*
X92059523Y-43907419D01*
X92869047Y-44383609D02*
X93202380Y-44383609D01*
X93345237Y-44907419D02*
X92869047Y-44907419D01*
X92869047Y-44907419D02*
X92869047Y-43907419D01*
X92869047Y-43907419D02*
X93345237Y-43907419D01*
X94345237Y-44812180D02*
X94297618Y-44859800D01*
X94297618Y-44859800D02*
X94154761Y-44907419D01*
X94154761Y-44907419D02*
X94059523Y-44907419D01*
X94059523Y-44907419D02*
X93916666Y-44859800D01*
X93916666Y-44859800D02*
X93821428Y-44764561D01*
X93821428Y-44764561D02*
X93773809Y-44669323D01*
X93773809Y-44669323D02*
X93726190Y-44478847D01*
X93726190Y-44478847D02*
X93726190Y-44335990D01*
X93726190Y-44335990D02*
X93773809Y-44145514D01*
X93773809Y-44145514D02*
X93821428Y-44050276D01*
X93821428Y-44050276D02*
X93916666Y-43955038D01*
X93916666Y-43955038D02*
X94059523Y-43907419D01*
X94059523Y-43907419D02*
X94154761Y-43907419D01*
X94154761Y-43907419D02*
X94297618Y-43955038D01*
X94297618Y-43955038D02*
X94345237Y-44002657D01*
X94630952Y-43907419D02*
X95202380Y-43907419D01*
X94916666Y-44907419D02*
X94916666Y-43907419D01*
X95821428Y-45288371D02*
X95773809Y-45240752D01*
X95773809Y-45240752D02*
X95678571Y-45097895D01*
X95678571Y-45097895D02*
X95630952Y-45002657D01*
X95630952Y-45002657D02*
X95583333Y-44859800D01*
X95583333Y-44859800D02*
X95535714Y-44621704D01*
X95535714Y-44621704D02*
X95535714Y-44431228D01*
X95535714Y-44431228D02*
X95583333Y-44193133D01*
X95583333Y-44193133D02*
X95630952Y-44050276D01*
X95630952Y-44050276D02*
X95678571Y-43955038D01*
X95678571Y-43955038D02*
X95773809Y-43812180D01*
X95773809Y-43812180D02*
X95821428Y-43764561D01*
X96726190Y-43955038D02*
X96630952Y-43907419D01*
X96630952Y-43907419D02*
X96488095Y-43907419D01*
X96488095Y-43907419D02*
X96345238Y-43955038D01*
X96345238Y-43955038D02*
X96250000Y-44050276D01*
X96250000Y-44050276D02*
X96202381Y-44145514D01*
X96202381Y-44145514D02*
X96154762Y-44335990D01*
X96154762Y-44335990D02*
X96154762Y-44478847D01*
X96154762Y-44478847D02*
X96202381Y-44669323D01*
X96202381Y-44669323D02*
X96250000Y-44764561D01*
X96250000Y-44764561D02*
X96345238Y-44859800D01*
X96345238Y-44859800D02*
X96488095Y-44907419D01*
X96488095Y-44907419D02*
X96583333Y-44907419D01*
X96583333Y-44907419D02*
X96726190Y-44859800D01*
X96726190Y-44859800D02*
X96773809Y-44812180D01*
X96773809Y-44812180D02*
X96773809Y-44478847D01*
X96773809Y-44478847D02*
X96583333Y-44478847D01*
X97202381Y-44907419D02*
X97202381Y-43907419D01*
X97202381Y-43907419D02*
X97583333Y-43907419D01*
X97583333Y-43907419D02*
X97678571Y-43955038D01*
X97678571Y-43955038D02*
X97726190Y-44002657D01*
X97726190Y-44002657D02*
X97773809Y-44097895D01*
X97773809Y-44097895D02*
X97773809Y-44240752D01*
X97773809Y-44240752D02*
X97726190Y-44335990D01*
X97726190Y-44335990D02*
X97678571Y-44383609D01*
X97678571Y-44383609D02*
X97583333Y-44431228D01*
X97583333Y-44431228D02*
X97202381Y-44431228D01*
X98726190Y-44907419D02*
X98154762Y-44907419D01*
X98440476Y-44907419D02*
X98440476Y-43907419D01*
X98440476Y-43907419D02*
X98345238Y-44050276D01*
X98345238Y-44050276D02*
X98250000Y-44145514D01*
X98250000Y-44145514D02*
X98154762Y-44193133D01*
X99678571Y-44907419D02*
X99107143Y-44907419D01*
X99392857Y-44907419D02*
X99392857Y-43907419D01*
X99392857Y-43907419D02*
X99297619Y-44050276D01*
X99297619Y-44050276D02*
X99202381Y-44145514D01*
X99202381Y-44145514D02*
X99107143Y-44193133D01*
X100011905Y-45288371D02*
X100059524Y-45240752D01*
X100059524Y-45240752D02*
X100154762Y-45097895D01*
X100154762Y-45097895D02*
X100202381Y-45002657D01*
X100202381Y-45002657D02*
X100250000Y-44859800D01*
X100250000Y-44859800D02*
X100297619Y-44621704D01*
X100297619Y-44621704D02*
X100297619Y-44431228D01*
X100297619Y-44431228D02*
X100250000Y-44193133D01*
X100250000Y-44193133D02*
X100202381Y-44050276D01*
X100202381Y-44050276D02*
X100154762Y-43955038D01*
X100154762Y-43955038D02*
X100059524Y-43812180D01*
X100059524Y-43812180D02*
X100011905Y-43764561D01*
X68836265Y-49701704D02*
X69312455Y-49701704D01*
X68741027Y-49987419D02*
X69074360Y-48987419D01*
X69074360Y-48987419D02*
X69407693Y-49987419D01*
X70026741Y-50368371D02*
X69979122Y-50320752D01*
X69979122Y-50320752D02*
X69883884Y-50177895D01*
X69883884Y-50177895D02*
X69836265Y-50082657D01*
X69836265Y-50082657D02*
X69788646Y-49939800D01*
X69788646Y-49939800D02*
X69741027Y-49701704D01*
X69741027Y-49701704D02*
X69741027Y-49511228D01*
X69741027Y-49511228D02*
X69788646Y-49273133D01*
X69788646Y-49273133D02*
X69836265Y-49130276D01*
X69836265Y-49130276D02*
X69883884Y-49035038D01*
X69883884Y-49035038D02*
X69979122Y-48892180D01*
X69979122Y-48892180D02*
X70026741Y-48844561D01*
X70931503Y-49035038D02*
X70836265Y-48987419D01*
X70836265Y-48987419D02*
X70693408Y-48987419D01*
X70693408Y-48987419D02*
X70550551Y-49035038D01*
X70550551Y-49035038D02*
X70455313Y-49130276D01*
X70455313Y-49130276D02*
X70407694Y-49225514D01*
X70407694Y-49225514D02*
X70360075Y-49415990D01*
X70360075Y-49415990D02*
X70360075Y-49558847D01*
X70360075Y-49558847D02*
X70407694Y-49749323D01*
X70407694Y-49749323D02*
X70455313Y-49844561D01*
X70455313Y-49844561D02*
X70550551Y-49939800D01*
X70550551Y-49939800D02*
X70693408Y-49987419D01*
X70693408Y-49987419D02*
X70788646Y-49987419D01*
X70788646Y-49987419D02*
X70931503Y-49939800D01*
X70931503Y-49939800D02*
X70979122Y-49892180D01*
X70979122Y-49892180D02*
X70979122Y-49558847D01*
X70979122Y-49558847D02*
X70788646Y-49558847D01*
X71407694Y-49987419D02*
X71407694Y-48987419D01*
X71407694Y-48987419D02*
X71788646Y-48987419D01*
X71788646Y-48987419D02*
X71883884Y-49035038D01*
X71883884Y-49035038D02*
X71931503Y-49082657D01*
X71931503Y-49082657D02*
X71979122Y-49177895D01*
X71979122Y-49177895D02*
X71979122Y-49320752D01*
X71979122Y-49320752D02*
X71931503Y-49415990D01*
X71931503Y-49415990D02*
X71883884Y-49463609D01*
X71883884Y-49463609D02*
X71788646Y-49511228D01*
X71788646Y-49511228D02*
X71407694Y-49511228D01*
X72550551Y-49415990D02*
X72455313Y-49368371D01*
X72455313Y-49368371D02*
X72407694Y-49320752D01*
X72407694Y-49320752D02*
X72360075Y-49225514D01*
X72360075Y-49225514D02*
X72360075Y-49177895D01*
X72360075Y-49177895D02*
X72407694Y-49082657D01*
X72407694Y-49082657D02*
X72455313Y-49035038D01*
X72455313Y-49035038D02*
X72550551Y-48987419D01*
X72550551Y-48987419D02*
X72741027Y-48987419D01*
X72741027Y-48987419D02*
X72836265Y-49035038D01*
X72836265Y-49035038D02*
X72883884Y-49082657D01*
X72883884Y-49082657D02*
X72931503Y-49177895D01*
X72931503Y-49177895D02*
X72931503Y-49225514D01*
X72931503Y-49225514D02*
X72883884Y-49320752D01*
X72883884Y-49320752D02*
X72836265Y-49368371D01*
X72836265Y-49368371D02*
X72741027Y-49415990D01*
X72741027Y-49415990D02*
X72550551Y-49415990D01*
X72550551Y-49415990D02*
X72455313Y-49463609D01*
X72455313Y-49463609D02*
X72407694Y-49511228D01*
X72407694Y-49511228D02*
X72360075Y-49606466D01*
X72360075Y-49606466D02*
X72360075Y-49796942D01*
X72360075Y-49796942D02*
X72407694Y-49892180D01*
X72407694Y-49892180D02*
X72455313Y-49939800D01*
X72455313Y-49939800D02*
X72550551Y-49987419D01*
X72550551Y-49987419D02*
X72741027Y-49987419D01*
X72741027Y-49987419D02*
X72836265Y-49939800D01*
X72836265Y-49939800D02*
X72883884Y-49892180D01*
X72883884Y-49892180D02*
X72931503Y-49796942D01*
X72931503Y-49796942D02*
X72931503Y-49606466D01*
X72931503Y-49606466D02*
X72883884Y-49511228D01*
X72883884Y-49511228D02*
X72836265Y-49463609D01*
X72836265Y-49463609D02*
X72741027Y-49415990D01*
X73264837Y-50368371D02*
X73312456Y-50320752D01*
X73312456Y-50320752D02*
X73407694Y-50177895D01*
X73407694Y-50177895D02*
X73455313Y-50082657D01*
X73455313Y-50082657D02*
X73502932Y-49939800D01*
X73502932Y-49939800D02*
X73550551Y-49701704D01*
X73550551Y-49701704D02*
X73550551Y-49511228D01*
X73550551Y-49511228D02*
X73502932Y-49273133D01*
X73502932Y-49273133D02*
X73455313Y-49130276D01*
X73455313Y-49130276D02*
X73407694Y-49035038D01*
X73407694Y-49035038D02*
X73312456Y-48892180D01*
X73312456Y-48892180D02*
X73264837Y-48844561D01*
X120459523Y-51527419D02*
X119983333Y-51527419D01*
X119983333Y-51527419D02*
X119935714Y-52003609D01*
X119935714Y-52003609D02*
X119983333Y-51955990D01*
X119983333Y-51955990D02*
X120078571Y-51908371D01*
X120078571Y-51908371D02*
X120316666Y-51908371D01*
X120316666Y-51908371D02*
X120411904Y-51955990D01*
X120411904Y-51955990D02*
X120459523Y-52003609D01*
X120459523Y-52003609D02*
X120507142Y-52098847D01*
X120507142Y-52098847D02*
X120507142Y-52336942D01*
X120507142Y-52336942D02*
X120459523Y-52432180D01*
X120459523Y-52432180D02*
X120411904Y-52479800D01*
X120411904Y-52479800D02*
X120316666Y-52527419D01*
X120316666Y-52527419D02*
X120078571Y-52527419D01*
X120078571Y-52527419D02*
X119983333Y-52479800D01*
X119983333Y-52479800D02*
X119935714Y-52432180D01*
X120792857Y-51527419D02*
X121126190Y-52527419D01*
X121126190Y-52527419D02*
X121459523Y-51527419D01*
X68788646Y-46447419D02*
X69407693Y-46447419D01*
X69407693Y-46447419D02*
X69074360Y-46828371D01*
X69074360Y-46828371D02*
X69217217Y-46828371D01*
X69217217Y-46828371D02*
X69312455Y-46875990D01*
X69312455Y-46875990D02*
X69360074Y-46923609D01*
X69360074Y-46923609D02*
X69407693Y-47018847D01*
X69407693Y-47018847D02*
X69407693Y-47256942D01*
X69407693Y-47256942D02*
X69360074Y-47352180D01*
X69360074Y-47352180D02*
X69312455Y-47399800D01*
X69312455Y-47399800D02*
X69217217Y-47447419D01*
X69217217Y-47447419D02*
X68931503Y-47447419D01*
X68931503Y-47447419D02*
X68836265Y-47399800D01*
X68836265Y-47399800D02*
X68788646Y-47352180D01*
X69693408Y-46447419D02*
X70026741Y-47447419D01*
X70026741Y-47447419D02*
X70360074Y-46447419D01*
X70598170Y-46447419D02*
X71217217Y-46447419D01*
X71217217Y-46447419D02*
X70883884Y-46828371D01*
X70883884Y-46828371D02*
X71026741Y-46828371D01*
X71026741Y-46828371D02*
X71121979Y-46875990D01*
X71121979Y-46875990D02*
X71169598Y-46923609D01*
X71169598Y-46923609D02*
X71217217Y-47018847D01*
X71217217Y-47018847D02*
X71217217Y-47256942D01*
X71217217Y-47256942D02*
X71169598Y-47352180D01*
X71169598Y-47352180D02*
X71121979Y-47399800D01*
X71121979Y-47399800D02*
X71026741Y-47447419D01*
X71026741Y-47447419D02*
X70741027Y-47447419D01*
X70741027Y-47447419D02*
X70645789Y-47399800D01*
X70645789Y-47399800D02*
X70598170Y-47352180D01*
X104211904Y-44383609D02*
X104545237Y-44383609D01*
X104688094Y-44907419D02*
X104211904Y-44907419D01*
X104211904Y-44907419D02*
X104211904Y-43907419D01*
X104211904Y-43907419D02*
X104688094Y-43907419D01*
X105449999Y-44383609D02*
X105116666Y-44383609D01*
X105116666Y-44907419D02*
X105116666Y-43907419D01*
X105116666Y-43907419D02*
X105592856Y-43907419D01*
X105878571Y-43907419D02*
X106545237Y-44907419D01*
X106545237Y-43907419D02*
X105878571Y-44907419D01*
X107211904Y-45288371D02*
X107164285Y-45240752D01*
X107164285Y-45240752D02*
X107069047Y-45097895D01*
X107069047Y-45097895D02*
X107021428Y-45002657D01*
X107021428Y-45002657D02*
X106973809Y-44859800D01*
X106973809Y-44859800D02*
X106926190Y-44621704D01*
X106926190Y-44621704D02*
X106926190Y-44431228D01*
X106926190Y-44431228D02*
X106973809Y-44193133D01*
X106973809Y-44193133D02*
X107021428Y-44050276D01*
X107021428Y-44050276D02*
X107069047Y-43955038D01*
X107069047Y-43955038D02*
X107164285Y-43812180D01*
X107164285Y-43812180D02*
X107211904Y-43764561D01*
X108116666Y-43955038D02*
X108021428Y-43907419D01*
X108021428Y-43907419D02*
X107878571Y-43907419D01*
X107878571Y-43907419D02*
X107735714Y-43955038D01*
X107735714Y-43955038D02*
X107640476Y-44050276D01*
X107640476Y-44050276D02*
X107592857Y-44145514D01*
X107592857Y-44145514D02*
X107545238Y-44335990D01*
X107545238Y-44335990D02*
X107545238Y-44478847D01*
X107545238Y-44478847D02*
X107592857Y-44669323D01*
X107592857Y-44669323D02*
X107640476Y-44764561D01*
X107640476Y-44764561D02*
X107735714Y-44859800D01*
X107735714Y-44859800D02*
X107878571Y-44907419D01*
X107878571Y-44907419D02*
X107973809Y-44907419D01*
X107973809Y-44907419D02*
X108116666Y-44859800D01*
X108116666Y-44859800D02*
X108164285Y-44812180D01*
X108164285Y-44812180D02*
X108164285Y-44478847D01*
X108164285Y-44478847D02*
X107973809Y-44478847D01*
X108592857Y-44907419D02*
X108592857Y-43907419D01*
X108592857Y-43907419D02*
X108973809Y-43907419D01*
X108973809Y-43907419D02*
X109069047Y-43955038D01*
X109069047Y-43955038D02*
X109116666Y-44002657D01*
X109116666Y-44002657D02*
X109164285Y-44097895D01*
X109164285Y-44097895D02*
X109164285Y-44240752D01*
X109164285Y-44240752D02*
X109116666Y-44335990D01*
X109116666Y-44335990D02*
X109069047Y-44383609D01*
X109069047Y-44383609D02*
X108973809Y-44431228D01*
X108973809Y-44431228D02*
X108592857Y-44431228D01*
X110116666Y-44907419D02*
X109545238Y-44907419D01*
X109830952Y-44907419D02*
X109830952Y-43907419D01*
X109830952Y-43907419D02*
X109735714Y-44050276D01*
X109735714Y-44050276D02*
X109640476Y-44145514D01*
X109640476Y-44145514D02*
X109545238Y-44193133D01*
X110497619Y-44002657D02*
X110545238Y-43955038D01*
X110545238Y-43955038D02*
X110640476Y-43907419D01*
X110640476Y-43907419D02*
X110878571Y-43907419D01*
X110878571Y-43907419D02*
X110973809Y-43955038D01*
X110973809Y-43955038D02*
X111021428Y-44002657D01*
X111021428Y-44002657D02*
X111069047Y-44097895D01*
X111069047Y-44097895D02*
X111069047Y-44193133D01*
X111069047Y-44193133D02*
X111021428Y-44335990D01*
X111021428Y-44335990D02*
X110450000Y-44907419D01*
X110450000Y-44907419D02*
X111069047Y-44907419D01*
X111402381Y-45288371D02*
X111450000Y-45240752D01*
X111450000Y-45240752D02*
X111545238Y-45097895D01*
X111545238Y-45097895D02*
X111592857Y-45002657D01*
X111592857Y-45002657D02*
X111640476Y-44859800D01*
X111640476Y-44859800D02*
X111688095Y-44621704D01*
X111688095Y-44621704D02*
X111688095Y-44431228D01*
X111688095Y-44431228D02*
X111640476Y-44193133D01*
X111640476Y-44193133D02*
X111592857Y-44050276D01*
X111592857Y-44050276D02*
X111545238Y-43955038D01*
X111545238Y-43955038D02*
X111450000Y-43812180D01*
X111450000Y-43812180D02*
X111402381Y-43764561D01*
X77954761Y-44859800D02*
X78097618Y-44907419D01*
X78097618Y-44907419D02*
X78335713Y-44907419D01*
X78335713Y-44907419D02*
X78430951Y-44859800D01*
X78430951Y-44859800D02*
X78478570Y-44812180D01*
X78478570Y-44812180D02*
X78526189Y-44716942D01*
X78526189Y-44716942D02*
X78526189Y-44621704D01*
X78526189Y-44621704D02*
X78478570Y-44526466D01*
X78478570Y-44526466D02*
X78430951Y-44478847D01*
X78430951Y-44478847D02*
X78335713Y-44431228D01*
X78335713Y-44431228D02*
X78145237Y-44383609D01*
X78145237Y-44383609D02*
X78049999Y-44335990D01*
X78049999Y-44335990D02*
X78002380Y-44288371D01*
X78002380Y-44288371D02*
X77954761Y-44193133D01*
X77954761Y-44193133D02*
X77954761Y-44097895D01*
X77954761Y-44097895D02*
X78002380Y-44002657D01*
X78002380Y-44002657D02*
X78049999Y-43955038D01*
X78049999Y-43955038D02*
X78145237Y-43907419D01*
X78145237Y-43907419D02*
X78383332Y-43907419D01*
X78383332Y-43907419D02*
X78526189Y-43955038D01*
X78811904Y-43907419D02*
X79383332Y-43907419D01*
X79097618Y-44907419D02*
X79097618Y-43907419D01*
X79669047Y-44621704D02*
X80145237Y-44621704D01*
X79573809Y-44907419D02*
X79907142Y-43907419D01*
X79907142Y-43907419D02*
X80240475Y-44907419D01*
X81145237Y-44907419D02*
X80811904Y-44431228D01*
X80573809Y-44907419D02*
X80573809Y-43907419D01*
X80573809Y-43907419D02*
X80954761Y-43907419D01*
X80954761Y-43907419D02*
X81049999Y-43955038D01*
X81049999Y-43955038D02*
X81097618Y-44002657D01*
X81097618Y-44002657D02*
X81145237Y-44097895D01*
X81145237Y-44097895D02*
X81145237Y-44240752D01*
X81145237Y-44240752D02*
X81097618Y-44335990D01*
X81097618Y-44335990D02*
X81049999Y-44383609D01*
X81049999Y-44383609D02*
X80954761Y-44431228D01*
X80954761Y-44431228D02*
X80573809Y-44431228D01*
X81430952Y-43907419D02*
X82002380Y-43907419D01*
X81716666Y-44907419D02*
X81716666Y-43907419D01*
X82621428Y-45288371D02*
X82573809Y-45240752D01*
X82573809Y-45240752D02*
X82478571Y-45097895D01*
X82478571Y-45097895D02*
X82430952Y-45002657D01*
X82430952Y-45002657D02*
X82383333Y-44859800D01*
X82383333Y-44859800D02*
X82335714Y-44621704D01*
X82335714Y-44621704D02*
X82335714Y-44431228D01*
X82335714Y-44431228D02*
X82383333Y-44193133D01*
X82383333Y-44193133D02*
X82430952Y-44050276D01*
X82430952Y-44050276D02*
X82478571Y-43955038D01*
X82478571Y-43955038D02*
X82573809Y-43812180D01*
X82573809Y-43812180D02*
X82621428Y-43764561D01*
X83526190Y-43955038D02*
X83430952Y-43907419D01*
X83430952Y-43907419D02*
X83288095Y-43907419D01*
X83288095Y-43907419D02*
X83145238Y-43955038D01*
X83145238Y-43955038D02*
X83050000Y-44050276D01*
X83050000Y-44050276D02*
X83002381Y-44145514D01*
X83002381Y-44145514D02*
X82954762Y-44335990D01*
X82954762Y-44335990D02*
X82954762Y-44478847D01*
X82954762Y-44478847D02*
X83002381Y-44669323D01*
X83002381Y-44669323D02*
X83050000Y-44764561D01*
X83050000Y-44764561D02*
X83145238Y-44859800D01*
X83145238Y-44859800D02*
X83288095Y-44907419D01*
X83288095Y-44907419D02*
X83383333Y-44907419D01*
X83383333Y-44907419D02*
X83526190Y-44859800D01*
X83526190Y-44859800D02*
X83573809Y-44812180D01*
X83573809Y-44812180D02*
X83573809Y-44478847D01*
X83573809Y-44478847D02*
X83383333Y-44478847D01*
X84002381Y-44907419D02*
X84002381Y-43907419D01*
X84002381Y-43907419D02*
X84383333Y-43907419D01*
X84383333Y-43907419D02*
X84478571Y-43955038D01*
X84478571Y-43955038D02*
X84526190Y-44002657D01*
X84526190Y-44002657D02*
X84573809Y-44097895D01*
X84573809Y-44097895D02*
X84573809Y-44240752D01*
X84573809Y-44240752D02*
X84526190Y-44335990D01*
X84526190Y-44335990D02*
X84478571Y-44383609D01*
X84478571Y-44383609D02*
X84383333Y-44431228D01*
X84383333Y-44431228D02*
X84002381Y-44431228D01*
X85526190Y-44907419D02*
X84954762Y-44907419D01*
X85240476Y-44907419D02*
X85240476Y-43907419D01*
X85240476Y-43907419D02*
X85145238Y-44050276D01*
X85145238Y-44050276D02*
X85050000Y-44145514D01*
X85050000Y-44145514D02*
X84954762Y-44193133D01*
X86145238Y-43907419D02*
X86240476Y-43907419D01*
X86240476Y-43907419D02*
X86335714Y-43955038D01*
X86335714Y-43955038D02*
X86383333Y-44002657D01*
X86383333Y-44002657D02*
X86430952Y-44097895D01*
X86430952Y-44097895D02*
X86478571Y-44288371D01*
X86478571Y-44288371D02*
X86478571Y-44526466D01*
X86478571Y-44526466D02*
X86430952Y-44716942D01*
X86430952Y-44716942D02*
X86383333Y-44812180D01*
X86383333Y-44812180D02*
X86335714Y-44859800D01*
X86335714Y-44859800D02*
X86240476Y-44907419D01*
X86240476Y-44907419D02*
X86145238Y-44907419D01*
X86145238Y-44907419D02*
X86050000Y-44859800D01*
X86050000Y-44859800D02*
X86002381Y-44812180D01*
X86002381Y-44812180D02*
X85954762Y-44716942D01*
X85954762Y-44716942D02*
X85907143Y-44526466D01*
X85907143Y-44526466D02*
X85907143Y-44288371D01*
X85907143Y-44288371D02*
X85954762Y-44097895D01*
X85954762Y-44097895D02*
X86002381Y-44002657D01*
X86002381Y-44002657D02*
X86050000Y-43955038D01*
X86050000Y-43955038D02*
X86145238Y-43907419D01*
X86811905Y-45288371D02*
X86859524Y-45240752D01*
X86859524Y-45240752D02*
X86954762Y-45097895D01*
X86954762Y-45097895D02*
X87002381Y-45002657D01*
X87002381Y-45002657D02*
X87050000Y-44859800D01*
X87050000Y-44859800D02*
X87097619Y-44621704D01*
X87097619Y-44621704D02*
X87097619Y-44431228D01*
X87097619Y-44431228D02*
X87050000Y-44193133D01*
X87050000Y-44193133D02*
X87002381Y-44050276D01*
X87002381Y-44050276D02*
X86954762Y-43955038D01*
X86954762Y-43955038D02*
X86859524Y-43812180D01*
X86859524Y-43812180D02*
X86811905Y-43764561D01*
X94707419Y-63833333D02*
X95421704Y-63833333D01*
X95421704Y-63833333D02*
X95564561Y-63880952D01*
X95564561Y-63880952D02*
X95659800Y-63976190D01*
X95659800Y-63976190D02*
X95707419Y-64119047D01*
X95707419Y-64119047D02*
X95707419Y-64214285D01*
X94707419Y-63452380D02*
X94707419Y-62833333D01*
X94707419Y-62833333D02*
X95088371Y-63166666D01*
X95088371Y-63166666D02*
X95088371Y-63023809D01*
X95088371Y-63023809D02*
X95135990Y-62928571D01*
X95135990Y-62928571D02*
X95183609Y-62880952D01*
X95183609Y-62880952D02*
X95278847Y-62833333D01*
X95278847Y-62833333D02*
X95516942Y-62833333D01*
X95516942Y-62833333D02*
X95612180Y-62880952D01*
X95612180Y-62880952D02*
X95659800Y-62928571D01*
X95659800Y-62928571D02*
X95707419Y-63023809D01*
X95707419Y-63023809D02*
X95707419Y-63309523D01*
X95707419Y-63309523D02*
X95659800Y-63404761D01*
X95659800Y-63404761D02*
X95612180Y-63452380D01*
X94707419Y-56213333D02*
X95421704Y-56213333D01*
X95421704Y-56213333D02*
X95564561Y-56260952D01*
X95564561Y-56260952D02*
X95659800Y-56356190D01*
X95659800Y-56356190D02*
X95707419Y-56499047D01*
X95707419Y-56499047D02*
X95707419Y-56594285D01*
X95040752Y-55308571D02*
X95707419Y-55308571D01*
X94659800Y-55546666D02*
X95374085Y-55784761D01*
X95374085Y-55784761D02*
X95374085Y-55165714D01*
X94707419Y-48593333D02*
X95421704Y-48593333D01*
X95421704Y-48593333D02*
X95564561Y-48640952D01*
X95564561Y-48640952D02*
X95659800Y-48736190D01*
X95659800Y-48736190D02*
X95707419Y-48879047D01*
X95707419Y-48879047D02*
X95707419Y-48974285D01*
X95707419Y-48069523D02*
X95707419Y-47879047D01*
X95707419Y-47879047D02*
X95659800Y-47783809D01*
X95659800Y-47783809D02*
X95612180Y-47736190D01*
X95612180Y-47736190D02*
X95469323Y-47640952D01*
X95469323Y-47640952D02*
X95278847Y-47593333D01*
X95278847Y-47593333D02*
X94897895Y-47593333D01*
X94897895Y-47593333D02*
X94802657Y-47640952D01*
X94802657Y-47640952D02*
X94755038Y-47688571D01*
X94755038Y-47688571D02*
X94707419Y-47783809D01*
X94707419Y-47783809D02*
X94707419Y-47974285D01*
X94707419Y-47974285D02*
X94755038Y-48069523D01*
X94755038Y-48069523D02*
X94802657Y-48117142D01*
X94802657Y-48117142D02*
X94897895Y-48164761D01*
X94897895Y-48164761D02*
X95135990Y-48164761D01*
X95135990Y-48164761D02*
X95231228Y-48117142D01*
X95231228Y-48117142D02*
X95278847Y-48069523D01*
X95278847Y-48069523D02*
X95326466Y-47974285D01*
X95326466Y-47974285D02*
X95326466Y-47783809D01*
X95326466Y-47783809D02*
X95278847Y-47688571D01*
X95278847Y-47688571D02*
X95231228Y-47640952D01*
X95231228Y-47640952D02*
X95135990Y-47593333D01*
X82007419Y-56213333D02*
X82721704Y-56213333D01*
X82721704Y-56213333D02*
X82864561Y-56260952D01*
X82864561Y-56260952D02*
X82959800Y-56356190D01*
X82959800Y-56356190D02*
X83007419Y-56499047D01*
X83007419Y-56499047D02*
X83007419Y-56594285D01*
X82102657Y-55784761D02*
X82055038Y-55737142D01*
X82055038Y-55737142D02*
X82007419Y-55641904D01*
X82007419Y-55641904D02*
X82007419Y-55403809D01*
X82007419Y-55403809D02*
X82055038Y-55308571D01*
X82055038Y-55308571D02*
X82102657Y-55260952D01*
X82102657Y-55260952D02*
X82197895Y-55213333D01*
X82197895Y-55213333D02*
X82293133Y-55213333D01*
X82293133Y-55213333D02*
X82435990Y-55260952D01*
X82435990Y-55260952D02*
X83007419Y-55832380D01*
X83007419Y-55832380D02*
X83007419Y-55213333D01*
X120107419Y-49069523D02*
X120821704Y-49069523D01*
X120821704Y-49069523D02*
X120964561Y-49117142D01*
X120964561Y-49117142D02*
X121059800Y-49212380D01*
X121059800Y-49212380D02*
X121107419Y-49355237D01*
X121107419Y-49355237D02*
X121107419Y-49450475D01*
X121107419Y-48069523D02*
X121107419Y-48640951D01*
X121107419Y-48355237D02*
X120107419Y-48355237D01*
X120107419Y-48355237D02*
X120250276Y-48450475D01*
X120250276Y-48450475D02*
X120345514Y-48545713D01*
X120345514Y-48545713D02*
X120393133Y-48640951D01*
X120202657Y-47688570D02*
X120155038Y-47640951D01*
X120155038Y-47640951D02*
X120107419Y-47545713D01*
X120107419Y-47545713D02*
X120107419Y-47307618D01*
X120107419Y-47307618D02*
X120155038Y-47212380D01*
X120155038Y-47212380D02*
X120202657Y-47164761D01*
X120202657Y-47164761D02*
X120297895Y-47117142D01*
X120297895Y-47117142D02*
X120393133Y-47117142D01*
X120393133Y-47117142D02*
X120535990Y-47164761D01*
X120535990Y-47164761D02*
X121107419Y-47736189D01*
X121107419Y-47736189D02*
X121107419Y-47117142D01*
X82007419Y-63833333D02*
X82721704Y-63833333D01*
X82721704Y-63833333D02*
X82864561Y-63880952D01*
X82864561Y-63880952D02*
X82959800Y-63976190D01*
X82959800Y-63976190D02*
X83007419Y-64119047D01*
X83007419Y-64119047D02*
X83007419Y-64214285D01*
X83007419Y-62833333D02*
X83007419Y-63404761D01*
X83007419Y-63119047D02*
X82007419Y-63119047D01*
X82007419Y-63119047D02*
X82150276Y-63214285D01*
X82150276Y-63214285D02*
X82245514Y-63309523D01*
X82245514Y-63309523D02*
X82293133Y-63404761D01*
X107407419Y-49069523D02*
X108121704Y-49069523D01*
X108121704Y-49069523D02*
X108264561Y-49117142D01*
X108264561Y-49117142D02*
X108359800Y-49212380D01*
X108359800Y-49212380D02*
X108407419Y-49355237D01*
X108407419Y-49355237D02*
X108407419Y-49450475D01*
X108407419Y-48069523D02*
X108407419Y-48640951D01*
X108407419Y-48355237D02*
X107407419Y-48355237D01*
X107407419Y-48355237D02*
X107550276Y-48450475D01*
X107550276Y-48450475D02*
X107645514Y-48545713D01*
X107645514Y-48545713D02*
X107693133Y-48640951D01*
X107407419Y-47450475D02*
X107407419Y-47355237D01*
X107407419Y-47355237D02*
X107455038Y-47259999D01*
X107455038Y-47259999D02*
X107502657Y-47212380D01*
X107502657Y-47212380D02*
X107597895Y-47164761D01*
X107597895Y-47164761D02*
X107788371Y-47117142D01*
X107788371Y-47117142D02*
X108026466Y-47117142D01*
X108026466Y-47117142D02*
X108216942Y-47164761D01*
X108216942Y-47164761D02*
X108312180Y-47212380D01*
X108312180Y-47212380D02*
X108359800Y-47259999D01*
X108359800Y-47259999D02*
X108407419Y-47355237D01*
X108407419Y-47355237D02*
X108407419Y-47450475D01*
X108407419Y-47450475D02*
X108359800Y-47545713D01*
X108359800Y-47545713D02*
X108312180Y-47593332D01*
X108312180Y-47593332D02*
X108216942Y-47640951D01*
X108216942Y-47640951D02*
X108026466Y-47688570D01*
X108026466Y-47688570D02*
X107788371Y-47688570D01*
X107788371Y-47688570D02*
X107597895Y-47640951D01*
X107597895Y-47640951D02*
X107502657Y-47593332D01*
X107502657Y-47593332D02*
X107455038Y-47545713D01*
X107455038Y-47545713D02*
X107407419Y-47450475D01*
X107407419Y-56213333D02*
X108121704Y-56213333D01*
X108121704Y-56213333D02*
X108264561Y-56260952D01*
X108264561Y-56260952D02*
X108359800Y-56356190D01*
X108359800Y-56356190D02*
X108407419Y-56499047D01*
X108407419Y-56499047D02*
X108407419Y-56594285D01*
X107407419Y-55308571D02*
X107407419Y-55499047D01*
X107407419Y-55499047D02*
X107455038Y-55594285D01*
X107455038Y-55594285D02*
X107502657Y-55641904D01*
X107502657Y-55641904D02*
X107645514Y-55737142D01*
X107645514Y-55737142D02*
X107835990Y-55784761D01*
X107835990Y-55784761D02*
X108216942Y-55784761D01*
X108216942Y-55784761D02*
X108312180Y-55737142D01*
X108312180Y-55737142D02*
X108359800Y-55689523D01*
X108359800Y-55689523D02*
X108407419Y-55594285D01*
X108407419Y-55594285D02*
X108407419Y-55403809D01*
X108407419Y-55403809D02*
X108359800Y-55308571D01*
X108359800Y-55308571D02*
X108312180Y-55260952D01*
X108312180Y-55260952D02*
X108216942Y-55213333D01*
X108216942Y-55213333D02*
X107978847Y-55213333D01*
X107978847Y-55213333D02*
X107883609Y-55260952D01*
X107883609Y-55260952D02*
X107835990Y-55308571D01*
X107835990Y-55308571D02*
X107788371Y-55403809D01*
X107788371Y-55403809D02*
X107788371Y-55594285D01*
X107788371Y-55594285D02*
X107835990Y-55689523D01*
X107835990Y-55689523D02*
X107883609Y-55737142D01*
X107883609Y-55737142D02*
X107978847Y-55784761D01*
X82007419Y-48593333D02*
X82721704Y-48593333D01*
X82721704Y-48593333D02*
X82864561Y-48640952D01*
X82864561Y-48640952D02*
X82959800Y-48736190D01*
X82959800Y-48736190D02*
X83007419Y-48879047D01*
X83007419Y-48879047D02*
X83007419Y-48974285D01*
X82435990Y-47974285D02*
X82388371Y-48069523D01*
X82388371Y-48069523D02*
X82340752Y-48117142D01*
X82340752Y-48117142D02*
X82245514Y-48164761D01*
X82245514Y-48164761D02*
X82197895Y-48164761D01*
X82197895Y-48164761D02*
X82102657Y-48117142D01*
X82102657Y-48117142D02*
X82055038Y-48069523D01*
X82055038Y-48069523D02*
X82007419Y-47974285D01*
X82007419Y-47974285D02*
X82007419Y-47783809D01*
X82007419Y-47783809D02*
X82055038Y-47688571D01*
X82055038Y-47688571D02*
X82102657Y-47640952D01*
X82102657Y-47640952D02*
X82197895Y-47593333D01*
X82197895Y-47593333D02*
X82245514Y-47593333D01*
X82245514Y-47593333D02*
X82340752Y-47640952D01*
X82340752Y-47640952D02*
X82388371Y-47688571D01*
X82388371Y-47688571D02*
X82435990Y-47783809D01*
X82435990Y-47783809D02*
X82435990Y-47974285D01*
X82435990Y-47974285D02*
X82483609Y-48069523D01*
X82483609Y-48069523D02*
X82531228Y-48117142D01*
X82531228Y-48117142D02*
X82626466Y-48164761D01*
X82626466Y-48164761D02*
X82816942Y-48164761D01*
X82816942Y-48164761D02*
X82912180Y-48117142D01*
X82912180Y-48117142D02*
X82959800Y-48069523D01*
X82959800Y-48069523D02*
X83007419Y-47974285D01*
X83007419Y-47974285D02*
X83007419Y-47783809D01*
X83007419Y-47783809D02*
X82959800Y-47688571D01*
X82959800Y-47688571D02*
X82912180Y-47640952D01*
X82912180Y-47640952D02*
X82816942Y-47593333D01*
X82816942Y-47593333D02*
X82626466Y-47593333D01*
X82626466Y-47593333D02*
X82531228Y-47640952D01*
X82531228Y-47640952D02*
X82483609Y-47688571D01*
X82483609Y-47688571D02*
X82435990Y-47783809D01*
X120107419Y-56689523D02*
X120821704Y-56689523D01*
X120821704Y-56689523D02*
X120964561Y-56737142D01*
X120964561Y-56737142D02*
X121059800Y-56832380D01*
X121059800Y-56832380D02*
X121107419Y-56975237D01*
X121107419Y-56975237D02*
X121107419Y-57070475D01*
X121107419Y-55689523D02*
X121107419Y-56260951D01*
X121107419Y-55975237D02*
X120107419Y-55975237D01*
X120107419Y-55975237D02*
X120250276Y-56070475D01*
X120250276Y-56070475D02*
X120345514Y-56165713D01*
X120345514Y-56165713D02*
X120393133Y-56260951D01*
X121107419Y-54737142D02*
X121107419Y-55308570D01*
X121107419Y-55022856D02*
X120107419Y-55022856D01*
X120107419Y-55022856D02*
X120250276Y-55118094D01*
X120250276Y-55118094D02*
X120345514Y-55213332D01*
X120345514Y-55213332D02*
X120393133Y-55308570D01*
X120107419Y-63833333D02*
X120821704Y-63833333D01*
X120821704Y-63833333D02*
X120964561Y-63880952D01*
X120964561Y-63880952D02*
X121059800Y-63976190D01*
X121059800Y-63976190D02*
X121107419Y-64119047D01*
X121107419Y-64119047D02*
X121107419Y-64214285D01*
X120107419Y-63452380D02*
X120107419Y-62785714D01*
X120107419Y-62785714D02*
X121107419Y-63214285D01*
X107407419Y-63833333D02*
X108121704Y-63833333D01*
X108121704Y-63833333D02*
X108264561Y-63880952D01*
X108264561Y-63880952D02*
X108359800Y-63976190D01*
X108359800Y-63976190D02*
X108407419Y-64119047D01*
X108407419Y-64119047D02*
X108407419Y-64214285D01*
X107407419Y-62880952D02*
X107407419Y-63357142D01*
X107407419Y-63357142D02*
X107883609Y-63404761D01*
X107883609Y-63404761D02*
X107835990Y-63357142D01*
X107835990Y-63357142D02*
X107788371Y-63261904D01*
X107788371Y-63261904D02*
X107788371Y-63023809D01*
X107788371Y-63023809D02*
X107835990Y-62928571D01*
X107835990Y-62928571D02*
X107883609Y-62880952D01*
X107883609Y-62880952D02*
X107978847Y-62833333D01*
X107978847Y-62833333D02*
X108216942Y-62833333D01*
X108216942Y-62833333D02*
X108312180Y-62880952D01*
X108312180Y-62880952D02*
X108359800Y-62928571D01*
X108359800Y-62928571D02*
X108407419Y-63023809D01*
X108407419Y-63023809D02*
X108407419Y-63261904D01*
X108407419Y-63261904D02*
X108359800Y-63357142D01*
X108359800Y-63357142D02*
X108312180Y-63404761D01*
X90910000Y-64800000D02*
X99710000Y-64800000D01*
X99710000Y-62200000D01*
X90910000Y-62200000D01*
X90910000Y-64800000D01*
X90910000Y-57180000D02*
X99710000Y-57180000D01*
X99710000Y-54580000D01*
X90910000Y-54580000D01*
X90910000Y-57180000D01*
X90910000Y-49560000D02*
X99710000Y-49560000D01*
X99710000Y-46960000D01*
X90910000Y-46960000D01*
X90910000Y-49560000D01*
X78210000Y-57180000D02*
X87010000Y-57180000D01*
X87010000Y-54580000D01*
X78210000Y-54580000D01*
X78210000Y-57180000D01*
X116310000Y-49560000D02*
X125110000Y-49560000D01*
X125110000Y-46960000D01*
X116310000Y-46960000D01*
X116310000Y-49560000D01*
X78210000Y-64800000D02*
X87010000Y-64800000D01*
X87010000Y-62200000D01*
X78210000Y-62200000D01*
X78210000Y-64800000D01*
X103610000Y-49560000D02*
X112410000Y-49560000D01*
X112410000Y-46960000D01*
X103610000Y-46960000D01*
X103610000Y-49560000D01*
X103610000Y-57180000D02*
X112410000Y-57180000D01*
X112410000Y-54580000D01*
X103610000Y-54580000D01*
X103610000Y-57180000D01*
X78210000Y-49560000D02*
X87010000Y-49560000D01*
X87010000Y-46960000D01*
X78210000Y-46960000D01*
X78210000Y-49560000D01*
X116310000Y-57180000D02*
X125110000Y-57180000D01*
X125110000Y-54580000D01*
X116310000Y-54580000D01*
X116310000Y-57180000D01*
X116250000Y-64800000D02*
X125050000Y-64800000D01*
X125050000Y-62200000D01*
X116250000Y-62200000D01*
X116250000Y-64800000D01*
X103610000Y-64800000D02*
X112410000Y-64800000D01*
X112410000Y-62200000D01*
X103610000Y-62200000D01*
X103610000Y-64800000D01*
%LPC*%
D11*
X71755000Y-34925000D03*
D12*
X71755000Y-34925000D03*
D13*
X92710000Y-63500000D03*
X97910000Y-63500000D03*
X92710000Y-55880000D03*
X97910000Y-55880000D03*
X92710000Y-48260000D03*
X97910000Y-48260000D03*
X80010000Y-55880000D03*
X85210000Y-55880000D03*
X118110000Y-48260000D03*
X123310000Y-48260000D03*
X80010000Y-63500000D03*
X85210000Y-63500000D03*
X105410000Y-48260000D03*
X110610000Y-48260000D03*
D11*
X66675000Y-64770000D03*
D12*
X66675000Y-64770000D03*
D13*
X105410000Y-55880000D03*
X110610000Y-55880000D03*
X80010000Y-48260000D03*
X85210000Y-48260000D03*
X118110000Y-55880000D03*
X123310000Y-55880000D03*
D11*
X136525000Y-64770000D03*
D12*
X136525000Y-64770000D03*
D13*
X118050000Y-63500000D03*
X123250000Y-63500000D03*
X105410000Y-63500000D03*
X110610000Y-63500000D03*
D14*
X66040000Y-47070000D03*
D15*
X66040000Y-49570000D03*
X66040000Y-52070000D03*
X66040000Y-54570000D03*
D16*
X114300000Y-63500000D03*
D17*
X114300000Y-60960000D03*
D16*
X88900000Y-55880000D03*
D17*
X88900000Y-53340000D03*
D16*
X88900000Y-48260000D03*
D17*
X88900000Y-45720000D03*
D16*
X101600000Y-48260000D03*
D17*
X101600000Y-45720000D03*
D16*
X114300000Y-55880000D03*
D17*
X114300000Y-53340000D03*
D16*
X114300000Y-48260000D03*
D17*
X114300000Y-45720000D03*
D16*
X101600000Y-63500000D03*
D17*
X101600000Y-60960000D03*
D16*
X127000000Y-63500000D03*
D17*
X127000000Y-60960000D03*
D16*
X88900000Y-63500000D03*
D17*
X88900000Y-60960000D03*
D16*
X101600000Y-55880000D03*
D17*
X101600000Y-53340000D03*
%LPD*%
M02*
