G04 #@! TF.GenerationSoftware,KiCad,Pcbnew,8.0.2*
G04 #@! TF.CreationDate,2024-06-05T08:55:07+09:00*
G04 #@! TF.ProjectId,rainbow2v5-rp2040,7261696e-626f-4773-9276-352d72703230,rev?*
G04 #@! TF.SameCoordinates,Original*
G04 #@! TF.FileFunction,Copper,L1,Top*
G04 #@! TF.FilePolarity,Positive*
%FSLAX46Y46*%
G04 Gerber Fmt 4.6, Leading zero omitted, Abs format (unit mm)*
G04 Created by KiCad (PCBNEW 8.0.2) date 2024-06-05 08:55:07*
%MOMM*%
%LPD*%
G01*
G04 APERTURE LIST*
G04 Aperture macros list*
%AMRoundRect*
0 Rectangle with rounded corners*
0 $1 Rounding radius*
0 $2 $3 $4 $5 $6 $7 $8 $9 X,Y pos of 4 corners*
0 Add a 4 corners polygon primitive as box body*
4,1,4,$2,$3,$4,$5,$6,$7,$8,$9,$2,$3,0*
0 Add four circle primitives for the rounded corners*
1,1,$1+$1,$2,$3*
1,1,$1+$1,$4,$5*
1,1,$1+$1,$6,$7*
1,1,$1+$1,$8,$9*
0 Add four rect primitives between the rounded corners*
20,1,$1+$1,$2,$3,$4,$5,0*
20,1,$1+$1,$4,$5,$6,$7,0*
20,1,$1+$1,$6,$7,$8,$9,0*
20,1,$1+$1,$8,$9,$2,$3,0*%
G04 Aperture macros list end*
G04 #@! TA.AperFunction,ComponentPad*
%ADD10C,4.700000*%
G04 #@! TD*
G04 #@! TA.AperFunction,ConnectorPad*
%ADD11C,7.500000*%
G04 #@! TD*
G04 #@! TA.AperFunction,ComponentPad*
%ADD12O,3.000000X2.000000*%
G04 #@! TD*
G04 #@! TA.AperFunction,ComponentPad*
%ADD13RoundRect,0.250000X-0.725000X0.600000X-0.725000X-0.600000X0.725000X-0.600000X0.725000X0.600000X0*%
G04 #@! TD*
G04 #@! TA.AperFunction,ComponentPad*
%ADD14O,1.950000X1.700000*%
G04 #@! TD*
G04 #@! TA.AperFunction,ComponentPad*
%ADD15R,1.600000X1.600000*%
G04 #@! TD*
G04 #@! TA.AperFunction,ComponentPad*
%ADD16O,1.600000X1.600000*%
G04 #@! TD*
G04 #@! TA.AperFunction,ViaPad*
%ADD17C,0.600000*%
G04 #@! TD*
G04 #@! TA.AperFunction,Conductor*
%ADD18C,1.000000*%
G04 #@! TD*
G04 #@! TA.AperFunction,Conductor*
%ADD19C,0.500000*%
G04 #@! TD*
G04 #@! TA.AperFunction,Conductor*
%ADD20C,0.200000*%
G04 #@! TD*
G04 APERTURE END LIST*
D10*
X71755000Y-34925000D03*
D11*
X71755000Y-34925000D03*
D12*
X92710000Y-63500000D03*
X97910000Y-63500000D03*
X92710000Y-55880000D03*
X97910000Y-55880000D03*
X92710000Y-48260000D03*
X97910000Y-48260000D03*
X80010000Y-55880000D03*
X85210000Y-55880000D03*
X118110000Y-48260000D03*
X123310000Y-48260000D03*
X80010000Y-63500000D03*
X85210000Y-63500000D03*
X105410000Y-48260000D03*
X110610000Y-48260000D03*
D10*
X66675000Y-64770000D03*
D11*
X66675000Y-64770000D03*
D12*
X105410000Y-55880000D03*
X110610000Y-55880000D03*
X80010000Y-48260000D03*
X85210000Y-48260000D03*
X118110000Y-55880000D03*
X123310000Y-55880000D03*
D10*
X136525000Y-64770000D03*
D11*
X136525000Y-64770000D03*
D12*
X118050000Y-63500000D03*
X123250000Y-63500000D03*
X105410000Y-63500000D03*
X110610000Y-63500000D03*
D13*
X66040000Y-47070000D03*
D14*
X66040000Y-49570000D03*
X66040000Y-52070000D03*
X66040000Y-54570000D03*
D15*
X114300000Y-63500000D03*
D16*
X114300000Y-60960000D03*
D15*
X88900000Y-55880000D03*
D16*
X88900000Y-53340000D03*
D15*
X88900000Y-48260000D03*
D16*
X88900000Y-45720000D03*
D15*
X101600000Y-48260000D03*
D16*
X101600000Y-45720000D03*
D15*
X114300000Y-55880000D03*
D16*
X114300000Y-53340000D03*
D15*
X114300000Y-48260000D03*
D16*
X114300000Y-45720000D03*
D15*
X101600000Y-63500000D03*
D16*
X101600000Y-60960000D03*
D15*
X127000000Y-63500000D03*
D16*
X127000000Y-60960000D03*
D15*
X88900000Y-63500000D03*
D16*
X88900000Y-60960000D03*
D15*
X101600000Y-55880000D03*
D16*
X101600000Y-53340000D03*
D17*
X151130000Y-50800000D03*
X151130000Y-49530000D03*
X148590000Y-50800000D03*
X148590000Y-49530000D03*
X148590000Y-34290000D03*
X151130000Y-34290000D03*
X135890000Y-49530000D03*
X130810000Y-46990000D03*
X138430000Y-49530000D03*
X130810000Y-49530000D03*
X140970000Y-49530000D03*
X133350000Y-49530000D03*
X143510000Y-49530000D03*
X130810000Y-39370000D03*
X130810000Y-41910000D03*
X130810000Y-44450000D03*
X130810000Y-34290000D03*
X130810000Y-36830000D03*
X145415000Y-58420000D03*
X146050000Y-49530000D03*
X146050000Y-34290000D03*
X138430000Y-34290000D03*
X143510000Y-34290000D03*
X133350000Y-34290000D03*
X140970000Y-34290000D03*
X135890000Y-34290000D03*
D18*
X151130000Y-52070000D02*
X151130000Y-50800000D01*
X123310000Y-55880000D02*
X147320000Y-55880000D01*
X147320000Y-55880000D02*
X151130000Y-52070000D01*
X151130000Y-50800000D02*
X151130000Y-49530000D01*
D19*
X74930000Y-46990000D02*
X74930000Y-53340000D01*
X73700000Y-54570000D02*
X66040000Y-54570000D01*
D18*
X118110000Y-50800000D02*
X118110000Y-48260000D01*
X148590000Y-49530000D02*
X148590000Y-50800000D01*
X146685000Y-52705000D02*
X120015000Y-52705000D01*
D20*
X118110000Y-48260000D02*
X118110000Y-46990000D01*
D19*
X74930000Y-53340000D02*
X73700000Y-54570000D01*
X116840000Y-45720000D02*
X76200000Y-45720000D01*
X76200000Y-45720000D02*
X74930000Y-46990000D01*
D18*
X120015000Y-52705000D02*
X118110000Y-50800000D01*
X148590000Y-50800000D02*
X146685000Y-52705000D01*
D19*
X63420000Y-47070000D02*
X66040000Y-47070000D01*
X62230000Y-57150000D02*
X62230000Y-48260000D01*
X116840000Y-58420000D02*
X145415000Y-58420000D01*
X62230000Y-48260000D02*
X63420000Y-47070000D01*
X116840000Y-58420000D02*
X63500000Y-58420000D01*
X63500000Y-58420000D02*
X62230000Y-57150000D01*
M02*
