M48
; DRILL file {KiCad 8.0.2} date 2024-06-05T08:55:35+0900
; FORMAT={-:-/ absolute / metric / decimal}
; #@! TF.CreationDate,2024-06-05T08:55:35+09:00
; #@! TF.GenerationSoftware,Kicad,Pcbnew,8.0.2
; #@! TF.FileFunction,Plated,1,2,PTH
FMAT,2
METRIC
; #@! TA.AperFunction,Plated,PTH,ViaDrill
T1C0.300
; #@! TA.AperFunction,Plated,PTH,ComponentDrill
T2C0.800
; #@! TA.AperFunction,Plated,PTH,ComponentDrill
T3C0.950
; #@! TA.AperFunction,Plated,PTH,ComponentDrill
T4C1.000
; #@! TA.AperFunction,Plated,PTH,ComponentDrill
T5C4.300
%
G90
G05
T1
X130.81Y-34.29
X130.81Y-36.83
X130.81Y-39.37
X130.81Y-41.91
X130.81Y-44.45
X130.81Y-46.99
X130.81Y-49.53
X133.35Y-34.29
X133.35Y-49.53
X135.89Y-34.29
X135.89Y-49.53
X138.43Y-34.29
X138.43Y-49.53
X140.97Y-34.29
X140.97Y-49.53
X143.51Y-34.29
X143.51Y-49.53
X145.415Y-58.42
X146.05Y-34.29
X146.05Y-49.53
X148.59Y-34.29
X148.59Y-49.53
X148.59Y-50.8
X151.13Y-34.29
X151.13Y-49.53
X151.13Y-50.8
T2
X88.9Y-45.72
X88.9Y-48.26
X88.9Y-53.34
X88.9Y-55.88
X88.9Y-60.96
X88.9Y-63.5
X101.6Y-45.72
X101.6Y-48.26
X101.6Y-53.34
X101.6Y-55.88
X101.6Y-60.96
X101.6Y-63.5
X114.3Y-45.72
X114.3Y-48.26
X114.3Y-53.34
X114.3Y-55.88
X114.3Y-60.96
X114.3Y-63.5
X127.0Y-60.96
X127.0Y-63.5
T3
X66.04Y-47.07
X66.04Y-49.57
X66.04Y-52.07
X66.04Y-54.57
T5
X66.675Y-64.77
X71.755Y-34.925
X136.525Y-64.77
T4
X79.76Y-48.26G85X80.26Y-48.26
G05
X79.76Y-55.88G85X80.26Y-55.88
G05
X79.76Y-63.5G85X80.26Y-63.5
G05
X84.96Y-48.26G85X85.46Y-48.26
G05
X84.96Y-55.88G85X85.46Y-55.88
G05
X84.96Y-63.5G85X85.46Y-63.5
G05
X92.46Y-48.26G85X92.96Y-48.26
G05
X92.46Y-55.88G85X92.96Y-55.88
G05
X92.46Y-63.5G85X92.96Y-63.5
G05
X97.66Y-48.26G85X98.16Y-48.26
G05
X97.66Y-55.88G85X98.16Y-55.88
G05
X97.66Y-63.5G85X98.16Y-63.5
G05
X105.16Y-48.26G85X105.66Y-48.26
G05
X105.16Y-55.88G85X105.66Y-55.88
G05
X105.16Y-63.5G85X105.66Y-63.5
G05
X110.36Y-48.26G85X110.86Y-48.26
G05
X110.36Y-55.88G85X110.86Y-55.88
G05
X110.36Y-63.5G85X110.86Y-63.5
G05
X117.8Y-63.5G85X118.3Y-63.5
G05
X117.86Y-48.26G85X118.36Y-48.26
G05
X117.86Y-55.88G85X118.36Y-55.88
G05
X123.0Y-63.5G85X123.5Y-63.5
G05
X123.06Y-48.26G85X123.56Y-48.26
G05
X123.06Y-55.88G85X123.56Y-55.88
G05
M30
