G04 #@! TF.GenerationSoftware,KiCad,Pcbnew,(6.0.1)*
G04 #@! TF.CreationDate,2023-03-09T23:42:47+09:00*
G04 #@! TF.ProjectId,iidx_pcb,69696478-5f70-4636-922e-6b696361645f,rev?*
G04 #@! TF.SameCoordinates,Original*
G04 #@! TF.FileFunction,Copper,L1,Top*
G04 #@! TF.FilePolarity,Positive*
%FSLAX46Y46*%
G04 Gerber Fmt 4.6, Leading zero omitted, Abs format (unit mm)*
G04 Created by KiCad (PCBNEW (6.0.1)) date 2023-03-09 23:42:47*
%MOMM*%
%LPD*%
G01*
G04 APERTURE LIST*
%ADD10C,0.300000*%
G04 #@! TA.AperFunction,NonConductor*
%ADD11C,0.300000*%
G04 #@! TD*
G04 #@! TA.AperFunction,ComponentPad*
%ADD12C,1.600000*%
G04 #@! TD*
G04 #@! TA.AperFunction,ComponentPad*
%ADD13O,1.600000X1.600000*%
G04 #@! TD*
G04 #@! TA.AperFunction,ComponentPad*
%ADD14R,1.600000X1.600000*%
G04 #@! TD*
G04 #@! TA.AperFunction,ComponentPad*
%ADD15C,1.524000*%
G04 #@! TD*
G04 #@! TA.AperFunction,ComponentPad*
%ADD16R,1.700000X1.700000*%
G04 #@! TD*
G04 #@! TA.AperFunction,ComponentPad*
%ADD17O,1.700000X1.700000*%
G04 #@! TD*
G04 #@! TA.AperFunction,ComponentPad*
%ADD18R,1.350000X1.350000*%
G04 #@! TD*
G04 #@! TA.AperFunction,ComponentPad*
%ADD19O,1.350000X1.350000*%
G04 #@! TD*
G04 #@! TA.AperFunction,ComponentPad*
%ADD20R,1.500000X1.500000*%
G04 #@! TD*
G04 #@! TA.AperFunction,ComponentPad*
%ADD21C,1.500000*%
G04 #@! TD*
G04 #@! TA.AperFunction,Conductor*
%ADD22C,0.250000*%
G04 #@! TD*
G04 APERTURE END LIST*
D10*
D11*
X62498571Y-148061071D02*
X62498571Y-146561071D01*
X63069999Y-146561071D01*
X63212857Y-146632500D01*
X63284285Y-146703928D01*
X63355714Y-146846785D01*
X63355714Y-147061071D01*
X63284285Y-147203928D01*
X63212857Y-147275357D01*
X63069999Y-147346785D01*
X62498571Y-147346785D01*
X63927142Y-147989642D02*
X64141428Y-148061071D01*
X64498571Y-148061071D01*
X64641428Y-147989642D01*
X64712857Y-147918214D01*
X64784285Y-147775357D01*
X64784285Y-147632500D01*
X64712857Y-147489642D01*
X64641428Y-147418214D01*
X64498571Y-147346785D01*
X64212857Y-147275357D01*
X64069999Y-147203928D01*
X63998571Y-147132500D01*
X63927142Y-146989642D01*
X63927142Y-146846785D01*
X63998571Y-146703928D01*
X64069999Y-146632500D01*
X64212857Y-146561071D01*
X64569999Y-146561071D01*
X64784285Y-146632500D01*
X65355714Y-146703928D02*
X65427142Y-146632500D01*
X65569999Y-146561071D01*
X65927142Y-146561071D01*
X66069999Y-146632500D01*
X66141428Y-146703928D01*
X66212857Y-146846785D01*
X66212857Y-146989642D01*
X66141428Y-147203928D01*
X65284285Y-148061071D01*
X66212857Y-148061071D01*
X68498571Y-147275357D02*
X68712857Y-147346785D01*
X68784285Y-147418214D01*
X68855714Y-147561071D01*
X68855714Y-147775357D01*
X68784285Y-147918214D01*
X68712857Y-147989642D01*
X68570000Y-148061071D01*
X67998571Y-148061071D01*
X67998571Y-146561071D01*
X68498571Y-146561071D01*
X68641428Y-146632500D01*
X68712857Y-146703928D01*
X68784285Y-146846785D01*
X68784285Y-146989642D01*
X68712857Y-147132500D01*
X68641428Y-147203928D01*
X68498571Y-147275357D01*
X67998571Y-147275357D01*
X69498571Y-148061071D02*
X69498571Y-146561071D01*
X69998571Y-147632500D01*
X70498571Y-146561071D01*
X70498571Y-148061071D01*
X72070000Y-147918214D02*
X71998571Y-147989642D01*
X71784285Y-148061071D01*
X71641428Y-148061071D01*
X71427142Y-147989642D01*
X71284285Y-147846785D01*
X71212857Y-147703928D01*
X71141428Y-147418214D01*
X71141428Y-147203928D01*
X71212857Y-146918214D01*
X71284285Y-146775357D01*
X71427142Y-146632500D01*
X71641428Y-146561071D01*
X71784285Y-146561071D01*
X71998571Y-146632500D01*
X72070000Y-146703928D01*
X72712857Y-148061071D02*
X72712857Y-146561071D01*
X73570000Y-148061071D01*
X73570000Y-146561071D01*
X74070000Y-146561071D02*
X74927142Y-146561071D01*
X74498571Y-148061071D02*
X74498571Y-146561071D01*
X76284285Y-148061071D02*
X75784285Y-147346785D01*
X75427142Y-148061071D02*
X75427142Y-146561071D01*
X75998571Y-146561071D01*
X76141428Y-146632500D01*
X76212857Y-146703928D01*
X76284285Y-146846785D01*
X76284285Y-147061071D01*
X76212857Y-147203928D01*
X76141428Y-147275357D01*
X75998571Y-147346785D01*
X75427142Y-147346785D01*
X77641428Y-148061071D02*
X76927142Y-148061071D01*
X76927142Y-146561071D01*
X78141428Y-147489642D02*
X79284285Y-147489642D01*
X80855714Y-148061071D02*
X80355714Y-147346785D01*
X79998571Y-148061071D02*
X79998571Y-146561071D01*
X80570000Y-146561071D01*
X80712857Y-146632500D01*
X80784285Y-146703928D01*
X80855714Y-146846785D01*
X80855714Y-147061071D01*
X80784285Y-147203928D01*
X80712857Y-147275357D01*
X80570000Y-147346785D01*
X79998571Y-147346785D01*
X81498571Y-147275357D02*
X81998571Y-147275357D01*
X82212857Y-148061071D02*
X81498571Y-148061071D01*
X81498571Y-146561071D01*
X82212857Y-146561071D01*
X83355714Y-147275357D02*
X82855714Y-147275357D01*
X82855714Y-148061071D02*
X82855714Y-146561071D01*
X83570000Y-146561071D01*
X84141428Y-148061071D02*
X84141428Y-146561071D01*
X84855714Y-148061071D02*
X84855714Y-146561071D01*
X85712857Y-148061071D01*
X85712857Y-146561071D01*
X86427142Y-147275357D02*
X86927142Y-147275357D01*
X87141428Y-148061071D02*
X86427142Y-148061071D01*
X86427142Y-146561071D01*
X87141428Y-146561071D01*
X88927142Y-148061071D02*
X88927142Y-146561071D01*
X88927142Y-147132500D02*
X89070000Y-147061071D01*
X89355714Y-147061071D01*
X89498571Y-147132500D01*
X89570000Y-147203928D01*
X89641428Y-147346785D01*
X89641428Y-147775357D01*
X89570000Y-147918214D01*
X89498571Y-147989642D01*
X89355714Y-148061071D01*
X89070000Y-148061071D01*
X88927142Y-147989642D01*
X90141428Y-147061071D02*
X90498571Y-148061071D01*
X90855714Y-147061071D02*
X90498571Y-148061071D01*
X90355714Y-148418214D01*
X90284285Y-148489642D01*
X90141428Y-148561071D01*
X92570000Y-148061071D02*
X92570000Y-146561071D01*
X92712857Y-147489642D02*
X93141428Y-148061071D01*
X93141428Y-147061071D02*
X92570000Y-147632500D01*
X94427142Y-148061071D02*
X94427142Y-147275357D01*
X94355714Y-147132500D01*
X94212857Y-147061071D01*
X93927142Y-147061071D01*
X93784285Y-147132500D01*
X94427142Y-147989642D02*
X94284285Y-148061071D01*
X93927142Y-148061071D01*
X93784285Y-147989642D01*
X93712857Y-147846785D01*
X93712857Y-147703928D01*
X93784285Y-147561071D01*
X93927142Y-147489642D01*
X94284285Y-147489642D01*
X94427142Y-147418214D01*
X95784285Y-147061071D02*
X95784285Y-148275357D01*
X95712857Y-148418214D01*
X95641428Y-148489642D01*
X95498571Y-148561071D01*
X95284285Y-148561071D01*
X95141428Y-148489642D01*
X95784285Y-147989642D02*
X95641428Y-148061071D01*
X95355714Y-148061071D01*
X95212857Y-147989642D01*
X95141428Y-147918214D01*
X95070000Y-147775357D01*
X95070000Y-147346785D01*
X95141428Y-147203928D01*
X95212857Y-147132500D01*
X95355714Y-147061071D01*
X95641428Y-147061071D01*
X95784285Y-147132500D01*
X97141428Y-147061071D02*
X97141428Y-148061071D01*
X96498571Y-147061071D02*
X96498571Y-147846785D01*
X96569999Y-147989642D01*
X96712857Y-148061071D01*
X96927142Y-148061071D01*
X97069999Y-147989642D01*
X97141428Y-147918214D01*
X97855714Y-148061071D02*
X97855714Y-147061071D01*
X97855714Y-147346785D02*
X97927142Y-147203928D01*
X97998571Y-147132500D01*
X98141428Y-147061071D01*
X98284285Y-147061071D01*
X99427142Y-148061071D02*
X99427142Y-147275357D01*
X99355714Y-147132500D01*
X99212857Y-147061071D01*
X98927142Y-147061071D01*
X98784285Y-147132500D01*
X99427142Y-147989642D02*
X99284285Y-148061071D01*
X98927142Y-148061071D01*
X98784285Y-147989642D01*
X98712857Y-147846785D01*
X98712857Y-147703928D01*
X98784285Y-147561071D01*
X98927142Y-147489642D01*
X99284285Y-147489642D01*
X99427142Y-147418214D01*
X100927142Y-148061071D02*
X100069999Y-148061071D01*
X100498571Y-148061071D02*
X100498571Y-146561071D01*
X100355714Y-146775357D01*
X100212857Y-146918214D01*
X100069999Y-146989642D01*
X101855714Y-146561071D02*
X101998571Y-146561071D01*
X102141428Y-146632500D01*
X102212857Y-146703928D01*
X102284285Y-146846785D01*
X102355714Y-147132500D01*
X102355714Y-147489642D01*
X102284285Y-147775357D01*
X102212857Y-147918214D01*
X102141428Y-147989642D01*
X101998571Y-148061071D01*
X101855714Y-148061071D01*
X101712857Y-147989642D01*
X101641428Y-147918214D01*
X101569999Y-147775357D01*
X101498571Y-147489642D01*
X101498571Y-147132500D01*
X101569999Y-146846785D01*
X101641428Y-146703928D01*
X101712857Y-146632500D01*
X101855714Y-146561071D01*
X103712857Y-146561071D02*
X102998571Y-146561071D01*
X102927142Y-147275357D01*
X102998571Y-147203928D01*
X103141428Y-147132500D01*
X103498571Y-147132500D01*
X103641428Y-147203928D01*
X103712857Y-147275357D01*
X103784285Y-147418214D01*
X103784285Y-147775357D01*
X103712857Y-147918214D01*
X103641428Y-147989642D01*
X103498571Y-148061071D01*
X103141428Y-148061071D01*
X102998571Y-147989642D01*
X102927142Y-147918214D01*
X104712857Y-146561071D02*
X104855714Y-146561071D01*
X104998571Y-146632500D01*
X105069999Y-146703928D01*
X105141428Y-146846785D01*
X105212857Y-147132500D01*
X105212857Y-147489642D01*
X105141428Y-147775357D01*
X105069999Y-147918214D01*
X104998571Y-147989642D01*
X104855714Y-148061071D01*
X104712857Y-148061071D01*
X104569999Y-147989642D01*
X104498571Y-147918214D01*
X104427142Y-147775357D01*
X104355714Y-147489642D01*
X104355714Y-147132500D01*
X104427142Y-146846785D01*
X104498571Y-146703928D01*
X104569999Y-146632500D01*
X104712857Y-146561071D01*
X75141428Y-150476071D02*
X74641428Y-149761785D01*
X74284285Y-150476071D02*
X74284285Y-148976071D01*
X74855714Y-148976071D01*
X74998571Y-149047500D01*
X75070000Y-149118928D01*
X75141428Y-149261785D01*
X75141428Y-149476071D01*
X75070000Y-149618928D01*
X74998571Y-149690357D01*
X74855714Y-149761785D01*
X74284285Y-149761785D01*
X76355714Y-150404642D02*
X76212857Y-150476071D01*
X75927142Y-150476071D01*
X75784285Y-150404642D01*
X75712857Y-150261785D01*
X75712857Y-149690357D01*
X75784285Y-149547500D01*
X75927142Y-149476071D01*
X76212857Y-149476071D01*
X76355714Y-149547500D01*
X76427142Y-149690357D01*
X76427142Y-149833214D01*
X75712857Y-149976071D01*
X76927142Y-149476071D02*
X77284285Y-150476071D01*
X77641428Y-149476071D01*
X79284285Y-149118928D02*
X79355714Y-149047500D01*
X79498571Y-148976071D01*
X79855714Y-148976071D01*
X79998571Y-149047500D01*
X80070000Y-149118928D01*
X80141428Y-149261785D01*
X80141428Y-149404642D01*
X80070000Y-149618928D01*
X79212857Y-150476071D01*
X80141428Y-150476071D01*
X81070000Y-148976071D02*
X81212857Y-148976071D01*
X81355714Y-149047500D01*
X81427142Y-149118928D01*
X81498571Y-149261785D01*
X81570000Y-149547500D01*
X81570000Y-149904642D01*
X81498571Y-150190357D01*
X81427142Y-150333214D01*
X81355714Y-150404642D01*
X81212857Y-150476071D01*
X81070000Y-150476071D01*
X80927142Y-150404642D01*
X80855714Y-150333214D01*
X80784285Y-150190357D01*
X80712857Y-149904642D01*
X80712857Y-149547500D01*
X80784285Y-149261785D01*
X80855714Y-149118928D01*
X80927142Y-149047500D01*
X81070000Y-148976071D01*
X82141428Y-149118928D02*
X82212857Y-149047500D01*
X82355714Y-148976071D01*
X82712857Y-148976071D01*
X82855714Y-149047500D01*
X82927142Y-149118928D01*
X82998571Y-149261785D01*
X82998571Y-149404642D01*
X82927142Y-149618928D01*
X82070000Y-150476071D01*
X82998571Y-150476071D01*
X83498571Y-148976071D02*
X84427142Y-148976071D01*
X83927142Y-149547500D01*
X84141428Y-149547500D01*
X84284285Y-149618928D01*
X84355714Y-149690357D01*
X84427142Y-149833214D01*
X84427142Y-150190357D01*
X84355714Y-150333214D01*
X84284285Y-150404642D01*
X84141428Y-150476071D01*
X83712857Y-150476071D01*
X83570000Y-150404642D01*
X83498571Y-150333214D01*
X85355714Y-148976071D02*
X85498571Y-148976071D01*
X85641428Y-149047500D01*
X85712857Y-149118928D01*
X85784285Y-149261785D01*
X85855714Y-149547500D01*
X85855714Y-149904642D01*
X85784285Y-150190357D01*
X85712857Y-150333214D01*
X85641428Y-150404642D01*
X85498571Y-150476071D01*
X85355714Y-150476071D01*
X85212857Y-150404642D01*
X85141428Y-150333214D01*
X85070000Y-150190357D01*
X84998571Y-149904642D01*
X84998571Y-149547500D01*
X85070000Y-149261785D01*
X85141428Y-149118928D01*
X85212857Y-149047500D01*
X85355714Y-148976071D01*
X86355714Y-148976071D02*
X87284285Y-148976071D01*
X86784285Y-149547500D01*
X86998571Y-149547500D01*
X87141428Y-149618928D01*
X87212857Y-149690357D01*
X87284285Y-149833214D01*
X87284285Y-150190357D01*
X87212857Y-150333214D01*
X87141428Y-150404642D01*
X86998571Y-150476071D01*
X86570000Y-150476071D01*
X86427142Y-150404642D01*
X86355714Y-150333214D01*
X87927142Y-149904642D02*
X89070000Y-149904642D01*
X90070000Y-148976071D02*
X90212857Y-148976071D01*
X90355714Y-149047500D01*
X90427142Y-149118928D01*
X90498571Y-149261785D01*
X90570000Y-149547500D01*
X90570000Y-149904642D01*
X90498571Y-150190357D01*
X90427142Y-150333214D01*
X90355714Y-150404642D01*
X90212857Y-150476071D01*
X90070000Y-150476071D01*
X89927142Y-150404642D01*
X89855714Y-150333214D01*
X89784285Y-150190357D01*
X89712857Y-149904642D01*
X89712857Y-149547500D01*
X89784285Y-149261785D01*
X89855714Y-149118928D01*
X89927142Y-149047500D01*
X90070000Y-148976071D01*
X91498571Y-148976071D02*
X91641428Y-148976071D01*
X91784285Y-149047500D01*
X91855714Y-149118928D01*
X91927142Y-149261785D01*
X91998571Y-149547500D01*
X91998571Y-149904642D01*
X91927142Y-150190357D01*
X91855714Y-150333214D01*
X91784285Y-150404642D01*
X91641428Y-150476071D01*
X91498571Y-150476071D01*
X91355714Y-150404642D01*
X91284285Y-150333214D01*
X91212857Y-150190357D01*
X91141428Y-149904642D01*
X91141428Y-149547500D01*
X91212857Y-149261785D01*
X91284285Y-149118928D01*
X91355714Y-149047500D01*
X91498571Y-148976071D01*
X93427142Y-150476071D02*
X92570000Y-150476071D01*
X92998571Y-150476071D02*
X92998571Y-148976071D01*
X92855714Y-149190357D01*
X92712857Y-149333214D01*
X92570000Y-149404642D01*
D12*
X107950000Y-80010000D03*
D13*
X107950000Y-90170000D03*
D14*
X58420000Y-110490000D03*
D13*
X58420000Y-113030000D03*
X58420000Y-115570000D03*
X58420000Y-118110000D03*
X58420000Y-120650000D03*
D15*
X110490000Y-134620000D03*
X107950000Y-134620000D03*
X105410000Y-134620000D03*
X102870000Y-134620000D03*
X100330000Y-134620000D03*
X97790000Y-134620000D03*
X95250000Y-134620000D03*
X92710000Y-134620000D03*
X90170000Y-134620000D03*
X90170000Y-132080000D03*
X90170000Y-129540000D03*
X90170000Y-127000000D03*
X90170000Y-124460000D03*
X90170000Y-121920000D03*
X90170000Y-119380000D03*
X92710000Y-119380000D03*
X95250000Y-119380000D03*
X97790000Y-119380000D03*
X100330000Y-119380000D03*
X102870000Y-119380000D03*
X105410000Y-119380000D03*
X107950000Y-119380000D03*
X110490000Y-119380000D03*
D16*
X107950000Y-97790000D03*
D17*
X107950000Y-100330000D03*
X107950000Y-102870000D03*
X107950000Y-105410000D03*
X107950000Y-107950000D03*
X107950000Y-110490000D03*
X107950000Y-113030000D03*
D14*
X58420000Y-138430000D03*
D13*
X58420000Y-140970000D03*
X58420000Y-143510000D03*
X58420000Y-146050000D03*
X58420000Y-148590000D03*
D14*
X58420000Y-96520000D03*
D13*
X58420000Y-99060000D03*
X58420000Y-101600000D03*
X58420000Y-104140000D03*
X58420000Y-106680000D03*
D18*
X50800000Y-91980000D03*
D19*
X50800000Y-93980000D03*
X50800000Y-95980000D03*
X50800000Y-97980000D03*
X50800000Y-99980000D03*
D20*
X99060000Y-105410000D03*
D21*
X99060000Y-102870000D03*
X99060000Y-100330000D03*
D18*
X50800000Y-114300000D03*
D19*
X50800000Y-116300000D03*
X50800000Y-118300000D03*
X50800000Y-120300000D03*
X50800000Y-122300000D03*
X50800000Y-124300000D03*
X50800000Y-126300000D03*
X50800000Y-128300000D03*
X50800000Y-130300000D03*
X50800000Y-132300000D03*
X50800000Y-134300000D03*
X50800000Y-136300000D03*
D12*
X104115000Y-110470000D03*
D13*
X93955000Y-110470000D03*
D14*
X58420000Y-124460000D03*
D13*
X58420000Y-127000000D03*
X58420000Y-129540000D03*
X58420000Y-132080000D03*
X58420000Y-134620000D03*
D14*
X67310000Y-88900000D03*
D13*
X69850000Y-88900000D03*
X72390000Y-88900000D03*
X74930000Y-88900000D03*
X77470000Y-88900000D03*
X80010000Y-88900000D03*
X82550000Y-88900000D03*
X85090000Y-88900000D03*
X87630000Y-88900000D03*
X90170000Y-88900000D03*
X92710000Y-88900000D03*
X95250000Y-88900000D03*
X95250000Y-73660000D03*
X92710000Y-73660000D03*
X90170000Y-73660000D03*
X87630000Y-73660000D03*
X85090000Y-73660000D03*
X82550000Y-73660000D03*
X80010000Y-73660000D03*
X77470000Y-73660000D03*
X74930000Y-73660000D03*
X72390000Y-73660000D03*
X69850000Y-73660000D03*
X67310000Y-73660000D03*
X78740000Y-76200000D03*
X76200000Y-76200000D03*
X88900000Y-76200000D03*
X86360000Y-76200000D03*
D22*
X48260000Y-98520000D02*
X48260000Y-131760000D01*
X48260000Y-131760000D02*
X50800000Y-134300000D01*
X50800000Y-95980000D02*
X48260000Y-98520000D01*
X76180000Y-110470000D02*
X74930000Y-109220000D01*
X93955000Y-110470000D02*
X76180000Y-110470000D01*
X58420000Y-72390000D02*
X59690000Y-71120000D01*
X74930000Y-72390000D02*
X74930000Y-73660000D01*
X73660000Y-96520000D02*
X58420000Y-96520000D01*
X74930000Y-97790000D02*
X73660000Y-96520000D01*
X59690000Y-71120000D02*
X73660000Y-71120000D01*
X58420000Y-96520000D02*
X58420000Y-72390000D01*
X74930000Y-109220000D02*
X74930000Y-97790000D01*
X73660000Y-71120000D02*
X74930000Y-72390000D01*
X105410000Y-97790000D02*
X107950000Y-100330000D01*
X95250000Y-73660000D02*
X105410000Y-83820000D01*
X105410000Y-83820000D02*
X105410000Y-97790000D01*
X87630000Y-73660000D02*
X87630000Y-72390000D01*
X110490000Y-100330000D02*
X107950000Y-102870000D01*
X87630000Y-72390000D02*
X90170000Y-69850000D01*
X107950000Y-69850000D02*
X110490000Y-72390000D01*
X90170000Y-69850000D02*
X107950000Y-69850000D01*
X110490000Y-72390000D02*
X110490000Y-100330000D01*
X92710000Y-73660000D02*
X104140000Y-85090000D01*
X104140000Y-85090000D02*
X104140000Y-101600000D01*
X104140000Y-101600000D02*
X107950000Y-105410000D01*
X101600000Y-88900000D02*
X102870000Y-90170000D01*
X102870000Y-90170000D02*
X102870000Y-105410000D01*
X95250000Y-88900000D02*
X101600000Y-88900000D01*
X102870000Y-105410000D02*
X107950000Y-110490000D01*
X73660000Y-123190000D02*
X74930000Y-124460000D01*
X58420000Y-99060000D02*
X72390000Y-99060000D01*
X72390000Y-99060000D02*
X73660000Y-100330000D01*
X73660000Y-100330000D02*
X73660000Y-123190000D01*
X50800000Y-91980000D02*
X51340000Y-91980000D01*
X51340000Y-91980000D02*
X58420000Y-99060000D01*
X74930000Y-124460000D02*
X90170000Y-124460000D01*
X50800000Y-93980000D02*
X58420000Y-101600000D01*
X72390000Y-125730000D02*
X73660000Y-127000000D01*
X56960000Y-104140000D02*
X58420000Y-104140000D01*
X73660000Y-127000000D02*
X90170000Y-127000000D01*
X72390000Y-105410000D02*
X72390000Y-125730000D01*
X71120000Y-104140000D02*
X72390000Y-105410000D01*
X58420000Y-104140000D02*
X71120000Y-104140000D01*
X50800000Y-97980000D02*
X56960000Y-104140000D01*
X57500000Y-106680000D02*
X58420000Y-106680000D01*
X50800000Y-99980000D02*
X57500000Y-106680000D01*
X72390000Y-129540000D02*
X90170000Y-129540000D01*
X58420000Y-113030000D02*
X69850000Y-113030000D01*
X71120000Y-114300000D02*
X71120000Y-128270000D01*
X69850000Y-113030000D02*
X71120000Y-114300000D01*
X54070000Y-113030000D02*
X58420000Y-113030000D01*
X71120000Y-128270000D02*
X72390000Y-129540000D01*
X50800000Y-116300000D02*
X54070000Y-113030000D01*
X58420000Y-115570000D02*
X68580000Y-115570000D01*
X53340000Y-115570000D02*
X58420000Y-115570000D01*
X69850000Y-130810000D02*
X71120000Y-132080000D01*
X74930000Y-132080000D02*
X90170000Y-132080000D01*
X52070000Y-116840000D02*
X53340000Y-115570000D01*
X50800000Y-118300000D02*
X52070000Y-117030000D01*
X68580000Y-115570000D02*
X69850000Y-116840000D01*
X69850000Y-116840000D02*
X69850000Y-130810000D01*
X71120000Y-132080000D02*
X90170000Y-132080000D01*
X52070000Y-117030000D02*
X52070000Y-116840000D01*
X69850000Y-134620000D02*
X82550000Y-134620000D01*
X68580000Y-133350000D02*
X69850000Y-134620000D01*
X74930000Y-134620000D02*
X82550000Y-134620000D01*
X58420000Y-118110000D02*
X67310000Y-118110000D01*
X67310000Y-118110000D02*
X68580000Y-119380000D01*
X52990000Y-118110000D02*
X58420000Y-118110000D01*
X82550000Y-134620000D02*
X90170000Y-134620000D01*
X50800000Y-120300000D02*
X52990000Y-118110000D01*
X68580000Y-119380000D02*
X68580000Y-133350000D01*
X67310000Y-135890000D02*
X68580000Y-137160000D01*
X52450000Y-120650000D02*
X58420000Y-120650000D01*
X50800000Y-122300000D02*
X52450000Y-120650000D01*
X67310000Y-121920000D02*
X67310000Y-135890000D01*
X68580000Y-137160000D02*
X86360000Y-137160000D01*
X92710000Y-134620000D02*
X92710000Y-135890000D01*
X58420000Y-120650000D02*
X66040000Y-120650000D01*
X92710000Y-135890000D02*
X91440000Y-137160000D01*
X91440000Y-137160000D02*
X86360000Y-137160000D01*
X86360000Y-137160000D02*
X74930000Y-137160000D01*
X66040000Y-120650000D02*
X67310000Y-121920000D01*
X64770000Y-127000000D02*
X66040000Y-128270000D01*
X95250000Y-137160000D02*
X95250000Y-134620000D01*
X58420000Y-127000000D02*
X64770000Y-127000000D01*
X66040000Y-137160000D02*
X67310000Y-138430000D01*
X52070000Y-125730000D02*
X53340000Y-127000000D01*
X66040000Y-128270000D02*
X66040000Y-137160000D01*
X50800000Y-124300000D02*
X52070000Y-125570000D01*
X52070000Y-125570000D02*
X52070000Y-125730000D01*
X93980000Y-138430000D02*
X95250000Y-137160000D01*
X67310000Y-138430000D02*
X93980000Y-138430000D01*
X53340000Y-127000000D02*
X58420000Y-127000000D01*
X58420000Y-129540000D02*
X63500000Y-129540000D01*
X54040000Y-129540000D02*
X58420000Y-129540000D01*
X50800000Y-126300000D02*
X54040000Y-129540000D01*
X97790000Y-138430000D02*
X97790000Y-134620000D01*
X96520000Y-139700000D02*
X97790000Y-138430000D01*
X63500000Y-129540000D02*
X64770000Y-130810000D01*
X64770000Y-138430000D02*
X66040000Y-139700000D01*
X64770000Y-130810000D02*
X64770000Y-138430000D01*
X66040000Y-139700000D02*
X96520000Y-139700000D01*
X62230000Y-132080000D02*
X63500000Y-133350000D01*
X64770000Y-140970000D02*
X99060000Y-140970000D01*
X63500000Y-139700000D02*
X64770000Y-140970000D01*
X54610000Y-132080000D02*
X58420000Y-132080000D01*
X100330000Y-139700000D02*
X100330000Y-134620000D01*
X53340000Y-130810000D02*
X54610000Y-132080000D01*
X99060000Y-140970000D02*
X100330000Y-139700000D01*
X50800000Y-128300000D02*
X53310000Y-130810000D01*
X63500000Y-133350000D02*
X63500000Y-139700000D01*
X58420000Y-132080000D02*
X62230000Y-132080000D01*
X53310000Y-130810000D02*
X53340000Y-130810000D01*
X63500000Y-142240000D02*
X101600000Y-142240000D01*
X101600000Y-142240000D02*
X102870000Y-140970000D01*
X60960000Y-134620000D02*
X62230000Y-135890000D01*
X62230000Y-135890000D02*
X62230000Y-140970000D01*
X58420000Y-134620000D02*
X60960000Y-134620000D01*
X62230000Y-140970000D02*
X63500000Y-142240000D01*
X50800000Y-130300000D02*
X55120000Y-134620000D01*
X102870000Y-140970000D02*
X102870000Y-134620000D01*
X55120000Y-134620000D02*
X58420000Y-134620000D01*
X50800000Y-132300000D02*
X53340000Y-134840000D01*
X54610000Y-140970000D02*
X58420000Y-140970000D01*
X58420000Y-140970000D02*
X60960000Y-143510000D01*
X53340000Y-134840000D02*
X53340000Y-139700000D01*
X104140000Y-143510000D02*
X105410000Y-142240000D01*
X105410000Y-142240000D02*
X105410000Y-134620000D01*
X60960000Y-143510000D02*
X104140000Y-143510000D01*
X53340000Y-139700000D02*
X54610000Y-140970000D01*
X106680000Y-71120000D02*
X107950000Y-72390000D01*
X90170000Y-73660000D02*
X90170000Y-72390000D01*
X91440000Y-71120000D02*
X106680000Y-71120000D01*
X90170000Y-72390000D02*
X91440000Y-71120000D01*
X107950000Y-72390000D02*
X107950000Y-80010000D01*
X90170000Y-115570000D02*
X91440000Y-114300000D01*
X60960000Y-93980000D02*
X60960000Y-80010000D01*
X77470000Y-77470000D02*
X77470000Y-73660000D01*
X76200000Y-96520000D02*
X74930000Y-95250000D01*
X95250000Y-114300000D02*
X96520000Y-113030000D01*
X96520000Y-109220000D02*
X95250000Y-107950000D01*
X95250000Y-107950000D02*
X77470000Y-107950000D01*
X62230000Y-78740000D02*
X76200000Y-78740000D01*
X60960000Y-80010000D02*
X62230000Y-78740000D01*
X96520000Y-113030000D02*
X96520000Y-109220000D01*
X76200000Y-78740000D02*
X77470000Y-77470000D01*
X74930000Y-95250000D02*
X62230000Y-95250000D01*
X62230000Y-95250000D02*
X60960000Y-93980000D01*
X76200000Y-106680000D02*
X76200000Y-96520000D01*
X90170000Y-119380000D02*
X90170000Y-115570000D01*
X77470000Y-107950000D02*
X76200000Y-106680000D01*
X91440000Y-114300000D02*
X95250000Y-114300000D01*
X78740000Y-80010000D02*
X80010000Y-78740000D01*
X80010000Y-78740000D02*
X80010000Y-73660000D01*
X96520000Y-106680000D02*
X78740000Y-106680000D01*
X96520000Y-115570000D02*
X97790000Y-114300000D01*
X63500000Y-93980000D02*
X62230000Y-92710000D01*
X93980000Y-115570000D02*
X96520000Y-115570000D01*
X97790000Y-107950000D02*
X96520000Y-106680000D01*
X78740000Y-106680000D02*
X77470000Y-105410000D01*
X77470000Y-105410000D02*
X77470000Y-95250000D01*
X77470000Y-95250000D02*
X76200000Y-93980000D01*
X97790000Y-114300000D02*
X97790000Y-107950000D01*
X62230000Y-81280000D02*
X63500000Y-80010000D01*
X92710000Y-119380000D02*
X92710000Y-116840000D01*
X62230000Y-92710000D02*
X62230000Y-81280000D01*
X63500000Y-80010000D02*
X78740000Y-80010000D01*
X92710000Y-116840000D02*
X93980000Y-115570000D01*
X76200000Y-93980000D02*
X63500000Y-93980000D01*
M02*
