M48
; DRILL file {KiCad (6.0.1)} date Thu Mar  9 23:39:42 2023
; FORMAT={-:-/ absolute / metric / decimal}
; #@! TF.CreationDate,2023-03-09T23:39:42+09:00
; #@! TF.GenerationSoftware,Kicad,Pcbnew,(6.0.1)
; #@! TF.FileFunction,Plated,1,2,PTH
FMAT,2
METRIC
; #@! TA.AperFunction,Plated,PTH,ComponentDrill
T1C0.762
; #@! TA.AperFunction,Plated,PTH,ComponentDrill
T2C0.800
; #@! TA.AperFunction,Plated,PTH,ComponentDrill
T3C1.000
%
G90
G05
T1
X90.17Y-119.38
X90.17Y-121.92
X90.17Y-124.46
X90.17Y-127.0
X90.17Y-129.54
X90.17Y-132.08
X90.17Y-134.62
X92.71Y-119.38
X92.71Y-134.62
X95.25Y-119.38
X95.25Y-134.62
X97.79Y-119.38
X97.79Y-134.62
X100.33Y-119.38
X100.33Y-134.62
X102.87Y-119.38
X102.87Y-134.62
X105.41Y-119.38
X105.41Y-134.62
X107.95Y-119.38
X107.95Y-134.62
X110.49Y-119.38
X110.49Y-134.62
T2
X50.8Y-91.98
X50.8Y-93.98
X50.8Y-95.98
X50.8Y-97.98
X50.8Y-99.98
X50.8Y-114.3
X50.8Y-116.3
X50.8Y-118.3
X50.8Y-120.3
X50.8Y-122.3
X50.8Y-124.3
X50.8Y-126.3
X50.8Y-128.3
X50.8Y-130.3
X50.8Y-132.3
X50.8Y-134.3
X50.8Y-136.3
X58.42Y-96.52
X58.42Y-99.06
X58.42Y-101.6
X58.42Y-104.14
X58.42Y-106.68
X58.42Y-110.49
X58.42Y-113.03
X58.42Y-115.57
X58.42Y-118.11
X58.42Y-120.65
X58.42Y-124.46
X58.42Y-127.0
X58.42Y-129.54
X58.42Y-132.08
X58.42Y-134.62
X58.42Y-138.43
X58.42Y-140.97
X58.42Y-143.51
X58.42Y-146.05
X58.42Y-148.59
X67.31Y-73.66
X67.31Y-88.9
X69.85Y-73.66
X69.85Y-88.9
X72.39Y-73.66
X72.39Y-88.9
X74.93Y-73.66
X74.93Y-88.9
X76.2Y-76.2
X77.47Y-73.66
X77.47Y-88.9
X78.74Y-76.2
X80.01Y-73.66
X80.01Y-88.9
X82.55Y-73.66
X82.55Y-88.9
X85.09Y-73.66
X85.09Y-88.9
X86.36Y-76.2
X87.63Y-73.66
X87.63Y-88.9
X88.9Y-76.2
X90.17Y-73.66
X90.17Y-88.9
X92.71Y-73.66
X92.71Y-88.9
X93.955Y-110.47
X95.25Y-73.66
X95.25Y-88.9
X99.06Y-100.33
X99.06Y-102.87
X99.06Y-105.41
X104.115Y-110.47
X107.95Y-80.01
X107.95Y-90.17
T3
X107.95Y-97.79
X107.95Y-100.33
X107.95Y-102.87
X107.95Y-105.41
X107.95Y-107.95
X107.95Y-110.49
X107.95Y-113.03
T0
M30
