G04 #@! TF.GenerationSoftware,KiCad,Pcbnew,8.0.5*
G04 #@! TF.CreationDate,2024-10-04T13:50:06+09:00*
G04 #@! TF.ProjectId,mxiidx-socket,6d786969-6478-42d7-936f-636b65742e6b,rev?*
G04 #@! TF.SameCoordinates,Original*
G04 #@! TF.FileFunction,Legend,Bot*
G04 #@! TF.FilePolarity,Positive*
%FSLAX46Y46*%
G04 Gerber Fmt 4.6, Leading zero omitted, Abs format (unit mm)*
G04 Created by KiCad (PCBNEW 8.0.5) date 2024-10-04 13:50:06*
%MOMM*%
%LPD*%
G01*
G04 APERTURE LIST*
%ADD10C,0.150000*%
%ADD11C,0.120000*%
%ADD12C,1.750000*%
%ADD13C,3.050000*%
%ADD14C,4.000000*%
G04 APERTURE END LIST*
D10*
X147637332Y-49175200D02*
X147494475Y-49222819D01*
X147494475Y-49222819D02*
X147256380Y-49222819D01*
X147256380Y-49222819D02*
X147161142Y-49175200D01*
X147161142Y-49175200D02*
X147113523Y-49127580D01*
X147113523Y-49127580D02*
X147065904Y-49032342D01*
X147065904Y-49032342D02*
X147065904Y-48937104D01*
X147065904Y-48937104D02*
X147113523Y-48841866D01*
X147113523Y-48841866D02*
X147161142Y-48794247D01*
X147161142Y-48794247D02*
X147256380Y-48746628D01*
X147256380Y-48746628D02*
X147446856Y-48699009D01*
X147446856Y-48699009D02*
X147542094Y-48651390D01*
X147542094Y-48651390D02*
X147589713Y-48603771D01*
X147589713Y-48603771D02*
X147637332Y-48508533D01*
X147637332Y-48508533D02*
X147637332Y-48413295D01*
X147637332Y-48413295D02*
X147589713Y-48318057D01*
X147589713Y-48318057D02*
X147542094Y-48270438D01*
X147542094Y-48270438D02*
X147446856Y-48222819D01*
X147446856Y-48222819D02*
X147208761Y-48222819D01*
X147208761Y-48222819D02*
X147065904Y-48270438D01*
X146732570Y-48222819D02*
X146494475Y-49222819D01*
X146494475Y-49222819D02*
X146303999Y-48508533D01*
X146303999Y-48508533D02*
X146113523Y-49222819D01*
X146113523Y-49222819D02*
X145875428Y-48222819D01*
X144970666Y-49222819D02*
X145542094Y-49222819D01*
X145256380Y-49222819D02*
X145256380Y-48222819D01*
X145256380Y-48222819D02*
X145351618Y-48365676D01*
X145351618Y-48365676D02*
X145446856Y-48460914D01*
X145446856Y-48460914D02*
X145542094Y-48508533D01*
X147637332Y-67971200D02*
X147494475Y-68018819D01*
X147494475Y-68018819D02*
X147256380Y-68018819D01*
X147256380Y-68018819D02*
X147161142Y-67971200D01*
X147161142Y-67971200D02*
X147113523Y-67923580D01*
X147113523Y-67923580D02*
X147065904Y-67828342D01*
X147065904Y-67828342D02*
X147065904Y-67733104D01*
X147065904Y-67733104D02*
X147113523Y-67637866D01*
X147113523Y-67637866D02*
X147161142Y-67590247D01*
X147161142Y-67590247D02*
X147256380Y-67542628D01*
X147256380Y-67542628D02*
X147446856Y-67495009D01*
X147446856Y-67495009D02*
X147542094Y-67447390D01*
X147542094Y-67447390D02*
X147589713Y-67399771D01*
X147589713Y-67399771D02*
X147637332Y-67304533D01*
X147637332Y-67304533D02*
X147637332Y-67209295D01*
X147637332Y-67209295D02*
X147589713Y-67114057D01*
X147589713Y-67114057D02*
X147542094Y-67066438D01*
X147542094Y-67066438D02*
X147446856Y-67018819D01*
X147446856Y-67018819D02*
X147208761Y-67018819D01*
X147208761Y-67018819D02*
X147065904Y-67066438D01*
X146732570Y-67018819D02*
X146494475Y-68018819D01*
X146494475Y-68018819D02*
X146303999Y-67304533D01*
X146303999Y-67304533D02*
X146113523Y-68018819D01*
X146113523Y-68018819D02*
X145875428Y-67018819D01*
X144970666Y-68018819D02*
X145542094Y-68018819D01*
X145256380Y-68018819D02*
X145256380Y-67018819D01*
X145256380Y-67018819D02*
X145351618Y-67161676D01*
X145351618Y-67161676D02*
X145446856Y-67256914D01*
X145446856Y-67256914D02*
X145542094Y-67304533D01*
X147637332Y-86767200D02*
X147494475Y-86814819D01*
X147494475Y-86814819D02*
X147256380Y-86814819D01*
X147256380Y-86814819D02*
X147161142Y-86767200D01*
X147161142Y-86767200D02*
X147113523Y-86719580D01*
X147113523Y-86719580D02*
X147065904Y-86624342D01*
X147065904Y-86624342D02*
X147065904Y-86529104D01*
X147065904Y-86529104D02*
X147113523Y-86433866D01*
X147113523Y-86433866D02*
X147161142Y-86386247D01*
X147161142Y-86386247D02*
X147256380Y-86338628D01*
X147256380Y-86338628D02*
X147446856Y-86291009D01*
X147446856Y-86291009D02*
X147542094Y-86243390D01*
X147542094Y-86243390D02*
X147589713Y-86195771D01*
X147589713Y-86195771D02*
X147637332Y-86100533D01*
X147637332Y-86100533D02*
X147637332Y-86005295D01*
X147637332Y-86005295D02*
X147589713Y-85910057D01*
X147589713Y-85910057D02*
X147542094Y-85862438D01*
X147542094Y-85862438D02*
X147446856Y-85814819D01*
X147446856Y-85814819D02*
X147208761Y-85814819D01*
X147208761Y-85814819D02*
X147065904Y-85862438D01*
X146732570Y-85814819D02*
X146494475Y-86814819D01*
X146494475Y-86814819D02*
X146303999Y-86100533D01*
X146303999Y-86100533D02*
X146113523Y-86814819D01*
X146113523Y-86814819D02*
X145875428Y-85814819D01*
X144970666Y-86814819D02*
X145542094Y-86814819D01*
X145256380Y-86814819D02*
X145256380Y-85814819D01*
X145256380Y-85814819D02*
X145351618Y-85957676D01*
X145351618Y-85957676D02*
X145446856Y-86052914D01*
X145446856Y-86052914D02*
X145542094Y-86100533D01*
X147637332Y-105563200D02*
X147494475Y-105610819D01*
X147494475Y-105610819D02*
X147256380Y-105610819D01*
X147256380Y-105610819D02*
X147161142Y-105563200D01*
X147161142Y-105563200D02*
X147113523Y-105515580D01*
X147113523Y-105515580D02*
X147065904Y-105420342D01*
X147065904Y-105420342D02*
X147065904Y-105325104D01*
X147065904Y-105325104D02*
X147113523Y-105229866D01*
X147113523Y-105229866D02*
X147161142Y-105182247D01*
X147161142Y-105182247D02*
X147256380Y-105134628D01*
X147256380Y-105134628D02*
X147446856Y-105087009D01*
X147446856Y-105087009D02*
X147542094Y-105039390D01*
X147542094Y-105039390D02*
X147589713Y-104991771D01*
X147589713Y-104991771D02*
X147637332Y-104896533D01*
X147637332Y-104896533D02*
X147637332Y-104801295D01*
X147637332Y-104801295D02*
X147589713Y-104706057D01*
X147589713Y-104706057D02*
X147542094Y-104658438D01*
X147542094Y-104658438D02*
X147446856Y-104610819D01*
X147446856Y-104610819D02*
X147208761Y-104610819D01*
X147208761Y-104610819D02*
X147065904Y-104658438D01*
X146732570Y-104610819D02*
X146494475Y-105610819D01*
X146494475Y-105610819D02*
X146303999Y-104896533D01*
X146303999Y-104896533D02*
X146113523Y-105610819D01*
X146113523Y-105610819D02*
X145875428Y-104610819D01*
X144970666Y-105610819D02*
X145542094Y-105610819D01*
X145256380Y-105610819D02*
X145256380Y-104610819D01*
X145256380Y-104610819D02*
X145351618Y-104753676D01*
X145351618Y-104753676D02*
X145446856Y-104848914D01*
X145446856Y-104848914D02*
X145542094Y-104896533D01*
X171005332Y-49175200D02*
X170862475Y-49222819D01*
X170862475Y-49222819D02*
X170624380Y-49222819D01*
X170624380Y-49222819D02*
X170529142Y-49175200D01*
X170529142Y-49175200D02*
X170481523Y-49127580D01*
X170481523Y-49127580D02*
X170433904Y-49032342D01*
X170433904Y-49032342D02*
X170433904Y-48937104D01*
X170433904Y-48937104D02*
X170481523Y-48841866D01*
X170481523Y-48841866D02*
X170529142Y-48794247D01*
X170529142Y-48794247D02*
X170624380Y-48746628D01*
X170624380Y-48746628D02*
X170814856Y-48699009D01*
X170814856Y-48699009D02*
X170910094Y-48651390D01*
X170910094Y-48651390D02*
X170957713Y-48603771D01*
X170957713Y-48603771D02*
X171005332Y-48508533D01*
X171005332Y-48508533D02*
X171005332Y-48413295D01*
X171005332Y-48413295D02*
X170957713Y-48318057D01*
X170957713Y-48318057D02*
X170910094Y-48270438D01*
X170910094Y-48270438D02*
X170814856Y-48222819D01*
X170814856Y-48222819D02*
X170576761Y-48222819D01*
X170576761Y-48222819D02*
X170433904Y-48270438D01*
X170100570Y-48222819D02*
X169862475Y-49222819D01*
X169862475Y-49222819D02*
X169671999Y-48508533D01*
X169671999Y-48508533D02*
X169481523Y-49222819D01*
X169481523Y-49222819D02*
X169243428Y-48222819D01*
X168338666Y-49222819D02*
X168910094Y-49222819D01*
X168624380Y-49222819D02*
X168624380Y-48222819D01*
X168624380Y-48222819D02*
X168719618Y-48365676D01*
X168719618Y-48365676D02*
X168814856Y-48460914D01*
X168814856Y-48460914D02*
X168910094Y-48508533D01*
X171005332Y-67971200D02*
X170862475Y-68018819D01*
X170862475Y-68018819D02*
X170624380Y-68018819D01*
X170624380Y-68018819D02*
X170529142Y-67971200D01*
X170529142Y-67971200D02*
X170481523Y-67923580D01*
X170481523Y-67923580D02*
X170433904Y-67828342D01*
X170433904Y-67828342D02*
X170433904Y-67733104D01*
X170433904Y-67733104D02*
X170481523Y-67637866D01*
X170481523Y-67637866D02*
X170529142Y-67590247D01*
X170529142Y-67590247D02*
X170624380Y-67542628D01*
X170624380Y-67542628D02*
X170814856Y-67495009D01*
X170814856Y-67495009D02*
X170910094Y-67447390D01*
X170910094Y-67447390D02*
X170957713Y-67399771D01*
X170957713Y-67399771D02*
X171005332Y-67304533D01*
X171005332Y-67304533D02*
X171005332Y-67209295D01*
X171005332Y-67209295D02*
X170957713Y-67114057D01*
X170957713Y-67114057D02*
X170910094Y-67066438D01*
X170910094Y-67066438D02*
X170814856Y-67018819D01*
X170814856Y-67018819D02*
X170576761Y-67018819D01*
X170576761Y-67018819D02*
X170433904Y-67066438D01*
X170100570Y-67018819D02*
X169862475Y-68018819D01*
X169862475Y-68018819D02*
X169671999Y-67304533D01*
X169671999Y-67304533D02*
X169481523Y-68018819D01*
X169481523Y-68018819D02*
X169243428Y-67018819D01*
X168338666Y-68018819D02*
X168910094Y-68018819D01*
X168624380Y-68018819D02*
X168624380Y-67018819D01*
X168624380Y-67018819D02*
X168719618Y-67161676D01*
X168719618Y-67161676D02*
X168814856Y-67256914D01*
X168814856Y-67256914D02*
X168910094Y-67304533D01*
X171005332Y-105563200D02*
X170862475Y-105610819D01*
X170862475Y-105610819D02*
X170624380Y-105610819D01*
X170624380Y-105610819D02*
X170529142Y-105563200D01*
X170529142Y-105563200D02*
X170481523Y-105515580D01*
X170481523Y-105515580D02*
X170433904Y-105420342D01*
X170433904Y-105420342D02*
X170433904Y-105325104D01*
X170433904Y-105325104D02*
X170481523Y-105229866D01*
X170481523Y-105229866D02*
X170529142Y-105182247D01*
X170529142Y-105182247D02*
X170624380Y-105134628D01*
X170624380Y-105134628D02*
X170814856Y-105087009D01*
X170814856Y-105087009D02*
X170910094Y-105039390D01*
X170910094Y-105039390D02*
X170957713Y-104991771D01*
X170957713Y-104991771D02*
X171005332Y-104896533D01*
X171005332Y-104896533D02*
X171005332Y-104801295D01*
X171005332Y-104801295D02*
X170957713Y-104706057D01*
X170957713Y-104706057D02*
X170910094Y-104658438D01*
X170910094Y-104658438D02*
X170814856Y-104610819D01*
X170814856Y-104610819D02*
X170576761Y-104610819D01*
X170576761Y-104610819D02*
X170433904Y-104658438D01*
X170100570Y-104610819D02*
X169862475Y-105610819D01*
X169862475Y-105610819D02*
X169671999Y-104896533D01*
X169671999Y-104896533D02*
X169481523Y-105610819D01*
X169481523Y-105610819D02*
X169243428Y-104610819D01*
X168338666Y-105610819D02*
X168910094Y-105610819D01*
X168624380Y-105610819D02*
X168624380Y-104610819D01*
X168624380Y-104610819D02*
X168719618Y-104753676D01*
X168719618Y-104753676D02*
X168814856Y-104848914D01*
X168814856Y-104848914D02*
X168910094Y-104896533D01*
X171005332Y-86767200D02*
X170862475Y-86814819D01*
X170862475Y-86814819D02*
X170624380Y-86814819D01*
X170624380Y-86814819D02*
X170529142Y-86767200D01*
X170529142Y-86767200D02*
X170481523Y-86719580D01*
X170481523Y-86719580D02*
X170433904Y-86624342D01*
X170433904Y-86624342D02*
X170433904Y-86529104D01*
X170433904Y-86529104D02*
X170481523Y-86433866D01*
X170481523Y-86433866D02*
X170529142Y-86386247D01*
X170529142Y-86386247D02*
X170624380Y-86338628D01*
X170624380Y-86338628D02*
X170814856Y-86291009D01*
X170814856Y-86291009D02*
X170910094Y-86243390D01*
X170910094Y-86243390D02*
X170957713Y-86195771D01*
X170957713Y-86195771D02*
X171005332Y-86100533D01*
X171005332Y-86100533D02*
X171005332Y-86005295D01*
X171005332Y-86005295D02*
X170957713Y-85910057D01*
X170957713Y-85910057D02*
X170910094Y-85862438D01*
X170910094Y-85862438D02*
X170814856Y-85814819D01*
X170814856Y-85814819D02*
X170576761Y-85814819D01*
X170576761Y-85814819D02*
X170433904Y-85862438D01*
X170100570Y-85814819D02*
X169862475Y-86814819D01*
X169862475Y-86814819D02*
X169671999Y-86100533D01*
X169671999Y-86100533D02*
X169481523Y-86814819D01*
X169481523Y-86814819D02*
X169243428Y-85814819D01*
X168338666Y-86814819D02*
X168910094Y-86814819D01*
X168624380Y-86814819D02*
X168624380Y-85814819D01*
X168624380Y-85814819D02*
X168719618Y-85957676D01*
X168719618Y-85957676D02*
X168814856Y-86052914D01*
X168814856Y-86052914D02*
X168910094Y-86100533D01*
X194373332Y-49175200D02*
X194230475Y-49222819D01*
X194230475Y-49222819D02*
X193992380Y-49222819D01*
X193992380Y-49222819D02*
X193897142Y-49175200D01*
X193897142Y-49175200D02*
X193849523Y-49127580D01*
X193849523Y-49127580D02*
X193801904Y-49032342D01*
X193801904Y-49032342D02*
X193801904Y-48937104D01*
X193801904Y-48937104D02*
X193849523Y-48841866D01*
X193849523Y-48841866D02*
X193897142Y-48794247D01*
X193897142Y-48794247D02*
X193992380Y-48746628D01*
X193992380Y-48746628D02*
X194182856Y-48699009D01*
X194182856Y-48699009D02*
X194278094Y-48651390D01*
X194278094Y-48651390D02*
X194325713Y-48603771D01*
X194325713Y-48603771D02*
X194373332Y-48508533D01*
X194373332Y-48508533D02*
X194373332Y-48413295D01*
X194373332Y-48413295D02*
X194325713Y-48318057D01*
X194325713Y-48318057D02*
X194278094Y-48270438D01*
X194278094Y-48270438D02*
X194182856Y-48222819D01*
X194182856Y-48222819D02*
X193944761Y-48222819D01*
X193944761Y-48222819D02*
X193801904Y-48270438D01*
X193468570Y-48222819D02*
X193230475Y-49222819D01*
X193230475Y-49222819D02*
X193039999Y-48508533D01*
X193039999Y-48508533D02*
X192849523Y-49222819D01*
X192849523Y-49222819D02*
X192611428Y-48222819D01*
X191706666Y-49222819D02*
X192278094Y-49222819D01*
X191992380Y-49222819D02*
X191992380Y-48222819D01*
X191992380Y-48222819D02*
X192087618Y-48365676D01*
X192087618Y-48365676D02*
X192182856Y-48460914D01*
X192182856Y-48460914D02*
X192278094Y-48508533D01*
X194373332Y-67971200D02*
X194230475Y-68018819D01*
X194230475Y-68018819D02*
X193992380Y-68018819D01*
X193992380Y-68018819D02*
X193897142Y-67971200D01*
X193897142Y-67971200D02*
X193849523Y-67923580D01*
X193849523Y-67923580D02*
X193801904Y-67828342D01*
X193801904Y-67828342D02*
X193801904Y-67733104D01*
X193801904Y-67733104D02*
X193849523Y-67637866D01*
X193849523Y-67637866D02*
X193897142Y-67590247D01*
X193897142Y-67590247D02*
X193992380Y-67542628D01*
X193992380Y-67542628D02*
X194182856Y-67495009D01*
X194182856Y-67495009D02*
X194278094Y-67447390D01*
X194278094Y-67447390D02*
X194325713Y-67399771D01*
X194325713Y-67399771D02*
X194373332Y-67304533D01*
X194373332Y-67304533D02*
X194373332Y-67209295D01*
X194373332Y-67209295D02*
X194325713Y-67114057D01*
X194325713Y-67114057D02*
X194278094Y-67066438D01*
X194278094Y-67066438D02*
X194182856Y-67018819D01*
X194182856Y-67018819D02*
X193944761Y-67018819D01*
X193944761Y-67018819D02*
X193801904Y-67066438D01*
X193468570Y-67018819D02*
X193230475Y-68018819D01*
X193230475Y-68018819D02*
X193039999Y-67304533D01*
X193039999Y-67304533D02*
X192849523Y-68018819D01*
X192849523Y-68018819D02*
X192611428Y-67018819D01*
X191706666Y-68018819D02*
X192278094Y-68018819D01*
X191992380Y-68018819D02*
X191992380Y-67018819D01*
X191992380Y-67018819D02*
X192087618Y-67161676D01*
X192087618Y-67161676D02*
X192182856Y-67256914D01*
X192182856Y-67256914D02*
X192278094Y-67304533D01*
X194373332Y-105563200D02*
X194230475Y-105610819D01*
X194230475Y-105610819D02*
X193992380Y-105610819D01*
X193992380Y-105610819D02*
X193897142Y-105563200D01*
X193897142Y-105563200D02*
X193849523Y-105515580D01*
X193849523Y-105515580D02*
X193801904Y-105420342D01*
X193801904Y-105420342D02*
X193801904Y-105325104D01*
X193801904Y-105325104D02*
X193849523Y-105229866D01*
X193849523Y-105229866D02*
X193897142Y-105182247D01*
X193897142Y-105182247D02*
X193992380Y-105134628D01*
X193992380Y-105134628D02*
X194182856Y-105087009D01*
X194182856Y-105087009D02*
X194278094Y-105039390D01*
X194278094Y-105039390D02*
X194325713Y-104991771D01*
X194325713Y-104991771D02*
X194373332Y-104896533D01*
X194373332Y-104896533D02*
X194373332Y-104801295D01*
X194373332Y-104801295D02*
X194325713Y-104706057D01*
X194325713Y-104706057D02*
X194278094Y-104658438D01*
X194278094Y-104658438D02*
X194182856Y-104610819D01*
X194182856Y-104610819D02*
X193944761Y-104610819D01*
X193944761Y-104610819D02*
X193801904Y-104658438D01*
X193468570Y-104610819D02*
X193230475Y-105610819D01*
X193230475Y-105610819D02*
X193039999Y-104896533D01*
X193039999Y-104896533D02*
X192849523Y-105610819D01*
X192849523Y-105610819D02*
X192611428Y-104610819D01*
X191706666Y-105610819D02*
X192278094Y-105610819D01*
X191992380Y-105610819D02*
X191992380Y-104610819D01*
X191992380Y-104610819D02*
X192087618Y-104753676D01*
X192087618Y-104753676D02*
X192182856Y-104848914D01*
X192182856Y-104848914D02*
X192278094Y-104896533D01*
X194373332Y-86767200D02*
X194230475Y-86814819D01*
X194230475Y-86814819D02*
X193992380Y-86814819D01*
X193992380Y-86814819D02*
X193897142Y-86767200D01*
X193897142Y-86767200D02*
X193849523Y-86719580D01*
X193849523Y-86719580D02*
X193801904Y-86624342D01*
X193801904Y-86624342D02*
X193801904Y-86529104D01*
X193801904Y-86529104D02*
X193849523Y-86433866D01*
X193849523Y-86433866D02*
X193897142Y-86386247D01*
X193897142Y-86386247D02*
X193992380Y-86338628D01*
X193992380Y-86338628D02*
X194182856Y-86291009D01*
X194182856Y-86291009D02*
X194278094Y-86243390D01*
X194278094Y-86243390D02*
X194325713Y-86195771D01*
X194325713Y-86195771D02*
X194373332Y-86100533D01*
X194373332Y-86100533D02*
X194373332Y-86005295D01*
X194373332Y-86005295D02*
X194325713Y-85910057D01*
X194325713Y-85910057D02*
X194278094Y-85862438D01*
X194278094Y-85862438D02*
X194182856Y-85814819D01*
X194182856Y-85814819D02*
X193944761Y-85814819D01*
X193944761Y-85814819D02*
X193801904Y-85862438D01*
X193468570Y-85814819D02*
X193230475Y-86814819D01*
X193230475Y-86814819D02*
X193039999Y-86100533D01*
X193039999Y-86100533D02*
X192849523Y-86814819D01*
X192849523Y-86814819D02*
X192611428Y-85814819D01*
X191706666Y-86814819D02*
X192278094Y-86814819D01*
X191992380Y-86814819D02*
X191992380Y-85814819D01*
X191992380Y-85814819D02*
X192087618Y-85957676D01*
X192087618Y-85957676D02*
X192182856Y-86052914D01*
X192182856Y-86052914D02*
X192278094Y-86100533D01*
X217741332Y-86767200D02*
X217598475Y-86814819D01*
X217598475Y-86814819D02*
X217360380Y-86814819D01*
X217360380Y-86814819D02*
X217265142Y-86767200D01*
X217265142Y-86767200D02*
X217217523Y-86719580D01*
X217217523Y-86719580D02*
X217169904Y-86624342D01*
X217169904Y-86624342D02*
X217169904Y-86529104D01*
X217169904Y-86529104D02*
X217217523Y-86433866D01*
X217217523Y-86433866D02*
X217265142Y-86386247D01*
X217265142Y-86386247D02*
X217360380Y-86338628D01*
X217360380Y-86338628D02*
X217550856Y-86291009D01*
X217550856Y-86291009D02*
X217646094Y-86243390D01*
X217646094Y-86243390D02*
X217693713Y-86195771D01*
X217693713Y-86195771D02*
X217741332Y-86100533D01*
X217741332Y-86100533D02*
X217741332Y-86005295D01*
X217741332Y-86005295D02*
X217693713Y-85910057D01*
X217693713Y-85910057D02*
X217646094Y-85862438D01*
X217646094Y-85862438D02*
X217550856Y-85814819D01*
X217550856Y-85814819D02*
X217312761Y-85814819D01*
X217312761Y-85814819D02*
X217169904Y-85862438D01*
X216836570Y-85814819D02*
X216598475Y-86814819D01*
X216598475Y-86814819D02*
X216407999Y-86100533D01*
X216407999Y-86100533D02*
X216217523Y-86814819D01*
X216217523Y-86814819D02*
X215979428Y-85814819D01*
X215074666Y-86814819D02*
X215646094Y-86814819D01*
X215360380Y-86814819D02*
X215360380Y-85814819D01*
X215360380Y-85814819D02*
X215455618Y-85957676D01*
X215455618Y-85957676D02*
X215550856Y-86052914D01*
X215550856Y-86052914D02*
X215646094Y-86100533D01*
X217741332Y-105563200D02*
X217598475Y-105610819D01*
X217598475Y-105610819D02*
X217360380Y-105610819D01*
X217360380Y-105610819D02*
X217265142Y-105563200D01*
X217265142Y-105563200D02*
X217217523Y-105515580D01*
X217217523Y-105515580D02*
X217169904Y-105420342D01*
X217169904Y-105420342D02*
X217169904Y-105325104D01*
X217169904Y-105325104D02*
X217217523Y-105229866D01*
X217217523Y-105229866D02*
X217265142Y-105182247D01*
X217265142Y-105182247D02*
X217360380Y-105134628D01*
X217360380Y-105134628D02*
X217550856Y-105087009D01*
X217550856Y-105087009D02*
X217646094Y-105039390D01*
X217646094Y-105039390D02*
X217693713Y-104991771D01*
X217693713Y-104991771D02*
X217741332Y-104896533D01*
X217741332Y-104896533D02*
X217741332Y-104801295D01*
X217741332Y-104801295D02*
X217693713Y-104706057D01*
X217693713Y-104706057D02*
X217646094Y-104658438D01*
X217646094Y-104658438D02*
X217550856Y-104610819D01*
X217550856Y-104610819D02*
X217312761Y-104610819D01*
X217312761Y-104610819D02*
X217169904Y-104658438D01*
X216836570Y-104610819D02*
X216598475Y-105610819D01*
X216598475Y-105610819D02*
X216407999Y-104896533D01*
X216407999Y-104896533D02*
X216217523Y-105610819D01*
X216217523Y-105610819D02*
X215979428Y-104610819D01*
X215074666Y-105610819D02*
X215646094Y-105610819D01*
X215360380Y-105610819D02*
X215360380Y-104610819D01*
X215360380Y-104610819D02*
X215455618Y-104753676D01*
X215455618Y-104753676D02*
X215550856Y-104848914D01*
X215550856Y-104848914D02*
X215646094Y-104896533D01*
X217741332Y-67971200D02*
X217598475Y-68018819D01*
X217598475Y-68018819D02*
X217360380Y-68018819D01*
X217360380Y-68018819D02*
X217265142Y-67971200D01*
X217265142Y-67971200D02*
X217217523Y-67923580D01*
X217217523Y-67923580D02*
X217169904Y-67828342D01*
X217169904Y-67828342D02*
X217169904Y-67733104D01*
X217169904Y-67733104D02*
X217217523Y-67637866D01*
X217217523Y-67637866D02*
X217265142Y-67590247D01*
X217265142Y-67590247D02*
X217360380Y-67542628D01*
X217360380Y-67542628D02*
X217550856Y-67495009D01*
X217550856Y-67495009D02*
X217646094Y-67447390D01*
X217646094Y-67447390D02*
X217693713Y-67399771D01*
X217693713Y-67399771D02*
X217741332Y-67304533D01*
X217741332Y-67304533D02*
X217741332Y-67209295D01*
X217741332Y-67209295D02*
X217693713Y-67114057D01*
X217693713Y-67114057D02*
X217646094Y-67066438D01*
X217646094Y-67066438D02*
X217550856Y-67018819D01*
X217550856Y-67018819D02*
X217312761Y-67018819D01*
X217312761Y-67018819D02*
X217169904Y-67066438D01*
X216836570Y-67018819D02*
X216598475Y-68018819D01*
X216598475Y-68018819D02*
X216407999Y-67304533D01*
X216407999Y-67304533D02*
X216217523Y-68018819D01*
X216217523Y-68018819D02*
X215979428Y-67018819D01*
X215074666Y-68018819D02*
X215646094Y-68018819D01*
X215360380Y-68018819D02*
X215360380Y-67018819D01*
X215360380Y-67018819D02*
X215455618Y-67161676D01*
X215455618Y-67161676D02*
X215550856Y-67256914D01*
X215550856Y-67256914D02*
X215646094Y-67304533D01*
X217741332Y-49175200D02*
X217598475Y-49222819D01*
X217598475Y-49222819D02*
X217360380Y-49222819D01*
X217360380Y-49222819D02*
X217265142Y-49175200D01*
X217265142Y-49175200D02*
X217217523Y-49127580D01*
X217217523Y-49127580D02*
X217169904Y-49032342D01*
X217169904Y-49032342D02*
X217169904Y-48937104D01*
X217169904Y-48937104D02*
X217217523Y-48841866D01*
X217217523Y-48841866D02*
X217265142Y-48794247D01*
X217265142Y-48794247D02*
X217360380Y-48746628D01*
X217360380Y-48746628D02*
X217550856Y-48699009D01*
X217550856Y-48699009D02*
X217646094Y-48651390D01*
X217646094Y-48651390D02*
X217693713Y-48603771D01*
X217693713Y-48603771D02*
X217741332Y-48508533D01*
X217741332Y-48508533D02*
X217741332Y-48413295D01*
X217741332Y-48413295D02*
X217693713Y-48318057D01*
X217693713Y-48318057D02*
X217646094Y-48270438D01*
X217646094Y-48270438D02*
X217550856Y-48222819D01*
X217550856Y-48222819D02*
X217312761Y-48222819D01*
X217312761Y-48222819D02*
X217169904Y-48270438D01*
X216836570Y-48222819D02*
X216598475Y-49222819D01*
X216598475Y-49222819D02*
X216407999Y-48508533D01*
X216407999Y-48508533D02*
X216217523Y-49222819D01*
X216217523Y-49222819D02*
X215979428Y-48222819D01*
X215074666Y-49222819D02*
X215646094Y-49222819D01*
X215360380Y-49222819D02*
X215360380Y-48222819D01*
X215360380Y-48222819D02*
X215455618Y-48365676D01*
X215455618Y-48365676D02*
X215550856Y-48460914D01*
X215550856Y-48460914D02*
X215646094Y-48508533D01*
D11*
X130060000Y-48780000D02*
X130060000Y-62980000D01*
X130060000Y-62980000D02*
X144260000Y-62980000D01*
X144260000Y-48780000D02*
X130060000Y-48780000D01*
X144260000Y-62980000D02*
X144260000Y-48780000D01*
X130060000Y-67576000D02*
X130060000Y-81776000D01*
X130060000Y-81776000D02*
X144260000Y-81776000D01*
X144260000Y-67576000D02*
X130060000Y-67576000D01*
X144260000Y-81776000D02*
X144260000Y-67576000D01*
X130060000Y-86372000D02*
X130060000Y-100572000D01*
X130060000Y-100572000D02*
X144260000Y-100572000D01*
X144260000Y-86372000D02*
X130060000Y-86372000D01*
X144260000Y-100572000D02*
X144260000Y-86372000D01*
X130060000Y-105168000D02*
X130060000Y-119368000D01*
X130060000Y-119368000D02*
X144260000Y-119368000D01*
X144260000Y-105168000D02*
X130060000Y-105168000D01*
X144260000Y-119368000D02*
X144260000Y-105168000D01*
X153428000Y-48780000D02*
X153428000Y-62980000D01*
X153428000Y-62980000D02*
X167628000Y-62980000D01*
X167628000Y-48780000D02*
X153428000Y-48780000D01*
X167628000Y-62980000D02*
X167628000Y-48780000D01*
X153428000Y-67576000D02*
X153428000Y-81776000D01*
X153428000Y-81776000D02*
X167628000Y-81776000D01*
X167628000Y-67576000D02*
X153428000Y-67576000D01*
X167628000Y-81776000D02*
X167628000Y-67576000D01*
X153428000Y-105168000D02*
X153428000Y-119368000D01*
X153428000Y-119368000D02*
X167628000Y-119368000D01*
X167628000Y-105168000D02*
X153428000Y-105168000D01*
X167628000Y-119368000D02*
X167628000Y-105168000D01*
X153428000Y-86372000D02*
X153428000Y-100572000D01*
X153428000Y-100572000D02*
X167628000Y-100572000D01*
X167628000Y-86372000D02*
X153428000Y-86372000D01*
X167628000Y-100572000D02*
X167628000Y-86372000D01*
X176796000Y-48780000D02*
X176796000Y-62980000D01*
X176796000Y-62980000D02*
X190996000Y-62980000D01*
X190996000Y-48780000D02*
X176796000Y-48780000D01*
X190996000Y-62980000D02*
X190996000Y-48780000D01*
X176796000Y-67576000D02*
X176796000Y-81776000D01*
X176796000Y-81776000D02*
X190996000Y-81776000D01*
X190996000Y-67576000D02*
X176796000Y-67576000D01*
X190996000Y-81776000D02*
X190996000Y-67576000D01*
X176796000Y-105168000D02*
X176796000Y-119368000D01*
X176796000Y-119368000D02*
X190996000Y-119368000D01*
X190996000Y-105168000D02*
X176796000Y-105168000D01*
X190996000Y-119368000D02*
X190996000Y-105168000D01*
X176796000Y-86372000D02*
X176796000Y-100572000D01*
X176796000Y-100572000D02*
X190996000Y-100572000D01*
X190996000Y-86372000D02*
X176796000Y-86372000D01*
X190996000Y-100572000D02*
X190996000Y-86372000D01*
X200164000Y-86372000D02*
X200164000Y-100572000D01*
X200164000Y-100572000D02*
X214364000Y-100572000D01*
X214364000Y-86372000D02*
X200164000Y-86372000D01*
X214364000Y-100572000D02*
X214364000Y-86372000D01*
X200164000Y-105168000D02*
X200164000Y-119368000D01*
X200164000Y-119368000D02*
X214364000Y-119368000D01*
X214364000Y-105168000D02*
X200164000Y-105168000D01*
X214364000Y-119368000D02*
X214364000Y-105168000D01*
X200164000Y-67576000D02*
X200164000Y-81776000D01*
X200164000Y-81776000D02*
X214364000Y-81776000D01*
X214364000Y-67576000D02*
X200164000Y-67576000D01*
X214364000Y-81776000D02*
X214364000Y-67576000D01*
X200164000Y-48780000D02*
X200164000Y-62980000D01*
X200164000Y-62980000D02*
X214364000Y-62980000D01*
X214364000Y-48780000D02*
X200164000Y-48780000D01*
X214364000Y-62980000D02*
X214364000Y-48780000D01*
%LPC*%
D12*
X142240000Y-55880000D03*
D13*
X140970000Y-53340000D03*
D14*
X137160000Y-55880000D03*
D13*
X134620000Y-50800000D03*
D12*
X132080000Y-55880000D03*
X142240000Y-74676000D03*
D13*
X140970000Y-72136000D03*
D14*
X137160000Y-74676000D03*
D13*
X134620000Y-69596000D03*
D12*
X132080000Y-74676000D03*
X142240000Y-93472000D03*
D13*
X140970000Y-90932000D03*
D14*
X137160000Y-93472000D03*
D13*
X134620000Y-88392000D03*
D12*
X132080000Y-93472000D03*
X142240000Y-112268000D03*
D13*
X140970000Y-109728000D03*
D14*
X137160000Y-112268000D03*
D13*
X134620000Y-107188000D03*
D12*
X132080000Y-112268000D03*
X165608000Y-55880000D03*
D13*
X164338000Y-53340000D03*
D14*
X160528000Y-55880000D03*
D13*
X157988000Y-50800000D03*
D12*
X155448000Y-55880000D03*
X165608000Y-74676000D03*
D13*
X164338000Y-72136000D03*
D14*
X160528000Y-74676000D03*
D13*
X157988000Y-69596000D03*
D12*
X155448000Y-74676000D03*
X165608000Y-112268000D03*
D13*
X164338000Y-109728000D03*
D14*
X160528000Y-112268000D03*
D13*
X157988000Y-107188000D03*
D12*
X155448000Y-112268000D03*
X165608000Y-93472000D03*
D13*
X164338000Y-90932000D03*
D14*
X160528000Y-93472000D03*
D13*
X157988000Y-88392000D03*
D12*
X155448000Y-93472000D03*
X188976000Y-55880000D03*
D13*
X187706000Y-53340000D03*
D14*
X183896000Y-55880000D03*
D13*
X181356000Y-50800000D03*
D12*
X178816000Y-55880000D03*
X188976000Y-74676000D03*
D13*
X187706000Y-72136000D03*
D14*
X183896000Y-74676000D03*
D13*
X181356000Y-69596000D03*
D12*
X178816000Y-74676000D03*
X188976000Y-112268000D03*
D13*
X187706000Y-109728000D03*
D14*
X183896000Y-112268000D03*
D13*
X181356000Y-107188000D03*
D12*
X178816000Y-112268000D03*
X188976000Y-93472000D03*
D13*
X187706000Y-90932000D03*
D14*
X183896000Y-93472000D03*
D13*
X181356000Y-88392000D03*
D12*
X178816000Y-93472000D03*
X212344000Y-93472000D03*
D13*
X211074000Y-90932000D03*
D14*
X207264000Y-93472000D03*
D13*
X204724000Y-88392000D03*
D12*
X202184000Y-93472000D03*
X212344000Y-112268000D03*
D13*
X211074000Y-109728000D03*
D14*
X207264000Y-112268000D03*
D13*
X204724000Y-107188000D03*
D12*
X202184000Y-112268000D03*
X212344000Y-74676000D03*
D13*
X211074000Y-72136000D03*
D14*
X207264000Y-74676000D03*
D13*
X204724000Y-69596000D03*
D12*
X202184000Y-74676000D03*
X212344000Y-55880000D03*
D13*
X211074000Y-53340000D03*
D14*
X207264000Y-55880000D03*
D13*
X204724000Y-50800000D03*
D12*
X202184000Y-55880000D03*
%LPD*%
M02*
