G04 #@! TF.GenerationSoftware,KiCad,Pcbnew,8.0.5*
G04 #@! TF.CreationDate,2024-10-04T13:50:06+09:00*
G04 #@! TF.ProjectId,mxiidx-socket,6d786969-6478-42d7-936f-636b65742e6b,rev?*
G04 #@! TF.SameCoordinates,Original*
G04 #@! TF.FileFunction,Copper,L2,Bot*
G04 #@! TF.FilePolarity,Positive*
%FSLAX46Y46*%
G04 Gerber Fmt 4.6, Leading zero omitted, Abs format (unit mm)*
G04 Created by KiCad (PCBNEW 8.0.5) date 2024-10-04 13:50:06*
%MOMM*%
%LPD*%
G01*
G04 APERTURE LIST*
G04 #@! TA.AperFunction,ViaPad*
%ADD10C,0.600000*%
G04 #@! TD*
G04 APERTURE END LIST*
D10*
X128524000Y-48768000D03*
X128524000Y-63500000D03*
X131318000Y-50800000D03*
X146812000Y-50800000D03*
X127508000Y-55880000D03*
X144245000Y-53340000D03*
X146812000Y-61468000D03*
X144245000Y-53340000D03*
X146812000Y-80264000D03*
X128524000Y-82296000D03*
X146812000Y-69596000D03*
X127508000Y-74676000D03*
X128524000Y-67564000D03*
X131318000Y-69596000D03*
X144245000Y-72136000D03*
X144245000Y-72136000D03*
X144245000Y-90932000D03*
X146812000Y-99060000D03*
X127508000Y-93472000D03*
X128524000Y-101092000D03*
X146812000Y-88392000D03*
X128524000Y-86360000D03*
X131318000Y-88392000D03*
X144245000Y-90932000D03*
X146812000Y-107188000D03*
X128524000Y-105156000D03*
X144245000Y-109728000D03*
X144245000Y-109728000D03*
X128524000Y-119888000D03*
X131318000Y-107188000D03*
X146812000Y-117856000D03*
X127508000Y-112268000D03*
X170180000Y-61468000D03*
X151892000Y-63500000D03*
X170180000Y-50800000D03*
X150876000Y-55880000D03*
X151892000Y-48768000D03*
X154686000Y-50800000D03*
X167613000Y-53340000D03*
X167613000Y-53340000D03*
X151892000Y-67564000D03*
X167613000Y-72136000D03*
X167613000Y-72136000D03*
X151892000Y-82296000D03*
X154686000Y-69596000D03*
X170180000Y-69596000D03*
X170180000Y-80264000D03*
X150876000Y-74676000D03*
X151892000Y-105156000D03*
X151892000Y-119888000D03*
X167613000Y-109728000D03*
X167613000Y-109728000D03*
X154686000Y-107188000D03*
X170180000Y-107188000D03*
X150876000Y-112268000D03*
X170180000Y-117856000D03*
X167613000Y-90932000D03*
X151892000Y-86360000D03*
X167613000Y-90932000D03*
X170180000Y-99060000D03*
X170180000Y-88392000D03*
X151892000Y-101092000D03*
X154686000Y-88392000D03*
X150876000Y-93472000D03*
X193548000Y-61468000D03*
X175260000Y-63500000D03*
X193548000Y-50800000D03*
X174244000Y-55880000D03*
X175260000Y-48768000D03*
X178054000Y-50800000D03*
X190981000Y-53340000D03*
X190981000Y-53340000D03*
X175260000Y-67564000D03*
X193548000Y-69596000D03*
X190981000Y-72136000D03*
X190981000Y-72136000D03*
X175260000Y-82296000D03*
X178054000Y-69596000D03*
X193548000Y-80264000D03*
X174244000Y-74676000D03*
X175260000Y-119888000D03*
X193548000Y-117856000D03*
X190981000Y-109728000D03*
X174244000Y-112268000D03*
X190981000Y-109728000D03*
X178054000Y-107188000D03*
X193548000Y-107188000D03*
X175260000Y-105156000D03*
X178054000Y-88392000D03*
X175260000Y-86360000D03*
X190981000Y-90932000D03*
X193548000Y-99060000D03*
X175260000Y-101092000D03*
X193548000Y-88392000D03*
X174244000Y-93472000D03*
X190981000Y-90932000D03*
X198628000Y-101092000D03*
X201422000Y-88392000D03*
X216916000Y-88392000D03*
X198628000Y-86360000D03*
X216916000Y-99060000D03*
X197612000Y-93472000D03*
X214349000Y-90932000D03*
X214349000Y-90932000D03*
X216916000Y-117856000D03*
X216916000Y-107188000D03*
X201422000Y-107188000D03*
X214349000Y-109728000D03*
X214349000Y-109728000D03*
X198628000Y-105156000D03*
X198628000Y-119888000D03*
X197612000Y-112268000D03*
X198628000Y-82296000D03*
X201422000Y-69596000D03*
X214349000Y-72136000D03*
X214349000Y-72136000D03*
X216916000Y-69596000D03*
X197612000Y-74676000D03*
X198628000Y-67564000D03*
X216916000Y-80264000D03*
X198628000Y-48768000D03*
X198628000Y-63500000D03*
X197612000Y-55880000D03*
X214349000Y-53340000D03*
X216916000Y-61468000D03*
X214349000Y-53340000D03*
X201422000Y-50800000D03*
X216916000Y-50800000D03*
M02*
