M48
; DRILL file {KiCad 8.0.5} date 2024-10-04T13:50:34+0900
; FORMAT={-:-/ absolute / metric / decimal}
; #@! TF.CreationDate,2024-10-04T13:50:34+09:00
; #@! TF.GenerationSoftware,Kicad,Pcbnew,8.0.5
; #@! TF.FileFunction,NonPlated,1,2,NPTH
FMAT,2
METRIC
; #@! TA.AperFunction,NonPlated,NPTH,ComponentDrill
T1C1.750
; #@! TA.AperFunction,NonPlated,NPTH,ComponentDrill
T2C3.050
; #@! TA.AperFunction,NonPlated,NPTH,ComponentDrill
T3C4.000
%
G90
G05
T1
X132.08Y-55.88
X132.08Y-74.676
X132.08Y-93.472
X132.08Y-112.268
X142.24Y-55.88
X142.24Y-74.676
X142.24Y-93.472
X142.24Y-112.268
X155.448Y-55.88
X155.448Y-74.676
X155.448Y-93.472
X155.448Y-112.268
X165.608Y-55.88
X165.608Y-74.676
X165.608Y-93.472
X165.608Y-112.268
X178.816Y-55.88
X178.816Y-74.676
X178.816Y-93.472
X178.816Y-112.268
X188.976Y-55.88
X188.976Y-74.676
X188.976Y-93.472
X188.976Y-112.268
X202.184Y-55.88
X202.184Y-74.676
X202.184Y-93.472
X202.184Y-112.268
X212.344Y-55.88
X212.344Y-74.676
X212.344Y-93.472
X212.344Y-112.268
T2
X134.62Y-50.8
X134.62Y-69.596
X134.62Y-88.392
X134.62Y-107.188
X140.97Y-53.34
X140.97Y-72.136
X140.97Y-90.932
X140.97Y-109.728
X157.988Y-50.8
X157.988Y-69.596
X157.988Y-88.392
X157.988Y-107.188
X164.338Y-53.34
X164.338Y-72.136
X164.338Y-90.932
X164.338Y-109.728
X181.356Y-50.8
X181.356Y-69.596
X181.356Y-88.392
X181.356Y-107.188
X187.706Y-53.34
X187.706Y-72.136
X187.706Y-90.932
X187.706Y-109.728
X204.724Y-50.8
X204.724Y-69.596
X204.724Y-88.392
X204.724Y-107.188
X211.074Y-53.34
X211.074Y-72.136
X211.074Y-90.932
X211.074Y-109.728
T3
X137.16Y-55.88
X137.16Y-74.676
X137.16Y-93.472
X137.16Y-112.268
X160.528Y-55.88
X160.528Y-74.676
X160.528Y-93.472
X160.528Y-112.268
X183.896Y-55.88
X183.896Y-74.676
X183.896Y-93.472
X183.896Y-112.268
X207.264Y-55.88
X207.264Y-74.676
X207.264Y-93.472
X207.264Y-112.268
M30
