M48
; DRILL file {KiCad 8.0.5} date 2024-10-04T13:50:34+0900
; FORMAT={-:-/ absolute / metric / decimal}
; #@! TF.CreationDate,2024-10-04T13:50:34+09:00
; #@! TF.GenerationSoftware,Kicad,Pcbnew,8.0.5
; #@! TF.FileFunction,Plated,1,2,PTH
FMAT,2
METRIC
; #@! TA.AperFunction,Plated,PTH,ViaDrill
T1C0.300
%
G90
G05
T1
X127.508Y-55.88
X127.508Y-74.676
X127.508Y-93.472
X127.508Y-112.268
X128.524Y-48.768
X128.524Y-63.5
X128.524Y-67.564
X128.524Y-82.296
X128.524Y-86.36
X128.524Y-101.092
X128.524Y-105.156
X128.524Y-119.888
X131.318Y-50.8
X131.318Y-69.596
X131.318Y-88.392
X131.318Y-107.188
X144.245Y-53.34
X144.245Y-53.34
X144.245Y-72.136
X144.245Y-72.136
X144.245Y-90.932
X144.245Y-90.932
X144.245Y-109.728
X144.245Y-109.728
X146.812Y-50.8
X146.812Y-61.468
X146.812Y-69.596
X146.812Y-80.264
X146.812Y-88.392
X146.812Y-99.06
X146.812Y-107.188
X146.812Y-117.856
X150.876Y-55.88
X150.876Y-74.676
X150.876Y-93.472
X150.876Y-112.268
X151.892Y-48.768
X151.892Y-63.5
X151.892Y-67.564
X151.892Y-82.296
X151.892Y-86.36
X151.892Y-101.092
X151.892Y-105.156
X151.892Y-119.888
X154.686Y-50.8
X154.686Y-69.596
X154.686Y-88.392
X154.686Y-107.188
X167.613Y-53.34
X167.613Y-53.34
X167.613Y-72.136
X167.613Y-72.136
X167.613Y-90.932
X167.613Y-90.932
X167.613Y-109.728
X167.613Y-109.728
X170.18Y-50.8
X170.18Y-61.468
X170.18Y-69.596
X170.18Y-80.264
X170.18Y-88.392
X170.18Y-99.06
X170.18Y-107.188
X170.18Y-117.856
X174.244Y-55.88
X174.244Y-74.676
X174.244Y-93.472
X174.244Y-112.268
X175.26Y-48.768
X175.26Y-63.5
X175.26Y-67.564
X175.26Y-82.296
X175.26Y-86.36
X175.26Y-101.092
X175.26Y-105.156
X175.26Y-119.888
X178.054Y-50.8
X178.054Y-69.596
X178.054Y-88.392
X178.054Y-107.188
X190.981Y-53.34
X190.981Y-53.34
X190.981Y-72.136
X190.981Y-72.136
X190.981Y-90.932
X190.981Y-90.932
X190.981Y-109.728
X190.981Y-109.728
X193.548Y-50.8
X193.548Y-61.468
X193.548Y-69.596
X193.548Y-80.264
X193.548Y-88.392
X193.548Y-99.06
X193.548Y-107.188
X193.548Y-117.856
X197.612Y-55.88
X197.612Y-74.676
X197.612Y-93.472
X197.612Y-112.268
X198.628Y-48.768
X198.628Y-63.5
X198.628Y-67.564
X198.628Y-82.296
X198.628Y-86.36
X198.628Y-101.092
X198.628Y-105.156
X198.628Y-119.888
X201.422Y-50.8
X201.422Y-69.596
X201.422Y-88.392
X201.422Y-107.188
X214.349Y-53.34
X214.349Y-53.34
X214.349Y-72.136
X214.349Y-72.136
X214.349Y-90.932
X214.349Y-90.932
X214.349Y-109.728
X214.349Y-109.728
X216.916Y-50.8
X216.916Y-61.468
X216.916Y-69.596
X216.916Y-80.264
X216.916Y-88.392
X216.916Y-99.06
X216.916Y-107.188
X216.916Y-117.856
M30
