G04 #@! TF.GenerationSoftware,KiCad,Pcbnew,8.0.5*
G04 #@! TF.CreationDate,2024-10-04T13:50:06+09:00*
G04 #@! TF.ProjectId,mxiidx-socket,6d786969-6478-42d7-936f-636b65742e6b,rev?*
G04 #@! TF.SameCoordinates,Original*
G04 #@! TF.FileFunction,Copper,L1,Top*
G04 #@! TF.FilePolarity,Positive*
%FSLAX46Y46*%
G04 Gerber Fmt 4.6, Leading zero omitted, Abs format (unit mm)*
G04 Created by KiCad (PCBNEW 8.0.5) date 2024-10-04 13:50:06*
%MOMM*%
%LPD*%
G01*
G04 APERTURE LIST*
G04 Aperture macros list*
%AMRoundRect*
0 Rectangle with rounded corners*
0 $1 Rounding radius*
0 $2 $3 $4 $5 $6 $7 $8 $9 X,Y pos of 4 corners*
0 Add a 4 corners polygon primitive as box body*
4,1,4,$2,$3,$4,$5,$6,$7,$8,$9,$2,$3,0*
0 Add four circle primitives for the rounded corners*
1,1,$1+$1,$2,$3*
1,1,$1+$1,$4,$5*
1,1,$1+$1,$6,$7*
1,1,$1+$1,$8,$9*
0 Add four rect primitives between the rounded corners*
20,1,$1+$1,$2,$3,$4,$5,0*
20,1,$1+$1,$4,$5,$6,$7,0*
20,1,$1+$1,$6,$7,$8,$9,0*
20,1,$1+$1,$8,$9,$2,$3,0*%
G04 Aperture macros list end*
G04 #@! TA.AperFunction,SMDPad,CuDef*
%ADD10RoundRect,0.250000X-0.750000X0.250000X-0.750000X-0.250000X0.750000X-0.250000X0.750000X0.250000X0*%
G04 #@! TD*
G04 #@! TA.AperFunction,SMDPad,CuDef*
%ADD11RoundRect,0.250000X0.750000X-0.250000X0.750000X0.250000X-0.750000X0.250000X-0.750000X-0.250000X0*%
G04 #@! TD*
G04 #@! TA.AperFunction,SMDPad,CuDef*
%ADD12RoundRect,0.250000X-0.250000X-0.750000X0.250000X-0.750000X0.250000X0.750000X-0.250000X0.750000X0*%
G04 #@! TD*
G04 #@! TA.AperFunction,SMDPad,CuDef*
%ADD13RoundRect,0.250000X1.025000X1.000000X-1.025000X1.000000X-1.025000X-1.000000X1.025000X-1.000000X0*%
G04 #@! TD*
G04 #@! TA.AperFunction,ViaPad*
%ADD14C,0.600000*%
G04 #@! TD*
G04 #@! TA.AperFunction,Conductor*
%ADD15C,0.200000*%
G04 #@! TD*
G04 APERTURE END LIST*
D10*
X146812000Y-50800000D03*
D11*
X127508000Y-55880000D03*
D12*
X128524000Y-48768000D03*
D11*
X146812000Y-61468000D03*
D12*
X128524000Y-63500000D03*
D13*
X144245000Y-53340000D03*
X131318000Y-50800000D03*
D12*
X128524000Y-67564000D03*
D11*
X127508000Y-74676000D03*
D10*
X146812000Y-69596000D03*
D11*
X146812000Y-80264000D03*
D13*
X144245000Y-72136000D03*
X131318000Y-69596000D03*
D12*
X128524000Y-82296000D03*
X128524000Y-101092000D03*
X128524000Y-86360000D03*
D11*
X127508000Y-93472000D03*
D10*
X146812000Y-88392000D03*
D11*
X146812000Y-99060000D03*
D13*
X144245000Y-90932000D03*
X131318000Y-88392000D03*
X144245000Y-109728000D03*
X131318000Y-107188000D03*
D11*
X127508000Y-112268000D03*
X146812000Y-117856000D03*
D10*
X146812000Y-107188000D03*
D12*
X128524000Y-105156000D03*
X128524000Y-119888000D03*
D13*
X167613000Y-53340000D03*
X154686000Y-50800000D03*
D12*
X151892000Y-48768000D03*
D10*
X170180000Y-50800000D03*
D11*
X170180000Y-61468000D03*
X150876000Y-55880000D03*
D12*
X151892000Y-63500000D03*
D13*
X167613000Y-72136000D03*
X154686000Y-69596000D03*
D12*
X151892000Y-82296000D03*
D10*
X170180000Y-69596000D03*
D11*
X150876000Y-74676000D03*
D12*
X151892000Y-67564000D03*
D11*
X170180000Y-80264000D03*
D13*
X167613000Y-109728000D03*
X154686000Y-107188000D03*
D11*
X150876000Y-112268000D03*
D10*
X170180000Y-107188000D03*
D12*
X151892000Y-119888000D03*
D11*
X170180000Y-117856000D03*
D12*
X151892000Y-105156000D03*
D13*
X167613000Y-90932000D03*
X154686000Y-88392000D03*
D12*
X151892000Y-101092000D03*
D10*
X170180000Y-88392000D03*
D11*
X150876000Y-93472000D03*
D12*
X151892000Y-86360000D03*
D11*
X170180000Y-99060000D03*
D12*
X175260000Y-48768000D03*
D10*
X193548000Y-50800000D03*
D11*
X193548000Y-61468000D03*
D13*
X190981000Y-53340000D03*
X178054000Y-50800000D03*
D11*
X174244000Y-55880000D03*
D12*
X175260000Y-63500000D03*
D13*
X190981000Y-72136000D03*
X178054000Y-69596000D03*
D10*
X193548000Y-69596000D03*
D11*
X193548000Y-80264000D03*
X174244000Y-74676000D03*
D12*
X175260000Y-67564000D03*
X175260000Y-82296000D03*
D13*
X190981000Y-109728000D03*
X178054000Y-107188000D03*
D12*
X175260000Y-119888000D03*
X175260000Y-105156000D03*
D10*
X193548000Y-107188000D03*
D11*
X193548000Y-117856000D03*
X174244000Y-112268000D03*
D13*
X190981000Y-90932000D03*
X178054000Y-88392000D03*
D10*
X193548000Y-88392000D03*
D11*
X174244000Y-93472000D03*
D12*
X175260000Y-86360000D03*
D11*
X193548000Y-99060000D03*
D12*
X175260000Y-101092000D03*
D13*
X214349000Y-90932000D03*
X201422000Y-88392000D03*
D10*
X216916000Y-88392000D03*
D12*
X198628000Y-101092000D03*
X198628000Y-86360000D03*
D11*
X197612000Y-93472000D03*
X216916000Y-99060000D03*
D13*
X214349000Y-109728000D03*
X201422000Y-107188000D03*
D12*
X198628000Y-119888000D03*
D11*
X197612000Y-112268000D03*
D12*
X198628000Y-105156000D03*
D10*
X216916000Y-107188000D03*
D11*
X216916000Y-117856000D03*
D13*
X214349000Y-72136000D03*
X201422000Y-69596000D03*
D12*
X198628000Y-82296000D03*
D10*
X216916000Y-69596000D03*
D12*
X198628000Y-67564000D03*
D11*
X216916000Y-80264000D03*
X197612000Y-74676000D03*
D12*
X198628000Y-48768000D03*
D10*
X216916000Y-50800000D03*
D13*
X214349000Y-53340000D03*
X201422000Y-50800000D03*
D11*
X197612000Y-55880000D03*
X216916000Y-61468000D03*
D12*
X198628000Y-63500000D03*
D14*
X128524000Y-48768000D03*
X128524000Y-63500000D03*
X131318000Y-50800000D03*
X146812000Y-50800000D03*
X127508000Y-55880000D03*
X144245000Y-53340000D03*
X146812000Y-61468000D03*
X144245000Y-53340000D03*
X146812000Y-80264000D03*
X128524000Y-82296000D03*
X146812000Y-69596000D03*
X127508000Y-74676000D03*
X128524000Y-67564000D03*
X131318000Y-69596000D03*
X144245000Y-72136000D03*
X144245000Y-72136000D03*
X144245000Y-90932000D03*
X146812000Y-99060000D03*
X127508000Y-93472000D03*
X128524000Y-101092000D03*
X146812000Y-88392000D03*
X128524000Y-86360000D03*
X131318000Y-88392000D03*
X144245000Y-90932000D03*
X146812000Y-107188000D03*
X128524000Y-105156000D03*
X144245000Y-109728000D03*
X144245000Y-109728000D03*
X128524000Y-119888000D03*
X131318000Y-107188000D03*
X146812000Y-117856000D03*
X127508000Y-112268000D03*
X170180000Y-61468000D03*
X151892000Y-63500000D03*
X170180000Y-50800000D03*
X150876000Y-55880000D03*
X151892000Y-48768000D03*
X154686000Y-50800000D03*
X167613000Y-53340000D03*
X167613000Y-53340000D03*
X151892000Y-67564000D03*
X167613000Y-72136000D03*
X167613000Y-72136000D03*
X151892000Y-82296000D03*
X154686000Y-69596000D03*
X170180000Y-69596000D03*
X170180000Y-80264000D03*
X150876000Y-74676000D03*
X151892000Y-105156000D03*
X151892000Y-119888000D03*
X167613000Y-109728000D03*
X167613000Y-109728000D03*
X154686000Y-107188000D03*
X170180000Y-107188000D03*
X150876000Y-112268000D03*
X170180000Y-117856000D03*
X167613000Y-90932000D03*
X151892000Y-86360000D03*
X167613000Y-90932000D03*
X170180000Y-99060000D03*
X170180000Y-88392000D03*
X151892000Y-101092000D03*
X154686000Y-88392000D03*
X150876000Y-93472000D03*
X193548000Y-61468000D03*
X175260000Y-63500000D03*
X193548000Y-50800000D03*
X174244000Y-55880000D03*
X175260000Y-48768000D03*
X178054000Y-50800000D03*
X190981000Y-53340000D03*
X190981000Y-53340000D03*
X175260000Y-67564000D03*
X193548000Y-69596000D03*
X190981000Y-72136000D03*
X190981000Y-72136000D03*
X175260000Y-82296000D03*
X178054000Y-69596000D03*
X193548000Y-80264000D03*
X174244000Y-74676000D03*
X175260000Y-119888000D03*
X193548000Y-117856000D03*
X190981000Y-109728000D03*
X174244000Y-112268000D03*
X190981000Y-109728000D03*
X178054000Y-107188000D03*
X193548000Y-107188000D03*
X175260000Y-105156000D03*
X178054000Y-88392000D03*
X175260000Y-86360000D03*
X190981000Y-90932000D03*
X193548000Y-99060000D03*
X175260000Y-101092000D03*
X193548000Y-88392000D03*
X174244000Y-93472000D03*
X190981000Y-90932000D03*
X198628000Y-101092000D03*
X201422000Y-88392000D03*
X216916000Y-88392000D03*
X198628000Y-86360000D03*
X216916000Y-99060000D03*
X197612000Y-93472000D03*
X214349000Y-90932000D03*
X214349000Y-90932000D03*
X216916000Y-117856000D03*
X216916000Y-107188000D03*
X201422000Y-107188000D03*
X214349000Y-109728000D03*
X214349000Y-109728000D03*
X198628000Y-105156000D03*
X198628000Y-119888000D03*
X197612000Y-112268000D03*
X198628000Y-82296000D03*
X201422000Y-69596000D03*
X214349000Y-72136000D03*
X214349000Y-72136000D03*
X216916000Y-69596000D03*
X197612000Y-74676000D03*
X198628000Y-67564000D03*
X216916000Y-80264000D03*
X198628000Y-48768000D03*
X198628000Y-63500000D03*
X197612000Y-55880000D03*
X214349000Y-53340000D03*
X216916000Y-61468000D03*
X214349000Y-53340000D03*
X201422000Y-50800000D03*
X216916000Y-50800000D03*
D15*
X128524000Y-63500000D02*
X128524000Y-60452000D01*
X131851400Y-47752000D02*
X146304000Y-47752000D01*
X131318000Y-53340000D02*
X130810000Y-53848000D01*
X129032000Y-50800000D02*
X131318000Y-50800000D01*
X128524000Y-48768000D02*
X128524000Y-50292000D01*
X131318000Y-50800000D02*
X131318000Y-53340000D01*
X131318000Y-48285400D02*
X131851400Y-47752000D01*
X128016000Y-53848000D02*
X127508000Y-54356000D01*
X131318000Y-50800000D02*
X131318000Y-48285400D01*
X146812000Y-48260000D02*
X146812000Y-50800000D01*
X127508000Y-59436000D02*
X127508000Y-55880000D01*
X128524000Y-50292000D02*
X129032000Y-50800000D01*
X130810000Y-53848000D02*
X128016000Y-53848000D01*
X127508000Y-54356000D02*
X127508000Y-55880000D01*
X146304000Y-47752000D02*
X146812000Y-48260000D01*
X128524000Y-60452000D02*
X127508000Y-59436000D01*
X144245000Y-53340000D02*
X144245000Y-55853000D01*
X144245000Y-55853000D02*
X146812000Y-58420000D01*
X146812000Y-58420000D02*
X146812000Y-61468000D01*
X131318000Y-72136000D02*
X130810000Y-72644000D01*
X127508000Y-73152000D02*
X127508000Y-74676000D01*
X129032000Y-69596000D02*
X131318000Y-69596000D01*
X146304000Y-66548000D02*
X146812000Y-67056000D01*
X130810000Y-72644000D02*
X128016000Y-72644000D01*
X128016000Y-72644000D02*
X127508000Y-73152000D01*
X144245000Y-72136000D02*
X144245000Y-74649000D01*
X144245000Y-74649000D02*
X146812000Y-77216000D01*
X146812000Y-67056000D02*
X146812000Y-69596000D01*
X131318000Y-67081400D02*
X131851400Y-66548000D01*
X127508000Y-78232000D02*
X127508000Y-74676000D01*
X146812000Y-77216000D02*
X146812000Y-80264000D01*
X128524000Y-69088000D02*
X129032000Y-69596000D01*
X131318000Y-69596000D02*
X131318000Y-72136000D01*
X131318000Y-69596000D02*
X131318000Y-67081400D01*
X128524000Y-82296000D02*
X128524000Y-79248000D01*
X131851400Y-66548000D02*
X146304000Y-66548000D01*
X128524000Y-67564000D02*
X128524000Y-69088000D01*
X128524000Y-79248000D02*
X127508000Y-78232000D01*
X131851400Y-85344000D02*
X146304000Y-85344000D01*
X131318000Y-90932000D02*
X130810000Y-91440000D01*
X127508000Y-91948000D02*
X127508000Y-93472000D01*
X128524000Y-98044000D02*
X127508000Y-97028000D01*
X129032000Y-88392000D02*
X131318000Y-88392000D01*
X144245000Y-90932000D02*
X144245000Y-93445000D01*
X146812000Y-85852000D02*
X146812000Y-88392000D01*
X131318000Y-85877400D02*
X131851400Y-85344000D01*
X146304000Y-85344000D02*
X146812000Y-85852000D01*
X131318000Y-88392000D02*
X131318000Y-90932000D01*
X127508000Y-97028000D02*
X127508000Y-93472000D01*
X146812000Y-96012000D02*
X146812000Y-99060000D01*
X128524000Y-87884000D02*
X129032000Y-88392000D01*
X144245000Y-93445000D02*
X146812000Y-96012000D01*
X131318000Y-88392000D02*
X131318000Y-85877400D01*
X128524000Y-86360000D02*
X128524000Y-87884000D01*
X128016000Y-91440000D02*
X127508000Y-91948000D01*
X128524000Y-101092000D02*
X128524000Y-98044000D01*
X130810000Y-91440000D02*
X128016000Y-91440000D01*
X128524000Y-119888000D02*
X128524000Y-116840000D01*
X130810000Y-110236000D02*
X128016000Y-110236000D01*
X131318000Y-109728000D02*
X130810000Y-110236000D01*
X128524000Y-105156000D02*
X128524000Y-106680000D01*
X131851400Y-104140000D02*
X146304000Y-104140000D01*
X128524000Y-116840000D02*
X127508000Y-115824000D01*
X144245000Y-112241000D02*
X146812000Y-114808000D01*
X129032000Y-107188000D02*
X131318000Y-107188000D01*
X146304000Y-104140000D02*
X146812000Y-104648000D01*
X131318000Y-107188000D02*
X131318000Y-109728000D01*
X144245000Y-109728000D02*
X144245000Y-112241000D01*
X128016000Y-110236000D02*
X127508000Y-110744000D01*
X128524000Y-106680000D02*
X129032000Y-107188000D01*
X131318000Y-104673400D02*
X131851400Y-104140000D01*
X146812000Y-104648000D02*
X146812000Y-107188000D01*
X127508000Y-110744000D02*
X127508000Y-112268000D01*
X131318000Y-107188000D02*
X131318000Y-104673400D01*
X127508000Y-115824000D02*
X127508000Y-112268000D01*
X146812000Y-114808000D02*
X146812000Y-117856000D01*
X155219400Y-47752000D02*
X169672000Y-47752000D01*
X154686000Y-53340000D02*
X154178000Y-53848000D01*
X167613000Y-53340000D02*
X167613000Y-55853000D01*
X150876000Y-54356000D02*
X150876000Y-55880000D01*
X151384000Y-53848000D02*
X150876000Y-54356000D01*
X154686000Y-48285400D02*
X155219400Y-47752000D01*
X152400000Y-50800000D02*
X154686000Y-50800000D01*
X151892000Y-48768000D02*
X151892000Y-50292000D01*
X154686000Y-50800000D02*
X154686000Y-53340000D01*
X170180000Y-48260000D02*
X170180000Y-50800000D01*
X170180000Y-58420000D02*
X170180000Y-61468000D01*
X169672000Y-47752000D02*
X170180000Y-48260000D01*
X150876000Y-59436000D02*
X150876000Y-55880000D01*
X151892000Y-50292000D02*
X152400000Y-50800000D01*
X167613000Y-55853000D02*
X170180000Y-58420000D01*
X154686000Y-50800000D02*
X154686000Y-48285400D01*
X151892000Y-63500000D02*
X151892000Y-60452000D01*
X151892000Y-60452000D02*
X150876000Y-59436000D01*
X154178000Y-53848000D02*
X151384000Y-53848000D01*
X151892000Y-82296000D02*
X151892000Y-79248000D01*
X154178000Y-72644000D02*
X151384000Y-72644000D01*
X154686000Y-72136000D02*
X154178000Y-72644000D01*
X155219400Y-66548000D02*
X169672000Y-66548000D01*
X151892000Y-79248000D02*
X150876000Y-78232000D01*
X151892000Y-67564000D02*
X151892000Y-69088000D01*
X152400000Y-69596000D02*
X154686000Y-69596000D01*
X154686000Y-69596000D02*
X154686000Y-72136000D01*
X167613000Y-72136000D02*
X167613000Y-74649000D01*
X151892000Y-69088000D02*
X152400000Y-69596000D01*
X154686000Y-67081400D02*
X155219400Y-66548000D01*
X170180000Y-67056000D02*
X170180000Y-69596000D01*
X151384000Y-72644000D02*
X150876000Y-73152000D01*
X167613000Y-74649000D02*
X170180000Y-77216000D01*
X150876000Y-73152000D02*
X150876000Y-74676000D01*
X150876000Y-78232000D02*
X150876000Y-74676000D01*
X154686000Y-69596000D02*
X154686000Y-67081400D01*
X170180000Y-77216000D02*
X170180000Y-80264000D01*
X169672000Y-66548000D02*
X170180000Y-67056000D01*
X151892000Y-106680000D02*
X152400000Y-107188000D01*
X152400000Y-107188000D02*
X154686000Y-107188000D01*
X154686000Y-104673400D02*
X155219400Y-104140000D01*
X151892000Y-105156000D02*
X151892000Y-106680000D01*
X151892000Y-116840000D02*
X150876000Y-115824000D01*
X154686000Y-109728000D02*
X154178000Y-110236000D01*
X150876000Y-115824000D02*
X150876000Y-112268000D01*
X154686000Y-107188000D02*
X154686000Y-104673400D01*
X155219400Y-104140000D02*
X169672000Y-104140000D01*
X150876000Y-110744000D02*
X150876000Y-112268000D01*
X151384000Y-110236000D02*
X150876000Y-110744000D01*
X167613000Y-112241000D02*
X170180000Y-114808000D01*
X154686000Y-107188000D02*
X154686000Y-109728000D01*
X154178000Y-110236000D02*
X151384000Y-110236000D01*
X170180000Y-114808000D02*
X170180000Y-117856000D01*
X151892000Y-119888000D02*
X151892000Y-116840000D01*
X167613000Y-109728000D02*
X167613000Y-112241000D01*
X169672000Y-104140000D02*
X170180000Y-104648000D01*
X170180000Y-104648000D02*
X170180000Y-107188000D01*
X154686000Y-88392000D02*
X154686000Y-85877400D01*
X151892000Y-101092000D02*
X151892000Y-98044000D01*
X154686000Y-85877400D02*
X155219400Y-85344000D01*
X155219400Y-85344000D02*
X169672000Y-85344000D01*
X151892000Y-87884000D02*
X152400000Y-88392000D01*
X154686000Y-90932000D02*
X154178000Y-91440000D01*
X167613000Y-93445000D02*
X170180000Y-96012000D01*
X151384000Y-91440000D02*
X150876000Y-91948000D01*
X167613000Y-90932000D02*
X167613000Y-93445000D01*
X152400000Y-88392000D02*
X154686000Y-88392000D01*
X151892000Y-86360000D02*
X151892000Y-87884000D01*
X170180000Y-96012000D02*
X170180000Y-99060000D01*
X154686000Y-88392000D02*
X154686000Y-90932000D01*
X170180000Y-85852000D02*
X170180000Y-88392000D01*
X150876000Y-97028000D02*
X150876000Y-93472000D01*
X151892000Y-98044000D02*
X150876000Y-97028000D01*
X150876000Y-91948000D02*
X150876000Y-93472000D01*
X154178000Y-91440000D02*
X151384000Y-91440000D01*
X169672000Y-85344000D02*
X170180000Y-85852000D01*
X175260000Y-48768000D02*
X175260000Y-50292000D01*
X178054000Y-53340000D02*
X177546000Y-53848000D01*
X178587400Y-47752000D02*
X193040000Y-47752000D01*
X174244000Y-54356000D02*
X174244000Y-55880000D01*
X175768000Y-50800000D02*
X178054000Y-50800000D01*
X174752000Y-53848000D02*
X174244000Y-54356000D01*
X178054000Y-48285400D02*
X178587400Y-47752000D01*
X190981000Y-53340000D02*
X190981000Y-55853000D01*
X193548000Y-48260000D02*
X193548000Y-50800000D01*
X193040000Y-47752000D02*
X193548000Y-48260000D01*
X174244000Y-59436000D02*
X174244000Y-55880000D01*
X193548000Y-58420000D02*
X193548000Y-61468000D01*
X175260000Y-50292000D02*
X175768000Y-50800000D01*
X190981000Y-55853000D02*
X193548000Y-58420000D01*
X178054000Y-50800000D02*
X178054000Y-53340000D01*
X178054000Y-50800000D02*
X178054000Y-48285400D01*
X177546000Y-53848000D02*
X174752000Y-53848000D01*
X175260000Y-63500000D02*
X175260000Y-60452000D01*
X175260000Y-60452000D02*
X174244000Y-59436000D01*
X175260000Y-82296000D02*
X175260000Y-79248000D01*
X175260000Y-79248000D02*
X174244000Y-78232000D01*
X177546000Y-72644000D02*
X174752000Y-72644000D01*
X178054000Y-72136000D02*
X177546000Y-72644000D01*
X178587400Y-66548000D02*
X193040000Y-66548000D01*
X175768000Y-69596000D02*
X178054000Y-69596000D01*
X175260000Y-67564000D02*
X175260000Y-69088000D01*
X178054000Y-69596000D02*
X178054000Y-72136000D01*
X190981000Y-72136000D02*
X190981000Y-74649000D01*
X193040000Y-66548000D02*
X193548000Y-67056000D01*
X175260000Y-69088000D02*
X175768000Y-69596000D01*
X178054000Y-67081400D02*
X178587400Y-66548000D01*
X193548000Y-67056000D02*
X193548000Y-69596000D01*
X190981000Y-74649000D02*
X193548000Y-77216000D01*
X174752000Y-72644000D02*
X174244000Y-73152000D01*
X174244000Y-73152000D02*
X174244000Y-74676000D01*
X178054000Y-69596000D02*
X178054000Y-67081400D01*
X174244000Y-78232000D02*
X174244000Y-74676000D01*
X193548000Y-77216000D02*
X193548000Y-80264000D01*
X175768000Y-107188000D02*
X178054000Y-107188000D01*
X175260000Y-105156000D02*
X175260000Y-106680000D01*
X175260000Y-116840000D02*
X174244000Y-115824000D01*
X178054000Y-109728000D02*
X177546000Y-110236000D01*
X178054000Y-107188000D02*
X178054000Y-104673400D01*
X174244000Y-110744000D02*
X174244000Y-112268000D01*
X178054000Y-104673400D02*
X178587400Y-104140000D01*
X178587400Y-104140000D02*
X193040000Y-104140000D01*
X175260000Y-106680000D02*
X175768000Y-107188000D01*
X190981000Y-112241000D02*
X193548000Y-114808000D01*
X193548000Y-114808000D02*
X193548000Y-117856000D01*
X178054000Y-107188000D02*
X178054000Y-109728000D01*
X177546000Y-110236000D02*
X174752000Y-110236000D01*
X174244000Y-115824000D02*
X174244000Y-112268000D01*
X175260000Y-119888000D02*
X175260000Y-116840000D01*
X190981000Y-109728000D02*
X190981000Y-112241000D01*
X193040000Y-104140000D02*
X193548000Y-104648000D01*
X174752000Y-110236000D02*
X174244000Y-110744000D01*
X193548000Y-104648000D02*
X193548000Y-107188000D01*
X178054000Y-88392000D02*
X178054000Y-85877400D01*
X175260000Y-101092000D02*
X175260000Y-98044000D01*
X178054000Y-85877400D02*
X178587400Y-85344000D01*
X177546000Y-91440000D02*
X174752000Y-91440000D01*
X178587400Y-85344000D02*
X193040000Y-85344000D01*
X178054000Y-90932000D02*
X177546000Y-91440000D01*
X175260000Y-87884000D02*
X175768000Y-88392000D01*
X175260000Y-98044000D02*
X174244000Y-97028000D01*
X190981000Y-93445000D02*
X193548000Y-96012000D01*
X175768000Y-88392000D02*
X178054000Y-88392000D01*
X175260000Y-86360000D02*
X175260000Y-87884000D01*
X193040000Y-85344000D02*
X193548000Y-85852000D01*
X178054000Y-88392000D02*
X178054000Y-90932000D01*
X190981000Y-90932000D02*
X190981000Y-93445000D01*
X174752000Y-91440000D02*
X174244000Y-91948000D01*
X193548000Y-85852000D02*
X193548000Y-88392000D01*
X174244000Y-97028000D02*
X174244000Y-93472000D01*
X193548000Y-96012000D02*
X193548000Y-99060000D01*
X174244000Y-91948000D02*
X174244000Y-93472000D01*
X201422000Y-88392000D02*
X201422000Y-90932000D01*
X201955400Y-85344000D02*
X216408000Y-85344000D01*
X199136000Y-88392000D02*
X201422000Y-88392000D01*
X216408000Y-85344000D02*
X216916000Y-85852000D01*
X201422000Y-88392000D02*
X201422000Y-85877400D01*
X214349000Y-93445000D02*
X216916000Y-96012000D01*
X198628000Y-87884000D02*
X199136000Y-88392000D01*
X216916000Y-96012000D02*
X216916000Y-99060000D01*
X197612000Y-97028000D02*
X197612000Y-93472000D01*
X216916000Y-85852000D02*
X216916000Y-88392000D01*
X197612000Y-91948000D02*
X197612000Y-93472000D01*
X198628000Y-98044000D02*
X197612000Y-97028000D01*
X198120000Y-91440000D02*
X197612000Y-91948000D01*
X200914000Y-91440000D02*
X198120000Y-91440000D01*
X198628000Y-86360000D02*
X198628000Y-87884000D01*
X201422000Y-85877400D02*
X201955400Y-85344000D01*
X198628000Y-101092000D02*
X198628000Y-98044000D01*
X201422000Y-90932000D02*
X200914000Y-91440000D01*
X214349000Y-90932000D02*
X214349000Y-93445000D01*
X197612000Y-115824000D02*
X197612000Y-112268000D01*
X200914000Y-110236000D02*
X198120000Y-110236000D01*
X216916000Y-104648000D02*
X216916000Y-107188000D01*
X201422000Y-107188000D02*
X201422000Y-104673400D01*
X216916000Y-114808000D02*
X216916000Y-117856000D01*
X197612000Y-110744000D02*
X197612000Y-112268000D01*
X198628000Y-105156000D02*
X198628000Y-106680000D01*
X201422000Y-107188000D02*
X201422000Y-109728000D01*
X198628000Y-106680000D02*
X199136000Y-107188000D01*
X198628000Y-116840000D02*
X197612000Y-115824000D01*
X201955400Y-104140000D02*
X216408000Y-104140000D01*
X216408000Y-104140000D02*
X216916000Y-104648000D01*
X198120000Y-110236000D02*
X197612000Y-110744000D01*
X214349000Y-109728000D02*
X214349000Y-112241000D01*
X199136000Y-107188000D02*
X201422000Y-107188000D01*
X201422000Y-104673400D02*
X201955400Y-104140000D01*
X214349000Y-112241000D02*
X216916000Y-114808000D01*
X198628000Y-119888000D02*
X198628000Y-116840000D01*
X201422000Y-109728000D02*
X200914000Y-110236000D01*
X216408000Y-66548000D02*
X216916000Y-67056000D01*
X201422000Y-69596000D02*
X201422000Y-72136000D01*
X199136000Y-69596000D02*
X201422000Y-69596000D01*
X198120000Y-72644000D02*
X197612000Y-73152000D01*
X198628000Y-79248000D02*
X197612000Y-78232000D01*
X201422000Y-67081400D02*
X201955400Y-66548000D01*
X201422000Y-69596000D02*
X201422000Y-67081400D01*
X197612000Y-73152000D02*
X197612000Y-74676000D01*
X201422000Y-72136000D02*
X200914000Y-72644000D01*
X198628000Y-69088000D02*
X199136000Y-69596000D01*
X214349000Y-74649000D02*
X216916000Y-77216000D01*
X201955400Y-66548000D02*
X216408000Y-66548000D01*
X198628000Y-67564000D02*
X198628000Y-69088000D01*
X216916000Y-77216000D02*
X216916000Y-80264000D01*
X197612000Y-78232000D02*
X197612000Y-74676000D01*
X200914000Y-72644000D02*
X198120000Y-72644000D01*
X198628000Y-82296000D02*
X198628000Y-79248000D01*
X216916000Y-67056000D02*
X216916000Y-69596000D01*
X214349000Y-72136000D02*
X214349000Y-74649000D01*
X198628000Y-50292000D02*
X199136000Y-50800000D01*
X198628000Y-63500000D02*
X198628000Y-60452000D01*
X200914000Y-53848000D02*
X198120000Y-53848000D01*
X201955400Y-47752000D02*
X216408000Y-47752000D01*
X214349000Y-55853000D02*
X216916000Y-58420000D01*
X201422000Y-53340000D02*
X200914000Y-53848000D01*
X197612000Y-59436000D02*
X197612000Y-55880000D01*
X216916000Y-58420000D02*
X216916000Y-61468000D01*
X198120000Y-53848000D02*
X197612000Y-54356000D01*
X199136000Y-50800000D02*
X201422000Y-50800000D01*
X198628000Y-48768000D02*
X198628000Y-50292000D01*
X201422000Y-48285400D02*
X201955400Y-47752000D01*
X201422000Y-50800000D02*
X201422000Y-53340000D01*
X214349000Y-53340000D02*
X214349000Y-55853000D01*
X197612000Y-54356000D02*
X197612000Y-55880000D01*
X216408000Y-47752000D02*
X216916000Y-48260000D01*
X216916000Y-48260000D02*
X216916000Y-50800000D01*
X201422000Y-50800000D02*
X201422000Y-48285400D01*
X198628000Y-60452000D02*
X197612000Y-59436000D01*
M02*
